<?xml version="1.0" encoding="us-ascii" standalone="no"?><svg xmlns="http://www.w3.org/2000/svg" xmlns:xlink="http://www.w3.org/1999/xlink" contentStyleType="text/css" height="1032px" preserveAspectRatio="none" style="width:873px;height:1032px;background:#FFFFFF;" version="1.1" viewBox="0 0 873 1032" width="873px" zoomAndPan="magnify"><defs/><g><!--cluster presentation--><g id="cluster_presentation"><path d="M85.5,6 L176.5,6 A3.75,3.75 0 0 1 179,8.5 L186,27.6406 L452.5,27.6406 A2.5,2.5 0 0 1 455,30.1406 L455,139.5 A2.5,2.5 0 0 1 452.5,142 L85.5,142 A2.5,2.5 0 0 1 83,139.5 L83,8.5 A2.5,2.5 0 0 1 85.5,6 " fill="#DDDDDD" style="stroke:#000000;stroke-width:1.5;"/><line style="stroke:#000000;stroke-width:1.5;" x1="83" x2="186" y1="27.6406" y2="27.6406"/><text fill="#000000" font-family="sans-serif" font-size="14" font-weight="bold" lengthAdjust="spacing" textLength="90" x="87" y="20.6738">presentation</text></g><!--cluster domain--><g id="cluster_domain"><path d="M300.5,520 L352.5,520 A3.75,3.75 0 0 1 355,522.5 L362,541.6406 L863.5,541.6406 A2.5,2.5 0 0 1 866,544.1406 L866,1022.5 A2.5,2.5 0 0 1 863.5,1025 L300.5,1025 A2.5,2.5 0 0 1 298,1022.5 L298,522.5 A2.5,2.5 0 0 1 300.5,520 " fill="#DBD8AE" style="stroke:#000000;stroke-width:1.5;"/><line style="stroke:#000000;stroke-width:1.5;" x1="298" x2="362" y1="541.6406" y2="541.6406"/><text fill="#000000" font-family="sans-serif" font-size="14" font-weight="bold" lengthAdjust="spacing" textLength="51" x="302" y="534.6738">domain</text></g><!--cluster persistence--><g id="cluster_persistence"><path d="M8.5,558 L93.5,558 A3.75,3.75 0 0 1 96,560.5 L103,579.6406 L271.5,579.6406 A2.5,2.5 0 0 1 274,582.1406 L274,691.5 A2.5,2.5 0 0 1 271.5,694 L8.5,694 A2.5,2.5 0 0 1 6,691.5 L6,560.5 A2.5,2.5 0 0 1 8.5,558 " fill="#DBD8AE" style="stroke:#000000;stroke-width:1.5;"/><line style="stroke:#000000;stroke-width:1.5;" x1="6" x2="103" y1="579.6406" y2="579.6406"/><text fill="#000000" font-family="sans-serif" font-size="14" font-weight="bold" lengthAdjust="spacing" textLength="84" x="10" y="572.6738">persistence</text></g><!--cluster application--><g id="cluster_application"><path d="M110.5,166 L188.5,166 A3.75,3.75 0 0 1 191,168.5 L198,187.6406 L427.5,187.6406 A2.5,2.5 0 0 1 430,190.1406 L430,493.5 A2.5,2.5 0 0 1 427.5,496 L110.5,496 A2.5,2.5 0 0 1 108,493.5 L108,168.5 A2.5,2.5 0 0 1 110.5,166 " fill="#EAF4D3" style="stroke:#000000;stroke-width:1.5;"/><line style="stroke:#000000;stroke-width:1.5;" x1="108" x2="198" y1="187.6406" y2="187.6406"/><text fill="#000000" font-family="sans-serif" font-size="14" font-weight="bold" lengthAdjust="spacing" textLength="77" x="112" y="180.6738">application</text></g><!--class ListParticipantsInMeetingUI--><g id="elem_ListParticipantsInMeetingUI"><rect codeLine="4" fill="#F1F1F1" height="86.3281" id="ListParticipantsInMeetingUI" rx="2.5" ry="2.5" style="stroke:#181818;stroke-width:0.5;" width="339" x="99.5" y="40"/><ellipse cx="180.25" cy="59.5234" fill="#ADD1B2" rx="11" ry="11" style="stroke:#181818;stroke-width:1.0;"/><path d="M183.0156,55.3984 Q183.1719,55.1797 183.3594,55.0703 Q183.5469,54.9609 183.7656,54.9609 Q184.1406,54.9609 184.375,55.2266 Q184.6094,55.4766 184.6094,56.0859 L184.6094,57.5391 Q184.6094,58.1484 184.375,58.4141 Q184.1406,58.6797 183.7656,58.6797 Q183.4219,58.6797 183.2188,58.4766 Q183.0156,58.2891 182.9063,57.7734 Q182.8594,57.4141 182.6719,57.2266 Q182.3438,56.8516 181.7344,56.6328 Q181.125,56.4141 180.5,56.4141 Q179.7344,56.4141 179.0938,56.7422 Q178.4688,57.0703 177.9688,57.8203 Q177.4844,58.5703 177.4844,59.6016 L177.4844,60.6953 Q177.4844,61.9297 178.375,62.7578 Q179.2656,63.5703 180.8594,63.5703 Q181.7969,63.5703 182.4531,63.3203 Q182.8438,63.1641 183.2656,62.7266 Q183.5313,62.4609 183.6719,62.3828 Q183.8281,62.3047 184.0313,62.3047 Q184.3594,62.3047 184.6094,62.5703 Q184.875,62.8203 184.875,63.1641 Q184.875,63.5078 184.5313,63.9141 Q184.0313,64.4922 183.2344,64.8203 Q182.1563,65.2734 180.8594,65.2734 Q179.3438,65.2734 178.1406,64.6484 Q177.1563,64.1484 176.4688,63.0859 Q175.7813,62.0078 175.7813,60.7266 L175.7813,59.5703 Q175.7813,58.2422 176.3906,57.1016 Q177.0156,55.9453 178.1094,55.3359 Q179.2031,54.7109 180.4375,54.7109 Q181.1719,54.7109 181.8125,54.8828 Q182.4688,55.0391 183.0156,55.3984 Z " fill="#000000"/><text fill="#000000" font-family="sans-serif" font-size="12" font-style="italic" lengthAdjust="spacing" textLength="24" x="273.25" y="55.8633">&#171;ui&#187;</text><text fill="#000000" font-family="sans-serif" font-size="14" lengthAdjust="spacing" textLength="169" x="200.75" y="71.0801">ListParticipantsInMeetingUI</text><line style="stroke:#181818;stroke-width:0.5;" x1="100.5" x2="437.5" y1="79.0469" y2="79.0469"/><rect fill="none" height="6" style="stroke:#C82930;stroke-width:1.0;" width="6" x="107.5" y="89.3672"/><text fill="#000000" font-family="sans-serif" font-size="14" lengthAdjust="spacing" textLength="313" x="119.5" y="95.7207">theController : ListParticipantsInMeetingController</text><line style="stroke:#181818;stroke-width:0.5;" x1="100.5" x2="437.5" y1="102.6875" y2="102.6875"/><ellipse cx="110.5" cy="116.0078" fill="#84BE84" rx="3" ry="3" style="stroke:#038048;stroke-width:1.0;"/><text fill="#000000" font-family="sans-serif" font-size="14" lengthAdjust="spacing" textLength="60" x="119.5" y="119.3613">doShow()</text></g><!--class Meeting--><g id="elem_Meeting"><rect codeLine="12" fill="#F1F1F1" height="162.2969" id="Meeting" rx="2.5" ry="2.5" style="stroke:#181818;stroke-width:0.5;" width="281" x="314.5" y="554"/><ellipse cx="405.75" cy="580.2266" fill="#ADD1B2" rx="11" ry="11" style="stroke:#181818;stroke-width:1.0;"/><path d="M408.5156,576.1016 Q408.6719,575.8828 408.8594,575.7734 Q409.0469,575.6641 409.2656,575.6641 Q409.6406,575.6641 409.875,575.9297 Q410.1094,576.1797 410.1094,576.7891 L410.1094,578.2422 Q410.1094,578.8516 409.875,579.1172 Q409.6406,579.3828 409.2656,579.3828 Q408.9219,579.3828 408.7188,579.1797 Q408.5156,578.9922 408.4063,578.4766 Q408.3594,578.1172 408.1719,577.9297 Q407.8438,577.5547 407.2344,577.3359 Q406.625,577.1172 406,577.1172 Q405.2344,577.1172 404.5938,577.4453 Q403.9688,577.7734 403.4688,578.5234 Q402.9844,579.2734 402.9844,580.3047 L402.9844,581.3984 Q402.9844,582.6328 403.875,583.4609 Q404.7656,584.2734 406.3594,584.2734 Q407.2969,584.2734 407.9531,584.0234 Q408.3438,583.8672 408.7656,583.4297 Q409.0313,583.1641 409.1719,583.0859 Q409.3281,583.0078 409.5313,583.0078 Q409.8594,583.0078 410.1094,583.2734 Q410.375,583.5234 410.375,583.8672 Q410.375,584.2109 410.0313,584.6172 Q409.5313,585.1953 408.7344,585.5234 Q407.6563,585.9766 406.3594,585.9766 Q404.8438,585.9766 403.6406,585.3516 Q402.6563,584.8516 401.9688,583.7891 Q401.2813,582.7109 401.2813,581.4297 L401.2813,580.2734 Q401.2813,578.9453 401.8906,577.8047 Q402.5156,576.6484 403.6094,576.0391 Q404.7031,575.4141 405.9375,575.4141 Q406.6719,575.4141 407.3125,575.5859 Q407.9688,575.7422 408.5156,576.1016 Z " fill="#000000"/><text fill="#000000" font-family="sans-serif" font-size="12" font-style="italic" lengthAdjust="spacing" textLength="94" x="424.25" y="569.8633">&#171;aggregate root&#187;</text><text fill="#000000" font-family="sans-serif" font-size="12" font-style="italic" lengthAdjust="spacing" textLength="43" x="449.75" y="583.2695">&#171;entity&#187;</text><text fill="#000000" font-family="sans-serif" font-size="14" lengthAdjust="spacing" textLength="50" x="446.25" y="598.4863">Meeting</text><line style="stroke:#181818;stroke-width:0.5;" x1="315.5" x2="594.5" y1="606.4531" y2="606.4531"/><rect fill="none" height="6" style="stroke:#C82930;stroke-width:1.0;" width="6" x="322.5" y="616.7734"/><text fill="#000000" font-family="sans-serif" font-size="14" lengthAdjust="spacing" textLength="192" x="334.5" y="623.127">meetingToken : MeetingToken</text><rect fill="none" height="6" style="stroke:#C82930;stroke-width:1.0;" width="6" x="322.5" y="632.4141"/><text fill="#000000" font-family="sans-serif" font-size="14" lengthAdjust="spacing" textLength="168" x="334.5" y="638.7676">duration : MeetingDuration</text><rect fill="none" height="6" style="stroke:#C82930;stroke-width:1.0;" width="6" x="322.5" y="648.0547"/><text fill="#000000" font-family="sans-serif" font-size="14" lengthAdjust="spacing" textLength="98" x="334.5" y="654.4082">date : Calendar</text><rect fill="none" height="6" style="stroke:#C82930;stroke-width:1.0;" width="6" x="322.5" y="663.6953"/><text fill="#000000" font-family="sans-serif" font-size="14" lengthAdjust="spacing" textLength="255" x="334.5" y="670.0488">participantList : List&lt;MeetingParticipant&gt;</text><rect fill="none" height="6" style="stroke:#C82930;stroke-width:1.0;" width="6" x="322.5" y="679.3359"/><text fill="#000000" font-family="sans-serif" font-size="14" lengthAdjust="spacing" textLength="55" x="334.5" y="685.6895">id : Long</text><line style="stroke:#181818;stroke-width:0.5;" x1="315.5" x2="594.5" y1="692.6563" y2="692.6563"/><ellipse cx="325.5" cy="705.9766" fill="#84BE84" rx="3" ry="3" style="stroke:#038048;stroke-width:1.0;"/><text fill="#000000" font-family="sans-serif" font-size="14" lengthAdjust="spacing" textLength="212" x="334.5" y="709.3301">init(duration, date, participantList)</text></g><!--class MeetingParticipant--><g id="elem_MeetingParticipant"><rect codeLine="22" fill="#F1F1F1" height="117.6094" id="MeetingParticipant" rx="2.5" ry="2.5" style="stroke:#181818;stroke-width:0.5;" width="208" x="314" y="776"/><ellipse cx="355.55" cy="795.5234" fill="#ADD1B2" rx="11" ry="11" style="stroke:#181818;stroke-width:1.0;"/><path d="M358.3156,791.3984 Q358.4719,791.1797 358.6594,791.0703 Q358.8469,790.9609 359.0656,790.9609 Q359.4406,790.9609 359.675,791.2266 Q359.9094,791.4766 359.9094,792.0859 L359.9094,793.5391 Q359.9094,794.1484 359.675,794.4141 Q359.4406,794.6797 359.0656,794.6797 Q358.7219,794.6797 358.5188,794.4766 Q358.3156,794.2891 358.2063,793.7734 Q358.1594,793.4141 357.9719,793.2266 Q357.6438,792.8516 357.0344,792.6328 Q356.425,792.4141 355.8,792.4141 Q355.0344,792.4141 354.3938,792.7422 Q353.7688,793.0703 353.2688,793.8203 Q352.7844,794.5703 352.7844,795.6016 L352.7844,796.6953 Q352.7844,797.9297 353.675,798.7578 Q354.5656,799.5703 356.1594,799.5703 Q357.0969,799.5703 357.7531,799.3203 Q358.1438,799.1641 358.5656,798.7266 Q358.8313,798.4609 358.9719,798.3828 Q359.1281,798.3047 359.3313,798.3047 Q359.6594,798.3047 359.9094,798.5703 Q360.175,798.8203 360.175,799.1641 Q360.175,799.5078 359.8313,799.9141 Q359.3313,800.4922 358.5344,800.8203 Q357.4563,801.2734 356.1594,801.2734 Q354.6438,801.2734 353.4406,800.6484 Q352.4563,800.1484 351.7688,799.0859 Q351.0813,798.0078 351.0813,796.7266 L351.0813,795.5703 Q351.0813,794.2422 351.6906,793.1016 Q352.3156,791.9453 353.4094,791.3359 Q354.5031,790.7109 355.7375,790.7109 Q356.4719,790.7109 357.1125,790.8828 Q357.7688,791.0391 358.3156,791.3984 Z " fill="#000000"/><text fill="#000000" font-family="sans-serif" font-size="12" font-style="italic" lengthAdjust="spacing" textLength="43" x="412.45" y="791.8633">&#171;entity&#187;</text><text fill="#000000" font-family="sans-serif" font-size="14" lengthAdjust="spacing" textLength="117" x="375.45" y="807.0801">MeetingParticipant</text><line style="stroke:#181818;stroke-width:0.5;" x1="315" x2="521" y1="815.0469" y2="815.0469"/><rect fill="none" height="6" style="stroke:#C82930;stroke-width:1.0;" width="6" x="322" y="825.3672"/><text fill="#000000" font-family="sans-serif" font-size="14" lengthAdjust="spacing" textLength="158" x="334" y="831.7207">inviteStatus : InviteStatus</text><rect fill="none" height="6" style="stroke:#C82930;stroke-width:1.0;" width="6" x="322" y="841.0078"/><text fill="#000000" font-family="sans-serif" font-size="14" lengthAdjust="spacing" textLength="55" x="334" y="847.3613">id : Long</text><rect fill="none" height="6" style="stroke:#C82930;stroke-width:1.0;" width="6" x="322" y="856.6484"/><text fill="#000000" font-family="sans-serif" font-size="14" lengthAdjust="spacing" textLength="160" x="334" y="863.002">systemUser : SystemUser</text><line style="stroke:#181818;stroke-width:0.5;" x1="315" x2="521" y1="869.9688" y2="869.9688"/><ellipse cx="325" cy="883.2891" fill="#84BE84" rx="3" ry="3" style="stroke:#038048;stroke-width:1.0;"/><text fill="#000000" font-family="sans-serif" font-size="14" lengthAdjust="spacing" textLength="182" x="334" y="886.6426">init(systemUser, inviteStatus)</text></g><!--class InviteStatus--><g id="elem_InviteStatus"><rect codeLine="29" fill="#F1F1F1" height="55.0469" id="InviteStatus" rx="2.5" ry="2.5" style="stroke:#181818;stroke-width:0.5;" width="108" x="364" y="954"/><ellipse cx="379" cy="973.5234" fill="#EB937F" rx="11" ry="11" style="stroke:#181818;stroke-width:1.0;"/><path d="M377.8594,974.3203 L377.8594,976.8203 L382.1875,976.8203 L382.1875,975.8984 Q382.1875,975.2891 382.4219,975.0234 Q382.6719,974.7578 383.0469,974.7578 Q383.4219,974.7578 383.6563,975.0234 Q383.8906,975.2891 383.8906,975.8984 L383.8906,978.5234 L375.8906,978.5234 Q375.2656,978.5234 375,978.2891 Q374.75,978.0547 374.75,977.6641 Q374.75,977.2891 375.0156,977.0547 Q375.2813,976.8203 375.8906,976.8203 L376.1563,976.8203 L376.1563,970.1641 L375.8906,970.1641 Q375.2656,970.1641 375,969.9297 Q374.75,969.6953 374.75,969.3047 Q374.75,968.9297 375,968.6953 Q375.2656,968.4609 375.8906,968.4609 L383.5156,968.4609 L383.5156,971.0547 Q383.5156,971.6641 383.2813,971.9297 Q383.0625,972.1797 382.6719,972.1797 Q382.2969,972.1797 382.0625,971.9297 Q381.8281,971.6641 381.8281,971.0547 L381.8281,970.1641 L377.8594,970.1641 L377.8594,972.6172 L379.3438,972.6172 Q379.3438,971.9609 379.4688,971.7734 Q379.7344,971.3672 380.2031,971.3672 Q380.5781,971.3672 380.8125,971.6328 Q381.0469,971.8828 381.0469,972.4922 L381.0469,974.4609 Q381.0469,975.0078 380.9219,975.1953 Q380.6563,975.5859 380.2031,975.5859 Q379.7344,975.5859 379.4688,975.1797 Q379.3438,974.9922 379.3438,974.3203 L377.8594,974.3203 Z " fill="#000000"/><text fill="#000000" font-family="sans-serif" font-size="12" font-style="italic" lengthAdjust="spacing" textLength="80" x="391" y="969.8633">&#171;valueObject&#187;</text><text fill="#000000" font-family="sans-serif" font-size="14" lengthAdjust="spacing" textLength="73" x="394.5" y="985.0801">InviteStatus</text><line style="stroke:#181818;stroke-width:0.5;" x1="365" x2="471" y1="993.0469" y2="993.0469"/><line style="stroke:#181818;stroke-width:0.5;" x1="365" x2="471" y1="1001.0469" y2="1001.0469"/></g><!--class MeetingDuration--><g id="elem_MeetingDuration"><rect codeLine="33" fill="#F1F1F1" height="55.0469" id="MeetingDuration" rx="2.5" ry="2.5" style="stroke:#181818;stroke-width:0.5;" width="136" x="557" y="807.5"/><ellipse cx="572" cy="827.0234" fill="#ADD1B2" rx="11" ry="11" style="stroke:#181818;stroke-width:1.0;"/><path d="M574.7656,822.8984 Q574.9219,822.6797 575.1094,822.5703 Q575.2969,822.4609 575.5156,822.4609 Q575.8906,822.4609 576.125,822.7266 Q576.3594,822.9766 576.3594,823.5859 L576.3594,825.0391 Q576.3594,825.6484 576.125,825.9141 Q575.8906,826.1797 575.5156,826.1797 Q575.1719,826.1797 574.9688,825.9766 Q574.7656,825.7891 574.6563,825.2734 Q574.6094,824.9141 574.4219,824.7266 Q574.0938,824.3516 573.4844,824.1328 Q572.875,823.9141 572.25,823.9141 Q571.4844,823.9141 570.8438,824.2422 Q570.2188,824.5703 569.7188,825.3203 Q569.2344,826.0703 569.2344,827.1016 L569.2344,828.1953 Q569.2344,829.4297 570.125,830.2578 Q571.0156,831.0703 572.6094,831.0703 Q573.5469,831.0703 574.2031,830.8203 Q574.5938,830.6641 575.0156,830.2266 Q575.2813,829.9609 575.4219,829.8828 Q575.5781,829.8047 575.7813,829.8047 Q576.1094,829.8047 576.3594,830.0703 Q576.625,830.3203 576.625,830.6641 Q576.625,831.0078 576.2813,831.4141 Q575.7813,831.9922 574.9844,832.3203 Q573.9063,832.7734 572.6094,832.7734 Q571.0938,832.7734 569.8906,832.1484 Q568.9063,831.6484 568.2188,830.5859 Q567.5313,829.5078 567.5313,828.2266 L567.5313,827.0703 Q567.5313,825.7422 568.1406,824.6016 Q568.7656,823.4453 569.8594,822.8359 Q570.9531,822.2109 572.1875,822.2109 Q572.9219,822.2109 573.5625,822.3828 Q574.2188,822.5391 574.7656,822.8984 Z " fill="#000000"/><text fill="#000000" font-family="sans-serif" font-size="12" font-style="italic" lengthAdjust="spacing" textLength="80" x="598" y="823.3633">&#171;valueObject&#187;</text><text fill="#000000" font-family="sans-serif" font-size="14" lengthAdjust="spacing" textLength="104" x="586" y="838.5801">MeetingDuration</text><line style="stroke:#181818;stroke-width:0.5;" x1="558" x2="692" y1="846.5469" y2="846.5469"/><line style="stroke:#181818;stroke-width:0.5;" x1="558" x2="692" y1="854.5469" y2="854.5469"/></g><!--class MeetingToken--><g id="elem_MeetingToken"><rect codeLine="36" fill="#F1F1F1" height="55.0469" id="MeetingToken" rx="2.5" ry="2.5" style="stroke:#181818;stroke-width:0.5;" width="122" x="728" y="807.5"/><ellipse cx="743" cy="827.0234" fill="#ADD1B2" rx="11" ry="11" style="stroke:#181818;stroke-width:1.0;"/><path d="M745.7656,822.8984 Q745.9219,822.6797 746.1094,822.5703 Q746.2969,822.4609 746.5156,822.4609 Q746.8906,822.4609 747.125,822.7266 Q747.3594,822.9766 747.3594,823.5859 L747.3594,825.0391 Q747.3594,825.6484 747.125,825.9141 Q746.8906,826.1797 746.5156,826.1797 Q746.1719,826.1797 745.9688,825.9766 Q745.7656,825.7891 745.6563,825.2734 Q745.6094,824.9141 745.4219,824.7266 Q745.0938,824.3516 744.4844,824.1328 Q743.875,823.9141 743.25,823.9141 Q742.4844,823.9141 741.8438,824.2422 Q741.2188,824.5703 740.7188,825.3203 Q740.2344,826.0703 740.2344,827.1016 L740.2344,828.1953 Q740.2344,829.4297 741.125,830.2578 Q742.0156,831.0703 743.6094,831.0703 Q744.5469,831.0703 745.2031,830.8203 Q745.5938,830.6641 746.0156,830.2266 Q746.2813,829.9609 746.4219,829.8828 Q746.5781,829.8047 746.7813,829.8047 Q747.1094,829.8047 747.3594,830.0703 Q747.625,830.3203 747.625,830.6641 Q747.625,831.0078 747.2813,831.4141 Q746.7813,831.9922 745.9844,832.3203 Q744.9063,832.7734 743.6094,832.7734 Q742.0938,832.7734 740.8906,832.1484 Q739.9063,831.6484 739.2188,830.5859 Q738.5313,829.5078 738.5313,828.2266 L738.5313,827.0703 Q738.5313,825.7422 739.1406,824.6016 Q739.7656,823.4453 740.8594,822.8359 Q741.9531,822.2109 743.1875,822.2109 Q743.9219,822.2109 744.5625,822.3828 Q745.2188,822.5391 745.7656,822.8984 Z " fill="#000000"/><text fill="#000000" font-family="sans-serif" font-size="12" font-style="italic" lengthAdjust="spacing" textLength="80" x="762" y="823.3633">&#171;valueObject&#187;</text><text fill="#000000" font-family="sans-serif" font-size="14" lengthAdjust="spacing" textLength="90" x="757" y="838.5801">MeetingToken</text><line style="stroke:#181818;stroke-width:0.5;" x1="729" x2="849" y1="846.5469" y2="846.5469"/><line style="stroke:#181818;stroke-width:0.5;" x1="729" x2="849" y1="854.5469" y2="854.5469"/></g><!--class MeetingRepository--><g id="elem_MeetingRepository"><rect codeLine="44" fill="#F1F1F1" height="86.3281" id="MeetingRepository" rx="2.5" ry="2.5" style="stroke:#181818;stroke-width:0.5;" width="235" x="22.5" y="592"/><ellipse cx="76.25" cy="611.5234" fill="#B4A7E5" rx="11" ry="11" style="stroke:#181818;stroke-width:1.0;"/><path d="M77.2031,608.1641 L77.2031,614.8203 L78.9219,614.8203 Q79.5313,614.8203 79.7969,615.0547 Q80.0625,615.2891 80.0625,615.6797 Q80.0625,616.0547 79.7969,616.2891 Q79.5313,616.5234 78.9219,616.5234 L73.7813,616.5234 Q73.1719,616.5234 72.9063,616.2891 Q72.6406,616.0547 72.6406,615.6641 Q72.6406,615.2891 72.9063,615.0547 Q73.1719,614.8203 73.7813,614.8203 L75.5,614.8203 L75.5,608.1641 L73.7813,608.1641 Q73.1719,608.1641 72.9063,607.9297 Q72.6406,607.6953 72.6406,607.3047 Q72.6406,606.9297 72.9063,606.6953 Q73.1719,606.4609 73.7813,606.4609 L78.9219,606.4609 Q79.5313,606.4609 79.7969,606.6953 Q80.0625,606.9297 80.0625,607.3047 Q80.0625,607.6953 79.7969,607.9297 Q79.5313,608.1641 78.9219,608.1641 L77.2031,608.1641 Z " fill="#000000"/><text fill="#000000" font-family="sans-serif" font-size="12" font-style="italic" lengthAdjust="spacing" textLength="68" x="122.25" y="607.8633">&#171;repository&#187;</text><text fill="#000000" font-family="sans-serif" font-size="14" font-style="italic" lengthAdjust="spacing" textLength="119" x="96.75" y="623.0801">MeetingRepository</text><line style="stroke:#181818;stroke-width:0.5;" x1="23.5" x2="256.5" y1="631.0469" y2="631.0469"/><line style="stroke:#181818;stroke-width:0.5;" x1="23.5" x2="256.5" y1="639.0469" y2="639.0469"/><text fill="#000000" font-family="sans-serif" font-size="14" lengthAdjust="spacing" textLength="163" x="28.5" y="655.7207">findMeetingsByUser(user)</text><text fill="#000000" font-family="sans-serif" font-size="14" lengthAdjust="spacing" textLength="223" x="28.5" y="671.3613">findParticipantsByMeeting(meeting)</text></g><!--class ListParticipantsInMeetingController--><g id="elem_ListParticipantsInMeetingController"><rect codeLine="54" fill="#F1F1F1" height="117.6094" id="ListParticipantsInMeetingController" rx="2.5" ry="2.5" style="stroke:#181818;stroke-width:0.5;" width="290" x="124" y="200"/><ellipse cx="156.55" cy="219.5234" fill="#ADD1B2" rx="11" ry="11" style="stroke:#181818;stroke-width:1.0;"/><path d="M159.3156,215.3984 Q159.4719,215.1797 159.6594,215.0703 Q159.8469,214.9609 160.0656,214.9609 Q160.4406,214.9609 160.675,215.2266 Q160.9094,215.4766 160.9094,216.0859 L160.9094,217.5391 Q160.9094,218.1484 160.675,218.4141 Q160.4406,218.6797 160.0656,218.6797 Q159.7219,218.6797 159.5188,218.4766 Q159.3156,218.2891 159.2063,217.7734 Q159.1594,217.4141 158.9719,217.2266 Q158.6438,216.8516 158.0344,216.6328 Q157.425,216.4141 156.8,216.4141 Q156.0344,216.4141 155.3938,216.7422 Q154.7688,217.0703 154.2688,217.8203 Q153.7844,218.5703 153.7844,219.6016 L153.7844,220.6953 Q153.7844,221.9297 154.675,222.7578 Q155.5656,223.5703 157.1594,223.5703 Q158.0969,223.5703 158.7531,223.3203 Q159.1438,223.1641 159.5656,222.7266 Q159.8313,222.4609 159.9719,222.3828 Q160.1281,222.3047 160.3313,222.3047 Q160.6594,222.3047 160.9094,222.5703 Q161.175,222.8203 161.175,223.1641 Q161.175,223.5078 160.8313,223.9141 Q160.3313,224.4922 159.5344,224.8203 Q158.4563,225.2734 157.1594,225.2734 Q155.6438,225.2734 154.4406,224.6484 Q153.4563,224.1484 152.7688,223.0859 Q152.0813,222.0078 152.0813,220.7266 L152.0813,219.5703 Q152.0813,218.2422 152.6906,217.1016 Q153.3156,215.9453 154.4094,215.3359 Q155.5031,214.7109 156.7375,214.7109 Q157.4719,214.7109 158.1125,214.8828 Q158.7688,215.0391 159.3156,215.3984 Z " fill="#000000"/><text fill="#000000" font-family="sans-serif" font-size="12" font-style="italic" lengthAdjust="spacing" textLength="65" x="251.45" y="215.8633">&#171;controller&#187;</text><text fill="#000000" font-family="sans-serif" font-size="14" lengthAdjust="spacing" textLength="219" x="174.45" y="231.0801">ListParticipantsInMeetingController</text><line style="stroke:#181818;stroke-width:0.5;" x1="125" x2="413" y1="239.0469" y2="239.0469"/><rect fill="none" height="6" style="stroke:#C82930;stroke-width:1.0;" width="6" x="132" y="249.3672"/><text fill="#000000" font-family="sans-serif" font-size="14" lengthAdjust="spacing" textLength="175" x="144" y="255.7207">authz : AuthorizationService</text><rect fill="none" height="6" style="stroke:#C82930;stroke-width:1.0;" width="6" x="132" y="265.0078"/><text fill="#000000" font-family="sans-serif" font-size="14" lengthAdjust="spacing" textLength="264" x="144" y="271.3613">meetingSvc : MeetingManagementService</text><line style="stroke:#181818;stroke-width:0.5;" x1="125" x2="413" y1="278.3281" y2="278.3281"/><ellipse cx="135" cy="291.6484" fill="#84BE84" rx="3" ry="3" style="stroke:#038048;stroke-width:1.0;"/><text fill="#000000" font-family="sans-serif" font-size="14" lengthAdjust="spacing" textLength="126" x="144" y="295.002">allMeetingsByUser()</text><ellipse cx="135" cy="307.2891" fill="#84BE84" rx="3" ry="3" style="stroke:#038048;stroke-width:1.0;"/><text fill="#000000" font-family="sans-serif" font-size="14" lengthAdjust="spacing" textLength="214" x="144" y="310.6426">allParticipantsByMeeting(meeting)</text></g><!--class MeetingManagementService--><g id="elem_MeetingManagementService"><rect codeLine="61" fill="#F1F1F1" height="101.9688" id="MeetingManagementService" rx="2.5" ry="2.5" style="stroke:#181818;stroke-width:0.5;" width="274" x="128" y="378"/><ellipse cx="171.35" cy="397.5234" fill="#ADD1B2" rx="11" ry="11" style="stroke:#181818;stroke-width:1.0;"/><path d="M174.1156,393.3984 Q174.2719,393.1797 174.4594,393.0703 Q174.6469,392.9609 174.8656,392.9609 Q175.2406,392.9609 175.475,393.2266 Q175.7094,393.4766 175.7094,394.0859 L175.7094,395.5391 Q175.7094,396.1484 175.475,396.4141 Q175.2406,396.6797 174.8656,396.6797 Q174.5219,396.6797 174.3188,396.4766 Q174.1156,396.2891 174.0063,395.7734 Q173.9594,395.4141 173.7719,395.2266 Q173.4438,394.8516 172.8344,394.6328 Q172.225,394.4141 171.6,394.4141 Q170.8344,394.4141 170.1938,394.7422 Q169.5688,395.0703 169.0688,395.8203 Q168.5844,396.5703 168.5844,397.6016 L168.5844,398.6953 Q168.5844,399.9297 169.475,400.7578 Q170.3656,401.5703 171.9594,401.5703 Q172.8969,401.5703 173.5531,401.3203 Q173.9438,401.1641 174.3656,400.7266 Q174.6313,400.4609 174.7719,400.3828 Q174.9281,400.3047 175.1313,400.3047 Q175.4594,400.3047 175.7094,400.5703 Q175.975,400.8203 175.975,401.1641 Q175.975,401.5078 175.6313,401.9141 Q175.1313,402.4922 174.3344,402.8203 Q173.2563,403.2734 171.9594,403.2734 Q170.4438,403.2734 169.2406,402.6484 Q168.2563,402.1484 167.5688,401.0859 Q166.8813,400.0078 166.8813,398.7266 L166.8813,397.5703 Q166.8813,396.2422 167.4906,395.1016 Q168.1156,393.9453 169.2094,393.3359 Q170.3031,392.7109 171.5375,392.7109 Q172.2719,392.7109 172.9125,392.8828 Q173.5688,393.0391 174.1156,393.3984 Z " fill="#000000"/><text fill="#000000" font-family="sans-serif" font-size="12" font-style="italic" lengthAdjust="spacing" textLength="53" x="254.65" y="393.8633">&#171;service&#187;</text><text fill="#000000" font-family="sans-serif" font-size="14" lengthAdjust="spacing" textLength="179" x="191.65" y="409.0801">MeetingManagementService</text><line style="stroke:#181818;stroke-width:0.5;" x1="129" x2="401" y1="417.0469" y2="417.0469"/><rect fill="none" height="6" style="stroke:#C82930;stroke-width:1.0;" width="6" x="136" y="427.3672"/><text fill="#000000" font-family="sans-serif" font-size="14" lengthAdjust="spacing" textLength="248" x="148" y="433.7207">meetingRepository : MeetingRepository</text><line style="stroke:#181818;stroke-width:0.5;" x1="129" x2="401" y1="440.6875" y2="440.6875"/><ellipse cx="139" cy="454.0078" fill="#84BE84" rx="3" ry="3" style="stroke:#038048;stroke-width:1.0;"/><text fill="#000000" font-family="sans-serif" font-size="14" lengthAdjust="spacing" textLength="154" x="148" y="457.3613">allMeetingsByUser(user)</text><ellipse cx="139" cy="469.6484" fill="#84BE84" rx="3" ry="3" style="stroke:#038048;stroke-width:1.0;"/><text fill="#000000" font-family="sans-serif" font-size="14" lengthAdjust="spacing" textLength="214" x="148" y="473.002">allParticipantsByMeeting(meeting)</text></g><!--link ListParticipantsInMeetingUI to ListParticipantsInMeetingController--><g id="link_ListParticipantsInMeetingUI_ListParticipantsInMeetingController"><path codeLine="68" d="M269,126.12 C269,146.69 269,171.87 269,194.7 " fill="none" id="ListParticipantsInMeetingUI-to-ListParticipantsInMeetingController" style="stroke:#181818;stroke-width:1.0;stroke-dasharray:7.0,7.0;"/><polygon fill="#181818" points="269,199.83,273,190.83,269,194.83,265,190.83,269,199.83" style="stroke:#181818;stroke-width:1.0;"/></g><!--link ListParticipantsInMeetingController to MeetingManagementService--><g id="link_ListParticipantsInMeetingController_MeetingManagementService"><path codeLine="69" d="M267.61,318.29 C267.19,335.89 266.73,355.17 266.32,372.58 " fill="none" id="ListParticipantsInMeetingController-to-MeetingManagementService" style="stroke:#181818;stroke-width:1.0;stroke-dasharray:7.0,7.0;"/><polygon fill="#181818" points="266.19,377.92,270.42,369.0258,266.3185,372.9217,262.4227,368.8202,266.19,377.92" style="stroke:#181818;stroke-width:1.0;"/></g><!--link MeetingManagementService to Meeting--><g id="link_MeetingManagementService_Meeting"><path codeLine="70" d="M311.72,480.17 C331.33,501.22 354.68,526.28 376.77,550.01 " fill="none" id="MeetingManagementService-to-Meeting" style="stroke:#181818;stroke-width:1.0;stroke-dasharray:7.0,7.0;"/><polygon fill="#181818" points="380.31,553.8,377.0921,544.4917,376.8979,550.1452,371.2444,549.951,380.31,553.8" style="stroke:#181818;stroke-width:1.0;"/></g><!--link MeetingManagementService to MeetingRepository--><g id="link_MeetingManagementService_MeetingRepository"><path codeLine="71" d="M234.26,480.17 C214.21,512.89 188.22,555.3 168.61,587.3 " fill="none" id="MeetingManagementService-to-MeetingRepository" style="stroke:#181818;stroke-width:1.0;stroke-dasharray:7.0,7.0;"/><polygon fill="#181818" points="165.77,591.95,173.8883,586.3739,168.3865,587.6893,167.0711,582.1875,165.77,591.95" style="stroke:#181818;stroke-width:1.0;"/></g><!--link MeetingRepository to Meeting--><g id="link_MeetingRepository_Meeting"><path codeLine="72" d="M257.51,635 C274.64,635 291.77,635 308.9,635 " fill="none" id="MeetingRepository-to-Meeting" style="stroke:#181818;stroke-width:1.0;"/><polygon fill="#181818" points="314.21,635,305.21,631,309.21,635,305.21,639,314.21,635" style="stroke:#181818;stroke-width:1.0;"/></g><!--link ListParticipantsInMeetingController to Meeting--><g id="link_ListParticipantsInMeetingController_Meeting"><path codeLine="73" d="M366.56,318.23 C387.26,335 406.82,355.07 420,378 C449.61,429.52 457.95,496.27 459.1,548.7 " fill="none" id="ListParticipantsInMeetingController-to-Meeting" style="stroke:#181818;stroke-width:1.0;stroke-dasharray:7.0,7.0;"/><polygon fill="#181818" points="459.19,553.73,463.0351,544.6628,459.1043,548.7307,455.0363,544.7999,459.19,553.73" style="stroke:#181818;stroke-width:1.0;"/></g><!--link Meeting to MeetingDuration--><g id="link_Meeting_MeetingDuration"><path codeLine="74" d="M523.9,716.25 C550.18,746.85 578.58,779.94 598.57,803.22 " fill="none" id="Meeting-to-MeetingDuration" style="stroke:#181818;stroke-width:1.0;"/><polygon fill="#181818" points="601.96,807.16,599.1399,797.7235,598.706,803.3637,593.0659,802.9299,601.96,807.16" style="stroke:#181818;stroke-width:1.0;"/></g><!--link Meeting to MeetingParticipant--><g id="link_Meeting_MeetingParticipant"><path codeLine="75" d="M440,716.25 C436.63,734.32 433.09,753.25 429.86,770.52 " fill="none" id="Meeting-to-MeetingParticipant" style="stroke:#181818;stroke-width:1.0;"/><polygon fill="#181818" points="428.87,775.83,434.4487,767.7135,429.7845,770.9143,426.5837,766.2502,428.87,775.83" style="stroke:#181818;stroke-width:1.0;"/></g><!--link MeetingParticipant to InviteStatus--><g id="link_MeetingParticipant_InviteStatus"><path codeLine="76" d="M418,894.36 C418,912.79 418,932.49 418,948.38 " fill="none" id="MeetingParticipant-to-InviteStatus" style="stroke:#181818;stroke-width:1.0;"/><polygon fill="#181818" points="418,953.62,422,944.62,418,948.62,414,944.62,418,953.62" style="stroke:#181818;stroke-width:1.0;"/></g><!--link Meeting to MeetingToken--><g id="link_Meeting_MeetingToken"><path codeLine="77" d="M595.55,708.3 C633.63,729.12 674.43,752.56 711,776 C724.4,784.59 738.52,794.72 751,804.1 " fill="none" id="Meeting-to-MeetingToken" style="stroke:#181818;stroke-width:1.0;"/><polygon fill="#181818" points="755.17,807.25,750.4045,798.6309,751.182,804.234,745.5789,805.0116,755.17,807.25" style="stroke:#181818;stroke-width:1.0;"/></g><!--SRC=[ZLJDZfim4Bxp5DRsi8aIaaDxgA88gRjxYTIeLUa-mAoP4E-2ZMoJYbtbtMiSm2OaMJW0Otypyytl_LxhGgsMoo83hiiyMr2HBsa6IeK9WrH27WG5q3T8aTmL4XLo3Pe9VaU-FDdd8o3ciIha9rFwDqZDA2kCFRNXMqJDUFgy8UjroQBeX0w9tkEZu5gAB4D9LjSr7SfgpaWYuhtuDvbQyHWSFNw9o87Lp9ANv3lWHs0nZbvZqb21D9MOWaOYXT1HP8vCO4nNBKDBCZ_X_uetv8RZrXCxoo59IcapuX1FpOaFgdsjo2Dao1EGtatXegwJqEHYtPZoSX9vIYofSOAdtTcCCCxqf2KpjnxdvzQdBYL7zzjFZ-VoKbgiUtvW6cFJ2QKoH3QUs8CDM9f3LIcD-REoPOyxmK6QI1nktlCtTKW_1EHbtYDYk1yWA_7NoolIkiHUErmFlYtT9zhailQfKswfrfxzbYrGAbCNv1JF-vPnZN8755lhVx0GYcaXA-D2Ta9RcntZIODK3rMTk4bfNjFkqf-lXwg1JfecR-SfwFE3eiWORISUOVSj-MhSVJBktcYlrxGJtFX3gVVlflu_p5T8zcuTn2WFZ6BG6xxuGDrWRO4RLhdfIHyx8v1bPv5FtSsuiFk573WoSQZJdmiY7vHbDIpLYSUGe2lDR3J7uDP-NOJHg2qwfcYrhQiflvgYnQBJkW5ofhqa3JlSmSOn7leceRFHRUGBTvxfuC8Ah96z1NV1X9tx_m00]--></g></svg>