<?xml version="1.0" encoding="us-ascii" standalone="no"?><svg xmlns="http://www.w3.org/2000/svg" xmlns:xlink="http://www.w3.org/1999/xlink" contentStyleType="text/css" height="680px" preserveAspectRatio="none" style="width:1146px;height:680px;background:#FFFFFF;" version="1.1" viewBox="0 0 1146 680" width="1146px" zoomAndPan="magnify"><defs/><g><rect fill="#FFFFFF" height="456.375" style="stroke:#181818;stroke-width:1.0;" width="10" x="316.5" y="112.8047"/><rect fill="#FFFFFF" height="399.3281" style="stroke:#181818;stroke-width:1.0;" width="10" x="534.5" y="141.3281"/><rect fill="#FFFFFF" height="85.5703" style="stroke:#181818;stroke-width:1.0;" width="10" x="761.5" y="169.8516"/><rect fill="#FFFFFF" height="85.5703" style="stroke:#181818;stroke-width:1.0;" width="10" x="761.5" y="426.5625"/><rect fill="#FFFFFF" height="28.5234" style="stroke:#181818;stroke-width:1.0;" width="10" x="1078.5" y="198.375"/><rect fill="#FFFFFF" height="28.5234" style="stroke:#181818;stroke-width:1.0;" width="10" x="1078.5" y="455.0859"/><line style="stroke:#181818;stroke-width:0.5;stroke-dasharray:5.0,5.0;" x1="22" x2="22" y1="82.2813" y2="587.1797"/><line style="stroke:#181818;stroke-width:0.5;stroke-dasharray:5.0,5.0;" x1="321" x2="321" y1="82.2813" y2="587.1797"/><line style="stroke:#181818;stroke-width:0.5;stroke-dasharray:5.0,5.0;" x1="539" x2="539" y1="82.2813" y2="587.1797"/><line style="stroke:#181818;stroke-width:0.5;stroke-dasharray:5.0,5.0;" x1="766" x2="766" y1="82.2813" y2="587.1797"/><line style="stroke:#181818;stroke-width:0.5;stroke-dasharray:5.0,5.0;" x1="1083.5" x2="1083.5" y1="82.2813" y2="587.1797"/><text fill="#000000" font-family="FG Virgil" font-size="14" lengthAdjust="spacing" textLength="29" x="5" y="79.3145">User</text><ellipse cx="22.5" cy="15.1406" fill="#E2E2F0" rx="8" ry="8" style="stroke:#181818;stroke-width:0.5;"/><path d="M22.5,23.1406 L22.5,50.1406 M9.5,31.1406 L35.5,31.1406 M22.5,50.1406 L9.5,65.1406 M22.5,50.1406 L35.5,65.1406 " fill="none" style="stroke:#181818;stroke-width:0.5;"/><text fill="#000000" font-family="FG Virgil" font-size="14" lengthAdjust="spacing" textLength="29" x="5" y="598.8535">User</text><ellipse cx="22.5" cy="610.3203" fill="#E2E2F0" rx="8" ry="8" style="stroke:#181818;stroke-width:0.5;"/><path d="M22.5,618.3203 L22.5,645.3203 M9.5,626.3203 L35.5,626.3203 M22.5,645.3203 L9.5,660.3203 M22.5,645.3203 L35.5,660.3203 " fill="none" style="stroke:#181818;stroke-width:0.5;"/><rect fill="#E2E2F0" height="45.2813" rx="2.5" ry="2.5" style="stroke:#181818;stroke-width:0.5;" width="183" x="230" y="36"/><text fill="#000000" font-family="FG Virgil" font-size="14" font-style="italic" lengthAdjust="spacing" textLength="95" x="274" y="55.6738">&#171;presentation&#187;</text><text fill="#000000" font-family="FG Virgil" font-size="14" lengthAdjust="spacing" textLength="169" x="237" y="71.3145">ListParticipantsInMeetingUI</text><rect fill="#E2E2F0" height="45.2813" rx="2.5" ry="2.5" style="stroke:#181818;stroke-width:0.5;" width="183" x="230" y="586.1797"/><text fill="#000000" font-family="FG Virgil" font-size="14" font-style="italic" lengthAdjust="spacing" textLength="95" x="274" y="605.8535">&#171;presentation&#187;</text><text fill="#000000" font-family="FG Virgil" font-size="14" lengthAdjust="spacing" textLength="169" x="237" y="621.4941">ListParticipantsInMeetingUI</text><rect fill="#E2E2F0" height="45.2813" rx="2.5" ry="2.5" style="stroke:#181818;stroke-width:0.5;" width="233" x="423" y="36"/><text fill="#000000" font-family="FG Virgil" font-size="14" font-style="italic" lengthAdjust="spacing" textLength="84" x="497.5" y="55.6738">&#171;application&#187;</text><text fill="#000000" font-family="FG Virgil" font-size="14" lengthAdjust="spacing" textLength="219" x="430" y="71.3145">ListParticipantsInMeetingController</text><rect fill="#E2E2F0" height="45.2813" rx="2.5" ry="2.5" style="stroke:#181818;stroke-width:0.5;" width="233" x="423" y="586.1797"/><text fill="#000000" font-family="FG Virgil" font-size="14" font-style="italic" lengthAdjust="spacing" textLength="84" x="497.5" y="605.8535">&#171;application&#187;</text><text fill="#000000" font-family="FG Virgil" font-size="14" lengthAdjust="spacing" textLength="219" x="430" y="621.4941">ListParticipantsInMeetingController</text><rect fill="#E2E2F0" height="45.2813" rx="2.5" ry="2.5" style="stroke:#181818;stroke-width:0.5;" width="193" x="670" y="36"/><text fill="#000000" font-family="FG Virgil" font-size="14" font-style="italic" lengthAdjust="spacing" textLength="84" x="724.5" y="55.6738">&#171;application&#187;</text><text fill="#000000" font-family="FG Virgil" font-size="14" lengthAdjust="spacing" textLength="179" x="677" y="71.3145">MeetingManagementService</text><rect fill="#E2E2F0" height="45.2813" rx="2.5" ry="2.5" style="stroke:#181818;stroke-width:0.5;" width="193" x="670" y="586.1797"/><text fill="#000000" font-family="FG Virgil" font-size="14" font-style="italic" lengthAdjust="spacing" textLength="84" x="724.5" y="605.8535">&#171;application&#187;</text><text fill="#000000" font-family="FG Virgil" font-size="14" lengthAdjust="spacing" textLength="179" x="677" y="621.4941">MeetingManagementService</text><text fill="#000000" font-family="FG Virgil" font-size="14" font-style="italic" lengthAdjust="spacing" textLength="79" x="1041" y="63.6738">&#171;repository&#187;</text><text fill="#000000" font-family="FG Virgil" font-size="14" lengthAdjust="spacing" textLength="118" x="1021.5" y="79.3145">MeetingRepository</text><path d="M1065.5,15 C1065.5,5 1083.5,5 1083.5,5 C1083.5,5 1101.5,5 1101.5,15 L1101.5,41 C1101.5,51 1083.5,51 1083.5,51 C1083.5,51 1065.5,51 1065.5,41 L1065.5,15 " fill="#E2E2F0" style="stroke:#181818;stroke-width:1.5;"/><path d="M1065.5,15 C1065.5,25 1083.5,25 1083.5,25 C1083.5,25 1101.5,25 1101.5,15 " fill="none" style="stroke:#181818;stroke-width:1.5;"/><text fill="#000000" font-family="FG Virgil" font-size="14" font-style="italic" lengthAdjust="spacing" textLength="79" x="1041" y="598.8535">&#171;repository&#187;</text><text fill="#000000" font-family="FG Virgil" font-size="14" lengthAdjust="spacing" textLength="118" x="1021.5" y="614.4941">MeetingRepository</text><path d="M1065.5,627.4609 C1065.5,617.4609 1083.5,617.4609 1083.5,617.4609 C1083.5,617.4609 1101.5,617.4609 1101.5,627.4609 L1101.5,653.4609 C1101.5,663.4609 1083.5,663.4609 1083.5,663.4609 C1083.5,663.4609 1065.5,663.4609 1065.5,653.4609 L1065.5,627.4609 " fill="#E2E2F0" style="stroke:#181818;stroke-width:1.5;"/><path d="M1065.5,627.4609 C1065.5,637.4609 1083.5,637.4609 1083.5,637.4609 C1083.5,637.4609 1101.5,637.4609 1101.5,627.4609 " fill="none" style="stroke:#181818;stroke-width:1.5;"/><rect fill="#FFFFFF" height="456.375" style="stroke:#181818;stroke-width:1.0;" width="10" x="316.5" y="112.8047"/><rect fill="#FFFFFF" height="399.3281" style="stroke:#181818;stroke-width:1.0;" width="10" x="534.5" y="141.3281"/><rect fill="#FFFFFF" height="85.5703" style="stroke:#181818;stroke-width:1.0;" width="10" x="761.5" y="169.8516"/><rect fill="#FFFFFF" height="85.5703" style="stroke:#181818;stroke-width:1.0;" width="10" x="761.5" y="426.5625"/><rect fill="#FFFFFF" height="28.5234" style="stroke:#181818;stroke-width:1.0;" width="10" x="1078.5" y="198.375"/><rect fill="#FFFFFF" height="28.5234" style="stroke:#181818;stroke-width:1.0;" width="10" x="1078.5" y="455.0859"/><polygon fill="#181818" points="304.5,108.8047,314.5,112.8047,304.5,116.8047,308.5,112.8047" style="stroke:#181818;stroke-width:1.0;"/><line style="stroke:#181818;stroke-width:1.0;" x1="22.5" x2="310.5" y1="112.8047" y2="112.8047"/><text fill="#000000" font-family="FG Virgil" font-size="13" lengthAdjust="spacing" textLength="158" x="29.5" y="108.0498">List Participants in Meeting</text><polygon fill="#181818" points="522.5,137.3281,532.5,141.3281,522.5,145.3281,526.5,141.3281" style="stroke:#181818;stroke-width:1.0;"/><line style="stroke:#181818;stroke-width:1.0;" x1="326.5" x2="528.5" y1="141.3281" y2="141.3281"/><text fill="#000000" font-family="FG Virgil" font-size="13" lengthAdjust="spacing" textLength="44" x="333.5" y="136.5732">create()</text><polygon fill="#181818" points="749.5,165.8516,759.5,169.8516,749.5,173.8516,753.5,169.8516" style="stroke:#181818;stroke-width:1.0;"/><line style="stroke:#181818;stroke-width:1.0;" x1="544.5" x2="755.5" y1="169.8516" y2="169.8516"/><text fill="#000000" font-family="FG Virgil" font-size="13" lengthAdjust="spacing" textLength="142" x="551.5" y="165.0967">allMeetingsByUser(user)</text><polygon fill="#181818" points="1066.5,194.375,1076.5,198.375,1066.5,202.375,1070.5,198.375" style="stroke:#181818;stroke-width:1.0;"/><line style="stroke:#181818;stroke-width:1.0;" x1="771.5" x2="1072.5" y1="198.375" y2="198.375"/><text fill="#000000" font-family="FG Virgil" font-size="13" lengthAdjust="spacing" textLength="218" x="778.5" y="193.6201">meetings = findMeetingsByUser(user)</text><polygon fill="#181818" points="782.5,222.8984,772.5,226.8984,782.5,230.8984,778.5,226.8984" style="stroke:#181818;stroke-width:1.0;"/><line style="stroke:#181818;stroke-width:1.0;stroke-dasharray:2.0,2.0;" x1="776.5" x2="1082.5" y1="226.8984" y2="226.8984"/><text fill="#000000" font-family="FG Virgil" font-size="13" lengthAdjust="spacing" textLength="53" x="788.5" y="222.1436">meetings</text><polygon fill="#181818" points="555.5,251.4219,545.5,255.4219,555.5,259.4219,551.5,255.4219" style="stroke:#181818;stroke-width:1.0;"/><line style="stroke:#181818;stroke-width:1.0;stroke-dasharray:2.0,2.0;" x1="549.5" x2="765.5" y1="255.4219" y2="255.4219"/><text fill="#000000" font-family="FG Virgil" font-size="13" lengthAdjust="spacing" textLength="53" x="561.5" y="250.667">meetings</text><polygon fill="#181818" points="337.5,279.9453,327.5,283.9453,337.5,287.9453,333.5,283.9453" style="stroke:#181818;stroke-width:1.0;"/><line style="stroke:#181818;stroke-width:1.0;stroke-dasharray:2.0,2.0;" x1="331.5" x2="533.5" y1="283.9453" y2="283.9453"/><text fill="#000000" font-family="FG Virgil" font-size="13" lengthAdjust="spacing" textLength="53" x="343.5" y="279.1904">meetings</text><polygon fill="#181818" points="33.5,308.4688,23.5,312.4688,33.5,316.4688,29.5,312.4688" style="stroke:#181818;stroke-width:1.0;"/><line style="stroke:#181818;stroke-width:1.0;stroke-dasharray:2.0,2.0;" x1="27.5" x2="315.5" y1="312.4688" y2="312.4688"/><text fill="#000000" font-family="FG Virgil" font-size="13" lengthAdjust="spacing" textLength="131" x="39.5" y="307.7139">Shows list of meetings</text><polygon fill="#181818" points="33.5,336.9922,23.5,340.9922,33.5,344.9922,29.5,340.9922" style="stroke:#181818;stroke-width:1.0;"/><line style="stroke:#181818;stroke-width:1.0;stroke-dasharray:2.0,2.0;" x1="27.5" x2="315.5" y1="340.9922" y2="340.9922"/><text fill="#000000" font-family="FG Virgil" font-size="13" lengthAdjust="spacing" textLength="159" x="39.5" y="336.2373">Asks to select one meeting</text><polygon fill="#181818" points="304.5,365.5156,314.5,369.5156,304.5,373.5156,308.5,369.5156" style="stroke:#181818;stroke-width:1.0;"/><line style="stroke:#181818;stroke-width:1.0;" x1="22.5" x2="310.5" y1="369.5156" y2="369.5156"/><text fill="#000000" font-family="FG Virgil" font-size="13" lengthAdjust="spacing" textLength="119" x="29.5" y="364.7607">Selects one meeting</text><polygon fill="#181818" points="522.5,394.0391,532.5,398.0391,522.5,402.0391,526.5,398.0391" style="stroke:#181818;stroke-width:1.0;"/><line style="stroke:#181818;stroke-width:1.0;" x1="326.5" x2="528.5" y1="398.0391" y2="398.0391"/><text fill="#000000" font-family="FG Virgil" font-size="13" lengthAdjust="spacing" textLength="46" x="333.5" y="393.2842">meeting</text><polygon fill="#181818" points="749.5,422.5625,759.5,426.5625,749.5,430.5625,753.5,426.5625" style="stroke:#181818;stroke-width:1.0;"/><line style="stroke:#181818;stroke-width:1.0;" x1="544.5" x2="755.5" y1="426.5625" y2="426.5625"/><text fill="#000000" font-family="FG Virgil" font-size="13" lengthAdjust="spacing" textLength="198" x="551.5" y="421.8076">allParticipantsByMeeting(meeting)</text><polygon fill="#181818" points="1066.5,451.0859,1076.5,455.0859,1066.5,459.0859,1070.5,455.0859" style="stroke:#181818;stroke-width:1.0;"/><line style="stroke:#181818;stroke-width:1.0;" x1="771.5" x2="1072.5" y1="455.0859" y2="455.0859"/><text fill="#000000" font-family="FG Virgil" font-size="13" lengthAdjust="spacing" textLength="288" x="778.5" y="450.3311">participants = findParticipantsByMeeting(meeting)</text><polygon fill="#181818" points="782.5,479.6094,772.5,483.6094,782.5,487.6094,778.5,483.6094" style="stroke:#181818;stroke-width:1.0;"/><line style="stroke:#181818;stroke-width:1.0;stroke-dasharray:2.0,2.0;" x1="776.5" x2="1082.5" y1="483.6094" y2="483.6094"/><text fill="#000000" font-family="FG Virgil" font-size="13" lengthAdjust="spacing" textLength="67" x="788.5" y="478.8545">participants</text><polygon fill="#181818" points="555.5,508.1328,545.5,512.1328,555.5,516.1328,551.5,512.1328" style="stroke:#181818;stroke-width:1.0;"/><line style="stroke:#181818;stroke-width:1.0;stroke-dasharray:2.0,2.0;" x1="549.5" x2="765.5" y1="512.1328" y2="512.1328"/><text fill="#000000" font-family="FG Virgil" font-size="13" lengthAdjust="spacing" textLength="67" x="561.5" y="507.3779">participants</text><polygon fill="#181818" points="337.5,536.6563,327.5,540.6563,337.5,544.6563,333.5,540.6563" style="stroke:#181818;stroke-width:1.0;"/><line style="stroke:#181818;stroke-width:1.0;stroke-dasharray:2.0,2.0;" x1="331.5" x2="538.5" y1="540.6563" y2="540.6563"/><text fill="#000000" font-family="FG Virgil" font-size="13" lengthAdjust="spacing" textLength="67" x="343.5" y="535.9014">participants</text><polygon fill="#181818" points="33.5,565.1797,23.5,569.1797,33.5,573.1797,29.5,569.1797" style="stroke:#181818;stroke-width:1.0;"/><line style="stroke:#181818;stroke-width:1.0;stroke-dasharray:2.0,2.0;" x1="27.5" x2="320.5" y1="569.1797" y2="569.1797"/><text fill="#000000" font-family="FG Virgil" font-size="13" lengthAdjust="spacing" textLength="270" x="39.5" y="564.4248">Shows list of participants (w/status) in meeting</text><!--SRC=[dLJ1Rjim3BthAtXRUcXpDxm0xO0E0TPXM93TEPk9XSYI82a9ylUZ72UccwGhSZ50aU-HV4_oboObNqodtg1DszOyLQwTness7WEsJqrgZJg7qA2jzq6dH1PMQ2A9dCTgWsjQf8CX25GbaQjfXLkJNfrDFx4bUFqEVtHOQyaT6wpTNjjrpwomIYx0Cb80ZF2S8yMbILVQyx3mGyVqQuZZtBuH9IPOpZE0lsNf0qMo2PDsTZRx7FmRJncSCSU-8YfBzDxewXfRZtr3ongqt791OQShoXJjCRVOLHSKDIRyYv5E-D_aNTIywI43Bm_BCfm3XgjE5NYSyRP5jn78bK3R4qTMK-ym4LSgbeOXmsO5L84uDtaOoeQiKa83nebr2a1Z-WxnvP2zccpv8tY6QYM0J7EnN76gZV0LLjhM7nDVuDMbN8-ZSOS6ggOFUEIS8vtWEeDOSIHLPul4PDtvy6XQ0Ol6xIEOx9fRtQnwZfi8oK4amuyAd3qtbEvdkguWZYhUEprCypzNvJrwEVGYJVggE_trycuUFVvictlSbktkTFmsYTZxckUtOE9PBUTStLdu_YgCT9hifv5_ODlua9_poJr1kPp_0m00]--></g></svg>