<?xml version="1.0" encoding="us-ascii" standalone="no"?><svg xmlns="http://www.w3.org/2000/svg" xmlns:xlink="http://www.w3.org/1999/xlink" contentStyleType="text/css" height="666px" preserveAspectRatio="none" style="width:1413px;height:666px;background:#FFFFFF;" version="1.1" viewBox="0 0 1413 666" width="1413px" zoomAndPan="magnify"><defs/><g><rect fill="#FFFFFF" height="438.7266" style="stroke:#181818;stroke-width:1.0;" width="10" x="165" y="114.7266"/><rect fill="#FFFFFF" height="30" style="stroke:#181818;stroke-width:1.0;" width="10" x="649" y="172.9922"/><rect fill="#FFFFFF" height="30" style="stroke:#181818;stroke-width:1.0;" width="10" x="1034" y="290.3906"/><rect fill="#FFFFFF" height="58.2656" style="stroke:#181818;stroke-width:1.0;" width="10" x="1196" y="349.5234"/><rect fill="#FFFFFF" height="29.1328" style="stroke:#181818;stroke-width:1.0;" width="10" x="1343.5" y="436.9219"/><line style="stroke:#181818;stroke-width:0.5;stroke-dasharray:5.0,5.0;" x1="37" x2="37" y1="83.5938" y2="571.4531"/><line style="stroke:#181818;stroke-width:0.5;stroke-dasharray:5.0,5.0;" x1="169.5" x2="169.5" y1="83.5938" y2="571.4531"/><line style="stroke:#181818;stroke-width:0.5;stroke-dasharray:5.0,5.0;" x1="332.5" x2="332.5" y1="83.5938" y2="571.4531"/><line style="stroke:#181818;stroke-width:0.5;stroke-dasharray:5.0,5.0;" x1="653.5" x2="653.5" y1="83.5938" y2="571.4531"/><line style="stroke:#181818;stroke-width:0.5;stroke-dasharray:5.0,5.0;" x1="848.5" x2="848.5" y1="83.5938" y2="571.4531"/><line style="stroke:#181818;stroke-width:0.5;stroke-dasharray:5.0,5.0;" x1="1038.5" x2="1038.5" y1="83.5938" y2="571.4531"/><line style="stroke:#181818;stroke-width:0.5;stroke-dasharray:5.0,5.0;" x1="1200.5" x2="1200.5" y1="83.5938" y2="571.4531"/><line style="stroke:#181818;stroke-width:0.5;stroke-dasharray:5.0,5.0;" x1="1348.5" x2="1348.5" y1="83.5938" y2="571.4531"/><text fill="#000000" font-family="FG Virgil" font-size="14" lengthAdjust="spacing" textLength="58" x="5" y="80.292">Student</text><ellipse cx="37" cy="15.7969" fill="#E2E2F0" rx="8" ry="8" style="stroke:#181818;stroke-width:0.5;"/><path d="M37,23.7969 L37,50.7969 M24,31.7969 L50,31.7969 M37,50.7969 L24,65.7969 M37,50.7969 L50,65.7969 " fill="none" style="stroke:#181818;stroke-width:0.5;"/><text fill="#000000" font-family="FG Virgil" font-size="14" lengthAdjust="spacing" textLength="58" x="5" y="583.4482">Student</text><ellipse cx="37" cy="595.25" fill="#E2E2F0" rx="8" ry="8" style="stroke:#181818;stroke-width:0.5;"/><path d="M37,603.25 L37,630.25 M24,611.25 L50,611.25 M37,630.25 L24,645.25 M37,630.25 L50,645.25 " fill="none" style="stroke:#181818;stroke-width:0.5;"/><rect fill="#E2E2F0" height="46.5938" rx="2.5" ry="2.5" style="stroke:#181818;stroke-width:0.5;" width="123" x="108.5" y="36"/><text fill="#000000" font-family="FG Virgil" font-size="14" font-style="italic" lengthAdjust="spacing" textLength="108" x="116" y="55.9951">&#171;presentation&#187;</text><text fill="#000000" font-family="FG Virgil" font-size="14" lengthAdjust="spacing" textLength="109" x="115.5" y="72.292">ListMyGradesUI</text><rect fill="#E2E2F0" height="46.5938" rx="2.5" ry="2.5" style="stroke:#181818;stroke-width:0.5;" width="123" x="108.5" y="570.4531"/><text fill="#000000" font-family="FG Virgil" font-size="14" font-style="italic" lengthAdjust="spacing" textLength="108" x="116" y="590.4482">&#171;presentation&#187;</text><text fill="#000000" font-family="FG Virgil" font-size="14" lengthAdjust="spacing" textLength="109" x="115.5" y="606.7451">ListMyGradesUI</text><rect fill="#E2E2F0" height="46.5938" rx="2.5" ry="2.5" style="stroke:#181818;stroke-width:0.5;" width="183" x="241.5" y="36"/><text fill="#000000" font-family="FG Virgil" font-size="14" font-style="italic" lengthAdjust="spacing" textLength="97" x="284.5" y="55.9951">&#171;application&#187;</text><text fill="#000000" font-family="FG Virgil" font-size="14" lengthAdjust="spacing" textLength="169" x="248.5" y="72.292">ListMyGradesController</text><rect fill="#E2E2F0" height="46.5938" rx="2.5" ry="2.5" style="stroke:#181818;stroke-width:0.5;" width="183" x="241.5" y="570.4531"/><text fill="#000000" font-family="FG Virgil" font-size="14" font-style="italic" lengthAdjust="spacing" textLength="97" x="284.5" y="590.4482">&#171;application&#187;</text><text fill="#000000" font-family="FG Virgil" font-size="14" lengthAdjust="spacing" textLength="169" x="248.5" y="606.7451">ListMyGradesController</text><rect fill="#E2E2F0" height="46.5938" rx="2.5" ry="2.5" style="stroke:#181818;stroke-width:0.5;" width="165" x="571.5" y="36"/><text fill="#000000" font-family="FG Virgil" font-size="14" font-style="italic" lengthAdjust="spacing" textLength="97" x="605.5" y="55.9951">&#171;application&#187;</text><text fill="#000000" font-family="FG Virgil" font-size="14" lengthAdjust="spacing" textLength="151" x="578.5" y="72.292">AuthorizationService</text><rect fill="#E2E2F0" height="46.5938" rx="2.5" ry="2.5" style="stroke:#181818;stroke-width:0.5;" width="165" x="571.5" y="570.4531"/><text fill="#000000" font-family="FG Virgil" font-size="14" font-style="italic" lengthAdjust="spacing" textLength="97" x="605.5" y="590.4482">&#171;application&#187;</text><text fill="#000000" font-family="FG Virgil" font-size="14" lengthAdjust="spacing" textLength="151" x="578.5" y="606.7451">AuthorizationService</text><rect fill="#E2E2F0" height="46.5938" rx="2.5" ry="2.5" style="stroke:#181818;stroke-width:0.5;" width="204" x="746.5" y="36"/><text fill="#000000" font-family="FG Virgil" font-size="14" font-style="italic" lengthAdjust="spacing" textLength="97" x="800" y="55.9951">&#171;application&#187;</text><text fill="#000000" font-family="FG Virgil" font-size="14" lengthAdjust="spacing" textLength="190" x="753.5" y="72.292">GradeManagementService</text><rect fill="#E2E2F0" height="46.5938" rx="2.5" ry="2.5" style="stroke:#181818;stroke-width:0.5;" width="204" x="746.5" y="570.4531"/><text fill="#000000" font-family="FG Virgil" font-size="14" font-style="italic" lengthAdjust="spacing" textLength="97" x="800" y="590.4482">&#171;application&#187;</text><text fill="#000000" font-family="FG Virgil" font-size="14" lengthAdjust="spacing" textLength="190" x="753.5" y="606.7451">GradeManagementService</text><rect fill="#E2E2F0" height="46.5938" rx="2.5" ry="2.5" style="stroke:#181818;stroke-width:0.5;" width="157" x="960.5" y="36"/><text fill="#000000" font-family="FG Virgil" font-size="14" font-style="italic" lengthAdjust="spacing" textLength="100" x="989" y="55.9951">&#171;persistence&#187;</text><text fill="#000000" font-family="FG Virgil" font-size="14" lengthAdjust="spacing" textLength="143" x="967.5" y="72.292">PersistenceContext</text><rect fill="#E2E2F0" height="46.5938" rx="2.5" ry="2.5" style="stroke:#181818;stroke-width:0.5;" width="157" x="960.5" y="570.4531"/><text fill="#000000" font-family="FG Virgil" font-size="14" font-style="italic" lengthAdjust="spacing" textLength="100" x="989" y="590.4482">&#171;persistence&#187;</text><text fill="#000000" font-family="FG Virgil" font-size="14" lengthAdjust="spacing" textLength="143" x="967.5" y="606.7451">PersistenceContext</text><rect fill="#E2E2F0" height="46.5938" rx="2.5" ry="2.5" style="stroke:#181818;stroke-width:0.5;" width="147" x="1127.5" y="36"/><text fill="#000000" font-family="FG Virgil" font-size="14" font-style="italic" lengthAdjust="spacing" textLength="68" x="1167" y="55.9951">&#171;factory&#187;</text><text fill="#000000" font-family="FG Virgil" font-size="14" lengthAdjust="spacing" textLength="133" x="1134.5" y="72.292">RepositoryFactory</text><rect fill="#E2E2F0" height="46.5938" rx="2.5" ry="2.5" style="stroke:#181818;stroke-width:0.5;" width="147" x="1127.5" y="570.4531"/><text fill="#000000" font-family="FG Virgil" font-size="14" font-style="italic" lengthAdjust="spacing" textLength="68" x="1167" y="590.4482">&#171;factory&#187;</text><text fill="#000000" font-family="FG Virgil" font-size="14" lengthAdjust="spacing" textLength="133" x="1134.5" y="606.7451">RepositoryFactory</text><text fill="#000000" font-family="FG Virgil" font-size="14" font-style="italic" lengthAdjust="spacing" textLength="90" x="1300.5" y="63.9951">&#171;repository&#187;</text><text fill="#000000" font-family="FG Virgil" font-size="14" lengthAdjust="spacing" textLength="122" x="1284.5" y="80.292">GradeRepository</text><path d="M1330.5,15 C1330.5,5 1348.5,5 1348.5,5 C1348.5,5 1366.5,5 1366.5,15 L1366.5,41 C1366.5,51 1348.5,51 1348.5,51 C1348.5,51 1330.5,51 1330.5,41 L1330.5,15 " fill="#E2E2F0" style="stroke:#181818;stroke-width:1.5;"/><path d="M1330.5,15 C1330.5,25 1348.5,25 1348.5,25 C1348.5,25 1366.5,25 1366.5,15 " fill="none" style="stroke:#181818;stroke-width:1.5;"/><text fill="#000000" font-family="FG Virgil" font-size="14" font-style="italic" lengthAdjust="spacing" textLength="90" x="1300.5" y="583.4482">&#171;repository&#187;</text><text fill="#000000" font-family="FG Virgil" font-size="14" lengthAdjust="spacing" textLength="122" x="1284.5" y="599.7451">GradeRepository</text><path d="M1330.5,613.0469 C1330.5,603.0469 1348.5,603.0469 1348.5,603.0469 C1348.5,603.0469 1366.5,603.0469 1366.5,613.0469 L1366.5,639.0469 C1366.5,649.0469 1348.5,649.0469 1348.5,649.0469 C1348.5,649.0469 1330.5,649.0469 1330.5,639.0469 L1330.5,613.0469 " fill="#E2E2F0" style="stroke:#181818;stroke-width:1.5;"/><path d="M1330.5,613.0469 C1330.5,623.0469 1348.5,623.0469 1348.5,623.0469 C1348.5,623.0469 1366.5,623.0469 1366.5,613.0469 " fill="none" style="stroke:#181818;stroke-width:1.5;"/><rect fill="#FFFFFF" height="438.7266" style="stroke:#181818;stroke-width:1.0;" width="10" x="165" y="114.7266"/><rect fill="#FFFFFF" height="30" style="stroke:#181818;stroke-width:1.0;" width="10" x="649" y="172.9922"/><rect fill="#FFFFFF" height="30" style="stroke:#181818;stroke-width:1.0;" width="10" x="1034" y="290.3906"/><rect fill="#FFFFFF" height="58.2656" style="stroke:#181818;stroke-width:1.0;" width="10" x="1196" y="349.5234"/><rect fill="#FFFFFF" height="29.1328" style="stroke:#181818;stroke-width:1.0;" width="10" x="1343.5" y="436.9219"/><polygon fill="#181818" points="153,110.7266,163,114.7266,153,118.7266,157,114.7266" style="stroke:#181818;stroke-width:1.0;"/><line style="stroke:#181818;stroke-width:1.0;stroke-dasharray:2.0,2.0;" x1="37" x2="159" y1="114.7266" y2="114.7266"/><text fill="#000000" font-family="FG Virgil" font-size="13" lengthAdjust="spacing" textLength="109" x="44" y="109.6606">ask list of grades</text><polygon fill="#181818" points="321,139.8594,331,143.8594,321,147.8594,325,143.8594" style="stroke:#181818;stroke-width:1.0;"/><line style="stroke:#181818;stroke-width:1.0;stroke-dasharray:2.0,2.0;" x1="175" x2="327" y1="143.8594" y2="143.8594"/><text fill="#000000" font-family="FG Virgil" font-size="13" lengthAdjust="spacing" textLength="41" x="182" y="138.7935">create</text><polygon fill="#181818" points="637,168.9922,647,172.9922,637,176.9922,641,172.9922" style="stroke:#181818;stroke-width:1.0;"/><line style="stroke:#181818;stroke-width:1.0;" x1="333" x2="643" y1="172.9922" y2="172.9922"/><text fill="#000000" font-family="FG Virgil" font-size="13" lengthAdjust="spacing" textLength="297" x="340" y="167.9263">ensureAuthenticatedUserHasAnyOf(STUDENT)</text><polygon fill="#181818" points="321,228.125,331,232.125,321,236.125,325,232.125" style="stroke:#181818;stroke-width:1.0;"/><line style="stroke:#181818;stroke-width:1.0;" x1="175" x2="327" y1="232.125" y2="232.125"/><text fill="#000000" font-family="FG Virgil" font-size="13" lengthAdjust="spacing" textLength="126" x="182" y="227.0591">allGradesByStudent</text><polygon fill="#181818" points="836.5,257.2578,846.5,261.2578,836.5,265.2578,840.5,261.2578" style="stroke:#181818;stroke-width:1.0;"/><line style="stroke:#181818;stroke-width:1.0;" x1="333" x2="842.5" y1="261.2578" y2="261.2578"/><text fill="#000000" font-family="FG Virgil" font-size="13" lengthAdjust="spacing" textLength="185" x="340" y="256.1919">allGradesByStudent(student)</text><polygon fill="#181818" points="1022,286.3906,1032,290.3906,1022,294.3906,1026,290.3906" style="stroke:#181818;stroke-width:1.0;"/><line style="stroke:#181818;stroke-width:1.0;" x1="848.5" x2="1028" y1="290.3906" y2="290.3906"/><text fill="#000000" font-family="FG Virgil" font-size="13" lengthAdjust="spacing" textLength="85" x="855.5" y="285.3247">repositories()</text><polygon fill="#181818" points="1184,345.5234,1194,349.5234,1184,353.5234,1188,349.5234" style="stroke:#181818;stroke-width:1.0;"/><line style="stroke:#181818;stroke-width:1.0;" x1="848.5" x2="1190" y1="349.5234" y2="349.5234"/><text fill="#000000" font-family="FG Virgil" font-size="13" lengthAdjust="spacing" textLength="54" x="855.5" y="344.4575">grades()</text><polygon fill="#181818" points="1336.5,374.6563,1346.5,378.6563,1336.5,382.6563,1340.5,378.6563" style="stroke:#181818;stroke-width:1.0;"/><line style="stroke:#181818;stroke-width:1.0;" x1="1206" x2="1342.5" y1="378.6563" y2="378.6563"/><text fill="#000000" font-family="FG Virgil" font-size="13" lengthAdjust="spacing" textLength="41" x="1213" y="373.5903">create</text><polygon fill="#181818" points="859.5,403.7891,849.5,407.7891,859.5,411.7891,855.5,407.7891" style="stroke:#181818;stroke-width:1.0;"/><line style="stroke:#181818;stroke-width:1.0;" x1="853.5" x2="1200" y1="407.7891" y2="407.7891"/><text fill="#000000" font-family="FG Virgil" font-size="13" lengthAdjust="spacing" textLength="106" x="865.5" y="402.7231">gradeRepository</text><polygon fill="#181818" points="1331.5,432.9219,1341.5,436.9219,1331.5,440.9219,1335.5,436.9219" style="stroke:#181818;stroke-width:1.0;"/><line style="stroke:#181818;stroke-width:1.0;" x1="848.5" x2="1337.5" y1="436.9219" y2="436.9219"/><text fill="#000000" font-family="FG Virgil" font-size="13" lengthAdjust="spacing" textLength="185" x="855.5" y="431.856">allGradesByStudent(student)</text><polygon fill="#181818" points="859.5,462.0547,849.5,466.0547,859.5,470.0547,855.5,466.0547" style="stroke:#181818;stroke-width:1.0;"/><line style="stroke:#181818;stroke-width:1.0;stroke-dasharray:2.0,2.0;" x1="853.5" x2="1347.5" y1="466.0547" y2="466.0547"/><text fill="#000000" font-family="FG Virgil" font-size="13" lengthAdjust="spacing" textLength="79" x="865.5" y="460.9888">listOfGrades</text><polygon fill="#181818" points="344,491.1875,334,495.1875,344,499.1875,340,495.1875" style="stroke:#181818;stroke-width:1.0;"/><line style="stroke:#181818;stroke-width:1.0;stroke-dasharray:2.0,2.0;" x1="338" x2="847.5" y1="495.1875" y2="495.1875"/><text fill="#000000" font-family="FG Virgil" font-size="13" lengthAdjust="spacing" textLength="79" x="350" y="490.1216">listOfGrades</text><polygon fill="#181818" points="186,520.3203,176,524.3203,186,528.3203,182,524.3203" style="stroke:#181818;stroke-width:1.0;"/><line style="stroke:#181818;stroke-width:1.0;stroke-dasharray:2.0,2.0;" x1="180" x2="332" y1="524.3203" y2="524.3203"/><text fill="#000000" font-family="FG Virgil" font-size="13" lengthAdjust="spacing" textLength="79" x="192" y="519.2544">listOfGrades</text><polygon fill="#181818" points="48,549.4531,38,553.4531,48,557.4531,44,553.4531" style="stroke:#181818;stroke-width:1.0;"/><line style="stroke:#181818;stroke-width:1.0;stroke-dasharray:2.0,2.0;" x1="42" x2="169" y1="553.4531" y2="553.4531"/><text fill="#000000" font-family="FG Virgil" font-size="13" lengthAdjust="spacing" textLength="87" x="54" y="548.3872">list Of Grades</text><!--SRC=[ZLHDazem3BtdL-W81_v09iCCsnRAJ7VPQPRUrKG13yR9s8PjzjTNpgSJih0vG6Az9ptfAJ4deGhKU8OZglHT2sj9GORIK02c2nQOdF10iIqbWQR4-i6KChn8kywLVS4pmNe3VuG-2Ec3p17J_5seGvCy04nihY6sbvIK1JImSWS1rz9M9A90FlqbZ7qkDnfJClkj0_5l51MQ39FGYbmjbvzJlh4adKj9sb6zfoZ2ef0YcSomkjXZhiL75On9NqL2u18W1pxkSwkwpwXuM6TMsBAPV72H-9hSy8S9NaaRxe1KGaul_Qj6uvswzlkdSVtVLEH6y1pBTJNVqh7RsoZAwZl7Ij7YNpHKI-vvZZ0-YYBTFJZ5GUqLB1PBDYHaoWaaAu8yg_iqbRtYYfOO482ppO5x2q98D74uy5nXG3NY44YPYoPd10_HZOhIlI7z4yrAbRji5h_jl_zuUPkpaj7LbQqotOHJ6W5gX9CtL0SePRr4JsMpeu6xsaH3sPsvuGHlPkh_UK_lyE3OlhiXTACMP6Rpcmw6NNhKO1hgTUo39x6TB1RLB4tO6FfGIOEVHhKRo7b7kzNjmKDYAwvHrATus7ShxN7JuyM_R-VzWMo-ed9SS35S9lTIxR9DyqhTx_9BzVnsHni_gENDoj_qwds7y5QMfwF7-rdsMoRNNusw5EmoQ3DuxFtsFm00]--></g></svg>