<?xml version="1.0" encoding="us-ascii" standalone="no"?><svg xmlns="http://www.w3.org/2000/svg" xmlns:xlink="http://www.w3.org/1999/xlink" contentStyleType="text/css" height="456px" preserveAspectRatio="none" style="width:444px;height:456px;background:#FFFFFF;" version="1.1" viewBox="0 0 444 456" width="444px" zoomAndPan="magnify"><defs/><g><!--cluster presentation--><g id="cluster_presentation"><path d="M87,6 L193,6 A3.75,3.75 0 0 1 195.5,8.5 L202.5,28.2969 L420,28.2969 A2.5,2.5 0 0 1 422.5,30.7969 L422.5,143.5 A2.5,2.5 0 0 1 420,146 L87,146 A2.5,2.5 0 0 1 84.5,143.5 L84.5,8.5 A2.5,2.5 0 0 1 87,6 " fill="#DDDDDD" style="stroke:#000000;stroke-width:1.5;"/><line style="stroke:#000000;stroke-width:1.5;" x1="84.5" x2="202.5" y1="28.2969" y2="28.2969"/><text fill="#000000" font-family="sans-serif" font-size="14" font-weight="bold" lengthAdjust="spacing" textLength="105" x="88.5" y="20.9951">presentation</text></g><!--cluster persistence--><g id="cluster_persistence"><path d="M212,334 L307,334 A3.75,3.75 0 0 1 309.5,336.5 L316.5,356.2969 L435,356.2969 A2.5,2.5 0 0 1 437.5,358.7969 L437.5,446.5 A2.5,2.5 0 0 1 435,449 L212,449 A2.5,2.5 0 0 1 209.5,446.5 L209.5,336.5 A2.5,2.5 0 0 1 212,334 " fill="#DBD8AE" style="stroke:#000000;stroke-width:1.5;"/><line style="stroke:#000000;stroke-width:1.5;" x1="209.5" x2="316.5" y1="356.2969" y2="356.2969"/><text fill="#000000" font-family="sans-serif" font-size="14" font-weight="bold" lengthAdjust="spacing" textLength="94" x="213.5" y="348.9951">persistence</text></g><!--cluster application--><g id="cluster_application"><path d="M125,170 L218,170 A3.75,3.75 0 0 1 220.5,172.5 L227.5,192.2969 L382,192.2969 A2.5,2.5 0 0 1 384.5,194.7969 L384.5,307.5 A2.5,2.5 0 0 1 382,310 L125,310 A2.5,2.5 0 0 1 122.5,307.5 L122.5,172.5 A2.5,2.5 0 0 1 125,170 " fill="#EAF4D3" style="stroke:#000000;stroke-width:1.5;"/><line style="stroke:#000000;stroke-width:1.5;" x1="122.5" x2="227.5" y1="192.2969" y2="192.2969"/><text fill="#000000" font-family="sans-serif" font-size="14" font-weight="bold" lengthAdjust="spacing" textLength="92" x="126.5" y="184.9951">application</text></g><!--class ListMyGradesUI--><g id="elem_ListMyGradesUI"><rect codeLine="4" fill="#F1F1F1" height="88.8594" id="ListMyGradesUI" rx="2.5" ry="2.5" style="stroke:#181818;stroke-width:0.5;" width="306" x="100.5" y="41"/><ellipse cx="194.75" cy="61.1328" fill="#ADD1B2" rx="11" ry="11" style="stroke:#181818;stroke-width:1.0;"/><path d="M197.0938,56.8047 C196.1563,56.3672 195.5625,56.2266 194.6875,56.2266 C192.0625,56.2266 190.0625,58.3047 190.0625,61.0234 L190.0625,62.1484 C190.0625,64.7266 192.1719,66.6172 195.0625,66.6172 C196.2813,66.6172 197.4375,66.3203 198.1875,65.7734 C198.7656,65.3672 199.0938,64.9141 199.0938,64.5234 C199.0938,64.0703 198.7031,63.6797 198.2344,63.6797 C198.0156,63.6797 197.8125,63.7578 197.625,63.9453 C197.1719,64.4297 197.1719,64.4297 196.9844,64.5234 C196.5625,64.7891 195.875,64.9141 195.1094,64.9141 C193.0625,64.9141 191.7656,63.8203 191.7656,62.1172 L191.7656,61.0234 C191.7656,59.2422 193.0156,57.9297 194.75,57.9297 C195.3281,57.9297 195.9375,58.0859 196.4063,58.3359 C196.8906,58.6172 197.0625,58.8359 197.1563,59.2422 C197.2188,59.6484 197.25,59.7734 197.3906,59.8984 C197.5313,60.0391 197.7656,60.1484 197.9844,60.1484 C198.25,60.1484 198.5156,60.0078 198.6875,59.7891 C198.7969,59.6328 198.8281,59.4453 198.8281,59.0234 L198.8281,57.6016 C198.8281,57.1641 198.8125,57.0391 198.7188,56.8828 C198.5625,56.6172 198.2813,56.4766 197.9844,56.4766 C197.6875,56.4766 197.4844,56.5703 197.2656,56.8828 L197.0938,56.8047 Z " fill="#000000"/><text fill="#000000" font-family="sans-serif" font-size="12" font-style="italic" lengthAdjust="spacing" textLength="25" x="257.25" y="57.1387">&#171;ui&#187;</text><text fill="#000000" font-family="sans-serif" font-size="14" lengthAdjust="spacing" textLength="109" x="215.25" y="72.9639">ListMyGradesUI</text><line style="stroke:#181818;stroke-width:0.5;" x1="101.5" x2="405.5" y1="81.2656" y2="81.2656"/><rect fill="none" height="6" style="stroke:#C82930;stroke-width:1.0;" width="6" x="108.5" y="91.9141"/><text fill="#000000" font-family="sans-serif" font-size="14" lengthAdjust="spacing" textLength="280" x="120.5" y="98.2607">theController : ListMyGradesController</text><line style="stroke:#181818;stroke-width:0.5;" x1="101.5" x2="405.5" y1="105.5625" y2="105.5625"/><ellipse cx="111.5" cy="119.2109" fill="#84BE84" rx="3" ry="3" style="stroke:#038048;stroke-width:1.0;"/><text fill="#000000" font-family="sans-serif" font-size="14" lengthAdjust="spacing" textLength="66" x="120.5" y="122.5576">doShow()</text></g><!--class GradeRepository--><g id="elem_GradeRepository"><rect codeLine="14" fill="#F1F1F1" height="64.2969" id="GradeRepository" rx="2.5" ry="2.5" style="stroke:#181818;stroke-width:0.5;" width="196" x="225.5" y="369"/><ellipse cx="260.3" cy="385" fill="#B4A7E5" rx="11" ry="11" style="stroke:#181818;stroke-width:1.0;"/><path d="M261.2531,381.7813 L262.9719,381.7813 C263.3625,381.7813 263.55,381.75 263.675,381.6719 C263.9406,381.5156 264.0813,381.2344 264.0813,380.9375 C264.0813,380.6719 263.9719,380.4063 263.7375,380.2344 C263.5656,380.125 263.425,380.0938 262.9719,380.0938 L257.8313,380.0938 C257.3938,380.0938 257.2688,380.1094 257.1125,380.2031 C256.8625,380.3594 256.7063,380.6563 256.7063,380.9375 C256.7063,381.2188 256.8469,381.4688 257.0656,381.6406 C257.2219,381.75 257.4094,381.7813 257.8313,381.7813 L259.55,381.7813 L259.55,388.2969 L257.8313,388.2969 C257.3938,388.2969 257.2688,388.3125 257.1125,388.4219 C256.8625,388.5781 256.7063,388.8594 256.7063,389.1563 C256.7063,389.4063 256.8469,389.6719 257.0656,389.8281 C257.2219,389.9531 257.425,390 257.8313,390 L262.9719,390 C263.7219,390 264.0813,389.7188 264.0813,389.1563 C264.0813,388.875 263.9719,388.625 263.7375,388.4531 C263.5656,388.3281 263.425,388.2969 262.9719,388.2969 L261.2531,388.2969 L261.2531,381.7813 Z " fill="#000000"/><text fill="#000000" font-family="sans-serif" font-size="14" font-style="italic" lengthAdjust="spacing" textLength="120" x="278.7" y="389.8467">GradeRepository</text><line style="stroke:#181818;stroke-width:0.5;" x1="226.5" x2="420.5" y1="401" y2="401"/><line style="stroke:#181818;stroke-width:0.5;" x1="226.5" x2="420.5" y1="409" y2="409"/><ellipse cx="236.5" cy="422.6484" fill="#84BE84" rx="3" ry="3" style="stroke:#038048;stroke-width:1.0;"/><text fill="#000000" font-family="sans-serif" font-size="14" lengthAdjust="spacing" textLength="170" x="245.5" y="425.9951">findByStudent(student)</text></g><!--class ListMyGradesController--><g id="elem_ListMyGradesController"><rect codeLine="20" fill="#F1F1F1" height="88.8594" id="ListMyGradesController" rx="2.5" ry="2.5" style="stroke:#181818;stroke-width:0.5;" width="230" x="138.5" y="205"/><ellipse cx="166.55" cy="225.1328" fill="#ADD1B2" rx="11" ry="11" style="stroke:#181818;stroke-width:1.0;"/><path d="M168.8938,220.8047 C167.9563,220.3672 167.3625,220.2266 166.4875,220.2266 C163.8625,220.2266 161.8625,222.3047 161.8625,225.0234 L161.8625,226.1484 C161.8625,228.7266 163.9719,230.6172 166.8625,230.6172 C168.0813,230.6172 169.2375,230.3203 169.9875,229.7734 C170.5656,229.3672 170.8938,228.9141 170.8938,228.5234 C170.8938,228.0703 170.5031,227.6797 170.0344,227.6797 C169.8156,227.6797 169.6125,227.7578 169.425,227.9453 C168.9719,228.4297 168.9719,228.4297 168.7844,228.5234 C168.3625,228.7891 167.675,228.9141 166.9094,228.9141 C164.8625,228.9141 163.5656,227.8203 163.5656,226.1172 L163.5656,225.0234 C163.5656,223.2422 164.8156,221.9297 166.55,221.9297 C167.1281,221.9297 167.7375,222.0859 168.2063,222.3359 C168.6906,222.6172 168.8625,222.8359 168.9563,223.2422 C169.0188,223.6484 169.05,223.7734 169.1906,223.8984 C169.3313,224.0391 169.5656,224.1484 169.7844,224.1484 C170.05,224.1484 170.3156,224.0078 170.4875,223.7891 C170.5969,223.6328 170.6281,223.4453 170.6281,223.0234 L170.6281,221.6016 C170.6281,221.1641 170.6125,221.0391 170.5188,220.8828 C170.3625,220.6172 170.0813,220.4766 169.7844,220.4766 C169.4875,220.4766 169.2844,220.5703 169.0656,220.8828 L168.8938,220.8047 Z " fill="#000000"/><text fill="#000000" font-family="sans-serif" font-size="12" font-style="italic" lengthAdjust="spacing" textLength="71" x="232.45" y="221.1387">&#171;controller&#187;</text><text fill="#000000" font-family="sans-serif" font-size="14" lengthAdjust="spacing" textLength="169" x="183.45" y="236.9639">ListMyGradesController</text><line style="stroke:#181818;stroke-width:0.5;" x1="139.5" x2="367.5" y1="245.2656" y2="245.2656"/><rect fill="none" height="6" style="stroke:#C82930;stroke-width:1.0;" width="6" x="146.5" y="255.9141"/><text fill="#000000" font-family="sans-serif" font-size="14" lengthAdjust="spacing" textLength="204" x="158.5" y="262.2607">authz : AuthorizationService</text><line style="stroke:#181818;stroke-width:0.5;" x1="139.5" x2="367.5" y1="269.5625" y2="269.5625"/><ellipse cx="149.5" cy="283.2109" fill="#84BE84" rx="3" ry="3" style="stroke:#038048;stroke-width:1.0;"/><text fill="#000000" font-family="sans-serif" font-size="14" lengthAdjust="spacing" textLength="170" x="158.5" y="286.5576">findByStudent(student)</text></g><!--class AuthorizationService--><g id="elem_AuthorizationService"><rect fill="#F1F1F1" height="48" id="AuthorizationService" rx="2.5" ry="2.5" style="stroke:#181818;stroke-width:0.5;" width="183" x="7" y="377"/><ellipse cx="22" cy="393" fill="#ADD1B2" rx="11" ry="11" style="stroke:#181818;stroke-width:1.0;"/><path d="M24.3438,388.6719 C23.4063,388.2344 22.8125,388.0938 21.9375,388.0938 C19.3125,388.0938 17.3125,390.1719 17.3125,392.8906 L17.3125,394.0156 C17.3125,396.5938 19.4219,398.4844 22.3125,398.4844 C23.5313,398.4844 24.6875,398.1875 25.4375,397.6406 C26.0156,397.2344 26.3438,396.7813 26.3438,396.3906 C26.3438,395.9375 25.9531,395.5469 25.4844,395.5469 C25.2656,395.5469 25.0625,395.625 24.875,395.8125 C24.4219,396.2969 24.4219,396.2969 24.2344,396.3906 C23.8125,396.6563 23.125,396.7813 22.3594,396.7813 C20.3125,396.7813 19.0156,395.6875 19.0156,393.9844 L19.0156,392.8906 C19.0156,391.1094 20.2656,389.7969 22,389.7969 C22.5781,389.7969 23.1875,389.9531 23.6563,390.2031 C24.1406,390.4844 24.3125,390.7031 24.4063,391.1094 C24.4688,391.5156 24.5,391.6406 24.6406,391.7656 C24.7813,391.9063 25.0156,392.0156 25.2344,392.0156 C25.5,392.0156 25.7656,391.875 25.9375,391.6563 C26.0469,391.5 26.0781,391.3125 26.0781,390.8906 L26.0781,389.4688 C26.0781,389.0313 26.0625,388.9063 25.9688,388.75 C25.8125,388.4844 25.5313,388.3438 25.2344,388.3438 C24.9375,388.3438 24.7344,388.4375 24.5156,388.75 L24.3438,388.6719 Z " fill="#000000"/><text fill="#000000" font-family="sans-serif" font-size="14" lengthAdjust="spacing" textLength="151" x="36" y="397.8467">AuthorizationService</text><line style="stroke:#181818;stroke-width:0.5;" x1="8" x2="189" y1="409" y2="409"/><line style="stroke:#181818;stroke-width:0.5;" x1="8" x2="189" y1="417" y2="417"/></g><!--link ListMyGradesController to AuthorizationService--><g id="link_ListMyGradesController_AuthorizationService"><path codeLine="31" d="M208.251,294.143 C181.727,319.726 149.07,351.224 126.306,373.181 " fill="none" id="ListMyGradesController-to-AuthorizationService" style="stroke:#181818;stroke-width:1.0;stroke-dasharray:7.0,7.0;"/><polygon fill="#181818" points="122.457,376.8929,131.7116,373.5236,126.0557,373.4217,126.1576,367.7657,122.457,376.8929" style="stroke:#181818;stroke-width:1.0;"/></g><!--link ListMyGradesUI to ListMyGradesController--><g id="link_ListMyGradesUI_ListMyGradesController"><path codeLine="32" d="M253.5,130.34 C253.5,151.767 253.5,177.624 253.5,199.679 " fill="none" id="ListMyGradesUI-to-ListMyGradesController" style="stroke:#181818;stroke-width:1.0;stroke-dasharray:7.0,7.0;"/><polygon fill="#181818" points="253.5,204.906,257.5,195.906,253.5,199.906,249.5,195.906,253.5,204.906" style="stroke:#181818;stroke-width:1.0;"/></g><!--link ListMyGradesController to GradeRepository--><g id="link_ListMyGradesController_GradeRepository"><path codeLine="35" d="M273.935,294.143 C284.365,316.418 296.895,343.179 306.747,364.22 " fill="none" id="ListMyGradesController-to-GradeRepository" style="stroke:#181818;stroke-width:1.0;stroke-dasharray:7.0,7.0;"/><polygon fill="#181818" points="308.934,368.8916,308.7396,359.0447,306.8135,364.3635,301.4947,362.4374,308.934,368.8916" style="stroke:#181818;stroke-width:1.0;"/></g><!--SRC=[ZL5DIyGm4BtdLuJru2vBjmSzo58AVe08Uh7u0yPakWscIKXIfLlwtyscRbUB5TyXao4lCs_Ud5VU6xTDKoD1-QQM6wRhb4bmBk42TXPgGWomDzWXNHYB3fK7BxHQqBExY8xGWFY5FWhddzfx2npTomFDiaRa-K18gA_mLYjljPHewVO7-VGGoMlATL7fZ-KgfZtfIS3XUjA2reK2g1W6AVoLNm5s0-S0eJpQ4XZIsE0PZNR2Qzjs8sN0cfP2yPksy0qFiotT45SJMa- -b8m2m1WfsD4BXFAINynvyMtkB6DZSlHcy0SQN-s3BzSXQYlsiNI1zbqm9F-L6usAnqp_JPB_tc6okmDlPaD_rfxO_Ga0]--></g></svg>