<?xml version="1.0" encoding="us-ascii" standalone="no"?><svg xmlns="http://www.w3.org/2000/svg" xmlns:xlink="http://www.w3.org/1999/xlink" contentStyleType="text/css" height="1044px" preserveAspectRatio="none" style="width:1114px;height:1044px;background:#FFFFFF;" version="1.1" viewBox="0 0 1114 1044" width="1114.8px" zoomAndPan="magnify"><defs/><g><!--cluster presentation--><g id="cluster_presentation"><path d="M617.4,7.2 L726.6,7.2 A4.5,4.5 0 0 1 729.6,10.2 L738,33.1687 L1103.4,33.1687 A3,3 0 0 1 1106.4,36.1687 L1106.4,167.4 A3,3 0 0 1 1103.4,170.4 L617.4,170.4 A3,3 0 0 1 614.4,167.4 L614.4,10.2 A3,3 0 0 1 617.4,7.2 " fill="#DDDDDD" style="stroke:#000000;stroke-width:1.7999999999999998;"/><line style="stroke:#000000;stroke-width:1.7999999999999998;" x1="614.4" x2="738" y1="33.1687" y2="33.1687"/><text fill="#000000" font-family="sans-serif" font-size="16.8" font-weight="bold" lengthAdjust="spacing" textLength="108" x="619.2" y="24.8086">presentation</text></g><!--cluster domain--><g id="cluster_domain"><path d="M10.2,429.6 L72.6,429.6 A4.5,4.5 0 0 1 75.6,432.6 L84,455.5687 L477,455.5687 A3,3 0 0 1 480,458.5687 L480,1032.6 A3,3 0 0 1 477,1035.6 L10.2,1035.6 A3,3 0 0 1 7.2,1032.6 L7.2,432.6 A3,3 0 0 1 10.2,429.6 " fill="#DBD8AE" style="stroke:#000000;stroke-width:1.7999999999999998;"/><line style="stroke:#000000;stroke-width:1.7999999999999998;" x1="7.2" x2="84" y1="455.5687" y2="455.5687"/><text fill="#000000" font-family="sans-serif" font-size="16.8" font-weight="bold" lengthAdjust="spacing" textLength="61.2" x="12" y="447.2086">domain</text></g><!--cluster persistence--><g id="cluster_persistence"><path d="M511.8,456.6 L613.8,456.6 A4.5,4.5 0 0 1 616.8,459.6 L625.2,482.5687 L765,482.5687 A3,3 0 0 1 768,485.5687 L768,616.8 A3,3 0 0 1 765,619.8 L511.8,619.8 A3,3 0 0 1 508.8,616.8 L508.8,459.6 A3,3 0 0 1 511.8,456.6 " fill="#DBD8AE" style="stroke:#000000;stroke-width:1.7999999999999998;"/><line style="stroke:#000000;stroke-width:1.7999999999999998;" x1="508.8" x2="625.2" y1="482.5687" y2="482.5687"/><text fill="#000000" font-family="sans-serif" font-size="16.8" font-weight="bold" lengthAdjust="spacing" textLength="100.8" x="513.6" y="474.2086">persistence</text></g><!--cluster application--><g id="cluster_application"><path d="M239.4,199.2 L333,199.2 A4.5,4.5 0 0 1 336,202.2 L344.4,225.1688 L1071,225.1688 A3,3 0 0 1 1074,228.1688 L1074,397.8 A3,3 0 0 1 1071,400.8 L239.4,400.8 A3,3 0 0 1 236.4,397.8 L236.4,202.2 A3,3 0 0 1 239.4,199.2 " fill="#EAF4D3" style="stroke:#000000;stroke-width:1.7999999999999998;"/><line style="stroke:#000000;stroke-width:1.7999999999999998;" x1="236.4" x2="344.4" y1="225.1688" y2="225.1688"/><text fill="#000000" font-family="sans-serif" font-size="16.8" font-weight="bold" lengthAdjust="spacing" textLength="92.4" x="241.2" y="216.8086">application</text></g><!--class ApproveRejectStudentRequestUI--><g id="elem_ApproveRejectStudentRequestUI"><rect codeLine="4" fill="#F1F1F1" height="103.5938" id="ApproveRejectStudentRequestUI" rx="3" ry="3" style="stroke:#181818;stroke-width:0.6;" width="452.4" x="634.2" y="48"/><ellipse cx="731.1" cy="71.4281" fill="#ADD1B2" rx="13.2" ry="13.2" style="stroke:#181818;stroke-width:1.2;"/><path d="M733.5,67.2281 Q733.7438,66.6281 734.025,66.3281 Q734.3063,66.0281 734.625,66.0281 Q735.1875,66.0281 735.5437,66.3656 Q735.9,66.7031 735.9,67.4906 L735.9,69.3656 Q735.9,70.1531 735.5625,70.4906 Q735.225,70.8281 734.7,70.8281 Q734.2312,70.8281 733.9313,70.6219 Q733.6313,70.4156 733.5,69.8719 Q733.4438,69.4969 733.2375,69.2906 Q732.8625,68.8969 732.1875,68.6719 Q731.5125,68.4281 730.8375,68.4281 Q729.9938,68.4281 729.2813,68.7656 Q728.5875,69.1031 728.0437,69.8531 Q727.5,70.6031 727.5,71.6344 L727.5,72.7406 Q727.5,73.9781 728.5125,74.8031 Q729.525,75.6281 731.325,75.6281 Q732.3938,75.6281 733.1438,75.3844 Q733.575,75.2531 734.0625,74.8219 Q734.3813,74.5781 734.55,74.5031 Q734.7188,74.4281 734.925,74.4281 Q735.3188,74.4281 735.6,74.7469 Q735.9,75.0469 735.9,75.4781 Q735.9,75.8906 735.4875,76.3781 Q734.8875,77.0906 733.9313,77.4844 Q732.675,78.0281 731.1375,78.0281 Q729.3375,78.0281 727.8938,77.3156 Q726.7312,76.7531 725.9063,75.5344 Q725.1,74.3156 725.1,72.8719 L725.1,71.5594 Q725.1,70.0594 725.8125,68.7469 Q726.5437,67.4344 727.8,66.7406 Q729.075,66.0281 730.5,66.0281 Q731.3625,66.0281 732.1125,66.3281 Q732.8625,66.6281 733.5,67.2281 Z " fill="#000000"/><text fill="#000000" font-family="sans-serif" font-size="14.4" font-style="italic" lengthAdjust="spacing" textLength="28.8" x="865.5" y="67.0359">&#171;ui&#187;</text><text fill="#000000" font-family="sans-serif" font-size="16.8" lengthAdjust="spacing" textLength="248.4" x="755.7" y="85.2961">ApproveRejectStudentRequestUI</text><line style="stroke:#181818;stroke-width:0.6;" x1="635.4" x2="1085.4" y1="94.8563" y2="94.8563"/><rect fill="none" height="7.2" style="stroke:#C82930;stroke-width:1.2;" width="7.2" x="643.8" y="107.2406"/><text fill="#000000" font-family="sans-serif" font-size="16.8" lengthAdjust="spacing" textLength="421.2" x="658.2" y="114.8648">theController : ApproveRejectStudentRequestController</text><line style="stroke:#181818;stroke-width:0.6;" x1="635.4" x2="1085.4" y1="123.225" y2="123.225"/><ellipse cx="647.4" cy="139.2094" fill="#84BE84" rx="3.6" ry="3.6" style="stroke:#038048;stroke-width:1.2;"/><text fill="#000000" font-family="sans-serif" font-size="16.8" lengthAdjust="spacing" textLength="72" x="658.2" y="143.2336">doShow()</text></g><!--class Enrollment--><g id="elem_Enrollment"><rect codeLine="12" fill="#F1F1F1" height="157.2188" id="Enrollment" rx="3" ry="3" style="stroke:#181818;stroke-width:0.6;" width="434.4" x="26.4" y="470.4"/><ellipse cx="184.5" cy="501.8719" fill="#ADD1B2" rx="13.2" ry="13.2" style="stroke:#181818;stroke-width:1.2;"/><path d="M186.9,497.6719 Q187.1437,497.0719 187.425,496.7719 Q187.7062,496.4719 188.025,496.4719 Q188.5875,496.4719 188.9438,496.8094 Q189.3,497.1469 189.3,497.9344 L189.3,499.8094 Q189.3,500.5969 188.9625,500.9344 Q188.625,501.2719 188.1,501.2719 Q187.6313,501.2719 187.3312,501.0656 Q187.0313,500.8594 186.9,500.3156 Q186.8438,499.9406 186.6375,499.7344 Q186.2625,499.3406 185.5875,499.1156 Q184.9125,498.8719 184.2375,498.8719 Q183.3937,498.8719 182.6813,499.2094 Q181.9875,499.5469 181.4438,500.2969 Q180.9,501.0469 180.9,502.0781 L180.9,503.1844 Q180.9,504.4219 181.9125,505.2469 Q182.925,506.0719 184.725,506.0719 Q185.7938,506.0719 186.5438,505.8281 Q186.975,505.6969 187.4625,505.2656 Q187.7813,505.0219 187.95,504.9469 Q188.1188,504.8719 188.325,504.8719 Q188.7188,504.8719 189,505.1906 Q189.3,505.4906 189.3,505.9219 Q189.3,506.3344 188.8875,506.8219 Q188.2875,507.5344 187.3312,507.9281 Q186.075,508.4719 184.5375,508.4719 Q182.7375,508.4719 181.2938,507.7594 Q180.1313,507.1969 179.3063,505.9781 Q178.5,504.7594 178.5,503.3156 L178.5,502.0031 Q178.5,500.5031 179.2125,499.1906 Q179.9438,497.8781 181.2,497.1844 Q182.475,496.4719 183.9,496.4719 Q184.7625,496.4719 185.5125,496.7719 Q186.2625,497.0719 186.9,497.6719 Z " fill="#000000"/><text fill="#000000" font-family="sans-serif" font-size="14.4" font-style="italic" lengthAdjust="spacing" textLength="112.8" x="206.7" y="489.4359">&#171;aggregate root&#187;</text><text fill="#000000" font-family="sans-serif" font-size="14.4" font-style="italic" lengthAdjust="spacing" textLength="51.6" x="237.3" y="505.5234">&#171;entity&#187;</text><text fill="#000000" font-family="sans-serif" font-size="16.8" lengthAdjust="spacing" textLength="80.4" x="222.9" y="523.7836">Enrollment</text><line style="stroke:#181818;stroke-width:0.6;" x1="27.6" x2="459.6" y1="533.3438" y2="533.3438"/><line style="stroke:#181818;stroke-width:0.6;" x1="27.6" x2="459.6" y1="542.9438" y2="542.9438"/><ellipse cx="39.6" cy="558.9281" fill="#84BE84" rx="3.6" ry="3.6" style="stroke:#038048;stroke-width:1.2;"/><text fill="#000000" font-family="sans-serif" font-size="16.8" lengthAdjust="spacing" textLength="403.2" x="50.4" y="562.9523">Enrollment(mechanographicNumber, courseIdentifier)</text><ellipse cx="39.6" cy="577.6969" fill="#84BE84" rx="3.6" ry="3.6" style="stroke:#038048;stroke-width:1.2;"/><text fill="#000000" font-family="sans-serif" font-size="16.8" lengthAdjust="spacing" textLength="139.2" x="50.4" y="581.7211">enrollmentStatus()</text><ellipse cx="39.6" cy="596.4656" fill="#84BE84" rx="3.6" ry="3.6" style="stroke:#038048;stroke-width:1.2;"/><text fill="#000000" font-family="sans-serif" font-size="16.8" lengthAdjust="spacing" textLength="162" x="50.4" y="600.4898">accepted(createdOn)</text><ellipse cx="39.6" cy="615.2344" fill="#84BE84" rx="3.6" ry="3.6" style="stroke:#038048;stroke-width:1.2;"/><text fill="#000000" font-family="sans-serif" font-size="16.8" lengthAdjust="spacing" textLength="153.6" x="50.4" y="619.2586">rejected(createdOn)</text></g><!--class EnrollmentStatus--><g id="elem_EnrollmentStatus"><rect codeLine="19" fill="#F1F1F1" height="122.3625" id="EnrollmentStatus" rx="3" ry="3" style="stroke:#181818;stroke-width:0.6;" width="298.8" x="94.2" y="699.6"/><ellipse cx="174.3" cy="723.0281" fill="#ADD1B2" rx="13.2" ry="13.2" style="stroke:#181818;stroke-width:1.2;"/><path d="M176.7,718.8281 Q176.9438,718.2281 177.225,717.9281 Q177.5063,717.6281 177.825,717.6281 Q178.3875,717.6281 178.7438,717.9656 Q179.1,718.3031 179.1,719.0906 L179.1,720.9656 Q179.1,721.7531 178.7625,722.0906 Q178.425,722.4281 177.9,722.4281 Q177.4313,722.4281 177.1313,722.2219 Q176.8312,722.0156 176.7,721.4719 Q176.6437,721.0969 176.4375,720.8906 Q176.0625,720.4969 175.3875,720.2719 Q174.7125,720.0281 174.0375,720.0281 Q173.1938,720.0281 172.4813,720.3656 Q171.7875,720.7031 171.2438,721.4531 Q170.7,722.2031 170.7,723.2344 L170.7,724.3406 Q170.7,725.5781 171.7125,726.4031 Q172.725,727.2281 174.525,727.2281 Q175.5938,727.2281 176.3438,726.9844 Q176.775,726.8531 177.2625,726.4219 Q177.5812,726.1781 177.75,726.1031 Q177.9188,726.0281 178.125,726.0281 Q178.5187,726.0281 178.8,726.3469 Q179.1,726.6469 179.1,727.0781 Q179.1,727.4906 178.6875,727.9781 Q178.0875,728.6906 177.1313,729.0844 Q175.875,729.6281 174.3375,729.6281 Q172.5375,729.6281 171.0938,728.9156 Q169.9313,728.3531 169.1063,727.1344 Q168.3,725.9156 168.3,724.4719 L168.3,723.1594 Q168.3,721.6594 169.0125,720.3469 Q169.7438,719.0344 171,718.3406 Q172.275,717.6281 173.7,717.6281 Q174.5625,717.6281 175.3125,717.9281 Q176.0625,718.2281 176.7,718.8281 Z " fill="#000000"/><text fill="#000000" font-family="sans-serif" font-size="14.4" font-style="italic" lengthAdjust="spacing" textLength="97.2" x="214.5" y="718.6359">&#171;value object&#187;</text><text fill="#000000" font-family="sans-serif" font-size="16.8" lengthAdjust="spacing" textLength="128.4" x="198.9" y="736.8961">EnrollmentStatus</text><line style="stroke:#181818;stroke-width:0.6;" x1="95.4" x2="391.8" y1="746.4563" y2="746.4563"/><rect fill="none" height="7.2" style="stroke:#C82930;stroke-width:1.2;" width="7.2" x="103.8" y="758.8406"/><text fill="#000000" font-family="sans-serif" font-size="16.8" lengthAdjust="spacing" textLength="186" x="118.2" y="766.4648">enrollmentStatus : String</text><line style="stroke:#181818;stroke-width:0.6;" x1="95.4" x2="391.8" y1="774.825" y2="774.825"/><ellipse cx="107.4" cy="790.8094" fill="#84BE84" rx="3.6" ry="3.6" style="stroke:#038048;stroke-width:1.2;"/><text fill="#000000" font-family="sans-serif" font-size="16.8" lengthAdjust="spacing" textLength="198" x="118.2" y="794.8336">valueOf(enrollmentStatus)</text><ellipse cx="107.4" cy="809.5781" fill="#84BE84" rx="3.6" ry="3.6" style="stroke:#038048;stroke-width:1.2;"/><text fill="#000000" font-family="sans-serif" font-size="16.8" lengthAdjust="spacing" textLength="267.6" x="118.2" y="813.6023">EnrollmentStatus(enrollmentStatus)</text></g><!--class EnrollmentStatusDate--><g id="elem_EnrollmentStatusDate"><rect codeLine="25" fill="#F1F1F1" height="122.3625" id="EnrollmentStatusDate" rx="3" ry="3" style="stroke:#181818;stroke-width:0.6;" width="370.8" x="58.2" y="894"/><ellipse cx="156.3" cy="917.4281" fill="#ADD1B2" rx="13.2" ry="13.2" style="stroke:#181818;stroke-width:1.2;"/><path d="M158.7,913.2281 Q158.9438,912.6281 159.225,912.3281 Q159.5063,912.0281 159.825,912.0281 Q160.3875,912.0281 160.7438,912.3656 Q161.1,912.7031 161.1,913.4906 L161.1,915.3656 Q161.1,916.1531 160.7625,916.4906 Q160.425,916.8281 159.9,916.8281 Q159.4313,916.8281 159.1313,916.6219 Q158.8312,916.4156 158.7,915.8719 Q158.6437,915.4969 158.4375,915.2906 Q158.0625,914.8969 157.3875,914.6719 Q156.7125,914.4281 156.0375,914.4281 Q155.1938,914.4281 154.4813,914.7656 Q153.7875,915.1031 153.2438,915.8531 Q152.7,916.6031 152.7,917.6344 L152.7,918.7406 Q152.7,919.9781 153.7125,920.8031 Q154.725,921.6281 156.525,921.6281 Q157.5938,921.6281 158.3438,921.3844 Q158.775,921.2531 159.2625,920.8219 Q159.5812,920.5781 159.75,920.5031 Q159.9188,920.4281 160.125,920.4281 Q160.5187,920.4281 160.8,920.7469 Q161.1,921.0469 161.1,921.4781 Q161.1,921.8906 160.6875,922.3781 Q160.0875,923.0906 159.1313,923.4844 Q157.875,924.0281 156.3375,924.0281 Q154.5375,924.0281 153.0938,923.3156 Q151.9313,922.7531 151.1063,921.5344 Q150.3,920.3156 150.3,918.8719 L150.3,917.5594 Q150.3,916.0594 151.0125,914.7469 Q151.7438,913.4344 153,912.7406 Q154.275,912.0281 155.7,912.0281 Q156.5625,912.0281 157.3125,912.3281 Q158.0625,912.6281 158.7,913.2281 Z " fill="#000000"/><text fill="#000000" font-family="sans-serif" font-size="14.4" font-style="italic" lengthAdjust="spacing" textLength="97.2" x="214.5" y="913.0359">&#171;value object&#187;</text><text fill="#000000" font-family="sans-serif" font-size="16.8" lengthAdjust="spacing" textLength="164.4" x="180.9" y="931.2961">EnrollmentStatusDate</text><line style="stroke:#181818;stroke-width:0.6;" x1="59.4" x2="427.8" y1="940.8562" y2="940.8562"/><rect fill="none" height="7.2" style="stroke:#C82930;stroke-width:1.2;" width="7.2" x="67.8" y="953.2406"/><text fill="#000000" font-family="sans-serif" font-size="16.8" lengthAdjust="spacing" textLength="213.6" x="82.2" y="960.8648">enrollmentStatusDate : Date</text><line style="stroke:#181818;stroke-width:0.6;" x1="59.4" x2="427.8" y1="969.225" y2="969.225"/><ellipse cx="71.4" cy="985.2094" fill="#84BE84" rx="3.6" ry="3.6" style="stroke:#038048;stroke-width:1.2;"/><text fill="#000000" font-family="sans-serif" font-size="16.8" lengthAdjust="spacing" textLength="234" x="82.2" y="989.2336">valueOf(enrollmentStatusDate)</text><ellipse cx="71.4" cy="1003.9781" fill="#84BE84" rx="3.6" ry="3.6" style="stroke:#038048;stroke-width:1.2;"/><text fill="#000000" font-family="sans-serif" font-size="16.8" lengthAdjust="spacing" textLength="339.6" x="82.2" y="1008.0023">EnrollmentStatusDate(enrollmentStatusDate)</text></g><!--class EnrollmentRepository--><g id="elem_EnrollmentRepository"><rect codeLine="34" fill="#F1F1F1" height="103.5938" id="EnrollmentRepository" rx="3" ry="3" style="stroke:#181818;stroke-width:0.6;" width="220.8" x="528" y="497.4"/><ellipse cx="555.18" cy="520.8281" fill="#B4A7E5" rx="13.2" ry="13.2" style="stroke:#181818;stroke-width:1.2;"/><path d="M556.38,517.2281 L556.38,524.4281 L558.78,524.4281 L559.3612,524.4281 L559.98,525.1781 L559.98,525.6281 L559.98,526.0781 L559.3612,526.8281 L558.78,526.8281 L551.58,526.8281 L550.9988,526.8281 L550.38,526.0781 L550.38,525.6281 L550.38,525.1781 L550.9988,524.4281 L551.58,524.4281 L553.98,524.4281 L553.98,517.2281 L551.58,517.2281 L550.9988,517.2281 L550.38,516.4781 L550.38,516.0281 L550.38,515.5781 L550.9988,514.8281 L551.58,514.8281 L558.78,514.8281 L559.3612,514.8281 L559.98,515.5781 L559.98,516.0281 L559.98,516.4781 L559.3612,517.2281 L558.78,517.2281 L556.38,517.2281 Z " fill="#000000"/><text fill="#000000" font-family="sans-serif" font-size="14.4" font-style="italic" lengthAdjust="spacing" textLength="81.6" x="614.22" y="516.4359">&#171;repository&#187;</text><text fill="#000000" font-family="sans-serif" font-size="16.8" font-style="italic" lengthAdjust="spacing" textLength="162" x="574.02" y="534.6961">EnrollmentRepository</text><line style="stroke:#181818;stroke-width:0.6;" x1="529.2" x2="747.6" y1="544.2563" y2="544.2563"/><line style="stroke:#181818;stroke-width:0.6;" x1="529.2" x2="747.6" y1="553.8562" y2="553.8562"/><ellipse cx="541.2" cy="569.8406" fill="#84BE84" rx="3.6" ry="3.6" style="stroke:#038048;stroke-width:1.2;"/><text fill="#000000" font-family="sans-serif" font-size="16.8" lengthAdjust="spacing" textLength="189.6" x="552" y="573.8648">findByRequestedStatus()</text><ellipse cx="541.2" cy="588.6094" fill="#84BE84" rx="3.6" ry="3.6" style="stroke:#038048;stroke-width:1.2;"/><text fill="#000000" font-family="sans-serif" font-size="16.8" lengthAdjust="spacing" textLength="127.2" x="552" y="592.6336">save(enrollment)</text></g><!--class ApproveRejectStudentRequestController--><g id="elem_ApproveRejectStudentRequestController"><rect codeLine="43" fill="#F1F1F1" height="141.1313" id="ApproveRejectStudentRequestController" rx="3" ry="3" style="stroke:#181818;stroke-width:0.6;" width="387.6" x="666.6" y="240"/><ellipse cx="702.96" cy="263.4281" fill="#ADD1B2" rx="13.2" ry="13.2" style="stroke:#181818;stroke-width:1.2;"/><path d="M705.36,259.2281 Q705.6037,258.6281 705.885,258.3281 Q706.1662,258.0281 706.485,258.0281 Q707.0475,258.0281 707.4038,258.3656 Q707.76,258.7031 707.76,259.4906 L707.76,261.3656 Q707.76,262.1531 707.4225,262.4906 Q707.085,262.8281 706.56,262.8281 Q706.0913,262.8281 705.7912,262.6219 Q705.4912,262.4156 705.36,261.8719 Q705.3037,261.4969 705.0975,261.2906 Q704.7225,260.8969 704.0475,260.6719 Q703.3725,260.4281 702.6975,260.4281 Q701.8537,260.4281 701.1412,260.7656 Q700.4475,261.1031 699.9038,261.8531 Q699.36,262.6031 699.36,263.6344 L699.36,264.7406 Q699.36,265.9781 700.3725,266.8031 Q701.385,267.6281 703.185,267.6281 Q704.2538,267.6281 705.0038,267.3844 Q705.435,267.2531 705.9225,266.8219 Q706.2412,266.5781 706.41,266.5031 Q706.5787,266.4281 706.785,266.4281 Q707.1787,266.4281 707.46,266.7469 Q707.76,267.0469 707.76,267.4781 Q707.76,267.8906 707.3475,268.3781 Q706.7475,269.0906 705.7912,269.4844 Q704.535,270.0281 702.9975,270.0281 Q701.1975,270.0281 699.7538,269.3156 Q698.5913,268.7531 697.7662,267.5344 Q696.96,266.3156 696.96,264.8719 L696.96,263.5594 Q696.96,262.0594 697.6725,260.7469 Q698.4038,259.4344 699.66,258.7406 Q700.935,258.0281 702.36,258.0281 Q703.2225,258.0281 703.9725,258.3281 Q704.7225,258.6281 705.36,259.2281 Z " fill="#000000"/><text fill="#000000" font-family="sans-serif" font-size="14.4" font-style="italic" lengthAdjust="spacing" textLength="78" x="839.04" y="259.0359">&#171;controller&#187;</text><text fill="#000000" font-family="sans-serif" font-size="16.8" lengthAdjust="spacing" textLength="308.4" x="723.84" y="277.2961">ApproveRejectStudentRequestController</text><line style="stroke:#181818;stroke-width:0.6;" x1="667.8" x2="1053" y1="286.8563" y2="286.8563"/><rect fill="none" height="7.2" style="stroke:#C82930;stroke-width:1.2;" width="7.2" x="676.2" y="299.2406"/><text fill="#000000" font-family="sans-serif" font-size="16.8" lengthAdjust="spacing" textLength="356.4" x="690.6" y="306.8648">enrollmentSvc : EnrollmentManagementService</text><line style="stroke:#181818;stroke-width:0.6;" x1="667.8" x2="1053" y1="315.225" y2="315.225"/><ellipse cx="679.8" cy="331.2094" fill="#84BE84" rx="3.6" ry="3.6" style="stroke:#038048;stroke-width:1.2;"/><text fill="#000000" font-family="sans-serif" font-size="16.8" lengthAdjust="spacing" textLength="145.2" x="690.6" y="335.2336">pendingRequests()</text><ellipse cx="679.8" cy="349.9781" fill="#84BE84" rx="3.6" ry="3.6" style="stroke:#038048;stroke-width:1.2;"/><text fill="#000000" font-family="sans-serif" font-size="16.8" lengthAdjust="spacing" textLength="276" x="690.6" y="354.0023">approveStudentRequest(enrollment)</text><ellipse cx="679.8" cy="368.7469" fill="#84BE84" rx="3.6" ry="3.6" style="stroke:#038048;stroke-width:1.2;"/><text fill="#000000" font-family="sans-serif" font-size="16.8" lengthAdjust="spacing" textLength="255.6" x="690.6" y="372.7711">rejectStudentRequest(enrollment)</text></g><!--class EnrollmentManagementService--><g id="elem_EnrollmentManagementService"><rect codeLine="50" fill="#F1F1F1" height="122.3625" id="EnrollmentManagementService" rx="3" ry="3" style="stroke:#181818;stroke-width:0.6;" width="368.4" x="256.2" y="249.6"/><ellipse cx="317.7" cy="273.0281" fill="#ADD1B2" rx="13.2" ry="13.2" style="stroke:#181818;stroke-width:1.2;"/><path d="M320.1,268.8281 Q320.3438,268.2281 320.625,267.9281 Q320.9063,267.6281 321.225,267.6281 Q321.7875,267.6281 322.1438,267.9656 Q322.5,268.3031 322.5,269.0906 L322.5,270.9656 Q322.5,271.7531 322.1625,272.0906 Q321.825,272.4281 321.3,272.4281 Q320.8313,272.4281 320.5313,272.2219 Q320.2313,272.0156 320.1,271.4719 Q320.0438,271.0969 319.8375,270.8906 Q319.4625,270.4969 318.7875,270.2719 Q318.1125,270.0281 317.4375,270.0281 Q316.5938,270.0281 315.8812,270.3656 Q315.1875,270.7031 314.6438,271.4531 Q314.1,272.2031 314.1,273.2344 L314.1,274.3406 Q314.1,275.5781 315.1125,276.4031 Q316.125,277.2281 317.925,277.2281 Q318.9938,277.2281 319.7438,276.9844 Q320.175,276.8531 320.6625,276.4219 Q320.9813,276.1781 321.15,276.1031 Q321.3187,276.0281 321.525,276.0281 Q321.9188,276.0281 322.2,276.3469 Q322.5,276.6469 322.5,277.0781 Q322.5,277.4906 322.0875,277.9781 Q321.4875,278.6906 320.5313,279.0844 Q319.275,279.6281 317.7375,279.6281 Q315.9375,279.6281 314.4938,278.9156 Q313.3313,278.3531 312.5062,277.1344 Q311.7,275.9156 311.7,274.4719 L311.7,273.1594 Q311.7,271.6594 312.4125,270.3469 Q313.1438,269.0344 314.4,268.3406 Q315.675,267.6281 317.1,267.6281 Q317.9625,267.6281 318.7125,267.9281 Q319.4625,268.2281 320.1,268.8281 Z " fill="#000000"/><text fill="#000000" font-family="sans-serif" font-size="14.4" font-style="italic" lengthAdjust="spacing" textLength="63.6" x="428.1" y="268.6359">&#171;service&#187;</text><text fill="#000000" font-family="sans-serif" font-size="16.8" lengthAdjust="spacing" textLength="235.2" x="342.3" y="286.8961">EnrollmentManagementService</text><line style="stroke:#181818;stroke-width:0.6;" x1="257.4" x2="623.4" y1="296.4563" y2="296.4563"/><rect fill="none" height="7.2" style="stroke:#C82930;stroke-width:1.2;" width="7.2" x="265.8" y="308.8406"/><text fill="#000000" font-family="sans-serif" font-size="16.8" lengthAdjust="spacing" textLength="337.2" x="280.2" y="316.4648">enrollmentRepository : EnrollmentRepository</text><line style="stroke:#181818;stroke-width:0.6;" x1="257.4" x2="623.4" y1="324.825" y2="324.825"/><ellipse cx="269.4" cy="340.8094" fill="#84BE84" rx="3.6" ry="3.6" style="stroke:#038048;stroke-width:1.2;"/><text fill="#000000" font-family="sans-serif" font-size="16.8" lengthAdjust="spacing" textLength="276" x="280.2" y="344.8336">approveStudentRequest(enrollment)</text><ellipse cx="269.4" cy="359.5781" fill="#84BE84" rx="3.6" ry="3.6" style="stroke:#038048;stroke-width:1.2;"/><text fill="#000000" font-family="sans-serif" font-size="16.8" lengthAdjust="spacing" textLength="255.6" x="280.2" y="363.6023">rejectStudentRequest(enrollment)</text></g><!--link ApproveRejectStudentRequestUI to ApproveRejectStudentRequestController--><g id="link_ApproveRejectStudentRequestUI_ApproveRejectStudentRequestController"><path codeLine="57" d="M860.4,151.344 C860.4,176.028 860.4,206.244 860.4,233.64 " fill="none" id="ApproveRejectStudentRequestUI-to-ApproveRejectStudentRequestController" style="stroke:#181818;stroke-width:1.2;stroke-dasharray:7.0,7.0;"/><polygon fill="#181818" points="860.4,239.796,865.2,228.996,860.4,233.796,855.6,228.996,860.4,239.796" style="stroke:#181818;stroke-width:1.2;"/></g><!--link EnrollmentManagementService to EnrollmentRepository--><g id="link_EnrollmentManagementService_EnrollmentRepository"><path codeLine="60" d="M490.872,372.108 C522.012,409.2 561.672,456.42 592.02,492.564 " fill="none" id="EnrollmentManagementService-to-EnrollmentRepository" style="stroke:#181818;stroke-width:1.2;stroke-dasharray:7.0,7.0;"/><polygon fill="#181818" points="596.052,497.364,592.7839,486.0062,592.1941,492.7688,585.4315,492.1789,596.052,497.364" style="stroke:#181818;stroke-width:1.2;"/></g><!--link Enrollment to EnrollmentStatus--><g id="link_Enrollment_EnrollmentStatus"><path codeLine="61" d="M243.6,628.176 C243.6,649.56 243.6,672.552 243.6,693.228 " fill="none" id="Enrollment-to-EnrollmentStatus" style="stroke:#181818;stroke-width:1.2;"/><polygon fill="#181818" points="243.6,699.564,248.4,688.764,243.6,693.564,238.8,688.764,243.6,699.564" style="stroke:#181818;stroke-width:1.2;"/></g><!--link EnrollmentStatus to EnrollmentStatusDate--><g id="link_EnrollmentStatus_EnrollmentStatusDate"><path codeLine="62" d="M243.6,822.228 C243.6,842.952 243.6,866.28 243.6,887.484 " fill="none" id="EnrollmentStatus-to-EnrollmentStatusDate" style="stroke:#181818;stroke-width:1.2;"/><polygon fill="#181818" points="243.6,893.988,248.4,883.188,243.6,887.988,238.8,883.188,243.6,893.988" style="stroke:#181818;stroke-width:1.2;"/></g><!--link EnrollmentManagementService to Enrollment--><g id="link_EnrollmentManagementService_Enrollment"><path codeLine="63" d="M390.228,372.108 C366.66,400.344 338.196,434.46 312.636,465.084 " fill="none" id="EnrollmentManagementService-to-Enrollment" style="stroke:#181818;stroke-width:1.2;stroke-dasharray:7.0,7.0;"/><polygon fill="#181818" points="308.556,469.968,319.1555,464.7402,312.3954,465.3573,311.7784,458.5971,308.556,469.968" style="stroke:#181818;stroke-width:1.2;"/></g><!--SRC=[ZPJ1Zjem48RlUGfhUsWG1GxjeK8eKjljOG_jIg0-WB4dYNSJsxMTLAZQT-_OIS106iW5ald7y_tZiT-NpccxNgrqHQLhwch9LBrY5RLsmGKj3AsJH5FsIWiW3zg01Uce4qe-a7UFuVcR47n22lcYjL4jRE45cDkvXgDw2xyRiExN4zbi6f5bdNv1N0dVb7H6LHKOifxAFUb2xfnmjIlLdtGMNj-IjoI2vAgcmkFnFVzC8SRxBlqgDIwCBBGe31JK0J5AkIp3JnWGxZ0WpYDzMWChgLJO45qAzhEfzs0-4AOQO-79eufSW9drYN1Ct66t6fiE0SeOQ0SyPGQmD7-MGyG4tzSHz3Pce5iNcLjQDK3KtcUVcdi9WFtTEIDaqLSBMSzvUgcRNJdl3OmB9-4UVM_l1GpYDV4_Dn2zv7-OFZQH42RbDCrWhB0E98DeMe9GI0ScfmoY2blGoWgdp05DcUFBO8dCSo7vrqC_ii3FTXvPBMrZjbaoT31cebfNWWq736Z-YN_4zM-UhkWaRJRi-3BQxvPXeq- -Vb29fKC4J2lOq7yDakF0z0MY4UuepkkV6Oi7-eRC3z3bz5m1eINR_Hlp4-tBUdIxXWsu3_n-ScIVlk-MY-pEMor9fkpxTKQDHVVPuapJpLvoTLsCgSAHcoo_Z9EGzHy0]--></g></svg>