<?xml version="1.0" encoding="us-ascii" standalone="no"?><svg xmlns="http://www.w3.org/2000/svg" xmlns:xlink="http://www.w3.org/1999/xlink" contentStyleType="text/css" height="1249.2px" preserveAspectRatio="none" style="width:1822px;height:1249px;background:#FFFFFF;" version="1.1" viewBox="0 0 1822 1249" width="1822.8px" zoomAndPan="magnify"><defs/><g><rect fill="#FFFFFF" height="963.075" style="stroke:#181818;stroke-width:1.2;" width="12" x="272.4" y="152.7938"/><rect fill="#FFFFFF" height="894.6188" style="stroke:#181818;stroke-width:1.2;" width="12" x="579.6" y="221.25"/><rect fill="#FFFFFF" height="36" style="stroke:#181818;stroke-width:1.2;" width="12" x="1040.4" y="255.4781"/><rect fill="#FFFFFF" height="766.7344" style="stroke:#181818;stroke-width:1.2;" width="12" x="1264.2" y="359.9344"/><rect fill="#FFFFFF" height="34.2281" style="stroke:#181818;stroke-width:1.2;" width="12" x="1713" y="394.1625"/><rect fill="#FFFFFF" height="16.8" style="stroke:#181818;stroke-width:1.2;" width="12" x="1713" y="798.9"/><rect fill="#FFFFFF" height="16.8" style="stroke:#181818;stroke-width:1.2;" width="12" x="1713" y="1022.8406"/><rect fill="none" height="207.1406" style="stroke:#000000;stroke-width:1.7999999999999998;" width="1681.8" x="133.8" y="651.7594"/><rect fill="none" height="207.1406" style="stroke:#000000;stroke-width:1.7999999999999998;" width="1681.8" x="133.8" y="875.7"/><line style="stroke:#181818;stroke-width:0.6;stroke-dasharray:5.0,5.0;" x1="43.2" x2="43.2" y1="98.7375" y2="1137.4688"/><line style="stroke:#181818;stroke-width:0.6;stroke-dasharray:5.0,5.0;" x1="277.8" x2="277.8" y1="98.7375" y2="1137.4688"/><line style="stroke:#181818;stroke-width:0.6;stroke-dasharray:5.0,5.0;" x1="585" x2="585" y1="98.7375" y2="1137.4688"/><line style="stroke:#181818;stroke-width:0.6;stroke-dasharray:5.0,5.0;" x1="1045.8" x2="1045.8" y1="98.7375" y2="1137.4688"/><line style="stroke:#181818;stroke-width:0.6;stroke-dasharray:5.0,5.0;" x1="1270.2" x2="1270.2" y1="98.7375" y2="1137.4688"/><line style="stroke:#181818;stroke-width:0.6;stroke-dasharray:5.0,5.0;" x1="1573.2" x2="1573.2" y1="98.7375" y2="1137.4688"/><line style="stroke:#181818;stroke-width:0.6;stroke-dasharray:5.0,5.0;" x1="1718.4" x2="1718.4" y1="98.7375" y2="1137.4688"/><text fill="#000000" font-family="FG Virgil" font-size="16.8" lengthAdjust="spacing" textLength="67.2" x="6" y="95.1773">Manager</text><ellipse cx="43.2" cy="18.1688" fill="#E2E2F0" rx="9.6" ry="9.6" style="stroke:#181818;stroke-width:0.6;"/><path d="M43.2,27.7688 L43.2,60.1687 M27.6,37.3688 L58.8,37.3688 M43.2,60.1687 L27.6,78.1688 M43.2,60.1687 L58.8,78.1688 " fill="none" style="stroke:#181818;stroke-width:0.6;"/><text fill="#000000" font-family="FG Virgil" font-size="16.8" lengthAdjust="spacing" textLength="67.2" x="6" y="1151.4773">Manager</text><ellipse cx="43.2" cy="1165.2375" fill="#E2E2F0" rx="9.6" ry="9.6" style="stroke:#181818;stroke-width:0.6;"/><path d="M43.2,1174.8375 L43.2,1207.2375 M27.6,1184.4375 L58.8,1184.4375 M43.2,1207.2375 L27.6,1225.2375 M43.2,1207.2375 L58.8,1225.2375 " fill="none" style="stroke:#181818;stroke-width:0.6;"/><rect fill="#E2E2F0" height="54.3375" rx="3" ry="3" style="stroke:#181818;stroke-width:0.6;" width="265.2" x="145.8" y="43.2"/><text fill="#000000" font-family="FG Virgil" font-size="16.8" font-style="italic" lengthAdjust="spacing" textLength="114" x="221.4" y="66.8086">&#171;presentation&#187;</text><text fill="#000000" font-family="FG Virgil" font-size="16.8" lengthAdjust="spacing" textLength="248.4" x="154.2" y="85.5773">ApproveRejectStudentRequestUI</text><rect fill="#E2E2F0" height="54.3375" rx="3" ry="3" style="stroke:#181818;stroke-width:0.6;" width="265.2" x="145.8" y="1136.2688"/><text fill="#000000" font-family="FG Virgil" font-size="16.8" font-style="italic" lengthAdjust="spacing" textLength="114" x="221.4" y="1159.8773">&#171;presentation&#187;</text><text fill="#000000" font-family="FG Virgil" font-size="16.8" lengthAdjust="spacing" textLength="248.4" x="154.2" y="1178.6461">ApproveRejectStudentRequestUI</text><rect fill="#E2E2F0" height="54.3375" rx="3" ry="3" style="stroke:#181818;stroke-width:0.6;" width="325.2" x="423" y="43.2"/><text fill="#000000" font-family="FG Virgil" font-size="16.8" font-style="italic" lengthAdjust="spacing" textLength="100.8" x="535.2" y="66.8086">&#171;application&#187;</text><text fill="#000000" font-family="FG Virgil" font-size="16.8" lengthAdjust="spacing" textLength="308.4" x="431.4" y="85.5773">ApproveRejectStudentRequestController</text><rect fill="#E2E2F0" height="54.3375" rx="3" ry="3" style="stroke:#181818;stroke-width:0.6;" width="325.2" x="423" y="1136.2688"/><text fill="#000000" font-family="FG Virgil" font-size="16.8" font-style="italic" lengthAdjust="spacing" textLength="100.8" x="535.2" y="1159.8773">&#171;application&#187;</text><text fill="#000000" font-family="FG Virgil" font-size="16.8" lengthAdjust="spacing" textLength="308.4" x="431.4" y="1178.6461">ApproveRejectStudentRequestController</text><rect fill="#E2E2F0" height="54.3375" rx="3" ry="3" style="stroke:#181818;stroke-width:0.6;" width="171.6" x="960.6" y="43.2"/><text fill="#000000" font-family="FG Virgil" font-size="16.8" font-style="italic" lengthAdjust="spacing" textLength="100.8" x="996" y="66.8086">&#171;application&#187;</text><text fill="#000000" font-family="FG Virgil" font-size="16.8" lengthAdjust="spacing" textLength="154.8" x="969" y="85.5773">AuthorizationService</text><rect fill="#E2E2F0" height="54.3375" rx="3" ry="3" style="stroke:#181818;stroke-width:0.6;" width="171.6" x="960.6" y="1136.2688"/><text fill="#000000" font-family="FG Virgil" font-size="16.8" font-style="italic" lengthAdjust="spacing" textLength="100.8" x="996" y="1159.8773">&#171;application&#187;</text><text fill="#000000" font-family="FG Virgil" font-size="16.8" lengthAdjust="spacing" textLength="154.8" x="969" y="1178.6461">AuthorizationService</text><rect fill="#E2E2F0" height="54.3375" rx="3" ry="3" style="stroke:#181818;stroke-width:0.6;" width="252" x="1144.2" y="43.2"/><text fill="#000000" font-family="FG Virgil" font-size="16.8" font-style="italic" lengthAdjust="spacing" textLength="100.8" x="1219.8" y="66.8086">&#171;application&#187;</text><text fill="#000000" font-family="FG Virgil" font-size="16.8" lengthAdjust="spacing" textLength="235.2" x="1152.6" y="85.5773">EnrollmentManagementService</text><rect fill="#E2E2F0" height="54.3375" rx="3" ry="3" style="stroke:#181818;stroke-width:0.6;" width="252" x="1144.2" y="1136.2688"/><text fill="#000000" font-family="FG Virgil" font-size="16.8" font-style="italic" lengthAdjust="spacing" textLength="100.8" x="1219.8" y="1159.8773">&#171;application&#187;</text><text fill="#000000" font-family="FG Virgil" font-size="16.8" lengthAdjust="spacing" textLength="235.2" x="1152.6" y="1178.6461">EnrollmentManagementService</text><rect fill="#E2E2F0" height="54.3375" rx="3" ry="3" style="stroke:#181818;stroke-width:0.6;" width="97.2" x="1525.2" y="43.2"/><text fill="#000000" font-family="FG Virgil" font-size="16.8" font-style="italic" lengthAdjust="spacing" textLength="74.4" x="1536.6" y="66.8086">&#171;domain&#187;</text><text fill="#000000" font-family="FG Virgil" font-size="16.8" lengthAdjust="spacing" textLength="80.4" x="1533.6" y="85.5773">Enrollment</text><rect fill="#E2E2F0" height="54.3375" rx="3" ry="3" style="stroke:#181818;stroke-width:0.6;" width="97.2" x="1525.2" y="1136.2688"/><text fill="#000000" font-family="FG Virgil" font-size="16.8" font-style="italic" lengthAdjust="spacing" textLength="74.4" x="1536.6" y="1159.8773">&#171;domain&#187;</text><text fill="#000000" font-family="FG Virgil" font-size="16.8" lengthAdjust="spacing" textLength="80.4" x="1533.6" y="1178.6461">Enrollment</text><text fill="#000000" font-family="FG Virgil" font-size="16.8" font-style="italic" lengthAdjust="spacing" textLength="94.8" x="1668" y="76.4086">&#171;repository&#187;</text><text fill="#000000" font-family="FG Virgil" font-size="16.8" lengthAdjust="spacing" textLength="162" x="1634.4" y="95.1773">EnrollmentRepository</text><path d="M1697.4,18 C1697.4,6 1719,6 1719,6 C1719,6 1740.6,6 1740.6,18 L1740.6,49.2 C1740.6,61.2 1719,61.2 1719,61.2 C1719,61.2 1697.4,61.2 1697.4,49.2 L1697.4,18 " fill="#E2E2F0" style="stroke:#181818;stroke-width:1.7999999999999998;"/><path d="M1697.4,18 C1697.4,30 1719,30 1719,30 C1719,30 1740.6,30 1740.6,18 " fill="none" style="stroke:#181818;stroke-width:1.7999999999999998;"/><text fill="#000000" font-family="FG Virgil" font-size="16.8" font-style="italic" lengthAdjust="spacing" textLength="94.8" x="1668" y="1151.4773">&#171;repository&#187;</text><text fill="#000000" font-family="FG Virgil" font-size="16.8" lengthAdjust="spacing" textLength="162" x="1634.4" y="1170.2461">EnrollmentRepository</text><path d="M1697.4,1185.8062 C1697.4,1173.8062 1719,1173.8062 1719,1173.8062 C1719,1173.8062 1740.6,1173.8062 1740.6,1185.8062 L1740.6,1217.0063 C1740.6,1229.0063 1719,1229.0063 1719,1229.0063 C1719,1229.0063 1697.4,1229.0063 1697.4,1217.0063 L1697.4,1185.8062 " fill="#E2E2F0" style="stroke:#181818;stroke-width:1.7999999999999998;"/><path d="M1697.4,1185.8062 C1697.4,1197.8062 1719,1197.8062 1719,1197.8062 C1719,1197.8062 1740.6,1197.8062 1740.6,1185.8062 " fill="none" style="stroke:#181818;stroke-width:1.7999999999999998;"/><rect fill="#FFFFFF" height="963.075" style="stroke:#181818;stroke-width:1.2;" width="12" x="272.4" y="152.7938"/><rect fill="#FFFFFF" height="894.6188" style="stroke:#181818;stroke-width:1.2;" width="12" x="579.6" y="221.25"/><rect fill="#FFFFFF" height="36" style="stroke:#181818;stroke-width:1.2;" width="12" x="1040.4" y="255.4781"/><rect fill="#FFFFFF" height="766.7344" style="stroke:#181818;stroke-width:1.2;" width="12" x="1264.2" y="359.9344"/><rect fill="#FFFFFF" height="34.2281" style="stroke:#181818;stroke-width:1.2;" width="12" x="1713" y="394.1625"/><rect fill="#FFFFFF" height="16.8" style="stroke:#181818;stroke-width:1.2;" width="12" x="1713" y="798.9"/><rect fill="#FFFFFF" height="16.8" style="stroke:#181818;stroke-width:1.2;" width="12" x="1713" y="1022.8406"/><polygon fill="#181818" points="258,147.9938,270,152.7938,258,157.5938,262.8,152.7938" style="stroke:#181818;stroke-width:1.2;"/><line style="stroke:#181818;stroke-width:1.2;stroke-dasharray:2.0,2.0;" x1="43.2" x2="265.2" y1="152.7938" y2="152.7938"/><text fill="#000000" font-family="FG Virgil" font-size="15.6" lengthAdjust="spacing" textLength="104.4" x="51.6" y="129.6598">Approve/Reject</text><text fill="#000000" font-family="FG Virgil" font-size="15.6" lengthAdjust="spacing" textLength="116.4" x="51.6" y="147.0879">Student Request</text><polygon fill="#181818" points="571.2,182.2219,583.2,187.0219,571.2,191.8219,576,187.0219" style="stroke:#181818;stroke-width:1.2;"/><line style="stroke:#181818;stroke-width:1.2;" x1="284.4" x2="578.4" y1="187.0219" y2="187.0219"/><text fill="#000000" font-family="FG Virgil" font-size="15.6" lengthAdjust="spacing" textLength="43.2" x="292.8" y="181.316">create</text><polygon fill="#181818" points="565.2,216.45,577.2,221.25,565.2,226.05,570,221.25" style="stroke:#181818;stroke-width:1.2;"/><line style="stroke:#181818;stroke-width:1.2;" x1="284.4" x2="572.4" y1="221.25" y2="221.25"/><text fill="#000000" font-family="FG Virgil" font-size="15.6" lengthAdjust="spacing" textLength="129.6" x="292.8" y="215.5441">pendingRequests()</text><polygon fill="#181818" points="1026,250.6781,1038,255.4781,1026,260.2781,1030.8,255.4781" style="stroke:#181818;stroke-width:1.2;"/><line style="stroke:#181818;stroke-width:1.2;" x1="591.6" x2="1033.2" y1="255.4781" y2="255.4781"/><text fill="#000000" font-family="FG Virgil" font-size="15.6" lengthAdjust="spacing" textLength="426" x="600" y="249.7723">ensureAuthenticatedUserHasAnyOf(ADMIN, POWER_USER)</text><polygon fill="#181818" points="1255.8,320.9063,1267.8,325.7063,1255.8,330.5062,1260.6,325.7063" style="stroke:#181818;stroke-width:1.2;"/><line style="stroke:#181818;stroke-width:1.2;stroke-dasharray:2.0,2.0;" x1="591.6" x2="1263" y1="325.7063" y2="325.7063"/><text fill="#000000" font-family="FG Virgil" font-size="15.6" lengthAdjust="spacing" textLength="43.2" x="600" y="320.0004">create</text><polygon fill="#181818" points="1249.8,355.1344,1261.8,359.9344,1249.8,364.7344,1254.6,359.9344" style="stroke:#181818;stroke-width:1.2;"/><line style="stroke:#181818;stroke-width:1.2;" x1="591.6" x2="1257" y1="359.9344" y2="359.9344"/><text fill="#000000" font-family="FG Virgil" font-size="15.6" lengthAdjust="spacing" textLength="129.6" x="600" y="354.2285">pendingRequests()</text><polygon fill="#181818" points="1698.6,389.3625,1710.6,394.1625,1698.6,398.9625,1703.4,394.1625" style="stroke:#181818;stroke-width:1.2;"/><line style="stroke:#181818;stroke-width:1.2;" x1="1276.2" x2="1705.8" y1="394.1625" y2="394.1625"/><text fill="#000000" font-family="FG Virgil" font-size="15.6" lengthAdjust="spacing" textLength="309.6" x="1284.6" y="388.4566">pendingRequests = findbyRequestedStatus()</text><polygon fill="#181818" points="1289.4,423.5906,1277.4,428.3906,1289.4,433.1906,1284.6,428.3906" style="stroke:#181818;stroke-width:1.2;"/><line style="stroke:#181818;stroke-width:1.2;stroke-dasharray:2.0,2.0;" x1="1282.2" x2="1717.8" y1="428.3906" y2="428.3906"/><text fill="#000000" font-family="FG Virgil" font-size="15.6" lengthAdjust="spacing" textLength="120" x="1296.6" y="422.6848">pendingRequests</text><polygon fill="#181818" points="604.8,457.8187,592.8,462.6188,604.8,467.4188,600,462.6188" style="stroke:#181818;stroke-width:1.2;"/><line style="stroke:#181818;stroke-width:1.2;stroke-dasharray:2.0,2.0;" x1="597.6" x2="1263" y1="462.6188" y2="462.6188"/><text fill="#000000" font-family="FG Virgil" font-size="15.6" lengthAdjust="spacing" textLength="128.4" x="612" y="456.9129">pendingRequestes</text><polygon fill="#181818" points="297.6,492.0469,285.6,496.8469,297.6,501.6469,292.8,496.8469" style="stroke:#181818;stroke-width:1.2;"/><line style="stroke:#181818;stroke-width:1.2;stroke-dasharray:2.0,2.0;" x1="290.4" x2="578.4" y1="496.8469" y2="496.8469"/><text fill="#000000" font-family="FG Virgil" font-size="15.6" lengthAdjust="spacing" textLength="120" x="304.8" y="491.141">pendingRequests</text><polygon fill="#181818" points="56.4,526.275,44.4,531.075,56.4,535.875,51.6,531.075" style="stroke:#181818;stroke-width:1.2;"/><line style="stroke:#181818;stroke-width:1.2;stroke-dasharray:2.0,2.0;" x1="49.2" x2="271.2" y1="531.075" y2="531.075"/><text fill="#000000" font-family="FG Virgil" font-size="15.6" lengthAdjust="spacing" textLength="200.4" x="63.6" y="525.3691">list pending student requests</text><polygon fill="#181818" points="258,560.5031,270,565.3031,258,570.1031,262.8,565.3031" style="stroke:#181818;stroke-width:1.2;"/><line style="stroke:#181818;stroke-width:1.2;stroke-dasharray:2.0,2.0;" x1="43.2" x2="265.2" y1="565.3031" y2="565.3031"/><text fill="#000000" font-family="FG Virgil" font-size="15.6" lengthAdjust="spacing" textLength="106.8" x="51.6" y="559.5973">selects request</text><polygon fill="#181818" points="56.4,594.7312,44.4,599.5313,56.4,604.3313,51.6,599.5313" style="stroke:#181818;stroke-width:1.2;"/><line style="stroke:#181818;stroke-width:1.2;stroke-dasharray:2.0,2.0;" x1="49.2" x2="271.2" y1="599.5313" y2="599.5313"/><text fill="#000000" font-family="FG Virgil" font-size="15.6" lengthAdjust="spacing" textLength="99.6" x="63.6" y="593.8254">shows options</text><polygon fill="#181818" points="258,628.9594,270,633.7594,258,638.5594,262.8,633.7594" style="stroke:#181818;stroke-width:1.2;"/><line style="stroke:#181818;stroke-width:1.2;stroke-dasharray:2.0,2.0;" x1="43.2" x2="265.2" y1="633.7594" y2="633.7594"/><text fill="#000000" font-family="FG Virgil" font-size="15.6" lengthAdjust="spacing" textLength="97.2" x="51.6" y="628.0535">selects action</text><path d="M133.8,651.7594 L207,651.7594 L207,659.5875 L195,671.5875 L133.8,671.5875 L133.8,651.7594 " fill="#EEEEEE" style="stroke:#000000;stroke-width:1.7999999999999998;"/><rect fill="none" height="207.1406" style="stroke:#000000;stroke-width:1.7999999999999998;" width="1681.8" x="133.8" y="651.7594"/><text fill="#000000" font-family="FG Virgil" font-size="15.6" font-weight="bold" lengthAdjust="spacing" textLength="19.2" x="151.8" y="667.0816">alt</text><text fill="#000000" font-family="FG Virgil" font-size="13.2" font-weight="bold" lengthAdjust="spacing" textLength="139.2" x="225" y="666.109">[if option == approve]</text><polygon fill="#181818" points="565.2,691.4156,577.2,696.2156,565.2,701.0156,570,696.2156" style="stroke:#181818;stroke-width:1.2;"/><line style="stroke:#181818;stroke-width:1.2;" x1="284.4" x2="572.4" y1="696.2156" y2="696.2156"/><text fill="#000000" font-family="FG Virgil" font-size="15.6" lengthAdjust="spacing" textLength="246" x="292.8" y="690.5098">approveStudentRequest(enrollment)</text><polygon fill="#181818" points="1249.8,725.6438,1261.8,730.4438,1249.8,735.2438,1254.6,730.4438" style="stroke:#181818;stroke-width:1.2;"/><line style="stroke:#181818;stroke-width:1.2;" x1="591.6" x2="1257" y1="730.4438" y2="730.4438"/><text fill="#000000" font-family="FG Virgil" font-size="15.6" lengthAdjust="spacing" textLength="192" x="600" y="724.7379">approveRequest(enrollment)</text><polygon fill="#181818" points="1559.4,759.8719,1571.4,764.6719,1559.4,769.4719,1564.2,764.6719" style="stroke:#181818;stroke-width:1.2;"/><line style="stroke:#181818;stroke-width:1.2;" x1="1276.2" x2="1566.6" y1="764.6719" y2="764.6719"/><text fill="#000000" font-family="FG Virgil" font-size="15.6" lengthAdjust="spacing" textLength="268.8" x="1284.6" y="758.966">accepted(CurrentTimeCalendars.now())</text><polygon fill="#181818" points="1698.6,794.1,1710.6,798.9,1698.6,803.7,1703.4,798.9" style="stroke:#181818;stroke-width:1.2;"/><line style="stroke:#181818;stroke-width:1.2;" x1="1276.2" x2="1705.8" y1="798.9" y2="798.9"/><text fill="#000000" font-family="FG Virgil" font-size="15.6" lengthAdjust="spacing" textLength="112.8" x="1284.6" y="793.1941">save(enrollment)</text><polygon fill="#181818" points="1289.4,810.9,1277.4,815.7,1289.4,820.5,1284.6,815.7" style="stroke:#181818;stroke-width:1.2;"/><line style="stroke:#181818;stroke-width:1.2;stroke-dasharray:2.0,2.0;" x1="1282.2" x2="1717.8" y1="815.7" y2="815.7"/><polygon fill="#181818" points="604.8,827.7,592.8,832.5,604.8,837.3,600,832.5" style="stroke:#181818;stroke-width:1.2;"/><line style="stroke:#181818;stroke-width:1.2;stroke-dasharray:2.0,2.0;" x1="597.6" x2="1263" y1="832.5" y2="832.5"/><polygon fill="#181818" points="297.6,844.5,285.6,849.3,297.6,854.1,292.8,849.3" style="stroke:#181818;stroke-width:1.2;"/><line style="stroke:#181818;stroke-width:1.2;stroke-dasharray:2.0,2.0;" x1="290.4" x2="578.4" y1="849.3" y2="849.3"/><path d="M133.8,875.7 L207,875.7 L207,883.5281 L195,895.5281 L133.8,895.5281 L133.8,875.7 " fill="#EEEEEE" style="stroke:#000000;stroke-width:1.7999999999999998;"/><rect fill="none" height="207.1406" style="stroke:#000000;stroke-width:1.7999999999999998;" width="1681.8" x="133.8" y="875.7"/><text fill="#000000" font-family="FG Virgil" font-size="15.6" font-weight="bold" lengthAdjust="spacing" textLength="19.2" x="151.8" y="891.0223">alt</text><text fill="#000000" font-family="FG Virgil" font-size="13.2" font-weight="bold" lengthAdjust="spacing" textLength="111.6" x="225" y="890.0496">[option == reject]</text><polygon fill="#181818" points="565.2,915.3562,577.2,920.1563,565.2,924.9563,570,920.1563" style="stroke:#181818;stroke-width:1.2;"/><line style="stroke:#181818;stroke-width:1.2;" x1="284.4" x2="572.4" y1="920.1563" y2="920.1563"/><text fill="#000000" font-family="FG Virgil" font-size="15.6" lengthAdjust="spacing" textLength="231.6" x="292.8" y="914.4504">rejectStudentRequest(enrollment)</text><polygon fill="#181818" points="1249.8,949.5844,1261.8,954.3844,1249.8,959.1844,1254.6,954.3844" style="stroke:#181818;stroke-width:1.2;"/><line style="stroke:#181818;stroke-width:1.2;" x1="591.6" x2="1257" y1="954.3844" y2="954.3844"/><text fill="#000000" font-family="FG Virgil" font-size="15.6" lengthAdjust="spacing" textLength="177.6" x="600" y="948.6785">rejectRequest(enrollment)</text><polygon fill="#181818" points="1559.4,983.8125,1571.4,988.6125,1559.4,993.4125,1564.2,988.6125" style="stroke:#181818;stroke-width:1.2;"/><line style="stroke:#181818;stroke-width:1.2;" x1="1276.2" x2="1566.6" y1="988.6125" y2="988.6125"/><text fill="#000000" font-family="FG Virgil" font-size="15.6" lengthAdjust="spacing" textLength="260.4" x="1284.6" y="982.9066">rejected(CurrentTimeCalendars.now())</text><polygon fill="#181818" points="1698.6,1018.0406,1710.6,1022.8406,1698.6,1027.6406,1703.4,1022.8406" style="stroke:#181818;stroke-width:1.2;"/><line style="stroke:#181818;stroke-width:1.2;" x1="1276.2" x2="1705.8" y1="1022.8406" y2="1022.8406"/><text fill="#000000" font-family="FG Virgil" font-size="15.6" lengthAdjust="spacing" textLength="112.8" x="1284.6" y="1017.1348">save(enrollment)</text><polygon fill="#181818" points="1289.4,1034.8406,1277.4,1039.6406,1289.4,1044.4406,1284.6,1039.6406" style="stroke:#181818;stroke-width:1.2;"/><line style="stroke:#181818;stroke-width:1.2;stroke-dasharray:2.0,2.0;" x1="1282.2" x2="1717.8" y1="1039.6406" y2="1039.6406"/><polygon fill="#181818" points="604.8,1051.6406,592.8,1056.4406,604.8,1061.2406,600,1056.4406" style="stroke:#181818;stroke-width:1.2;"/><line style="stroke:#181818;stroke-width:1.2;stroke-dasharray:2.0,2.0;" x1="597.6" x2="1263" y1="1056.4406" y2="1056.4406"/><polygon fill="#181818" points="297.6,1068.4406,285.6,1073.2406,297.6,1078.0406,292.8,1073.2406" style="stroke:#181818;stroke-width:1.2;"/><line style="stroke:#181818;stroke-width:1.2;stroke-dasharray:2.0,2.0;" x1="290.4" x2="578.4" y1="1073.2406" y2="1073.2406"/><polygon fill="#181818" points="56.4,1111.0688,44.4,1115.8687,56.4,1120.6688,51.6,1115.8687" style="stroke:#181818;stroke-width:1.2;"/><line style="stroke:#181818;stroke-width:1.2;stroke-dasharray:2.0,2.0;" x1="49.2" x2="277.2" y1="1115.8687" y2="1115.8687"/><text fill="#000000" font-family="FG Virgil" font-size="15.6" lengthAdjust="spacing" textLength="121.2" x="63.6" y="1110.1629">displays success</text><!--SRC=[ZLRBRjim4BphAtYh3JJntP0D66dI-f2aiElsKg3OIEkOZKIo96N3-VekzQIYXwr3479tPvSpGoQV3jQg-Moc4X0sIvFRIAOpyyQ50WtfxS6cIL0lsG54VDBSMXHi3ub1BwOWUeDNtDfpWanZPBrOZ7l84liWXNs25Dd3L_QJwrVkOvi3nFB4nMk9741afMQF80XLCp1ivJO2ohOyuehcPIkbj3pY1lzIlwtDOXHsW_yoD7QtTYNqCmoLHaC1i5oAvV9QW3iQLiiaANfxgp04fH8UzU9bzY0rVyzZMzH77Y5pzK21zz7IU-7mKngWEBBxhK8W0Cp3ssDq9KXJaw_2C9OfS9SVWuKNCEWbRr19mudTiolpLc6ewmML1a6k0RkvMHAryug-MS4V-orA2bd9eTEG7y4YPGUCFjA3IXiovopIIF5W8AfGn6I94ivCfdbUZTga5W3kyvGYi9ptEJ5XCerE7PhEKOVnpg3-1cObpi_xoUhBu_hfC_l-_Ej-ysUtlTzCQxowMGvLRySu4F3xqm2DRirPW_QCVahlWUjETMRTpNrDFO4rudN0s8BjkOXVpkK6nbkw55d5QkV03LGhxjdZPdpwLfb7s02mTuwM3Jh0s4R-m3Yvg3j9_bK5kpNbvKwUiuGRMsKpKzfNrsLLYUzxWZUOaE5DbUWXvpb5DgKTvCamgTnDDPUm73rID2qXiOplosgsM30eRbkhsGUUofJsIpPfte7fq3tnLOJgKUnMzrhEVsUeEefGaRScTvdMjFM3ftW72J4CsjmAUPfClIdQG9wrY1SuOc_pCQC6brpQGRdiowut_OVdOsR7ZJrOSLlbHcATFwHDHO_4kkTlrIXDmq8NKDTWZEXTW5pGUnplEjd7PBgezhZAbzKTLjMfEN3zOsxe_wgpOIQZIs6CzmHvytZTlDtT-Zy0]--></g></svg>