<?xml version="1.0" encoding="us-ascii" standalone="no"?><svg xmlns="http://www.w3.org/2000/svg" xmlns:xlink="http://www.w3.org/1999/xlink" contentStyleType="text/css" height="427px" preserveAspectRatio="none" style="width:348px;height:427px;background:#FFFFFF;" version="1.1" viewBox="0 0 348 427" width="348px" zoomAndPan="magnify"><defs/><g><rect fill="#FFFFFF" height="203.6641" style="stroke:#181818;stroke-width:1.0;" width="10" x="227" y="125.6875"/><rect fill="none" height="16.5234" style="stroke:#000000;stroke-width:1.5;" width="197" x="15" y="254.7813"/><rect fill="none" height="16.5234" style="stroke:#000000;stroke-width:1.5;" width="174" x="15" y="285.3047"/><line style="stroke:#181818;stroke-width:0.5;stroke-dasharray:5.0,5.0;" x1="36" x2="36" y1="80.6406" y2="347.3516"/><line style="stroke:#181818;stroke-width:0.5;stroke-dasharray:5.0,5.0;" x1="231.5" x2="231.5" y1="80.6406" y2="347.3516"/><text fill="#000000" font-family="FG Virgil" font-size="14" lengthAdjust="spacing" textLength="56" x="5" y="77.6738">Manager</text><ellipse cx="36" cy="13.5" fill="#E2E2F0" rx="8" ry="8" style="stroke:#181818;stroke-width:0.5;"/><path d="M36,21.5 L36,48.5 M23,29.5 L49,29.5 M36,48.5 L23,63.5 M36,48.5 L49,63.5 " fill="none" style="stroke:#181818;stroke-width:0.5;"/><text fill="#000000" font-family="FG Virgil" font-size="14" lengthAdjust="spacing" textLength="56" x="5" y="359.0254">Manager</text><ellipse cx="36" cy="370.4922" fill="#E2E2F0" rx="8" ry="8" style="stroke:#181818;stroke-width:0.5;"/><path d="M36,378.4922 L36,405.4922 M23,386.4922 L49,386.4922 M36,405.4922 L23,420.4922 M36,405.4922 L49,420.4922 " fill="none" style="stroke:#181818;stroke-width:0.5;"/><rect fill="#E2E2F0" height="45.2813" rx="2.5" ry="2.5" style="stroke:#181818;stroke-width:0.5;" width="221" x="121.5" y="34.3594"/><text fill="#000000" font-family="FG Virgil" font-size="14" font-style="italic" lengthAdjust="spacing" textLength="95" x="184.5" y="54.0332">&#171;presentation&#187;</text><text fill="#000000" font-family="FG Virgil" font-size="14" lengthAdjust="spacing" textLength="207" x="128.5" y="69.6738">ApproveRejectStudentRequestUI</text><rect fill="#E2E2F0" height="45.2813" rx="2.5" ry="2.5" style="stroke:#181818;stroke-width:0.5;" width="221" x="121.5" y="346.3516"/><text fill="#000000" font-family="FG Virgil" font-size="14" font-style="italic" lengthAdjust="spacing" textLength="95" x="184.5" y="366.0254">&#171;presentation&#187;</text><text fill="#000000" font-family="FG Virgil" font-size="14" lengthAdjust="spacing" textLength="207" x="128.5" y="381.666">ApproveRejectStudentRequestUI</text><rect fill="#FFFFFF" height="203.6641" style="stroke:#181818;stroke-width:1.0;" width="10" x="227" y="125.6875"/><polygon fill="#181818" points="215,121.6875,225,125.6875,215,129.6875,219,125.6875" style="stroke:#181818;stroke-width:1.0;"/><line style="stroke:#181818;stroke-width:1.0;stroke-dasharray:2.0,2.0;" x1="36" x2="221" y1="125.6875" y2="125.6875"/><text fill="#000000" font-family="FG Virgil" font-size="13" lengthAdjust="spacing" textLength="87" x="43" y="106.4092">Approve/Reject</text><text fill="#000000" font-family="FG Virgil" font-size="13" lengthAdjust="spacing" textLength="97" x="43" y="120.9326">Student Request</text><polygon fill="#181818" points="47,150.2109,37,154.2109,47,158.2109,43,154.2109" style="stroke:#181818;stroke-width:1.0;"/><line style="stroke:#181818;stroke-width:1.0;stroke-dasharray:2.0,2.0;" x1="41" x2="226" y1="154.2109" y2="154.2109"/><text fill="#000000" font-family="FG Virgil" font-size="13" lengthAdjust="spacing" textLength="167" x="53" y="149.4561">list pending student requests</text><polygon fill="#181818" points="215,178.7344,225,182.7344,215,186.7344,219,182.7344" style="stroke:#181818;stroke-width:1.0;"/><line style="stroke:#181818;stroke-width:1.0;stroke-dasharray:2.0,2.0;" x1="36" x2="221" y1="182.7344" y2="182.7344"/><text fill="#000000" font-family="FG Virgil" font-size="13" lengthAdjust="spacing" textLength="89" x="43" y="177.9795">selects request</text><polygon fill="#181818" points="47,207.2578,37,211.2578,47,215.2578,43,211.2578" style="stroke:#181818;stroke-width:1.0;"/><line style="stroke:#181818;stroke-width:1.0;stroke-dasharray:2.0,2.0;" x1="41" x2="226" y1="211.2578" y2="211.2578"/><text fill="#000000" font-family="FG Virgil" font-size="13" lengthAdjust="spacing" textLength="83" x="53" y="206.5029">shows options</text><polygon fill="#181818" points="215,235.7813,225,239.7813,215,243.7813,219,239.7813" style="stroke:#181818;stroke-width:1.0;"/><line style="stroke:#181818;stroke-width:1.0;stroke-dasharray:2.0,2.0;" x1="36" x2="221" y1="239.7813" y2="239.7813"/><text fill="#000000" font-family="FG Virgil" font-size="13" lengthAdjust="spacing" textLength="81" x="43" y="235.0264">selects action</text><path d="M15,254.7813 L76,254.7813 L76,261.3047 L66,271.3047 L15,271.3047 L15,254.7813 " fill="#EEEEEE" style="stroke:#000000;stroke-width:1.5;"/><rect fill="none" height="16.5234" style="stroke:#000000;stroke-width:1.5;" width="197" x="15" y="254.7813"/><text fill="#000000" font-family="FG Virgil" font-size="13" font-weight="bold" lengthAdjust="spacing" textLength="16" x="30" y="267.5498">alt</text><text fill="#000000" font-family="FG Virgil" font-size="11" font-weight="bold" lengthAdjust="spacing" textLength="116" x="91" y="266.7393">[if option == approve]</text><path d="M15,285.3047 L76,285.3047 L76,291.8281 L66,301.8281 L15,301.8281 L15,285.3047 " fill="#EEEEEE" style="stroke:#000000;stroke-width:1.5;"/><rect fill="none" height="16.5234" style="stroke:#000000;stroke-width:1.5;" width="174" x="15" y="285.3047"/><text fill="#000000" font-family="FG Virgil" font-size="13" font-weight="bold" lengthAdjust="spacing" textLength="16" x="30" y="298.0732">alt</text><text fill="#000000" font-family="FG Virgil" font-size="11" font-weight="bold" lengthAdjust="spacing" textLength="93" x="91" y="297.2627">[option == reject]</text><polygon fill="#181818" points="47,325.3516,37,329.3516,47,333.3516,43,329.3516" style="stroke:#181818;stroke-width:1.0;"/><line style="stroke:#181818;stroke-width:1.0;stroke-dasharray:2.0,2.0;" x1="41" x2="231" y1="329.3516" y2="329.3516"/><text fill="#000000" font-family="FG Virgil" font-size="13" lengthAdjust="spacing" textLength="101" x="53" y="324.5967">displays success</text><!--SRC=[XP8nRy8m48Lt_uhREa7s291Og1ZQ0KIdBYVx86uTs_LTGFpxsabeqg6gXqZ9U- -xTrQU6f5OLrLqwALhtLA7jk9FwoCcR9UDj4xzl4A3tjoI5I4FPtHCCosY_iGB7UNk219fcMc6pjWvsGKlhzWIx9xXpQQBdREvGHDkrbz6ia8j8S4B-anDW0pRya5bjrXjO-uBsnXJkDA1FlAyetI6l1pegoEMqxv4ydErYeau2oWs-Cr6gPu3YyKco_M3KGqGUFSZ1qPGwM6lA9JTIYaOpscV0Jsf1cTP898tfJsFyJJ4UOhCvq8DJ2uFv8TnHkuzWplRcd1Z2B6qv_zOfMlmqqXq0lOyfc6z1XosdItoEBd-xzmKIltLJ6gn_j7MMCw_qfs1Ews9y_RAqEm6lm40]--></g></svg>