<?xml version="1.0" encoding="us-ascii" standalone="no"?><svg xmlns="http://www.w3.org/2000/svg" xmlns:xlink="http://www.w3.org/1999/xlink" contentStyleType="text/css" height="924px" preserveAspectRatio="none" style="width:1395px;height:924px;background:#FFFFFF;" version="1.1" viewBox="0 0 1395 924" width="1395px" zoomAndPan="magnify"><defs/><g><!--cluster presentation--><g id="cluster_presentation"><path d="M15.5,6 L121.5,6 A3.75,3.75 0 0 1 124,8.5 L131,28.2969 L360.5,28.2969 A2.5,2.5 0 0 1 363,30.7969 L363,143.5 A2.5,2.5 0 0 1 360.5,146 L15.5,146 A2.5,2.5 0 0 1 13,143.5 L13,8.5 A2.5,2.5 0 0 1 15.5,6 " fill="#DDDDDD" style="stroke:#000000;stroke-width:1.5;"/><line style="stroke:#000000;stroke-width:1.5;" x1="13" x2="131" y1="28.2969" y2="28.2969"/><text fill="#000000" font-family="sans-serif" font-size="14" font-weight="bold" lengthAdjust="spacing" textLength="105" x="17" y="20.9951">presentation</text></g><!--cluster domain--><g id="cluster_domain"><path d="M588.5,368 L649.5,368 A3.75,3.75 0 0 1 652,370.5 L659,390.2969 L1385.5,390.2969 A2.5,2.5 0 0 1 1388,392.7969 L1388,914.5 A2.5,2.5 0 0 1 1385.5,917 L588.5,917 A2.5,2.5 0 0 1 586,914.5 L586,370.5 A2.5,2.5 0 0 1 588.5,368 " fill="#DBD8AE" style="stroke:#000000;stroke-width:1.5;"/><line style="stroke:#000000;stroke-width:1.5;" x1="586" x2="659" y1="390.2969" y2="390.2969"/><text fill="#000000" font-family="sans-serif" font-size="14" font-weight="bold" lengthAdjust="spacing" textLength="60" x="590" y="382.9951">domain</text></g><!--cluster persistence--><g id="cluster_persistence"><path d="M43.5,649 L138.5,649 A3.75,3.75 0 0 1 141,651.5 L148,671.2969 L336.5,671.2969 A2.5,2.5 0 0 1 339,673.7969 L339,778.5 A2.5,2.5 0 0 1 336.5,781 L43.5,781 A2.5,2.5 0 0 1 41,778.5 L41,651.5 A2.5,2.5 0 0 1 43.5,649 " fill="#DBD8AE" style="stroke:#000000;stroke-width:1.5;"/><line style="stroke:#000000;stroke-width:1.5;" x1="41" x2="148" y1="671.2969" y2="671.2969"/><text fill="#000000" font-family="sans-serif" font-size="14" font-weight="bold" lengthAdjust="spacing" textLength="94" x="45" y="663.9951">persistence</text></g><!--cluster application--><g id="cluster_application"><path d="M8.5,170 L101.5,170 A3.75,3.75 0 0 1 104,172.5 L111,192.2969 L367.5,192.2969 A2.5,2.5 0 0 1 370,194.7969 L370,569.5 A2.5,2.5 0 0 1 367.5,572 L8.5,572 A2.5,2.5 0 0 1 6,569.5 L6,172.5 A2.5,2.5 0 0 1 8.5,170 " fill="#EAF4D3" style="stroke:#000000;stroke-width:1.5;"/><line style="stroke:#000000;stroke-width:1.5;" x1="6" x2="111" y1="192.2969" y2="192.2969"/><text fill="#000000" font-family="sans-serif" font-size="14" font-weight="bold" lengthAdjust="spacing" textLength="92" x="10" y="184.9951">application</text></g><!--class CancelMeetingUI--><g id="elem_CancelMeetingUI"><rect codeLine="4" fill="#F1F1F1" height="88.8594" id="CancelMeetingUI" rx="2.5" ry="2.5" style="stroke:#181818;stroke-width:0.5;" width="317" x="29.5" y="41"/><ellipse cx="123.75" cy="61.1328" fill="#ADD1B2" rx="11" ry="11" style="stroke:#181818;stroke-width:1.0;"/><path d="M126.0938,56.8047 C125.1563,56.3672 124.5625,56.2266 123.6875,56.2266 C121.0625,56.2266 119.0625,58.3047 119.0625,61.0234 L119.0625,62.1484 C119.0625,64.7266 121.1719,66.6172 124.0625,66.6172 C125.2813,66.6172 126.4375,66.3203 127.1875,65.7734 C127.7656,65.3672 128.0938,64.9141 128.0938,64.5234 C128.0938,64.0703 127.7031,63.6797 127.2344,63.6797 C127.0156,63.6797 126.8125,63.7578 126.625,63.9453 C126.1719,64.4297 126.1719,64.4297 125.9844,64.5234 C125.5625,64.7891 124.875,64.9141 124.1094,64.9141 C122.0625,64.9141 120.7656,63.8203 120.7656,62.1172 L120.7656,61.0234 C120.7656,59.2422 122.0156,57.9297 123.75,57.9297 C124.3281,57.9297 124.9375,58.0859 125.4063,58.3359 C125.8906,58.6172 126.0625,58.8359 126.1563,59.2422 C126.2188,59.6484 126.25,59.7734 126.3906,59.8984 C126.5313,60.0391 126.7656,60.1484 126.9844,60.1484 C127.25,60.1484 127.5156,60.0078 127.6875,59.7891 C127.7969,59.6328 127.8281,59.4453 127.8281,59.0234 L127.8281,57.6016 C127.8281,57.1641 127.8125,57.0391 127.7188,56.8828 C127.5625,56.6172 127.2813,56.4766 126.9844,56.4766 C126.6875,56.4766 126.4844,56.5703 126.2656,56.8828 L126.0938,56.8047 Z " fill="#000000"/><text fill="#000000" font-family="sans-serif" font-size="12" font-style="italic" lengthAdjust="spacing" textLength="25" x="191.75" y="57.1387">&#171;ui&#187;</text><text fill="#000000" font-family="sans-serif" font-size="14" lengthAdjust="spacing" textLength="120" x="144.25" y="72.9639">CancelMeetingUI</text><line style="stroke:#181818;stroke-width:0.5;" x1="30.5" x2="345.5" y1="81.2656" y2="81.2656"/><rect fill="none" height="6" style="stroke:#C82930;stroke-width:1.0;" width="6" x="37.5" y="91.9141"/><text fill="#000000" font-family="sans-serif" font-size="14" lengthAdjust="spacing" textLength="291" x="49.5" y="98.2607">theController : CancelMeetingController</text><line style="stroke:#181818;stroke-width:0.5;" x1="30.5" x2="345.5" y1="105.5625" y2="105.5625"/><ellipse cx="40.5" cy="119.2109" fill="#84BE84" rx="3" ry="3" style="stroke:#038048;stroke-width:1.0;"/><text fill="#000000" font-family="sans-serif" font-size="14" lengthAdjust="spacing" textLength="66" x="49.5" y="122.5576">doShow()</text></g><!--class Meeting--><g id="elem_Meeting"><rect codeLine="14" fill="#F1F1F1" height="200.6094" id="Meeting" rx="2.5" ry="2.5" style="stroke:#181818;stroke-width:0.5;" width="333" x="777.5" y="403"/><ellipse cx="889.75" cy="430.1172" fill="#ADD1B2" rx="11" ry="11" style="stroke:#181818;stroke-width:1.0;"/><path d="M892.0938,425.7891 C891.1563,425.3516 890.5625,425.2109 889.6875,425.2109 C887.0625,425.2109 885.0625,427.2891 885.0625,430.0078 L885.0625,431.1328 C885.0625,433.7109 887.1719,435.6016 890.0625,435.6016 C891.2813,435.6016 892.4375,435.3047 893.1875,434.7578 C893.7656,434.3516 894.0938,433.8984 894.0938,433.5078 C894.0938,433.0547 893.7031,432.6641 893.2344,432.6641 C893.0156,432.6641 892.8125,432.7422 892.625,432.9297 C892.1719,433.4141 892.1719,433.4141 891.9844,433.5078 C891.5625,433.7734 890.875,433.8984 890.1094,433.8984 C888.0625,433.8984 886.7656,432.8047 886.7656,431.1016 L886.7656,430.0078 C886.7656,428.2266 888.0156,426.9141 889.75,426.9141 C890.3281,426.9141 890.9375,427.0703 891.4063,427.3203 C891.8906,427.6016 892.0625,427.8203 892.1563,428.2266 C892.2188,428.6328 892.25,428.7578 892.3906,428.8828 C892.5313,429.0234 892.7656,429.1328 892.9844,429.1328 C893.25,429.1328 893.5156,428.9922 893.6875,428.7734 C893.7969,428.6172 893.8281,428.4297 893.8281,428.0078 L893.8281,426.5859 C893.8281,426.1484 893.8125,426.0234 893.7188,425.8672 C893.5625,425.6016 893.2813,425.4609 892.9844,425.4609 C892.6875,425.4609 892.4844,425.5547 892.2656,425.8672 L892.0938,425.7891 Z " fill="#000000"/><text fill="#000000" font-family="sans-serif" font-size="12" font-style="italic" lengthAdjust="spacing" textLength="104" x="908.25" y="419.1387">&#171;aggregate root&#187;</text><text fill="#000000" font-family="sans-serif" font-size="12" font-style="italic" lengthAdjust="spacing" textLength="49" x="935.75" y="433.1074">&#171;entity&#187;</text><text fill="#000000" font-family="sans-serif" font-size="14" lengthAdjust="spacing" textLength="59" x="930.75" y="448.9326">Meeting</text><line style="stroke:#181818;stroke-width:0.5;" x1="778.5" x2="1109.5" y1="457.2344" y2="457.2344"/><rect fill="none" height="6" style="stroke:#C82930;stroke-width:1.0;" width="6" x="785.5" y="467.8828"/><text fill="#000000" font-family="sans-serif" font-size="14" lengthAdjust="spacing" textLength="223" x="797.5" y="474.2295">meetingToken : MeetingToken</text><rect fill="none" height="6" style="stroke:#C82930;stroke-width:1.0;" width="6" x="785.5" y="484.1797"/><text fill="#000000" font-family="sans-serif" font-size="14" lengthAdjust="spacing" textLength="194" x="797.5" y="490.5264">duration : MeetingDuration</text><rect fill="none" height="6" style="stroke:#C82930;stroke-width:1.0;" width="6" x="785.5" y="500.4766"/><text fill="#000000" font-family="sans-serif" font-size="14" lengthAdjust="spacing" textLength="109" x="797.5" y="506.8232">date : Calendar</text><rect fill="none" height="6" style="stroke:#C82930;stroke-width:1.0;" width="6" x="785.5" y="516.7734"/><text fill="#000000" font-family="sans-serif" font-size="14" lengthAdjust="spacing" textLength="142" x="797.5" y="523.1201">owner : SystemUser</text><rect fill="none" height="6" style="stroke:#C82930;stroke-width:1.0;" width="6" x="785.5" y="533.0703"/><text fill="#000000" font-family="sans-serif" font-size="14" lengthAdjust="spacing" textLength="225" x="797.5" y="539.417">meetingStatus : MeetingStatus</text><rect fill="none" height="6" style="stroke:#C82930;stroke-width:1.0;" width="6" x="785.5" y="549.3672"/><text fill="#000000" font-family="sans-serif" font-size="14" lengthAdjust="spacing" textLength="307" x="797.5" y="555.7139">participantList : List&lt;MeetingParticipant&gt;</text><rect fill="none" height="6" style="stroke:#C82930;stroke-width:1.0;" width="6" x="785.5" y="565.6641"/><text fill="#000000" font-family="sans-serif" font-size="14" lengthAdjust="spacing" textLength="61" x="797.5" y="572.0107">id : Long</text><line style="stroke:#181818;stroke-width:0.5;" x1="778.5" x2="1109.5" y1="579.3125" y2="579.3125"/><ellipse cx="788.5" cy="592.9609" fill="#84BE84" rx="3" ry="3" style="stroke:#038048;stroke-width:1.0;"/><text fill="#000000" font-family="sans-serif" font-size="14" lengthAdjust="spacing" textLength="302" x="797.5" y="596.3076">init(owner ,duration, date, participantList)</text></g><!--class MeetingParticipant--><g id="elem_MeetingParticipant"><rect codeLine="25" fill="#F1F1F1" height="121.4531" id="MeetingParticipant" rx="2.5" ry="2.5" style="stroke:#181818;stroke-width:0.5;" width="238" x="602" y="664"/><ellipse cx="647.25" cy="684.1328" fill="#ADD1B2" rx="11" ry="11" style="stroke:#181818;stroke-width:1.0;"/><path d="M649.5938,679.8047 C648.6563,679.3672 648.0625,679.2266 647.1875,679.2266 C644.5625,679.2266 642.5625,681.3047 642.5625,684.0234 L642.5625,685.1484 C642.5625,687.7266 644.6719,689.6172 647.5625,689.6172 C648.7813,689.6172 649.9375,689.3203 650.6875,688.7734 C651.2656,688.3672 651.5938,687.9141 651.5938,687.5234 C651.5938,687.0703 651.2031,686.6797 650.7344,686.6797 C650.5156,686.6797 650.3125,686.7578 650.125,686.9453 C649.6719,687.4297 649.6719,687.4297 649.4844,687.5234 C649.0625,687.7891 648.375,687.9141 647.6094,687.9141 C645.5625,687.9141 644.2656,686.8203 644.2656,685.1172 L644.2656,684.0234 C644.2656,682.2422 645.5156,680.9297 647.25,680.9297 C647.8281,680.9297 648.4375,681.0859 648.9063,681.3359 C649.3906,681.6172 649.5625,681.8359 649.6563,682.2422 C649.7188,682.6484 649.75,682.7734 649.8906,682.8984 C650.0313,683.0391 650.2656,683.1484 650.4844,683.1484 C650.75,683.1484 651.0156,683.0078 651.1875,682.7891 C651.2969,682.6328 651.3281,682.4453 651.3281,682.0234 L651.3281,680.6016 C651.3281,680.1641 651.3125,680.0391 651.2188,679.8828 C651.0625,679.6172 650.7813,679.4766 650.4844,679.4766 C650.1875,679.4766 649.9844,679.5703 649.7656,679.8828 L649.5938,679.8047 Z " fill="#000000"/><text fill="#000000" font-family="sans-serif" font-size="12" font-style="italic" lengthAdjust="spacing" textLength="49" x="712.75" y="680.1387">&#171;entity&#187;</text><text fill="#000000" font-family="sans-serif" font-size="14" lengthAdjust="spacing" textLength="139" x="667.75" y="695.9639">MeetingParticipant</text><line style="stroke:#181818;stroke-width:0.5;" x1="603" x2="839" y1="704.2656" y2="704.2656"/><rect fill="none" height="6" style="stroke:#C82930;stroke-width:1.0;" width="6" x="610" y="714.9141"/><text fill="#000000" font-family="sans-serif" font-size="14" lengthAdjust="spacing" textLength="187" x="622" y="721.2607">inviteStatus : InviteStatus</text><rect fill="none" height="6" style="stroke:#C82930;stroke-width:1.0;" width="6" x="610" y="731.2109"/><text fill="#000000" font-family="sans-serif" font-size="14" lengthAdjust="spacing" textLength="61" x="622" y="737.5576">id : Long</text><rect fill="none" height="6" style="stroke:#C82930;stroke-width:1.0;" width="6" x="610" y="747.5078"/><text fill="#000000" font-family="sans-serif" font-size="14" lengthAdjust="spacing" textLength="181" x="622" y="753.8545">systemUser : SystemUser</text><line style="stroke:#181818;stroke-width:0.5;" x1="603" x2="839" y1="761.1563" y2="761.1563"/><ellipse cx="613" cy="774.8047" fill="#84BE84" rx="3" ry="3" style="stroke:#038048;stroke-width:1.0;"/><text fill="#000000" font-family="sans-serif" font-size="14" lengthAdjust="spacing" textLength="212" x="622" y="778.1514">init(systemUser, inviteStatus)</text></g><!--class MeetingStatus--><g id="elem_MeetingStatus"><rect codeLine="32" fill="#F1F1F1" height="56.2656" id="MeetingStatus" rx="2.5" ry="2.5" style="stroke:#181818;stroke-width:0.5;" width="137" x="875.5" y="696.5"/><ellipse cx="890.5" cy="716.6328" fill="#EB937F" rx="11" ry="11" style="stroke:#181818;stroke-width:1.0;"/><path d="M889.2969,717.5078 L890.75,717.5078 L890.75,717.6172 C890.75,718.0234 890.7813,718.1797 890.8594,718.3359 C891.0156,718.5859 891.2969,718.7422 891.5938,718.7422 C891.8438,718.7422 892.1094,718.6016 892.2656,718.3828 C892.3906,718.2266 892.4219,718.0703 892.4219,717.6172 L892.4219,715.6953 C892.4219,715.5391 892.4219,715.4922 892.4063,715.3359 C892.3438,714.8672 892.0313,714.5547 891.5781,714.5547 C891.3281,714.5547 891.0625,714.6953 890.8906,714.9141 C890.7813,715.0859 890.75,715.2422 890.75,715.6953 L890.75,715.8203 L889.2969,715.8203 L889.2969,713.4141 L893.2813,713.4141 L893.2813,714.2734 C893.2813,714.6797 893.3125,714.8516 893.3906,715.0078 C893.5625,715.2578 893.8438,715.4141 894.125,715.4141 C894.3906,715.4141 894.6563,715.2734 894.8281,715.0547 C894.9375,714.8828 894.9688,714.7422 894.9688,714.2734 L894.9688,711.7266 L887.3438,711.7266 C886.9063,711.7266 886.7813,711.7422 886.625,711.8359 C886.375,711.9922 886.2188,712.2891 886.2188,712.5703 C886.2188,712.8516 886.3594,713.1016 886.5781,713.2734 C886.7344,713.3828 886.9219,713.4141 887.3438,713.4141 L887.5938,713.4141 L887.5938,719.9297 L887.3438,719.9297 C886.9375,719.9297 886.7813,719.9453 886.625,720.0547 C886.375,720.2266 886.2188,720.4922 886.2188,720.7891 C886.2188,721.0547 886.3594,721.3047 886.5781,721.4609 C886.7188,721.5859 886.9531,721.6328 887.3438,721.6328 L895.3438,721.6328 L895.3438,719.0547 C895.3438,718.6172 895.3125,718.4766 895.2344,718.3203 C895.0625,718.0703 894.7813,717.9141 894.5,717.9141 C894.2344,717.9141 893.9688,718.0234 893.7969,718.2734 C893.6875,718.4297 893.6563,718.5703 893.6563,719.0547 L893.6563,719.9297 L889.2969,719.9297 L889.2969,717.5078 Z " fill="#000000"/><text fill="#000000" font-family="sans-serif" font-size="12" font-style="italic" lengthAdjust="spacing" textLength="85" x="914.5" y="712.6387">&#171;valueObject&#187;</text><text fill="#000000" font-family="sans-serif" font-size="14" lengthAdjust="spacing" textLength="105" x="904.5" y="728.4639">MeetingStatus</text><line style="stroke:#181818;stroke-width:0.5;" x1="876.5" x2="1011.5" y1="736.7656" y2="736.7656"/><line style="stroke:#181818;stroke-width:0.5;" x1="876.5" x2="1011.5" y1="744.7656" y2="744.7656"/></g><!--class InviteStatus--><g id="elem_InviteStatus"><rect codeLine="36" fill="#F1F1F1" height="56.2656" id="InviteStatus" rx="2.5" ry="2.5" style="stroke:#181818;stroke-width:0.5;" width="119" x="661.5" y="845"/><ellipse cx="676.5" cy="865.1328" fill="#EB937F" rx="11" ry="11" style="stroke:#181818;stroke-width:1.0;"/><path d="M675.2969,866.0078 L676.75,866.0078 L676.75,866.1172 C676.75,866.5234 676.7813,866.6797 676.8594,866.8359 C677.0156,867.0859 677.2969,867.2422 677.5938,867.2422 C677.8438,867.2422 678.1094,867.1016 678.2656,866.8828 C678.3906,866.7266 678.4219,866.5703 678.4219,866.1172 L678.4219,864.1953 C678.4219,864.0391 678.4219,863.9922 678.4063,863.8359 C678.3438,863.3672 678.0313,863.0547 677.5781,863.0547 C677.3281,863.0547 677.0625,863.1953 676.8906,863.4141 C676.7813,863.5859 676.75,863.7422 676.75,864.1953 L676.75,864.3203 L675.2969,864.3203 L675.2969,861.9141 L679.2813,861.9141 L679.2813,862.7734 C679.2813,863.1797 679.3125,863.3516 679.3906,863.5078 C679.5625,863.7578 679.8438,863.9141 680.125,863.9141 C680.3906,863.9141 680.6563,863.7734 680.8281,863.5547 C680.9375,863.3828 680.9688,863.2422 680.9688,862.7734 L680.9688,860.2266 L673.3438,860.2266 C672.9063,860.2266 672.7813,860.2422 672.625,860.3359 C672.375,860.4922 672.2188,860.7891 672.2188,861.0703 C672.2188,861.3516 672.3594,861.6016 672.5781,861.7734 C672.7344,861.8828 672.9219,861.9141 673.3438,861.9141 L673.5938,861.9141 L673.5938,868.4297 L673.3438,868.4297 C672.9375,868.4297 672.7813,868.4453 672.625,868.5547 C672.375,868.7266 672.2188,868.9922 672.2188,869.2891 C672.2188,869.5547 672.3594,869.8047 672.5781,869.9609 C672.7188,870.0859 672.9531,870.1328 673.3438,870.1328 L681.3438,870.1328 L681.3438,867.5547 C681.3438,867.1172 681.3125,866.9766 681.2344,866.8203 C681.0625,866.5703 680.7813,866.4141 680.5,866.4141 C680.2344,866.4141 679.9688,866.5234 679.7969,866.7734 C679.6875,866.9297 679.6563,867.0703 679.6563,867.5547 L679.6563,868.4297 L675.2969,868.4297 L675.2969,866.0078 Z " fill="#000000"/><text fill="#000000" font-family="sans-serif" font-size="12" font-style="italic" lengthAdjust="spacing" textLength="85" x="691.5" y="861.1387">&#171;valueObject&#187;</text><text fill="#000000" font-family="sans-serif" font-size="14" lengthAdjust="spacing" textLength="87" x="690.5" y="876.9639">InviteStatus</text><line style="stroke:#181818;stroke-width:0.5;" x1="662.5" x2="779.5" y1="885.2656" y2="885.2656"/><line style="stroke:#181818;stroke-width:0.5;" x1="662.5" x2="779.5" y1="893.2656" y2="893.2656"/></g><!--class MeetingDuration--><g id="elem_MeetingDuration"><rect codeLine="40" fill="#F1F1F1" height="56.2656" id="MeetingDuration" rx="2.5" ry="2.5" style="stroke:#181818;stroke-width:0.5;" width="153" x="1047.5" y="696.5"/><ellipse cx="1062.5" cy="716.6328" fill="#ADD1B2" rx="11" ry="11" style="stroke:#181818;stroke-width:1.0;"/><path d="M1064.8438,712.3047 C1063.9063,711.8672 1063.3125,711.7266 1062.4375,711.7266 C1059.8125,711.7266 1057.8125,713.8047 1057.8125,716.5234 L1057.8125,717.6484 C1057.8125,720.2266 1059.9219,722.1172 1062.8125,722.1172 C1064.0313,722.1172 1065.1875,721.8203 1065.9375,721.2734 C1066.5156,720.8672 1066.8438,720.4141 1066.8438,720.0234 C1066.8438,719.5703 1066.4531,719.1797 1065.9844,719.1797 C1065.7656,719.1797 1065.5625,719.2578 1065.375,719.4453 C1064.9219,719.9297 1064.9219,719.9297 1064.7344,720.0234 C1064.3125,720.2891 1063.625,720.4141 1062.8594,720.4141 C1060.8125,720.4141 1059.5156,719.3203 1059.5156,717.6172 L1059.5156,716.5234 C1059.5156,714.7422 1060.7656,713.4297 1062.5,713.4297 C1063.0781,713.4297 1063.6875,713.5859 1064.1563,713.8359 C1064.6406,714.1172 1064.8125,714.3359 1064.9063,714.7422 C1064.9688,715.1484 1065,715.2734 1065.1406,715.3984 C1065.2813,715.5391 1065.5156,715.6484 1065.7344,715.6484 C1066,715.6484 1066.2656,715.5078 1066.4375,715.2891 C1066.5469,715.1328 1066.5781,714.9453 1066.5781,714.5234 L1066.5781,713.1016 C1066.5781,712.6641 1066.5625,712.5391 1066.4688,712.3828 C1066.3125,712.1172 1066.0313,711.9766 1065.7344,711.9766 C1065.4375,711.9766 1065.2344,712.0703 1065.0156,712.3828 L1064.8438,712.3047 Z " fill="#000000"/><text fill="#000000" font-family="sans-serif" font-size="12" font-style="italic" lengthAdjust="spacing" textLength="85" x="1094.5" y="712.6387">&#171;valueObject&#187;</text><text fill="#000000" font-family="sans-serif" font-size="14" lengthAdjust="spacing" textLength="121" x="1076.5" y="728.4639">MeetingDuration</text><line style="stroke:#181818;stroke-width:0.5;" x1="1048.5" x2="1199.5" y1="736.7656" y2="736.7656"/><line style="stroke:#181818;stroke-width:0.5;" x1="1048.5" x2="1199.5" y1="744.7656" y2="744.7656"/></g><!--class MeetingToken--><g id="elem_MeetingToken"><rect codeLine="44" fill="#F1F1F1" height="56.2656" id="MeetingToken" rx="2.5" ry="2.5" style="stroke:#181818;stroke-width:0.5;" width="136" x="1236" y="696.5"/><ellipse cx="1251" cy="716.6328" fill="#ADD1B2" rx="11" ry="11" style="stroke:#181818;stroke-width:1.0;"/><path d="M1253.3438,712.3047 C1252.4063,711.8672 1251.8125,711.7266 1250.9375,711.7266 C1248.3125,711.7266 1246.3125,713.8047 1246.3125,716.5234 L1246.3125,717.6484 C1246.3125,720.2266 1248.4219,722.1172 1251.3125,722.1172 C1252.5313,722.1172 1253.6875,721.8203 1254.4375,721.2734 C1255.0156,720.8672 1255.3438,720.4141 1255.3438,720.0234 C1255.3438,719.5703 1254.9531,719.1797 1254.4844,719.1797 C1254.2656,719.1797 1254.0625,719.2578 1253.875,719.4453 C1253.4219,719.9297 1253.4219,719.9297 1253.2344,720.0234 C1252.8125,720.2891 1252.125,720.4141 1251.3594,720.4141 C1249.3125,720.4141 1248.0156,719.3203 1248.0156,717.6172 L1248.0156,716.5234 C1248.0156,714.7422 1249.2656,713.4297 1251,713.4297 C1251.5781,713.4297 1252.1875,713.5859 1252.6563,713.8359 C1253.1406,714.1172 1253.3125,714.3359 1253.4063,714.7422 C1253.4688,715.1484 1253.5,715.2734 1253.6406,715.3984 C1253.7813,715.5391 1254.0156,715.6484 1254.2344,715.6484 C1254.5,715.6484 1254.7656,715.5078 1254.9375,715.2891 C1255.0469,715.1328 1255.0781,714.9453 1255.0781,714.5234 L1255.0781,713.1016 C1255.0781,712.6641 1255.0625,712.5391 1254.9688,712.3828 C1254.8125,712.1172 1254.5313,711.9766 1254.2344,711.9766 C1253.9375,711.9766 1253.7344,712.0703 1253.5156,712.3828 L1253.3438,712.3047 Z " fill="#000000"/><text fill="#000000" font-family="sans-serif" font-size="12" font-style="italic" lengthAdjust="spacing" textLength="85" x="1274.5" y="712.6387">&#171;valueObject&#187;</text><text fill="#000000" font-family="sans-serif" font-size="14" lengthAdjust="spacing" textLength="104" x="1265" y="728.4639">MeetingToken</text><line style="stroke:#181818;stroke-width:0.5;" x1="1237" x2="1371" y1="736.7656" y2="736.7656"/><line style="stroke:#181818;stroke-width:0.5;" x1="1237" x2="1371" y1="744.7656" y2="744.7656"/></g><!--class MeetingRepository--><g id="elem_MeetingRepository"><rect codeLine="50" fill="#F1F1F1" height="80.5938" id="MeetingRepository" rx="2.5" ry="2.5" style="stroke:#181818;stroke-width:0.5;" width="265" x="57.5" y="684"/><ellipse cx="119.25" cy="700" fill="#B4A7E5" rx="11" ry="11" style="stroke:#181818;stroke-width:1.0;"/><path d="M120.2031,696.7813 L121.9219,696.7813 C122.3125,696.7813 122.5,696.75 122.625,696.6719 C122.8906,696.5156 123.0313,696.2344 123.0313,695.9375 C123.0313,695.6719 122.9219,695.4063 122.6875,695.2344 C122.5156,695.125 122.375,695.0938 121.9219,695.0938 L116.7813,695.0938 C116.3438,695.0938 116.2188,695.1094 116.0625,695.2031 C115.8125,695.3594 115.6563,695.6563 115.6563,695.9375 C115.6563,696.2188 115.7969,696.4688 116.0156,696.6406 C116.1719,696.75 116.3594,696.7813 116.7813,696.7813 L118.5,696.7813 L118.5,703.2969 L116.7813,703.2969 C116.3438,703.2969 116.2188,703.3125 116.0625,703.4219 C115.8125,703.5781 115.6563,703.8594 115.6563,704.1563 C115.6563,704.4063 115.7969,704.6719 116.0156,704.8281 C116.1719,704.9531 116.375,705 116.7813,705 L121.9219,705 C122.6719,705 123.0313,704.7188 123.0313,704.1563 C123.0313,703.875 122.9219,703.625 122.6875,703.4531 C122.5156,703.3281 122.375,703.2969 121.9219,703.2969 L120.2031,703.2969 L120.2031,696.7813 Z " fill="#000000"/><text fill="#000000" font-family="sans-serif" font-size="14" font-style="italic" lengthAdjust="spacing" textLength="133" x="139.75" y="704.8467">MeetingRepository</text><line style="stroke:#181818;stroke-width:0.5;" x1="58.5" x2="321.5" y1="716" y2="716"/><line style="stroke:#181818;stroke-width:0.5;" x1="58.5" x2="321.5" y1="724" y2="724"/><ellipse cx="68.5" cy="737.6484" fill="#84BE84" rx="3" ry="3" style="stroke:#038048;stroke-width:1.0;"/><text fill="#000000" font-family="sans-serif" font-size="14" lengthAdjust="spacing" textLength="239" x="77.5" y="740.9951">allMeetingsByOwner(systemUser)</text><ellipse cx="68.5" cy="753.9453" fill="#84BE84" rx="3" ry="3" style="stroke:#038048;stroke-width:1.0;"/><text fill="#000000" font-family="sans-serif" font-size="14" lengthAdjust="spacing" textLength="103" x="77.5" y="757.292">save(meeting)</text></g><!--class CancelMeetingController--><g id="elem_CancelMeetingController"><rect codeLine="58" fill="#F1F1F1" height="137.75" id="CancelMeetingController" rx="2.5" ry="2.5" style="stroke:#181818;stroke-width:0.5;" width="331" x="22.5" y="205"/><ellipse cx="93.75" cy="225.1328" fill="#ADD1B2" rx="11" ry="11" style="stroke:#181818;stroke-width:1.0;"/><path d="M96.0938,220.8047 C95.1563,220.3672 94.5625,220.2266 93.6875,220.2266 C91.0625,220.2266 89.0625,222.3047 89.0625,225.0234 L89.0625,226.1484 C89.0625,228.7266 91.1719,230.6172 94.0625,230.6172 C95.2813,230.6172 96.4375,230.3203 97.1875,229.7734 C97.7656,229.3672 98.0938,228.9141 98.0938,228.5234 C98.0938,228.0703 97.7031,227.6797 97.2344,227.6797 C97.0156,227.6797 96.8125,227.7578 96.625,227.9453 C96.1719,228.4297 96.1719,228.4297 95.9844,228.5234 C95.5625,228.7891 94.875,228.9141 94.1094,228.9141 C92.0625,228.9141 90.7656,227.8203 90.7656,226.1172 L90.7656,225.0234 C90.7656,223.2422 92.0156,221.9297 93.75,221.9297 C94.3281,221.9297 94.9375,222.0859 95.4063,222.3359 C95.8906,222.6172 96.0625,222.8359 96.1563,223.2422 C96.2188,223.6484 96.25,223.7734 96.3906,223.8984 C96.5313,224.0391 96.7656,224.1484 96.9844,224.1484 C97.25,224.1484 97.5156,224.0078 97.6875,223.7891 C97.7969,223.6328 97.8281,223.4453 97.8281,223.0234 L97.8281,221.6016 C97.8281,221.1641 97.8125,221.0391 97.7188,220.8828 C97.5625,220.6172 97.2813,220.4766 96.9844,220.4766 C96.6875,220.4766 96.4844,220.5703 96.2656,220.8828 L96.0938,220.8047 Z " fill="#000000"/><text fill="#000000" font-family="sans-serif" font-size="12" font-style="italic" lengthAdjust="spacing" textLength="71" x="168.75" y="221.1387">&#171;controller&#187;</text><text fill="#000000" font-family="sans-serif" font-size="14" lengthAdjust="spacing" textLength="180" x="114.25" y="236.9639">CancelMeetingController</text><line style="stroke:#181818;stroke-width:0.5;" x1="23.5" x2="352.5" y1="245.2656" y2="245.2656"/><rect fill="none" height="6" style="stroke:#C82930;stroke-width:1.0;" width="6" x="30.5" y="255.9141"/><text fill="#000000" font-family="sans-serif" font-size="14" lengthAdjust="spacing" textLength="204" x="42.5" y="262.2607">authz : AuthorizationService</text><rect fill="none" height="6" style="stroke:#C82930;stroke-width:1.0;" width="6" x="30.5" y="272.2109"/><text fill="#000000" font-family="sans-serif" font-size="14" lengthAdjust="spacing" textLength="305" x="42.5" y="278.5576">meetingSvc : MeetingManagementService</text><line style="stroke:#181818;stroke-width:0.5;" x1="23.5" x2="352.5" y1="285.8594" y2="285.8594"/><ellipse cx="33.5" cy="299.5078" fill="#84BE84" rx="3" ry="3" style="stroke:#038048;stroke-width:1.0;"/><text fill="#000000" font-family="sans-serif" font-size="14" lengthAdjust="spacing" textLength="180" x="42.5" y="302.8545">cancelMeeting (meeting)</text><ellipse cx="33.5" cy="315.8047" fill="#84BE84" rx="3" ry="3" style="stroke:#038048;stroke-width:1.0;"/><text fill="#000000" font-family="sans-serif" font-size="14" lengthAdjust="spacing" textLength="239" x="42.5" y="319.1514">allMeetingsByOwner(systemUser)</text><ellipse cx="33.5" cy="332.1016" fill="#84BE84" rx="3" ry="3" style="stroke:#038048;stroke-width:1.0;"/><text fill="#000000" font-family="sans-serif" font-size="14" lengthAdjust="spacing" textLength="93" x="42.5" y="335.4482">systemUser()</text></g><!--class MeetingManagementService--><g id="elem_MeetingManagementService"><rect codeLine="66" fill="#F1F1F1" height="105.1563" id="MeetingManagementService" rx="2.5" ry="2.5" style="stroke:#181818;stroke-width:0.5;" width="317" x="31.5" y="451"/><ellipse cx="82.75" cy="471.1328" fill="#ADD1B2" rx="11" ry="11" style="stroke:#181818;stroke-width:1.0;"/><path d="M85.0938,466.8047 C84.1563,466.3672 83.5625,466.2266 82.6875,466.2266 C80.0625,466.2266 78.0625,468.3047 78.0625,471.0234 L78.0625,472.1484 C78.0625,474.7266 80.1719,476.6172 83.0625,476.6172 C84.2813,476.6172 85.4375,476.3203 86.1875,475.7734 C86.7656,475.3672 87.0938,474.9141 87.0938,474.5234 C87.0938,474.0703 86.7031,473.6797 86.2344,473.6797 C86.0156,473.6797 85.8125,473.7578 85.625,473.9453 C85.1719,474.4297 85.1719,474.4297 84.9844,474.5234 C84.5625,474.7891 83.875,474.9141 83.1094,474.9141 C81.0625,474.9141 79.7656,473.8203 79.7656,472.1172 L79.7656,471.0234 C79.7656,469.2422 81.0156,467.9297 82.75,467.9297 C83.3281,467.9297 83.9375,468.0859 84.4063,468.3359 C84.8906,468.6172 85.0625,468.8359 85.1563,469.2422 C85.2188,469.6484 85.25,469.7734 85.3906,469.8984 C85.5313,470.0391 85.7656,470.1484 85.9844,470.1484 C86.25,470.1484 86.5156,470.0078 86.6875,469.7891 C86.7969,469.6328 86.8281,469.4453 86.8281,469.0234 L86.8281,467.6016 C86.8281,467.1641 86.8125,467.0391 86.7188,466.8828 C86.5625,466.6172 86.2813,466.4766 85.9844,466.4766 C85.6875,466.4766 85.4844,466.5703 85.2656,466.8828 L85.0938,466.8047 Z " fill="#000000"/><text fill="#000000" font-family="sans-serif" font-size="12" font-style="italic" lengthAdjust="spacing" textLength="56" x="178.25" y="467.1387">&#171;service&#187;</text><text fill="#000000" font-family="sans-serif" font-size="14" lengthAdjust="spacing" textLength="206" x="103.25" y="482.9639">MeetingManagementService</text><line style="stroke:#181818;stroke-width:0.5;" x1="32.5" x2="347.5" y1="491.2656" y2="491.2656"/><rect fill="none" height="6" style="stroke:#C82930;stroke-width:1.0;" width="6" x="39.5" y="501.9141"/><text fill="#000000" font-family="sans-serif" font-size="14" lengthAdjust="spacing" textLength="291" x="51.5" y="508.2607">meetingRepository : MeetingRepository</text><line style="stroke:#181818;stroke-width:0.5;" x1="32.5" x2="347.5" y1="515.5625" y2="515.5625"/><ellipse cx="42.5" cy="529.2109" fill="#84BE84" rx="3" ry="3" style="stroke:#038048;stroke-width:1.0;"/><text fill="#000000" font-family="sans-serif" font-size="14" lengthAdjust="spacing" textLength="180" x="51.5" y="532.5576">cancelMeeting (meeting)</text><ellipse cx="42.5" cy="545.5078" fill="#84BE84" rx="3" ry="3" style="stroke:#038048;stroke-width:1.0;"/><text fill="#000000" font-family="sans-serif" font-size="14" lengthAdjust="spacing" textLength="239" x="51.5" y="548.8545">allMeetingsByOwner(systemUser)</text></g><!--class Set--><g id="elem_Set"><rect codeLine="76" fill="#F1F1F1" height="48" id="Set" rx="2.5" ry="2.5" style="stroke:#181818;stroke-width:0.5;" width="55" x="381.5" y="61.5"/><ellipse cx="396.5" cy="77.5" fill="#B4A7E5" rx="11" ry="11" style="stroke:#181818;stroke-width:1.0;"/><path d="M397.4531,74.2813 L399.1719,74.2813 C399.5625,74.2813 399.75,74.25 399.875,74.1719 C400.1406,74.0156 400.2813,73.7344 400.2813,73.4375 C400.2813,73.1719 400.1719,72.9063 399.9375,72.7344 C399.7656,72.625 399.625,72.5938 399.1719,72.5938 L394.0313,72.5938 C393.5938,72.5938 393.4688,72.6094 393.3125,72.7031 C393.0625,72.8594 392.9063,73.1563 392.9063,73.4375 C392.9063,73.7188 393.0469,73.9688 393.2656,74.1406 C393.4219,74.25 393.6094,74.2813 394.0313,74.2813 L395.75,74.2813 L395.75,80.7969 L394.0313,80.7969 C393.5938,80.7969 393.4688,80.8125 393.3125,80.9219 C393.0625,81.0781 392.9063,81.3594 392.9063,81.6563 C392.9063,81.9063 393.0469,82.1719 393.2656,82.3281 C393.4219,82.4531 393.625,82.5 394.0313,82.5 L399.1719,82.5 C399.9219,82.5 400.2813,82.2188 400.2813,81.6563 C400.2813,81.375 400.1719,81.125 399.9375,80.9531 C399.7656,80.8281 399.625,80.7969 399.1719,80.7969 L397.4531,80.7969 L397.4531,74.2813 Z " fill="#000000"/><text fill="#000000" font-family="sans-serif" font-size="14" font-style="italic" lengthAdjust="spacing" textLength="23" x="410.5" y="82.3467">Set</text><line style="stroke:#181818;stroke-width:0.5;" x1="382.5" x2="435.5" y1="93.5" y2="93.5"/><line style="stroke:#181818;stroke-width:0.5;" x1="382.5" x2="435.5" y1="101.5" y2="101.5"/></g><!--class AuthorizationService--><g id="elem_AuthorizationService"><rect fill="#F1F1F1" height="48" id="AuthorizationService" rx="2.5" ry="2.5" style="stroke:#181818;stroke-width:0.5;" width="183" x="386.5" y="479.5"/><ellipse cx="401.5" cy="495.5" fill="#ADD1B2" rx="11" ry="11" style="stroke:#181818;stroke-width:1.0;"/><path d="M403.8438,491.1719 C402.9063,490.7344 402.3125,490.5938 401.4375,490.5938 C398.8125,490.5938 396.8125,492.6719 396.8125,495.3906 L396.8125,496.5156 C396.8125,499.0938 398.9219,500.9844 401.8125,500.9844 C403.0313,500.9844 404.1875,500.6875 404.9375,500.1406 C405.5156,499.7344 405.8438,499.2813 405.8438,498.8906 C405.8438,498.4375 405.4531,498.0469 404.9844,498.0469 C404.7656,498.0469 404.5625,498.125 404.375,498.3125 C403.9219,498.7969 403.9219,498.7969 403.7344,498.8906 C403.3125,499.1563 402.625,499.2813 401.8594,499.2813 C399.8125,499.2813 398.5156,498.1875 398.5156,496.4844 L398.5156,495.3906 C398.5156,493.6094 399.7656,492.2969 401.5,492.2969 C402.0781,492.2969 402.6875,492.4531 403.1563,492.7031 C403.6406,492.9844 403.8125,493.2031 403.9063,493.6094 C403.9688,494.0156 404,494.1406 404.1406,494.2656 C404.2813,494.4063 404.5156,494.5156 404.7344,494.5156 C405,494.5156 405.2656,494.375 405.4375,494.1563 C405.5469,494 405.5781,493.8125 405.5781,493.3906 L405.5781,491.9688 C405.5781,491.5313 405.5625,491.4063 405.4688,491.25 C405.3125,490.9844 405.0313,490.8438 404.7344,490.8438 C404.4375,490.8438 404.2344,490.9375 404.0156,491.25 L403.8438,491.1719 Z " fill="#000000"/><text fill="#000000" font-family="sans-serif" font-size="14" lengthAdjust="spacing" textLength="151" x="415.5" y="500.3467">AuthorizationService</text><line style="stroke:#181818;stroke-width:0.5;" x1="387.5" x2="568.5" y1="511.5" y2="511.5"/><line style="stroke:#181818;stroke-width:0.5;" x1="387.5" x2="568.5" y1="519.5" y2="519.5"/></g><!--link CancelMeetingController to AuthorizationService--><g id="link_CancelMeetingController_AuthorizationService"><path codeLine="80" d="M346.772,343.157 C354.873,348.467 362.676,354.082 370,360 C410.389,392.634 444.107,443.461 462.628,474.773 " fill="none" id="CancelMeetingController-to-AuthorizationService" style="stroke:#181818;stroke-width:1.0;stroke-dasharray:7.0,7.0;"/><polygon fill="#181818" points="465.249,479.247,464.1516,469.4595,462.7218,474.9327,457.2486,473.5029,465.249,479.247" style="stroke:#181818;stroke-width:1.0;"/></g><!--link CancelMeetingUI to CancelMeetingController--><g id="link_CancelMeetingUI_CancelMeetingController"><path codeLine="81" d="M188,130.226 C188,150.845 188,176.015 188,199.447 " fill="none" id="CancelMeetingUI-to-CancelMeetingController" style="stroke:#181818;stroke-width:1.0;stroke-dasharray:7.0,7.0;"/><polygon fill="#181818" points="188,204.731,192,195.731,188,199.731,184,195.731,188,204.731" style="stroke:#181818;stroke-width:1.0;"/></g><!--link CancelMeetingController to MeetingManagementService--><g id="link_CancelMeetingController_MeetingManagementService"><path codeLine="82" d="M188.6,343.258 C188.887,375.921 189.227,414.576 189.5,445.621 " fill="none" id="CancelMeetingController-to-MeetingManagementService" style="stroke:#181818;stroke-width:1.0;stroke-dasharray:7.0,7.0;"/><polygon fill="#181818" points="189.547,450.93,193.4671,441.8949,189.5027,445.9302,185.4674,441.9658,189.547,450.93" style="stroke:#181818;stroke-width:1.0;"/></g><!--link MeetingManagementService to Meeting--><g id="link_MeetingManagementService_Meeting"><path codeLine="87" d="M234.043,450.851 C270.228,412.744 325.343,365.567 386.5,351.5 C426.132,342.384 529.587,343.709 569.5,351.5 C638.13,364.897 710.078,390.897 772.361,417.658 " fill="none" id="MeetingManagementService-to-Meeting" style="stroke:#181818;stroke-width:1.0;"/><polygon fill="#181818" points="777.208,419.75,770.5323,412.5088,772.618,417.7671,767.3597,419.8529,777.208,419.75" style="stroke:#181818;stroke-width:1.0;"/></g><!--link Meeting to MeetingDuration--><g id="link_Meeting_MeetingDuration"><path codeLine="88" d="M1025.84,604.067 C1052.17,636.111 1079.45,669.299 1098.55,692.533 " fill="none" id="Meeting-to-MeetingDuration" style="stroke:#181818;stroke-width:1.0;"/><polygon fill="#181818" points="1101.78,696.463,1099.1496,686.9719,1098.6028,692.6023,1092.9724,692.0555,1101.78,696.463" style="stroke:#181818;stroke-width:1.0;"/></g><!--link Meeting to MeetingParticipant--><g id="link_Meeting_MeetingParticipant"><path codeLine="89" d="M842.614,604.067 C823.253,623.081 803.482,642.497 785.662,659.998 " fill="none" id="Meeting-to-MeetingParticipant" style="stroke:#181818;stroke-width:1.0;"/><polygon fill="#181818" points="781.653,663.935,790.8765,660.4813,785.2198,660.431,785.2701,654.7744,781.653,663.935" style="stroke:#181818;stroke-width:1.0;"/></g><!--link Meeting to MeetingStatus--><g id="link_Meeting_MeetingStatus"><path codeLine="90" d="M944,604.067 C944,635.582 944,668.202 944,691.372 " fill="none" id="Meeting-to-MeetingStatus" style="stroke:#181818;stroke-width:1.0;"/><polygon fill="#181818" points="944,696.463,948,687.463,944,691.463,940,687.463,944,696.463" style="stroke:#181818;stroke-width:1.0;"/></g><!--link MeetingParticipant to InviteStatus--><g id="link_MeetingParticipant_InviteStatus"><path codeLine="91" d="M721,785.087 C721,803.734 721,823.606 721,839.6349 " fill="none" id="MeetingParticipant-to-InviteStatus" style="stroke:#181818;stroke-width:1.0;"/><polygon fill="#181818" points="721,844.9162,725,835.9162,721,839.9162,717,835.9162,721,844.9162" style="stroke:#181818;stroke-width:1.0;"/></g><!--link Meeting to MeetingToken--><g id="link_Meeting_MeetingToken"><path codeLine="92" d="M1110.55,577.382 C1147.16,596.131 1184.86,617.672 1218,641 C1239.23,655.948 1260.32,676.069 1276.3,692.697 " fill="none" id="Meeting-to-MeetingToken" style="stroke:#181818;stroke-width:1.0;"/><polygon fill="#181818" points="1279.83,696.407,1276.5274,687.1284,1276.3848,692.7834,1270.7297,692.6408,1279.83,696.407" style="stroke:#181818;stroke-width:1.0;"/></g><!--link MeetingManagementService to MeetingRepository--><g id="link_MeetingManagementService_MeetingRepository"><path codeLine="94" d="M190,556.123 C190,593.366 190,643.145 190,678.715 " fill="none" id="MeetingManagementService-to-MeetingRepository" style="stroke:#181818;stroke-width:1.0;stroke-dasharray:7.0,7.0;"/><polygon fill="#181818" points="190,683.857,194,674.857,190,678.857,186,674.857,190,683.857" style="stroke:#181818;stroke-width:1.0;"/></g><!--SRC=[ZLLTRzem57tFhx2wXu60yh0zJ1L2wjgNIaETnle3RftRu3Mn8zkXeeZ_Fjj9R2SafP4GyVMvzZdtArztMfVgPhaiS-2wAl9hAeebpK6fHSeWar0aIGdq5J8aLwL4XLo3Pe9VaI_txZacn3pEXTm1fvXl43NZsTC3MQqgjbxNY0NHExmJN4kHvoZ9JHSTTXnwHbAntOctoTGjJyafII8cgIY0MGxfS_e3y9WuL23I76e8G9P9p40ZaKBezTgOZ0Ic3oslcbjHE_mLhyWDjKsqZ51f9PtuWBXlB378NcRLvSXJaD6EUEDE-FQWD1PF2kKvWwq9RwN21VKwmfKWDQEiDFdwnPGsIFktQk2_m-uwScAfnGcUUTkCCCxqfAOqRuND7Vjv_vAfTpk5I7T37Lqy669BWk-PHY_m8LfsO6TSZL7va0t7hzKJSFFEVK61aU1V_HlogkX6t8ZOGrxXu_C_fBPkeXfhZWXhvnxhkU0z4iEsc3vnTvT-xvowYZywn7Ae3mhDZLAPLAFfoQYl6ZZZ6kKBK6ol-8EbK4mBUV2O6O6yxMRry_1eAolAnpJW5EnnqjIxDv-QHe-w7CeoPxGTDmWltzDle-Cc6Ysh5VMBRfj3fNVlfe9kpR-GxDsTlKMvPnG7Ud5FGoDkW1jIXQdiFdv6Q4o4d4dxT6XiRBpLZxxaBC5dN8naLR_rUgxefoi82hQuYov9kQp5ZMhp2pMpHNrqrh64NI_MmodfVr0iSEopyT7XepcqpsXGWsEB8OjWywD_O2-QXaFRpT0R69qMr1cC0zxrLscSTYGuvFW_]--></g></svg>