<?xml version="1.0" encoding="us-ascii" standalone="no"?><svg xmlns="http://www.w3.org/2000/svg" xmlns:xlink="http://www.w3.org/1999/xlink" contentStyleType="text/css" height="872px" preserveAspectRatio="none" style="width:1960px;height:872px;background:#FFFFFF;" version="1.1" viewBox="0 0 1960 872" width="1960px" zoomAndPan="magnify"><defs/><g><rect fill="#FFFFFF" height="645.5234" style="stroke:#181818;stroke-width:1.0;" width="10" x="224.5" y="114.7266"/><rect fill="#FFFFFF" height="602.3906" style="stroke:#181818;stroke-width:1.0;" width="10" x="474.5" y="143.8594"/><rect fill="#FFFFFF" height="58.2656" style="stroke:#181818;stroke-width:1.0;" width="10" x="1014.5" y="172.9922"/><rect fill="#FFFFFF" height="442.7266" style="stroke:#181818;stroke-width:1.0;" width="10" x="1217" y="289.5234"/><rect fill="#FFFFFF" height="30" style="stroke:#181818;stroke-width:1.0;" width="10" x="1564.5" y="318.6563"/><rect fill="#FFFFFF" height="58.2656" style="stroke:#181818;stroke-width:1.0;" width="10" x="1726.5" y="412.9219"/><rect fill="#FFFFFF" height="276.1953" style="stroke:#181818;stroke-width:1.0;" width="10" x="1882" y="442.0547"/><line style="stroke:#181818;stroke-width:0.5;stroke-dasharray:5.0,5.0;" x1="23" x2="23" y1="83.5938" y2="778.25"/><line style="stroke:#181818;stroke-width:0.5;stroke-dasharray:5.0,5.0;" x1="229.5" x2="229.5" y1="83.5938" y2="778.25"/><line style="stroke:#181818;stroke-width:0.5;stroke-dasharray:5.0,5.0;" x1="479.5" x2="479.5" y1="83.5938" y2="778.25"/><line style="stroke:#181818;stroke-width:0.5;stroke-dasharray:5.0,5.0;" x1="1019" x2="1019" y1="83.5938" y2="778.25"/><line style="stroke:#181818;stroke-width:0.5;stroke-dasharray:5.0,5.0;" x1="1222" x2="1222" y1="83.5938" y2="778.25"/><line style="stroke:#181818;stroke-width:0.5;stroke-dasharray:5.0,5.0;" x1="1411" x2="1411" y1="83.5938" y2="778.25"/><line style="stroke:#181818;stroke-width:0.5;stroke-dasharray:5.0,5.0;" x1="1569" x2="1569" y1="83.5938" y2="778.25"/><line style="stroke:#181818;stroke-width:0.5;stroke-dasharray:5.0,5.0;" x1="1731" x2="1731" y1="83.5938" y2="778.25"/><line style="stroke:#181818;stroke-width:0.5;stroke-dasharray:5.0,5.0;" x1="1887" x2="1887" y1="83.5938" y2="778.25"/><text fill="#000000" font-family="FG Virgil" font-size="14" lengthAdjust="spacing" textLength="31" x="5" y="80.292">User</text><ellipse cx="23.5" cy="15.7969" fill="#E2E2F0" rx="8" ry="8" style="stroke:#181818;stroke-width:0.5;"/><path d="M23.5,23.7969 L23.5,50.7969 M10.5,31.7969 L36.5,31.7969 M23.5,50.7969 L10.5,65.7969 M23.5,50.7969 L36.5,65.7969 " fill="none" style="stroke:#181818;stroke-width:0.5;"/><text fill="#000000" font-family="FG Virgil" font-size="14" lengthAdjust="spacing" textLength="31" x="5" y="790.2451">User</text><ellipse cx="23.5" cy="802.0469" fill="#E2E2F0" rx="8" ry="8" style="stroke:#181818;stroke-width:0.5;"/><path d="M23.5,810.0469 L23.5,837.0469 M10.5,818.0469 L36.5,818.0469 M23.5,837.0469 L10.5,852.0469 M23.5,837.0469 L36.5,852.0469 " fill="none" style="stroke:#181818;stroke-width:0.5;"/><rect fill="#E2E2F0" height="46.5938" rx="2.5" ry="2.5" style="stroke:#181818;stroke-width:0.5;" width="134" x="162.5" y="36"/><text fill="#000000" font-family="FG Virgil" font-size="14" font-style="italic" lengthAdjust="spacing" textLength="108" x="175.5" y="55.9951">&#171;presentation&#187;</text><text fill="#000000" font-family="FG Virgil" font-size="14" lengthAdjust="spacing" textLength="120" x="169.5" y="72.292">CancelMeetingUI</text><rect fill="#E2E2F0" height="46.5938" rx="2.5" ry="2.5" style="stroke:#181818;stroke-width:0.5;" width="134" x="162.5" y="777.25"/><text fill="#000000" font-family="FG Virgil" font-size="14" font-style="italic" lengthAdjust="spacing" textLength="108" x="175.5" y="797.2451">&#171;presentation&#187;</text><text fill="#000000" font-family="FG Virgil" font-size="14" lengthAdjust="spacing" textLength="120" x="169.5" y="813.542">CancelMeetingUI</text><rect fill="#E2E2F0" height="46.5938" rx="2.5" ry="2.5" style="stroke:#181818;stroke-width:0.5;" width="194" x="382.5" y="36"/><text fill="#000000" font-family="FG Virgil" font-size="14" font-style="italic" lengthAdjust="spacing" textLength="97" x="431" y="55.9951">&#171;application&#187;</text><text fill="#000000" font-family="FG Virgil" font-size="14" lengthAdjust="spacing" textLength="180" x="389.5" y="72.292">CancelMeetingController</text><rect fill="#E2E2F0" height="46.5938" rx="2.5" ry="2.5" style="stroke:#181818;stroke-width:0.5;" width="194" x="382.5" y="777.25"/><text fill="#000000" font-family="FG Virgil" font-size="14" font-style="italic" lengthAdjust="spacing" textLength="97" x="431" y="797.2451">&#171;application&#187;</text><text fill="#000000" font-family="FG Virgil" font-size="14" lengthAdjust="spacing" textLength="180" x="389.5" y="813.542">CancelMeetingController</text><rect fill="#E2E2F0" height="46.5938" rx="2.5" ry="2.5" style="stroke:#181818;stroke-width:0.5;" width="165" x="937" y="36"/><text fill="#000000" font-family="FG Virgil" font-size="14" font-style="italic" lengthAdjust="spacing" textLength="97" x="971" y="55.9951">&#171;application&#187;</text><text fill="#000000" font-family="FG Virgil" font-size="14" lengthAdjust="spacing" textLength="151" x="944" y="72.292">AuthorizationService</text><rect fill="#E2E2F0" height="46.5938" rx="2.5" ry="2.5" style="stroke:#181818;stroke-width:0.5;" width="165" x="937" y="777.25"/><text fill="#000000" font-family="FG Virgil" font-size="14" font-style="italic" lengthAdjust="spacing" textLength="97" x="971" y="797.2451">&#171;application&#187;</text><text fill="#000000" font-family="FG Virgil" font-size="14" lengthAdjust="spacing" textLength="151" x="944" y="813.542">AuthorizationService</text><rect fill="#E2E2F0" height="46.5938" rx="2.5" ry="2.5" style="stroke:#181818;stroke-width:0.5;" width="220" x="1112" y="36"/><text fill="#000000" font-family="FG Virgil" font-size="14" font-style="italic" lengthAdjust="spacing" textLength="97" x="1173.5" y="55.9951">&#171;application&#187;</text><text fill="#000000" font-family="FG Virgil" font-size="14" lengthAdjust="spacing" textLength="206" x="1119" y="72.292">MeetingManagementService</text><rect fill="#E2E2F0" height="46.5938" rx="2.5" ry="2.5" style="stroke:#181818;stroke-width:0.5;" width="220" x="1112" y="777.25"/><text fill="#000000" font-family="FG Virgil" font-size="14" font-style="italic" lengthAdjust="spacing" textLength="97" x="1173.5" y="797.2451">&#171;application&#187;</text><text fill="#000000" font-family="FG Virgil" font-size="14" lengthAdjust="spacing" textLength="206" x="1119" y="813.542">MeetingManagementService</text><rect fill="#E2E2F0" height="46.5938" rx="2.5" ry="2.5" style="stroke:#181818;stroke-width:0.5;" width="139" x="1342" y="36"/><text fill="#000000" font-family="FG Virgil" font-size="14" font-style="italic" lengthAdjust="spacing" textLength="72" x="1375.5" y="55.9951">&#171;domain&#187;</text><text fill="#000000" font-family="FG Virgil" font-size="14" lengthAdjust="spacing" textLength="125" x="1349" y="72.292">meeting:Meeting</text><rect fill="#E2E2F0" height="46.5938" rx="2.5" ry="2.5" style="stroke:#181818;stroke-width:0.5;" width="139" x="1342" y="777.25"/><text fill="#000000" font-family="FG Virgil" font-size="14" font-style="italic" lengthAdjust="spacing" textLength="72" x="1375.5" y="797.2451">&#171;domain&#187;</text><text fill="#000000" font-family="FG Virgil" font-size="14" lengthAdjust="spacing" textLength="125" x="1349" y="813.542">meeting:Meeting</text><rect fill="#E2E2F0" height="46.5938" rx="2.5" ry="2.5" style="stroke:#181818;stroke-width:0.5;" width="157" x="1491" y="36"/><text fill="#000000" font-family="FG Virgil" font-size="14" font-style="italic" lengthAdjust="spacing" textLength="100" x="1519.5" y="55.9951">&#171;persistence&#187;</text><text fill="#000000" font-family="FG Virgil" font-size="14" lengthAdjust="spacing" textLength="143" x="1498" y="72.292">PersistenceContext</text><rect fill="#E2E2F0" height="46.5938" rx="2.5" ry="2.5" style="stroke:#181818;stroke-width:0.5;" width="157" x="1491" y="777.25"/><text fill="#000000" font-family="FG Virgil" font-size="14" font-style="italic" lengthAdjust="spacing" textLength="100" x="1519.5" y="797.2451">&#171;persistence&#187;</text><text fill="#000000" font-family="FG Virgil" font-size="14" lengthAdjust="spacing" textLength="143" x="1498" y="813.542">PersistenceContext</text><rect fill="#E2E2F0" height="46.5938" rx="2.5" ry="2.5" style="stroke:#181818;stroke-width:0.5;" width="147" x="1658" y="36"/><text fill="#000000" font-family="FG Virgil" font-size="14" font-style="italic" lengthAdjust="spacing" textLength="68" x="1697.5" y="55.9951">&#171;factory&#187;</text><text fill="#000000" font-family="FG Virgil" font-size="14" lengthAdjust="spacing" textLength="133" x="1665" y="72.292">RepositoryFactory</text><rect fill="#E2E2F0" height="46.5938" rx="2.5" ry="2.5" style="stroke:#181818;stroke-width:0.5;" width="147" x="1658" y="777.25"/><text fill="#000000" font-family="FG Virgil" font-size="14" font-style="italic" lengthAdjust="spacing" textLength="68" x="1697.5" y="797.2451">&#171;factory&#187;</text><text fill="#000000" font-family="FG Virgil" font-size="14" lengthAdjust="spacing" textLength="133" x="1665" y="813.542">RepositoryFactory</text><text fill="#000000" font-family="FG Virgil" font-size="14" font-style="italic" lengthAdjust="spacing" textLength="90" x="1839" y="63.9951">&#171;repository&#187;</text><text fill="#000000" font-family="FG Virgil" font-size="14" lengthAdjust="spacing" textLength="138" x="1815" y="80.292">MeetingRepository</text><path d="M1869,15 C1869,5 1887,5 1887,5 C1887,5 1905,5 1905,15 L1905,41 C1905,51 1887,51 1887,51 C1887,51 1869,51 1869,41 L1869,15 " fill="#E2E2F0" style="stroke:#181818;stroke-width:1.5;"/><path d="M1869,15 C1869,25 1887,25 1887,25 C1887,25 1905,25 1905,15 " fill="none" style="stroke:#181818;stroke-width:1.5;"/><text fill="#000000" font-family="FG Virgil" font-size="14" font-style="italic" lengthAdjust="spacing" textLength="90" x="1839" y="790.2451">&#171;repository&#187;</text><text fill="#000000" font-family="FG Virgil" font-size="14" lengthAdjust="spacing" textLength="138" x="1815" y="806.542">MeetingRepository</text><path d="M1869,819.8438 C1869,809.8438 1887,809.8438 1887,809.8438 C1887,809.8438 1905,809.8438 1905,819.8438 L1905,845.8438 C1905,855.8438 1887,855.8438 1887,855.8438 C1887,855.8438 1869,855.8438 1869,845.8438 L1869,819.8438 " fill="#E2E2F0" style="stroke:#181818;stroke-width:1.5;"/><path d="M1869,819.8438 C1869,829.8438 1887,829.8438 1887,829.8438 C1887,829.8438 1905,829.8438 1905,819.8438 " fill="none" style="stroke:#181818;stroke-width:1.5;"/><rect fill="#FFFFFF" height="645.5234" style="stroke:#181818;stroke-width:1.0;" width="10" x="224.5" y="114.7266"/><rect fill="#FFFFFF" height="602.3906" style="stroke:#181818;stroke-width:1.0;" width="10" x="474.5" y="143.8594"/><rect fill="#FFFFFF" height="58.2656" style="stroke:#181818;stroke-width:1.0;" width="10" x="1014.5" y="172.9922"/><rect fill="#FFFFFF" height="442.7266" style="stroke:#181818;stroke-width:1.0;" width="10" x="1217" y="289.5234"/><rect fill="#FFFFFF" height="30" style="stroke:#181818;stroke-width:1.0;" width="10" x="1564.5" y="318.6563"/><rect fill="#FFFFFF" height="58.2656" style="stroke:#181818;stroke-width:1.0;" width="10" x="1726.5" y="412.9219"/><rect fill="#FFFFFF" height="276.1953" style="stroke:#181818;stroke-width:1.0;" width="10" x="1882" y="442.0547"/><polygon fill="#181818" points="212.5,110.7266,222.5,114.7266,212.5,118.7266,216.5,114.7266" style="stroke:#181818;stroke-width:1.0;"/><line style="stroke:#181818;stroke-width:1.0;stroke-dasharray:2.0,2.0;" x1="23.5" x2="218.5" y1="114.7266" y2="114.7266"/><text fill="#000000" font-family="FG Virgil" font-size="13" lengthAdjust="spacing" textLength="112" x="30.5" y="109.6606">Cancel a meeting</text><polygon fill="#181818" points="462.5,139.8594,472.5,143.8594,462.5,147.8594,466.5,143.8594" style="stroke:#181818;stroke-width:1.0;"/><line style="stroke:#181818;stroke-width:1.0;" x1="234.5" x2="468.5" y1="143.8594" y2="143.8594"/><text fill="#000000" font-family="FG Virgil" font-size="13" lengthAdjust="spacing" textLength="41" x="241.5" y="138.7935">create</text><polygon fill="#181818" points="1002.5,168.9922,1012.5,172.9922,1002.5,176.9922,1006.5,172.9922" style="stroke:#181818;stroke-width:1.0;"/><line style="stroke:#181818;stroke-width:1.0;" x1="484.5" x2="1008.5" y1="172.9922" y2="172.9922"/><text fill="#000000" font-family="FG Virgil" font-size="13" lengthAdjust="spacing" textLength="511" x="491.5" y="167.9263">ensureAuthenticatedUserHasAnyOf(ADMIN, POWER_USER, STUDENT, TEACHER)</text><polygon fill="#181818" points="1002.5,198.125,1012.5,202.125,1002.5,206.125,1006.5,202.125" style="stroke:#181818;stroke-width:1.0;"/><line style="stroke:#181818;stroke-width:1.0;" x1="484.5" x2="1008.5" y1="202.125" y2="202.125"/><text fill="#000000" font-family="FG Virgil" font-size="13" lengthAdjust="spacing" textLength="87" x="491.5" y="197.0591">systemUser()</text><polygon fill="#181818" points="495.5,227.2578,485.5,231.2578,495.5,235.2578,491.5,231.2578" style="stroke:#181818;stroke-width:1.0;"/><line style="stroke:#181818;stroke-width:1.0;stroke-dasharray:2.0,2.0;" x1="489.5" x2="1018.5" y1="231.2578" y2="231.2578"/><text fill="#000000" font-family="FG Virgil" font-size="13" lengthAdjust="spacing" textLength="77" x="501.5" y="226.1919">systemUser</text><polygon fill="#181818" points="462.5,256.3906,472.5,260.3906,462.5,264.3906,466.5,260.3906" style="stroke:#181818;stroke-width:1.0;"/><line style="stroke:#181818;stroke-width:1.0;" x1="234.5" x2="468.5" y1="260.3906" y2="260.3906"/><text fill="#000000" font-family="FG Virgil" font-size="13" lengthAdjust="spacing" textLength="216" x="241.5" y="255.3247">allMeetingsByOwner(systemUser)</text><polygon fill="#181818" points="1205,285.5234,1215,289.5234,1205,293.5234,1209,289.5234" style="stroke:#181818;stroke-width:1.0;"/><line style="stroke:#181818;stroke-width:1.0;" x1="484.5" x2="1211" y1="289.5234" y2="289.5234"/><text fill="#000000" font-family="FG Virgil" font-size="13" lengthAdjust="spacing" textLength="216" x="491.5" y="284.4575">allMeetingsByOwner(systemUser)</text><polygon fill="#181818" points="1552.5,314.6563,1562.5,318.6563,1552.5,322.6563,1556.5,318.6563" style="stroke:#181818;stroke-width:1.0;"/><line style="stroke:#181818;stroke-width:1.0;" x1="1227" x2="1558.5" y1="318.6563" y2="318.6563"/><text fill="#000000" font-family="FG Virgil" font-size="13" lengthAdjust="spacing" textLength="85" x="1234" y="313.5903">repositories()</text><path d="M1574,361.6563 L1574,386.6563 L1863,386.6563 L1863,371.6563 L1853,361.6563 L1574,361.6563 " fill="#FEFFDD" style="stroke:#181818;stroke-width:0.5;"/><path d="M1853,361.6563 L1853,371.6563 L1863,371.6563 L1853,361.6563 " fill="#FEFFDD" style="stroke:#181818;stroke-width:0.5;"/><text fill="#000000" font-family="FG Virgil" font-size="13" lengthAdjust="spacing" textLength="268" x="1580" y="378.7231">pode criar reposit&#243;rio em mem&#243;ria ou JPA</text><polygon fill="#181818" points="1714.5,408.9219,1724.5,412.9219,1714.5,416.9219,1718.5,412.9219" style="stroke:#181818;stroke-width:1.0;"/><line style="stroke:#181818;stroke-width:1.0;" x1="1227" x2="1720.5" y1="412.9219" y2="412.9219"/><text fill="#000000" font-family="FG Virgil" font-size="13" lengthAdjust="spacing" textLength="216" x="1234" y="407.856">allMeetingsByOwner(systemUser)</text><polygon fill="#181818" points="1870,438.0547,1880,442.0547,1870,446.0547,1874,442.0547" style="stroke:#181818;stroke-width:1.0;"/><line style="stroke:#181818;stroke-width:1.0;" x1="1736.5" x2="1876" y1="442.0547" y2="442.0547"/><text fill="#000000" font-family="FG Virgil" font-size="13" lengthAdjust="spacing" textLength="41" x="1743.5" y="436.9888">create</text><polygon fill="#181818" points="1238,467.1875,1228,471.1875,1238,475.1875,1234,471.1875" style="stroke:#181818;stroke-width:1.0;"/><line style="stroke:#181818;stroke-width:1.0;" x1="1232" x2="1730.5" y1="471.1875" y2="471.1875"/><text fill="#000000" font-family="FG Virgil" font-size="13" lengthAdjust="spacing" textLength="122" x="1244" y="466.1216">meetingRepository</text><polygon fill="#181818" points="1238,496.3203,1228,500.3203,1238,504.3203,1234,500.3203" style="stroke:#181818;stroke-width:1.0;"/><line style="stroke:#181818;stroke-width:1.0;stroke-dasharray:2.0,2.0;" x1="1232" x2="1881" y1="500.3203" y2="500.3203"/><text fill="#000000" font-family="FG Virgil" font-size="13" lengthAdjust="spacing" textLength="60" x="1244" y="495.2544">meetings</text><polygon fill="#181818" points="495.5,525.4531,485.5,529.4531,495.5,533.4531,491.5,529.4531" style="stroke:#181818;stroke-width:1.0;"/><line style="stroke:#181818;stroke-width:1.0;stroke-dasharray:2.0,2.0;" x1="489.5" x2="1216" y1="529.4531" y2="529.4531"/><text fill="#000000" font-family="FG Virgil" font-size="13" lengthAdjust="spacing" textLength="60" x="501.5" y="524.3872">meetings</text><polygon fill="#181818" points="245.5,554.5859,235.5,558.5859,245.5,562.5859,241.5,558.5859" style="stroke:#181818;stroke-width:1.0;"/><line style="stroke:#181818;stroke-width:1.0;stroke-dasharray:2.0,2.0;" x1="239.5" x2="473.5" y1="558.5859" y2="558.5859"/><text fill="#000000" font-family="FG Virgil" font-size="13" lengthAdjust="spacing" textLength="60" x="251.5" y="553.52">meetings</text><polygon fill="#181818" points="34.5,583.7188,24.5,587.7188,34.5,591.7188,30.5,587.7188" style="stroke:#181818;stroke-width:1.0;"/><line style="stroke:#181818;stroke-width:1.0;stroke-dasharray:2.0,2.0;" x1="28.5" x2="223.5" y1="587.7188" y2="587.7188"/><text fill="#000000" font-family="FG Virgil" font-size="13" lengthAdjust="spacing" textLength="123" x="40.5" y="582.6528">shows all meetings</text><polygon fill="#181818" points="212.5,612.8516,222.5,616.8516,212.5,620.8516,216.5,616.8516" style="stroke:#181818;stroke-width:1.0;"/><line style="stroke:#181818;stroke-width:1.0;stroke-dasharray:2.0,2.0;" x1="23.5" x2="218.5" y1="616.8516" y2="616.8516"/><text fill="#000000" font-family="FG Virgil" font-size="13" lengthAdjust="spacing" textLength="177" x="30.5" y="611.7856">choose a meeting to cancel</text><polygon fill="#181818" points="462.5,641.9844,472.5,645.9844,462.5,649.9844,466.5,645.9844" style="stroke:#181818;stroke-width:1.0;"/><line style="stroke:#181818;stroke-width:1.0;" x1="234.5" x2="468.5" y1="645.9844" y2="645.9844"/><text fill="#000000" font-family="FG Virgil" font-size="13" lengthAdjust="spacing" textLength="154" x="241.5" y="640.9185">cancelMeeting(meeting)</text><polygon fill="#181818" points="1205,671.1172,1215,675.1172,1205,679.1172,1209,675.1172" style="stroke:#181818;stroke-width:1.0;"/><line style="stroke:#181818;stroke-width:1.0;" x1="484.5" x2="1211" y1="675.1172" y2="675.1172"/><text fill="#000000" font-family="FG Virgil" font-size="13" lengthAdjust="spacing" textLength="154" x="491.5" y="670.0513">cancelMeeting(meeting)</text><polygon fill="#181818" points="1870,700.25,1880,704.25,1870,708.25,1874,704.25" style="stroke:#181818;stroke-width:1.0;"/><line style="stroke:#181818;stroke-width:1.0;" x1="1227" x2="1876" y1="704.25" y2="704.25"/><text fill="#000000" font-family="FG Virgil" font-size="13" lengthAdjust="spacing" textLength="94" x="1234" y="699.1841">save(meeting)</text><polygon fill="#181818" points="1238,714.25,1228,718.25,1238,722.25,1234,718.25" style="stroke:#181818;stroke-width:1.0;"/><line style="stroke:#181818;stroke-width:1.0;stroke-dasharray:2.0,2.0;" x1="1232" x2="1886" y1="718.25" y2="718.25"/><polygon fill="#181818" points="495.5,728.25,485.5,732.25,495.5,736.25,491.5,732.25" style="stroke:#181818;stroke-width:1.0;"/><line style="stroke:#181818;stroke-width:1.0;stroke-dasharray:2.0,2.0;" x1="489.5" x2="1221" y1="732.25" y2="732.25"/><polygon fill="#181818" points="245.5,742.25,235.5,746.25,245.5,750.25,241.5,746.25" style="stroke:#181818;stroke-width:1.0;"/><line style="stroke:#181818;stroke-width:1.0;" x1="239.5" x2="478.5" y1="746.25" y2="746.25"/><polygon fill="#181818" points="34.5,756.25,24.5,760.25,34.5,764.25,30.5,760.25" style="stroke:#181818;stroke-width:1.0;"/><line style="stroke:#181818;stroke-width:1.0;stroke-dasharray:2.0,2.0;" x1="28.5" x2="228.5" y1="760.25" y2="760.25"/><!--SRC=[bLLRRjim4FpNAHRvIe3u0e9Wm4sS9WNoW1stdyLMMjj4958WQRlEjNg4NgnBMG_QaYnN7uPexinmTtOfyo5aZXepMADCTbfOInAMc1eAmDIRESOVkAAvtQS4ccBhRoQqn4rg7vIqBvWHF7o5xqAlHEe7cJKcQYVagYGF06EhD2mCQK034xSAM4XR4OiSfOKxb36bpqIMOOid5yM_KPHhCYGjMg7aU7m6SySdqYfD3mhUAeemprCHTr9CDdQjjFWiDkUajo8cS0J86v_diQNmCqgkLiQ7hF0CpmvxystSuZWckIeZmvBjog7lLOP2CZ8fNaw5tqWROTYxc5oUzDiwaFUlgrkpEeNFA5T6i0FxXyAMlKDNhr6qFBmvL88MVw6XAjK6wI3jFwD8rmkNQN1m6aQZCRiPbeO1LkKf-a9iqH9l1-0UDfs36_j2Y3LnG73ORW1DIBN5ZsSxinGUXa3IR3GvfzaZvmCbhX4VqKpa_dLvFRb_VdgvXRVN7zFPpyLyEhk5-VlYVlhoVWllqydTutHsqqZK1oZO1wJDdYt8dDgrJr7qrkWapoRMIoYX4xrcw-XfbmtJQZBCb_thJl8H6eMRRfxZ79eU3c68hbMT1XnuMjvOW9FmUpQ4kda46RzU_bCBUD3kIAauIelLse9Q-k4Xv2eXxYk1kjBy-qSB1PJn2JFtZg0syErjqatjkJ9u32zbJhWSi_3IUdRdNh9qHrMJp6gj2QsdwJn_2pUevFTATXdQAsALJqztjo-QKRUa2OOzE1cJyqX_8CexR42AOpYokFPufDTgPvpL7ge7TdnHnckb-DgjBqgm2kBYyhpy0eZzh-DrISI3_x-ZtySptEnjtxWakAK-aY6VWxx-QVThS9d_GIzbdsg37OshRvO7ywc3Zfu8_E35qpy0]--></g></svg>