<?xml version="1.0" encoding="us-ascii" standalone="no"?><svg xmlns="http://www.w3.org/2000/svg" xmlns:xlink="http://www.w3.org/1999/xlink" contentStyleType="text/css" height="508px" preserveAspectRatio="none" style="width:1025px;height:508px;background:#FFFFFF;" version="1.1" viewBox="0 0 1025 508" width="1025px" zoomAndPan="magnify"><defs/><g><rect fill="#FFFFFF" height="293.1875" style="stroke:#181818;stroke-width:1.0;" width="10" x="363.5" y="112.8047"/><rect fill="#FFFFFF" height="57.0469" style="stroke:#181818;stroke-width:1.0;" width="10" x="536" y="169.8516"/><rect fill="#FFFFFF" height="56.5234" style="stroke:#181818;stroke-width:1.0;" width="10" x="697" y="226.8984"/><rect fill="#FFFFFF" height="14" style="stroke:#181818;stroke-width:1.0;" width="10" x="817" y="255.4219"/><rect fill="#FFFFFF" height="94.0469" style="stroke:#181818;stroke-width:1.0;" width="10" x="817" y="311.9453"/><rect fill="#FFFFFF" height="14" style="stroke:#181818;stroke-width:1.0;" width="10" x="955.5" y="368.9922"/><line style="stroke:#181818;stroke-width:0.5;stroke-dasharray:5.0,5.0;" x1="112" x2="112" y1="82.2813" y2="414.9922"/><line style="stroke:#181818;stroke-width:0.5;stroke-dasharray:5.0,5.0;" x1="368" x2="368" y1="82.2813" y2="414.9922"/><line style="stroke:#181818;stroke-width:0.5;stroke-dasharray:5.0,5.0;" x1="541" x2="541" y1="82.2813" y2="414.9922"/><line style="stroke:#181818;stroke-width:0.5;stroke-dasharray:5.0,5.0;" x1="702" x2="702" y1="82.2813" y2="414.9922"/><line style="stroke:#181818;stroke-width:0.5;stroke-dasharray:5.0,5.0;" x1="822" x2="822" y1="82.2813" y2="414.9922"/><line style="stroke:#181818;stroke-width:0.5;stroke-dasharray:5.0,5.0;" x1="960" x2="960" y1="82.2813" y2="414.9922"/><rect fill="#E2E2F0" height="45.2813" rx="2.5" ry="2.5" style="stroke:#181818;stroke-width:0.5;" width="215" x="5" y="36"/><text fill="#000000" font-family="FG Virgil" font-size="14" font-style="italic" lengthAdjust="spacing" textLength="84" x="70.5" y="55.6738">&#171;application&#187;</text><text fill="#000000" font-family="FG Virgil" font-size="14" lengthAdjust="spacing" textLength="201" x="12" y="71.3145">ListAllExamsOfCourseController</text><rect fill="#E2E2F0" height="45.2813" rx="2.5" ry="2.5" style="stroke:#181818;stroke-width:0.5;" width="215" x="5" y="413.9922"/><text fill="#000000" font-family="FG Virgil" font-size="14" font-style="italic" lengthAdjust="spacing" textLength="84" x="70.5" y="433.666">&#171;application&#187;</text><text fill="#000000" font-family="FG Virgil" font-size="14" lengthAdjust="spacing" textLength="201" x="12" y="449.3066">ListAllExamsOfCourseController</text><rect fill="#E2E2F0" height="45.2813" rx="2.5" ry="2.5" style="stroke:#181818;stroke-width:0.5;" width="189" x="274" y="36"/><text fill="#000000" font-family="FG Virgil" font-size="14" font-style="italic" lengthAdjust="spacing" textLength="84" x="326.5" y="55.6738">&#171;application&#187;</text><text fill="#000000" font-family="FG Virgil" font-size="14" lengthAdjust="spacing" textLength="175" x="281" y="71.3145">CourseManagementService</text><rect fill="#E2E2F0" height="45.2813" rx="2.5" ry="2.5" style="stroke:#181818;stroke-width:0.5;" width="189" x="274" y="413.9922"/><text fill="#000000" font-family="FG Virgil" font-size="14" font-style="italic" lengthAdjust="spacing" textLength="84" x="326.5" y="433.666">&#171;application&#187;</text><text fill="#000000" font-family="FG Virgil" font-size="14" lengthAdjust="spacing" textLength="175" x="281" y="449.3066">CourseManagementService</text><rect fill="#E2E2F0" height="45.2813" rx="2.5" ry="2.5" style="stroke:#181818;stroke-width:0.5;" width="136" x="473" y="36"/><text fill="#000000" font-family="FG Virgil" font-size="14" font-style="italic" lengthAdjust="spacing" textLength="89" x="496.5" y="55.6738">&#171;persistence&#187;</text><text fill="#000000" font-family="FG Virgil" font-size="14" lengthAdjust="spacing" textLength="122" x="480" y="71.3145">PersistenceContext</text><rect fill="#E2E2F0" height="45.2813" rx="2.5" ry="2.5" style="stroke:#181818;stroke-width:0.5;" width="136" x="473" y="413.9922"/><text fill="#000000" font-family="FG Virgil" font-size="14" font-style="italic" lengthAdjust="spacing" textLength="89" x="496.5" y="433.666">&#171;persistence&#187;</text><text fill="#000000" font-family="FG Virgil" font-size="14" lengthAdjust="spacing" textLength="122" x="480" y="449.3066">PersistenceContext</text><rect fill="#E2E2F0" height="29.6406" rx="2.5" ry="2.5" style="stroke:#181818;stroke-width:0.5;" width="90" x="657" y="51.6406"/><text fill="#000000" font-family="FG Virgil" font-size="14" lengthAdjust="spacing" textLength="76" x="664" y="71.3145">AppSettings</text><rect fill="#E2E2F0" height="29.6406" rx="2.5" ry="2.5" style="stroke:#181818;stroke-width:0.5;" width="90" x="657" y="413.9922"/><text fill="#000000" font-family="FG Virgil" font-size="14" lengthAdjust="spacing" textLength="76" x="664" y="433.666">AppSettings</text><rect fill="#E2E2F0" height="45.2813" rx="2.5" ry="2.5" style="stroke:#181818;stroke-width:0.5;" width="130" x="757" y="36"/><text fill="#000000" font-family="FG Virgil" font-size="14" font-style="italic" lengthAdjust="spacing" textLength="59" x="792.5" y="55.6738">&#171;factory&#187;</text><text fill="#000000" font-family="FG Virgil" font-size="14" lengthAdjust="spacing" textLength="116" x="764" y="71.3145">RepositoryFactory</text><rect fill="#E2E2F0" height="45.2813" rx="2.5" ry="2.5" style="stroke:#181818;stroke-width:0.5;" width="130" x="757" y="413.9922"/><text fill="#000000" font-family="FG Virgil" font-size="14" font-style="italic" lengthAdjust="spacing" textLength="59" x="792.5" y="433.666">&#171;factory&#187;</text><text fill="#000000" font-family="FG Virgil" font-size="14" lengthAdjust="spacing" textLength="116" x="764" y="449.3066">RepositoryFactory</text><text fill="#000000" font-family="FG Virgil" font-size="14" font-style="italic" lengthAdjust="spacing" textLength="79" x="918" y="63.6738">&#171;repository&#187;</text><text fill="#000000" font-family="FG Virgil" font-size="14" lengthAdjust="spacing" textLength="121" x="897" y="79.3145">CoursesRepository</text><path d="M942.5,15 C942.5,5 960.5,5 960.5,5 C960.5,5 978.5,5 978.5,15 L978.5,41 C978.5,51 960.5,51 960.5,51 C960.5,51 942.5,51 942.5,41 L942.5,15 " fill="#E2E2F0" style="stroke:#181818;stroke-width:1.5;"/><path d="M942.5,15 C942.5,25 960.5,25 960.5,25 C960.5,25 978.5,25 978.5,15 " fill="none" style="stroke:#181818;stroke-width:1.5;"/><text fill="#000000" font-family="FG Virgil" font-size="14" font-style="italic" lengthAdjust="spacing" textLength="79" x="918" y="426.666">&#171;repository&#187;</text><text fill="#000000" font-family="FG Virgil" font-size="14" lengthAdjust="spacing" textLength="121" x="897" y="442.3066">CoursesRepository</text><path d="M942.5,455.2734 C942.5,445.2734 960.5,445.2734 960.5,445.2734 C960.5,445.2734 978.5,445.2734 978.5,455.2734 L978.5,481.2734 C978.5,491.2734 960.5,491.2734 960.5,491.2734 C960.5,491.2734 942.5,491.2734 942.5,481.2734 L942.5,455.2734 " fill="#E2E2F0" style="stroke:#181818;stroke-width:1.5;"/><path d="M942.5,455.2734 C942.5,465.2734 960.5,465.2734 960.5,465.2734 C960.5,465.2734 978.5,465.2734 978.5,455.2734 " fill="none" style="stroke:#181818;stroke-width:1.5;"/><rect fill="#FFFFFF" height="293.1875" style="stroke:#181818;stroke-width:1.0;" width="10" x="363.5" y="112.8047"/><rect fill="#FFFFFF" height="57.0469" style="stroke:#181818;stroke-width:1.0;" width="10" x="536" y="169.8516"/><rect fill="#FFFFFF" height="56.5234" style="stroke:#181818;stroke-width:1.0;" width="10" x="697" y="226.8984"/><rect fill="#FFFFFF" height="14" style="stroke:#181818;stroke-width:1.0;" width="10" x="817" y="255.4219"/><rect fill="#FFFFFF" height="94.0469" style="stroke:#181818;stroke-width:1.0;" width="10" x="817" y="311.9453"/><rect fill="#FFFFFF" height="14" style="stroke:#181818;stroke-width:1.0;" width="10" x="955.5" y="368.9922"/><polygon fill="#181818" points="351.5,108.8047,361.5,112.8047,351.5,116.8047,355.5,112.8047" style="stroke:#181818;stroke-width:1.0;"/><line style="stroke:#181818;stroke-width:1.0;" x1="112.5" x2="357.5" y1="112.8047" y2="112.8047"/><text fill="#000000" font-family="FG Virgil" font-size="13" lengthAdjust="spacing" textLength="36" x="119.5" y="108.0498">create</text><polygon fill="#181818" points="351.5,137.3281,361.5,141.3281,351.5,145.3281,355.5,141.3281" style="stroke:#181818;stroke-width:1.0;"/><line style="stroke:#181818;stroke-width:1.0;" x1="112.5" x2="357.5" y1="141.3281" y2="141.3281"/><text fill="#000000" font-family="FG Virgil" font-size="13" lengthAdjust="spacing" textLength="227" x="119.5" y="136.5732">allCoursesBySystemUser(systemUser)</text><polygon fill="#181818" points="524,165.8516,534,169.8516,524,173.8516,528,169.8516" style="stroke:#181818;stroke-width:1.0;"/><line style="stroke:#181818;stroke-width:1.0;" x1="373.5" x2="530" y1="169.8516" y2="169.8516"/><text fill="#000000" font-family="FG Virgil" font-size="13" lengthAdjust="spacing" textLength="75" x="380.5" y="165.0967">repositories()</text><polygon fill="#181818" points="690,194.375,700,198.375,690,202.375,694,198.375" style="stroke:#181818;stroke-width:1.0;"/><line style="stroke:#181818;stroke-width:1.0;" x1="546" x2="696" y1="198.375" y2="198.375"/><text fill="#000000" font-family="FG Virgil" font-size="13" lengthAdjust="spacing" textLength="57" x="553" y="193.6201">instance()</text><polygon fill="#181818" points="685,222.8984,695,226.8984,685,230.8984,689,226.8984" style="stroke:#181818;stroke-width:1.0;"/><line style="stroke:#181818;stroke-width:1.0;" x1="541" x2="691" y1="226.8984" y2="226.8984"/><text fill="#000000" font-family="FG Virgil" font-size="13" lengthAdjust="spacing" textLength="132" x="548" y="222.1436">getRepositoryFactory()</text><polygon fill="#181818" points="805,251.4219,815,255.4219,805,259.4219,809,255.4219" style="stroke:#181818;stroke-width:1.0;"/><line style="stroke:#181818;stroke-width:1.0;stroke-dasharray:2.0,2.0;" x1="707" x2="811" y1="255.4219" y2="255.4219"/><text fill="#000000" font-family="FG Virgil" font-size="13" lengthAdjust="spacing" textLength="36" x="714" y="250.667">create</text><polygon fill="#181818" points="718,265.4219,708,269.4219,718,273.4219,714,269.4219" style="stroke:#181818;stroke-width:1.0;"/><line style="stroke:#181818;stroke-width:1.0;stroke-dasharray:2.0,2.0;" x1="712" x2="821" y1="269.4219" y2="269.4219"/><polygon fill="#181818" points="384.5,279.4219,374.5,283.4219,384.5,287.4219,380.5,283.4219" style="stroke:#181818;stroke-width:1.0;"/><line style="stroke:#181818;stroke-width:1.0;stroke-dasharray:2.0,2.0;" x1="378.5" x2="701" y1="283.4219" y2="283.4219"/><polygon fill="#181818" points="805,307.9453,815,311.9453,805,315.9453,809,311.9453" style="stroke:#181818;stroke-width:1.0;"/><line style="stroke:#181818;stroke-width:1.0;" x1="373.5" x2="811" y1="311.9453" y2="311.9453"/><text fill="#000000" font-family="FG Virgil" font-size="13" lengthAdjust="spacing" textLength="54" x="380.5" y="307.1904">courses()</text><polygon fill="#181818" points="948.5,336.4688,958.5,340.4688,948.5,344.4688,952.5,340.4688" style="stroke:#181818;stroke-width:1.0;"/><line style="stroke:#181818;stroke-width:1.0;stroke-dasharray:2.0,2.0;" x1="827" x2="954.5" y1="340.4688" y2="340.4688"/><text fill="#000000" font-family="FG Virgil" font-size="13" lengthAdjust="spacing" textLength="54" x="834" y="335.7139">courses()</text><polygon fill="#181818" points="943.5,364.9922,953.5,368.9922,943.5,372.9922,947.5,368.9922" style="stroke:#181818;stroke-width:1.0;"/><line style="stroke:#181818;stroke-width:1.0;" x1="373.5" x2="949.5" y1="368.9922" y2="368.9922"/><text fill="#000000" font-family="FG Virgil" font-size="13" lengthAdjust="spacing" textLength="348" x="380.5" y="364.2373">coursesByteacher = allCoursesBySystemUser(systemUser)</text><polygon fill="#181818" points="384.5,378.9922,374.5,382.9922,384.5,386.9922,380.5,382.9922" style="stroke:#181818;stroke-width:1.0;"/><line style="stroke:#181818;stroke-width:1.0;stroke-dasharray:2.0,2.0;" x1="378.5" x2="959.5" y1="382.9922" y2="382.9922"/><polygon fill="#181818" points="123.5,392.9922,113.5,396.9922,123.5,400.9922,119.5,396.9922" style="stroke:#181818;stroke-width:1.0;"/><line style="stroke:#181818;stroke-width:1.0;stroke-dasharray:2.0,2.0;" x1="117.5" x2="362.5" y1="396.9922" y2="396.9922"/><!--SRC=[ZLB1Rjim3BtxAtHRUqXp3xm0RR7iidR3ZEtEoKmiL9O5aKdhln_LE1QpfiKEXaNolKVoIPywvhXQBgE7mFlUtzYXNzAJ2n4Iz3STzxwQGzD1Q9-JOyPWjk09LIs2VO8TDZnwD0ajgrgBMzXxtWo17w57i_bgVhkqSrgREcY7PnTsat8bQNRMHHdCV7F4jzv_UO6Ulc_lXtqYl1UrD7YFoG0P5TKrnEYT1NP3MA_FX8xK1mWoQe-16qm7Pp4hsDTISx0V2lp0H38C1liw0Bvmvggii6E9_c7VnjWWisn9cKR8P-MV60ToFAHn0pR_CkXqhEljyIIQBJ3y0S9f7oh4p51HNQSv49voQR5M6w-CJGYCbNHm1pcKsWSSy7xgVpSseopS_o9CLpGVhwi2DvcjVLgPUJI7T7LTUYjKfHaY88wjZ0l480dXN2hlaDyOAT0MBpQOa_aov3CBqPbORssP2jNfKXR7fbhy13bf5ISLA7EADsSTZuvgFourBHjgofda1SZTo3939rVv-NzkRvwWI5NgSRsxdOAhYGHTtfA6g-nV]--></g></svg>