<?xml version="1.0" encoding="us-ascii" standalone="no"?><svg xmlns="http://www.w3.org/2000/svg" xmlns:xlink="http://www.w3.org/1999/xlink" contentStyleType="text/css" height="751px" preserveAspectRatio="none" style="width:1280px;height:751px;background:#FFFFFF;" version="1.1" viewBox="0 0 1280 751" width="1280px" zoomAndPan="magnify"><defs/><g><rect fill="#FFFFFF" height="527.8281" style="stroke:#181818;stroke-width:1.0;" width="10" x="208.5" y="112.8047"/><rect fill="#FFFFFF" height="470.7813" style="stroke:#181818;stroke-width:1.0;" width="10" x="408.5" y="141.3281"/><rect fill="#FFFFFF" height="71.4531" style="stroke:#181818;stroke-width:1.0;" width="10" x="664.5" y="169.8516"/><rect fill="#FFFFFF" height="171.1406" style="stroke:#181818;stroke-width:1.0;" width="10" x="857.5" y="412.4453"/><rect fill="#FFFFFF" height="57.0469" style="stroke:#181818;stroke-width:1.0;" width="10" x="1220.5" y="498.0156"/><line style="stroke:#181818;stroke-width:0.5;stroke-dasharray:5.0,5.0;" x1="34" x2="34" y1="82.2813" y2="658.6328"/><line style="stroke:#181818;stroke-width:0.5;stroke-dasharray:5.0,5.0;" x1="213" x2="213" y1="82.2813" y2="658.6328"/><line style="stroke:#181818;stroke-width:0.5;stroke-dasharray:5.0,5.0;" x1="413" x2="413" y1="82.2813" y2="658.6328"/><line style="stroke:#181818;stroke-width:0.5;stroke-dasharray:5.0,5.0;" x1="669" x2="669" y1="82.2813" y2="658.6328"/><line style="stroke:#181818;stroke-width:0.5;stroke-dasharray:5.0,5.0;" x1="862" x2="862" y1="82.2813" y2="658.6328"/><line style="stroke:#181818;stroke-width:0.5;stroke-dasharray:5.0,5.0;" x1="1225.5" x2="1225.5" y1="82.2813" y2="658.6328"/><text fill="#000000" font-family="FG Virgil" font-size="14" lengthAdjust="spacing" textLength="53" x="5" y="79.3145">Teacher</text><ellipse cx="34.5" cy="15.1406" fill="#E2E2F0" rx="8" ry="8" style="stroke:#181818;stroke-width:0.5;"/><path d="M34.5,23.1406 L34.5,50.1406 M21.5,31.1406 L47.5,31.1406 M34.5,50.1406 L21.5,65.1406 M34.5,50.1406 L47.5,65.1406 " fill="none" style="stroke:#181818;stroke-width:0.5;"/><text fill="#000000" font-family="FG Virgil" font-size="14" lengthAdjust="spacing" textLength="53" x="5" y="670.3066">Teacher</text><ellipse cx="34.5" cy="681.7734" fill="#E2E2F0" rx="8" ry="8" style="stroke:#181818;stroke-width:0.5;"/><path d="M34.5,689.7734 L34.5,716.7734 M21.5,697.7734 L47.5,697.7734 M34.5,716.7734 L21.5,731.7734 M34.5,716.7734 L47.5,731.7734 " fill="none" style="stroke:#181818;stroke-width:0.5;"/><rect fill="#E2E2F0" height="45.2813" rx="2.5" ry="2.5" style="stroke:#181818;stroke-width:0.5;" width="165" x="131" y="36"/><text fill="#000000" font-family="FG Virgil" font-size="14" font-style="italic" lengthAdjust="spacing" textLength="95" x="166" y="55.6738">&#171;presentation&#187;</text><text fill="#000000" font-family="FG Virgil" font-size="14" lengthAdjust="spacing" textLength="151" x="138" y="71.3145">ListAllExamsOfCourseUI</text><rect fill="#E2E2F0" height="45.2813" rx="2.5" ry="2.5" style="stroke:#181818;stroke-width:0.5;" width="165" x="131" y="657.6328"/><text fill="#000000" font-family="FG Virgil" font-size="14" font-style="italic" lengthAdjust="spacing" textLength="95" x="166" y="677.3066">&#171;presentation&#187;</text><text fill="#000000" font-family="FG Virgil" font-size="14" lengthAdjust="spacing" textLength="151" x="138" y="692.9473">ListAllExamsOfCourseUI</text><rect fill="#E2E2F0" height="45.2813" rx="2.5" ry="2.5" style="stroke:#181818;stroke-width:0.5;" width="215" x="306" y="36"/><text fill="#000000" font-family="FG Virgil" font-size="14" font-style="italic" lengthAdjust="spacing" textLength="84" x="371.5" y="55.6738">&#171;application&#187;</text><text fill="#000000" font-family="FG Virgil" font-size="14" lengthAdjust="spacing" textLength="201" x="313" y="71.3145">ListAllExamsOfCourseController</text><rect fill="#E2E2F0" height="45.2813" rx="2.5" ry="2.5" style="stroke:#181818;stroke-width:0.5;" width="215" x="306" y="657.6328"/><text fill="#000000" font-family="FG Virgil" font-size="14" font-style="italic" lengthAdjust="spacing" textLength="84" x="371.5" y="677.3066">&#171;application&#187;</text><text fill="#000000" font-family="FG Virgil" font-size="14" lengthAdjust="spacing" textLength="201" x="313" y="692.9473">ListAllExamsOfCourseController</text><rect fill="#E2E2F0" height="45.2813" rx="2.5" ry="2.5" style="stroke:#181818;stroke-width:0.5;" width="189" x="575" y="36"/><text fill="#000000" font-family="FG Virgil" font-size="14" font-style="italic" lengthAdjust="spacing" textLength="84" x="627.5" y="55.6738">&#171;application&#187;</text><text fill="#000000" font-family="FG Virgil" font-size="14" lengthAdjust="spacing" textLength="175" x="582" y="71.3145">CourseManagementService</text><rect fill="#E2E2F0" height="45.2813" rx="2.5" ry="2.5" style="stroke:#181818;stroke-width:0.5;" width="189" x="575" y="657.6328"/><text fill="#000000" font-family="FG Virgil" font-size="14" font-style="italic" lengthAdjust="spacing" textLength="84" x="627.5" y="677.3066">&#171;application&#187;</text><text fill="#000000" font-family="FG Virgil" font-size="14" lengthAdjust="spacing" textLength="175" x="582" y="692.9473">CourseManagementService</text><rect fill="#E2E2F0" height="45.2813" rx="2.5" ry="2.5" style="stroke:#181818;stroke-width:0.5;" width="177" x="774" y="36"/><text fill="#000000" font-family="FG Virgil" font-size="14" font-style="italic" lengthAdjust="spacing" textLength="84" x="820.5" y="55.6738">&#171;application&#187;</text><text fill="#000000" font-family="FG Virgil" font-size="14" lengthAdjust="spacing" textLength="163" x="781" y="71.3145">ExamManagementService</text><rect fill="#E2E2F0" height="45.2813" rx="2.5" ry="2.5" style="stroke:#181818;stroke-width:0.5;" width="177" x="774" y="657.6328"/><text fill="#000000" font-family="FG Virgil" font-size="14" font-style="italic" lengthAdjust="spacing" textLength="84" x="820.5" y="677.3066">&#171;application&#187;</text><text fill="#000000" font-family="FG Virgil" font-size="14" lengthAdjust="spacing" textLength="163" x="781" y="692.9473">ExamManagementService</text><text fill="#000000" font-family="FG Virgil" font-size="14" font-style="italic" lengthAdjust="spacing" textLength="79" x="1183" y="63.6738">&#171;repository&#187;</text><text fill="#000000" font-family="FG Virgil" font-size="14" lengthAdjust="spacing" textLength="102" x="1171.5" y="79.3145">ExamRepository</text><path d="M1207.5,15 C1207.5,5 1225.5,5 1225.5,5 C1225.5,5 1243.5,5 1243.5,15 L1243.5,41 C1243.5,51 1225.5,51 1225.5,51 C1225.5,51 1207.5,51 1207.5,41 L1207.5,15 " fill="#E2E2F0" style="stroke:#181818;stroke-width:1.5;"/><path d="M1207.5,15 C1207.5,25 1225.5,25 1225.5,25 C1225.5,25 1243.5,25 1243.5,15 " fill="none" style="stroke:#181818;stroke-width:1.5;"/><text fill="#000000" font-family="FG Virgil" font-size="14" font-style="italic" lengthAdjust="spacing" textLength="79" x="1183" y="670.3066">&#171;repository&#187;</text><text fill="#000000" font-family="FG Virgil" font-size="14" lengthAdjust="spacing" textLength="102" x="1171.5" y="685.9473">ExamRepository</text><path d="M1207.5,698.9141 C1207.5,688.9141 1225.5,688.9141 1225.5,688.9141 C1225.5,688.9141 1243.5,688.9141 1243.5,698.9141 L1243.5,724.9141 C1243.5,734.9141 1225.5,734.9141 1225.5,734.9141 C1225.5,734.9141 1207.5,734.9141 1207.5,724.9141 L1207.5,698.9141 " fill="#E2E2F0" style="stroke:#181818;stroke-width:1.5;"/><path d="M1207.5,698.9141 C1207.5,708.9141 1225.5,708.9141 1225.5,708.9141 C1225.5,708.9141 1243.5,708.9141 1243.5,698.9141 " fill="none" style="stroke:#181818;stroke-width:1.5;"/><rect fill="#FFFFFF" height="527.8281" style="stroke:#181818;stroke-width:1.0;" width="10" x="208.5" y="112.8047"/><rect fill="#FFFFFF" height="470.7813" style="stroke:#181818;stroke-width:1.0;" width="10" x="408.5" y="141.3281"/><rect fill="#FFFFFF" height="71.4531" style="stroke:#181818;stroke-width:1.0;" width="10" x="664.5" y="169.8516"/><rect fill="#FFFFFF" height="171.1406" style="stroke:#181818;stroke-width:1.0;" width="10" x="857.5" y="412.4453"/><rect fill="#FFFFFF" height="57.0469" style="stroke:#181818;stroke-width:1.0;" width="10" x="1220.5" y="498.0156"/><polygon fill="#181818" points="196.5,108.8047,206.5,112.8047,196.5,116.8047,200.5,112.8047" style="stroke:#181818;stroke-width:1.0;"/><line style="stroke:#181818;stroke-width:1.0;" x1="34.5" x2="202.5" y1="112.8047" y2="112.8047"/><text fill="#000000" font-family="FG Virgil" font-size="13" lengthAdjust="spacing" textLength="155" x="41.5" y="108.0498">List All Exams of a Course</text><polygon fill="#181818" points="396.5,137.3281,406.5,141.3281,396.5,145.3281,400.5,141.3281" style="stroke:#181818;stroke-width:1.0;"/><line style="stroke:#181818;stroke-width:1.0;" x1="218.5" x2="402.5" y1="141.3281" y2="141.3281"/><text fill="#000000" font-family="FG Virgil" font-size="13" lengthAdjust="spacing" textLength="44" x="225.5" y="136.5732">create()</text><polygon fill="#181818" points="652.5,165.8516,662.5,169.8516,652.5,173.8516,656.5,169.8516" style="stroke:#181818;stroke-width:1.0;"/><line style="stroke:#181818;stroke-width:1.0;" x1="418.5" x2="658.5" y1="169.8516" y2="169.8516"/><text fill="#000000" font-family="FG Virgil" font-size="13" lengthAdjust="spacing" textLength="227" x="425.5" y="165.0967">allCoursesBySystemUser(systemUser)</text><rect fill="none" height="37.9297" style="stroke:#000000;stroke-width:1.5;" width="195" x="572" y="177.8516"/><path d="M572,177.8516 L634,177.8516 L634,183.8516 L624,193.8516 L572,193.8516 L572,177.8516 " fill="#EEEEEE" style="stroke:#000000;stroke-width:2.0;"/><text fill="#000000" font-family="FG Virgil" font-size="13" font-weight="bold" lengthAdjust="spacing" textLength="17" x="585" y="191.6201">ref</text><text fill="#000000" font-family="FG Virgil" font-size="12" lengthAdjust="spacing" textLength="173" x="583" y="208.7148">SD_ListCoursesBySystemUser</text><polygon fill="#181818" points="429.5,237.3047,419.5,241.3047,429.5,245.3047,425.5,241.3047" style="stroke:#181818;stroke-width:1.0;"/><line style="stroke:#181818;stroke-width:1.0;stroke-dasharray:2.0,2.0;" x1="423.5" x2="668.5" y1="241.3047" y2="241.3047"/><text fill="#000000" font-family="FG Virgil" font-size="13" lengthAdjust="spacing" textLength="46" x="435.5" y="236.5498">courses</text><polygon fill="#181818" points="229.5,265.8281,219.5,269.8281,229.5,273.8281,225.5,269.8281" style="stroke:#181818;stroke-width:1.0;"/><line style="stroke:#181818;stroke-width:1.0;stroke-dasharray:2.0,2.0;" x1="223.5" x2="407.5" y1="269.8281" y2="269.8281"/><text fill="#000000" font-family="FG Virgil" font-size="13" lengthAdjust="spacing" textLength="46" x="235.5" y="265.0732">courses</text><polygon fill="#181818" points="45.5,294.3516,35.5,298.3516,45.5,302.3516,41.5,298.3516" style="stroke:#181818;stroke-width:1.0;"/><line style="stroke:#181818;stroke-width:1.0;stroke-dasharray:2.0,2.0;" x1="39.5" x2="207.5" y1="298.3516" y2="298.3516"/><text fill="#000000" font-family="FG Virgil" font-size="13" lengthAdjust="spacing" textLength="124" x="51.5" y="293.5967">Shows list of courses</text><polygon fill="#181818" points="45.5,322.875,35.5,326.875,45.5,330.875,41.5,326.875" style="stroke:#181818;stroke-width:1.0;"/><line style="stroke:#181818;stroke-width:1.0;stroke-dasharray:2.0,2.0;" x1="39.5" x2="207.5" y1="326.875" y2="326.875"/><text fill="#000000" font-family="FG Virgil" font-size="13" lengthAdjust="spacing" textLength="138" x="51.5" y="322.1201">Asks to select a course</text><polygon fill="#181818" points="196.5,351.3984,206.5,355.3984,196.5,359.3984,200.5,355.3984" style="stroke:#181818;stroke-width:1.0;"/><line style="stroke:#181818;stroke-width:1.0;" x1="34.5" x2="202.5" y1="355.3984" y2="355.3984"/><text fill="#000000" font-family="FG Virgil" font-size="13" lengthAdjust="spacing" textLength="98" x="41.5" y="350.6436">Selects a course</text><polygon fill="#181818" points="396.5,379.9219,406.5,383.9219,396.5,387.9219,400.5,383.9219" style="stroke:#181818;stroke-width:1.0;"/><line style="stroke:#181818;stroke-width:1.0;" x1="218.5" x2="402.5" y1="383.9219" y2="383.9219"/><text fill="#000000" font-family="FG Virgil" font-size="13" lengthAdjust="spacing" textLength="39" x="225.5" y="379.167">course</text><polygon fill="#181818" points="845.5,408.4453,855.5,412.4453,845.5,416.4453,849.5,412.4453" style="stroke:#181818;stroke-width:1.0;"/><line style="stroke:#181818;stroke-width:1.0;" x1="418.5" x2="851.5" y1="412.4453" y2="412.4453"/><text fill="#000000" font-family="FG Virgil" font-size="13" lengthAdjust="spacing" textLength="36" x="425.5" y="407.6904">create</text><polygon fill="#181818" points="845.5,436.9688,855.5,440.9688,845.5,444.9688,849.5,440.9688" style="stroke:#181818;stroke-width:1.0;"/><line style="stroke:#181818;stroke-width:1.0;" x1="418.5" x2="851.5" y1="440.9688" y2="440.9688"/><text fill="#000000" font-family="FG Virgil" font-size="13" lengthAdjust="spacing" textLength="158" x="425.5" y="436.2139">allExamsByCourse(course)</text><polygon fill="#181818" points="845.5,465.4922,855.5,469.4922,845.5,473.4922,849.5,469.4922" style="stroke:#181818;stroke-width:1.0;"/><line style="stroke:#181818;stroke-width:1.0;" x1="418.5" x2="851.5" y1="469.4922" y2="469.4922"/><text fill="#000000" font-family="FG Virgil" font-size="13" lengthAdjust="spacing" textLength="214" x="425.5" y="464.7373">allFormativeExamsByCourse(course)</text><polygon fill="#181818" points="1208.5,494.0156,1218.5,498.0156,1208.5,502.0156,1212.5,498.0156" style="stroke:#181818;stroke-width:1.0;"/><line style="stroke:#181818;stroke-width:1.0;" x1="867.5" x2="1214.5" y1="498.0156" y2="498.0156"/><text fill="#000000" font-family="FG Virgil" font-size="13" lengthAdjust="spacing" textLength="261" x="874.5" y="493.2607">regularExams = findExamsByCourse(course)</text><polygon fill="#181818" points="1208.5,522.5391,1218.5,526.5391,1208.5,530.5391,1212.5,526.5391" style="stroke:#181818;stroke-width:1.0;"/><line style="stroke:#181818;stroke-width:1.0;" x1="867.5" x2="1214.5" y1="526.5391" y2="526.5391"/><text fill="#000000" font-family="FG Virgil" font-size="13" lengthAdjust="spacing" textLength="329" x="874.5" y="521.7842">formativeExams = findFormativeExamsByCourse(course)</text><polygon fill="#181818" points="878.5,551.0625,868.5,555.0625,878.5,559.0625,874.5,555.0625" style="stroke:#181818;stroke-width:1.0;"/><line style="stroke:#181818;stroke-width:1.0;stroke-dasharray:2.0,2.0;" x1="872.5" x2="1224.5" y1="555.0625" y2="555.0625"/><text fill="#000000" font-family="FG Virgil" font-size="13" lengthAdjust="spacing" textLength="39" x="884.5" y="550.3076">exams</text><polygon fill="#181818" points="429.5,579.5859,419.5,583.5859,429.5,587.5859,425.5,583.5859" style="stroke:#181818;stroke-width:1.0;"/><line style="stroke:#181818;stroke-width:1.0;stroke-dasharray:2.0,2.0;" x1="423.5" x2="861.5" y1="583.5859" y2="583.5859"/><text fill="#000000" font-family="FG Virgil" font-size="13" lengthAdjust="spacing" textLength="39" x="435.5" y="578.8311">exams</text><polygon fill="#181818" points="229.5,608.1094,219.5,612.1094,229.5,616.1094,225.5,612.1094" style="stroke:#181818;stroke-width:1.0;"/><line style="stroke:#181818;stroke-width:1.0;stroke-dasharray:2.0,2.0;" x1="223.5" x2="412.5" y1="612.1094" y2="612.1094"/><text fill="#000000" font-family="FG Virgil" font-size="13" lengthAdjust="spacing" textLength="39" x="235.5" y="607.3545">exams</text><polygon fill="#181818" points="45.5,636.6328,35.5,640.6328,45.5,644.6328,41.5,640.6328" style="stroke:#181818;stroke-width:1.0;"/><line style="stroke:#181818;stroke-width:1.0;stroke-dasharray:2.0,2.0;" x1="39.5" x2="212.5" y1="640.6328" y2="640.6328"/><text fill="#000000" font-family="FG Virgil" font-size="13" lengthAdjust="spacing" textLength="134" x="51.5" y="635.8779">Shows list of all exams</text><!--SRC=[XLJ1Zfim4Btp5RurUyZcZcYaxBQf8kssKcbwhQPc25OCHXw7bB_l00aOGh8NP7lUUtv-7lCfSwuCLwjIG-5EkNwM9b_HKHKbMCYVCvVhe9-A38haR9LpM8WKDA5NAq4UuO2ngpKAYz9vjGHJE6ctDONx3ZcAxJVnMzc3yhKfWyISLN6uA0SWdR7Y5uBCq0eWiMaM0aOx9LN9ViMR8hVH-ki_oEb7-cfEbd2_Qx3yZQBI8c7Xm2bJhDSVCb_PdZLQTxjvioY2ijHApWbrr7Se-EmvRnQZhPJ4Ha6sfRYI3mKQ2xDqvC8SEG47Vu6mPVx4qf3YNEg6Cbc98jjFc1Yq0OhbcjC9smG4Hz2II9XKmEKmJVAg0eUC2pX89WnXX49QvDhYQO0DrS1BZMb30g40hJjvUgdZcXpcUqAxe7xe2VQym68gJCLglbJyvK_ZVaOk663BaMrcTIKA4fpPn_VT1kGHcWXuhKkFTy_CcOHkukFGxe0sT2JXZ23K_1GusWutleAuBT9GdORTcvZaUcsDwsKCoLqgT_5mwVcNkajlqUa_FI9iZSsv-IgSPrwnJ1ltNyY_WSD9W-qwxBD8LP7CQ_J-nmgFjDEHgulw1rOdxsCvd3Hi1wFck6TbyXnkU7DNS6sf6x3tTFOxXhNzCUqnleDRvdxt7m00]--></g></svg>