<?xml version="1.0" encoding="us-ascii" standalone="no"?><svg xmlns="http://www.w3.org/2000/svg" xmlns:xlink="http://www.w3.org/1999/xlink" contentStyleType="text/css" height="979px" preserveAspectRatio="none" style="width:1385px;height:979px;background:#FFFFFF;" version="1.1" viewBox="0 0 1385 979" width="1385px" zoomAndPan="magnify"><defs/><g><!--cluster presentation--><g id="cluster_presentation"><path d="M393.5,6 L484.5,6 A3.75,3.75 0 0 1 487,8.5 L494,27.6406 L742.5,27.6406 A2.5,2.5 0 0 1 745,30.1406 L745,139.5 A2.5,2.5 0 0 1 742.5,142 L393.5,142 A2.5,2.5 0 0 1 391,139.5 L391,8.5 A2.5,2.5 0 0 1 393.5,6 " fill="#DDDDDD" style="stroke:#000000;stroke-width:1.5;"/><line style="stroke:#000000;stroke-width:1.5;" x1="391" x2="494" y1="27.6406" y2="27.6406"/><text fill="#000000" font-family="sans-serif" font-size="14" font-weight="bold" lengthAdjust="spacing" textLength="90" x="395" y="20.6738">presentation</text></g><!--cluster domain--><g id="cluster_domain"><path d="M613.5,551 L665.5,551 A3.75,3.75 0 0 1 668,553.5 L675,572.6406 L1375.5,572.6406 A2.5,2.5 0 0 1 1378,575.1406 L1378,969.5 A2.5,2.5 0 0 1 1375.5,972 L613.5,972 A2.5,2.5 0 0 1 611,969.5 L611,553.5 A2.5,2.5 0 0 1 613.5,551 " fill="#DBD8AE" style="stroke:#000000;stroke-width:1.5;"/><line style="stroke:#000000;stroke-width:1.5;" x1="611" x2="675" y1="572.6406" y2="572.6406"/><text fill="#000000" font-family="sans-serif" font-size="14" font-weight="bold" lengthAdjust="spacing" textLength="51" x="615" y="565.6738">domain</text></g><!--cluster persistence--><g id="cluster_persistence"><path d="M8.5,589 L93.5,589 A3.75,3.75 0 0 1 96,591.5 L103,610.6406 L534.5,610.6406 A2.5,2.5 0 0 1 537,613.1406 L537,722.5 A2.5,2.5 0 0 1 534.5,725 L8.5,725 A2.5,2.5 0 0 1 6,722.5 L6,591.5 A2.5,2.5 0 0 1 8.5,589 " fill="#DBD8AE" style="stroke:#000000;stroke-width:1.5;"/><line style="stroke:#000000;stroke-width:1.5;" x1="6" x2="103" y1="610.6406" y2="610.6406"/><text fill="#000000" font-family="sans-serif" font-size="14" font-weight="bold" lengthAdjust="spacing" textLength="84" x="10" y="603.6738">persistence</text></g><!--cluster application--><g id="cluster_application"><path d="M123.5,166 L201.5,166 A3.75,3.75 0 0 1 204,168.5 L211,187.6406 L721.5,187.6406 A2.5,2.5 0 0 1 724,190.1406 L724,524.5 A2.5,2.5 0 0 1 721.5,527 L123.5,527 A2.5,2.5 0 0 1 121,524.5 L121,168.5 A2.5,2.5 0 0 1 123.5,166 " fill="#EAF4D3" style="stroke:#000000;stroke-width:1.5;"/><line style="stroke:#000000;stroke-width:1.5;" x1="121" x2="211" y1="187.6406" y2="187.6406"/><text fill="#000000" font-family="sans-serif" font-size="14" font-weight="bold" lengthAdjust="spacing" textLength="77" x="125" y="180.6738">application</text></g><!--class ListAllExamsOfCourseUI--><g id="elem_ListAllExamsOfCourseUI"><rect codeLine="4" fill="#F1F1F1" height="86.3281" id="ListAllExamsOfCourseUI" rx="2.5" ry="2.5" style="stroke:#181818;stroke-width:0.5;" width="321" x="407.5" y="40"/><ellipse cx="488.25" cy="59.5234" fill="#ADD1B2" rx="11" ry="11" style="stroke:#181818;stroke-width:1.0;"/><path d="M491.0156,55.3984 Q491.1719,55.1797 491.3594,55.0703 Q491.5469,54.9609 491.7656,54.9609 Q492.1406,54.9609 492.375,55.2266 Q492.6094,55.4766 492.6094,56.0859 L492.6094,57.5391 Q492.6094,58.1484 492.375,58.4141 Q492.1406,58.6797 491.7656,58.6797 Q491.4219,58.6797 491.2188,58.4766 Q491.0156,58.2891 490.9063,57.7734 Q490.8594,57.4141 490.6719,57.2266 Q490.3438,56.8516 489.7344,56.6328 Q489.125,56.4141 488.5,56.4141 Q487.7344,56.4141 487.0938,56.7422 Q486.4688,57.0703 485.9688,57.8203 Q485.4844,58.5703 485.4844,59.6016 L485.4844,60.6953 Q485.4844,61.9297 486.375,62.7578 Q487.2656,63.5703 488.8594,63.5703 Q489.7969,63.5703 490.4531,63.3203 Q490.8438,63.1641 491.2656,62.7266 Q491.5313,62.4609 491.6719,62.3828 Q491.8281,62.3047 492.0313,62.3047 Q492.3594,62.3047 492.6094,62.5703 Q492.875,62.8203 492.875,63.1641 Q492.875,63.5078 492.5313,63.9141 Q492.0313,64.4922 491.2344,64.8203 Q490.1563,65.2734 488.8594,65.2734 Q487.3438,65.2734 486.1406,64.6484 Q485.1563,64.1484 484.4688,63.0859 Q483.7813,62.0078 483.7813,60.7266 L483.7813,59.5703 Q483.7813,58.2422 484.3906,57.1016 Q485.0156,55.9453 486.1094,55.3359 Q487.2031,54.7109 488.4375,54.7109 Q489.1719,54.7109 489.8125,54.8828 Q490.4688,55.0391 491.0156,55.3984 Z " fill="#000000"/><text fill="#000000" font-family="sans-serif" font-size="12" font-style="italic" lengthAdjust="spacing" textLength="24" x="572.25" y="55.8633">&#171;ui&#187;</text><text fill="#000000" font-family="sans-serif" font-size="14" lengthAdjust="spacing" textLength="151" x="508.75" y="71.0801">ListAllExamsOfCourseUI</text><line style="stroke:#181818;stroke-width:0.5;" x1="408.5" x2="727.5" y1="79.0469" y2="79.0469"/><rect fill="none" height="6" style="stroke:#C82930;stroke-width:1.0;" width="6" x="415.5" y="89.3672"/><text fill="#000000" font-family="sans-serif" font-size="14" lengthAdjust="spacing" textLength="295" x="427.5" y="95.7207">theController : ListAllExamsOfCourseController</text><line style="stroke:#181818;stroke-width:0.5;" x1="408.5" x2="727.5" y1="102.6875" y2="102.6875"/><ellipse cx="418.5" cy="116.0078" fill="#84BE84" rx="3" ry="3" style="stroke:#038048;stroke-width:1.0;"/><text fill="#000000" font-family="sans-serif" font-size="14" lengthAdjust="spacing" textLength="60" x="427.5" y="119.3613">doShow()</text></g><!--class Exam--><g id="elem_Exam"><rect codeLine="11" fill="#F1F1F1" height="162.2969" id="Exam" rx="2.5" ry="2.5" style="stroke:#181818;stroke-width:0.5;" width="460" x="627" y="585"/><ellipse cx="807.75" cy="611.2266" fill="#ADD1B2" rx="11" ry="11" style="stroke:#181818;stroke-width:1.0;"/><path d="M810.5156,607.1016 Q810.6719,606.8828 810.8594,606.7734 Q811.0469,606.6641 811.2656,606.6641 Q811.6406,606.6641 811.875,606.9297 Q812.1094,607.1797 812.1094,607.7891 L812.1094,609.2422 Q812.1094,609.8516 811.875,610.1172 Q811.6406,610.3828 811.2656,610.3828 Q810.9219,610.3828 810.7188,610.1797 Q810.5156,609.9922 810.4063,609.4766 Q810.3594,609.1172 810.1719,608.9297 Q809.8438,608.5547 809.2344,608.3359 Q808.625,608.1172 808,608.1172 Q807.2344,608.1172 806.5938,608.4453 Q805.9688,608.7734 805.4688,609.5234 Q804.9844,610.2734 804.9844,611.3047 L804.9844,612.3984 Q804.9844,613.6328 805.875,614.4609 Q806.7656,615.2734 808.3594,615.2734 Q809.2969,615.2734 809.9531,615.0234 Q810.3438,614.8672 810.7656,614.4297 Q811.0313,614.1641 811.1719,614.0859 Q811.3281,614.0078 811.5313,614.0078 Q811.8594,614.0078 812.1094,614.2734 Q812.375,614.5234 812.375,614.8672 Q812.375,615.2109 812.0313,615.6172 Q811.5313,616.1953 810.7344,616.5234 Q809.6563,616.9766 808.3594,616.9766 Q806.8438,616.9766 805.6406,616.3516 Q804.6563,615.8516 803.9688,614.7891 Q803.2813,613.7109 803.2813,612.4297 L803.2813,611.2734 Q803.2813,609.9453 803.8906,608.8047 Q804.5156,607.6484 805.6094,607.0391 Q806.7031,606.4141 807.9375,606.4141 Q808.6719,606.4141 809.3125,606.5859 Q809.9688,606.7422 810.5156,607.1016 Z " fill="#000000"/><text fill="#000000" font-family="sans-serif" font-size="12" font-style="italic" lengthAdjust="spacing" textLength="94" x="826.25" y="600.8633">&#171;aggregate root&#187;</text><text fill="#000000" font-family="sans-serif" font-size="12" font-style="italic" lengthAdjust="spacing" textLength="43" x="851.75" y="614.2695">&#171;entity&#187;</text><text fill="#000000" font-family="sans-serif" font-size="14" lengthAdjust="spacing" textLength="34" x="856.25" y="629.4863">Exam</text><line style="stroke:#181818;stroke-width:0.5;" x1="628" x2="1086" y1="637.4531" y2="637.4531"/><rect fill="none" height="6" style="stroke:#C82930;stroke-width:1.0;" width="6" x="635" y="647.7734"/><text fill="#000000" font-family="sans-serif" font-size="14" lengthAdjust="spacing" textLength="133" x="647" y="654.127">examTitle : ExamTitle</text><rect fill="none" height="6" style="stroke:#C82930;stroke-width:1.0;" width="6" x="635" y="663.4141"/><text fill="#000000" font-family="sans-serif" font-size="14" lengthAdjust="spacing" textLength="221" x="647" y="669.7676">examDescription : ExamDescription</text><rect fill="none" height="6" style="stroke:#C82930;stroke-width:1.0;" width="6" x="635" y="679.0547"/><text fill="#000000" font-family="sans-serif" font-size="14" lengthAdjust="spacing" textLength="153" x="647" y="685.4082">examDates : ExamDates</text><rect fill="none" height="6" style="stroke:#C82930;stroke-width:1.0;" width="6" x="635" y="694.6953"/><text fill="#000000" font-family="sans-serif" font-size="14" lengthAdjust="spacing" textLength="171" x="647" y="701.0488">examHeader : ExamHeader</text><rect fill="none" height="6" style="stroke:#C82930;stroke-width:1.0;" width="6" x="635" y="710.3359"/><text fill="#000000" font-family="sans-serif" font-size="14" lengthAdjust="spacing" textLength="142" x="647" y="716.6895">section : List&lt;Section&gt;</text><line style="stroke:#181818;stroke-width:0.5;" x1="628" x2="1086" y1="723.6563" y2="723.6563"/><ellipse cx="638" cy="736.9766" fill="#84BE84" rx="3" ry="3" style="stroke:#038048;stroke-width:1.0;"/><text fill="#000000" font-family="sans-serif" font-size="14" lengthAdjust="spacing" textLength="434" x="647" y="740.3301">Exam(examTitle, examDates, examDescription, section, examHeader)</text></g><!--class AutomaticFormativeExam--><g id="elem_AutomaticFormativeExam"><rect codeLine="20" fill="#F1F1F1" height="148.8906" id="AutomaticFormativeExam" rx="2.5" ry="2.5" style="stroke:#181818;stroke-width:0.5;" width="592" x="627" y="807"/><ellipse cx="839.25" cy="826.5234" fill="#ADD1B2" rx="11" ry="11" style="stroke:#181818;stroke-width:1.0;"/><path d="M842.0156,822.3984 Q842.1719,822.1797 842.3594,822.0703 Q842.5469,821.9609 842.7656,821.9609 Q843.1406,821.9609 843.375,822.2266 Q843.6094,822.4766 843.6094,823.0859 L843.6094,824.5391 Q843.6094,825.1484 843.375,825.4141 Q843.1406,825.6797 842.7656,825.6797 Q842.4219,825.6797 842.2188,825.4766 Q842.0156,825.2891 841.9063,824.7734 Q841.8594,824.4141 841.6719,824.2266 Q841.3438,823.8516 840.7344,823.6328 Q840.125,823.4141 839.5,823.4141 Q838.7344,823.4141 838.0938,823.7422 Q837.4688,824.0703 836.9688,824.8203 Q836.4844,825.5703 836.4844,826.6016 L836.4844,827.6953 Q836.4844,828.9297 837.375,829.7578 Q838.2656,830.5703 839.8594,830.5703 Q840.7969,830.5703 841.4531,830.3203 Q841.8438,830.1641 842.2656,829.7266 Q842.5313,829.4609 842.6719,829.3828 Q842.8281,829.3047 843.0313,829.3047 Q843.3594,829.3047 843.6094,829.5703 Q843.875,829.8203 843.875,830.1641 Q843.875,830.5078 843.5313,830.9141 Q843.0313,831.4922 842.2344,831.8203 Q841.1563,832.2734 839.8594,832.2734 Q838.3438,832.2734 837.1406,831.6484 Q836.1563,831.1484 835.4688,830.0859 Q834.7813,829.0078 834.7813,827.7266 L834.7813,826.5703 Q834.7813,825.2422 835.3906,824.1016 Q836.0156,822.9453 837.1094,822.3359 Q838.2031,821.7109 839.4375,821.7109 Q840.1719,821.7109 840.8125,821.8828 Q841.4688,822.0391 842.0156,822.3984 Z " fill="#000000"/><text fill="#000000" font-family="sans-serif" font-size="12" font-style="italic" lengthAdjust="spacing" textLength="43" x="917.75" y="822.8633">&#171;entity&#187;</text><text fill="#000000" font-family="sans-serif" font-size="14" lengthAdjust="spacing" textLength="159" x="859.75" y="838.0801">AutomaticFormativeExam</text><line style="stroke:#181818;stroke-width:0.5;" x1="628" x2="1218" y1="846.0469" y2="846.0469"/><rect fill="none" height="6" style="stroke:#C82930;stroke-width:1.0;" width="6" x="635" y="856.3672"/><text fill="#000000" font-family="sans-serif" font-size="14" lengthAdjust="spacing" textLength="133" x="647" y="862.7207">examTitle : ExamTitle</text><rect fill="none" height="6" style="stroke:#C82930;stroke-width:1.0;" width="6" x="635" y="872.0078"/><text fill="#000000" font-family="sans-serif" font-size="14" lengthAdjust="spacing" textLength="221" x="647" y="878.3613">examDescription : ExamDescription</text><rect fill="none" height="6" style="stroke:#C82930;stroke-width:1.0;" width="6" x="635" y="887.6484"/><text fill="#000000" font-family="sans-serif" font-size="14" lengthAdjust="spacing" textLength="142" x="647" y="894.002">section : List&lt;Section&gt;</text><rect fill="none" height="6" style="stroke:#C82930;stroke-width:1.0;" width="6" x="635" y="903.2891"/><text fill="#000000" font-family="sans-serif" font-size="14" lengthAdjust="spacing" textLength="171" x="647" y="909.6426">examHeader : ExamHeader</text><rect fill="none" height="6" style="stroke:#C82930;stroke-width:1.0;" width="6" x="635" y="918.9297"/><text fill="#000000" font-family="sans-serif" font-size="14" lengthAdjust="spacing" textLength="169" x="647" y="925.2832">courseCode : CourseCode</text><line style="stroke:#181818;stroke-width:0.5;" x1="628" x2="1218" y1="932.25" y2="932.25"/><ellipse cx="638" cy="945.5703" fill="#84BE84" rx="3" ry="3" style="stroke:#038048;stroke-width:1.0;"/><text fill="#000000" font-family="sans-serif" font-size="14" lengthAdjust="spacing" textLength="566" x="647" y="948.9238">AutomaticFormativeExam(examTitle, examDescription, section, examHeader, courseCode)</text></g><!--class ExamDates--><g id="elem_ExamDates"><rect codeLine="29" fill="#F1F1F1" height="101.9688" id="ExamDates" rx="2.5" ry="2.5" style="stroke:#181818;stroke-width:0.5;" width="240" x="1122" y="615"/><ellipse cx="1199.25" cy="634.5234" fill="#ADD1B2" rx="11" ry="11" style="stroke:#181818;stroke-width:1.0;"/><path d="M1202.0156,630.3984 Q1202.1719,630.1797 1202.3594,630.0703 Q1202.5469,629.9609 1202.7656,629.9609 Q1203.1406,629.9609 1203.375,630.2266 Q1203.6094,630.4766 1203.6094,631.0859 L1203.6094,632.5391 Q1203.6094,633.1484 1203.375,633.4141 Q1203.1406,633.6797 1202.7656,633.6797 Q1202.4219,633.6797 1202.2188,633.4766 Q1202.0156,633.2891 1201.9063,632.7734 Q1201.8594,632.4141 1201.6719,632.2266 Q1201.3438,631.8516 1200.7344,631.6328 Q1200.125,631.4141 1199.5,631.4141 Q1198.7344,631.4141 1198.0938,631.7422 Q1197.4688,632.0703 1196.9688,632.8203 Q1196.4844,633.5703 1196.4844,634.6016 L1196.4844,635.6953 Q1196.4844,636.9297 1197.375,637.7578 Q1198.2656,638.5703 1199.8594,638.5703 Q1200.7969,638.5703 1201.4531,638.3203 Q1201.8438,638.1641 1202.2656,637.7266 Q1202.5313,637.4609 1202.6719,637.3828 Q1202.8281,637.3047 1203.0313,637.3047 Q1203.3594,637.3047 1203.6094,637.5703 Q1203.875,637.8203 1203.875,638.1641 Q1203.875,638.5078 1203.5313,638.9141 Q1203.0313,639.4922 1202.2344,639.8203 Q1201.1563,640.2734 1199.8594,640.2734 Q1198.3438,640.2734 1197.1406,639.6484 Q1196.1563,639.1484 1195.4688,638.0859 Q1194.7813,637.0078 1194.7813,635.7266 L1194.7813,634.5703 Q1194.7813,633.2422 1195.3906,632.1016 Q1196.0156,630.9453 1197.1094,630.3359 Q1198.2031,629.7109 1199.4375,629.7109 Q1200.1719,629.7109 1200.8125,629.8828 Q1201.4688,630.0391 1202.0156,630.3984 Z " fill="#000000"/><text fill="#000000" font-family="sans-serif" font-size="12" font-style="italic" lengthAdjust="spacing" textLength="81" x="1217.75" y="630.8633">&#171;value object&#187;</text><text fill="#000000" font-family="sans-serif" font-size="14" lengthAdjust="spacing" textLength="71" x="1222.75" y="646.0801">ExamDates</text><line style="stroke:#181818;stroke-width:0.5;" x1="1123" x2="1361" y1="654.0469" y2="654.0469"/><rect fill="none" height="6" style="stroke:#C82930;stroke-width:1.0;" width="6" x="1130" y="664.3672"/><text fill="#000000" font-family="sans-serif" font-size="14" lengthAdjust="spacing" textLength="132" x="1142" y="670.7207">openDate : Calendar</text><rect fill="none" height="6" style="stroke:#C82930;stroke-width:1.0;" width="6" x="1130" y="680.0078"/><text fill="#000000" font-family="sans-serif" font-size="14" lengthAdjust="spacing" textLength="133" x="1142" y="686.3613">closeDate : Calendar</text><line style="stroke:#181818;stroke-width:0.5;" x1="1123" x2="1361" y1="693.3281" y2="693.3281"/><ellipse cx="1133" cy="706.6484" fill="#84BE84" rx="3" ry="3" style="stroke:#038048;stroke-width:1.0;"/><text fill="#000000" font-family="sans-serif" font-size="14" lengthAdjust="spacing" textLength="214" x="1142" y="710.002">ExamDates(openDate, closeDate)</text></g><!--class CourseRepository--><g id="elem_CourseRepository"><rect codeLine="39" fill="#F1F1F1" height="70.6875" id="CourseRepository" rx="2.5" ry="2.5" style="stroke:#181818;stroke-width:0.5;" width="209" x="22.5" y="630.5"/><ellipse cx="65.85" cy="650.0234" fill="#B4A7E5" rx="11" ry="11" style="stroke:#181818;stroke-width:1.0;"/><path d="M66.8031,646.6641 L66.8031,653.3203 L68.5219,653.3203 Q69.1313,653.3203 69.3969,653.5547 Q69.6625,653.7891 69.6625,654.1797 Q69.6625,654.5547 69.3969,654.7891 Q69.1313,655.0234 68.5219,655.0234 L63.3812,655.0234 Q62.7719,655.0234 62.5062,654.7891 Q62.2406,654.5547 62.2406,654.1641 Q62.2406,653.7891 62.5062,653.5547 Q62.7719,653.3203 63.3812,653.3203 L65.1,653.3203 L65.1,646.6641 L63.3812,646.6641 Q62.7719,646.6641 62.5062,646.4297 Q62.2406,646.1953 62.2406,645.8047 Q62.2406,645.4297 62.5062,645.1953 Q62.7719,644.9609 63.3812,644.9609 L68.5219,644.9609 Q69.1313,644.9609 69.3969,645.1953 Q69.6625,645.4297 69.6625,645.8047 Q69.6625,646.1953 69.3969,646.4297 Q69.1313,646.6641 68.5219,646.6641 L66.8031,646.6641 Z " fill="#000000"/><text fill="#000000" font-family="sans-serif" font-size="12" font-style="italic" lengthAdjust="spacing" textLength="68" x="109.15" y="646.3633">&#171;repository&#187;</text><text fill="#000000" font-family="sans-serif" font-size="14" font-style="italic" lengthAdjust="spacing" textLength="114" x="86.15" y="661.5801">CourseRepository</text><line style="stroke:#181818;stroke-width:0.5;" x1="23.5" x2="230.5" y1="669.5469" y2="669.5469"/><line style="stroke:#181818;stroke-width:0.5;" x1="23.5" x2="230.5" y1="677.5469" y2="677.5469"/><text fill="#000000" font-family="sans-serif" font-size="14" lengthAdjust="spacing" textLength="197" x="28.5" y="694.2207">findBySystemUser(systemUser)</text></g><!--class ExamRepository--><g id="elem_ExamRepository"><rect codeLine="43" fill="#F1F1F1" height="86.3281" id="ExamRepository" rx="2.5" ry="2.5" style="stroke:#181818;stroke-width:0.5;" width="254" x="267" y="623"/><ellipse cx="338.75" cy="642.5234" fill="#B4A7E5" rx="11" ry="11" style="stroke:#181818;stroke-width:1.0;"/><path d="M339.7031,639.1641 L339.7031,645.8203 L341.4219,645.8203 Q342.0313,645.8203 342.2969,646.0547 Q342.5625,646.2891 342.5625,646.6797 Q342.5625,647.0547 342.2969,647.2891 Q342.0313,647.5234 341.4219,647.5234 L336.2813,647.5234 Q335.6719,647.5234 335.4063,647.2891 Q335.1406,647.0547 335.1406,646.6641 Q335.1406,646.2891 335.4063,646.0547 Q335.6719,645.8203 336.2813,645.8203 L338,645.8203 L338,639.1641 L336.2813,639.1641 Q335.6719,639.1641 335.4063,638.9297 Q335.1406,638.6953 335.1406,638.3047 Q335.1406,637.9297 335.4063,637.6953 Q335.6719,637.4609 336.2813,637.4609 L341.4219,637.4609 Q342.0313,637.4609 342.2969,637.6953 Q342.5625,637.9297 342.5625,638.3047 Q342.5625,638.6953 342.2969,638.9297 Q342.0313,639.1641 341.4219,639.1641 L339.7031,639.1641 Z " fill="#000000"/><text fill="#000000" font-family="sans-serif" font-size="12" font-style="italic" lengthAdjust="spacing" textLength="68" x="376.25" y="638.8633">&#171;repository&#187;</text><text fill="#000000" font-family="sans-serif" font-size="14" font-style="italic" lengthAdjust="spacing" textLength="102" x="359.25" y="654.0801">ExamRepository</text><line style="stroke:#181818;stroke-width:0.5;" x1="268" x2="520" y1="662.0469" y2="662.0469"/><line style="stroke:#181818;stroke-width:0.5;" x1="268" x2="520" y1="670.0469" y2="670.0469"/><text fill="#000000" font-family="sans-serif" font-size="14" lengthAdjust="spacing" textLength="179" x="273" y="686.7207">findExamsByCourse(course)</text><text fill="#000000" font-family="sans-serif" font-size="14" lengthAdjust="spacing" textLength="242" x="273" y="702.3613">findFormativeExamsByCourse(course)</text></g><!--class ListAllExamsOfCourseController--><g id="elem_ListAllExamsOfCourseController"><rect codeLine="51" fill="#F1F1F1" height="148.8906" id="ListAllExamsOfCourseController" rx="2.5" ry="2.5" style="stroke:#181818;stroke-width:0.5;" width="279" x="428.5" y="200"/><ellipse cx="464.2" cy="219.5234" fill="#ADD1B2" rx="11" ry="11" style="stroke:#181818;stroke-width:1.0;"/><path d="M466.9656,215.3984 Q467.1219,215.1797 467.3094,215.0703 Q467.4969,214.9609 467.7156,214.9609 Q468.0906,214.9609 468.325,215.2266 Q468.5594,215.4766 468.5594,216.0859 L468.5594,217.5391 Q468.5594,218.1484 468.325,218.4141 Q468.0906,218.6797 467.7156,218.6797 Q467.3719,218.6797 467.1688,218.4766 Q466.9656,218.2891 466.8563,217.7734 Q466.8094,217.4141 466.6219,217.2266 Q466.2938,216.8516 465.6844,216.6328 Q465.075,216.4141 464.45,216.4141 Q463.6844,216.4141 463.0438,216.7422 Q462.4188,217.0703 461.9188,217.8203 Q461.4344,218.5703 461.4344,219.6016 L461.4344,220.6953 Q461.4344,221.9297 462.325,222.7578 Q463.2156,223.5703 464.8094,223.5703 Q465.7469,223.5703 466.4031,223.3203 Q466.7938,223.1641 467.2156,222.7266 Q467.4813,222.4609 467.6219,222.3828 Q467.7781,222.3047 467.9813,222.3047 Q468.3094,222.3047 468.5594,222.5703 Q468.825,222.8203 468.825,223.1641 Q468.825,223.5078 468.4813,223.9141 Q467.9813,224.4922 467.1844,224.8203 Q466.1063,225.2734 464.8094,225.2734 Q463.2938,225.2734 462.0906,224.6484 Q461.1063,224.1484 460.4188,223.0859 Q459.7313,222.0078 459.7313,220.7266 L459.7313,219.5703 Q459.7313,218.2422 460.3406,217.1016 Q460.9656,215.9453 462.0594,215.3359 Q463.1531,214.7109 464.3875,214.7109 Q465.1219,214.7109 465.7625,214.8828 Q466.4188,215.0391 466.9656,215.3984 Z " fill="#000000"/><text fill="#000000" font-family="sans-serif" font-size="12" font-style="italic" lengthAdjust="spacing" textLength="65" x="550.8" y="215.8633">&#171;controller&#187;</text><text fill="#000000" font-family="sans-serif" font-size="14" lengthAdjust="spacing" textLength="201" x="482.8" y="231.0801">ListAllExamsOfCourseController</text><line style="stroke:#181818;stroke-width:0.5;" x1="429.5" x2="706.5" y1="239.0469" y2="239.0469"/><rect fill="none" height="6" style="stroke:#C82930;stroke-width:1.0;" width="6" x="436.5" y="249.3672"/><text fill="#000000" font-family="sans-serif" font-size="14" lengthAdjust="spacing" textLength="175" x="448.5" y="255.7207">authz : AuthorizationService</text><rect fill="none" height="6" style="stroke:#C82930;stroke-width:1.0;" width="6" x="436.5" y="265.0078"/><text fill="#000000" font-family="sans-serif" font-size="14" lengthAdjust="spacing" textLength="253" x="448.5" y="271.3613">courseSvc : CourseManagementService</text><rect fill="none" height="6" style="stroke:#C82930;stroke-width:1.0;" width="6" x="436.5" y="280.6484"/><text fill="#000000" font-family="sans-serif" font-size="14" lengthAdjust="spacing" textLength="231" x="448.5" y="287.002">examSvc : ExamManagementService</text><line style="stroke:#181818;stroke-width:0.5;" x1="429.5" x2="706.5" y1="293.9688" y2="293.9688"/><ellipse cx="439.5" cy="307.2891" fill="#84BE84" rx="3" ry="3" style="stroke:#038048;stroke-width:1.0;"/><text fill="#000000" font-family="sans-serif" font-size="14" lengthAdjust="spacing" textLength="146" x="448.5" y="310.6426">allCoursesByTeacher()</text><ellipse cx="439.5" cy="322.9297" fill="#84BE84" rx="3" ry="3" style="stroke:#038048;stroke-width:1.0;"/><text fill="#000000" font-family="sans-serif" font-size="14" lengthAdjust="spacing" textLength="170" x="448.5" y="326.2832">allExamsByCourse(course)</text><ellipse cx="439.5" cy="338.5703" fill="#84BE84" rx="3" ry="3" style="stroke:#038048;stroke-width:1.0;"/><text fill="#000000" font-family="sans-serif" font-size="14" lengthAdjust="spacing" textLength="233" x="448.5" y="341.9238">allFormativeExamsByCourse(course)</text></g><!--class CourseManagementService--><g id="elem_CourseManagementService"><rect codeLine="60" fill="#F1F1F1" height="86.3281" id="CourseManagementService" rx="2.5" ry="2.5" style="stroke:#181818;stroke-width:0.5;" width="267" x="137.5" y="417"/><ellipse cx="179.5" cy="436.5234" fill="#ADD1B2" rx="11" ry="11" style="stroke:#181818;stroke-width:1.0;"/><path d="M182.2656,432.3984 Q182.4219,432.1797 182.6094,432.0703 Q182.7969,431.9609 183.0156,431.9609 Q183.3906,431.9609 183.625,432.2266 Q183.8594,432.4766 183.8594,433.0859 L183.8594,434.5391 Q183.8594,435.1484 183.625,435.4141 Q183.3906,435.6797 183.0156,435.6797 Q182.6719,435.6797 182.4688,435.4766 Q182.2656,435.2891 182.1563,434.7734 Q182.1094,434.4141 181.9219,434.2266 Q181.5938,433.8516 180.9844,433.6328 Q180.375,433.4141 179.75,433.4141 Q178.9844,433.4141 178.3438,433.7422 Q177.7188,434.0703 177.2188,434.8203 Q176.7344,435.5703 176.7344,436.6016 L176.7344,437.6953 Q176.7344,438.9297 177.625,439.7578 Q178.5156,440.5703 180.1094,440.5703 Q181.0469,440.5703 181.7031,440.3203 Q182.0938,440.1641 182.5156,439.7266 Q182.7813,439.4609 182.9219,439.3828 Q183.0781,439.3047 183.2813,439.3047 Q183.6094,439.3047 183.8594,439.5703 Q184.125,439.8203 184.125,440.1641 Q184.125,440.5078 183.7813,440.9141 Q183.2813,441.4922 182.4844,441.8203 Q181.4063,442.2734 180.1094,442.2734 Q178.5938,442.2734 177.3906,441.6484 Q176.4063,441.1484 175.7188,440.0859 Q175.0313,439.0078 175.0313,437.7266 L175.0313,436.5703 Q175.0313,435.2422 175.6406,434.1016 Q176.2656,432.9453 177.3594,432.3359 Q178.4531,431.7109 179.6875,431.7109 Q180.4219,431.7109 181.0625,431.8828 Q181.7188,432.0391 182.2656,432.3984 Z " fill="#000000"/><text fill="#000000" font-family="sans-serif" font-size="12" font-style="italic" lengthAdjust="spacing" textLength="53" x="260.5" y="432.8633">&#171;service&#187;</text><text fill="#000000" font-family="sans-serif" font-size="14" lengthAdjust="spacing" textLength="175" x="199.5" y="448.0801">CourseManagementService</text><line style="stroke:#181818;stroke-width:0.5;" x1="138.5" x2="403.5" y1="456.0469" y2="456.0469"/><rect fill="none" height="6" style="stroke:#C82930;stroke-width:1.0;" width="6" x="145.5" y="466.3672"/><text fill="#000000" font-family="sans-serif" font-size="14" lengthAdjust="spacing" textLength="237" x="157.5" y="472.7207">courseRepository : CourseRepository</text><line style="stroke:#181818;stroke-width:0.5;" x1="138.5" x2="403.5" y1="479.6875" y2="479.6875"/><ellipse cx="148.5" cy="493.0078" fill="#84BE84" rx="3" ry="3" style="stroke:#038048;stroke-width:1.0;"/><text fill="#000000" font-family="sans-serif" font-size="14" lengthAdjust="spacing" textLength="241" x="157.5" y="496.3613">allCoursesBySystemUser(systemUser)</text></g><!--class ExamManagementService--><g id="elem_ExamManagementService"><rect codeLine="65" fill="#F1F1F1" height="101.9688" id="ExamManagementService" rx="2.5" ry="2.5" style="stroke:#181818;stroke-width:0.5;" width="268" x="440" y="409"/><ellipse cx="488.25" cy="428.5234" fill="#ADD1B2" rx="11" ry="11" style="stroke:#181818;stroke-width:1.0;"/><path d="M491.0156,424.3984 Q491.1719,424.1797 491.3594,424.0703 Q491.5469,423.9609 491.7656,423.9609 Q492.1406,423.9609 492.375,424.2266 Q492.6094,424.4766 492.6094,425.0859 L492.6094,426.5391 Q492.6094,427.1484 492.375,427.4141 Q492.1406,427.6797 491.7656,427.6797 Q491.4219,427.6797 491.2188,427.4766 Q491.0156,427.2891 490.9063,426.7734 Q490.8594,426.4141 490.6719,426.2266 Q490.3438,425.8516 489.7344,425.6328 Q489.125,425.4141 488.5,425.4141 Q487.7344,425.4141 487.0938,425.7422 Q486.4688,426.0703 485.9688,426.8203 Q485.4844,427.5703 485.4844,428.6016 L485.4844,429.6953 Q485.4844,430.9297 486.375,431.7578 Q487.2656,432.5703 488.8594,432.5703 Q489.7969,432.5703 490.4531,432.3203 Q490.8438,432.1641 491.2656,431.7266 Q491.5313,431.4609 491.6719,431.3828 Q491.8281,431.3047 492.0313,431.3047 Q492.3594,431.3047 492.6094,431.5703 Q492.875,431.8203 492.875,432.1641 Q492.875,432.5078 492.5313,432.9141 Q492.0313,433.4922 491.2344,433.8203 Q490.1563,434.2734 488.8594,434.2734 Q487.3438,434.2734 486.1406,433.6484 Q485.1563,433.1484 484.4688,432.0859 Q483.7813,431.0078 483.7813,429.7266 L483.7813,428.5703 Q483.7813,427.2422 484.3906,426.1016 Q485.0156,424.9453 486.1094,424.3359 Q487.2031,423.7109 488.4375,423.7109 Q489.1719,423.7109 489.8125,423.8828 Q490.4688,424.0391 491.0156,424.3984 Z " fill="#000000"/><text fill="#000000" font-family="sans-serif" font-size="12" font-style="italic" lengthAdjust="spacing" textLength="53" x="563.75" y="424.8633">&#171;service&#187;</text><text fill="#000000" font-family="sans-serif" font-size="14" lengthAdjust="spacing" textLength="163" x="508.75" y="440.0801">ExamManagementService</text><line style="stroke:#181818;stroke-width:0.5;" x1="441" x2="707" y1="448.0469" y2="448.0469"/><rect fill="none" height="6" style="stroke:#C82930;stroke-width:1.0;" width="6" x="448" y="458.3672"/><text fill="#000000" font-family="sans-serif" font-size="14" lengthAdjust="spacing" textLength="215" x="460" y="464.7207">examRepository : ExamRepository</text><line style="stroke:#181818;stroke-width:0.5;" x1="441" x2="707" y1="471.6875" y2="471.6875"/><ellipse cx="451" cy="485.0078" fill="#84BE84" rx="3" ry="3" style="stroke:#038048;stroke-width:1.0;"/><text fill="#000000" font-family="sans-serif" font-size="14" lengthAdjust="spacing" textLength="179" x="460" y="488.3613">findExamsByCourse(course)</text><ellipse cx="451" cy="500.6484" fill="#84BE84" rx="3" ry="3" style="stroke:#038048;stroke-width:1.0;"/><text fill="#000000" font-family="sans-serif" font-size="14" lengthAdjust="spacing" textLength="242" x="460" y="504.002">findFormativeExamsByCourse(course)</text></g><!--link ListAllExamsOfCourseUI to ListAllExamsOfCourseController--><g id="link_ListAllExamsOfCourseUI_ListAllExamsOfCourseController"><path codeLine="72" d="M568,126.06 C568,146.31 568,171.28 568,194.88 " fill="none" id="ListAllExamsOfCourseUI-to-ListAllExamsOfCourseController" style="stroke:#181818;stroke-width:1.0;stroke-dasharray:7.0,7.0;"/><polygon fill="#181818" points="568,199.89,572,190.89,568,194.89,564,190.89,568,199.89" style="stroke:#181818;stroke-width:1.0;"/></g><!--link ListAllExamsOfCourseController to CourseManagementService--><g id="link_ListAllExamsOfCourseController_CourseManagementService"><path codeLine="73" d="M448.91,349.08 C413.38,371.03 375.51,394.43 343.88,413.97 " fill="none" id="ListAllExamsOfCourseController-to-CourseManagementService" style="stroke:#181818;stroke-width:1.0;stroke-dasharray:7.0,7.0;"/><polygon fill="#181818" points="339.26,416.83,349.0193,415.5052,343.5144,414.2031,344.8164,408.6982,339.26,416.83" style="stroke:#181818;stroke-width:1.0;"/></g><!--link ListAllExamsOfCourseController to ExamManagementService--><g id="link_ListAllExamsOfCourseController_ExamManagementService"><path codeLine="74" d="M570.41,349.08 C571,367.24 571.63,386.39 572.19,403.53 " fill="none" id="ListAllExamsOfCourseController-to-ExamManagementService" style="stroke:#181818;stroke-width:1.0;stroke-dasharray:7.0,7.0;"/><polygon fill="#181818" points="572.36,408.78,576.0745,399.6585,572.2025,403.7825,568.0785,399.9105,572.36,408.78" style="stroke:#181818;stroke-width:1.0;"/></g><!--link CourseManagementService to CourseRepository--><g id="link_CourseManagementService_CourseRepository"><path codeLine="75" d="M241.16,503.27 C215.67,539.38 179.3,590.91 154.5,626.04 " fill="none" id="CourseManagementService-to-CourseRepository" style="stroke:#181818;stroke-width:1.0;stroke-dasharray:7.0,7.0;"/><polygon fill="#181818" points="151.54,630.24,159.9994,625.1963,154.4245,626.156,153.4649,620.5811,151.54,630.24" style="stroke:#181818;stroke-width:1.0;"/></g><!--link ExamManagementService to Exam--><g id="link_ExamManagementService_Exam"><path codeLine="76" d="M643.59,511.17 C673.24,532.53 708.62,558.04 741.96,582.08 " fill="none" id="ExamManagementService-to-Exam" style="stroke:#181818;stroke-width:1.0;stroke-dasharray:7.0,7.0;"/><polygon fill="#181818" points="746.02,585,741.0637,576.4891,741.9659,582.0736,736.3814,582.9758,746.02,585" style="stroke:#181818;stroke-width:1.0;"/></g><!--link ExamManagementService to ExamRepository--><g id="link_ExamManagementService_ExamRepository"><path codeLine="77" d="M529.74,511.17 C500.63,544.15 462.83,587 434.51,619.09 " fill="none" id="ExamManagementService-to-ExamRepository" style="stroke:#181818;stroke-width:1.0;stroke-dasharray:7.0,7.0;"/><polygon fill="#181818" points="431.11,622.95,440.0634,618.8468,434.4176,619.2004,434.0641,613.5546,431.11,622.95" style="stroke:#181818;stroke-width:1.0;"/></g><!--link ExamRepository to Exam--><g id="link_ExamRepository_Exam"><path codeLine="78" d="M521.05,666 C554.48,666 587.9,666 621.33,666 " fill="none" id="ExamRepository-to-Exam" style="stroke:#181818;stroke-width:1.0;"/><polygon fill="#181818" points="626.69,666,617.69,662,621.69,666,617.69,670,626.69,666" style="stroke:#181818;stroke-width:1.0;"/></g><!--link ListAllExamsOfCourseController to Exam--><g id="link_ListAllExamsOfCourseController_Exam"><path codeLine="79" d="M667.73,349.35 C688.48,367.45 709.14,387.77 726,409 C767.21,460.9 800.91,527.81 823.8,580.21 " fill="none" id="ListAllExamsOfCourseController-to-Exam" style="stroke:#181818;stroke-width:1.0;stroke-dasharray:7.0,7.0;"/><polygon fill="#181818" points="825.84,584.91,825.9343,575.0616,823.8532,580.3217,818.5931,578.2405,825.84,584.91" style="stroke:#181818;stroke-width:1.0;"/></g><!--link Exam to ExamDates--><g id="link_Exam_ExamDates"><path codeLine="80" d="M1087.1,666 C1096.97,666 1106.85,666 1116.73,666 " fill="none" id="Exam-to-ExamDates" style="stroke:#181818;stroke-width:1.0;"/><polygon fill="#181818" points="1121.89,666,1112.89,662,1116.89,666,1112.89,670,1121.89,666" style="stroke:#181818;stroke-width:1.0;"/></g><!--reverse link Exam to AutomaticFormativeExam--><g id="link_Exam_AutomaticFormativeExam"><path codeLine="81" d="M887.69,766.28 C891.93,779.99 896.22,793.86 900.28,806.99 " fill="none" id="Exam-backto-AutomaticFormativeExam" style="stroke:#181818;stroke-width:1.0;"/><polygon fill="none" points="880.98,768.28,881.76,747.11,894.36,764.15,880.98,768.28" style="stroke:#181818;stroke-width:1.0;"/></g><!--link ExamManagementService to AutomaticFormativeExam--><g id="link_ExamManagementService_AutomaticFormativeExam"><path codeLine="82" d="M566.09,511.24 C559.24,573.09 557.33,678.36 609,747 C626.02,769.61 647.63,788.43 671.51,804.09 " fill="none" id="ExamManagementService-to-AutomaticFormativeExam" style="stroke:#181818;stroke-width:1.0;stroke-dasharray:7.0,7.0;"/><polygon fill="#181818" points="675.99,806.98,670.6022,798.7355,671.7906,804.2661,666.26,805.4545,675.99,806.98" style="stroke:#181818;stroke-width:1.0;"/></g><!--SRC=[ZLLTRziW57tFhq3jmn8v7m_RmnHPbjeqqoPjchIqFu3YcvWD6mjmjdJhVnyOZ4bgnyvBmFTmxxc70xpBb2hbUhKg6IvKbRCbuVcAC2pb8gNu870-cPIO_C87G3Ub00c5mehouWRTFjI_lnEaV_KIz9LATSVOzW_EvVVzXbT2mjCN5CSLJH8BN22LmOONId36GA1rvw8MK2-AKCft6VyzdTNJrybhm2hbEQQ6J_gSViGGyZ4vTNLyE0WuO0L8SAwIH7_IRL1rygH00n-fOg3vR9jn6te0IGGjJTyE47m9OBg4R01ct8O-0qxhRhT-OeCIY4jhT8XtTfgujWrwwidDaQ_YXYsBENAPRCIMQEIQU4NkAgNbKfHyuiBy7y5fT2x8TKt6opBKuP0y9awS8r93PECdJJpgwUcDR0DQpL5RQDOajz85Rh9R7CT7p2f0_FcdJkHTn4ie3C3mn0oA5BjD9enBw8f4RT9fireJQU1-_qA_bo2a5X8A0e7fQoGj58Wz9k1q-W4bbrHnSTAKXPyqXFUqIEzFkvDEbZz945FfXw5pWhI6xOYazLc-FraIKwlhp4VFjgaRTj4oBaj6INFl0Dv_ID_hQlsNJd31n37na_OImfNANlHkQEzaND2NElSEn94IT-wT7NP7uctt3HUQJgwFoZdIcCZY38bkL8GmOpQDRlaHCCcquBCsrYz67HudcfEaXwxMGjfHAmIvDChwZNSiYP3-W6NQupAA0foRQdtXCgV1TLz5uvsb6VQyKyj5ClGQ3PZDPEZpoeYbtVRfsyssM21Mj-hBfKtU5tQrB_84c-80Wqs4TPf5zYcqxyo_nQBdlhx2l7l1Vm00]--></g></svg>