<?xml version="1.0" encoding="UTF-8" standalone="no"?><svg xmlns="http://www.w3.org/2000/svg" xmlns:xlink="http://www.w3.org/1999/xlink" contentStyleType="text/css" height="323px" preserveAspectRatio="none" style="width:337px;height:323px;background:#FFFFFF;" version="1.1" viewBox="0 0 337 323" width="337px" zoomAndPan="magnify"><defs/><g><line style="stroke:#181818;stroke-width:0.5;stroke-dasharray:5.0,5.0;" x1="34" x2="34" y1="80.6406" y2="243.2578"/><line style="stroke:#181818;stroke-width:0.5;stroke-dasharray:5.0,5.0;" x1="254" x2="254" y1="80.6406" y2="243.2578"/><text fill="#000000" font-family="FG Virgil" font-size="14" lengthAdjust="spacing" textLength="53" x="5" y="77.6738">Teacher</text><ellipse cx="34.5" cy="13.5" fill="#E3E3E3" rx="8" ry="8" style="stroke:#181818;stroke-width:0.5;"/><path d="M34.5,21.5 L34.5,48.5 M21.5,29.5 L47.5,29.5 M34.5,48.5 L21.5,63.5 M34.5,48.5 L47.5,63.5 " fill="none" style="stroke:#181818;stroke-width:0.5;"/><text fill="#000000" font-family="FG Virgil" font-size="14" lengthAdjust="spacing" textLength="53" x="5" y="254.9316">Teacher</text><ellipse cx="34.5" cy="266.3984" fill="#E3E3E3" rx="8" ry="8" style="stroke:#181818;stroke-width:0.5;"/><path d="M34.5,274.3984 L34.5,301.3984 M21.5,282.3984 L47.5,282.3984 M34.5,301.3984 L21.5,316.3984 M34.5,301.3984 L47.5,316.3984 " fill="none" style="stroke:#181818;stroke-width:0.5;"/><rect fill="#E3E3E3" height="45.2813" rx="2.5" ry="2.5" style="stroke:#181818;stroke-width:0.5;" width="153" x="178" y="34.3594"/><text fill="#000000" font-family="FG Virgil" font-size="14" font-style="italic" lengthAdjust="spacing" textLength="95" x="207" y="54.0332">«presentation»</text><text fill="#000000" font-family="FG Virgil" font-size="14" lengthAdjust="spacing" textLength="139" x="185" y="69.6738">ListAllExamsOfCourse</text><rect fill="#E3E3E3" height="45.2813" rx="2.5" ry="2.5" style="stroke:#181818;stroke-width:0.5;" width="153" x="178" y="242.2578"/><text fill="#000000" font-family="FG Virgil" font-size="14" font-style="italic" lengthAdjust="spacing" textLength="95" x="207" y="261.9316">«presentation»</text><text fill="#000000" font-family="FG Virgil" font-size="14" lengthAdjust="spacing" textLength="139" x="185" y="277.5723">ListAllExamsOfCourse</text><polygon fill="#181818" points="242.5,107.1641,252.5,111.1641,242.5,115.1641,246.5,111.1641" style="stroke:#181818;stroke-width:1.0;"/><line style="stroke:#181818;stroke-width:1.0;" x1="34.5" x2="248.5" y1="111.1641" y2="111.1641"/><text fill="#000000" font-family="FG Virgil" font-size="13" lengthAdjust="spacing" textLength="192" x="41.5" y="106.4092">Choose List All Exams of Course</text><polygon fill="#181818" points="45.5,135.6875,35.5,139.6875,45.5,143.6875,41.5,139.6875" style="stroke:#181818;stroke-width:1.0;"/><line style="stroke:#181818;stroke-width:1.0;stroke-dasharray:2.0,2.0;" x1="39.5" x2="253.5" y1="139.6875" y2="139.6875"/><text fill="#000000" font-family="FG Virgil" font-size="13" lengthAdjust="spacing" textLength="124" x="51.5" y="134.9326">Shows list of courses</text><polygon fill="#181818" points="45.5,164.2109,35.5,168.2109,45.5,172.2109,41.5,168.2109" style="stroke:#181818;stroke-width:1.0;"/><line style="stroke:#181818;stroke-width:1.0;stroke-dasharray:2.0,2.0;" x1="39.5" x2="253.5" y1="168.2109" y2="168.2109"/><text fill="#000000" font-family="FG Virgil" font-size="13" lengthAdjust="spacing" textLength="152" x="51.5" y="163.4561">Asks to select one course</text><polygon fill="#181818" points="242.5,192.7344,252.5,196.7344,242.5,200.7344,246.5,196.7344" style="stroke:#181818;stroke-width:1.0;"/><line style="stroke:#181818;stroke-width:1.0;" x1="34.5" x2="248.5" y1="196.7344" y2="196.7344"/><text fill="#000000" font-family="FG Virgil" font-size="13" lengthAdjust="spacing" textLength="112" x="41.5" y="191.9795">Selects one course</text><polygon fill="#181818" points="45.5,221.2578,35.5,225.2578,45.5,229.2578,41.5,225.2578" style="stroke:#181818;stroke-width:1.0;"/><line style="stroke:#181818;stroke-width:1.0;stroke-dasharray:2.0,2.0;" x1="39.5" x2="253.5" y1="225.2578" y2="225.2578"/><text fill="#000000" font-family="FG Virgil" font-size="13" lengthAdjust="spacing" textLength="196" x="51.5" y="220.5029">Shows list of exams of the course</text><!--MD5=[d099e341bbc4af0efff65b866089b78a]
@startuml
'https://plantuml.com/sequence-diagram

skinparam handwritten false
skinparam monochrome true
skinparam packageStyle rect
skinparam defaultFontName FG Virgil
skinparam shadowing false

actor Teacher as teacher
participant ListAllExamsOfCourse as System <<presentation>>

teacher -> System: Choose List All Exams of Course
System - -> teacher: Shows list of courses
System - -> teacher: Asks to select one course
teacher -> System: Selects one course
System - -> teacher: Shows list of exams of the course

@enduml

@startuml

skinparam handwritten false
skinparam monochrome true
skinparam packageStyle rect
skinparam defaultFontName FG Virgil
skinparam shadowing false

actor Teacher as teacher
participant ListAllExamsOfCourse as System <<presentation>>

teacher -> System: Choose List All Exams of Course
System - -> teacher: Shows list of courses
System - -> teacher: Asks to select one course
teacher -> System: Selects one course
System - -> teacher: Shows list of exams of the course

@enduml

PlantUML version 1.2022.7(Mon Aug 22 18:01:30 WEST 2022)
(GPL source distribution)
Java Runtime: OpenJDK Runtime Environment
JVM: OpenJDK 64-Bit Server VM
Default Encoding: Cp1252
Language: pt
Country: PT
--></g></svg>