<?xml version="1.0" encoding="UTF-8" standalone="no"?><svg xmlns="http://www.w3.org/2000/svg" xmlns:xlink="http://www.w3.org/1999/xlink" contentStyleType="text/css" height="355px" preserveAspectRatio="none" style="width:261px;height:355px;background:#FFFFFF;" version="1.1" viewBox="0 0 261 355" width="261px" zoomAndPan="magnify"><defs/><g><rect fill="#FFFFFF" height="140.1094" style="stroke:#181818;stroke-width:1.0;" width="10" x="193" y="114.9609"/><line style="stroke:#181818;stroke-width:0.5;stroke-dasharray:5.0,5.0;" x1="36" x2="36" y1="82.6094" y2="273.0703"/><line style="stroke:#181818;stroke-width:0.5;stroke-dasharray:5.0,5.0;" x1="197.5" x2="197.5" y1="82.6094" y2="273.0703"/><text fill="#000000" font-family="FG Virgil" font-size="14" lengthAdjust="spacing" textLength="56" x="5" y="79.5332">Manager</text><ellipse cx="36" cy="13.5" fill="#E2E2F0" rx="8" ry="8" style="stroke:#181818;stroke-width:0.5;"/><path d="M36,21.5 L36,48.5 M23,29.5 L49,29.5 M36,48.5 L23,63.5 M36,48.5 L49,63.5 " fill="none" style="stroke:#181818;stroke-width:0.5;"/><text fill="#000000" font-family="FG Virgil" font-size="14" lengthAdjust="spacing" textLength="56" x="5" y="286.6035">Manager</text><ellipse cx="36" cy="298.1797" fill="#E2E2F0" rx="8" ry="8" style="stroke:#181818;stroke-width:0.5;"/><path d="M36,306.1797 L36,333.1797 M23,314.1797 L49,314.1797 M36,333.1797 L23,348.1797 M36,333.1797 L49,348.1797 " fill="none" style="stroke:#181818;stroke-width:0.5;"/><rect fill="#E2E2F0" height="49.2188" rx="2.5" ry="2.5" style="stroke:#181818;stroke-width:0.5;" width="115" x="140.5" y="32.3906"/><text fill="#000000" font-family="FG Virgil" font-size="14" font-style="italic" lengthAdjust="spacing" textLength="95" x="150.5" y="53.9238">«presentation»</text><text fill="#000000" font-family="FG Virgil" font-size="14" lengthAdjust="spacing" textLength="101" x="147.5" y="71.5332">CreateCourseUI</text><rect fill="#E2E2F0" height="49.2188" rx="2.5" ry="2.5" style="stroke:#181818;stroke-width:0.5;" width="115" x="140.5" y="272.0703"/><text fill="#000000" font-family="FG Virgil" font-size="14" font-style="italic" lengthAdjust="spacing" textLength="95" x="150.5" y="293.6035">«presentation»</text><text fill="#000000" font-family="FG Virgil" font-size="14" lengthAdjust="spacing" textLength="101" x="147.5" y="311.2129">CreateCourseUI</text><rect fill="#FFFFFF" height="140.1094" style="stroke:#181818;stroke-width:1.0;" width="10" x="193" y="114.9609"/><polygon fill="#181818" points="181,110.9609,191,114.9609,181,118.9609,185,114.9609" style="stroke:#181818;stroke-width:1.0;"/><line style="stroke:#181818;stroke-width:1.0;stroke-dasharray:2.0,2.0;" x1="36" x2="187" y1="114.9609" y2="114.9609"/><text fill="#000000" font-family="FG Virgil" font-size="13" lengthAdjust="spacing" textLength="83" x="43" y="110.1045">Create Course</text><polygon fill="#181818" points="47,141.3125,37,145.3125,47,149.3125,43,145.3125" style="stroke:#181818;stroke-width:1.0;"/><line style="stroke:#181818;stroke-width:1.0;stroke-dasharray:2.0,2.0;" x1="41" x2="192" y1="145.3125" y2="145.3125"/><text fill="#000000" font-family="FG Virgil" font-size="13" lengthAdjust="spacing" textLength="133" x="53" y="140.4561">Ask course information</text><polygon fill="#181818" points="181,220.7188,191,224.7188,181,228.7188,185,224.7188" style="stroke:#181818;stroke-width:1.0;"/><line style="stroke:#181818;stroke-width:1.0;stroke-dasharray:2.0,2.0;" x1="36" x2="187" y1="224.7188" y2="224.7188"/><text fill="#000000" font-family="FG Virgil" font-size="13" lengthAdjust="spacing" textLength="76" x="43" y="170.8076">Code, Name,</text><text fill="#000000" font-family="FG Virgil" font-size="13" lengthAdjust="spacing" textLength="69" x="43" y="187.1592">Description,</text><text fill="#000000" font-family="FG Virgil" font-size="13" lengthAdjust="spacing" textLength="109" x="43" y="203.5107">Mininum Students,</text><text fill="#000000" font-family="FG Virgil" font-size="13" lengthAdjust="spacing" textLength="113" x="43" y="219.8623">Maximum Students</text><polygon fill="#181818" points="47,251.0703,37,255.0703,47,259.0703,43,255.0703" style="stroke:#181818;stroke-width:1.0;"/><line style="stroke:#181818;stroke-width:1.0;stroke-dasharray:2.0,2.0;" x1="41" x2="197" y1="255.0703" y2="255.0703"/><text fill="#000000" font-family="FG Virgil" font-size="13" lengthAdjust="spacing" textLength="102" x="53" y="250.2139">displayCourseInfo</text><!--MD5=[3da2d557c2a31858d3d7832e20c85c2d]
@startuml
'http://plantuml.com/skinparam.html
skinparam handwritten false
skinparam packageStyle rect
skinparam defaultFontName FG Virgil
skinparam shadowing false

actor Manager as Actor
participant CreateCourseUI as UI <<presentation>>


Actor - -> UI: Create Course
activate UI
  
    UI - -> Actor: Ask course information
    Actor - -> UI: Code, Name,\nDescription,\nMininum Students,\nMaximum Students

    
        UI- ->Actor: displayCourseInfo
deactivate UI
@enduml

@startuml
skinparam handwritten false
skinparam packageStyle rect
skinparam defaultFontName FG Virgil
skinparam shadowing false

actor Manager as Actor
participant CreateCourseUI as UI <<presentation>>


Actor - -> UI: Create Course
activate UI
  
    UI - -> Actor: Ask course information
    Actor - -> UI: Code, Name,\nDescription,\nMininum Students,\nMaximum Students

    
        UI- ->Actor: displayCourseInfo
deactivate UI
@enduml

PlantUML version 1.2022.12(Sun Oct 23 19:12:26 BST 2022)
(GPL source distribution)
Java Runtime: OpenJDK Runtime Environment
JVM: OpenJDK 64-Bit Server VM
Default Encoding: Cp1252
Language: pt
Country: PT
--></g></svg>