<?xml version="1.0" encoding="us-ascii" standalone="no"?><svg xmlns="http://www.w3.org/2000/svg" xmlns:xlink="http://www.w3.org/1999/xlink" contentStyleType="text/css" height="414.4144px" preserveAspectRatio="none" style="width:200px;height:414px;background:#FFFFFF;" version="1.1" viewBox="0 0 200 414" width="200.6006px" zoomAndPan="magnify"><defs/><g><ellipse cx="47.4474" cy="19.2192" fill="#181818" rx="12.012" ry="12.012" style="stroke:none;stroke-width:1.2012012012012012;"/><rect fill="#FFFFFF" height="48.048" rx="15.015" ry="15.015" style="stroke:#000000;stroke-width:0.6006006006006006;" width="60.0601" x="17.4174" y="122.5225"/><text fill="#000000" font-family="sans-serif" font-size="16.8168" lengthAdjust="spacing" textLength="45.6456" x="24.6246" y="152.3766">Active</text><rect fill="#FFFFFF" height="48.048" rx="15.015" ry="15.015" style="stroke:#000000;stroke-width:0.6006006006006006;" width="78.0781" x="8.4084" y="261.8619"/><text fill="#000000" font-family="sans-serif" font-size="16.8168" lengthAdjust="spacing" textLength="66.0661" x="14.4144" y="291.7159">Archived</text><ellipse cx="47.4474" cy="395.1952" fill="none" rx="12.012" ry="12.012" style="stroke:#181818;stroke-width:1.2012012012012012;"/><ellipse cx="48.048" cy="395.7958" fill="#181818" rx="7.2072" ry="7.2072" style="stroke:none;stroke-width:1.2012012012012012;"/><!--link *start* to Active--><g id="link_*start*_Active"><path d="M47.4474,31.5075 C47.4474,50.3063 47.4474,89.009 47.4474,116.048 " fill="none" id="*start*-to-Active" style="stroke:#181818;stroke-width:1.2012012012012012;"/><polygon fill="#181818" points="47.4474,122.3063,52.2523,111.4955,47.4474,116.3003,42.6426,111.4955,47.4474,122.3063" style="stroke:#181818;stroke-width:1.2012012012012012;"/><text fill="#000000" font-family="sans-serif" font-size="15.6156" lengthAdjust="spacing" textLength="142.9429" x="48.6486" y="82.6049">createSharedBoard()</text></g><!--link Active to Archived--><g id="link_Active_Archived"><path d="M47.4474,170.6667 C47.4474,193.97 47.4474,230.1622 47.4474,255.4955 " fill="none" id="Active-to-Archived" style="stroke:#181818;stroke-width:1.2012012012012012;"/><polygon fill="#181818" points="47.4474,261.6937,52.2523,250.8829,47.4474,255.6877,42.6426,250.8829,47.4474,261.6937" style="stroke:#181818;stroke-width:1.2012012012012012;"/><text fill="#000000" font-family="sans-serif" font-size="15.6156" lengthAdjust="spacing" textLength="98.4985" x="48.6486" y="221.9442">archiveBoard()</text></g><!--link Archived to *end*--><g id="link_Archived_*end*"><path d="M47.4474,310.2823 C47.4474,330.1982 47.4474,358.4505 47.4474,376.5045 " fill="none" id="Archived-to-*end*" style="stroke:#181818;stroke-width:1.2012012012012012;"/><polygon fill="#181818" points="47.4474,382.6547,52.2523,371.8438,47.4474,376.6486,42.6426,371.8438,47.4474,382.6547" style="stroke:#181818;stroke-width:1.2012012012012012;"/></g><!--SRC=[FOoz2W9138JxF4LA5GuEIml1yn4iB0wBi0bkk9yzib4HyTrTFNMgORwFoO5wmNLTuqtP8qHbGHacloDB3gQJQne1SgVZH4O3PYSNV02MD1IwiwNBoFlK9yDZL9UP96EnUMtwei4Je5sTiAgsk0kkLy4D1fDoTeXamaqYuyKIll3ZMOYbSp5fhd_fHzvQkOKN]--></g></svg>