<?xml version="1.0" encoding="us-ascii" standalone="no"?><svg xmlns="http://www.w3.org/2000/svg" xmlns:xlink="http://www.w3.org/1999/xlink" contentStyleType="text/css" height="757px" preserveAspectRatio="none" style="width:1119px;height:757px;background:#FFFFFF;" version="1.1" viewBox="0 0 1119 757" width="1119px" zoomAndPan="magnify"><defs/><g><!--cluster presentation--><g id="cluster_presentation"><path d="M814.5,6 L905.5,6 A3.75,3.75 0 0 1 908,8.5 L915,27.6406 L1109.5,27.6406 A2.5,2.5 0 0 1 1112,30.1406 L1112,139.5 A2.5,2.5 0 0 1 1109.5,142 L814.5,142 A2.5,2.5 0 0 1 812,139.5 L812,8.5 A2.5,2.5 0 0 1 814.5,6 " fill="#DDDDDD" style="stroke:#000000;stroke-width:1.5;"/><line style="stroke:#000000;stroke-width:1.5;" x1="812" x2="915" y1="27.6406" y2="27.6406"/><text fill="#000000" font-family="sans-serif" font-size="14" font-weight="bold" lengthAdjust="spacing" textLength="90" x="816" y="20.6738">presentation</text></g><!--cluster domain--><g id="cluster_domain"><path d="M8.5,344 L60.5,344 A3.75,3.75 0 0 1 63,346.5 L70,365.6406 L786.5,365.6406 A2.5,2.5 0 0 1 789,368.1406 L789,747.5 A2.5,2.5 0 0 1 786.5,750 L8.5,750 A2.5,2.5 0 0 1 6,747.5 L6,346.5 A2.5,2.5 0 0 1 8.5,344 " fill="#DBD8AE" style="stroke:#000000;stroke-width:1.5;"/><line style="stroke:#000000;stroke-width:1.5;" x1="6" x2="70" y1="365.6406" y2="365.6406"/><text fill="#000000" font-family="sans-serif" font-size="14" font-weight="bold" lengthAdjust="spacing" textLength="51" x="10" y="358.6738">domain</text></g><!--cluster persistence--><g id="cluster_persistence"><path d="M825.5,583.5 L910.5,583.5 A3.75,3.75 0 0 1 913,586 L920,605.1406 L1060.5,605.1406 A2.5,2.5 0 0 1 1063,607.6406 L1063,717 A2.5,2.5 0 0 1 1060.5,719.5 L825.5,719.5 A2.5,2.5 0 0 1 823,717 L823,586 A2.5,2.5 0 0 1 825.5,583.5 " fill="#DBD8AE" style="stroke:#000000;stroke-width:1.5;"/><line style="stroke:#000000;stroke-width:1.5;" x1="823" x2="920" y1="605.1406" y2="605.1406"/><text fill="#000000" font-family="sans-serif" font-size="14" font-weight="bold" lengthAdjust="spacing" textLength="84" x="827" y="598.1738">persistence</text></g><!--cluster application--><g id="cluster_application"><path d="M815.5,166 L893.5,166 A3.75,3.75 0 0 1 896,168.5 L903,187.6406 L1108.5,187.6406 A2.5,2.5 0 0 1 1111,190.1406 L1111,517 A2.5,2.5 0 0 1 1108.5,519.5 L815.5,519.5 A2.5,2.5 0 0 1 813,517 L813,168.5 A2.5,2.5 0 0 1 815.5,166 " fill="#EAF4D3" style="stroke:#000000;stroke-width:1.5;"/><line style="stroke:#000000;stroke-width:1.5;" x1="813" x2="903" y1="187.6406" y2="187.6406"/><text fill="#000000" font-family="sans-serif" font-size="14" font-weight="bold" lengthAdjust="spacing" textLength="77" x="817" y="180.6738">application</text></g><!--class ArchiveBoardUI--><g id="elem_ArchiveBoardUI"><rect codeLine="4" fill="#F1F1F1" height="86.3281" id="ArchiveBoardUI" rx="2.5" ry="2.5" style="stroke:#181818;stroke-width:0.5;" width="267" x="828.5" y="40"/><ellipse cx="909.25" cy="59.5234" fill="#ADD1B2" rx="11" ry="11" style="stroke:#181818;stroke-width:1.0;"/><path d="M912.0156,55.3984 Q912.1719,55.1797 912.3594,55.0703 Q912.5469,54.9609 912.7656,54.9609 Q913.1406,54.9609 913.375,55.2266 Q913.6094,55.4766 913.6094,56.0859 L913.6094,57.5391 Q913.6094,58.1484 913.375,58.4141 Q913.1406,58.6797 912.7656,58.6797 Q912.4219,58.6797 912.2188,58.4766 Q912.0156,58.2891 911.9063,57.7734 Q911.8594,57.4141 911.6719,57.2266 Q911.3438,56.8516 910.7344,56.6328 Q910.125,56.4141 909.5,56.4141 Q908.7344,56.4141 908.0938,56.7422 Q907.4688,57.0703 906.9688,57.8203 Q906.4844,58.5703 906.4844,59.6016 L906.4844,60.6953 Q906.4844,61.9297 907.375,62.7578 Q908.2656,63.5703 909.8594,63.5703 Q910.7969,63.5703 911.4531,63.3203 Q911.8438,63.1641 912.2656,62.7266 Q912.5313,62.4609 912.6719,62.3828 Q912.8281,62.3047 913.0313,62.3047 Q913.3594,62.3047 913.6094,62.5703 Q913.875,62.8203 913.875,63.1641 Q913.875,63.5078 913.5313,63.9141 Q913.0313,64.4922 912.2344,64.8203 Q911.1563,65.2734 909.8594,65.2734 Q908.3438,65.2734 907.1406,64.6484 Q906.1563,64.1484 905.4688,63.0859 Q904.7813,62.0078 904.7813,60.7266 L904.7813,59.5703 Q904.7813,58.2422 905.3906,57.1016 Q906.0156,55.9453 907.1094,55.3359 Q908.2031,54.7109 909.4375,54.7109 Q910.1719,54.7109 910.8125,54.8828 Q911.4688,55.0391 912.0156,55.3984 Z " fill="#000000"/><text fill="#000000" font-family="sans-serif" font-size="12" font-style="italic" lengthAdjust="spacing" textLength="24" x="966.25" y="55.8633">&#171;ui&#187;</text><text fill="#000000" font-family="sans-serif" font-size="14" lengthAdjust="spacing" textLength="97" x="929.75" y="71.0801">ArchiveBoardUI</text><line style="stroke:#181818;stroke-width:0.5;" x1="829.5" x2="1094.5" y1="79.0469" y2="79.0469"/><rect fill="none" height="6" style="stroke:#C82930;stroke-width:1.0;" width="6" x="836.5" y="89.3672"/><text fill="#000000" font-family="sans-serif" font-size="14" lengthAdjust="spacing" textLength="241" x="848.5" y="95.7207">theController : ArchiveBoardController</text><line style="stroke:#181818;stroke-width:0.5;" x1="829.5" x2="1094.5" y1="102.6875" y2="102.6875"/><ellipse cx="839.5" cy="116.0078" fill="#84BE84" rx="3" ry="3" style="stroke:#038048;stroke-width:1.0;"/><text fill="#000000" font-family="sans-serif" font-size="14" lengthAdjust="spacing" textLength="60" x="848.5" y="119.3613">doShow()</text></g><!--class SharedBoard--><g id="elem_SharedBoard"><rect codeLine="12" fill="#F1F1F1" height="146.6563" id="SharedBoard" rx="2.5" ry="2.5" style="stroke:#181818;stroke-width:0.5;" width="401" x="22.5" y="587"/><ellipse cx="173.75" cy="613.2266" fill="#ADD1B2" rx="11" ry="11" style="stroke:#181818;stroke-width:1.0;"/><path d="M176.5156,609.1016 Q176.6719,608.8828 176.8594,608.7734 Q177.0469,608.6641 177.2656,608.6641 Q177.6406,608.6641 177.875,608.9297 Q178.1094,609.1797 178.1094,609.7891 L178.1094,611.2422 Q178.1094,611.8516 177.875,612.1172 Q177.6406,612.3828 177.2656,612.3828 Q176.9219,612.3828 176.7188,612.1797 Q176.5156,611.9922 176.4063,611.4766 Q176.3594,611.1172 176.1719,610.9297 Q175.8438,610.5547 175.2344,610.3359 Q174.625,610.1172 174,610.1172 Q173.2344,610.1172 172.5938,610.4453 Q171.9688,610.7734 171.4688,611.5234 Q170.9844,612.2734 170.9844,613.3047 L170.9844,614.3984 Q170.9844,615.6328 171.875,616.4609 Q172.7656,617.2734 174.3594,617.2734 Q175.2969,617.2734 175.9531,617.0234 Q176.3438,616.8672 176.7656,616.4297 Q177.0313,616.1641 177.1719,616.0859 Q177.3281,616.0078 177.5313,616.0078 Q177.8594,616.0078 178.1094,616.2734 Q178.375,616.5234 178.375,616.8672 Q178.375,617.2109 178.0313,617.6172 Q177.5313,618.1953 176.7344,618.5234 Q175.6563,618.9766 174.3594,618.9766 Q172.8438,618.9766 171.6406,618.3516 Q170.6563,617.8516 169.9688,616.7891 Q169.2813,615.7109 169.2813,614.4297 L169.2813,613.2734 Q169.2813,611.9453 169.8906,610.8047 Q170.5156,609.6484 171.6094,609.0391 Q172.7031,608.4141 173.9375,608.4141 Q174.6719,608.4141 175.3125,608.5859 Q175.9688,608.7422 176.5156,609.1016 Z " fill="#000000"/><text fill="#000000" font-family="sans-serif" font-size="12" font-style="italic" lengthAdjust="spacing" textLength="94" x="192.25" y="602.8633">&#171;aggregate root&#187;</text><text fill="#000000" font-family="sans-serif" font-size="12" font-style="italic" lengthAdjust="spacing" textLength="43" x="217.75" y="616.2695">&#171;entity&#187;</text><text fill="#000000" font-family="sans-serif" font-size="14" lengthAdjust="spacing" textLength="84" x="197.25" y="631.4863">SharedBoard</text><line style="stroke:#181818;stroke-width:0.5;" x1="23.5" x2="422.5" y1="639.4531" y2="639.4531"/><rect fill="none" height="6" style="stroke:#C82930;stroke-width:1.0;" width="6" x="30.5" y="649.7734"/><text fill="#000000" font-family="sans-serif" font-size="14" lengthAdjust="spacing" textLength="125" x="42.5" y="656.127">owner : SystemUser</text><rect fill="none" height="6" style="stroke:#C82930;stroke-width:1.0;" width="6" x="30.5" y="665.4141"/><text fill="#000000" font-family="sans-serif" font-size="14" lengthAdjust="spacing" textLength="170" x="42.5" y="671.7676">rowNumber: NumberOfRow</text><rect fill="none" height="6" style="stroke:#C82930;stroke-width:1.0;" width="6" x="30.5" y="681.0547"/><text fill="#000000" font-family="sans-serif" font-size="14" lengthAdjust="spacing" textLength="214" x="42.5" y="687.4082">columnNumber: NumberOfColumn</text><rect fill="none" height="6" style="stroke:#C82930;stroke-width:1.0;" width="6" x="30.5" y="696.6953"/><text fill="#000000" font-family="sans-serif" font-size="14" lengthAdjust="spacing" textLength="133" x="42.5" y="703.0488">Set &lt;Cell&gt; cells : Cell</text><line style="stroke:#181818;stroke-width:0.5;" x1="23.5" x2="422.5" y1="710.0156" y2="710.0156"/><ellipse cx="33.5" cy="723.3359" fill="#84BE84" rx="3" ry="3" style="stroke:#038048;stroke-width:1.0;"/><text fill="#000000" font-family="sans-serif" font-size="14" lengthAdjust="spacing" textLength="375" x="42.5" y="726.6895">SharedBoard(owner, rowNumber, columnNumber, cells title)</text></g><!--class SharedBoardTitle--><g id="elem_SharedBoardTitle"><rect codeLine="21" fill="#F1F1F1" height="101.9688" id="SharedBoardTitle" rx="2.5" ry="2.5" style="stroke:#181818;stroke-width:0.5;" width="172" x="601" y="609.5"/><ellipse cx="629.05" cy="629.0234" fill="#ADD1B2" rx="11" ry="11" style="stroke:#181818;stroke-width:1.0;"/><path d="M631.8156,624.8984 Q631.9719,624.6797 632.1594,624.5703 Q632.3469,624.4609 632.5656,624.4609 Q632.9406,624.4609 633.175,624.7266 Q633.4094,624.9766 633.4094,625.5859 L633.4094,627.0391 Q633.4094,627.6484 633.175,627.9141 Q632.9406,628.1797 632.5656,628.1797 Q632.2219,628.1797 632.0188,627.9766 Q631.8156,627.7891 631.7063,627.2734 Q631.6594,626.9141 631.4719,626.7266 Q631.1438,626.3516 630.5344,626.1328 Q629.925,625.9141 629.3,625.9141 Q628.5344,625.9141 627.8938,626.2422 Q627.2688,626.5703 626.7688,627.3203 Q626.2844,628.0703 626.2844,629.1016 L626.2844,630.1953 Q626.2844,631.4297 627.175,632.2578 Q628.0656,633.0703 629.6594,633.0703 Q630.5969,633.0703 631.2531,632.8203 Q631.6438,632.6641 632.0656,632.2266 Q632.3313,631.9609 632.4719,631.8828 Q632.6281,631.8047 632.8313,631.8047 Q633.1594,631.8047 633.4094,632.0703 Q633.675,632.3203 633.675,632.6641 Q633.675,633.0078 633.3313,633.4141 Q632.8313,633.9922 632.0344,634.3203 Q630.9563,634.7734 629.6594,634.7734 Q628.1438,634.7734 626.9406,634.1484 Q625.9563,633.6484 625.2688,632.5859 Q624.5813,631.5078 624.5813,630.2266 L624.5813,629.0703 Q624.5813,627.7422 625.1906,626.6016 Q625.8156,625.4453 626.9094,624.8359 Q628.0031,624.2109 629.2375,624.2109 Q629.9719,624.2109 630.6125,624.3828 Q631.2688,624.5391 631.8156,624.8984 Z " fill="#000000"/><text fill="#000000" font-family="sans-serif" font-size="12" font-style="italic" lengthAdjust="spacing" textLength="81" x="660.95" y="625.3633">&#171;value object&#187;</text><text fill="#000000" font-family="sans-serif" font-size="14" lengthAdjust="spacing" textLength="111" x="645.95" y="640.5801">SharedBoardTitle</text><line style="stroke:#181818;stroke-width:0.5;" x1="602" x2="772" y1="648.5469" y2="648.5469"/><rect fill="none" height="6" style="stroke:#C82930;stroke-width:1.0;" width="6" x="609" y="658.8672"/><text fill="#000000" font-family="sans-serif" font-size="14" lengthAdjust="spacing" textLength="108" x="621" y="665.2207">classTitle : String</text><line style="stroke:#181818;stroke-width:0.5;" x1="602" x2="772" y1="672.1875" y2="672.1875"/><ellipse cx="612" cy="685.5078" fill="#84BE84" rx="3" ry="3" style="stroke:#038048;stroke-width:1.0;"/><text fill="#000000" font-family="sans-serif" font-size="14" lengthAdjust="spacing" textLength="118" x="621" y="688.8613">valueOf(classTitle)</text><ellipse cx="612" cy="701.1484" fill="#84BE84" rx="3" ry="3" style="stroke:#038048;stroke-width:1.0;"/><text fill="#000000" font-family="sans-serif" font-size="14" lengthAdjust="spacing" textLength="146" x="621" y="704.502">CourseTitle (classTitle)</text></g><!--class SystemUser--><g id="elem_SystemUser"><rect codeLine="28" fill="#F1F1F1" height="55.0469" id="SystemUser" rx="2.5" ry="2.5" style="stroke:#181818;stroke-width:0.5;" width="107" x="458.5" y="633"/><ellipse cx="473.5" cy="652.5234" fill="#ADD1B2" rx="11" ry="11" style="stroke:#181818;stroke-width:1.0;"/><path d="M476.2656,648.3984 Q476.4219,648.1797 476.6094,648.0703 Q476.7969,647.9609 477.0156,647.9609 Q477.3906,647.9609 477.625,648.2266 Q477.8594,648.4766 477.8594,649.0859 L477.8594,650.5391 Q477.8594,651.1484 477.625,651.4141 Q477.3906,651.6797 477.0156,651.6797 Q476.6719,651.6797 476.4688,651.4766 Q476.2656,651.2891 476.1563,650.7734 Q476.1094,650.4141 475.9219,650.2266 Q475.5938,649.8516 474.9844,649.6328 Q474.375,649.4141 473.75,649.4141 Q472.9844,649.4141 472.3438,649.7422 Q471.7188,650.0703 471.2188,650.8203 Q470.7344,651.5703 470.7344,652.6016 L470.7344,653.6953 Q470.7344,654.9297 471.625,655.7578 Q472.5156,656.5703 474.1094,656.5703 Q475.0469,656.5703 475.7031,656.3203 Q476.0938,656.1641 476.5156,655.7266 Q476.7813,655.4609 476.9219,655.3828 Q477.0781,655.3047 477.2813,655.3047 Q477.6094,655.3047 477.8594,655.5703 Q478.125,655.8203 478.125,656.1641 Q478.125,656.5078 477.7813,656.9141 Q477.2813,657.4922 476.4844,657.8203 Q475.4063,658.2734 474.1094,658.2734 Q472.5938,658.2734 471.3906,657.6484 Q470.4063,657.1484 469.7188,656.0859 Q469.0313,655.0078 469.0313,653.7266 L469.0313,652.5703 Q469.0313,651.2422 469.6406,650.1016 Q470.2656,648.9453 471.3594,648.3359 Q472.4531,647.7109 473.6875,647.7109 Q474.4219,647.7109 475.0625,647.8828 Q475.7188,648.0391 476.2656,648.3984 Z " fill="#000000"/><text fill="#000000" font-family="sans-serif" font-size="12" font-style="italic" lengthAdjust="spacing" textLength="43" x="503.5" y="648.8633">&#171;entity&#187;</text><text fill="#000000" font-family="sans-serif" font-size="14" lengthAdjust="spacing" textLength="75" x="487.5" y="664.0801">SystemUser</text><line style="stroke:#181818;stroke-width:0.5;" x1="459.5" x2="564.5" y1="672.0469" y2="672.0469"/><line style="stroke:#181818;stroke-width:0.5;" x1="459.5" x2="564.5" y1="680.0469" y2="680.0469"/></g><!--class SharedBoardBuilder--><g id="elem_SharedBoardBuilder"><rect codeLine="34" fill="#F1F1F1" height="148.8906" id="SharedBoardBuilder" rx="2.5" ry="2.5" style="stroke:#181818;stroke-width:0.5;" width="160" x="143" y="378"/><ellipse cx="158" cy="397.5234" fill="#ADD1B2" rx="11" ry="11" style="stroke:#181818;stroke-width:1.0;"/><path d="M160.7656,393.3984 Q160.9219,393.1797 161.1094,393.0703 Q161.2969,392.9609 161.5156,392.9609 Q161.8906,392.9609 162.125,393.2266 Q162.3594,393.4766 162.3594,394.0859 L162.3594,395.5391 Q162.3594,396.1484 162.125,396.4141 Q161.8906,396.6797 161.5156,396.6797 Q161.1719,396.6797 160.9688,396.4766 Q160.7656,396.2891 160.6563,395.7734 Q160.6094,395.4141 160.4219,395.2266 Q160.0938,394.8516 159.4844,394.6328 Q158.875,394.4141 158.25,394.4141 Q157.4844,394.4141 156.8438,394.7422 Q156.2188,395.0703 155.7188,395.8203 Q155.2344,396.5703 155.2344,397.6016 L155.2344,398.6953 Q155.2344,399.9297 156.125,400.7578 Q157.0156,401.5703 158.6094,401.5703 Q159.5469,401.5703 160.2031,401.3203 Q160.5938,401.1641 161.0156,400.7266 Q161.2813,400.4609 161.4219,400.3828 Q161.5781,400.3047 161.7813,400.3047 Q162.1094,400.3047 162.3594,400.5703 Q162.625,400.8203 162.625,401.1641 Q162.625,401.5078 162.2813,401.9141 Q161.7813,402.4922 160.9844,402.8203 Q159.9063,403.2734 158.6094,403.2734 Q157.0938,403.2734 155.8906,402.6484 Q154.9063,402.1484 154.2188,401.0859 Q153.5313,400.0078 153.5313,398.7266 L153.5313,397.5703 Q153.5313,396.2422 154.1406,395.1016 Q154.7656,393.9453 155.8594,393.3359 Q156.9531,392.7109 158.1875,392.7109 Q158.9219,392.7109 159.5625,392.8828 Q160.2188,393.0391 160.7656,393.3984 Z " fill="#000000"/><text fill="#000000" font-family="sans-serif" font-size="12" font-style="italic" lengthAdjust="spacing" textLength="53" x="209.5" y="393.8633">&#171;Builder&#187;</text><text fill="#000000" font-family="sans-serif" font-size="14" lengthAdjust="spacing" textLength="128" x="172" y="409.0801">SharedBoardBuilder</text><line style="stroke:#181818;stroke-width:0.5;" x1="144" x2="302" y1="417.0469" y2="417.0469"/><line style="stroke:#181818;stroke-width:0.5;" x1="144" x2="302" y1="425.0469" y2="425.0469"/><ellipse cx="154" cy="438.3672" fill="#84BE84" rx="3" ry="3" style="stroke:#038048;stroke-width:1.0;"/><text fill="#000000" font-family="sans-serif" font-size="14" lengthAdjust="spacing" textLength="84" x="163" y="441.7207">withOwnwer()</text><ellipse cx="154" cy="454.0078" fill="#84BE84" rx="3" ry="3" style="stroke:#038048;stroke-width:1.0;"/><text fill="#000000" font-family="sans-serif" font-size="14" lengthAdjust="spacing" textLength="110" x="163" y="457.3613">withRowNumber()</text><ellipse cx="154" cy="469.6484" fill="#84BE84" rx="3" ry="3" style="stroke:#038048;stroke-width:1.0;"/><text fill="#000000" font-family="sans-serif" font-size="14" lengthAdjust="spacing" textLength="65" x="163" y="473.002">withCells()</text><ellipse cx="154" cy="485.2891" fill="#84BE84" rx="3" ry="3" style="stroke:#038048;stroke-width:1.0;"/><text fill="#000000" font-family="sans-serif" font-size="14" lengthAdjust="spacing" textLength="131" x="163" y="488.6426">withColumnNumber()</text><ellipse cx="154" cy="500.9297" fill="#84BE84" rx="3" ry="3" style="stroke:#038048;stroke-width:1.0;"/><text fill="#000000" font-family="sans-serif" font-size="14" lengthAdjust="spacing" textLength="61" x="163" y="504.2832">withTitle()</text><ellipse cx="154" cy="516.5703" fill="#84BE84" rx="3" ry="3" style="stroke:#038048;stroke-width:1.0;"/><text fill="#000000" font-family="sans-serif" font-size="14" lengthAdjust="spacing" textLength="40" x="163" y="519.9238">build()</text></g><!--class BoardRepository--><g id="elem_BoardRepository"><rect codeLine="47" fill="#F1F1F1" height="86.3281" id="BoardRepository" rx="2.5" ry="2.5" style="stroke:#181818;stroke-width:0.5;" width="207" x="839.5" y="617.5"/><ellipse cx="885.75" cy="637.0234" fill="#B4A7E5" rx="11" ry="11" style="stroke:#181818;stroke-width:1.0;"/><path d="M886.7031,633.6641 L886.7031,640.3203 L888.4219,640.3203 Q889.0313,640.3203 889.2969,640.5547 Q889.5625,640.7891 889.5625,641.1797 Q889.5625,641.5547 889.2969,641.7891 Q889.0313,642.0234 888.4219,642.0234 L883.2813,642.0234 Q882.6719,642.0234 882.4063,641.7891 Q882.1406,641.5547 882.1406,641.1641 Q882.1406,640.7891 882.4063,640.5547 Q882.6719,640.3203 883.2813,640.3203 L885,640.3203 L885,633.6641 L883.2813,633.6641 Q882.6719,633.6641 882.4063,633.4297 Q882.1406,633.1953 882.1406,632.8047 Q882.1406,632.4297 882.4063,632.1953 Q882.6719,631.9609 883.2813,631.9609 L888.4219,631.9609 Q889.0313,631.9609 889.2969,632.1953 Q889.5625,632.4297 889.5625,632.8047 Q889.5625,633.1953 889.2969,633.4297 Q889.0313,633.6641 888.4219,633.6641 L886.7031,633.6641 Z " fill="#000000"/><text fill="#000000" font-family="sans-serif" font-size="12" font-style="italic" lengthAdjust="spacing" textLength="68" x="925.25" y="633.3633">&#171;repository&#187;</text><text fill="#000000" font-family="sans-serif" font-size="14" font-style="italic" lengthAdjust="spacing" textLength="106" x="906.25" y="648.5801">BoardRepository</text><line style="stroke:#181818;stroke-width:0.5;" x1="840.5" x2="1045.5" y1="656.5469" y2="656.5469"/><line style="stroke:#181818;stroke-width:0.5;" x1="840.5" x2="1045.5" y1="664.5469" y2="664.5469"/><text fill="#000000" font-family="sans-serif" font-size="14" lengthAdjust="spacing" textLength="195" x="845.5" y="681.2207">findBoardsOwnedByUser(user)</text><text fill="#000000" font-family="sans-serif" font-size="14" lengthAdjust="spacing" textLength="131" x="845.5" y="696.8613">archiveBoard(board)</text></g><!--class ArchiveBoardController--><g id="elem_ArchiveBoardController"><rect codeLine="55" fill="#F1F1F1" height="117.6094" id="ArchiveBoardController" rx="2.5" ry="2.5" style="stroke:#181818;stroke-width:0.5;" width="265" x="829.5" y="200"/><ellipse cx="884.25" cy="219.5234" fill="#ADD1B2" rx="11" ry="11" style="stroke:#181818;stroke-width:1.0;"/><path d="M887.0156,215.3984 Q887.1719,215.1797 887.3594,215.0703 Q887.5469,214.9609 887.7656,214.9609 Q888.1406,214.9609 888.375,215.2266 Q888.6094,215.4766 888.6094,216.0859 L888.6094,217.5391 Q888.6094,218.1484 888.375,218.4141 Q888.1406,218.6797 887.7656,218.6797 Q887.4219,218.6797 887.2188,218.4766 Q887.0156,218.2891 886.9063,217.7734 Q886.8594,217.4141 886.6719,217.2266 Q886.3438,216.8516 885.7344,216.6328 Q885.125,216.4141 884.5,216.4141 Q883.7344,216.4141 883.0938,216.7422 Q882.4688,217.0703 881.9688,217.8203 Q881.4844,218.5703 881.4844,219.6016 L881.4844,220.6953 Q881.4844,221.9297 882.375,222.7578 Q883.2656,223.5703 884.8594,223.5703 Q885.7969,223.5703 886.4531,223.3203 Q886.8438,223.1641 887.2656,222.7266 Q887.5313,222.4609 887.6719,222.3828 Q887.8281,222.3047 888.0313,222.3047 Q888.3594,222.3047 888.6094,222.5703 Q888.875,222.8203 888.875,223.1641 Q888.875,223.5078 888.5313,223.9141 Q888.0313,224.4922 887.2344,224.8203 Q886.1563,225.2734 884.8594,225.2734 Q883.3438,225.2734 882.1406,224.6484 Q881.1563,224.1484 880.4688,223.0859 Q879.7813,222.0078 879.7813,220.7266 L879.7813,219.5703 Q879.7813,218.2422 880.3906,217.1016 Q881.0156,215.9453 882.1094,215.3359 Q883.2031,214.7109 884.4375,214.7109 Q885.1719,214.7109 885.8125,214.8828 Q886.4688,215.0391 887.0156,215.3984 Z " fill="#000000"/><text fill="#000000" font-family="sans-serif" font-size="12" font-style="italic" lengthAdjust="spacing" textLength="65" x="945.75" y="215.8633">&#171;controller&#187;</text><text fill="#000000" font-family="sans-serif" font-size="14" lengthAdjust="spacing" textLength="147" x="904.75" y="231.0801">ArchiveBoardController</text><line style="stroke:#181818;stroke-width:0.5;" x1="830.5" x2="1093.5" y1="239.0469" y2="239.0469"/><rect fill="none" height="6" style="stroke:#C82930;stroke-width:1.0;" width="6" x="837.5" y="249.3672"/><text fill="#000000" font-family="sans-serif" font-size="14" lengthAdjust="spacing" textLength="175" x="849.5" y="255.7207">authz : AuthorizationService</text><rect fill="none" height="6" style="stroke:#C82930;stroke-width:1.0;" width="6" x="837.5" y="265.0078"/><text fill="#000000" font-family="sans-serif" font-size="14" lengthAdjust="spacing" textLength="239" x="849.5" y="271.3613">boardSvc : BoardManagementService</text><line style="stroke:#181818;stroke-width:0.5;" x1="830.5" x2="1093.5" y1="278.3281" y2="278.3281"/><ellipse cx="840.5" cy="291.6484" fill="#84BE84" rx="3" ry="3" style="stroke:#038048;stroke-width:1.0;"/><text fill="#000000" font-family="sans-serif" font-size="14" lengthAdjust="spacing" textLength="158" x="849.5" y="295.002">allBoardsOwnedByUser()</text><ellipse cx="840.5" cy="307.2891" fill="#84BE84" rx="3" ry="3" style="stroke:#038048;stroke-width:1.0;"/><text fill="#000000" font-family="sans-serif" font-size="14" lengthAdjust="spacing" textLength="131" x="849.5" y="310.6426">archiveBoard(board)</text></g><!--class BoardManagementService--><g id="elem_BoardManagementService"><rect codeLine="62" fill="#F1F1F1" height="101.9688" id="BoardManagementService" rx="2.5" ry="2.5" style="stroke:#181818;stroke-width:0.5;" width="249" x="829.5" y="401.5"/><ellipse cx="867" cy="421.0234" fill="#ADD1B2" rx="11" ry="11" style="stroke:#181818;stroke-width:1.0;"/><path d="M869.7656,416.8984 Q869.9219,416.6797 870.1094,416.5703 Q870.2969,416.4609 870.5156,416.4609 Q870.8906,416.4609 871.125,416.7266 Q871.3594,416.9766 871.3594,417.5859 L871.3594,419.0391 Q871.3594,419.6484 871.125,419.9141 Q870.8906,420.1797 870.5156,420.1797 Q870.1719,420.1797 869.9688,419.9766 Q869.7656,419.7891 869.6563,419.2734 Q869.6094,418.9141 869.4219,418.7266 Q869.0938,418.3516 868.4844,418.1328 Q867.875,417.9141 867.25,417.9141 Q866.4844,417.9141 865.8438,418.2422 Q865.2188,418.5703 864.7188,419.3203 Q864.2344,420.0703 864.2344,421.1016 L864.2344,422.1953 Q864.2344,423.4297 865.125,424.2578 Q866.0156,425.0703 867.6094,425.0703 Q868.5469,425.0703 869.2031,424.8203 Q869.5938,424.6641 870.0156,424.2266 Q870.2813,423.9609 870.4219,423.8828 Q870.5781,423.8047 870.7813,423.8047 Q871.1094,423.8047 871.3594,424.0703 Q871.625,424.3203 871.625,424.6641 Q871.625,425.0078 871.2813,425.4141 Q870.7813,425.9922 869.9844,426.3203 Q868.9063,426.7734 867.6094,426.7734 Q866.0938,426.7734 864.8906,426.1484 Q863.9063,425.6484 863.2188,424.5859 Q862.5313,423.5078 862.5313,422.2266 L862.5313,421.0703 Q862.5313,419.7422 863.1406,418.6016 Q863.7656,417.4453 864.8594,416.8359 Q865.9531,416.2109 867.1875,416.2109 Q867.9219,416.2109 868.5625,416.3828 Q869.2188,416.5391 869.7656,416.8984 Z " fill="#000000"/><text fill="#000000" font-family="sans-serif" font-size="12" font-style="italic" lengthAdjust="spacing" textLength="53" x="943" y="417.3633">&#171;service&#187;</text><text fill="#000000" font-family="sans-serif" font-size="14" lengthAdjust="spacing" textLength="167" x="886" y="432.5801">BoardManagementService</text><line style="stroke:#181818;stroke-width:0.5;" x1="830.5" x2="1077.5" y1="440.5469" y2="440.5469"/><rect fill="none" height="6" style="stroke:#C82930;stroke-width:1.0;" width="6" x="837.5" y="450.8672"/><text fill="#000000" font-family="sans-serif" font-size="14" lengthAdjust="spacing" textLength="223" x="849.5" y="457.2207">boardRepository : BoardRepository</text><line style="stroke:#181818;stroke-width:0.5;" x1="830.5" x2="1077.5" y1="464.1875" y2="464.1875"/><ellipse cx="840.5" cy="477.5078" fill="#84BE84" rx="3" ry="3" style="stroke:#038048;stroke-width:1.0;"/><text fill="#000000" font-family="sans-serif" font-size="14" lengthAdjust="spacing" textLength="186" x="849.5" y="480.8613">allBoardsOwnedByUser(user)</text><ellipse cx="840.5" cy="493.1484" fill="#84BE84" rx="3" ry="3" style="stroke:#038048;stroke-width:1.0;"/><text fill="#000000" font-family="sans-serif" font-size="14" lengthAdjust="spacing" textLength="131" x="849.5" y="496.502">archiveBoard(board)</text></g><!--link ArchiveBoardUI to ArchiveBoardController--><g id="link_ArchiveBoardUI_ArchiveBoardController"><path codeLine="69" d="M962,126.12 C962,146.69 962,171.87 962,194.7 " fill="none" id="ArchiveBoardUI-to-ArchiveBoardController" style="stroke:#181818;stroke-width:1.0;stroke-dasharray:7.0,7.0;"/><polygon fill="#181818" points="962,199.83,966,190.83,962,194.83,958,190.83,962,199.83" style="stroke:#181818;stroke-width:1.0;"/></g><!--link ArchiveBoardController to BoardManagementService--><g id="link_ArchiveBoardController_BoardManagementService"><path codeLine="70" d="M959.57,318.24 C958.53,342.99 957.33,371.73 956.31,396.16 " fill="none" id="ArchiveBoardController-to-BoardManagementService" style="stroke:#181818;stroke-width:1.0;stroke-dasharray:7.0,7.0;"/><polygon fill="#181818" points="956.1,401.31,960.4575,392.4776,956.3004,396.314,952.464,392.1569,956.1,401.31" style="stroke:#181818;stroke-width:1.0;"/></g><!--link BoardManagementService to SharedBoard--><g id="link_BoardManagementService_SharedBoard"><path codeLine="71" d="M854.49,503.57 C833.29,512.69 810.73,521.27 789,527.5 C638.92,570.55 592.18,536.51 441,575.5 C429.66,578.43 418.1,581.76 406.53,585.37 " fill="none" id="BoardManagementService-to-SharedBoard" style="stroke:#181818;stroke-width:1.0;stroke-dasharray:7.0,7.0;"/><polygon fill="#181818" points="401.56,586.94,411.3453,588.0568,406.3299,585.4405,408.9461,580.425,401.56,586.94" style="stroke:#181818;stroke-width:1.0;"/></g><!--link BoardManagementService to BoardRepository--><g id="link_BoardManagementService_BoardRepository"><path codeLine="72" d="M951.32,503.63 C949.55,536.75 947.25,579.88 945.52,612.38 " fill="none" id="BoardManagementService-to-BoardRepository" style="stroke:#181818;stroke-width:1.0;stroke-dasharray:7.0,7.0;"/><polygon fill="#181818" points="945.24,617.5,949.722,608.7301,945.511,612.5074,941.7337,608.2964,945.24,617.5" style="stroke:#181818;stroke-width:1.0;"/></g><!--link ArchiveBoardController to SharedBoard--><g id="link_ArchiveBoardController_SharedBoard"><path codeLine="73" d="M846.33,318.12 C834.71,324.11 823.1,330.14 812,336 C654.61,419.06 475.67,517.99 356.73,584.39 " fill="none" id="ArchiveBoardController-to-SharedBoard" style="stroke:#181818;stroke-width:1.0;stroke-dasharray:7.0,7.0;"/><polygon fill="#181818" points="352.17,586.94,361.98,586.0658,356.5408,584.5118,358.0948,579.0726,352.17,586.94" style="stroke:#181818;stroke-width:1.0;"/></g><!--link BoardRepository to SharedBoard--><g id="link_BoardRepository_SharedBoard"><path codeLine="74" d="M892.37,617.43 C860.08,592.86 816.05,564.46 771.5,551.5 C704.71,532.07 526.43,536.54 458.5,551.5 C425.58,558.75 391.79,571.07 360.44,584.88 " fill="none" id="BoardRepository-to-SharedBoard" style="stroke:#181818;stroke-width:1.0;"/><polygon fill="#181818" points="355.84,586.93,365.6888,586.91,360.4049,584.89,362.4249,579.6061,355.84,586.93" style="stroke:#181818;stroke-width:1.0;"/></g><!--link SharedBoardBuilder to SharedBoard--><g id="link_SharedBoardBuilder_SharedBoard"><path codeLine="75" d="M223,527.29 C223,545.02 223,564 223,581.9 " fill="none" id="SharedBoardBuilder-to-SharedBoard" style="stroke:#181818;stroke-width:1.0;stroke-dasharray:7.0,7.0;"/><polygon fill="#181818" points="223,586.92,227,577.92,223,581.92,219,577.92,223,586.92" style="stroke:#181818;stroke-width:1.0;"/></g><!--link SharedBoard to SharedBoardTitle--><g id="link_SharedBoard_SharedBoardTitle"><path codeLine="76" d="M334.01,586.81 C401.6,551.39 489.3,522.33 565.5,551.5 C594.77,562.71 621.43,584.57 642.27,605.8 " fill="none" id="SharedBoard-to-SharedBoardTitle" style="stroke:#181818;stroke-width:1.0;"/><polygon fill="#181818" points="645.82,609.48,642.4338,600.2316,642.3422,605.8877,636.6861,605.7961,645.82,609.48" style="stroke:#181818;stroke-width:1.0;"/></g><!--link SharedBoard to SystemUser--><g id="link_SharedBoard_SystemUser"><path codeLine="77" d="M423.66,660.5 C433.46,660.5 443.25,660.5 453.05,660.5 " fill="none" id="SharedBoard-to-SystemUser" style="stroke:#181818;stroke-width:1.0;"/><polygon fill="#181818" points="458.17,660.5,449.17,656.5,453.17,660.5,449.17,664.5,458.17,660.5" style="stroke:#181818;stroke-width:1.0;"/></g><!--SRC=[VLHDZvim4BtpAwpjeLdbwz0UgWWXTTDB3ssaqFq1nap0hR6HROAoqVxt3kRB8M4v0FQycNdluU5pRcrfTjjjAQYqLI4sJ1LR9gWnwvJJJDCY24hA_j4Co5EfmO2qr78bdyYd7-ww1WGlbqA-QvRpCxmegjFNdoGCAnv5BM1DR0vx9QrMGe0cknlm673W9KbLdAjwyUoMxy6xno9L1ULD_pH9lr6u1a7NFSwfXjJLmzOqopHar0BHIjaemYtapkrbOAHgwOZ45sEXU3LTyxLMzU-gI43lIFiyd8wgxbGm9Qf2JkDxjzj1Oh0at8CG4M5uDzYYMNNAF9OBns15XeQhc_AhBXr92-YT23oxlL9_6WnAF5DH0L79Ns1sjDx1MmZAjPhBh6FZy8VJOaGyTn6oLvKsq6RTnNiY7fd1HT_e0TGaJ3D6-YyL5ob-Z33itdhkZalDRNwePGswEn33xh5tRXfe33TtcvwvqvZJvcyc3H5l0mNufx04RJWgbWnkZY9UN5hG9yg0E6r7A9NXLkaBojF3ebTuuhBrmA14jEFIMBYeyDRsfjwOB9BcFdm1dmyjIy5PFvf0Jr_JBzVWmLnwCnY6R5YCXuLMDdzhvXEVIlCtLpC6VUOCEeYZ4PyPebpDNrGYYG8_kuzR4Yh4lRJ-W7qWhAFzk3RIDktRo3cP6BsRMj_sVCXdj7evJmb9JNvkctKqzmkRiRl9cB5hHkbc4_bJCWlh2tjwF-1mLz4pRX9-CAARUSWasutKNNpysGR1Vm00]--></g></svg>