<?xml version="1.0" encoding="us-ascii" standalone="no"?><svg xmlns="http://www.w3.org/2000/svg" xmlns:xlink="http://www.w3.org/1999/xlink" contentStyleType="text/css" height="680px" preserveAspectRatio="none" style="width:841px;height:680px;background:#FFFFFF;" version="1.1" viewBox="0 0 841 680" width="841px" zoomAndPan="magnify"><defs/><g><rect fill="#FFFFFF" height="456.375" style="stroke:#181818;stroke-width:1.0;" width="10" x="191.5" y="112.8047"/><rect fill="#FFFFFF" height="399.3281" style="stroke:#181818;stroke-width:1.0;" width="10" x="337.5" y="141.3281"/><rect fill="#FFFFFF" height="85.5703" style="stroke:#181818;stroke-width:1.0;" width="10" x="518.5" y="169.8516"/><rect fill="#FFFFFF" height="85.5703" style="stroke:#181818;stroke-width:1.0;" width="10" x="518.5" y="426.5625"/><rect fill="#FFFFFF" height="28.5234" style="stroke:#181818;stroke-width:1.0;" width="10" x="779.5" y="198.375"/><rect fill="#FFFFFF" height="28.5234" style="stroke:#181818;stroke-width:1.0;" width="10" x="779.5" y="455.0859"/><line style="stroke:#181818;stroke-width:0.5;stroke-dasharray:5.0,5.0;" x1="22" x2="22" y1="82.2813" y2="587.1797"/><line style="stroke:#181818;stroke-width:0.5;stroke-dasharray:5.0,5.0;" x1="196" x2="196" y1="82.2813" y2="587.1797"/><line style="stroke:#181818;stroke-width:0.5;stroke-dasharray:5.0,5.0;" x1="342" x2="342" y1="82.2813" y2="587.1797"/><line style="stroke:#181818;stroke-width:0.5;stroke-dasharray:5.0,5.0;" x1="523" x2="523" y1="82.2813" y2="587.1797"/><line style="stroke:#181818;stroke-width:0.5;stroke-dasharray:5.0,5.0;" x1="784.5" x2="784.5" y1="82.2813" y2="587.1797"/><text fill="#000000" font-family="FG Virgil" font-size="14" lengthAdjust="spacing" textLength="29" x="5" y="79.3145">User</text><ellipse cx="22.5" cy="15.1406" fill="#E2E2F0" rx="8" ry="8" style="stroke:#181818;stroke-width:0.5;"/><path d="M22.5,23.1406 L22.5,50.1406 M9.5,31.1406 L35.5,31.1406 M22.5,50.1406 L9.5,65.1406 M22.5,50.1406 L35.5,65.1406 " fill="none" style="stroke:#181818;stroke-width:0.5;"/><text fill="#000000" font-family="FG Virgil" font-size="14" lengthAdjust="spacing" textLength="29" x="5" y="598.8535">User</text><ellipse cx="22.5" cy="610.3203" fill="#E2E2F0" rx="8" ry="8" style="stroke:#181818;stroke-width:0.5;"/><path d="M22.5,618.3203 L22.5,645.3203 M9.5,626.3203 L35.5,626.3203 M22.5,645.3203 L9.5,660.3203 M22.5,645.3203 L35.5,660.3203 " fill="none" style="stroke:#181818;stroke-width:0.5;"/><rect fill="#E2E2F0" height="45.2813" rx="2.5" ry="2.5" style="stroke:#181818;stroke-width:0.5;" width="111" x="141" y="36"/><text fill="#000000" font-family="FG Virgil" font-size="14" font-style="italic" lengthAdjust="spacing" textLength="95" x="149" y="55.6738">&#171;presentation&#187;</text><text fill="#000000" font-family="FG Virgil" font-size="14" lengthAdjust="spacing" textLength="97" x="148" y="71.3145">ArchiveBoardUI</text><rect fill="#E2E2F0" height="45.2813" rx="2.5" ry="2.5" style="stroke:#181818;stroke-width:0.5;" width="111" x="141" y="586.1797"/><text fill="#000000" font-family="FG Virgil" font-size="14" font-style="italic" lengthAdjust="spacing" textLength="95" x="149" y="605.8535">&#171;presentation&#187;</text><text fill="#000000" font-family="FG Virgil" font-size="14" lengthAdjust="spacing" textLength="97" x="148" y="621.4941">ArchiveBoardUI</text><rect fill="#E2E2F0" height="45.2813" rx="2.5" ry="2.5" style="stroke:#181818;stroke-width:0.5;" width="161" x="262" y="36"/><text fill="#000000" font-family="FG Virgil" font-size="14" font-style="italic" lengthAdjust="spacing" textLength="84" x="300.5" y="55.6738">&#171;application&#187;</text><text fill="#000000" font-family="FG Virgil" font-size="14" lengthAdjust="spacing" textLength="147" x="269" y="71.3145">ArchiveBoardController</text><rect fill="#E2E2F0" height="45.2813" rx="2.5" ry="2.5" style="stroke:#181818;stroke-width:0.5;" width="161" x="262" y="586.1797"/><text fill="#000000" font-family="FG Virgil" font-size="14" font-style="italic" lengthAdjust="spacing" textLength="84" x="300.5" y="605.8535">&#171;application&#187;</text><text fill="#000000" font-family="FG Virgil" font-size="14" lengthAdjust="spacing" textLength="147" x="269" y="621.4941">ArchiveBoardController</text><rect fill="#E2E2F0" height="45.2813" rx="2.5" ry="2.5" style="stroke:#181818;stroke-width:0.5;" width="181" x="433" y="36"/><text fill="#000000" font-family="FG Virgil" font-size="14" font-style="italic" lengthAdjust="spacing" textLength="84" x="481.5" y="55.6738">&#171;application&#187;</text><text fill="#000000" font-family="FG Virgil" font-size="14" lengthAdjust="spacing" textLength="167" x="440" y="71.3145">BoardManagementService</text><rect fill="#E2E2F0" height="45.2813" rx="2.5" ry="2.5" style="stroke:#181818;stroke-width:0.5;" width="181" x="433" y="586.1797"/><text fill="#000000" font-family="FG Virgil" font-size="14" font-style="italic" lengthAdjust="spacing" textLength="84" x="481.5" y="605.8535">&#171;application&#187;</text><text fill="#000000" font-family="FG Virgil" font-size="14" lengthAdjust="spacing" textLength="167" x="440" y="621.4941">BoardManagementService</text><text fill="#000000" font-family="FG Virgil" font-size="14" font-style="italic" lengthAdjust="spacing" textLength="79" x="742" y="63.6738">&#171;repository&#187;</text><text fill="#000000" font-family="FG Virgil" font-size="14" lengthAdjust="spacing" textLength="106" x="728.5" y="79.3145">BoardRepository</text><path d="M766.5,15 C766.5,5 784.5,5 784.5,5 C784.5,5 802.5,5 802.5,15 L802.5,41 C802.5,51 784.5,51 784.5,51 C784.5,51 766.5,51 766.5,41 L766.5,15 " fill="#E2E2F0" style="stroke:#181818;stroke-width:1.5;"/><path d="M766.5,15 C766.5,25 784.5,25 784.5,25 C784.5,25 802.5,25 802.5,15 " fill="none" style="stroke:#181818;stroke-width:1.5;"/><text fill="#000000" font-family="FG Virgil" font-size="14" font-style="italic" lengthAdjust="spacing" textLength="79" x="742" y="598.8535">&#171;repository&#187;</text><text fill="#000000" font-family="FG Virgil" font-size="14" lengthAdjust="spacing" textLength="106" x="728.5" y="614.4941">BoardRepository</text><path d="M766.5,627.4609 C766.5,617.4609 784.5,617.4609 784.5,617.4609 C784.5,617.4609 802.5,617.4609 802.5,627.4609 L802.5,653.4609 C802.5,663.4609 784.5,663.4609 784.5,663.4609 C784.5,663.4609 766.5,663.4609 766.5,653.4609 L766.5,627.4609 " fill="#E2E2F0" style="stroke:#181818;stroke-width:1.5;"/><path d="M766.5,627.4609 C766.5,637.4609 784.5,637.4609 784.5,637.4609 C784.5,637.4609 802.5,637.4609 802.5,627.4609 " fill="none" style="stroke:#181818;stroke-width:1.5;"/><rect fill="#FFFFFF" height="456.375" style="stroke:#181818;stroke-width:1.0;" width="10" x="191.5" y="112.8047"/><rect fill="#FFFFFF" height="399.3281" style="stroke:#181818;stroke-width:1.0;" width="10" x="337.5" y="141.3281"/><rect fill="#FFFFFF" height="85.5703" style="stroke:#181818;stroke-width:1.0;" width="10" x="518.5" y="169.8516"/><rect fill="#FFFFFF" height="85.5703" style="stroke:#181818;stroke-width:1.0;" width="10" x="518.5" y="426.5625"/><rect fill="#FFFFFF" height="28.5234" style="stroke:#181818;stroke-width:1.0;" width="10" x="779.5" y="198.375"/><rect fill="#FFFFFF" height="28.5234" style="stroke:#181818;stroke-width:1.0;" width="10" x="779.5" y="455.0859"/><polygon fill="#181818" points="179.5,108.8047,189.5,112.8047,179.5,116.8047,183.5,112.8047" style="stroke:#181818;stroke-width:1.0;"/><line style="stroke:#181818;stroke-width:1.0;" x1="22.5" x2="185.5" y1="112.8047" y2="112.8047"/><text fill="#000000" font-family="FG Virgil" font-size="13" lengthAdjust="spacing" textLength="80" x="29.5" y="108.0498">Archive Board</text><polygon fill="#181818" points="325.5,137.3281,335.5,141.3281,325.5,145.3281,329.5,141.3281" style="stroke:#181818;stroke-width:1.0;"/><line style="stroke:#181818;stroke-width:1.0;" x1="201.5" x2="331.5" y1="141.3281" y2="141.3281"/><text fill="#000000" font-family="FG Virgil" font-size="13" lengthAdjust="spacing" textLength="44" x="208.5" y="136.5732">create()</text><polygon fill="#181818" points="506.5,165.8516,516.5,169.8516,506.5,173.8516,510.5,169.8516" style="stroke:#181818;stroke-width:1.0;"/><line style="stroke:#181818;stroke-width:1.0;" x1="347.5" x2="512.5" y1="169.8516" y2="169.8516"/><text fill="#000000" font-family="FG Virgil" font-size="13" lengthAdjust="spacing" textLength="145" x="354.5" y="165.0967">allBoardsOwnedByUser()</text><polygon fill="#181818" points="767.5,194.375,777.5,198.375,767.5,202.375,771.5,198.375" style="stroke:#181818;stroke-width:1.0;"/><line style="stroke:#181818;stroke-width:1.0;" x1="528.5" x2="773.5" y1="198.375" y2="198.375"/><text fill="#000000" font-family="FG Virgil" font-size="13" lengthAdjust="spacing" textLength="232" x="535.5" y="193.6201">boards = findBoardsOwnedByUser(user)</text><polygon fill="#181818" points="539.5,222.8984,529.5,226.8984,539.5,230.8984,535.5,226.8984" style="stroke:#181818;stroke-width:1.0;"/><line style="stroke:#181818;stroke-width:1.0;stroke-dasharray:2.0,2.0;" x1="533.5" x2="783.5" y1="226.8984" y2="226.8984"/><text fill="#000000" font-family="FG Virgil" font-size="13" lengthAdjust="spacing" textLength="39" x="545.5" y="222.1436">boards</text><polygon fill="#181818" points="358.5,251.4219,348.5,255.4219,358.5,259.4219,354.5,255.4219" style="stroke:#181818;stroke-width:1.0;"/><line style="stroke:#181818;stroke-width:1.0;stroke-dasharray:2.0,2.0;" x1="352.5" x2="522.5" y1="255.4219" y2="255.4219"/><text fill="#000000" font-family="FG Virgil" font-size="13" lengthAdjust="spacing" textLength="39" x="364.5" y="250.667">boards</text><polygon fill="#181818" points="212.5,279.9453,202.5,283.9453,212.5,287.9453,208.5,283.9453" style="stroke:#181818;stroke-width:1.0;"/><line style="stroke:#181818;stroke-width:1.0;stroke-dasharray:2.0,2.0;" x1="206.5" x2="336.5" y1="283.9453" y2="283.9453"/><text fill="#000000" font-family="FG Virgil" font-size="13" lengthAdjust="spacing" textLength="39" x="218.5" y="279.1904">boards</text><polygon fill="#181818" points="33.5,308.4688,23.5,312.4688,33.5,316.4688,29.5,312.4688" style="stroke:#181818;stroke-width:1.0;"/><line style="stroke:#181818;stroke-width:1.0;stroke-dasharray:2.0,2.0;" x1="27.5" x2="190.5" y1="312.4688" y2="312.4688"/><text fill="#000000" font-family="FG Virgil" font-size="13" lengthAdjust="spacing" textLength="117" x="39.5" y="307.7139">Shows list of boards</text><polygon fill="#181818" points="33.5,336.9922,23.5,340.9922,33.5,344.9922,29.5,340.9922" style="stroke:#181818;stroke-width:1.0;"/><line style="stroke:#181818;stroke-width:1.0;stroke-dasharray:2.0,2.0;" x1="27.5" x2="190.5" y1="340.9922" y2="340.9922"/><text fill="#000000" font-family="FG Virgil" font-size="13" lengthAdjust="spacing" textLength="145" x="39.5" y="336.2373">Asks to select one board</text><polygon fill="#181818" points="179.5,365.5156,189.5,369.5156,179.5,373.5156,183.5,369.5156" style="stroke:#181818;stroke-width:1.0;"/><line style="stroke:#181818;stroke-width:1.0;" x1="22.5" x2="185.5" y1="369.5156" y2="369.5156"/><text fill="#000000" font-family="FG Virgil" font-size="13" lengthAdjust="spacing" textLength="105" x="29.5" y="364.7607">Selects one board</text><polygon fill="#181818" points="325.5,394.0391,335.5,398.0391,325.5,402.0391,329.5,398.0391" style="stroke:#181818;stroke-width:1.0;"/><line style="stroke:#181818;stroke-width:1.0;" x1="201.5" x2="331.5" y1="398.0391" y2="398.0391"/><text fill="#000000" font-family="FG Virgil" font-size="13" lengthAdjust="spacing" textLength="32" x="208.5" y="393.2842">board</text><polygon fill="#181818" points="506.5,422.5625,516.5,426.5625,506.5,430.5625,510.5,426.5625" style="stroke:#181818;stroke-width:1.0;"/><line style="stroke:#181818;stroke-width:1.0;" x1="347.5" x2="512.5" y1="426.5625" y2="426.5625"/><text fill="#000000" font-family="FG Virgil" font-size="13" lengthAdjust="spacing" textLength="121" x="354.5" y="421.8076">archieveBoard(board)</text><polygon fill="#181818" points="767.5,451.0859,777.5,455.0859,767.5,459.0859,771.5,455.0859" style="stroke:#181818;stroke-width:1.0;"/><line style="stroke:#181818;stroke-width:1.0;" x1="528.5" x2="773.5" y1="455.0859" y2="455.0859"/><text fill="#000000" font-family="FG Virgil" font-size="13" lengthAdjust="spacing" textLength="114" x="535.5" y="450.3311">archiveBoard(board)</text><polygon fill="#181818" points="539.5,479.6094,529.5,483.6094,539.5,487.6094,535.5,483.6094" style="stroke:#181818;stroke-width:1.0;"/><line style="stroke:#181818;stroke-width:1.0;stroke-dasharray:2.0,2.0;" x1="533.5" x2="783.5" y1="483.6094" y2="483.6094"/><text fill="#000000" font-family="FG Virgil" font-size="13" lengthAdjust="spacing" textLength="49" x="545.5" y="478.8545">success</text><polygon fill="#181818" points="358.5,508.1328,348.5,512.1328,358.5,516.1328,354.5,512.1328" style="stroke:#181818;stroke-width:1.0;"/><line style="stroke:#181818;stroke-width:1.0;stroke-dasharray:2.0,2.0;" x1="352.5" x2="522.5" y1="512.1328" y2="512.1328"/><text fill="#000000" font-family="FG Virgil" font-size="13" lengthAdjust="spacing" textLength="49" x="364.5" y="507.3779">success</text><polygon fill="#181818" points="212.5,536.6563,202.5,540.6563,212.5,544.6563,208.5,540.6563" style="stroke:#181818;stroke-width:1.0;"/><line style="stroke:#181818;stroke-width:1.0;stroke-dasharray:2.0,2.0;" x1="206.5" x2="341.5" y1="540.6563" y2="540.6563"/><text fill="#000000" font-family="FG Virgil" font-size="13" lengthAdjust="spacing" textLength="49" x="218.5" y="535.9014">success</text><polygon fill="#181818" points="33.5,565.1797,23.5,569.1797,33.5,573.1797,29.5,569.1797" style="stroke:#181818;stroke-width:1.0;"/><line style="stroke:#181818;stroke-width:1.0;stroke-dasharray:2.0,2.0;" x1="27.5" x2="195.5" y1="569.1797" y2="569.1797"/><text fill="#000000" font-family="FG Virgil" font-size="13" lengthAdjust="spacing" textLength="120" x="39.5" y="564.4248">Confirms the request</text><!--SRC=[dLHDRzim3BthL_2sxj3cRdW1qW4TUjW6BCZkh4p7GcJ94-K4-VUZxCJHdAH0Tp4WlG_naP8_DJ5snMBHMNInR-sJzks2TyPr6B1zQc9hrRI41brr22P6Sb2ZPSgm3lKEjxIEHqiGICSCgwZ6tiONx-8FR0bUli5l4xOcz-O6AtymRdjoLgYZ3x1X2e0CgxHIGer6cqwAXLNGZTdJiyTGRLuJHxvbsGLYSX6ZyMwvlAluAhK4R-tedgtA4hlE6dtBO51-HoSvMpbZJM5lD2M3juIiz_fANc74DsGQjR-eysmaoJ69vbjb6QQ5IDMG6HwN4gmu5p-ArD0UiyT80Ye9BgnBY09q8C4UFbze5rIfBAxefjeBG6i7V_vvS5Gz7rFtSvCpLKqQqSzY52EBuGlKnbNNVhryCi-PNCsxyfYLUFPM5TtLNqhxfoTmIplboJioDFn2JysLhN4O1QmRVs2mXYFu-WvdnJk6w879oaC0xqudvHDDLWFC6JuVvBcAzqQMxWMTRlN307nuO9WzZ2kBZys7Uws9_sT0DxNl3kW6FxlbcrSX3WqlqdPjGYj3QTBFwKzF77EPlA6_]--></g></svg>