<?xml version="1.0" encoding="us-ascii" standalone="no"?><svg xmlns="http://www.w3.org/2000/svg" xmlns:xlink="http://www.w3.org/1999/xlink" contentStyleType="text/css" height="611.4px" preserveAspectRatio="none" style="width:1034px;height:611px;background:#FFFFFF;" version="1.1" viewBox="0 0 1034 611" width="1034.4px" zoomAndPan="magnify"><defs/><g><!--cluster presentation--><g id="cluster_presentation"><path d="M710.7,3.6082 L765.3,3.6082 A2.25,2.25 0 0 1 766.8,5.1082 L771,18.3809 L892.5,18.3809 A1.5,1.5 0 0 1 894,19.8809 L894,92.7082 A1.5,1.5 0 0 1 892.5,94.2082 L710.7,94.2082 A1.5,1.5 0 0 1 709.2,92.7082 L709.2,5.1082 A1.5,1.5 0 0 1 710.7,3.6082 " fill="#DDDDDD" style="stroke:#000000;stroke-width:0.8999999999999999;"/><line style="stroke:#000000;stroke-width:0.8999999999999999;" x1="709.2" x2="771" y1="18.3809" y2="18.3809"/><text fill="#000000" font-family="sans-serif" font-size="8.4" font-weight="bold" lengthAdjust="spacing" textLength="54" x="711.6" y="13.8727">presentation</text></g><!--cluster domain--><g id="cluster_domain"><path d="M5.1,114.0082 L36.3,114.0082 A2.25,2.25 0 0 1 37.8,115.5082 L42,128.7809 L692.1,128.7809 A1.5,1.5 0 0 1 693.6,130.2809 L693.6,514.5082 A1.5,1.5 0 0 1 692.1,516.0082 L5.1,516.0082 A1.5,1.5 0 0 1 3.6,514.5082 L3.6,115.5082 A1.5,1.5 0 0 1 5.1,114.0082 " fill="#DBD8AE" style="stroke:#000000;stroke-width:0.8999999999999999;"/><line style="stroke:#000000;stroke-width:0.8999999999999999;" x1="3.6" x2="42" y1="128.7809" y2="128.7809"/><text fill="#000000" font-family="sans-serif" font-size="8.4" font-weight="bold" lengthAdjust="spacing" textLength="30.6" x="6" y="124.2727">domain</text></g><!--cluster application--><g id="cluster_application"><path d="M709.5,135.6082 L756.3,135.6082 A2.25,2.25 0 0 1 757.8,137.1082 L762,150.3809 L893.7,150.3809 A1.5,1.5 0 0 1 895.2,151.8809 L895.2,391.5082 A1.5,1.5 0 0 1 893.7,393.0082 L709.5,393.0082 A1.5,1.5 0 0 1 708,391.5082 L708,137.1082 A1.5,1.5 0 0 1 709.5,135.6082 " fill="#EAF4D3" style="stroke:#000000;stroke-width:0.8999999999999999;"/><line style="stroke:#000000;stroke-width:0.8999999999999999;" x1="708" x2="762" y1="150.3809" y2="150.3809"/><text fill="#000000" font-family="sans-serif" font-size="8.4" font-weight="bold" lengthAdjust="spacing" textLength="46.2" x="710.4" y="145.8727">application</text></g><!--cluster repositories--><g id="cluster_repositories"><path d="M743.7,420.0082 L795.9,420.0082 A2.25,2.25 0 0 1 797.4,421.5082 L801.6,434.7809 L957.3,434.7809 A1.5,1.5 0 0 1 958.8,436.2809 L958.8,497.7082 A1.5,1.5 0 0 1 957.3,499.2082 L743.7,499.2082 A1.5,1.5 0 0 1 742.2,497.7082 L742.2,421.5082 A1.5,1.5 0 0 1 743.7,420.0082 " fill="#B0C4DE" style="stroke:#000000;stroke-width:0.8999999999999999;"/><line style="stroke:#000000;stroke-width:0.8999999999999999;" x1="742.2" x2="801.6" y1="434.7809" y2="434.7809"/><text fill="#000000" font-family="sans-serif" font-size="8.4" font-weight="bold" lengthAdjust="spacing" textLength="51.6" x="744.6" y="430.2727">repositories</text></g><!--cluster persistence--><g id="cluster_persistence"><path d="M779.1,546.6082 L830.1,546.6082 A2.25,2.25 0 0 1 831.6,548.1082 L835.8,561.3809 L1028.7,561.3809 A1.5,1.5 0 0 1 1030.2,562.8809 L1030.2,605.7082 A1.5,1.5 0 0 1 1028.7,607.2082 L779.1,607.2082 A1.5,1.5 0 0 1 777.6,605.7082 L777.6,548.1082 A1.5,1.5 0 0 1 779.1,546.6082 " fill="#B0C4DE" style="stroke:#000000;stroke-width:0.8999999999999999;"/><line style="stroke:#000000;stroke-width:0.8999999999999999;" x1="777.6" x2="835.8" y1="561.3809" y2="561.3809"/><text fill="#000000" font-family="sans-serif" font-size="8.4" font-weight="bold" lengthAdjust="spacing" textLength="50.4" x="780" y="556.8727">persistence</text></g><!--class ScheduleRecurringClassUI--><g id="elem_ScheduleRecurringClassUI"><rect codeLine="4" fill="#F1F1F1" height="58.6945" id="ScheduleRecurringClassUI" rx="1.5" ry="1.5" style="stroke:#181818;stroke-width:0.3;" width="165" x="719.1" y="25.8082"/><ellipse cx="748.65" cy="39.1828" fill="#ADD1B2" rx="6.6" ry="6.6" style="stroke:#181818;stroke-width:0.6;"/><path d="M750.3094,36.7078 Q750.4031,36.5766 750.5156,36.5109 Q750.6281,36.4453 750.7594,36.4453 Q750.9844,36.4453 751.125,36.6047 Q751.2656,36.7547 751.2656,37.1203 L751.2656,37.9922 Q751.2656,38.3578 751.125,38.5172 Q750.9844,38.6766 750.7594,38.6766 Q750.5531,38.6766 750.4313,38.5547 Q750.3094,38.4422 750.2438,38.1328 Q750.2156,37.9172 750.1031,37.8047 Q749.9063,37.5797 749.5406,37.4484 Q749.175,37.3172 748.8,37.3172 Q748.3406,37.3172 747.9563,37.5141 Q747.5813,37.7109 747.2813,38.1609 Q746.9906,38.6109 746.9906,39.2297 L746.9906,39.8859 Q746.9906,40.6266 747.525,41.1234 Q748.0594,41.6109 749.0156,41.6109 Q749.5781,41.6109 749.9719,41.4609 Q750.2063,41.3672 750.4594,41.1047 Q750.6188,40.9453 750.7031,40.8984 Q750.7969,40.8516 750.9187,40.8516 Q751.1156,40.8516 751.2656,41.0109 Q751.425,41.1609 751.425,41.3672 Q751.425,41.5734 751.2188,41.8172 Q750.9187,42.1641 750.4406,42.3609 Q749.7937,42.6328 749.0156,42.6328 Q748.1062,42.6328 747.3844,42.2578 Q746.7937,41.9578 746.3813,41.3203 Q745.9688,40.6734 745.9688,39.9047 L745.9688,39.2109 Q745.9688,38.4141 746.3344,37.7297 Q746.7094,37.0359 747.3656,36.6703 Q748.0219,36.2953 748.7625,36.2953 Q749.2031,36.2953 749.5875,36.3984 Q749.9812,36.4922 750.3094,36.7078 Z " fill="#000000"/><text fill="#000000" font-family="sans-serif" font-size="7.2" font-style="italic" lengthAdjust="spacing" textLength="16.2" x="803.25" y="36.5777">&#171;UI&#187;</text><text fill="#000000" font-family="sans-serif" font-size="8.4" lengthAdjust="spacing" textLength="100.8" x="760.95" y="47.4492">ScheduleRecurringClassUI</text><line style="stroke:#181818;stroke-width:0.3;" x1="719.7" x2="883.5" y1="52.5574" y2="52.5574"/><rect fill="none" height="3.6" style="stroke:#C82930;stroke-width:0.6;" width="3.6" x="723.9" y="59.6438"/><text fill="#000000" font-family="sans-serif" font-size="8.4" lengthAdjust="spacing" textLength="149.4" x="731.1" y="64.0219">ctrl : ScheduleRecurringClassController</text><line style="stroke:#181818;stroke-width:0.3;" x1="719.7" x2="883.5" y1="68.5301" y2="68.5301"/><ellipse cx="725.7" cy="77.4164" fill="#84BE84" rx="1.8" ry="1.8" style="stroke:#038048;stroke-width:0.6;"/><text fill="#000000" font-family="sans-serif" font-size="8.4" lengthAdjust="spacing" textLength="36" x="731.1" y="79.9945">doShow()</text></g><!--class Class--><g id="elem_Class"><rect codeLine="12" fill="#F1F1F1" height="146.4797" id="Class" rx="1.5" ry="1.5" style="stroke:#181818;stroke-width:0.3;" width="195" x="217.5" y="136.2082"/><ellipse cx="285.45" cy="154.3711" fill="#ADD1B2" rx="6.6" ry="6.6" style="stroke:#181818;stroke-width:0.6;"/><path d="M287.1094,151.8961 Q287.2031,151.7648 287.3156,151.6992 Q287.4281,151.6336 287.5594,151.6336 Q287.7844,151.6336 287.925,151.793 Q288.0656,151.943 288.0656,152.3086 L288.0656,153.1805 Q288.0656,153.5461 287.925,153.7055 Q287.7844,153.8648 287.5594,153.8648 Q287.3531,153.8648 287.2313,153.743 Q287.1094,153.6305 287.0438,153.3211 Q287.0156,153.1055 286.9031,152.993 Q286.7063,152.768 286.3406,152.6367 Q285.975,152.5055 285.6,152.5055 Q285.1406,152.5055 284.7562,152.7023 Q284.3812,152.8992 284.0813,153.3492 Q283.7906,153.7992 283.7906,154.418 L283.7906,155.0742 Q283.7906,155.8148 284.325,156.3117 Q284.8594,156.7992 285.8156,156.7992 Q286.3781,156.7992 286.7719,156.6492 Q287.0062,156.5555 287.2594,156.293 Q287.4188,156.1336 287.5031,156.0867 Q287.5969,156.0398 287.7188,156.0398 Q287.9156,156.0398 288.0656,156.1992 Q288.225,156.3492 288.225,156.5555 Q288.225,156.7617 288.0188,157.0055 Q287.7188,157.3523 287.2406,157.5492 Q286.5938,157.8211 285.8156,157.8211 Q284.9063,157.8211 284.1844,157.4461 Q283.5938,157.1461 283.1813,156.5086 Q282.7688,155.8617 282.7688,155.093 L282.7688,154.3992 Q282.7688,153.6023 283.1344,152.918 Q283.5094,152.2242 284.1656,151.8586 Q284.8219,151.4836 285.5625,151.4836 Q286.0031,151.4836 286.3875,151.5867 Q286.7813,151.6805 287.1094,151.8961 Z " fill="#000000"/><text fill="#000000" font-family="sans-serif" font-size="7.2" font-style="italic" lengthAdjust="spacing" textLength="56.4" x="296.55" y="146.9777">&#171;aggregate root&#187;</text><text fill="#000000" font-family="sans-serif" font-size="7.2" font-style="italic" lengthAdjust="spacing" textLength="25.8" x="311.85" y="156.5543">&#171;entity&#187;</text><text fill="#000000" font-family="sans-serif" font-size="8.4" lengthAdjust="spacing" textLength="21" x="314.25" y="167.4258">Class</text><line style="stroke:#181818;stroke-width:0.3;" x1="218.1" x2="411.9" y1="172.534" y2="172.534"/><rect fill="none" height="3.6" style="stroke:#C82930;stroke-width:0.6;" width="3.6" x="222.3" y="179.6203"/><text fill="#000000" font-family="sans-serif" font-size="8.4" lengthAdjust="spacing" textLength="57.6" x="229.5" y="183.9984">ClassTitle : title</text><rect fill="none" height="3.6" style="stroke:#C82930;stroke-width:0.6;" width="3.6" x="222.3" y="190.793"/><text fill="#000000" font-family="sans-serif" font-size="8.4" lengthAdjust="spacing" textLength="89.4" x="229.5" y="195.1711">ClassDuration: duration</text><rect fill="none" height="3.6" style="stroke:#C82930;stroke-width:0.6;" width="3.6" x="222.3" y="201.9656"/><text fill="#000000" font-family="sans-serif" font-size="8.4" lengthAdjust="spacing" textLength="74.4" x="229.5" y="206.3438">Calendar: dayClass</text><rect fill="none" height="3.6" style="stroke:#C82930;stroke-width:0.6;" width="3.6" x="222.3" y="213.1383"/><text fill="#000000" font-family="sans-serif" font-size="8.4" lengthAdjust="spacing" textLength="48" x="229.5" y="217.5164">int: weekDay</text><rect fill="none" height="3.6" style="stroke:#C82930;stroke-width:0.6;" width="3.6" x="222.3" y="224.3109"/><text fill="#000000" font-family="sans-serif" font-size="8.4" lengthAdjust="spacing" textLength="99.6" x="229.5" y="228.6891">LocalTime: classTimeStart</text><rect fill="none" height="3.6" style="stroke:#C82930;stroke-width:0.6;" width="3.6" x="222.3" y="235.4836"/><text fill="#000000" font-family="sans-serif" font-size="8.4" lengthAdjust="spacing" textLength="96.6" x="229.5" y="239.8617">LocalTime: classTimeEnd</text><rect fill="none" height="3.6" style="stroke:#C82930;stroke-width:0.6;" width="3.6" x="222.3" y="246.6563"/><text fill="#000000" font-family="sans-serif" font-size="8.4" lengthAdjust="spacing" textLength="65.4" x="229.5" y="251.0344">Teacher: teacher</text><rect fill="none" height="3.6" style="stroke:#C82930;stroke-width:0.6;" width="3.6" x="222.3" y="257.8289"/><text fill="#000000" font-family="sans-serif" font-size="8.4" lengthAdjust="spacing" textLength="58.2" x="229.5" y="262.207">Course: course</text><line style="stroke:#181818;stroke-width:0.3;" x1="218.1" x2="411.9" y1="266.7152" y2="266.7152"/><ellipse cx="224.1" cy="275.6016" fill="#84BE84" rx="1.8" ry="1.8" style="stroke:#038048;stroke-width:0.6;"/><text fill="#000000" font-family="sans-serif" font-size="8.4" lengthAdjust="spacing" textLength="179.4" x="229.5" y="278.1797">Class(title, duration, day, time, teacher, course)</text></g><!--class RecurringClass--><g id="elem_RecurringClass"><rect codeLine="24" fill="#F1F1F1" height="69.8672" id="RecurringClass" rx="1.5" ry="1.5" style="stroke:#181818;stroke-width:0.3;" width="253.8" x="429.9" y="319.2082"/><ellipse cx="525.15" cy="332.5828" fill="#ADD1B2" rx="6.6" ry="6.6" style="stroke:#181818;stroke-width:0.6;"/><path d="M526.8094,330.1078 Q526.9031,329.9766 527.0156,329.9109 Q527.1281,329.8453 527.2594,329.8453 Q527.4844,329.8453 527.625,330.0047 Q527.7656,330.1547 527.7656,330.5203 L527.7656,331.3922 Q527.7656,331.7578 527.625,331.9172 Q527.4844,332.0766 527.2594,332.0766 Q527.0531,332.0766 526.9313,331.9547 Q526.8094,331.8422 526.7438,331.5328 Q526.7156,331.3172 526.6031,331.2047 Q526.4063,330.9797 526.0406,330.8484 Q525.675,330.7172 525.3,330.7172 Q524.8406,330.7172 524.4563,330.9141 Q524.0813,331.1109 523.7813,331.5609 Q523.4906,332.0109 523.4906,332.6297 L523.4906,333.2859 Q523.4906,334.0266 524.025,334.5234 Q524.5594,335.0109 525.5156,335.0109 Q526.0781,335.0109 526.4719,334.8609 Q526.7063,334.7672 526.9594,334.5047 Q527.1188,334.3453 527.2031,334.2984 Q527.2969,334.2516 527.4187,334.2516 Q527.6156,334.2516 527.7656,334.4109 Q527.925,334.5609 527.925,334.7672 Q527.925,334.9734 527.7188,335.2172 Q527.4187,335.5641 526.9406,335.7609 Q526.2937,336.0328 525.5156,336.0328 Q524.6062,336.0328 523.8844,335.6578 Q523.2937,335.3578 522.8813,334.7203 Q522.4688,334.0734 522.4688,333.3047 L522.4688,332.6109 Q522.4688,331.8141 522.8344,331.1297 Q523.2094,330.4359 523.8656,330.0703 Q524.5219,329.6953 525.2625,329.6953 Q525.7031,329.6953 526.0875,329.7984 Q526.4812,329.8922 526.8094,330.1078 Z " fill="#000000"/><text fill="#000000" font-family="sans-serif" font-size="7.2" font-style="italic" lengthAdjust="spacing" textLength="25.8" x="553.65" y="329.9777">&#171;entity&#187;</text><text fill="#000000" font-family="sans-serif" font-size="8.4" lengthAdjust="spacing" textLength="58.2" x="537.45" y="340.8492">RecurringClass</text><line style="stroke:#181818;stroke-width:0.3;" x1="430.5" x2="683.1" y1="345.9574" y2="345.9574"/><rect fill="none" height="3.6" style="stroke:#C82930;stroke-width:0.6;" width="3.6" x="434.7" y="353.0438"/><text fill="#000000" font-family="sans-serif" font-size="8.4" lengthAdjust="spacing" textLength="238.2" x="441.9" y="357.4219">Map &lt;Calendar,RescheduledClassDate&gt; : rescheduledClasses</text><line style="stroke:#181818;stroke-width:0.3;" x1="430.5" x2="683.1" y1="361.9301" y2="361.9301"/><ellipse cx="436.5" cy="370.8164" fill="#84BE84" rx="1.8" ry="1.8" style="stroke:#038048;stroke-width:0.6;"/><text fill="#000000" font-family="sans-serif" font-size="8.4" lengthAdjust="spacing" textLength="112.2" x="441.9" y="373.3945">RecurringClass(super(title,..))</text><ellipse cx="436.5" cy="381.9891" fill="#84BE84" rx="1.8" ry="1.8" style="stroke:#038048;stroke-width:0.6;"/><text fill="#000000" font-family="sans-serif" font-size="8.4" lengthAdjust="spacing" textLength="65.4" x="441.9" y="384.5672">addReschedule()</text></g><!--class RescheduledClassDate--><g id="elem_RescheduledClassDate"><rect codeLine="30" fill="#F1F1F1" height="81.0398" id="RescheduledClassDate" rx="1.5" ry="1.5" style="stroke:#181818;stroke-width:0.3;" width="255" x="428.7" y="425.4082"/><ellipse cx="509.25" cy="438.7828" fill="#ADD1B2" rx="6.6" ry="6.6" style="stroke:#181818;stroke-width:0.6;"/><path d="M510.9094,436.3078 Q511.0031,436.1766 511.1156,436.1109 Q511.2281,436.0453 511.3594,436.0453 Q511.5844,436.0453 511.725,436.2047 Q511.8656,436.3547 511.8656,436.7203 L511.8656,437.5922 Q511.8656,437.9578 511.725,438.1172 Q511.5844,438.2766 511.3594,438.2766 Q511.1531,438.2766 511.0313,438.1547 Q510.9094,438.0422 510.8438,437.7328 Q510.8156,437.5172 510.7031,437.4047 Q510.5062,437.1797 510.1406,437.0484 Q509.775,436.9172 509.4,436.9172 Q508.9406,436.9172 508.5563,437.1141 Q508.1813,437.3109 507.8812,437.7609 Q507.5906,438.2109 507.5906,438.8297 L507.5906,439.4859 Q507.5906,440.2266 508.125,440.7234 Q508.6594,441.2109 509.6156,441.2109 Q510.1781,441.2109 510.5719,441.0609 Q510.8063,440.9672 511.0594,440.7047 Q511.2188,440.5453 511.3031,440.4984 Q511.3969,440.4516 511.5187,440.4516 Q511.7156,440.4516 511.8656,440.6109 Q512.025,440.7609 512.025,440.9672 Q512.025,441.1734 511.8187,441.4172 Q511.5187,441.7641 511.0406,441.9609 Q510.3937,442.2328 509.6156,442.2328 Q508.7062,442.2328 507.9844,441.8578 Q507.3937,441.5578 506.9813,440.9203 Q506.5687,440.2734 506.5687,439.5047 L506.5687,438.8109 Q506.5687,438.0141 506.9344,437.3297 Q507.3094,436.6359 507.9656,436.2703 Q508.6219,435.8953 509.3625,435.8953 Q509.8031,435.8953 510.1875,435.9984 Q510.5812,436.0922 510.9094,436.3078 Z " fill="#000000"/><text fill="#000000" font-family="sans-serif" font-size="7.2" font-style="italic" lengthAdjust="spacing" textLength="48.6" x="541.65" y="436.1777">&#171;value object&#187;</text><text fill="#000000" font-family="sans-serif" font-size="8.4" lengthAdjust="spacing" textLength="88.8" x="521.55" y="447.0492">RescheduledClassDate</text><line style="stroke:#181818;stroke-width:0.3;" x1="429.3" x2="683.1" y1="452.1574" y2="452.1574"/><rect fill="none" height="3.6" style="stroke:#C82930;stroke-width:0.6;" width="3.6" x="433.5" y="459.2438"/><text fill="#000000" font-family="sans-serif" font-size="8.4" lengthAdjust="spacing" textLength="76.8" x="440.7" y="463.6219">Calendar : newdDay</text><rect fill="none" height="3.6" style="stroke:#C82930;stroke-width:0.6;" width="3.6" x="433.5" y="470.4164"/><text fill="#000000" font-family="sans-serif" font-size="8.4" lengthAdjust="spacing" textLength="97.8" x="440.7" y="474.7945">LocalTime : newTimeStart</text><rect fill="none" height="3.6" style="stroke:#C82930;stroke-width:0.6;" width="3.6" x="433.5" y="481.5891"/><text fill="#000000" font-family="sans-serif" font-size="8.4" lengthAdjust="spacing" textLength="94.8" x="440.7" y="485.9672">LocalTime : newTimeEnd</text><line style="stroke:#181818;stroke-width:0.3;" x1="429.3" x2="683.1" y1="490.4754" y2="490.4754"/><ellipse cx="435.3" cy="499.3617" fill="#84BE84" rx="1.8" ry="1.8" style="stroke:#038048;stroke-width:0.6;"/><text fill="#000000" font-family="sans-serif" font-size="8.4" lengthAdjust="spacing" textLength="239.4" x="440.7" y="501.9398">RescheduledClassDate(newdDay, newTimeStart, newTimeEnd)</text></g><!--class ClassTitle--><g id="elem_ClassTitle"><rect codeLine="37" fill="#F1F1F1" height="69.8672" id="ClassTitle" rx="1.5" ry="1.5" style="stroke:#181818;stroke-width:0.3;" width="103.2" x="13.2" y="319.2082"/><ellipse cx="39.21" cy="332.5828" fill="#ADD1B2" rx="6.6" ry="6.6" style="stroke:#181818;stroke-width:0.6;"/><path d="M40.8694,330.1078 Q40.9631,329.9766 41.0756,329.9109 Q41.1881,329.8453 41.3194,329.8453 Q41.5444,329.8453 41.685,330.0047 Q41.8256,330.1547 41.8256,330.5203 L41.8256,331.3922 Q41.8256,331.7578 41.685,331.9172 Q41.5444,332.0766 41.3194,332.0766 Q41.1131,332.0766 40.9912,331.9547 Q40.8694,331.8422 40.8037,331.5328 Q40.7756,331.3172 40.6631,331.2047 Q40.4662,330.9797 40.1006,330.8484 Q39.735,330.7172 39.36,330.7172 Q38.9006,330.7172 38.5162,330.9141 Q38.1412,331.1109 37.8412,331.5609 Q37.5506,332.0109 37.5506,332.6297 L37.5506,333.2859 Q37.5506,334.0266 38.085,334.5234 Q38.6194,335.0109 39.5756,335.0109 Q40.1381,335.0109 40.5319,334.8609 Q40.7662,334.7672 41.0194,334.5047 Q41.1787,334.3453 41.2631,334.2984 Q41.3569,334.2516 41.4788,334.2516 Q41.6756,334.2516 41.8256,334.4109 Q41.985,334.5609 41.985,334.7672 Q41.985,334.9734 41.7787,335.2172 Q41.4788,335.5641 41.0006,335.7609 Q40.3538,336.0328 39.5756,336.0328 Q38.6663,336.0328 37.9444,335.6578 Q37.3538,335.3578 36.9413,334.7203 Q36.5287,334.0734 36.5287,333.3047 L36.5287,332.6109 Q36.5287,331.8141 36.8944,331.1297 Q37.2694,330.4359 37.9256,330.0703 Q38.5819,329.6953 39.3225,329.6953 Q39.7631,329.6953 40.1475,329.7984 Q40.5413,329.8922 40.8694,330.1078 Z " fill="#000000"/><text fill="#000000" font-family="sans-serif" font-size="7.2" font-style="italic" lengthAdjust="spacing" textLength="48.6" x="50.19" y="329.9777">&#171;value object&#187;</text><text fill="#000000" font-family="sans-serif" font-size="8.4" lengthAdjust="spacing" textLength="37.2" x="55.89" y="340.8492">ClassTitle</text><line style="stroke:#181818;stroke-width:0.3;" x1="13.8" x2="115.8" y1="345.9574" y2="345.9574"/><rect fill="none" height="3.6" style="stroke:#C82930;stroke-width:0.6;" width="3.6" x="18" y="353.0438"/><text fill="#000000" font-family="sans-serif" font-size="8.4" lengthAdjust="spacing" textLength="64.8" x="25.2" y="357.4219">classTitle : String</text><line style="stroke:#181818;stroke-width:0.3;" x1="13.8" x2="115.8" y1="361.9301" y2="361.9301"/><ellipse cx="19.8" cy="370.8164" fill="#84BE84" rx="1.8" ry="1.8" style="stroke:#038048;stroke-width:0.6;"/><text fill="#000000" font-family="sans-serif" font-size="8.4" lengthAdjust="spacing" textLength="70.8" x="25.2" y="373.3945">valueOf(classTitle)</text><ellipse cx="19.8" cy="381.9891" fill="#84BE84" rx="1.8" ry="1.8" style="stroke:#038048;stroke-width:0.6;"/><text fill="#000000" font-family="sans-serif" font-size="8.4" lengthAdjust="spacing" textLength="87.6" x="25.2" y="384.5672">CourseTitle (classTitle)</text></g><!--class ClassDuration--><g id="elem_ClassDuration"><rect codeLine="43" fill="#F1F1F1" height="69.8672" id="ClassDuration" rx="1.5" ry="1.5" style="stroke:#181818;stroke-width:0.3;" width="130.8" x="137.4" y="319.2082"/><ellipse cx="173.55" cy="332.5828" fill="#ADD1B2" rx="6.6" ry="6.6" style="stroke:#181818;stroke-width:0.6;"/><path d="M175.2094,330.1078 Q175.3031,329.9766 175.4156,329.9109 Q175.5281,329.8453 175.6594,329.8453 Q175.8844,329.8453 176.025,330.0047 Q176.1656,330.1547 176.1656,330.5203 L176.1656,331.3922 Q176.1656,331.7578 176.025,331.9172 Q175.8844,332.0766 175.6594,332.0766 Q175.4531,332.0766 175.3312,331.9547 Q175.2094,331.8422 175.1437,331.5328 Q175.1156,331.3172 175.0031,331.2047 Q174.8063,330.9797 174.4406,330.8484 Q174.075,330.7172 173.7,330.7172 Q173.2406,330.7172 172.8563,330.9141 Q172.4813,331.1109 172.1813,331.5609 Q171.8906,332.0109 171.8906,332.6297 L171.8906,333.2859 Q171.8906,334.0266 172.425,334.5234 Q172.9594,335.0109 173.9156,335.0109 Q174.4781,335.0109 174.8719,334.8609 Q175.1063,334.7672 175.3594,334.5047 Q175.5187,334.3453 175.6031,334.2984 Q175.6969,334.2516 175.8188,334.2516 Q176.0156,334.2516 176.1656,334.4109 Q176.325,334.5609 176.325,334.7672 Q176.325,334.9734 176.1188,335.2172 Q175.8188,335.5641 175.3406,335.7609 Q174.6938,336.0328 173.9156,336.0328 Q173.0063,336.0328 172.2844,335.6578 Q171.6938,335.3578 171.2813,334.7203 Q170.8688,334.0734 170.8688,333.3047 L170.8688,332.6109 Q170.8688,331.8141 171.2344,331.1297 Q171.6094,330.4359 172.2656,330.0703 Q172.9219,329.6953 173.6625,329.6953 Q174.1031,329.6953 174.4875,329.7984 Q174.8813,329.8922 175.2094,330.1078 Z " fill="#000000"/><text fill="#000000" font-family="sans-serif" font-size="7.2" font-style="italic" lengthAdjust="spacing" textLength="48.6" x="188.25" y="329.9777">&#171;value object&#187;</text><text fill="#000000" font-family="sans-serif" font-size="8.4" lengthAdjust="spacing" textLength="53.4" x="185.85" y="340.8492">ClassDuration</text><line style="stroke:#181818;stroke-width:0.3;" x1="138" x2="267.6" y1="345.9574" y2="345.9574"/><rect fill="none" height="3.6" style="stroke:#C82930;stroke-width:0.6;" width="3.6" x="142.2" y="353.0438"/><text fill="#000000" font-family="sans-serif" font-size="8.4" lengthAdjust="spacing" textLength="93.6" x="149.4" y="357.4219">classDuration : Calendar</text><line style="stroke:#181818;stroke-width:0.3;" x1="138" x2="267.6" y1="361.9301" y2="361.9301"/><ellipse cx="144" cy="370.8164" fill="#84BE84" rx="1.8" ry="1.8" style="stroke:#038048;stroke-width:0.6;"/><text fill="#000000" font-family="sans-serif" font-size="8.4" lengthAdjust="spacing" textLength="87" x="149.4" y="373.3945">valueOf(classDuration)</text><ellipse cx="144" cy="381.9891" fill="#84BE84" rx="1.8" ry="1.8" style="stroke:#038048;stroke-width:0.6;"/><text fill="#000000" font-family="sans-serif" font-size="8.4" lengthAdjust="spacing" textLength="115.2" x="149.4" y="384.5672">ClassDuration (ClassDuration)</text></g><!--class Teacher--><g id="elem_Teacher"><rect codeLine="50" fill="#F1F1F1" height="36.3492" id="Teacher" rx="1.5" ry="1.5" style="stroke:#181818;stroke-width:0.3;" width="51" x="289.5" y="335.7082"/><ellipse cx="298.5" cy="349.0828" fill="#ADD1B2" rx="6.6" ry="6.6" style="stroke:#181818;stroke-width:0.6;"/><path d="M300.1594,346.6078 Q300.2531,346.4766 300.3656,346.4109 Q300.4781,346.3453 300.6094,346.3453 Q300.8344,346.3453 300.975,346.5047 Q301.1156,346.6547 301.1156,347.0203 L301.1156,347.8922 Q301.1156,348.2578 300.975,348.4172 Q300.8344,348.5766 300.6094,348.5766 Q300.4031,348.5766 300.2813,348.4547 Q300.1594,348.3422 300.0938,348.0328 Q300.0656,347.8172 299.9531,347.7047 Q299.7562,347.4797 299.3906,347.3484 Q299.025,347.2172 298.65,347.2172 Q298.1906,347.2172 297.8063,347.4141 Q297.4313,347.6109 297.1312,348.0609 Q296.8406,348.5109 296.8406,349.1297 L296.8406,349.7859 Q296.8406,350.5266 297.375,351.0234 Q297.9094,351.5109 298.8656,351.5109 Q299.4281,351.5109 299.8219,351.3609 Q300.0563,351.2672 300.3094,351.0047 Q300.4688,350.8453 300.5531,350.7984 Q300.6469,350.7516 300.7688,350.7516 Q300.9656,350.7516 301.1156,350.9109 Q301.275,351.0609 301.275,351.2672 Q301.275,351.4734 301.0687,351.7172 Q300.7688,352.0641 300.2906,352.2609 Q299.6438,352.5328 298.8656,352.5328 Q297.9563,352.5328 297.2344,352.1578 Q296.6438,351.8578 296.2313,351.2203 Q295.8187,350.5734 295.8187,349.8047 L295.8187,349.1109 Q295.8187,348.3141 296.1844,347.6297 Q296.5594,346.9359 297.2156,346.5703 Q297.8719,346.1953 298.6125,346.1953 Q299.0531,346.1953 299.4375,346.2984 Q299.8313,346.3922 300.1594,346.6078 Z " fill="#000000"/><text fill="#000000" font-family="sans-serif" font-size="7.2" font-style="italic" lengthAdjust="spacing" textLength="25.8" x="309.9" y="346.4777">&#171;entity&#187;</text><text fill="#000000" font-family="sans-serif" font-size="8.4" lengthAdjust="spacing" textLength="31.8" x="306.9" y="357.3492">Teacher</text><line style="stroke:#181818;stroke-width:0.3;" x1="290.1" x2="339.9" y1="362.4574" y2="362.4574"/><line style="stroke:#181818;stroke-width:0.3;" x1="290.1" x2="339.9" y1="367.2574" y2="367.2574"/></g><!--class Course--><g id="elem_Course"><rect codeLine="54" fill="#F1F1F1" height="36.3492" id="Course" rx="1.5" ry="1.5" style="stroke:#181818;stroke-width:0.3;" width="46.8" x="361.8" y="335.7082"/><ellipse cx="370.8" cy="349.0828" fill="#ADD1B2" rx="6.6" ry="6.6" style="stroke:#181818;stroke-width:0.6;"/><path d="M372.4594,346.6078 Q372.5531,346.4766 372.6656,346.4109 Q372.7781,346.3453 372.9094,346.3453 Q373.1344,346.3453 373.275,346.5047 Q373.4156,346.6547 373.4156,347.0203 L373.4156,347.8922 Q373.4156,348.2578 373.275,348.4172 Q373.1344,348.5766 372.9094,348.5766 Q372.7031,348.5766 372.5813,348.4547 Q372.4594,348.3422 372.3938,348.0328 Q372.3656,347.8172 372.2531,347.7047 Q372.0563,347.4797 371.6906,347.3484 Q371.325,347.2172 370.95,347.2172 Q370.4906,347.2172 370.1063,347.4141 Q369.7313,347.6109 369.4313,348.0609 Q369.1406,348.5109 369.1406,349.1297 L369.1406,349.7859 Q369.1406,350.5266 369.675,351.0234 Q370.2094,351.5109 371.1656,351.5109 Q371.7281,351.5109 372.1219,351.3609 Q372.3563,351.2672 372.6094,351.0047 Q372.7688,350.8453 372.8531,350.7984 Q372.9469,350.7516 373.0687,350.7516 Q373.2656,350.7516 373.4156,350.9109 Q373.575,351.0609 373.575,351.2672 Q373.575,351.4734 373.3688,351.7172 Q373.0687,352.0641 372.5906,352.2609 Q371.9437,352.5328 371.1656,352.5328 Q370.2562,352.5328 369.5344,352.1578 Q368.9437,351.8578 368.5313,351.2203 Q368.1188,350.5734 368.1188,349.8047 L368.1188,349.1109 Q368.1188,348.3141 368.4844,347.6297 Q368.8594,346.9359 369.5156,346.5703 Q370.1719,346.1953 370.9125,346.1953 Q371.3531,346.1953 371.7375,346.2984 Q372.1312,346.3922 372.4594,346.6078 Z " fill="#000000"/><text fill="#000000" font-family="sans-serif" font-size="7.2" font-style="italic" lengthAdjust="spacing" textLength="25.8" x="380.1" y="346.4777">&#171;entity&#187;</text><text fill="#000000" font-family="sans-serif" font-size="8.4" lengthAdjust="spacing" textLength="27.6" x="379.2" y="357.3492">Course</text><line style="stroke:#181818;stroke-width:0.3;" x1="362.4" x2="408" y1="362.4574" y2="362.4574"/><line style="stroke:#181818;stroke-width:0.3;" x1="362.4" x2="408" y1="367.2574" y2="367.2574"/></g><!--class RecurringClassBuilder--><g id="elem_RecurringClassBuilder"><rect codeLine="58" fill="#F1F1F1" height="103.3852" id="RecurringClassBuilder" rx="1.5" ry="1.5" style="stroke:#181818;stroke-width:0.3;" width="103.8" x="560.7" y="157.8082"/><ellipse cx="569.7" cy="171.1828" fill="#ADD1B2" rx="6.6" ry="6.6" style="stroke:#181818;stroke-width:0.6;"/><path d="M571.3594,168.7078 Q571.4531,168.5766 571.5656,168.5109 Q571.6781,168.4453 571.8094,168.4453 Q572.0344,168.4453 572.175,168.6047 Q572.3156,168.7547 572.3156,169.1203 L572.3156,169.9922 Q572.3156,170.3578 572.175,170.5172 Q572.0344,170.6766 571.8094,170.6766 Q571.6031,170.6766 571.4812,170.5547 Q571.3594,170.4422 571.2937,170.1328 Q571.2656,169.9172 571.1531,169.8047 Q570.9563,169.5797 570.5906,169.4484 Q570.225,169.3172 569.85,169.3172 Q569.3906,169.3172 569.0063,169.5141 Q568.6313,169.7109 568.3313,170.1609 Q568.0406,170.6109 568.0406,171.2297 L568.0406,171.8859 Q568.0406,172.6266 568.575,173.1234 Q569.1094,173.6109 570.0656,173.6109 Q570.6281,173.6109 571.0219,173.4609 Q571.2563,173.3672 571.5094,173.1047 Q571.6687,172.9453 571.7531,172.8984 Q571.8469,172.8516 571.9688,172.8516 Q572.1656,172.8516 572.3156,173.0109 Q572.475,173.1609 572.475,173.3672 Q572.475,173.5734 572.2688,173.8172 Q571.9688,174.1641 571.4906,174.3609 Q570.8438,174.6328 570.0656,174.6328 Q569.1563,174.6328 568.4344,174.2578 Q567.8438,173.9578 567.4313,173.3203 Q567.0188,172.6734 567.0188,171.9047 L567.0188,171.2109 Q567.0188,170.4141 567.3844,169.7297 Q567.7594,169.0359 568.4156,168.6703 Q569.0719,168.2953 569.8125,168.2953 Q570.2531,168.2953 570.6375,168.3984 Q571.0313,168.4922 571.3594,168.7078 Z " fill="#000000"/><text fill="#000000" font-family="sans-serif" font-size="7.2" font-style="italic" lengthAdjust="spacing" textLength="31.8" x="604.5" y="168.5777">&#171;Builder&#187;</text><text fill="#000000" font-family="sans-serif" font-size="8.4" lengthAdjust="spacing" textLength="84.6" x="578.1" y="179.4492">RecurringClassBuilder</text><line style="stroke:#181818;stroke-width:0.3;" x1="561.3" x2="663.9" y1="184.5574" y2="184.5574"/><line style="stroke:#181818;stroke-width:0.3;" x1="561.3" x2="663.9" y1="189.3574" y2="189.3574"/><ellipse cx="567.3" cy="198.2438" fill="#84BE84" rx="1.8" ry="1.8" style="stroke:#038048;stroke-width:0.6;"/><text fill="#000000" font-family="sans-serif" font-size="8.4" lengthAdjust="spacing" textLength="52.2" x="572.7" y="200.8219">withTeacher()</text><ellipse cx="567.3" cy="209.4164" fill="#84BE84" rx="1.8" ry="1.8" style="stroke:#038048;stroke-width:0.6;"/><text fill="#000000" font-family="sans-serif" font-size="8.4" lengthAdjust="spacing" textLength="35.4" x="572.7" y="211.9945">withDay()</text><ellipse cx="567.3" cy="220.5891" fill="#84BE84" rx="1.8" ry="1.8" style="stroke:#038048;stroke-width:0.6;"/><text fill="#000000" font-family="sans-serif" font-size="8.4" lengthAdjust="spacing" textLength="39" x="572.7" y="223.1672">withTime()</text><ellipse cx="567.3" cy="231.7617" fill="#84BE84" rx="1.8" ry="1.8" style="stroke:#038048;stroke-width:0.6;"/><text fill="#000000" font-family="sans-serif" font-size="8.4" lengthAdjust="spacing" textLength="36.6" x="572.7" y="234.3398">withTitle()</text><ellipse cx="567.3" cy="242.9344" fill="#84BE84" rx="1.8" ry="1.8" style="stroke:#038048;stroke-width:0.6;"/><text fill="#000000" font-family="sans-serif" font-size="8.4" lengthAdjust="spacing" textLength="48" x="572.7" y="245.5125">withCourse()</text><ellipse cx="567.3" cy="254.107" fill="#84BE84" rx="1.8" ry="1.8" style="stroke:#038048;stroke-width:0.6;"/><text fill="#000000" font-family="sans-serif" font-size="8.4" lengthAdjust="spacing" textLength="24" x="572.7" y="256.6852">build()</text></g><!--class ScheduleRecurringClassController--><g id="elem_ScheduleRecurringClassController"><rect codeLine="73" fill="#F1F1F1" height="103.3852" id="ScheduleRecurringClassController" rx="1.5" ry="1.5" style="stroke:#181818;stroke-width:0.3;" width="167.4" x="717.9" y="157.8082"/><ellipse cx="734.73" cy="171.1828" fill="#ADD1B2" rx="6.6" ry="6.6" style="stroke:#181818;stroke-width:0.6;"/><path d="M736.3894,168.7078 Q736.4831,168.5766 736.5956,168.5109 Q736.7081,168.4453 736.8394,168.4453 Q737.0644,168.4453 737.205,168.6047 Q737.3456,168.7547 737.3456,169.1203 L737.3456,169.9922 Q737.3456,170.3578 737.205,170.5172 Q737.0644,170.6766 736.8394,170.6766 Q736.6331,170.6766 736.5112,170.5547 Q736.3894,170.4422 736.3237,170.1328 Q736.2956,169.9172 736.1831,169.8047 Q735.9862,169.5797 735.6206,169.4484 Q735.255,169.3172 734.88,169.3172 Q734.4206,169.3172 734.0363,169.5141 Q733.6613,169.7109 733.3612,170.1609 Q733.0706,170.6109 733.0706,171.2297 L733.0706,171.8859 Q733.0706,172.6266 733.605,173.1234 Q734.1394,173.6109 735.0956,173.6109 Q735.6581,173.6109 736.0519,173.4609 Q736.2863,173.3672 736.5394,173.1047 Q736.6987,172.9453 736.7831,172.8984 Q736.8769,172.8516 736.9988,172.8516 Q737.1956,172.8516 737.3456,173.0109 Q737.505,173.1609 737.505,173.3672 Q737.505,173.5734 737.2987,173.8172 Q736.9988,174.1641 736.5206,174.3609 Q735.8738,174.6328 735.0956,174.6328 Q734.1863,174.6328 733.4644,174.2578 Q732.8738,173.9578 732.4613,173.3203 Q732.0487,172.6734 732.0487,171.9047 L732.0487,171.2109 Q732.0487,170.4141 732.4144,169.7297 Q732.7894,169.0359 733.4456,168.6703 Q734.1019,168.2953 734.8425,168.2953 Q735.2831,168.2953 735.6675,168.3984 Q736.0613,168.4922 736.3894,168.7078 Z " fill="#000000"/><text fill="#000000" font-family="sans-serif" font-size="7.2" font-style="italic" lengthAdjust="spacing" textLength="39" x="790.77" y="168.5777">&#171;controller&#187;</text><text fill="#000000" font-family="sans-serif" font-size="8.4" lengthAdjust="spacing" textLength="130.8" x="744.87" y="179.4492">ScheduleRecurringClassController</text><line style="stroke:#181818;stroke-width:0.3;" x1="718.5" x2="884.7" y1="184.5574" y2="184.5574"/><rect fill="none" height="3.6" style="stroke:#C82930;stroke-width:0.6;" width="3.6" x="722.7" y="191.6437"/><text fill="#000000" font-family="sans-serif" font-size="8.4" lengthAdjust="spacing" textLength="151.8" x="729.9" y="196.0219">courseSvc : CourseManagementService</text><rect fill="none" height="3.6" style="stroke:#C82930;stroke-width:0.6;" width="3.6" x="722.7" y="202.8164"/><text fill="#000000" font-family="sans-serif" font-size="8.4" lengthAdjust="spacing" textLength="151.8" x="729.9" y="207.1945">courseSvc : CourseManagementService</text><rect fill="none" height="3.6" style="stroke:#C82930;stroke-width:0.6;" width="3.6" x="722.7" y="213.9891"/><text fill="#000000" font-family="sans-serif" font-size="8.4" lengthAdjust="spacing" textLength="117.6" x="729.9" y="218.3672">builder : RecurringClassBuilder</text><line style="stroke:#181818;stroke-width:0.3;" x1="718.5" x2="884.7" y1="222.8754" y2="222.8754"/><ellipse cx="724.5" cy="231.7617" fill="#84BE84" rx="1.8" ry="1.8" style="stroke:#038048;stroke-width:0.6;"/><text fill="#000000" font-family="sans-serif" font-size="8.4" lengthAdjust="spacing" textLength="100.8" x="729.9" y="234.3398">allCoursesBySystemUser()</text><ellipse cx="724.5" cy="242.9344" fill="#84BE84" rx="1.8" ry="1.8" style="stroke:#038048;stroke-width:0.6;"/><text fill="#000000" font-family="sans-serif" font-size="8.4" lengthAdjust="spacing" textLength="103.2" x="729.9" y="245.5125">checkScheduleAvailability()</text><ellipse cx="724.5" cy="254.107" fill="#84BE84" rx="1.8" ry="1.8" style="stroke:#038048;stroke-width:0.6;"/><text fill="#000000" font-family="sans-serif" font-size="8.4" lengthAdjust="spacing" textLength="98.4" x="729.9" y="256.6852">scheduleRecurringClass()</text></g><!--class CourseManagementService--><g id="elem_CourseManagementService"><rect codeLine="82" fill="#F1F1F1" height="58.6945" id="CourseManagementService" rx="1.5" ry="1.5" style="stroke:#181818;stroke-width:0.3;" width="157.8" x="717.9" y="324.6082"/><ellipse cx="742.02" cy="337.9828" fill="#ADD1B2" rx="6.6" ry="6.6" style="stroke:#181818;stroke-width:0.6;"/><path d="M743.6794,335.5078 Q743.7731,335.3766 743.8856,335.3109 Q743.9981,335.2453 744.1294,335.2453 Q744.3544,335.2453 744.495,335.4047 Q744.6356,335.5547 744.6356,335.9203 L744.6356,336.7922 Q744.6356,337.1578 744.495,337.3172 Q744.3544,337.4766 744.1294,337.4766 Q743.9231,337.4766 743.8013,337.3547 Q743.6794,337.2422 743.6138,336.9328 Q743.5856,336.7172 743.4731,336.6047 Q743.2763,336.3797 742.9106,336.2484 Q742.545,336.1172 742.17,336.1172 Q741.7106,336.1172 741.3263,336.3141 Q740.9513,336.5109 740.6513,336.9609 Q740.3606,337.4109 740.3606,338.0297 L740.3606,338.6859 Q740.3606,339.4266 740.895,339.9234 Q741.4294,340.4109 742.3856,340.4109 Q742.9481,340.4109 743.3419,340.2609 Q743.5763,340.1672 743.8294,339.9047 Q743.9888,339.7453 744.0731,339.6984 Q744.1669,339.6516 744.2888,339.6516 Q744.4856,339.6516 744.6356,339.8109 Q744.795,339.9609 744.795,340.1672 Q744.795,340.3734 744.5888,340.6172 Q744.2888,340.9641 743.8106,341.1609 Q743.1638,341.4328 742.3856,341.4328 Q741.4763,341.4328 740.7544,341.0578 Q740.1638,340.7578 739.7513,340.1203 Q739.3388,339.4734 739.3388,338.7047 L739.3388,338.0109 Q739.3388,337.2141 739.7044,336.5297 Q740.0794,335.8359 740.7356,335.4703 Q741.3919,335.0953 742.1325,335.0953 Q742.5731,335.0953 742.9575,335.1984 Q743.3513,335.2922 743.6794,335.5078 Z " fill="#000000"/><text fill="#000000" font-family="sans-serif" font-size="7.2" font-style="italic" lengthAdjust="spacing" textLength="31.8" x="790.38" y="335.3777">&#171;service&#187;</text><text fill="#000000" font-family="sans-serif" font-size="8.4" lengthAdjust="spacing" textLength="105" x="753.78" y="346.2492">CourseManagementService</text><line style="stroke:#181818;stroke-width:0.3;" x1="718.5" x2="875.1" y1="351.3574" y2="351.3574"/><rect fill="none" height="3.6" style="stroke:#C82930;stroke-width:0.6;" width="3.6" x="722.7" y="358.4437"/><text fill="#000000" font-family="sans-serif" font-size="8.4" lengthAdjust="spacing" textLength="142.2" x="729.9" y="362.8219">courseRepository : CourseRepository</text><line style="stroke:#181818;stroke-width:0.3;" x1="718.5" x2="875.1" y1="367.3301" y2="367.3301"/><ellipse cx="724.5" cy="376.2164" fill="#84BE84" rx="1.8" ry="1.8" style="stroke:#038048;stroke-width:0.6;"/><text fill="#000000" font-family="sans-serif" font-size="8.4" lengthAdjust="spacing" textLength="100.8" x="729.9" y="378.7945">allCoursesBySystemUser()</text></g><!--class ClassRepository--><g id="elem_ClassRepository"><rect codeLine="91" fill="#F1F1F1" height="47.5219" id="ClassRepository" rx="1.5" ry="1.5" style="stroke:#181818;stroke-width:0.3;" width="86.4" x="862.8" y="442.2082"/><ellipse cx="874.23" cy="455.5828" fill="#B4A7E5" rx="6.6" ry="6.6" style="stroke:#181818;stroke-width:0.6;"/><path d="M874.8019,453.5672 L874.8019,457.5609 L875.8331,457.5609 Q876.1987,457.5609 876.3581,457.7016 Q876.5175,457.8422 876.5175,458.0766 Q876.5175,458.3016 876.3581,458.4422 Q876.1987,458.5828 875.8331,458.5828 L872.7488,458.5828 Q872.3831,458.5828 872.2238,458.4422 Q872.0644,458.3016 872.0644,458.0672 Q872.0644,457.8422 872.2238,457.7016 Q872.3831,457.5609 872.7488,457.5609 L873.78,457.5609 L873.78,453.5672 L872.7488,453.5672 Q872.3831,453.5672 872.2238,453.4266 Q872.0644,453.2859 872.0644,453.0516 Q872.0644,452.8266 872.2238,452.6859 Q872.3831,452.5453 872.7488,452.5453 L875.8331,452.5453 Q876.1987,452.5453 876.3581,452.6859 Q876.5175,452.8266 876.5175,453.0516 Q876.5175,453.2859 876.3581,453.4266 Q876.1987,453.5672 875.8331,453.5672 L874.8019,453.5672 Z " fill="#000000"/><text fill="#000000" font-family="sans-serif" font-size="7.2" font-style="italic" lengthAdjust="spacing" textLength="40.8" x="893.67" y="452.9777">&#171;repository&#187;</text><text fill="#000000" font-family="sans-serif" font-size="8.4" font-style="italic" lengthAdjust="spacing" textLength="61.8" x="883.17" y="463.8492">ClassRepository</text><line style="stroke:#181818;stroke-width:0.3;" x1="863.4" x2="948.6" y1="468.9574" y2="468.9574"/><line style="stroke:#181818;stroke-width:0.3;" x1="863.4" x2="948.6" y1="473.7574" y2="473.7574"/><text fill="#000000" font-family="sans-serif" font-size="8.4" lengthAdjust="spacing" textLength="79.2" x="866.4" y="485.2219">save(recurringClass)</text></g><!--class CourseRepository--><g id="elem_CourseRepository"><rect codeLine="95" fill="#F1F1F1" height="47.5219" id="CourseRepository" rx="1.5" ry="1.5" style="stroke:#181818;stroke-width:0.3;" width="90" x="751.8" y="442.2082"/><ellipse cx="761.88" cy="455.5828" fill="#B4A7E5" rx="6.6" ry="6.6" style="stroke:#181818;stroke-width:0.6;"/><path d="M762.4519,453.5672 L762.4519,457.5609 L763.4831,457.5609 Q763.8488,457.5609 764.0081,457.7016 Q764.1675,457.8422 764.1675,458.0766 Q764.1675,458.3016 764.0081,458.4422 Q763.8488,458.5828 763.4831,458.5828 L760.3988,458.5828 Q760.0331,458.5828 759.8738,458.4422 Q759.7144,458.3016 759.7144,458.0672 Q759.7144,457.8422 759.8738,457.7016 Q760.0331,457.5609 760.3988,457.5609 L761.43,457.5609 L761.43,453.5672 L760.3988,453.5672 Q760.0331,453.5672 759.8738,453.4266 Q759.7144,453.2859 759.7144,453.0516 Q759.7144,452.8266 759.8738,452.6859 Q760.0331,452.5453 760.3988,452.5453 L763.4831,452.5453 Q763.8488,452.5453 764.0081,452.6859 Q764.1675,452.8266 764.1675,453.0516 Q764.1675,453.2859 764.0081,453.4266 Q763.8488,453.5672 763.4831,453.5672 L762.4519,453.5672 Z " fill="#000000"/><text fill="#000000" font-family="sans-serif" font-size="7.2" font-style="italic" lengthAdjust="spacing" textLength="40.8" x="784.32" y="452.9777">&#171;repository&#187;</text><text fill="#000000" font-family="sans-serif" font-size="8.4" font-style="italic" lengthAdjust="spacing" textLength="68.4" x="770.52" y="463.8492">CourseRepository</text><line style="stroke:#181818;stroke-width:0.3;" x1="752.4" x2="841.2" y1="468.9574" y2="468.9574"/><line style="stroke:#181818;stroke-width:0.3;" x1="752.4" x2="841.2" y1="473.7574" y2="473.7574"/><ellipse cx="758.4" cy="482.6437" fill="#84BE84" rx="1.8" ry="1.8" style="stroke:#038048;stroke-width:0.6;"/><text fill="#000000" font-family="sans-serif" font-size="8.4" lengthAdjust="spacing" textLength="74.4" x="763.8" y="485.2219">findBySystemUser()</text></g><!--class JpaClassRepository--><g id="elem_JpaClassRepository"><rect codeLine="102" fill="#F1F1F1" height="28.8" id="JpaClassRepository" rx="1.5" ry="1.5" style="stroke:#181818;stroke-width:0.3;" width="94.2" x="787.5" y="568.8082"/><ellipse cx="796.5" cy="578.4082" fill="#ADD1B2" rx="6.6" ry="6.6" style="stroke:#181818;stroke-width:0.6;"/><path d="M798.1594,575.9332 Q798.2531,575.802 798.3656,575.7363 Q798.4781,575.6707 798.6094,575.6707 Q798.8344,575.6707 798.975,575.8301 Q799.1156,575.9801 799.1156,576.3457 L799.1156,577.2176 Q799.1156,577.5832 798.975,577.7426 Q798.8344,577.902 798.6094,577.902 Q798.4031,577.902 798.2813,577.7801 Q798.1594,577.6676 798.0938,577.3582 Q798.0656,577.1426 797.9531,577.0301 Q797.7563,576.8051 797.3906,576.6738 Q797.025,576.5426 796.65,576.5426 Q796.1906,576.5426 795.8063,576.7395 Q795.4313,576.9363 795.1313,577.3863 Q794.8406,577.8363 794.8406,578.4551 L794.8406,579.1113 Q794.8406,579.852 795.375,580.3488 Q795.9094,580.8363 796.8656,580.8363 Q797.4281,580.8363 797.8219,580.6863 Q798.0563,580.5926 798.3094,580.3301 Q798.4688,580.1707 798.5531,580.1238 Q798.6469,580.077 798.7688,580.077 Q798.9656,580.077 799.1156,580.2363 Q799.275,580.3863 799.275,580.5926 Q799.275,580.7988 799.0688,581.0426 Q798.7688,581.3895 798.2906,581.5863 Q797.6438,581.8582 796.8656,581.8582 Q795.9563,581.8582 795.2344,581.4832 Q794.6438,581.1832 794.2312,580.5457 Q793.8188,579.8988 793.8188,579.1301 L793.8188,578.4363 Q793.8188,577.6395 794.1844,576.9551 Q794.5594,576.2613 795.2156,575.8957 Q795.8719,575.5207 796.6125,575.5207 Q797.0531,575.5207 797.4375,575.6238 Q797.8313,575.7176 798.1594,575.9332 Z " fill="#000000"/><text fill="#000000" font-family="sans-serif" font-size="8.4" lengthAdjust="spacing" textLength="75" x="804.9" y="581.8863">JpaClassRepository</text><line style="stroke:#181818;stroke-width:0.3;" x1="788.1" x2="881.1" y1="588.0082" y2="588.0082"/><line style="stroke:#181818;stroke-width:0.3;" x1="788.1" x2="881.1" y1="592.8082" y2="592.8082"/></g><!--class InMemoryClassRepository--><g id="elem_InMemoryClassRepository"><rect codeLine="105" fill="#F1F1F1" height="28.8" id="InMemoryClassRepository" rx="1.5" ry="1.5" style="stroke:#181818;stroke-width:0.3;" width="117.6" x="903" y="568.8082"/><ellipse cx="912" cy="578.4082" fill="#ADD1B2" rx="6.6" ry="6.6" style="stroke:#181818;stroke-width:0.6;"/><path d="M913.6594,575.9332 Q913.7531,575.802 913.8656,575.7363 Q913.9781,575.6707 914.1094,575.6707 Q914.3344,575.6707 914.475,575.8301 Q914.6156,575.9801 914.6156,576.3457 L914.6156,577.2176 Q914.6156,577.5832 914.475,577.7426 Q914.3344,577.902 914.1094,577.902 Q913.9031,577.902 913.7813,577.7801 Q913.6594,577.6676 913.5938,577.3582 Q913.5656,577.1426 913.4531,577.0301 Q913.2563,576.8051 912.8906,576.6738 Q912.525,576.5426 912.15,576.5426 Q911.6906,576.5426 911.3063,576.7395 Q910.9313,576.9363 910.6313,577.3863 Q910.3406,577.8363 910.3406,578.4551 L910.3406,579.1113 Q910.3406,579.852 910.875,580.3488 Q911.4094,580.8363 912.3656,580.8363 Q912.9281,580.8363 913.3219,580.6863 Q913.5563,580.5926 913.8094,580.3301 Q913.9688,580.1707 914.0531,580.1238 Q914.1469,580.077 914.2688,580.077 Q914.4656,580.077 914.6156,580.2363 Q914.775,580.3863 914.775,580.5926 Q914.775,580.7988 914.5688,581.0426 Q914.2688,581.3895 913.7906,581.5863 Q913.1438,581.8582 912.3656,581.8582 Q911.4563,581.8582 910.7344,581.4832 Q910.1438,581.1832 909.7312,580.5457 Q909.3188,579.8988 909.3188,579.1301 L909.3188,578.4363 Q909.3188,577.6395 909.6844,576.9551 Q910.0594,576.2613 910.7156,575.8957 Q911.3719,575.5207 912.1125,575.5207 Q912.5531,575.5207 912.9375,575.6238 Q913.3313,575.7176 913.6594,575.9332 Z " fill="#000000"/><text fill="#000000" font-family="sans-serif" font-size="8.4" lengthAdjust="spacing" textLength="98.4" x="920.4" y="581.8863">InMemoryClassRepository</text><line style="stroke:#181818;stroke-width:0.3;" x1="903.6" x2="1020" y1="588.0082" y2="588.0082"/><line style="stroke:#181818;stroke-width:0.3;" x1="903.6" x2="1020" y1="592.8082" y2="592.8082"/></g><!--reverse link Class to RecurringClass--><g id="link_Class_RecurringClass"><path d="M423.018,274.0702 C449.184,289.5862 476.16,305.5882 498.978,319.1182 " fill="none" id="Class-backto-RecurringClass" style="stroke:#181818;stroke-width:0.6;"/><polygon fill="none" points="420.834,277.6522,412.65,267.9202,425.118,270.4282,420.834,277.6522" style="stroke:#181818;stroke-width:0.6;"/></g><!--link ScheduleRecurringClassUI to ScheduleRecurringClassController--><g id="link_ScheduleRecurringClassUI_ScheduleRecurringClassController"><path codeLine="111" d="M801.6,84.7642 C801.6,104.4142 801.6,131.0002 801.6,154.5142 " fill="none" id="ScheduleRecurringClassUI-to-ScheduleRecurringClassController" style="stroke:#181818;stroke-width:0.6;stroke-dasharray:7.0,7.0;"/><polygon fill="#181818" points="801.6,157.6642,804,152.2642,801.6,154.6642,799.2,152.2642,801.6,157.6642" style="stroke:#181818;stroke-width:0.6;"/></g><!--link ScheduleRecurringClassController to CourseManagementService--><g id="link_ScheduleRecurringClassController_CourseManagementService"><path codeLine="112" d="M799.89,261.1702 C799.212,281.3182 798.462,303.8362 797.868,321.5722 " fill="none" id="ScheduleRecurringClassController-to-CourseManagementService" style="stroke:#181818;stroke-width:0.6;stroke-dasharray:7.0,7.0;"/><polygon fill="#181818" points="797.766,324.6022,800.3349,319.2805,797.8605,321.6037,795.5373,319.1293,797.766,324.6022" style="stroke:#181818;stroke-width:0.6;"/></g><!--link CourseManagementService to CourseRepository--><g id="link_CourseManagementService_CourseRepository"><path codeLine="116" d="M796.8,383.6962 C796.8,400.8802 796.8,422.4682 796.8,439.1182 " fill="none" id="CourseManagementService-to-CourseRepository" style="stroke:#181818;stroke-width:0.6;stroke-dasharray:7.0,7.0;"/><polygon fill="#181818" points="796.8,442.1722,799.2,436.7722,796.8,439.1722,794.4,436.7722,796.8,442.1722" style="stroke:#181818;stroke-width:0.6;"/></g><!--reverse link ClassRepository to JpaClassRepository--><g id="link_ClassRepository_JpaClassRepository"><path codeLine="120" d="M889.986,492.5482 C875.49,516.1222 854.688,549.9502 843.144,568.7182 " fill="none" id="ClassRepository-backto-JpaClassRepository" style="stroke:#181818;stroke-width:0.6;stroke-dasharray:7.0,7.0;"/><polygon fill="#181818" points="891.72,489.7222,886.8459,493.0633,890.1477,492.2772,890.9339,495.579,891.72,489.7222" style="stroke:#181818;stroke-width:0.6;"/><text fill="#000000" font-family="sans-serif" font-size="7.8" lengthAdjust="spacing" textLength="40.2" x="868.2" y="534.6252">implements</text></g><!--reverse link ClassRepository to InMemoryClassRepository--><g id="link_ClassRepository_InMemoryClassRepository"><path codeLine="121" d="M918.516,492.5482 C929.844,516.1222 946.104,549.9502 955.122,568.7182 " fill="none" id="ClassRepository-backto-InMemoryClassRepository" style="stroke:#181818;stroke-width:0.6;stroke-dasharray:7.0,7.0;"/><polygon fill="#181818" points="917.16,489.7222,917.3453,495.6286,918.4638,492.4241,921.6683,493.5426,917.16,489.7222" style="stroke:#181818;stroke-width:0.6;"/><text fill="#000000" font-family="sans-serif" font-size="7.8" lengthAdjust="spacing" textLength="40.2" x="939" y="534.6252">implements</text></g><!--link ScheduleRecurringClassController to RecurringClass--><g id="link_ScheduleRecurringClassController_RecurringClass"><path codeLine="123" d="M727.95,261.1342 C716.586,268.5502 704.874,275.9302 693.6,282.6082 C673.176,294.7042 650.466,306.9262 629.514,317.7262 " fill="none" id="ScheduleRecurringClassController-to-RecurringClass" style="stroke:#181818;stroke-width:0.6;stroke-dasharray:7.0,7.0;"/><polygon fill="#181818" points="626.706,319.1722,632.6049,318.821,629.3702,317.793,630.3981,314.5583,626.706,319.1722" style="stroke:#181818;stroke-width:0.6;"/></g><!--link ScheduleRecurringClassController to ClassRepository--><g id="link_ScheduleRecurringClassController_ClassRepository"><path codeLine="124" d="M850.11,261.1522 C863.91,278.3902 877.53,298.5262 886.2,319.2082 C902.748,358.6942 906.126,408.9442 906.48,439.0462 " fill="none" id="ScheduleRecurringClassController-to-ClassRepository" style="stroke:#181818;stroke-width:0.6;stroke-dasharray:7.0,7.0;"/><polygon fill="#181818" points="906.504,442.0702,908.8576,436.6498,906.4783,439.0703,904.0578,436.691,906.504,442.0702" style="stroke:#181818;stroke-width:0.6;"/></g><!--link Class to Teacher--><g id="link_Class_Teacher"><path codeLine="126" d="M315,282.7582 C315,300.9862 315,319.1242 315,332.4562 " fill="none" id="Class-to-Teacher" style="stroke:#181818;stroke-width:0.6;"/><polygon fill="#181818" points="315,335.5702,317.4,330.1702,315,332.5702,312.6,330.1702,315,335.5702" style="stroke:#181818;stroke-width:0.6;"/></g><!--link Class to Course--><g id="link_Class_Course"><path codeLine="127" d="M350.616,282.7582 C359.61,301.1422 368.568,319.4302 375.108,332.7922 " fill="none" id="Class-to-Course" style="stroke:#181818;stroke-width:0.6;"/><polygon fill="#181818" points="376.47,335.5702,376.2544,329.6648,375.1524,332.8751,371.9421,331.773,376.47,335.5702" style="stroke:#181818;stroke-width:0.6;"/></g><!--link Class to ClassDuration--><g id="link_Class_ClassDuration"><path codeLine="128" d="M258.078,282.7582 C248.928,294.4522 239.802,306.1162 231.684,316.4902 " fill="none" id="Class-to-ClassDuration" style="stroke:#181818;stroke-width:0.6;"/><polygon fill="#181818" points="229.644,319.1002,234.8621,316.3268,231.4929,316.7377,231.0821,313.3685,229.644,319.1002" style="stroke:#181818;stroke-width:0.6;"/></g><!--link Class to ClassTitle--><g id="link_Class_ClassTitle"><path codeLine="129" d="M217.368,265.9642 C184.026,285.0742 147.942,305.7562 119.238,322.2082 " fill="none" id="Class-to-ClassTitle" style="stroke:#181818;stroke-width:0.6;"/><polygon fill="#181818" points="116.484,323.7862,122.3628,323.1867,119.0877,322.2959,119.9784,319.0208,116.484,323.7862" style="stroke:#181818;stroke-width:0.6;"/></g><!--link ScheduleRecurringClassController to RecurringClassBuilder--><g id="link_ScheduleRecurringClassController_RecurringClassBuilder"><path codeLine="131" d="M717.876,209.4082 C701.172,209.4082 684.474,209.4082 667.77,209.4082 " fill="none" id="ScheduleRecurringClassController-to-RecurringClassBuilder" style="stroke:#181818;stroke-width:0.6;stroke-dasharray:7.0,7.0;"/><polygon fill="#181818" points="664.65,209.4082,670.05,211.8082,667.65,209.4082,670.05,207.0082,664.65,209.4082" style="stroke:#181818;stroke-width:0.6;"/></g><!--link RecurringClassBuilder to RecurringClass--><g id="link_RecurringClassBuilder_RecurringClass"><path codeLine="132" d="M592.692,261.1702 C585.618,279.3442 577.8,299.4382 571.272,316.2202 " fill="none" id="RecurringClassBuilder-to-RecurringClass" style="stroke:#181818;stroke-width:0.6;stroke-dasharray:7.0,7.0;"/><polygon fill="#181818" points="570.15,319.1002,574.3465,314.9397,571.239,316.3048,569.8739,313.1973,570.15,319.1002" style="stroke:#181818;stroke-width:0.6;"/></g><!--reverse link RecurringClass to ClassRepository--><g id="link_RecurringClass_ClassRepository"><path codeLine="134" d="M672.276,389.6242 C684.276,392.6542 696.342,395.4562 708,397.8082 C771.45,410.6062 793.944,387.8362 852.6,415.2082 C865.848,421.3882 877.968,432.1282 887.304,442.0822 " fill="none" id="RecurringClass-backto-ClassRepository" style="stroke:#181818;stroke-width:0.6;stroke-dasharray:7.0,7.0;"/><polygon fill="#181818" points="669.228,388.8502,673.8746,392.5011,672.1364,389.5859,675.0517,387.8477,669.228,388.8502" style="stroke:#181818;stroke-width:0.6;"/></g><!--link RecurringClass to RescheduledClassDate--><g id="link_RecurringClass_RescheduledClassDate"><path codeLine="135" d="M556.614,388.8742 C556.56,399.4402 556.494,411.2062 556.434,422.2822 " fill="none" id="RecurringClass-to-RescheduledClassDate" style="stroke:#181818;stroke-width:0.6;"/><polygon fill="#181818" points="556.416,425.3842,558.8468,419.998,556.4331,422.3843,554.0469,419.9706,556.416,425.3842" style="stroke:#181818;stroke-width:0.6;"/></g><!--SRC=[dLPDRzim3BtxLnZROIwQk8VjC0I1WRNTeKEB0NNx0nIBIRJA7v3aP47H_pvAbcpvQocQIsIIejvxf6X_sIjLoTNLLSL9eUgSnrcPNsMSIBcaZEm4oOEW8jaBsK7ugH8WeL14iRBu57w-DR_N8CIVsHAcsHvepU4Hibe8LknkjFdvBbold- -If0bTXfaIF5pDHD-KXH8bvo1Cz6L8otHV7gCBy_WMl0KU8bhcX6aiT4E_4_2nc6HuCDdj1Eo8Wb2KfKeID247fauT7XFwn1G7HANql- -uhOLXl0gfNJaluL1G8j11JYRKEbYXLk4HuEMMdApflim8Vs8vh1fuUfag8jH__3yBQhrFG50hF4Wr2mUWh8NKEyo_bSi0YGoBHOjueI4ka5kEHfjaOVSvOJtj-XNn50lXhqBEJbqdu0EfmhMJO_48qbQMDWAY-0agAmPsa1Po_xX8rXK8oo2EBovi5A6qonnDeXwVYzWFXDSGbfi_aEdoDvYzyY6o0exKrSelHkFgrshQxsfbs8nXHFQ4HI_VmjlTyEaJylfoIAEzIdxhfagBQEKoyR-tKHVXXBHzq-mQ-SS8t0MO0U41QIDNhRfjo02H2xtm0WR7HJVZG7txEtZsNlWD-XfCi31ypqNrk_2wPfoQr7Rbw5uUcThRWsqN6XDMrt_KPUq_AzupDA2SPQCFwPfQq_J67AagpZ8tTu5ilz6lv-TkDqcHHTO-3EfcOAI7JDVCh1z8WOVcg5KAui0o-73qncgucjRMgppXl4adhq_fIIh8dsKhRnE25BCNH_J7WJ1EDenZENjHSbA9gMan0n-baitArwcb_WXLAPagnQbLe3DruMSODHLkoojS1WOIwtlFTdkLAW1-hM-RxLLygO3O4aHeA7b0rkisGVjIa-G0aUY9qDF0opRaDPNkCjooWfvdWeDRCWmfCfWYqgd_go936g_Z6jqL3v2ZRpPKtvFPZuvucPp_nZXxTNIMkLR7trmRnN4oxWyTFopUCfuI0xkBvHKtAUNafZbjUXlVGIyPNCvtAj8_rV8Ab-Yoiz6pD3hu1d-m3-rcKdu4kHihquDSenum3ORVEV5oH6mGiZHPnY_uu1y0]--></g></svg>