<?xml version="1.0" encoding="us-ascii" standalone="no"?><svg xmlns="http://www.w3.org/2000/svg" xmlns:xlink="http://www.w3.org/1999/xlink" contentStyleType="text/css" height="1246px" preserveAspectRatio="none" style="width:2417px;height:1246px;background:#FFFFFF;" version="1.1" viewBox="0 0 2417 1246" width="2417px" zoomAndPan="magnify"><defs/><g><rect fill="#FFFFFF" height="1031.2637" style="stroke:#181818;stroke-width:1.0;" width="10" x="29.5" y="98.2422"/><rect fill="#FFFFFF" height="204.707" style="stroke:#181818;stroke-width:1.0;" width="10" x="317.5" y="121.5332"/><rect fill="#FFFFFF" height="31.291" style="stroke:#181818;stroke-width:1.0;" width="10" x="317.5" y="357.5313"/><rect fill="#FFFFFF" height="173.416" style="stroke:#181818;stroke-width:1.0;" width="10" x="317.5" y="420.1133"/><rect fill="#FFFFFF" height="504.6855" style="stroke:#181818;stroke-width:1.0;" width="10" x="317.5" y="624.8203"/><rect fill="#FFFFFF" height="93.873" style="stroke:#181818;stroke-width:1.0;" width="10" x="700.5" y="152.8242"/><rect fill="#FFFFFF" height="62.582" style="stroke:#181818;stroke-width:1.0;" width="10" x="700.5" y="451.4043"/><rect fill="#FFFFFF" height="442.1035" style="stroke:#181818;stroke-width:1.0;" width="10" x="700.5" y="656.1113"/><rect fill="#FFFFFF" height="31.291" style="stroke:#181818;stroke-width:1.0;" width="10" x="980.5" y="215.4063"/><rect fill="#FFFFFF" height="83.5332" style="stroke:#181818;stroke-width:1.0;" width="10" x="1131.5" y="697.4023"/><rect fill="#FFFFFF" height="62.582" style="stroke:#181818;stroke-width:1.0;" width="10" x="1725.5" y="843.1777"/><rect fill="#FFFFFF" height="92.582" style="stroke:#181818;stroke-width:1.0;" width="10" x="1909.5" y="874.4688"/><rect fill="#FFFFFF" height="129.873" style="stroke:#181818;stroke-width:1.0;" width="10" x="2029.5" y="937.0508"/><rect fill="#FFFFFF" height="31.291" style="stroke:#181818;stroke-width:1.0;" width="10" x="2159" y="482.6953"/><rect fill="#FFFFFF" height="99.873" style="stroke:#181818;stroke-width:1.0;" width="10" x="2159" y="998.3418"/><line style="stroke:#181818;stroke-width:0.5;stroke-dasharray:5.0,5.0;" x1="34" x2="34" y1="88.2422" y2="1147.5059"/><line style="stroke:#181818;stroke-width:0.5;stroke-dasharray:5.0,5.0;" x1="322.5" x2="322.5" y1="88.2422" y2="1147.5059"/><line style="stroke:#181818;stroke-width:0.5;stroke-dasharray:5.0,5.0;" x1="705.5" x2="705.5" y1="88.2422" y2="1147.5059"/><line style="stroke:#181818;stroke-width:0.5;stroke-dasharray:5.0,5.0;" x1="985" x2="985" y1="88.2422" y2="1147.5059"/><line style="stroke:#181818;stroke-width:0.5;stroke-dasharray:5.0,5.0;" x1="1136" x2="1136" y1="705.2324" y2="1147.5059"/><line style="stroke:#181818;stroke-width:0.5;stroke-dasharray:5.0,5.0;" x1="1596.5" x2="1596.5" y1="798.7656" y2="1147.5059"/><line style="stroke:#181818;stroke-width:0.5;stroke-dasharray:5.0,5.0;" x1="1730.5" x2="1730.5" y1="88.2422" y2="1147.5059"/><line style="stroke:#181818;stroke-width:0.5;stroke-dasharray:5.0,5.0;" x1="1914.5" x2="1914.5" y1="88.2422" y2="1147.5059"/><line style="stroke:#181818;stroke-width:0.5;stroke-dasharray:5.0,5.0;" x1="2034.5" x2="2034.5" y1="88.2422" y2="1147.5059"/><line style="stroke:#181818;stroke-width:0.5;stroke-dasharray:5.0,5.0;" x1="2163.5" x2="2163.5" y1="88.2422" y2="1147.5059"/><line style="stroke:#181818;stroke-width:0.5;stroke-dasharray:5.0,5.0;" x1="2266.5" x2="2266.5" y1="88.2422" y2="1147.5059"/><line style="stroke:#181818;stroke-width:0.5;stroke-dasharray:5.0,5.0;" x1="2362.5" x2="2362.5" y1="88.2422" y2="1147.5059"/><text fill="#000000" font-family="sans-serif" font-size="14" lengthAdjust="spacing" textLength="53" x="5" y="84.7285">Teacher</text><ellipse cx="34.5" cy="18.1211" fill="#E2E2F0" rx="8" ry="8" style="stroke:#181818;stroke-width:0.5;"/><path d="M34.5,26.1211 L34.5,53.1211 M21.5,34.1211 L47.5,34.1211 M34.5,53.1211 L21.5,68.1211 M34.5,53.1211 L47.5,68.1211 " fill="none" style="stroke:#181818;stroke-width:0.5;"/><text fill="#000000" font-family="sans-serif" font-size="14" lengthAdjust="spacing" textLength="53" x="5" y="1161.6133">Teacher</text><ellipse cx="34.5" cy="1173.627" fill="#E2E2F0" rx="8" ry="8" style="stroke:#181818;stroke-width:0.5;"/><path d="M34.5,1181.627 L34.5,1208.627 M21.5,1189.627 L47.5,1189.627 M34.5,1208.627 L21.5,1223.627 M34.5,1208.627 L47.5,1223.627 " fill="none" style="stroke:#181818;stroke-width:0.5;"/><rect fill="#E2E2F0" height="51.2422" rx="2.5" ry="2.5" style="stroke:#181818;stroke-width:0.5;" width="182" x="231.5" y="36"/><text fill="#000000" font-family="sans-serif" font-size="14" font-style="italic" lengthAdjust="spacing" textLength="95" x="275" y="58.1074">&#171;presentation&#187;</text><text fill="#000000" font-family="sans-serif" font-size="14" lengthAdjust="spacing" textLength="168" x="238.5" y="76.7285">ScheduleRecurringClassUI</text><rect fill="#E2E2F0" height="51.2422" rx="2.5" ry="2.5" style="stroke:#181818;stroke-width:0.5;" width="182" x="231.5" y="1146.5059"/><text fill="#000000" font-family="sans-serif" font-size="14" font-style="italic" lengthAdjust="spacing" textLength="95" x="275" y="1168.6133">&#171;presentation&#187;</text><text fill="#000000" font-family="sans-serif" font-size="14" lengthAdjust="spacing" textLength="168" x="238.5" y="1187.2344">ScheduleRecurringClassUI</text><rect fill="#E2E2F0" height="51.2422" rx="2.5" ry="2.5" style="stroke:#181818;stroke-width:0.5;" width="232" x="589.5" y="36"/><text fill="#000000" font-family="sans-serif" font-size="14" font-style="italic" lengthAdjust="spacing" textLength="84" x="663.5" y="58.1074">&#171;application&#187;</text><text fill="#000000" font-family="sans-serif" font-size="14" lengthAdjust="spacing" textLength="218" x="596.5" y="76.7285">ScheduleRecurringClassController</text><rect fill="#E2E2F0" height="51.2422" rx="2.5" ry="2.5" style="stroke:#181818;stroke-width:0.5;" width="232" x="589.5" y="1146.5059"/><text fill="#000000" font-family="sans-serif" font-size="14" font-style="italic" lengthAdjust="spacing" textLength="84" x="663.5" y="1168.6133">&#171;application&#187;</text><text fill="#000000" font-family="sans-serif" font-size="14" lengthAdjust="spacing" textLength="218" x="596.5" y="1187.2344">ScheduleRecurringClassController</text><rect fill="#E2E2F0" height="51.2422" rx="2.5" ry="2.5" style="stroke:#181818;stroke-width:0.5;" width="189" x="891" y="36"/><text fill="#000000" font-family="sans-serif" font-size="14" font-style="italic" lengthAdjust="spacing" textLength="84" x="943.5" y="58.1074">&#171;application&#187;</text><text fill="#000000" font-family="sans-serif" font-size="14" lengthAdjust="spacing" textLength="175" x="898" y="76.7285">CourseManagementService</text><rect fill="#E2E2F0" height="51.2422" rx="2.5" ry="2.5" style="stroke:#181818;stroke-width:0.5;" width="189" x="891" y="1146.5059"/><text fill="#000000" font-family="sans-serif" font-size="14" font-style="italic" lengthAdjust="spacing" textLength="84" x="943.5" y="1168.6133">&#171;application&#187;</text><text fill="#000000" font-family="sans-serif" font-size="14" lengthAdjust="spacing" textLength="175" x="898" y="1187.2344">CourseManagementService</text><rect fill="#E2E2F0" height="51.2422" rx="2.5" ry="2.5" style="stroke:#181818;stroke-width:0.5;" width="93" x="1090" y="1146.5059"/><text fill="#000000" font-family="sans-serif" font-size="14" font-style="italic" lengthAdjust="spacing" textLength="59" x="1107" y="1168.6133">&#171;builder&#187;</text><text fill="#000000" font-family="sans-serif" font-size="14" lengthAdjust="spacing" textLength="79" x="1097" y="1187.2344">ClassBuilder</text><rect fill="#E2E2F0" height="51.2422" rx="2.5" ry="2.5" style="stroke:#181818;stroke-width:0.5;" width="111" x="1541.5" y="1146.5059"/><text fill="#000000" font-family="sans-serif" font-size="14" font-style="italic" lengthAdjust="spacing" textLength="62" x="1566" y="1168.6133">&#171;domain&#187;</text><text fill="#000000" font-family="sans-serif" font-size="14" lengthAdjust="spacing" textLength="97" x="1548.5" y="1187.2344">RecurringClass</text><rect fill="#E2E2F0" height="51.2422" rx="2.5" ry="2.5" style="stroke:#181818;stroke-width:0.5;" width="136" x="1662.5" y="36"/><text fill="#000000" font-family="sans-serif" font-size="14" font-style="italic" lengthAdjust="spacing" textLength="89" x="1686" y="58.1074">&#171;persistence&#187;</text><text fill="#000000" font-family="sans-serif" font-size="14" lengthAdjust="spacing" textLength="122" x="1669.5" y="76.7285">PersistenceContext</text><rect fill="#E2E2F0" height="51.2422" rx="2.5" ry="2.5" style="stroke:#181818;stroke-width:0.5;" width="136" x="1662.5" y="1146.5059"/><text fill="#000000" font-family="sans-serif" font-size="14" font-style="italic" lengthAdjust="spacing" textLength="89" x="1686" y="1168.6133">&#171;persistence&#187;</text><text fill="#000000" font-family="sans-serif" font-size="14" lengthAdjust="spacing" textLength="122" x="1669.5" y="1187.2344">PersistenceContext</text><rect fill="#E2E2F0" height="32.6211" rx="2.5" ry="2.5" style="stroke:#181818;stroke-width:0.5;" width="90" x="1869.5" y="54.6211"/><text fill="#000000" font-family="sans-serif" font-size="14" lengthAdjust="spacing" textLength="76" x="1876.5" y="76.7285">AppSettings</text><rect fill="#E2E2F0" height="32.6211" rx="2.5" ry="2.5" style="stroke:#181818;stroke-width:0.5;" width="90" x="1869.5" y="1146.5059"/><text fill="#000000" font-family="sans-serif" font-size="14" lengthAdjust="spacing" textLength="76" x="1876.5" y="1168.6133">AppSettings</text><rect fill="#E2E2F0" height="51.2422" rx="2.5" ry="2.5" style="stroke:#181818;stroke-width:0.5;" width="130" x="1969.5" y="36"/><text fill="#000000" font-family="sans-serif" font-size="14" font-style="italic" lengthAdjust="spacing" textLength="59" x="2005" y="58.1074">&#171;factory&#187;</text><text fill="#000000" font-family="sans-serif" font-size="14" lengthAdjust="spacing" textLength="116" x="1976.5" y="76.7285">RepositoryFactory</text><rect fill="#E2E2F0" height="51.2422" rx="2.5" ry="2.5" style="stroke:#181818;stroke-width:0.5;" width="130" x="1969.5" y="1146.5059"/><text fill="#000000" font-family="sans-serif" font-size="14" font-style="italic" lengthAdjust="spacing" textLength="59" x="2005" y="1168.6133">&#171;factory&#187;</text><text fill="#000000" font-family="sans-serif" font-size="14" lengthAdjust="spacing" textLength="116" x="1976.5" y="1187.2344">RepositoryFactory</text><text fill="#000000" font-family="sans-serif" font-size="14" font-style="italic" lengthAdjust="spacing" textLength="79" x="2121.5" y="66.1074">&#171;repository&#187;</text><text fill="#000000" font-family="sans-serif" font-size="14" lengthAdjust="spacing" textLength="103" x="2109.5" y="84.7285">ClassRepository</text><path d="M2146,15 C2146,5 2164,5 2164,5 C2164,5 2182,5 2182,15 L2182,41 C2182,51 2164,51 2164,51 C2164,51 2146,51 2146,41 L2146,15 " fill="#E2E2F0" style="stroke:#181818;stroke-width:1.5;"/><path d="M2146,15 C2146,25 2164,25 2164,25 C2164,25 2182,25 2182,15 " fill="none" style="stroke:#181818;stroke-width:1.5;"/><text fill="#000000" font-family="sans-serif" font-size="14" font-style="italic" lengthAdjust="spacing" textLength="79" x="2121.5" y="1161.6133">&#171;repository&#187;</text><text fill="#000000" font-family="sans-serif" font-size="14" lengthAdjust="spacing" textLength="103" x="2109.5" y="1180.2344">ClassRepository</text><path d="M2146,1193.748 C2146,1183.748 2164,1183.748 2164,1183.748 C2164,1183.748 2182,1183.748 2182,1193.748 L2182,1219.748 C2182,1229.748 2164,1229.748 2164,1229.748 C2164,1229.748 2146,1229.748 2146,1219.748 L2146,1193.748 " fill="#E2E2F0" style="stroke:#181818;stroke-width:1.5;"/><path d="M2146,1193.748 C2146,1203.748 2164,1203.748 2164,1203.748 C2164,1203.748 2182,1203.748 2182,1193.748 " fill="none" style="stroke:#181818;stroke-width:1.5;"/><rect fill="#E2E2F0" height="51.2422" rx="2.5" ry="2.5" style="stroke:#181818;stroke-width:0.5;" width="76" x="2228.5" y="36"/><text fill="#000000" font-family="sans-serif" font-size="14" font-style="italic" lengthAdjust="spacing" textLength="62" x="2235.5" y="58.1074">&#171;domain&#187;</text><text fill="#000000" font-family="sans-serif" font-size="14" lengthAdjust="spacing" textLength="35" x="2249" y="76.7285">Class</text><rect fill="#E2E2F0" height="51.2422" rx="2.5" ry="2.5" style="stroke:#181818;stroke-width:0.5;" width="76" x="2228.5" y="1146.5059"/><text fill="#000000" font-family="sans-serif" font-size="14" font-style="italic" lengthAdjust="spacing" textLength="62" x="2235.5" y="1168.6133">&#171;domain&#187;</text><text fill="#000000" font-family="sans-serif" font-size="14" lengthAdjust="spacing" textLength="35" x="2249" y="1187.2344">Class</text><rect fill="#E2E2F0" height="51.2422" rx="2.5" ry="2.5" style="stroke:#181818;stroke-width:0.5;" width="97" x="2314.5" y="36"/><text fill="#000000" font-family="sans-serif" font-size="14" font-style="italic" lengthAdjust="spacing" textLength="59" x="2333.5" y="58.1074">&#171;factory&#187;</text><text fill="#000000" font-family="sans-serif" font-size="14" lengthAdjust="spacing" textLength="83" x="2321.5" y="76.7285">ClassFactory</text><rect fill="#E2E2F0" height="51.2422" rx="2.5" ry="2.5" style="stroke:#181818;stroke-width:0.5;" width="97" x="2314.5" y="1146.5059"/><text fill="#000000" font-family="sans-serif" font-size="14" font-style="italic" lengthAdjust="spacing" textLength="59" x="2333.5" y="1168.6133">&#171;factory&#187;</text><text fill="#000000" font-family="sans-serif" font-size="14" lengthAdjust="spacing" textLength="83" x="2321.5" y="1187.2344">ClassFactory</text><rect fill="#FFFFFF" height="1031.2637" style="stroke:#181818;stroke-width:1.0;" width="10" x="29.5" y="98.2422"/><rect fill="#FFFFFF" height="204.707" style="stroke:#181818;stroke-width:1.0;" width="10" x="317.5" y="121.5332"/><rect fill="#FFFFFF" height="31.291" style="stroke:#181818;stroke-width:1.0;" width="10" x="317.5" y="357.5313"/><rect fill="#FFFFFF" height="173.416" style="stroke:#181818;stroke-width:1.0;" width="10" x="317.5" y="420.1133"/><rect fill="#FFFFFF" height="504.6855" style="stroke:#181818;stroke-width:1.0;" width="10" x="317.5" y="624.8203"/><rect fill="#FFFFFF" height="93.873" style="stroke:#181818;stroke-width:1.0;" width="10" x="700.5" y="152.8242"/><rect fill="#FFFFFF" height="62.582" style="stroke:#181818;stroke-width:1.0;" width="10" x="700.5" y="451.4043"/><rect fill="#FFFFFF" height="442.1035" style="stroke:#181818;stroke-width:1.0;" width="10" x="700.5" y="656.1113"/><rect fill="#FFFFFF" height="31.291" style="stroke:#181818;stroke-width:1.0;" width="10" x="980.5" y="215.4063"/><rect fill="#FFFFFF" height="83.5332" style="stroke:#181818;stroke-width:1.0;" width="10" x="1131.5" y="697.4023"/><rect fill="#FFFFFF" height="62.582" style="stroke:#181818;stroke-width:1.0;" width="10" x="1725.5" y="843.1777"/><rect fill="#FFFFFF" height="92.582" style="stroke:#181818;stroke-width:1.0;" width="10" x="1909.5" y="874.4688"/><rect fill="#FFFFFF" height="129.873" style="stroke:#181818;stroke-width:1.0;" width="10" x="2029.5" y="937.0508"/><rect fill="#FFFFFF" height="31.291" style="stroke:#181818;stroke-width:1.0;" width="10" x="2159" y="482.6953"/><rect fill="#FFFFFF" height="99.873" style="stroke:#181818;stroke-width:1.0;" width="10" x="2159" y="998.3418"/><polygon fill="#181818" points="305.5,117.5332,315.5,121.5332,305.5,125.5332,309.5,121.5332" style="stroke:#181818;stroke-width:1.0;"/><line style="stroke:#181818;stroke-width:1.0;" x1="39.5" x2="311.5" y1="121.5332" y2="121.5332"/><text fill="#000000" font-family="sans-serif" font-size="13" font-weight="bold" lengthAdjust="spacing" textLength="7" x="46.5" y="116.2705">1</text><text fill="#000000" font-family="sans-serif" font-size="13" lengthAdjust="spacing" textLength="145" x="57.5" y="116.2705">asks to schedule a class</text><polygon fill="#181818" points="688.5,148.8242,698.5,152.8242,688.5,156.8242,692.5,152.8242" style="stroke:#181818;stroke-width:1.0;"/><line style="stroke:#181818;stroke-width:1.0;" x1="327.5" x2="694.5" y1="152.8242" y2="152.8242"/><text fill="#000000" font-family="sans-serif" font-size="13" font-weight="bold" lengthAdjust="spacing" textLength="7" x="334.5" y="147.5615">2</text><text fill="#000000" font-family="sans-serif" font-size="13" lengthAdjust="spacing" textLength="44" x="345.5" y="147.5615">create()</text><polygon fill="#181818" points="688.5,180.1152,698.5,184.1152,688.5,188.1152,692.5,184.1152" style="stroke:#181818;stroke-width:1.0;"/><line style="stroke:#181818;stroke-width:1.0;" x1="327.5" x2="694.5" y1="184.1152" y2="184.1152"/><text fill="#000000" font-family="sans-serif" font-size="13" font-weight="bold" lengthAdjust="spacing" textLength="7" x="334.5" y="178.8525">3</text><text fill="#000000" font-family="sans-serif" font-size="13" lengthAdjust="spacing" textLength="73" x="345.5" y="178.8525">listCourses()</text><polygon fill="#181818" points="968.5,211.4063,978.5,215.4063,968.5,219.4063,972.5,215.4063" style="stroke:#181818;stroke-width:1.0;"/><line style="stroke:#181818;stroke-width:1.0;" x1="710.5" x2="974.5" y1="215.4063" y2="215.4063"/><text fill="#000000" font-family="sans-serif" font-size="13" font-weight="bold" lengthAdjust="spacing" textLength="7" x="717.5" y="210.1436">4</text><text fill="#000000" font-family="sans-serif" font-size="13" lengthAdjust="spacing" textLength="44" x="728.5" y="210.1436">create()</text><polygon fill="#181818" points="973.5,242.6973,983.5,246.6973,973.5,250.6973,977.5,246.6973" style="stroke:#181818;stroke-width:1.0;"/><line style="stroke:#181818;stroke-width:1.0;" x1="705.5" x2="979.5" y1="246.6973" y2="246.6973"/><text fill="#000000" font-family="sans-serif" font-size="13" font-weight="bold" lengthAdjust="spacing" textLength="7" x="712.5" y="241.4346">5</text><text fill="#000000" font-family="sans-serif" font-size="13" lengthAdjust="spacing" textLength="235" x="723.5" y="241.4346">allCoursesBySystemUser(systemUser())</text><rect fill="none" height="43.252" style="stroke:#000000;stroke-width:1.5;" width="195" x="888" y="254.6973"/><path d="M888,254.6973 L950,254.6973 L950,263.6973 L940,273.6973 L888,273.6973 L888,254.6973 " fill="#EEEEEE" style="stroke:#000000;stroke-width:2.0;"/><text fill="#000000" font-family="sans-serif" font-size="13" font-weight="bold" lengthAdjust="spacing" textLength="17" x="901" y="270.7256">ref</text><text fill="#000000" font-family="sans-serif" font-size="12" lengthAdjust="spacing" textLength="180" x="895.5" y="290.6465">SD_ CourseManagementService</text><polygon fill="#181818" points="50.5,322.2402,40.5,326.2402,50.5,330.2402,46.5,326.2402" style="stroke:#181818;stroke-width:1.0;"/><line style="stroke:#181818;stroke-width:1.0;stroke-dasharray:2.0,2.0;" x1="44.5" x2="321.5" y1="326.2402" y2="326.2402"/><text fill="#000000" font-family="sans-serif" font-size="13" font-weight="bold" lengthAdjust="spacing" textLength="7" x="56.5" y="320.9775">6</text><text fill="#000000" font-family="sans-serif" font-size="13" lengthAdjust="spacing" textLength="146" x="67.5" y="320.9775">shows the list of Courses</text><polygon fill="#181818" points="305.5,353.5313,315.5,357.5313,305.5,361.5313,309.5,357.5313" style="stroke:#181818;stroke-width:1.0;"/><line style="stroke:#181818;stroke-width:1.0;" x1="39.5" x2="311.5" y1="357.5313" y2="357.5313"/><text fill="#000000" font-family="sans-serif" font-size="13" font-weight="bold" lengthAdjust="spacing" textLength="7" x="46.5" y="352.2686">7</text><text fill="#000000" font-family="sans-serif" font-size="13" lengthAdjust="spacing" textLength="98" x="57.5" y="352.2686">selects a Course</text><polygon fill="#181818" points="50.5,384.8223,40.5,388.8223,50.5,392.8223,46.5,388.8223" style="stroke:#181818;stroke-width:1.0;"/><line style="stroke:#181818;stroke-width:1.0;stroke-dasharray:2.0,2.0;" x1="44.5" x2="321.5" y1="388.8223" y2="388.8223"/><text fill="#000000" font-family="sans-serif" font-size="13" font-weight="bold" lengthAdjust="spacing" textLength="7" x="56.5" y="383.5596">8</text><text fill="#000000" font-family="sans-serif" font-size="13" lengthAdjust="spacing" textLength="236" x="67.5" y="383.5596">requests data: (title, date, time, duration)</text><polygon fill="#181818" points="305.5,416.1133,315.5,420.1133,305.5,424.1133,309.5,420.1133" style="stroke:#181818;stroke-width:1.0;"/><line style="stroke:#181818;stroke-width:1.0;" x1="39.5" x2="311.5" y1="420.1133" y2="420.1133"/><text fill="#000000" font-family="sans-serif" font-size="13" font-weight="bold" lengthAdjust="spacing" textLength="7" x="46.5" y="414.8506">9</text><text fill="#000000" font-family="sans-serif" font-size="13" lengthAdjust="spacing" textLength="122" x="57.5" y="414.8506">types requested data</text><polygon fill="#181818" points="688.5,447.4043,698.5,451.4043,688.5,455.4043,692.5,451.4043" style="stroke:#181818;stroke-width:1.0;"/><line style="stroke:#181818;stroke-width:1.0;" x1="327.5" x2="694.5" y1="451.4043" y2="451.4043"/><text fill="#000000" font-family="sans-serif" font-size="13" font-weight="bold" lengthAdjust="spacing" textLength="14" x="334.5" y="446.1416">10</text><text fill="#000000" font-family="sans-serif" font-size="13" lengthAdjust="spacing" textLength="220" x="352.5" y="446.1416">checkAvailability(date, time , duration)</text><polygon fill="#181818" points="2147,478.6953,2157,482.6953,2147,486.6953,2151,482.6953" style="stroke:#181818;stroke-width:1.0;"/><line style="stroke:#181818;stroke-width:1.0;" x1="710.5" x2="2153" y1="482.6953" y2="482.6953"/><text fill="#000000" font-family="sans-serif" font-size="13" font-weight="bold" lengthAdjust="spacing" textLength="14" x="717.5" y="477.4326">11</text><text fill="#000000" font-family="sans-serif" font-size="13" lengthAdjust="spacing" textLength="48" x="735.5" y="477.4326">create ()</text><polygon fill="#181818" points="2152,509.9863,2162,513.9863,2152,517.9863,2156,513.9863" style="stroke:#181818;stroke-width:1.0;"/><line style="stroke:#181818;stroke-width:1.0;" x1="705.5" x2="2158" y1="513.9863" y2="513.9863"/><text fill="#000000" font-family="sans-serif" font-size="13" font-weight="bold" lengthAdjust="spacing" textLength="14" x="712.5" y="508.7236">12</text><text fill="#000000" font-family="sans-serif" font-size="13" lengthAdjust="spacing" textLength="353" x="730.5" y="508.7236">checkScheduleAvailability(teacher, date, startTime, endTime)</text><rect fill="none" height="43.252" style="stroke:#000000;stroke-width:1.5;" width="175" x="2106.5" y="521.9863"/><path d="M2106.5,521.9863 L2168.5,521.9863 L2168.5,530.9863 L2158.5,540.9863 L2106.5,540.9863 L2106.5,521.9863 " fill="#EEEEEE" style="stroke:#000000;stroke-width:2.0;"/><text fill="#000000" font-family="sans-serif" font-size="13" font-weight="bold" lengthAdjust="spacing" textLength="17" x="2119.5" y="538.0146">ref</text><text fill="#000000" font-family="sans-serif" font-size="12" lengthAdjust="spacing" textLength="167" x="2110.5" y="557.9355">SD_CheckScheduleAvailability</text><polygon fill="#181818" points="50.5,589.5293,40.5,593.5293,50.5,597.5293,46.5,593.5293" style="stroke:#181818;stroke-width:1.0;"/><line style="stroke:#181818;stroke-width:1.0;stroke-dasharray:2.0,2.0;" x1="44.5" x2="321.5" y1="593.5293" y2="593.5293"/><text fill="#000000" font-family="sans-serif" font-size="13" font-weight="bold" lengthAdjust="spacing" textLength="14" x="56.5" y="588.2666">13</text><text fill="#000000" font-family="sans-serif" font-size="13" lengthAdjust="spacing" textLength="236" x="74.5" y="588.2666">shows all data and requests confirmation</text><polygon fill="#181818" points="305.5,620.8203,315.5,624.8203,305.5,628.8203,309.5,624.8203" style="stroke:#181818;stroke-width:1.0;"/><line style="stroke:#181818;stroke-width:1.0;" x1="39.5" x2="311.5" y1="624.8203" y2="624.8203"/><text fill="#000000" font-family="sans-serif" font-size="13" font-weight="bold" lengthAdjust="spacing" textLength="14" x="46.5" y="619.5576">14</text><text fill="#000000" font-family="sans-serif" font-size="13" lengthAdjust="spacing" textLength="100" x="64.5" y="619.5576">confirms the data</text><polygon fill="#181818" points="688.5,652.1113,698.5,656.1113,688.5,660.1113,692.5,656.1113" style="stroke:#181818;stroke-width:1.0;"/><line style="stroke:#181818;stroke-width:1.0;" x1="327.5" x2="694.5" y1="656.1113" y2="656.1113"/><text fill="#000000" font-family="sans-serif" font-size="13" font-weight="bold" lengthAdjust="spacing" textLength="14" x="334.5" y="650.8486">15</text><text fill="#000000" font-family="sans-serif" font-size="13" lengthAdjust="spacing" textLength="336" x="352.5" y="650.8486">scheduleRecurringClass(title, duration, date, time, course)</text><polygon fill="#181818" points="1078,683.4023,1088,687.4023,1078,691.4023,1082,687.4023" style="stroke:#181818;stroke-width:1.0;"/><line style="stroke:#181818;stroke-width:1.0;" x1="710.5" x2="1084" y1="687.4023" y2="687.4023"/><text fill="#000000" font-family="sans-serif" font-size="13" font-weight="bold" lengthAdjust="spacing" textLength="14" x="717.5" y="682.1396">16</text><text fill="#000000" font-family="sans-serif" font-size="13" lengthAdjust="spacing" textLength="317" x="735.5" y="682.1396">with(teacher, course, title, day, time, duration, teacher)</text><rect fill="#E2E2F0" height="51.2422" rx="2.5" ry="2.5" style="stroke:#181818;stroke-width:0.5;" width="93" x="1090" y="664.1113"/><text fill="#000000" font-family="sans-serif" font-size="14" font-style="italic" lengthAdjust="spacing" textLength="59" x="1107" y="686.2188">&#171;builder&#187;</text><text fill="#000000" font-family="sans-serif" font-size="14" lengthAdjust="spacing" textLength="79" x="1097" y="704.8398">ClassBuilder</text><polygon fill="#181818" points="1119.5,745.6445,1129.5,749.6445,1119.5,753.6445,1123.5,749.6445" style="stroke:#181818;stroke-width:1.0;"/><line style="stroke:#181818;stroke-width:1.0;" x1="710.5" x2="1125.5" y1="749.6445" y2="749.6445"/><text fill="#000000" font-family="sans-serif" font-size="13" font-weight="bold" lengthAdjust="spacing" textLength="14" x="717.5" y="744.3818">17</text><text fill="#000000" font-family="sans-serif" font-size="13" lengthAdjust="spacing" textLength="134" x="735.5" y="744.3818">recurringClass = build()</text><polygon fill="#181818" points="1529.5,776.9355,1539.5,780.9355,1529.5,784.9355,1533.5,780.9355" style="stroke:#181818;stroke-width:1.0;"/><line style="stroke:#181818;stroke-width:1.0;" x1="1136.5" x2="1535.5" y1="780.9355" y2="780.9355"/><text fill="#000000" font-family="sans-serif" font-size="13" font-weight="bold" lengthAdjust="spacing" textLength="14" x="1143.5" y="775.6729">18</text><text fill="#000000" font-family="sans-serif" font-size="13" lengthAdjust="spacing" textLength="358" x="1161.5" y="775.6729">new RecurringClass(title, duration, day, time, teacher, course)</text><rect fill="#E2E2F0" height="51.2422" rx="2.5" ry="2.5" style="stroke:#181818;stroke-width:0.5;" width="111" x="1541.5" y="757.6445"/><text fill="#000000" font-family="sans-serif" font-size="14" font-style="italic" lengthAdjust="spacing" textLength="62" x="1566" y="779.752">&#171;domain&#187;</text><text fill="#000000" font-family="sans-serif" font-size="14" lengthAdjust="spacing" textLength="97" x="1548.5" y="798.373">RecurringClass</text><polygon fill="#181818" points="1713.5,839.1777,1723.5,843.1777,1713.5,847.1777,1717.5,843.1777" style="stroke:#181818;stroke-width:1.0;"/><line style="stroke:#181818;stroke-width:1.0;" x1="710.5" x2="1719.5" y1="843.1777" y2="843.1777"/><text fill="#000000" font-family="sans-serif" font-size="13" font-weight="bold" lengthAdjust="spacing" textLength="14" x="717.5" y="837.915">19</text><text fill="#000000" font-family="sans-serif" font-size="13" lengthAdjust="spacing" textLength="75" x="735.5" y="837.915">repositories()</text><polygon fill="#181818" points="1897.5,870.4688,1907.5,874.4688,1897.5,878.4688,1901.5,874.4688" style="stroke:#181818;stroke-width:1.0;"/><line style="stroke:#181818;stroke-width:1.0;" x1="1735.5" x2="1903.5" y1="874.4688" y2="874.4688"/><text fill="#000000" font-family="sans-serif" font-size="13" font-weight="bold" lengthAdjust="spacing" textLength="14" x="1742.5" y="869.2061">20</text><text fill="#000000" font-family="sans-serif" font-size="13" lengthAdjust="spacing" textLength="57" x="1760.5" y="869.2061">instance()</text><polygon fill="#181818" points="1897.5,901.7598,1907.5,905.7598,1897.5,909.7598,1901.5,905.7598" style="stroke:#181818;stroke-width:1.0;"/><line style="stroke:#181818;stroke-width:1.0;" x1="1730.5" x2="1903.5" y1="905.7598" y2="905.7598"/><text fill="#000000" font-family="sans-serif" font-size="13" font-weight="bold" lengthAdjust="spacing" textLength="14" x="1737.5" y="900.4971">21</text><text fill="#000000" font-family="sans-serif" font-size="13" lengthAdjust="spacing" textLength="132" x="1755.5" y="900.4971">getRepositoryFactory()</text><polygon fill="#181818" points="2017.5,933.0508,2027.5,937.0508,2017.5,941.0508,2021.5,937.0508" style="stroke:#181818;stroke-width:1.0;"/><line style="stroke:#181818;stroke-width:1.0;" x1="1919.5" x2="2023.5" y1="937.0508" y2="937.0508"/><text fill="#000000" font-family="sans-serif" font-size="13" font-weight="bold" lengthAdjust="spacing" textLength="14" x="1926.5" y="931.7881">22</text><text fill="#000000" font-family="sans-serif" font-size="13" lengthAdjust="spacing" textLength="44" x="1944.5" y="931.7881">create()</text><polygon fill="#181818" points="2147,994.3418,2157,998.3418,2147,1002.3418,2151,998.3418" style="stroke:#181818;stroke-width:1.0;"/><line style="stroke:#181818;stroke-width:1.0;" x1="2039.5" x2="2153" y1="998.3418" y2="998.3418"/><text fill="#000000" font-family="sans-serif" font-size="13" font-weight="bold" lengthAdjust="spacing" textLength="14" x="2046.5" y="993.0791">23</text><text fill="#000000" font-family="sans-serif" font-size="13" lengthAdjust="spacing" textLength="36" x="2064.5" y="993.0791">create</text><path d="M1937,1011.3418 L1937,1038.3418 L2390,1038.3418 L2390,1021.3418 L2380,1011.3418 L1937,1011.3418 " fill="#FEFFDD" style="stroke:#181818;stroke-width:0.5;"/><path d="M2380,1011.3418 L2380,1021.3418 L2390,1021.3418 L2380,1011.3418 " fill="#FEFFDD" style="stroke:#181818;stroke-width:0.5;"/><text fill="#000000" font-family="sans-serif" font-size="13" lengthAdjust="spacing" textLength="432" x="1943" y="1030.3701">The properties file determines if the created repository is JPA or in memory</text><polygon fill="#181818" points="721.5,1062.9238,711.5,1066.9238,721.5,1070.9238,717.5,1066.9238" style="stroke:#181818;stroke-width:1.0;"/><line style="stroke:#181818;stroke-width:1.0;stroke-dasharray:2.0,2.0;" x1="715.5" x2="2033.5" y1="1066.9238" y2="1066.9238"/><text fill="#000000" font-family="sans-serif" font-size="13" font-weight="bold" lengthAdjust="spacing" textLength="14" x="727.5" y="1061.6611">24</text><text fill="#000000" font-family="sans-serif" font-size="13" lengthAdjust="spacing" textLength="95" x="745.5" y="1061.6611">ClassRepository</text><polygon fill="#181818" points="2152,1094.2148,2162,1098.2148,2152,1102.2148,2156,1098.2148" style="stroke:#181818;stroke-width:1.0;"/><line style="stroke:#181818;stroke-width:1.0;" x1="705.5" x2="2158" y1="1098.2148" y2="1098.2148"/><text fill="#000000" font-family="sans-serif" font-size="13" font-weight="bold" lengthAdjust="spacing" textLength="14" x="712.5" y="1092.9521">25</text><text fill="#000000" font-family="sans-serif" font-size="13" lengthAdjust="spacing" textLength="121" x="730.5" y="1092.9521">save (recurringClass)</text><polygon fill="#181818" points="45.5,1125.5059,35.5,1129.5059,45.5,1133.5059,41.5,1129.5059" style="stroke:#181818;stroke-width:1.0;"/><line style="stroke:#181818;stroke-width:1.0;stroke-dasharray:2.0,2.0;" x1="39.5" x2="321.5" y1="1129.5059" y2="1129.5059"/><text fill="#000000" font-family="sans-serif" font-size="13" font-weight="bold" lengthAdjust="spacing" textLength="14" x="51.5" y="1124.2432">26</text><text fill="#000000" font-family="sans-serif" font-size="13" lengthAdjust="spacing" textLength="152" x="69.5" y="1124.2432">informs operation success</text><!--SRC=[ZLRDRjim3BxxAOIUac9zWS0ha7efrg53YpWTi5EXo4mZr9OyIKxdjnybMxRanEWkWIJpu-z7ChGnKZJL7bIIK6Qa8bSxeEm8wefGJNQRTVPziqrggWndlAR2a1o_5aq9Ms2DKboyPINL-kN1okDlcjOAD0X33PVYzlO_i9aKHico16LrPBlj8sgXTLrovfL4MZBPA0q_gQ1lKA6b7DI9Ct3WfvTjlddDDzjV3zdcN4sinng_QtXPT9RzCKtttMdYVUorHU1BTqxJGbQKJ-Dz1gMvDY0Os23Xhx6euDMcQxnDqEkwpi4ODEYCQJ0JTsgfETQilNUbQwsGFwRfeJkXpe8QkgSQke17M1V1S4jJDLmcdWm1Pu_hF9-Braa5lZZXr_jrjdlQ_euyScJZ9sfWe5ZI7yZDBT9eXVXtJOmakgSCeOHP_IFovI51lg6uPSoAC0NukbYE0lOz4YanpnrvDCevejbl4MSkAeeaPe6qB7ljTstUOach5mrgeSVZSfaeE11vGfPDgBeY-RVNEMed1Smv4twnyVeqfZStBe_wA3ymaKTmqHDvw6te48cfd1P0GmdCOD5x-IZlPrOK_6b0exZbseei33SbVB4t_3MyikT6kJPSVcBOj3Lehn0Aft6-w4TWx-iJvINTyvARTZ6Q9A7DE4c-WW7xVTr9MFZnkuD4YDwu7scH4wQReJu1sc2Nx5mMG1Js42KXi3Am8xI3nCZcJ67wfWoO5gTZ09BJfP9GKOpbOb8SkAfSagPrYSlIItPKEgj9K1JCfBuuvWTIz4M9wS4So-OArO_cw-lL1pV7CRyTokhe-TPEwORtJZXGtMlpDUslAnNFzw_4hG7aG-8tWoD0D_BH5IBWWtmUu-3InEk80w5Braou8snxzMpWRd8Dg40g2H6e0BV5Yd21rCE746FNo2NPDp1d6sKH-HXQGuX5-cb_QMhstq8DrdRYCPVxxsBp2OdtixxO8HDh9N616imBEN3S4WKOK1KNUES7nzLERJ7ci2LSan_FQuB_ThWW5LJMnE3LIEF9kWm3yR5T72IQdd2Cn6nQ9ZCTVzQzq_RbuY1jtzau7QU8RXW3VJR0WwjVgly0]--></g></svg>