<?xml version="1.0" encoding="us-ascii" standalone="no"?><svg xmlns="http://www.w3.org/2000/svg" xmlns:xlink="http://www.w3.org/1999/xlink" contentStyleType="text/css" height="1042px" preserveAspectRatio="none" style="width:1321px;height:1042px;background:#FFFFFF;" version="1.1" viewBox="0 0 1321 1042" width="1321px" zoomAndPan="magnify"><defs/><g><rect fill="#FFFFFF" height="795.0547" style="stroke:#181818;stroke-width:1.0;" width="10" x="445.5" y="143.8594"/><rect fill="#FFFFFF" height="58.2656" style="stroke:#181818;stroke-width:1.0;" width="10" x="644" y="172.9922"/><rect fill="#FFFFFF" height="58.2656" style="stroke:#181818;stroke-width:1.0;" width="10" x="644" y="522.3203"/><rect fill="#FFFFFF" height="57.1328" style="stroke:#181818;stroke-width:1.0;" width="10" x="821" y="231.2578"/><rect fill="#FFFFFF" height="57.1328" style="stroke:#181818;stroke-width:1.0;" width="10" x="821" y="580.5859"/><rect fill="#FFFFFF" height="14" style="stroke:#181818;stroke-width:1.0;" width="10" x="957" y="260.3906"/><rect fill="#FFFFFF" height="59.1328" style="stroke:#181818;stroke-width:1.0;" width="10" x="957" y="317.5234"/><rect fill="#FFFFFF" height="14" style="stroke:#181818;stroke-width:1.0;" width="10" x="957" y="609.7188"/><rect fill="#FFFFFF" height="59.1328" style="stroke:#181818;stroke-width:1.0;" width="10" x="957" y="666.8516"/><rect fill="#FFFFFF" height="146.5313" style="stroke:#181818;stroke-width:1.0;" width="10" x="1112.5" y="346.6563"/><rect fill="#FFFFFF" height="204.7969" style="stroke:#181818;stroke-width:1.0;" width="10" x="1255" y="695.9844"/><line style="stroke:#181818;stroke-width:0.5;stroke-dasharray:5.0,5.0;" x1="60" x2="60" y1="83.5938" y2="947.9141"/><line style="stroke:#181818;stroke-width:0.5;stroke-dasharray:5.0,5.0;" x1="450.5" x2="450.5" y1="83.5938" y2="947.9141"/><line style="stroke:#181818;stroke-width:0.5;stroke-dasharray:5.0,5.0;" x1="648.5" x2="648.5" y1="83.5938" y2="947.9141"/><line style="stroke:#181818;stroke-width:0.5;stroke-dasharray:5.0,5.0;" x1="825.5" x2="825.5" y1="83.5938" y2="947.9141"/><line style="stroke:#181818;stroke-width:0.5;stroke-dasharray:5.0,5.0;" x1="961.5" x2="961.5" y1="83.5938" y2="947.9141"/><line style="stroke:#181818;stroke-width:0.5;stroke-dasharray:5.0,5.0;" x1="1117.5" x2="1117.5" y1="83.5938" y2="947.9141"/><line style="stroke:#181818;stroke-width:0.5;stroke-dasharray:5.0,5.0;" x1="1259.5" x2="1259.5" y1="83.5938" y2="947.9141"/><rect fill="#E2E2F0" height="46.5938" rx="2.5" ry="2.5" style="stroke:#181818;stroke-width:0.5;" width="111" x="5" y="36"/><text fill="#000000" font-family="FG Virgil" font-size="14" font-style="italic" lengthAdjust="spacing" textLength="97" x="12" y="55.9951">&#171;application&#187;</text><text fill="#000000" font-family="FG Virgil" font-size="14" lengthAdjust="spacing" textLength="73" x="24" y="72.292">Controller</text><rect fill="#E2E2F0" height="46.5938" rx="2.5" ry="2.5" style="stroke:#181818;stroke-width:0.5;" width="111" x="5" y="946.9141"/><text fill="#000000" font-family="FG Virgil" font-size="14" font-style="italic" lengthAdjust="spacing" textLength="97" x="12" y="966.9092">&#171;application&#187;</text><text fill="#000000" font-family="FG Virgil" font-size="14" lengthAdjust="spacing" textLength="73" x="24" y="983.2061">Controller</text><rect fill="#E2E2F0" height="46.5938" rx="2.5" ry="2.5" style="stroke:#181818;stroke-width:0.5;" width="220" x="340.5" y="36"/><text fill="#000000" font-family="FG Virgil" font-size="14" font-style="italic" lengthAdjust="spacing" textLength="97" x="402" y="55.9951">&#171;application&#187;</text><text fill="#000000" font-family="FG Virgil" font-size="14" lengthAdjust="spacing" textLength="206" x="347.5" y="72.292">MeetingManagementService</text><rect fill="#E2E2F0" height="46.5938" rx="2.5" ry="2.5" style="stroke:#181818;stroke-width:0.5;" width="220" x="340.5" y="946.9141"/><text fill="#000000" font-family="FG Virgil" font-size="14" font-style="italic" lengthAdjust="spacing" textLength="97" x="402" y="966.9092">&#171;application&#187;</text><text fill="#000000" font-family="FG Virgil" font-size="14" lengthAdjust="spacing" textLength="206" x="347.5" y="983.2061">MeetingManagementService</text><rect fill="#E2E2F0" height="46.5938" rx="2.5" ry="2.5" style="stroke:#181818;stroke-width:0.5;" width="157" x="570.5" y="36"/><text fill="#000000" font-family="FG Virgil" font-size="14" font-style="italic" lengthAdjust="spacing" textLength="100" x="599" y="55.9951">&#171;persistence&#187;</text><text fill="#000000" font-family="FG Virgil" font-size="14" lengthAdjust="spacing" textLength="143" x="577.5" y="72.292">PersistenceContext</text><rect fill="#E2E2F0" height="46.5938" rx="2.5" ry="2.5" style="stroke:#181818;stroke-width:0.5;" width="157" x="570.5" y="946.9141"/><text fill="#000000" font-family="FG Virgil" font-size="14" font-style="italic" lengthAdjust="spacing" textLength="100" x="599" y="966.9092">&#171;persistence&#187;</text><text fill="#000000" font-family="FG Virgil" font-size="14" lengthAdjust="spacing" textLength="143" x="577.5" y="983.2061">PersistenceContext</text><rect fill="#E2E2F0" height="30.2969" rx="2.5" ry="2.5" style="stroke:#181818;stroke-width:0.5;" width="105" x="773.5" y="52.2969"/><text fill="#000000" font-family="FG Virgil" font-size="14" lengthAdjust="spacing" textLength="91" x="780.5" y="72.292">AppSettings</text><rect fill="#E2E2F0" height="30.2969" rx="2.5" ry="2.5" style="stroke:#181818;stroke-width:0.5;" width="105" x="773.5" y="946.9141"/><text fill="#000000" font-family="FG Virgil" font-size="14" lengthAdjust="spacing" textLength="91" x="780.5" y="966.9092">AppSettings</text><rect fill="#E2E2F0" height="46.5938" rx="2.5" ry="2.5" style="stroke:#181818;stroke-width:0.5;" width="147" x="888.5" y="36"/><text fill="#000000" font-family="FG Virgil" font-size="14" font-style="italic" lengthAdjust="spacing" textLength="68" x="928" y="55.9951">&#171;factory&#187;</text><text fill="#000000" font-family="FG Virgil" font-size="14" lengthAdjust="spacing" textLength="133" x="895.5" y="72.292">RepositoryFactory</text><rect fill="#E2E2F0" height="46.5938" rx="2.5" ry="2.5" style="stroke:#181818;stroke-width:0.5;" width="147" x="888.5" y="946.9141"/><text fill="#000000" font-family="FG Virgil" font-size="14" font-style="italic" lengthAdjust="spacing" textLength="68" x="928" y="966.9092">&#171;factory&#187;</text><text fill="#000000" font-family="FG Virgil" font-size="14" lengthAdjust="spacing" textLength="133" x="895.5" y="983.2061">RepositoryFactory</text><text fill="#000000" font-family="FG Virgil" font-size="14" font-style="italic" lengthAdjust="spacing" textLength="90" x="1069.5" y="63.9951">&#171;repository&#187;</text><text fill="#000000" font-family="FG Virgil" font-size="14" lengthAdjust="spacing" textLength="138" x="1045.5" y="80.292">MeetingRepository</text><path d="M1099.5,15 C1099.5,5 1117.5,5 1117.5,5 C1117.5,5 1135.5,5 1135.5,15 L1135.5,41 C1135.5,51 1117.5,51 1117.5,51 C1117.5,51 1099.5,51 1099.5,41 L1099.5,15 " fill="#E2E2F0" style="stroke:#181818;stroke-width:1.5;"/><path d="M1099.5,15 C1099.5,25 1117.5,25 1117.5,25 C1117.5,25 1135.5,25 1135.5,15 " fill="none" style="stroke:#181818;stroke-width:1.5;"/><text fill="#000000" font-family="FG Virgil" font-size="14" font-style="italic" lengthAdjust="spacing" textLength="90" x="1069.5" y="959.9092">&#171;repository&#187;</text><text fill="#000000" font-family="FG Virgil" font-size="14" lengthAdjust="spacing" textLength="138" x="1045.5" y="976.2061">MeetingRepository</text><path d="M1099.5,989.5078 C1099.5,979.5078 1117.5,979.5078 1117.5,979.5078 C1117.5,979.5078 1135.5,979.5078 1135.5,989.5078 L1135.5,1015.5078 C1135.5,1025.5078 1117.5,1025.5078 1117.5,1025.5078 C1117.5,1025.5078 1099.5,1025.5078 1099.5,1015.5078 L1099.5,989.5078 " fill="#E2E2F0" style="stroke:#181818;stroke-width:1.5;"/><path d="M1099.5,989.5078 C1099.5,999.5078 1117.5,999.5078 1117.5,999.5078 C1117.5,999.5078 1135.5,999.5078 1135.5,989.5078 " fill="none" style="stroke:#181818;stroke-width:1.5;"/><text fill="#000000" font-family="FG Virgil" font-size="14" font-style="italic" lengthAdjust="spacing" textLength="90" x="1212" y="63.9951">&#171;repository&#187;</text><text fill="#000000" font-family="FG Virgil" font-size="14" lengthAdjust="spacing" textLength="115" x="1199.5" y="80.292">ClassRepository</text><path d="M1242,15 C1242,5 1260,5 1260,5 C1260,5 1278,5 1278,15 L1278,41 C1278,51 1260,51 1260,51 C1260,51 1242,51 1242,41 L1242,15 " fill="#E2E2F0" style="stroke:#181818;stroke-width:1.5;"/><path d="M1242,15 C1242,25 1260,25 1260,25 C1260,25 1278,25 1278,15 " fill="none" style="stroke:#181818;stroke-width:1.5;"/><text fill="#000000" font-family="FG Virgil" font-size="14" font-style="italic" lengthAdjust="spacing" textLength="90" x="1212" y="959.9092">&#171;repository&#187;</text><text fill="#000000" font-family="FG Virgil" font-size="14" lengthAdjust="spacing" textLength="115" x="1199.5" y="976.2061">ClassRepository</text><path d="M1242,989.5078 C1242,979.5078 1260,979.5078 1260,979.5078 C1260,979.5078 1278,979.5078 1278,989.5078 L1278,1015.5078 C1278,1025.5078 1260,1025.5078 1260,1025.5078 C1260,1025.5078 1242,1025.5078 1242,1015.5078 L1242,989.5078 " fill="#E2E2F0" style="stroke:#181818;stroke-width:1.5;"/><path d="M1242,989.5078 C1242,999.5078 1260,999.5078 1260,999.5078 C1260,999.5078 1278,999.5078 1278,989.5078 " fill="none" style="stroke:#181818;stroke-width:1.5;"/><rect fill="#FFFFFF" height="795.0547" style="stroke:#181818;stroke-width:1.0;" width="10" x="445.5" y="143.8594"/><rect fill="#FFFFFF" height="58.2656" style="stroke:#181818;stroke-width:1.0;" width="10" x="644" y="172.9922"/><rect fill="#FFFFFF" height="58.2656" style="stroke:#181818;stroke-width:1.0;" width="10" x="644" y="522.3203"/><rect fill="#FFFFFF" height="57.1328" style="stroke:#181818;stroke-width:1.0;" width="10" x="821" y="231.2578"/><rect fill="#FFFFFF" height="57.1328" style="stroke:#181818;stroke-width:1.0;" width="10" x="821" y="580.5859"/><rect fill="#FFFFFF" height="14" style="stroke:#181818;stroke-width:1.0;" width="10" x="957" y="260.3906"/><rect fill="#FFFFFF" height="59.1328" style="stroke:#181818;stroke-width:1.0;" width="10" x="957" y="317.5234"/><rect fill="#FFFFFF" height="14" style="stroke:#181818;stroke-width:1.0;" width="10" x="957" y="609.7188"/><rect fill="#FFFFFF" height="59.1328" style="stroke:#181818;stroke-width:1.0;" width="10" x="957" y="666.8516"/><rect fill="#FFFFFF" height="146.5313" style="stroke:#181818;stroke-width:1.0;" width="10" x="1112.5" y="346.6563"/><rect fill="#FFFFFF" height="204.7969" style="stroke:#181818;stroke-width:1.0;" width="10" x="1255" y="695.9844"/><polygon fill="#181818" points="438.5,110.7266,448.5,114.7266,438.5,118.7266,442.5,114.7266" style="stroke:#181818;stroke-width:1.0;"/><line style="stroke:#181818;stroke-width:1.0;" x1="60.5" x2="444.5" y1="114.7266" y2="114.7266"/><text fill="#000000" font-family="FG Virgil" font-size="13" lengthAdjust="spacing" textLength="41" x="67.5" y="109.6606">create</text><polygon fill="#181818" points="433.5,139.8594,443.5,143.8594,433.5,147.8594,437.5,143.8594" style="stroke:#181818;stroke-width:1.0;"/><line style="stroke:#181818;stroke-width:1.0;" x1="60.5" x2="439.5" y1="143.8594" y2="143.8594"/><text fill="#000000" font-family="FG Virgil" font-size="13" lengthAdjust="spacing" textLength="366" x="67.5" y="138.7935">availableMeetingParticipant(selection, list, date, duration)</text><polygon fill="#181818" points="632,168.9922,642,172.9922,632,176.9922,636,172.9922" style="stroke:#181818;stroke-width:1.0;"/><line style="stroke:#181818;stroke-width:1.0;" x1="455.5" x2="638" y1="172.9922" y2="172.9922"/><text fill="#000000" font-family="FG Virgil" font-size="13" lengthAdjust="spacing" textLength="85" x="462.5" y="167.9263">repositories()</text><polygon fill="#181818" points="814,198.125,824,202.125,814,206.125,818,202.125" style="stroke:#181818;stroke-width:1.0;"/><line style="stroke:#181818;stroke-width:1.0;" x1="654" x2="820" y1="202.125" y2="202.125"/><text fill="#000000" font-family="FG Virgil" font-size="13" lengthAdjust="spacing" textLength="64" x="661" y="197.0591">instance()</text><polygon fill="#181818" points="809,227.2578,819,231.2578,809,235.2578,813,231.2578" style="stroke:#181818;stroke-width:1.0;"/><line style="stroke:#181818;stroke-width:1.0;" x1="649" x2="815" y1="231.2578" y2="231.2578"/><text fill="#000000" font-family="FG Virgil" font-size="13" lengthAdjust="spacing" textLength="148" x="656" y="226.1919">getRepositoryFactory()</text><polygon fill="#181818" points="945,256.3906,955,260.3906,945,264.3906,949,260.3906" style="stroke:#181818;stroke-width:1.0;"/><line style="stroke:#181818;stroke-width:1.0;stroke-dasharray:2.0,2.0;" x1="831" x2="951" y1="260.3906" y2="260.3906"/><text fill="#000000" font-family="FG Virgil" font-size="13" lengthAdjust="spacing" textLength="41" x="838" y="255.3247">create</text><polygon fill="#181818" points="842,270.3906,832,274.3906,842,278.3906,838,274.3906" style="stroke:#181818;stroke-width:1.0;"/><line style="stroke:#181818;stroke-width:1.0;stroke-dasharray:2.0,2.0;" x1="836" x2="961" y1="274.3906" y2="274.3906"/><polygon fill="#181818" points="466.5,284.3906,456.5,288.3906,466.5,292.3906,462.5,288.3906" style="stroke:#181818;stroke-width:1.0;"/><line style="stroke:#181818;stroke-width:1.0;stroke-dasharray:2.0,2.0;" x1="460.5" x2="825" y1="288.3906" y2="288.3906"/><polygon fill="#181818" points="945,313.5234,955,317.5234,945,321.5234,949,317.5234" style="stroke:#181818;stroke-width:1.0;"/><line style="stroke:#181818;stroke-width:1.0;" x1="455.5" x2="951" y1="317.5234" y2="317.5234"/><text fill="#000000" font-family="FG Virgil" font-size="13" lengthAdjust="spacing" textLength="70" x="462.5" y="312.4575">meetings()</text><polygon fill="#181818" points="1100.5,342.6563,1110.5,346.6563,1100.5,350.6563,1104.5,346.6563" style="stroke:#181818;stroke-width:1.0;"/><line style="stroke:#181818;stroke-width:1.0;stroke-dasharray:2.0,2.0;" x1="967" x2="1106.5" y1="346.6563" y2="346.6563"/><text fill="#000000" font-family="FG Virgil" font-size="13" lengthAdjust="spacing" textLength="60" x="974" y="341.5903">meetings</text><polygon fill="#181818" points="1100.5,401.7891,1110.5,405.7891,1100.5,409.7891,1104.5,405.7891" style="stroke:#181818;stroke-width:1.0;"/><line style="stroke:#181818;stroke-width:1.0;" x1="455.5" x2="1106.5" y1="405.7891" y2="405.7891"/><text fill="#000000" font-family="FG Virgil" font-size="13" lengthAdjust="spacing" textLength="225" x="462.5" y="400.7231">meetings = allMeetings(data, time)</text><polygon fill="#181818" points="466.5,430.9219,456.5,434.9219,466.5,438.9219,462.5,434.9219" style="stroke:#181818;stroke-width:1.0;"/><line style="stroke:#181818;stroke-width:1.0;stroke-dasharray:2.0,2.0;" x1="460.5" x2="1111.5" y1="434.9219" y2="434.9219"/><text fill="#000000" font-family="FG Virgil" font-size="13" lengthAdjust="spacing" textLength="60" x="472.5" y="429.856">meetings</text><polygon fill="#181818" points="1100.5,460.0547,1110.5,464.0547,1100.5,468.0547,1104.5,464.0547" style="stroke:#181818;stroke-width:1.0;"/><line style="stroke:#181818;stroke-width:1.0;" x1="455.5" x2="1106.5" y1="464.0547" y2="464.0547"/><text fill="#000000" font-family="FG Virgil" font-size="13" lengthAdjust="spacing" textLength="306" x="462.5" y="458.9888">boolean = findByDateAndUser(user, data, time)</text><polygon fill="#181818" points="466.5,489.1875,456.5,493.1875,466.5,497.1875,462.5,493.1875" style="stroke:#181818;stroke-width:1.0;"/><line style="stroke:#181818;stroke-width:1.0;stroke-dasharray:2.0,2.0;" x1="460.5" x2="1116.5" y1="493.1875" y2="493.1875"/><text fill="#000000" font-family="FG Virgil" font-size="13" lengthAdjust="spacing" textLength="51" x="472.5" y="488.1216">boolean</text><polygon fill="#181818" points="632,518.3203,642,522.3203,632,526.3203,636,522.3203" style="stroke:#181818;stroke-width:1.0;"/><line style="stroke:#181818;stroke-width:1.0;" x1="455.5" x2="638" y1="522.3203" y2="522.3203"/><text fill="#000000" font-family="FG Virgil" font-size="13" lengthAdjust="spacing" textLength="85" x="462.5" y="517.2544">repositories()</text><polygon fill="#181818" points="814,547.4531,824,551.4531,814,555.4531,818,551.4531" style="stroke:#181818;stroke-width:1.0;"/><line style="stroke:#181818;stroke-width:1.0;" x1="654" x2="820" y1="551.4531" y2="551.4531"/><text fill="#000000" font-family="FG Virgil" font-size="13" lengthAdjust="spacing" textLength="64" x="661" y="546.3872">instance()</text><polygon fill="#181818" points="809,576.5859,819,580.5859,809,584.5859,813,580.5859" style="stroke:#181818;stroke-width:1.0;"/><line style="stroke:#181818;stroke-width:1.0;" x1="649" x2="815" y1="580.5859" y2="580.5859"/><text fill="#000000" font-family="FG Virgil" font-size="13" lengthAdjust="spacing" textLength="148" x="656" y="575.52">getRepositoryFactory()</text><polygon fill="#181818" points="945,605.7188,955,609.7188,945,613.7188,949,609.7188" style="stroke:#181818;stroke-width:1.0;"/><line style="stroke:#181818;stroke-width:1.0;stroke-dasharray:2.0,2.0;" x1="831" x2="951" y1="609.7188" y2="609.7188"/><text fill="#000000" font-family="FG Virgil" font-size="13" lengthAdjust="spacing" textLength="41" x="838" y="604.6528">create</text><polygon fill="#181818" points="842,619.7188,832,623.7188,842,627.7188,838,623.7188" style="stroke:#181818;stroke-width:1.0;"/><line style="stroke:#181818;stroke-width:1.0;stroke-dasharray:2.0,2.0;" x1="836" x2="961" y1="623.7188" y2="623.7188"/><polygon fill="#181818" points="466.5,633.7188,456.5,637.7188,466.5,641.7188,462.5,637.7188" style="stroke:#181818;stroke-width:1.0;"/><line style="stroke:#181818;stroke-width:1.0;stroke-dasharray:2.0,2.0;" x1="460.5" x2="825" y1="637.7188" y2="637.7188"/><polygon fill="#181818" points="945,662.8516,955,666.8516,945,670.8516,949,666.8516" style="stroke:#181818;stroke-width:1.0;"/><line style="stroke:#181818;stroke-width:1.0;" x1="455.5" x2="951" y1="666.8516" y2="666.8516"/><text fill="#000000" font-family="FG Virgil" font-size="13" lengthAdjust="spacing" textLength="64" x="462.5" y="661.7856">classses()</text><polygon fill="#181818" points="1243,691.9844,1253,695.9844,1243,699.9844,1247,695.9844" style="stroke:#181818;stroke-width:1.0;"/><line style="stroke:#181818;stroke-width:1.0;stroke-dasharray:2.0,2.0;" x1="967" x2="1249" y1="695.9844" y2="695.9844"/><text fill="#000000" font-family="FG Virgil" font-size="13" lengthAdjust="spacing" textLength="47" x="974" y="690.9185">classes</text><polygon fill="#181818" points="1243,751.1172,1253,755.1172,1243,759.1172,1247,755.1172" style="stroke:#181818;stroke-width:1.0;"/><line style="stroke:#181818;stroke-width:1.0;" x1="455.5" x2="1249" y1="755.1172" y2="755.1172"/><text fill="#000000" font-family="FG Virgil" font-size="13" lengthAdjust="spacing" textLength="204" x="462.5" y="750.0513">classes = allClasses(date, time)</text><polygon fill="#181818" points="466.5,780.25,456.5,784.25,466.5,788.25,462.5,784.25" style="stroke:#181818;stroke-width:1.0;"/><line style="stroke:#181818;stroke-width:1.0;stroke-dasharray:2.0,2.0;" x1="460.5" x2="1254" y1="784.25" y2="784.25"/><text fill="#000000" font-family="FG Virgil" font-size="13" lengthAdjust="spacing" textLength="47" x="472.5" y="779.1841">classes</text><polygon fill="#181818" points="1243,809.3828,1253,813.3828,1243,817.3828,1247,813.3828" style="stroke:#181818;stroke-width:1.0;"/><line style="stroke:#181818;stroke-width:1.0;" x1="455.5" x2="1249" y1="813.3828" y2="813.3828"/><text fill="#000000" font-family="FG Virgil" font-size="13" lengthAdjust="spacing" textLength="423" x="462.5" y="808.3169">boolean = findByDateAndSystemUserExtraClass(user, data, time)</text><polygon fill="#181818" points="466.5,838.5156,456.5,842.5156,466.5,846.5156,462.5,842.5156" style="stroke:#181818;stroke-width:1.0;"/><line style="stroke:#181818;stroke-width:1.0;stroke-dasharray:2.0,2.0;" x1="460.5" x2="1254" y1="842.5156" y2="842.5156"/><text fill="#000000" font-family="FG Virgil" font-size="13" lengthAdjust="spacing" textLength="51" x="472.5" y="837.4497">boolean</text><polygon fill="#181818" points="1243,867.6484,1253,871.6484,1243,875.6484,1247,871.6484" style="stroke:#181818;stroke-width:1.0;"/><line style="stroke:#181818;stroke-width:1.0;" x1="455.5" x2="1249" y1="871.6484" y2="871.6484"/><text fill="#000000" font-family="FG Virgil" font-size="13" lengthAdjust="spacing" textLength="427" x="462.5" y="866.5825">boolean = findBycourseAndSystemUserinClasses(user, data, time)</text><polygon fill="#181818" points="466.5,896.7813,456.5,900.7813,466.5,904.7813,462.5,900.7813" style="stroke:#181818;stroke-width:1.0;"/><line style="stroke:#181818;stroke-width:1.0;stroke-dasharray:2.0,2.0;" x1="460.5" x2="1259" y1="900.7813" y2="900.7813"/><text fill="#000000" font-family="FG Virgil" font-size="13" lengthAdjust="spacing" textLength="51" x="472.5" y="895.7153">boolean</text><polygon fill="#181818" points="71.5,925.9141,61.5,929.9141,71.5,933.9141,67.5,929.9141" style="stroke:#181818;stroke-width:1.0;"/><line style="stroke:#181818;stroke-width:1.0;stroke-dasharray:2.0,2.0;" x1="65.5" x2="444.5" y1="929.9141" y2="929.9141"/><text fill="#000000" font-family="FG Virgil" font-size="13" lengthAdjust="spacing" textLength="125" x="77.5" y="924.8481">availableParticipant</text><!--SRC=[hLPDRzim3BthL-Ys54YRUv0LwB9bfmp5WktEsamYL9ODIKcRVpyg_gA_Chje3eubyJq-KYBbBqVli-LYaMam_fJeXoXD5kvLcGmi90z7dsXH3UKHJFncbVTev1wqGxQMGVGA1zpvYqPfCV9iBSOzdBJVfCR_WWJbvgVyg-n1SMvtX3XzK-PGC0j1yrv5AYDbSarGcsgDLeBZezKAiaoh2BnApUDZ0xH5z4Iu1KF24ZH-X_Qi8WmKIRwsEqSTYWR7Crgd70KSOV2AxpwWsIp1ithKKl2KPJlqmP4BC8U-iVmRizGfdzhB1gBm5upArzLgdxyHPmmUNi1X6L8D38Zkv6fbgm67hpKurmItfrfG8OiVo_dz8q_VKaOMmQEuPG9dK1fUD1PQd-iip1ngEYwK-xdKbCQv9Bb8pvEzxiYT49G7TQP9nYbgPToJ39xvxYnb5Ov2DxkhK1KdisQSzECqn4gRjvJAE0yqmOY6J0_eE_lRWiNOguARL0RXxF056ijxybKmrxlG1owC6elbERlF1Gy9wuEMljbso05uOAxIoZQAAo-cUtVdVyexPtzPilLdecC_gBpqB9ggkyLM1o2_Ij1wMuOJocuklKgGpd0NrynWpIB6k7n9KurWoEDUcVZRvJj9VZBn7uTsTgB7jOgcU2y8XH1Yw2XqSzTCtgGwR657L-K7A_GJgdLYvOwgugaLFRgwnrRwXAgVqW5kTeC-qu7M48NRoJKQz_GKyFXRrztowW2Tk9tX5agCpDvWJfhHjZN9GbJUJjRvO9RVYdaz3-QwVPktgxmCLqoNDTnqTXSw_abeFJ_UlOKhhgy9ZHLPjQ8FI8hIatLDKSgKAVmCJMEgvzPnuG65YEfl9lQLn3wFk4VkeiBz0m00]--></g></svg>