<?xml version="1.0" encoding="us-ascii" standalone="no"?><svg xmlns="http://www.w3.org/2000/svg" xmlns:xlink="http://www.w3.org/1999/xlink" contentStyleType="text/css" height="904px" preserveAspectRatio="none" style="width:1646px;height:904px;background:#FFFFFF;" version="1.1" viewBox="0 0 1646 904" width="1646px" zoomAndPan="magnify"><defs/><g><!--cluster presentation--><g id="cluster_presentation"><path d="M329.5,6 L435.5,6 A3.75,3.75 0 0 1 438,8.5 L445,28.2969 L690.5,28.2969 A2.5,2.5 0 0 1 693,30.7969 L693,143.5 A2.5,2.5 0 0 1 690.5,146 L329.5,146 A2.5,2.5 0 0 1 327,143.5 L327,8.5 A2.5,2.5 0 0 1 329.5,6 " fill="#DDDDDD" style="stroke:#000000;stroke-width:1.5;"/><line style="stroke:#000000;stroke-width:1.5;" x1="327" x2="445" y1="28.2969" y2="28.2969"/><text fill="#000000" font-family="sans-serif" font-size="14" font-weight="bold" lengthAdjust="spacing" textLength="105" x="331" y="20.9951">presentation</text></g><!--cluster domain--><g id="cluster_domain"><path d="M1011.5,369 L1072.5,369 A3.75,3.75 0 0 1 1075,371.5 L1082,391.2969 L1636.5,391.2969 A2.5,2.5 0 0 1 1639,393.7969 L1639,894.5 A2.5,2.5 0 0 1 1636.5,897 L1011.5,897 A2.5,2.5 0 0 1 1009,894.5 L1009,371.5 A2.5,2.5 0 0 1 1011.5,369 " fill="#DBD8AE" style="stroke:#000000;stroke-width:1.5;"/><line style="stroke:#000000;stroke-width:1.5;" x1="1009" x2="1082" y1="391.2969" y2="391.2969"/><text fill="#000000" font-family="sans-serif" font-size="14" font-weight="bold" lengthAdjust="spacing" textLength="60" x="1013" y="383.9951">domain</text></g><!--cluster persistence--><g id="cluster_persistence"><path d="M8.5,613 L103.5,613 A3.75,3.75 0 0 1 106,615.5 L113,635.2969 L840.5,635.2969 A2.5,2.5 0 0 1 843,637.7969 L843,774.5 A2.5,2.5 0 0 1 840.5,777 L8.5,777 A2.5,2.5 0 0 1 6,774.5 L6,615.5 A2.5,2.5 0 0 1 8.5,613 " fill="#DBD8AE" style="stroke:#000000;stroke-width:1.5;"/><line style="stroke:#000000;stroke-width:1.5;" x1="6" x2="113" y1="635.2969" y2="635.2969"/><text fill="#000000" font-family="sans-serif" font-size="14" font-weight="bold" lengthAdjust="spacing" textLength="94" x="10" y="627.9951">persistence</text></g><!--cluster application--><g id="cluster_application"><path d="M232.5,170 L325.5,170 A3.75,3.75 0 0 1 328,172.5 L335,192.2969 L787.5,192.2969 A2.5,2.5 0 0 1 790,194.7969 L790,586.5 A2.5,2.5 0 0 1 787.5,589 L232.5,589 A2.5,2.5 0 0 1 230,586.5 L230,172.5 A2.5,2.5 0 0 1 232.5,170 " fill="#EAF4D3" style="stroke:#000000;stroke-width:1.5;"/><line style="stroke:#000000;stroke-width:1.5;" x1="230" x2="335" y1="192.2969" y2="192.2969"/><text fill="#000000" font-family="sans-serif" font-size="14" font-weight="bold" lengthAdjust="spacing" textLength="92" x="234" y="184.9951">application</text></g><!--class ScheduleMeetingUI--><g id="elem_ScheduleMeetingUI"><rect codeLine="4" fill="#F1F1F1" height="88.8594" id="ScheduleMeetingUI" rx="2.5" ry="2.5" style="stroke:#181818;stroke-width:0.5;" width="334" x="343" y="41"/><ellipse cx="437.25" cy="61.1328" fill="#ADD1B2" rx="11" ry="11" style="stroke:#181818;stroke-width:1.0;"/><path d="M439.5938,56.8047 C438.6563,56.3672 438.0625,56.2266 437.1875,56.2266 C434.5625,56.2266 432.5625,58.3047 432.5625,61.0234 L432.5625,62.1484 C432.5625,64.7266 434.6719,66.6172 437.5625,66.6172 C438.7813,66.6172 439.9375,66.3203 440.6875,65.7734 C441.2656,65.3672 441.5938,64.9141 441.5938,64.5234 C441.5938,64.0703 441.2031,63.6797 440.7344,63.6797 C440.5156,63.6797 440.3125,63.7578 440.125,63.9453 C439.6719,64.4297 439.6719,64.4297 439.4844,64.5234 C439.0625,64.7891 438.375,64.9141 437.6094,64.9141 C435.5625,64.9141 434.2656,63.8203 434.2656,62.1172 L434.2656,61.0234 C434.2656,59.2422 435.5156,57.9297 437.25,57.9297 C437.8281,57.9297 438.4375,58.0859 438.9063,58.3359 C439.3906,58.6172 439.5625,58.8359 439.6563,59.2422 C439.7188,59.6484 439.75,59.7734 439.8906,59.8984 C440.0313,60.0391 440.2656,60.1484 440.4844,60.1484 C440.75,60.1484 441.0156,60.0078 441.1875,59.7891 C441.2969,59.6328 441.3281,59.4453 441.3281,59.0234 L441.3281,57.6016 C441.3281,57.1641 441.3125,57.0391 441.2188,56.8828 C441.0625,56.6172 440.7813,56.4766 440.4844,56.4766 C440.1875,56.4766 439.9844,56.5703 439.7656,56.8828 L439.5938,56.8047 Z " fill="#000000"/><text fill="#000000" font-family="sans-serif" font-size="12" font-style="italic" lengthAdjust="spacing" textLength="25" x="513.75" y="57.1387">&#171;ui&#187;</text><text fill="#000000" font-family="sans-serif" font-size="14" lengthAdjust="spacing" textLength="137" x="457.75" y="72.9639">ScheduleMeetingUI</text><line style="stroke:#181818;stroke-width:0.5;" x1="344" x2="676" y1="81.2656" y2="81.2656"/><rect fill="none" height="6" style="stroke:#C82930;stroke-width:1.0;" width="6" x="351" y="91.9141"/><text fill="#000000" font-family="sans-serif" font-size="14" lengthAdjust="spacing" textLength="308" x="363" y="98.2607">theController : ScheduleMeetingController</text><line style="stroke:#181818;stroke-width:0.5;" x1="344" x2="676" y1="105.5625" y2="105.5625"/><ellipse cx="354" cy="119.2109" fill="#84BE84" rx="3" ry="3" style="stroke:#038048;stroke-width:1.0;"/><text fill="#000000" font-family="sans-serif" font-size="14" lengthAdjust="spacing" textLength="66" x="363" y="122.5576">doShow()</text></g><!--class Meeting--><g id="elem_Meeting"><rect codeLine="14" fill="#F1F1F1" height="168.0156" id="Meeting" rx="2.5" ry="2.5" style="stroke:#181818;stroke-width:0.5;" width="333" x="1117.5" y="404"/><ellipse cx="1229.75" cy="431.1172" fill="#ADD1B2" rx="11" ry="11" style="stroke:#181818;stroke-width:1.0;"/><path d="M1232.0938,426.7891 C1231.1563,426.3516 1230.5625,426.2109 1229.6875,426.2109 C1227.0625,426.2109 1225.0625,428.2891 1225.0625,431.0078 L1225.0625,432.1328 C1225.0625,434.7109 1227.1719,436.6016 1230.0625,436.6016 C1231.2813,436.6016 1232.4375,436.3047 1233.1875,435.7578 C1233.7656,435.3516 1234.0938,434.8984 1234.0938,434.5078 C1234.0938,434.0547 1233.7031,433.6641 1233.2344,433.6641 C1233.0156,433.6641 1232.8125,433.7422 1232.625,433.9297 C1232.1719,434.4141 1232.1719,434.4141 1231.9844,434.5078 C1231.5625,434.7734 1230.875,434.8984 1230.1094,434.8984 C1228.0625,434.8984 1226.7656,433.8047 1226.7656,432.1016 L1226.7656,431.0078 C1226.7656,429.2266 1228.0156,427.9141 1229.75,427.9141 C1230.3281,427.9141 1230.9375,428.0703 1231.4063,428.3203 C1231.8906,428.6016 1232.0625,428.8203 1232.1563,429.2266 C1232.2188,429.6328 1232.25,429.7578 1232.3906,429.8828 C1232.5313,430.0234 1232.7656,430.1328 1232.9844,430.1328 C1233.25,430.1328 1233.5156,429.9922 1233.6875,429.7734 C1233.7969,429.6172 1233.8281,429.4297 1233.8281,429.0078 L1233.8281,427.5859 C1233.8281,427.1484 1233.8125,427.0234 1233.7188,426.8672 C1233.5625,426.6016 1233.2813,426.4609 1232.9844,426.4609 C1232.6875,426.4609 1232.4844,426.5547 1232.2656,426.8672 L1232.0938,426.7891 Z " fill="#000000"/><text fill="#000000" font-family="sans-serif" font-size="12" font-style="italic" lengthAdjust="spacing" textLength="104" x="1248.25" y="420.1387">&#171;aggregate root&#187;</text><text fill="#000000" font-family="sans-serif" font-size="12" font-style="italic" lengthAdjust="spacing" textLength="49" x="1275.75" y="434.1074">&#171;entity&#187;</text><text fill="#000000" font-family="sans-serif" font-size="14" lengthAdjust="spacing" textLength="59" x="1270.75" y="449.9326">Meeting</text><line style="stroke:#181818;stroke-width:0.5;" x1="1118.5" x2="1449.5" y1="458.2344" y2="458.2344"/><rect fill="none" height="6" style="stroke:#C82930;stroke-width:1.0;" width="6" x="1125.5" y="468.8828"/><text fill="#000000" font-family="sans-serif" font-size="14" lengthAdjust="spacing" textLength="223" x="1137.5" y="475.2295">meetingToken : MeetingToken</text><rect fill="none" height="6" style="stroke:#C82930;stroke-width:1.0;" width="6" x="1125.5" y="485.1797"/><text fill="#000000" font-family="sans-serif" font-size="14" lengthAdjust="spacing" textLength="194" x="1137.5" y="491.5264">duration : MeetingDuration</text><rect fill="none" height="6" style="stroke:#C82930;stroke-width:1.0;" width="6" x="1125.5" y="501.4766"/><text fill="#000000" font-family="sans-serif" font-size="14" lengthAdjust="spacing" textLength="109" x="1137.5" y="507.8232">date : Calendar</text><rect fill="none" height="6" style="stroke:#C82930;stroke-width:1.0;" width="6" x="1125.5" y="517.7734"/><text fill="#000000" font-family="sans-serif" font-size="14" lengthAdjust="spacing" textLength="307" x="1137.5" y="524.1201">participantList : List&lt;MeetingParticipant&gt;</text><rect fill="none" height="6" style="stroke:#C82930;stroke-width:1.0;" width="6" x="1125.5" y="534.0703"/><text fill="#000000" font-family="sans-serif" font-size="14" lengthAdjust="spacing" textLength="61" x="1137.5" y="540.417">id : Long</text><line style="stroke:#181818;stroke-width:0.5;" x1="1118.5" x2="1449.5" y1="547.7188" y2="547.7188"/><ellipse cx="1128.5" cy="561.3672" fill="#84BE84" rx="3" ry="3" style="stroke:#038048;stroke-width:1.0;"/><text fill="#000000" font-family="sans-serif" font-size="14" lengthAdjust="spacing" textLength="250" x="1137.5" y="564.7139">init(duration, date, participantList)</text></g><!--class MeetingParticipant--><g id="elem_MeetingParticipant"><rect codeLine="24" fill="#F1F1F1" height="121.4531" id="MeetingParticipant" rx="2.5" ry="2.5" style="stroke:#181818;stroke-width:0.5;" width="238" x="1025" y="644"/><ellipse cx="1070.25" cy="664.1328" fill="#ADD1B2" rx="11" ry="11" style="stroke:#181818;stroke-width:1.0;"/><path d="M1072.5938,659.8047 C1071.6563,659.3672 1071.0625,659.2266 1070.1875,659.2266 C1067.5625,659.2266 1065.5625,661.3047 1065.5625,664.0234 L1065.5625,665.1484 C1065.5625,667.7266 1067.6719,669.6172 1070.5625,669.6172 C1071.7813,669.6172 1072.9375,669.3203 1073.6875,668.7734 C1074.2656,668.3672 1074.5938,667.9141 1074.5938,667.5234 C1074.5938,667.0703 1074.2031,666.6797 1073.7344,666.6797 C1073.5156,666.6797 1073.3125,666.7578 1073.125,666.9453 C1072.6719,667.4297 1072.6719,667.4297 1072.4844,667.5234 C1072.0625,667.7891 1071.375,667.9141 1070.6094,667.9141 C1068.5625,667.9141 1067.2656,666.8203 1067.2656,665.1172 L1067.2656,664.0234 C1067.2656,662.2422 1068.5156,660.9297 1070.25,660.9297 C1070.8281,660.9297 1071.4375,661.0859 1071.9063,661.3359 C1072.3906,661.6172 1072.5625,661.8359 1072.6563,662.2422 C1072.7188,662.6484 1072.75,662.7734 1072.8906,662.8984 C1073.0313,663.0391 1073.2656,663.1484 1073.4844,663.1484 C1073.75,663.1484 1074.0156,663.0078 1074.1875,662.7891 C1074.2969,662.6328 1074.3281,662.4453 1074.3281,662.0234 L1074.3281,660.6016 C1074.3281,660.1641 1074.3125,660.0391 1074.2188,659.8828 C1074.0625,659.6172 1073.7813,659.4766 1073.4844,659.4766 C1073.1875,659.4766 1072.9844,659.5703 1072.7656,659.8828 L1072.5938,659.8047 Z " fill="#000000"/><text fill="#000000" font-family="sans-serif" font-size="12" font-style="italic" lengthAdjust="spacing" textLength="49" x="1135.75" y="660.1387">&#171;entity&#187;</text><text fill="#000000" font-family="sans-serif" font-size="14" lengthAdjust="spacing" textLength="139" x="1090.75" y="675.9639">MeetingParticipant</text><line style="stroke:#181818;stroke-width:0.5;" x1="1026" x2="1262" y1="684.2656" y2="684.2656"/><rect fill="none" height="6" style="stroke:#C82930;stroke-width:1.0;" width="6" x="1033" y="694.9141"/><text fill="#000000" font-family="sans-serif" font-size="14" lengthAdjust="spacing" textLength="187" x="1045" y="701.2607">inviteStatus : InviteStatus</text><rect fill="none" height="6" style="stroke:#C82930;stroke-width:1.0;" width="6" x="1033" y="711.2109"/><text fill="#000000" font-family="sans-serif" font-size="14" lengthAdjust="spacing" textLength="61" x="1045" y="717.5576">id : Long</text><rect fill="none" height="6" style="stroke:#C82930;stroke-width:1.0;" width="6" x="1033" y="727.5078"/><text fill="#000000" font-family="sans-serif" font-size="14" lengthAdjust="spacing" textLength="181" x="1045" y="733.8545">systemUser : SystemUser</text><line style="stroke:#181818;stroke-width:0.5;" x1="1026" x2="1262" y1="741.1563" y2="741.1563"/><ellipse cx="1036" cy="754.8047" fill="#84BE84" rx="3" ry="3" style="stroke:#038048;stroke-width:1.0;"/><text fill="#000000" font-family="sans-serif" font-size="14" lengthAdjust="spacing" textLength="212" x="1045" y="758.1514">init(systemUser, inviteStatus)</text></g><!--class InviteStatus--><g id="elem_InviteStatus"><rect codeLine="31" fill="#F1F1F1" height="56.2656" id="InviteStatus" rx="2.5" ry="2.5" style="stroke:#181818;stroke-width:0.5;" width="119" x="1084.5" y="825"/><ellipse cx="1099.5" cy="845.1328" fill="#EB937F" rx="11" ry="11" style="stroke:#181818;stroke-width:1.0;"/><path d="M1098.2969,846.0078 L1099.75,846.0078 L1099.75,846.1172 C1099.75,846.5234 1099.7813,846.6797 1099.8594,846.8359 C1100.0156,847.0859 1100.2969,847.2422 1100.5938,847.2422 C1100.8438,847.2422 1101.1094,847.1016 1101.2656,846.8828 C1101.3906,846.7266 1101.4219,846.5703 1101.4219,846.1172 L1101.4219,844.1953 C1101.4219,844.0391 1101.4219,843.9922 1101.4063,843.8359 C1101.3438,843.3672 1101.0313,843.0547 1100.5781,843.0547 C1100.3281,843.0547 1100.0625,843.1953 1099.8906,843.4141 C1099.7813,843.5859 1099.75,843.7422 1099.75,844.1953 L1099.75,844.3203 L1098.2969,844.3203 L1098.2969,841.9141 L1102.2813,841.9141 L1102.2813,842.7734 C1102.2813,843.1797 1102.3125,843.3516 1102.3906,843.5078 C1102.5625,843.7578 1102.8438,843.9141 1103.125,843.9141 C1103.3906,843.9141 1103.6563,843.7734 1103.8281,843.5547 C1103.9375,843.3828 1103.9688,843.2422 1103.9688,842.7734 L1103.9688,840.2266 L1096.3438,840.2266 C1095.9063,840.2266 1095.7813,840.2422 1095.625,840.3359 C1095.375,840.4922 1095.2188,840.7891 1095.2188,841.0703 C1095.2188,841.3516 1095.3594,841.6016 1095.5781,841.7734 C1095.7344,841.8828 1095.9219,841.9141 1096.3438,841.9141 L1096.5938,841.9141 L1096.5938,848.4297 L1096.3438,848.4297 C1095.9375,848.4297 1095.7813,848.4453 1095.625,848.5547 C1095.375,848.7266 1095.2188,848.9922 1095.2188,849.2891 C1095.2188,849.5547 1095.3594,849.8047 1095.5781,849.9609 C1095.7188,850.0859 1095.9531,850.1328 1096.3438,850.1328 L1104.3438,850.1328 L1104.3438,847.5547 C1104.3438,847.1172 1104.3125,846.9766 1104.2344,846.8203 C1104.0625,846.5703 1103.7813,846.4141 1103.5,846.4141 C1103.2344,846.4141 1102.9688,846.5234 1102.7969,846.7734 C1102.6875,846.9297 1102.6563,847.0703 1102.6563,847.5547 L1102.6563,848.4297 L1098.2969,848.4297 L1098.2969,846.0078 Z " fill="#000000"/><text fill="#000000" font-family="sans-serif" font-size="12" font-style="italic" lengthAdjust="spacing" textLength="85" x="1114.5" y="841.1387">&#171;valueObject&#187;</text><text fill="#000000" font-family="sans-serif" font-size="14" lengthAdjust="spacing" textLength="87" x="1113.5" y="856.9639">InviteStatus</text><line style="stroke:#181818;stroke-width:0.5;" x1="1085.5" x2="1202.5" y1="865.2656" y2="865.2656"/><line style="stroke:#181818;stroke-width:0.5;" x1="1085.5" x2="1202.5" y1="873.2656" y2="873.2656"/></g><!--class MeetingDuration--><g id="elem_MeetingDuration"><rect codeLine="35" fill="#F1F1F1" height="56.2656" id="MeetingDuration" rx="2.5" ry="2.5" style="stroke:#181818;stroke-width:0.5;" width="153" x="1298.5" y="676.5"/><ellipse cx="1313.5" cy="696.6328" fill="#ADD1B2" rx="11" ry="11" style="stroke:#181818;stroke-width:1.0;"/><path d="M1315.8438,692.3047 C1314.9063,691.8672 1314.3125,691.7266 1313.4375,691.7266 C1310.8125,691.7266 1308.8125,693.8047 1308.8125,696.5234 L1308.8125,697.6484 C1308.8125,700.2266 1310.9219,702.1172 1313.8125,702.1172 C1315.0313,702.1172 1316.1875,701.8203 1316.9375,701.2734 C1317.5156,700.8672 1317.8438,700.4141 1317.8438,700.0234 C1317.8438,699.5703 1317.4531,699.1797 1316.9844,699.1797 C1316.7656,699.1797 1316.5625,699.2578 1316.375,699.4453 C1315.9219,699.9297 1315.9219,699.9297 1315.7344,700.0234 C1315.3125,700.2891 1314.625,700.4141 1313.8594,700.4141 C1311.8125,700.4141 1310.5156,699.3203 1310.5156,697.6172 L1310.5156,696.5234 C1310.5156,694.7422 1311.7656,693.4297 1313.5,693.4297 C1314.0781,693.4297 1314.6875,693.5859 1315.1563,693.8359 C1315.6406,694.1172 1315.8125,694.3359 1315.9063,694.7422 C1315.9688,695.1484 1316,695.2734 1316.1406,695.3984 C1316.2813,695.5391 1316.5156,695.6484 1316.7344,695.6484 C1317,695.6484 1317.2656,695.5078 1317.4375,695.2891 C1317.5469,695.1328 1317.5781,694.9453 1317.5781,694.5234 L1317.5781,693.1016 C1317.5781,692.6641 1317.5625,692.5391 1317.4688,692.3828 C1317.3125,692.1172 1317.0313,691.9766 1316.7344,691.9766 C1316.4375,691.9766 1316.2344,692.0703 1316.0156,692.3828 L1315.8438,692.3047 Z " fill="#000000"/><text fill="#000000" font-family="sans-serif" font-size="12" font-style="italic" lengthAdjust="spacing" textLength="85" x="1345.5" y="692.6387">&#171;valueObject&#187;</text><text fill="#000000" font-family="sans-serif" font-size="14" lengthAdjust="spacing" textLength="121" x="1327.5" y="708.4639">MeetingDuration</text><line style="stroke:#181818;stroke-width:0.5;" x1="1299.5" x2="1450.5" y1="716.7656" y2="716.7656"/><line style="stroke:#181818;stroke-width:0.5;" x1="1299.5" x2="1450.5" y1="724.7656" y2="724.7656"/></g><!--class MeetingToken--><g id="elem_MeetingToken"><rect codeLine="38" fill="#F1F1F1" height="56.2656" id="MeetingToken" rx="2.5" ry="2.5" style="stroke:#181818;stroke-width:0.5;" width="136" x="1487" y="676.5"/><ellipse cx="1502" cy="696.6328" fill="#ADD1B2" rx="11" ry="11" style="stroke:#181818;stroke-width:1.0;"/><path d="M1504.3438,692.3047 C1503.4063,691.8672 1502.8125,691.7266 1501.9375,691.7266 C1499.3125,691.7266 1497.3125,693.8047 1497.3125,696.5234 L1497.3125,697.6484 C1497.3125,700.2266 1499.4219,702.1172 1502.3125,702.1172 C1503.5313,702.1172 1504.6875,701.8203 1505.4375,701.2734 C1506.0156,700.8672 1506.3438,700.4141 1506.3438,700.0234 C1506.3438,699.5703 1505.9531,699.1797 1505.4844,699.1797 C1505.2656,699.1797 1505.0625,699.2578 1504.875,699.4453 C1504.4219,699.9297 1504.4219,699.9297 1504.2344,700.0234 C1503.8125,700.2891 1503.125,700.4141 1502.3594,700.4141 C1500.3125,700.4141 1499.0156,699.3203 1499.0156,697.6172 L1499.0156,696.5234 C1499.0156,694.7422 1500.2656,693.4297 1502,693.4297 C1502.5781,693.4297 1503.1875,693.5859 1503.6563,693.8359 C1504.1406,694.1172 1504.3125,694.3359 1504.4063,694.7422 C1504.4688,695.1484 1504.5,695.2734 1504.6406,695.3984 C1504.7813,695.5391 1505.0156,695.6484 1505.2344,695.6484 C1505.5,695.6484 1505.7656,695.5078 1505.9375,695.2891 C1506.0469,695.1328 1506.0781,694.9453 1506.0781,694.5234 L1506.0781,693.1016 C1506.0781,692.6641 1506.0625,692.5391 1505.9688,692.3828 C1505.8125,692.1172 1505.5313,691.9766 1505.2344,691.9766 C1504.9375,691.9766 1504.7344,692.0703 1504.5156,692.3828 L1504.3438,692.3047 Z " fill="#000000"/><text fill="#000000" font-family="sans-serif" font-size="12" font-style="italic" lengthAdjust="spacing" textLength="85" x="1525.5" y="692.6387">&#171;valueObject&#187;</text><text fill="#000000" font-family="sans-serif" font-size="14" lengthAdjust="spacing" textLength="104" x="1516" y="708.4639">MeetingToken</text><line style="stroke:#181818;stroke-width:0.5;" x1="1488" x2="1622" y1="716.7656" y2="716.7656"/><line style="stroke:#181818;stroke-width:0.5;" x1="1488" x2="1622" y1="724.7656" y2="724.7656"/></g><!--class MeetingRepository--><g id="elem_MeetingRepository"><rect codeLine="44" fill="#F1F1F1" height="113.1875" id="MeetingRepository" rx="2.5" ry="2.5" style="stroke:#181818;stroke-width:0.5;" width="350" x="477" y="648"/><ellipse cx="581.25" cy="664" fill="#B4A7E5" rx="11" ry="11" style="stroke:#181818;stroke-width:1.0;"/><path d="M582.2031,660.7813 L583.9219,660.7813 C584.3125,660.7813 584.5,660.75 584.625,660.6719 C584.8906,660.5156 585.0313,660.2344 585.0313,659.9375 C585.0313,659.6719 584.9219,659.4063 584.6875,659.2344 C584.5156,659.125 584.375,659.0938 583.9219,659.0938 L578.7813,659.0938 C578.3438,659.0938 578.2188,659.1094 578.0625,659.2031 C577.8125,659.3594 577.6563,659.6563 577.6563,659.9375 C577.6563,660.2188 577.7969,660.4688 578.0156,660.6406 C578.1719,660.75 578.3594,660.7813 578.7813,660.7813 L580.5,660.7813 L580.5,667.2969 L578.7813,667.2969 C578.3438,667.2969 578.2188,667.3125 578.0625,667.4219 C577.8125,667.5781 577.6563,667.8594 577.6563,668.1563 C577.6563,668.4063 577.7969,668.6719 578.0156,668.8281 C578.1719,668.9531 578.375,669 578.7813,669 L583.9219,669 C584.6719,669 585.0313,668.7188 585.0313,668.1563 C585.0313,667.875 584.9219,667.625 584.6875,667.4531 C584.5156,667.3281 584.375,667.2969 583.9219,667.2969 L582.2031,667.2969 L582.2031,660.7813 Z " fill="#000000"/><text fill="#000000" font-family="sans-serif" font-size="14" font-style="italic" lengthAdjust="spacing" textLength="133" x="601.75" y="668.8467">MeetingRepository</text><line style="stroke:#181818;stroke-width:0.5;" x1="478" x2="826" y1="680" y2="680"/><line style="stroke:#181818;stroke-width:0.5;" x1="478" x2="826" y1="688" y2="688"/><ellipse cx="488" cy="701.6484" fill="#84BE84" rx="3" ry="3" style="stroke:#038048;stroke-width:1.0;"/><text fill="#000000" font-family="sans-serif" font-size="14" lengthAdjust="spacing" textLength="56" x="497" y="704.9951">findAll()</text><ellipse cx="488" cy="717.9453" fill="#84BE84" rx="3" ry="3" style="stroke:#038048;stroke-width:1.0;"/><text fill="#000000" font-family="sans-serif" font-size="14" lengthAdjust="spacing" textLength="262" x="497" y="721.292">findByDateAndUser(user, data, time)</text><ellipse cx="488" cy="734.2422" fill="#84BE84" rx="3" ry="3" style="stroke:#038048;stroke-width:1.0;"/><text fill="#000000" font-family="sans-serif" font-size="14" lengthAdjust="spacing" textLength="175" x="497" y="737.5889">allMeetings ( date, time)</text><ellipse cx="488" cy="750.5391" fill="#84BE84" rx="3" ry="3" style="stroke:#038048;stroke-width:1.0;"/><text fill="#000000" font-family="sans-serif" font-size="14" lengthAdjust="spacing" textLength="324" x="497" y="753.8857">saveMeetingParticipant(availableParticipant)</text></g><!--class ClassRepository--><g id="elem_ClassRepository"><rect codeLine="50" fill="#F1F1F1" height="96.8906" id="ClassRepository" rx="2.5" ry="2.5" style="stroke:#181818;stroke-width:0.5;" width="419" x="22.5" y="656"/><ellipse cx="171.25" cy="672" fill="#B4A7E5" rx="11" ry="11" style="stroke:#181818;stroke-width:1.0;"/><path d="M172.2031,668.7813 L173.9219,668.7813 C174.3125,668.7813 174.5,668.75 174.625,668.6719 C174.8906,668.5156 175.0313,668.2344 175.0313,667.9375 C175.0313,667.6719 174.9219,667.4063 174.6875,667.2344 C174.5156,667.125 174.375,667.0938 173.9219,667.0938 L168.7813,667.0938 C168.3438,667.0938 168.2188,667.1094 168.0625,667.2031 C167.8125,667.3594 167.6563,667.6563 167.6563,667.9375 C167.6563,668.2188 167.7969,668.4688 168.0156,668.6406 C168.1719,668.75 168.3594,668.7813 168.7813,668.7813 L170.5,668.7813 L170.5,675.2969 L168.7813,675.2969 C168.3438,675.2969 168.2188,675.3125 168.0625,675.4219 C167.8125,675.5781 167.6563,675.8594 167.6563,676.1563 C167.6563,676.4063 167.7969,676.6719 168.0156,676.8281 C168.1719,676.9531 168.375,677 168.7813,677 L173.9219,677 C174.6719,677 175.0313,676.7188 175.0313,676.1563 C175.0313,675.875 174.9219,675.625 174.6875,675.4531 C174.5156,675.3281 174.375,675.2969 173.9219,675.2969 L172.2031,675.2969 L172.2031,668.7813 Z " fill="#000000"/><text fill="#000000" font-family="sans-serif" font-size="14" font-style="italic" lengthAdjust="spacing" textLength="113" x="191.75" y="676.8467">ClassRepository</text><line style="stroke:#181818;stroke-width:0.5;" x1="23.5" x2="440.5" y1="688" y2="688"/><line style="stroke:#181818;stroke-width:0.5;" x1="23.5" x2="440.5" y1="696" y2="696"/><ellipse cx="33.5" cy="709.6484" fill="#84BE84" rx="3" ry="3" style="stroke:#038048;stroke-width:1.0;"/><text fill="#000000" font-family="sans-serif" font-size="14" lengthAdjust="spacing" textLength="393" x="42.5" y="712.9951">findBycourseAndSystemUserinClasses(user, data, time)</text><ellipse cx="33.5" cy="725.9453" fill="#84BE84" rx="3" ry="3" style="stroke:#038048;stroke-width:1.0;"/><text fill="#000000" font-family="sans-serif" font-size="14" lengthAdjust="spacing" textLength="390" x="42.5" y="729.292">findByDateAndSystemUserExtraClass(user, data, time)</text><ellipse cx="33.5" cy="742.2422" fill="#84BE84" rx="3" ry="3" style="stroke:#038048;stroke-width:1.0;"/><text fill="#000000" font-family="sans-serif" font-size="14" lengthAdjust="spacing" textLength="161" x="42.5" y="745.5889">allClasses( date , time)</text></g><!--class ScheduleMeetingController--><g id="elem_ScheduleMeetingController"><rect codeLine="57" fill="#F1F1F1" height="137.75" id="ScheduleMeetingController" rx="2.5" ry="2.5" style="stroke:#181818;stroke-width:0.5;" width="528" x="246" y="205"/><ellipse cx="407.25" cy="225.1328" fill="#ADD1B2" rx="11" ry="11" style="stroke:#181818;stroke-width:1.0;"/><path d="M409.5938,220.8047 C408.6563,220.3672 408.0625,220.2266 407.1875,220.2266 C404.5625,220.2266 402.5625,222.3047 402.5625,225.0234 L402.5625,226.1484 C402.5625,228.7266 404.6719,230.6172 407.5625,230.6172 C408.7813,230.6172 409.9375,230.3203 410.6875,229.7734 C411.2656,229.3672 411.5938,228.9141 411.5938,228.5234 C411.5938,228.0703 411.2031,227.6797 410.7344,227.6797 C410.5156,227.6797 410.3125,227.7578 410.125,227.9453 C409.6719,228.4297 409.6719,228.4297 409.4844,228.5234 C409.0625,228.7891 408.375,228.9141 407.6094,228.9141 C405.5625,228.9141 404.2656,227.8203 404.2656,226.1172 L404.2656,225.0234 C404.2656,223.2422 405.5156,221.9297 407.25,221.9297 C407.8281,221.9297 408.4375,222.0859 408.9063,222.3359 C409.3906,222.6172 409.5625,222.8359 409.6563,223.2422 C409.7188,223.6484 409.75,223.7734 409.8906,223.8984 C410.0313,224.0391 410.2656,224.1484 410.4844,224.1484 C410.75,224.1484 411.0156,224.0078 411.1875,223.7891 C411.2969,223.6328 411.3281,223.4453 411.3281,223.0234 L411.3281,221.6016 C411.3281,221.1641 411.3125,221.0391 411.2188,220.8828 C411.0625,220.6172 410.7813,220.4766 410.4844,220.4766 C410.1875,220.4766 409.9844,220.5703 409.7656,220.8828 L409.5938,220.8047 Z " fill="#000000"/><text fill="#000000" font-family="sans-serif" font-size="12" font-style="italic" lengthAdjust="spacing" textLength="71" x="490.75" y="221.1387">&#171;controller&#187;</text><text fill="#000000" font-family="sans-serif" font-size="14" lengthAdjust="spacing" textLength="197" x="427.75" y="236.9639">ScheduleMeetingController</text><line style="stroke:#181818;stroke-width:0.5;" x1="247" x2="773" y1="245.2656" y2="245.2656"/><rect fill="none" height="6" style="stroke:#C82930;stroke-width:1.0;" width="6" x="254" y="255.9141"/><text fill="#000000" font-family="sans-serif" font-size="14" lengthAdjust="spacing" textLength="204" x="266" y="262.2607">authz : AuthorizationService</text><rect fill="none" height="6" style="stroke:#C82930;stroke-width:1.0;" width="6" x="254" y="272.2109"/><text fill="#000000" font-family="sans-serif" font-size="14" lengthAdjust="spacing" textLength="305" x="266" y="278.5576">meetingSvc : MeetingManagementService</text><line style="stroke:#181818;stroke-width:0.5;" x1="247" x2="773" y1="285.8594" y2="285.8594"/><ellipse cx="257" cy="299.5078" fill="#84BE84" rx="3" ry="3" style="stroke:#038048;stroke-width:1.0;"/><text fill="#000000" font-family="sans-serif" font-size="14" lengthAdjust="spacing" textLength="502" x="266" y="302.8545">availableMeetingParticipant(selection, duration, date, participantList)</text><ellipse cx="257" cy="315.8047" fill="#84BE84" rx="3" ry="3" style="stroke:#038048;stroke-width:1.0;"/><text fill="#000000" font-family="sans-serif" font-size="14" lengthAdjust="spacing" textLength="414" x="266" y="319.1514">scheduleMeeting (duration, date, availableParticipantList)</text><ellipse cx="257" cy="332.1016" fill="#84BE84" rx="3" ry="3" style="stroke:#038048;stroke-width:1.0;"/><text fill="#000000" font-family="sans-serif" font-size="14" lengthAdjust="spacing" textLength="64" x="266" y="335.4482">allUsers()</text></g><!--class MeetingManagementService--><g id="elem_MeetingManagementService"><rect codeLine="66" fill="#F1F1F1" height="170.3438" id="MeetingManagementService" rx="2.5" ry="2.5" style="stroke:#181818;stroke-width:0.5;" width="528" x="246" y="403"/><ellipse cx="402.75" cy="423.1328" fill="#ADD1B2" rx="11" ry="11" style="stroke:#181818;stroke-width:1.0;"/><path d="M405.0938,418.8047 C404.1563,418.3672 403.5625,418.2266 402.6875,418.2266 C400.0625,418.2266 398.0625,420.3047 398.0625,423.0234 L398.0625,424.1484 C398.0625,426.7266 400.1719,428.6172 403.0625,428.6172 C404.2813,428.6172 405.4375,428.3203 406.1875,427.7734 C406.7656,427.3672 407.0938,426.9141 407.0938,426.5234 C407.0938,426.0703 406.7031,425.6797 406.2344,425.6797 C406.0156,425.6797 405.8125,425.7578 405.625,425.9453 C405.1719,426.4297 405.1719,426.4297 404.9844,426.5234 C404.5625,426.7891 403.875,426.9141 403.1094,426.9141 C401.0625,426.9141 399.7656,425.8203 399.7656,424.1172 L399.7656,423.0234 C399.7656,421.2422 401.0156,419.9297 402.75,419.9297 C403.3281,419.9297 403.9375,420.0859 404.4063,420.3359 C404.8906,420.6172 405.0625,420.8359 405.1563,421.2422 C405.2188,421.6484 405.25,421.7734 405.3906,421.8984 C405.5313,422.0391 405.7656,422.1484 405.9844,422.1484 C406.25,422.1484 406.5156,422.0078 406.6875,421.7891 C406.7969,421.6328 406.8281,421.4453 406.8281,421.0234 L406.8281,419.6016 C406.8281,419.1641 406.8125,419.0391 406.7188,418.8828 C406.5625,418.6172 406.2813,418.4766 405.9844,418.4766 C405.6875,418.4766 405.4844,418.5703 405.2656,418.8828 L405.0938,418.8047 Z " fill="#000000"/><text fill="#000000" font-family="sans-serif" font-size="12" font-style="italic" lengthAdjust="spacing" textLength="56" x="498.25" y="419.1387">&#171;service&#187;</text><text fill="#000000" font-family="sans-serif" font-size="14" lengthAdjust="spacing" textLength="206" x="423.25" y="434.9639">MeetingManagementService</text><line style="stroke:#181818;stroke-width:0.5;" x1="247" x2="773" y1="443.2656" y2="443.2656"/><rect fill="none" height="6" style="stroke:#C82930;stroke-width:1.0;" width="6" x="254" y="453.9141"/><text fill="#000000" font-family="sans-serif" font-size="14" lengthAdjust="spacing" textLength="291" x="266" y="460.2607">meetingRepository : MeetingRepository</text><rect fill="none" height="6" style="stroke:#C82930;stroke-width:1.0;" width="6" x="254" y="470.2109"/><text fill="#000000" font-family="sans-serif" font-size="14" lengthAdjust="spacing" textLength="232" x="266" y="476.5576">userRepository : UserRepository</text><rect fill="none" height="6" style="stroke:#C82930;stroke-width:1.0;" width="6" x="254" y="486.5078"/><text fill="#000000" font-family="sans-serif" font-size="14" lengthAdjust="spacing" textLength="241" x="266" y="492.8545">classRepository : ClassRepository</text><line style="stroke:#181818;stroke-width:0.5;" x1="247" x2="773" y1="500.1563" y2="500.1563"/><ellipse cx="257" cy="513.8047" fill="#84BE84" rx="3" ry="3" style="stroke:#038048;stroke-width:1.0;"/><text fill="#000000" font-family="sans-serif" font-size="14" lengthAdjust="spacing" textLength="502" x="266" y="517.1514">availableMeetingParticipant(selection, duration, date, participantList)</text><ellipse cx="257" cy="530.1016" fill="#84BE84" rx="3" ry="3" style="stroke:#038048;stroke-width:1.0;"/><text fill="#000000" font-family="sans-serif" font-size="14" lengthAdjust="spacing" textLength="414" x="266" y="533.4482">scheduleMeeting (duration, date, availableParticipantList)</text><ellipse cx="257" cy="546.3984" fill="#84BE84" rx="3" ry="3" style="stroke:#038048;stroke-width:1.0;"/><text fill="#000000" font-family="sans-serif" font-size="14" lengthAdjust="spacing" textLength="320" x="266" y="549.7451">setParticipantList(selection, participantList)</text><ellipse cx="257" cy="562.6953" fill="#84BE84" rx="3" ry="3" style="stroke:#038048;stroke-width:1.0;"/><text fill="#000000" font-family="sans-serif" font-size="14" lengthAdjust="spacing" textLength="64" x="266" y="566.042">allUsers()</text></g><!--class Set--><g id="elem_Set"><rect codeLine="79" fill="#F1F1F1" height="48" id="Set" rx="2.5" ry="2.5" style="stroke:#181818;stroke-width:0.5;" width="55" x="712.5" y="61.5"/><ellipse cx="727.5" cy="77.5" fill="#B4A7E5" rx="11" ry="11" style="stroke:#181818;stroke-width:1.0;"/><path d="M728.4531,74.2813 L730.1719,74.2813 C730.5625,74.2813 730.75,74.25 730.875,74.1719 C731.1406,74.0156 731.2813,73.7344 731.2813,73.4375 C731.2813,73.1719 731.1719,72.9063 730.9375,72.7344 C730.7656,72.625 730.625,72.5938 730.1719,72.5938 L725.0313,72.5938 C724.5938,72.5938 724.4688,72.6094 724.3125,72.7031 C724.0625,72.8594 723.9063,73.1563 723.9063,73.4375 C723.9063,73.7188 724.0469,73.9688 724.2656,74.1406 C724.4219,74.25 724.6094,74.2813 725.0313,74.2813 L726.75,74.2813 L726.75,80.7969 L725.0313,80.7969 C724.5938,80.7969 724.4688,80.8125 724.3125,80.9219 C724.0625,81.0781 723.9063,81.3594 723.9063,81.6563 C723.9063,81.9063 724.0469,82.1719 724.2656,82.3281 C724.4219,82.4531 724.625,82.5 725.0313,82.5 L730.1719,82.5 C730.9219,82.5 731.2813,82.2188 731.2813,81.6563 C731.2813,81.375 731.1719,81.125 730.9375,80.9531 C730.7656,80.8281 730.625,80.7969 730.1719,80.7969 L728.4531,80.7969 L728.4531,74.2813 Z " fill="#000000"/><text fill="#000000" font-family="sans-serif" font-size="14" font-style="italic" lengthAdjust="spacing" textLength="23" x="741.5" y="82.3467">Set</text><line style="stroke:#181818;stroke-width:0.5;" x1="713.5" x2="766.5" y1="93.5" y2="93.5"/><line style="stroke:#181818;stroke-width:0.5;" x1="713.5" x2="766.5" y1="101.5" y2="101.5"/></g><!--class AuthorizationService--><g id="elem_AuthorizationService"><rect fill="#F1F1F1" height="48" id="AuthorizationService" rx="2.5" ry="2.5" style="stroke:#181818;stroke-width:0.5;" width="183" x="809.5" y="464"/><ellipse cx="824.5" cy="480" fill="#ADD1B2" rx="11" ry="11" style="stroke:#181818;stroke-width:1.0;"/><path d="M826.8438,475.6719 C825.9063,475.2344 825.3125,475.0938 824.4375,475.0938 C821.8125,475.0938 819.8125,477.1719 819.8125,479.8906 L819.8125,481.0156 C819.8125,483.5938 821.9219,485.4844 824.8125,485.4844 C826.0313,485.4844 827.1875,485.1875 827.9375,484.6406 C828.5156,484.2344 828.8438,483.7813 828.8438,483.3906 C828.8438,482.9375 828.4531,482.5469 827.9844,482.5469 C827.7656,482.5469 827.5625,482.625 827.375,482.8125 C826.9219,483.2969 826.9219,483.2969 826.7344,483.3906 C826.3125,483.6563 825.625,483.7813 824.8594,483.7813 C822.8125,483.7813 821.5156,482.6875 821.5156,480.9844 L821.5156,479.8906 C821.5156,478.1094 822.7656,476.7969 824.5,476.7969 C825.0781,476.7969 825.6875,476.9531 826.1563,477.2031 C826.6406,477.4844 826.8125,477.7031 826.9063,478.1094 C826.9688,478.5156 827,478.6406 827.1406,478.7656 C827.2813,478.9063 827.5156,479.0156 827.7344,479.0156 C828,479.0156 828.2656,478.875 828.4375,478.6563 C828.5469,478.5 828.5781,478.3125 828.5781,477.8906 L828.5781,476.4688 C828.5781,476.0313 828.5625,475.9063 828.4688,475.75 C828.3125,475.4844 828.0313,475.3438 827.7344,475.3438 C827.4375,475.3438 827.2344,475.4375 827.0156,475.75 L826.8438,475.6719 Z " fill="#000000"/><text fill="#000000" font-family="sans-serif" font-size="14" lengthAdjust="spacing" textLength="151" x="838.5" y="484.8467">AuthorizationService</text><line style="stroke:#181818;stroke-width:0.5;" x1="810.5" x2="991.5" y1="496" y2="496"/><line style="stroke:#181818;stroke-width:0.5;" x1="810.5" x2="991.5" y1="504" y2="504"/></g><!--link ScheduleMeetingController to AuthorizationService--><g id="link_ScheduleMeetingController_AuthorizationService"><path codeLine="83" d="M758.859,343.098 C769.629,348.63 780.067,354.587 790,361 C829.986,386.817 864.117,430.952 883.597,459.54 " fill="none" id="ScheduleMeetingController-to-AuthorizationService" style="stroke:#181818;stroke-width:1.0;stroke-dasharray:7.0,7.0;"/><polygon fill="#181818" points="886.597,463.99,884.8837,454.2913,883.8024,459.8439,878.2499,458.7626,886.597,463.99" style="stroke:#181818;stroke-width:1.0;"/></g><!--link ScheduleMeetingUI to ScheduleMeetingController--><g id="link_ScheduleMeetingUI_ScheduleMeetingController"><path codeLine="84" d="M510,130.226 C510,150.845 510,176.015 510,199.447 " fill="none" id="ScheduleMeetingUI-to-ScheduleMeetingController" style="stroke:#181818;stroke-width:1.0;stroke-dasharray:7.0,7.0;"/><polygon fill="#181818" points="510,204.731,514,195.731,510,199.731,506,195.731,510,204.731" style="stroke:#181818;stroke-width:1.0;"/></g><!--link ScheduleMeetingController to MeetingManagementService--><g id="link_ScheduleMeetingController_MeetingManagementService"><path codeLine="85" d="M510,343.245 C510,360.616 510,379.543 510,397.788 " fill="none" id="ScheduleMeetingController-to-MeetingManagementService" style="stroke:#181818;stroke-width:1.0;stroke-dasharray:7.0,7.0;"/><polygon fill="#181818" points="510,402.915,514,393.915,510,397.915,506,393.915,510,402.915" style="stroke:#181818;stroke-width:1.0;"/></g><!--link MeetingManagementService to Meeting--><g id="link_MeetingManagementService_Meeting"><path codeLine="90" d="M664.202,402.896 C709.644,382.021 760.384,362.629 809.5,352 C849.247,343.398 952.798,343.194 992.5,352 C1039.58,362.442 1088.07,381.314 1131.65,401.741 " fill="none" id="MeetingManagementService-to-Meeting" style="stroke:#181818;stroke-width:1.0;"/><polygon fill="#181818" points="1136.4,403.98,1129.96,396.5284,1131.876,401.8509,1126.5535,403.7668,1136.4,403.98" style="stroke:#181818;stroke-width:1.0;"/></g><!--link Meeting to MeetingDuration--><g id="link_Meeting_MeetingDuration"><path codeLine="91" d="M1319.31,572.238 C1334.08,607.049 1350.36,645.417 1361.48,671.632 " fill="none" id="Meeting-to-MeetingDuration" style="stroke:#181818;stroke-width:1.0;"/><polygon fill="#181818" points="1363.5,676.382,1363.6649,666.5345,1361.5461,671.7796,1356.3011,669.6607,1363.5,676.382" style="stroke:#181818;stroke-width:1.0;"/></g><!--link Meeting to MeetingParticipant--><g id="link_Meeting_MeetingParticipant"><path codeLine="92" d="M1229.67,572.238 C1215.04,594.65 1199.45,618.536 1185.64,639.704 " fill="none" id="Meeting-to-MeetingParticipant" style="stroke:#181818;stroke-width:1.0;"/><polygon fill="#181818" points="1182.9,643.901,1191.1696,638.5518,1185.6335,639.7143,1184.4709,634.1782,1182.9,643.901" style="stroke:#181818;stroke-width:1.0;"/></g><!--link MeetingParticipant to InviteStatus--><g id="link_MeetingParticipant_InviteStatus"><path codeLine="93" d="M1144,765.087 C1144,783.734 1144,803.606 1144,819.6349 " fill="none" id="MeetingParticipant-to-InviteStatus" style="stroke:#181818;stroke-width:1.0;"/><polygon fill="#181818" points="1144,824.9162,1148,815.9162,1144,819.9162,1140,815.9162,1144,824.9162" style="stroke:#181818;stroke-width:1.0;"/></g><!--link Meeting to MeetingToken--><g id="link_Meeting_MeetingToken"><path codeLine="94" d="M1426.45,572.255 C1441.27,582.681 1455.74,593.679 1469,605 C1492.63,625.173 1515.58,651.932 1531.82,672.468 " fill="none" id="Meeting-to-MeetingToken" style="stroke:#181818;stroke-width:1.0;"/><polygon fill="#181818" points="1534.97,676.489,1532.5543,666.941,1531.8806,672.5576,1526.264,671.884,1534.97,676.489" style="stroke:#181818;stroke-width:1.0;"/></g><!--link MeetingManagementService to MeetingRepository--><g id="link_MeetingManagementService_MeetingRepository"><path codeLine="96" d="M565.715,573.16 C581.303,596.708 597.923,621.814 612.374,643.642 " fill="none" id="MeetingManagementService-to-MeetingRepository" style="stroke:#181818;stroke-width:1.0;stroke-dasharray:7.0,7.0;"/><polygon fill="#181818" points="615.234,647.962,613.6007,638.2495,612.4737,643.793,606.9302,642.666,615.234,647.962" style="stroke:#181818;stroke-width:1.0;"/></g><!--link MeetingManagementService to ClassRepository--><g id="link_MeetingManagementService_ClassRepository"><path codeLine="97" d="M400.925,573.16 C366.131,600.007 328.712,628.879 297.956,652.609 " fill="none" id="MeetingManagementService-to-ClassRepository" style="stroke:#181818;stroke-width:1.0;stroke-dasharray:7.0,7.0;"/><polygon fill="#181818" points="293.855,655.774,303.4241,653.4431,297.8137,652.7197,298.5371,647.1092,293.855,655.774" style="stroke:#181818;stroke-width:1.0;"/></g><!--SRC=[hLR9Rjim4BthAuZqK1knaqDxA0B3GEhq4A11YxhvW0arbjbGf41IRft0_rwIMaXjpYK238kZD_kRaJxkZIdqpVLrmK6OCkTNLERNb8FMovH1fY1FaWBeCsH8BWg56eK1mwIu81_k_FMQ47jv5RAbUqnBZW-8XediyPwiLYLRholCafWzRgGmIdAEYjpqyU6Pnr-IL6xtykzixe-dv9GaKJIfp86vEDAdz0lWQ-9H8PZQg0q1ianX1WQ9ajAirrPaqs3cs4JcWyih_6_vZCB6zX0TMyjBafRAvnyGTxKa1ZbVDsG374KAAdfIW3ACii9M-plJneBStweszJCyNKTAB7KuAR9MTacOO6RM1BFm7XTzw_DGabEuxPOdSZbM5kzU79Z1hUrxgMqWzz6n0nj4QONwg0tcZxfgTti8a3gJW5jq_Cq3Cau1HPbt0h6n7u2N-EFf3rBNueWEqyathNj3cunhLqmvf-eyL-fXXb1fsneK52Fgrd0c3AeTK6nS_C92QcQaEhQOIx9Z8htbV3RlYhuUxom9RaNggZWhVIajBM113Cin0WFdjNbDPZLpUX0D1nmIP0O7O1oUE4R2Lkiqp6BZoZMIGninbQNIBkP03IQy5khf5Fe91-Ll_um2htzMsrQWSLBDQXzogZTEspOe2ivei_aGTf_JJsSsNxJbLYlQ7kB1MX8epVx5ZiMj_PUAlNZhMrG7HZ62rNjfUw1Xvpo0i67bTbpxU9jSqwIH1chabgNLndXhTmIBkfiS6UoTCLxqZTYQkmxfTfidoM2Y1cdPwkdghhUJylvyXDe4MQpWwD11FtO4CPHsMUiMULSIRw_thlRxbDjPGTDx7CTppd_KATSb-miJlKNpwgNJXBzQhiSfFVmwSD3fRu3pBYOdmLsJV0gA3OOiWwnzbOyyYugPZBmx7RBpPXmnKNrBJ0SNfHMHxIoynyp_]--></g></svg>