<?xml version="1.0" encoding="us-ascii" standalone="no"?><svg xmlns="http://www.w3.org/2000/svg" xmlns:xlink="http://www.w3.org/1999/xlink" contentStyleType="text/css" height="1063px" preserveAspectRatio="none" style="width:2399px;height:1063px;background:#FFFFFF;" version="1.1" viewBox="0 0 2399 1063" width="2399px" zoomAndPan="magnify"><defs/><g><rect fill="#FFFFFF" height="836.1563" style="stroke:#181818;stroke-width:1.0;" width="10" x="271.5" y="114.7266"/><rect fill="#FFFFFF" height="705.625" style="stroke:#181818;stroke-width:1.0;" width="10" x="672.5" y="231.2578"/><rect fill="#FFFFFF" height="30" style="stroke:#181818;stroke-width:1.0;" width="10" x="1212.5" y="260.3906"/><rect fill="#FFFFFF" height="588.2266" style="stroke:#181818;stroke-width:1.0;" width="10" x="1415" y="319.5234"/><rect fill="#FFFFFF" height="30" style="stroke:#181818;stroke-width:1.0;" width="10" x="1964" y="348.6563"/><rect fill="#FFFFFF" height="58.2656" style="stroke:#181818;stroke-width:1.0;" width="10" x="2126" y="442.9219"/><rect fill="#FFFFFF" height="348.2969" style="stroke:#181818;stroke-width:1.0;" width="10" x="2281.5" y="530.3203"/><line style="stroke:#181818;stroke-width:0.5;stroke-dasharray:5.0,5.0;" x1="23" x2="23" y1="83.5938" y2="968.8828"/><line style="stroke:#181818;stroke-width:0.5;stroke-dasharray:5.0,5.0;" x1="276" x2="276" y1="83.5938" y2="968.8828"/><line style="stroke:#181818;stroke-width:0.5;stroke-dasharray:5.0,5.0;" x1="677" x2="677" y1="83.5938" y2="968.8828"/><line style="stroke:#181818;stroke-width:0.5;stroke-dasharray:5.0,5.0;" x1="1217" x2="1217" y1="83.5938" y2="968.8828"/><line style="stroke:#181818;stroke-width:0.5;stroke-dasharray:5.0,5.0;" x1="1420" x2="1420" y1="83.5938" y2="968.8828"/><line style="stroke:#181818;stroke-width:0.5;stroke-dasharray:5.0,5.0;" x1="1810.5" x2="1810.5" y1="83.5938" y2="968.8828"/><line style="stroke:#181818;stroke-width:0.5;stroke-dasharray:5.0,5.0;" x1="1968.5" x2="1968.5" y1="83.5938" y2="968.8828"/><line style="stroke:#181818;stroke-width:0.5;stroke-dasharray:5.0,5.0;" x1="2130.5" x2="2130.5" y1="83.5938" y2="968.8828"/><line style="stroke:#181818;stroke-width:0.5;stroke-dasharray:5.0,5.0;" x1="2286.5" x2="2286.5" y1="83.5938" y2="968.8828"/><text fill="#000000" font-family="FG Virgil" font-size="14" lengthAdjust="spacing" textLength="31" x="5" y="80.292">User</text><ellipse cx="23.5" cy="15.7969" fill="#E2E2F0" rx="8" ry="8" style="stroke:#181818;stroke-width:0.5;"/><path d="M23.5,23.7969 L23.5,50.7969 M10.5,31.7969 L36.5,31.7969 M23.5,50.7969 L10.5,65.7969 M23.5,50.7969 L36.5,65.7969 " fill="none" style="stroke:#181818;stroke-width:0.5;"/><text fill="#000000" font-family="FG Virgil" font-size="14" lengthAdjust="spacing" textLength="31" x="5" y="980.8779">User</text><ellipse cx="23.5" cy="992.6797" fill="#E2E2F0" rx="8" ry="8" style="stroke:#181818;stroke-width:0.5;"/><path d="M23.5,1000.6797 L23.5,1027.6797 M10.5,1008.6797 L36.5,1008.6797 M23.5,1027.6797 L10.5,1042.6797 M23.5,1027.6797 L36.5,1042.6797 " fill="none" style="stroke:#181818;stroke-width:0.5;"/><rect fill="#E2E2F0" height="46.5938" rx="2.5" ry="2.5" style="stroke:#181818;stroke-width:0.5;" width="151" x="201" y="36"/><text fill="#000000" font-family="FG Virgil" font-size="14" font-style="italic" lengthAdjust="spacing" textLength="108" x="222.5" y="55.9951">&#171;presentation&#187;</text><text fill="#000000" font-family="FG Virgil" font-size="14" lengthAdjust="spacing" textLength="137" x="208" y="72.292">ScheduleMeetingUI</text><rect fill="#E2E2F0" height="46.5938" rx="2.5" ry="2.5" style="stroke:#181818;stroke-width:0.5;" width="151" x="201" y="967.8828"/><text fill="#000000" font-family="FG Virgil" font-size="14" font-style="italic" lengthAdjust="spacing" textLength="108" x="222.5" y="987.8779">&#171;presentation&#187;</text><text fill="#000000" font-family="FG Virgil" font-size="14" lengthAdjust="spacing" textLength="137" x="208" y="1004.1748">ScheduleMeetingUI</text><rect fill="#E2E2F0" height="46.5938" rx="2.5" ry="2.5" style="stroke:#181818;stroke-width:0.5;" width="211" x="572" y="36"/><text fill="#000000" font-family="FG Virgil" font-size="14" font-style="italic" lengthAdjust="spacing" textLength="97" x="629" y="55.9951">&#171;application&#187;</text><text fill="#000000" font-family="FG Virgil" font-size="14" lengthAdjust="spacing" textLength="197" x="579" y="72.292">ScheduleMeetingController</text><rect fill="#E2E2F0" height="46.5938" rx="2.5" ry="2.5" style="stroke:#181818;stroke-width:0.5;" width="211" x="572" y="967.8828"/><text fill="#000000" font-family="FG Virgil" font-size="14" font-style="italic" lengthAdjust="spacing" textLength="97" x="629" y="987.8779">&#171;application&#187;</text><text fill="#000000" font-family="FG Virgil" font-size="14" lengthAdjust="spacing" textLength="197" x="579" y="1004.1748">ScheduleMeetingController</text><rect fill="#E2E2F0" height="46.5938" rx="2.5" ry="2.5" style="stroke:#181818;stroke-width:0.5;" width="165" x="1135" y="36"/><text fill="#000000" font-family="FG Virgil" font-size="14" font-style="italic" lengthAdjust="spacing" textLength="97" x="1169" y="55.9951">&#171;application&#187;</text><text fill="#000000" font-family="FG Virgil" font-size="14" lengthAdjust="spacing" textLength="151" x="1142" y="72.292">AuthorizationService</text><rect fill="#E2E2F0" height="46.5938" rx="2.5" ry="2.5" style="stroke:#181818;stroke-width:0.5;" width="165" x="1135" y="967.8828"/><text fill="#000000" font-family="FG Virgil" font-size="14" font-style="italic" lengthAdjust="spacing" textLength="97" x="1169" y="987.8779">&#171;application&#187;</text><text fill="#000000" font-family="FG Virgil" font-size="14" lengthAdjust="spacing" textLength="151" x="1142" y="1004.1748">AuthorizationService</text><rect fill="#E2E2F0" height="46.5938" rx="2.5" ry="2.5" style="stroke:#181818;stroke-width:0.5;" width="220" x="1310" y="36"/><text fill="#000000" font-family="FG Virgil" font-size="14" font-style="italic" lengthAdjust="spacing" textLength="97" x="1371.5" y="55.9951">&#171;application&#187;</text><text fill="#000000" font-family="FG Virgil" font-size="14" lengthAdjust="spacing" textLength="206" x="1317" y="72.292">MeetingManagementService</text><rect fill="#E2E2F0" height="46.5938" rx="2.5" ry="2.5" style="stroke:#181818;stroke-width:0.5;" width="220" x="1310" y="967.8828"/><text fill="#000000" font-family="FG Virgil" font-size="14" font-style="italic" lengthAdjust="spacing" textLength="97" x="1371.5" y="987.8779">&#171;application&#187;</text><text fill="#000000" font-family="FG Virgil" font-size="14" lengthAdjust="spacing" textLength="206" x="1317" y="1004.1748">MeetingManagementService</text><rect fill="#E2E2F0" height="46.5938" rx="2.5" ry="2.5" style="stroke:#181818;stroke-width:0.5;" width="139" x="1741.5" y="36"/><text fill="#000000" font-family="FG Virgil" font-size="14" font-style="italic" lengthAdjust="spacing" textLength="72" x="1775" y="55.9951">&#171;domain&#187;</text><text fill="#000000" font-family="FG Virgil" font-size="14" lengthAdjust="spacing" textLength="125" x="1748.5" y="72.292">meeting:Meeting</text><rect fill="#E2E2F0" height="46.5938" rx="2.5" ry="2.5" style="stroke:#181818;stroke-width:0.5;" width="139" x="1741.5" y="967.8828"/><text fill="#000000" font-family="FG Virgil" font-size="14" font-style="italic" lengthAdjust="spacing" textLength="72" x="1775" y="987.8779">&#171;domain&#187;</text><text fill="#000000" font-family="FG Virgil" font-size="14" lengthAdjust="spacing" textLength="125" x="1748.5" y="1004.1748">meeting:Meeting</text><rect fill="#E2E2F0" height="46.5938" rx="2.5" ry="2.5" style="stroke:#181818;stroke-width:0.5;" width="157" x="1890.5" y="36"/><text fill="#000000" font-family="FG Virgil" font-size="14" font-style="italic" lengthAdjust="spacing" textLength="100" x="1919" y="55.9951">&#171;persistence&#187;</text><text fill="#000000" font-family="FG Virgil" font-size="14" lengthAdjust="spacing" textLength="143" x="1897.5" y="72.292">PersistenceContext</text><rect fill="#E2E2F0" height="46.5938" rx="2.5" ry="2.5" style="stroke:#181818;stroke-width:0.5;" width="157" x="1890.5" y="967.8828"/><text fill="#000000" font-family="FG Virgil" font-size="14" font-style="italic" lengthAdjust="spacing" textLength="100" x="1919" y="987.8779">&#171;persistence&#187;</text><text fill="#000000" font-family="FG Virgil" font-size="14" lengthAdjust="spacing" textLength="143" x="1897.5" y="1004.1748">PersistenceContext</text><rect fill="#E2E2F0" height="46.5938" rx="2.5" ry="2.5" style="stroke:#181818;stroke-width:0.5;" width="147" x="2057.5" y="36"/><text fill="#000000" font-family="FG Virgil" font-size="14" font-style="italic" lengthAdjust="spacing" textLength="68" x="2097" y="55.9951">&#171;factory&#187;</text><text fill="#000000" font-family="FG Virgil" font-size="14" lengthAdjust="spacing" textLength="133" x="2064.5" y="72.292">RepositoryFactory</text><rect fill="#E2E2F0" height="46.5938" rx="2.5" ry="2.5" style="stroke:#181818;stroke-width:0.5;" width="147" x="2057.5" y="967.8828"/><text fill="#000000" font-family="FG Virgil" font-size="14" font-style="italic" lengthAdjust="spacing" textLength="68" x="2097" y="987.8779">&#171;factory&#187;</text><text fill="#000000" font-family="FG Virgil" font-size="14" lengthAdjust="spacing" textLength="133" x="2064.5" y="1004.1748">RepositoryFactory</text><text fill="#000000" font-family="FG Virgil" font-size="14" font-style="italic" lengthAdjust="spacing" textLength="90" x="2238.5" y="63.9951">&#171;repository&#187;</text><text fill="#000000" font-family="FG Virgil" font-size="14" lengthAdjust="spacing" textLength="138" x="2214.5" y="80.292">MeetingRepository</text><path d="M2268.5,15 C2268.5,5 2286.5,5 2286.5,5 C2286.5,5 2304.5,5 2304.5,15 L2304.5,41 C2304.5,51 2286.5,51 2286.5,51 C2286.5,51 2268.5,51 2268.5,41 L2268.5,15 " fill="#E2E2F0" style="stroke:#181818;stroke-width:1.5;"/><path d="M2268.5,15 C2268.5,25 2286.5,25 2286.5,25 C2286.5,25 2304.5,25 2304.5,15 " fill="none" style="stroke:#181818;stroke-width:1.5;"/><text fill="#000000" font-family="FG Virgil" font-size="14" font-style="italic" lengthAdjust="spacing" textLength="90" x="2238.5" y="980.8779">&#171;repository&#187;</text><text fill="#000000" font-family="FG Virgil" font-size="14" lengthAdjust="spacing" textLength="138" x="2214.5" y="997.1748">MeetingRepository</text><path d="M2268.5,1010.4766 C2268.5,1000.4766 2286.5,1000.4766 2286.5,1000.4766 C2286.5,1000.4766 2304.5,1000.4766 2304.5,1010.4766 L2304.5,1036.4766 C2304.5,1046.4766 2286.5,1046.4766 2286.5,1046.4766 C2286.5,1046.4766 2268.5,1046.4766 2268.5,1036.4766 L2268.5,1010.4766 " fill="#E2E2F0" style="stroke:#181818;stroke-width:1.5;"/><path d="M2268.5,1010.4766 C2268.5,1020.4766 2286.5,1020.4766 2286.5,1020.4766 C2286.5,1020.4766 2304.5,1020.4766 2304.5,1010.4766 " fill="none" style="stroke:#181818;stroke-width:1.5;"/><rect fill="#FFFFFF" height="836.1563" style="stroke:#181818;stroke-width:1.0;" width="10" x="271.5" y="114.7266"/><rect fill="#FFFFFF" height="705.625" style="stroke:#181818;stroke-width:1.0;" width="10" x="672.5" y="231.2578"/><rect fill="#FFFFFF" height="30" style="stroke:#181818;stroke-width:1.0;" width="10" x="1212.5" y="260.3906"/><rect fill="#FFFFFF" height="588.2266" style="stroke:#181818;stroke-width:1.0;" width="10" x="1415" y="319.5234"/><rect fill="#FFFFFF" height="30" style="stroke:#181818;stroke-width:1.0;" width="10" x="1964" y="348.6563"/><rect fill="#FFFFFF" height="58.2656" style="stroke:#181818;stroke-width:1.0;" width="10" x="2126" y="442.9219"/><rect fill="#FFFFFF" height="348.2969" style="stroke:#181818;stroke-width:1.0;" width="10" x="2281.5" y="530.3203"/><polygon fill="#181818" points="259.5,110.7266,269.5,114.7266,259.5,118.7266,263.5,114.7266" style="stroke:#181818;stroke-width:1.0;"/><line style="stroke:#181818;stroke-width:1.0;stroke-dasharray:2.0,2.0;" x1="23.5" x2="265.5" y1="114.7266" y2="114.7266"/><text fill="#000000" font-family="FG Virgil" font-size="13" lengthAdjust="spacing" textLength="127" x="30.5" y="109.6606">Schedule a meeting</text><polygon fill="#181818" points="665.5,139.8594,675.5,143.8594,665.5,147.8594,669.5,143.8594" style="stroke:#181818;stroke-width:1.0;"/><line style="stroke:#181818;stroke-width:1.0;" x1="281.5" x2="671.5" y1="143.8594" y2="143.8594"/><text fill="#000000" font-family="FG Virgil" font-size="13" lengthAdjust="spacing" textLength="41" x="288.5" y="138.7935">create</text><polygon fill="#181818" points="34.5,168.9922,24.5,172.9922,34.5,176.9922,30.5,172.9922" style="stroke:#181818;stroke-width:1.0;"/><line style="stroke:#181818;stroke-width:1.0;stroke-dasharray:2.0,2.0;" x1="28.5" x2="270.5" y1="172.9922" y2="172.9922"/><text fill="#000000" font-family="FG Virgil" font-size="13" lengthAdjust="spacing" textLength="224" x="40.5" y="167.9263">Ask information about the meeting</text><polygon fill="#181818" points="259.5,198.125,269.5,202.125,259.5,206.125,263.5,202.125" style="stroke:#181818;stroke-width:1.0;"/><line style="stroke:#181818;stroke-width:1.0;stroke-dasharray:2.0,2.0;" x1="23.5" x2="265.5" y1="202.125" y2="202.125"/><text fill="#000000" font-family="FG Virgil" font-size="13" lengthAdjust="spacing" textLength="224" x="30.5" y="197.0591">Duration, Date,  List of Participants</text><polygon fill="#181818" points="660.5,227.2578,670.5,231.2578,660.5,235.2578,664.5,231.2578" style="stroke:#181818;stroke-width:1.0;"/><line style="stroke:#181818;stroke-width:1.0;" x1="281.5" x2="666.5" y1="231.2578" y2="231.2578"/><text fill="#000000" font-family="FG Virgil" font-size="13" lengthAdjust="spacing" textLength="372" x="288.5" y="226.1919">checkParticipantAvailability(date, duration, participantList)</text><polygon fill="#181818" points="1200.5,256.3906,1210.5,260.3906,1200.5,264.3906,1204.5,260.3906" style="stroke:#181818;stroke-width:1.0;"/><line style="stroke:#181818;stroke-width:1.0;" x1="682.5" x2="1206.5" y1="260.3906" y2="260.3906"/><text fill="#000000" font-family="FG Virgil" font-size="13" lengthAdjust="spacing" textLength="511" x="689.5" y="255.3247">ensureAuthenticatedUserHasAnyOf(ADMIN, POWER_USER, STUDENT, TEACHER)</text><polygon fill="#181818" points="1403,315.5234,1413,319.5234,1403,323.5234,1407,319.5234" style="stroke:#181818;stroke-width:1.0;"/><line style="stroke:#181818;stroke-width:1.0;" x1="682.5" x2="1409" y1="319.5234" y2="319.5234"/><text fill="#000000" font-family="FG Virgil" font-size="13" lengthAdjust="spacing" textLength="348" x="689.5" y="314.4575">checkParticipantAvailability(date, time, participantList)</text><polygon fill="#181818" points="1952,344.6563,1962,348.6563,1952,352.6563,1956,348.6563" style="stroke:#181818;stroke-width:1.0;"/><line style="stroke:#181818;stroke-width:1.0;" x1="1425" x2="1958" y1="348.6563" y2="348.6563"/><text fill="#000000" font-family="FG Virgil" font-size="13" lengthAdjust="spacing" textLength="85" x="1432" y="343.5903">repositories()</text><path d="M1974,391.6563 L1974,416.6563 L2263,416.6563 L2263,401.6563 L2253,391.6563 L1974,391.6563 " fill="#FEFFDD" style="stroke:#181818;stroke-width:0.5;"/><path d="M2253,391.6563 L2253,401.6563 L2263,401.6563 L2253,391.6563 " fill="#FEFFDD" style="stroke:#181818;stroke-width:0.5;"/><text fill="#000000" font-family="FG Virgil" font-size="13" lengthAdjust="spacing" textLength="268" x="1980" y="408.7231">pode criar reposit&#243;rio em mem&#243;ria ou JPA</text><polygon fill="#181818" points="2114,438.9219,2124,442.9219,2114,446.9219,2118,442.9219" style="stroke:#181818;stroke-width:1.0;"/><line style="stroke:#181818;stroke-width:1.0;" x1="1425" x2="2120" y1="442.9219" y2="442.9219"/><text fill="#000000" font-family="FG Virgil" font-size="13" lengthAdjust="spacing" textLength="74" x="1432" y="437.856">schedules()</text><polygon fill="#181818" points="2274.5,468.0547,2284.5,472.0547,2274.5,476.0547,2278.5,472.0547" style="stroke:#181818;stroke-width:1.0;"/><line style="stroke:#181818;stroke-width:1.0;" x1="2136" x2="2280.5" y1="472.0547" y2="472.0547"/><text fill="#000000" font-family="FG Virgil" font-size="13" lengthAdjust="spacing" textLength="41" x="2143" y="466.9888">create</text><polygon fill="#181818" points="1436,497.1875,1426,501.1875,1436,505.1875,1432,501.1875" style="stroke:#181818;stroke-width:1.0;"/><line style="stroke:#181818;stroke-width:1.0;" x1="1430" x2="2130" y1="501.1875" y2="501.1875"/><text fill="#000000" font-family="FG Virgil" font-size="13" lengthAdjust="spacing" textLength="122" x="1442" y="496.1216">meetingRepository</text><polygon fill="#181818" points="2269.5,526.3203,2279.5,530.3203,2269.5,534.3203,2273.5,530.3203" style="stroke:#181818;stroke-width:1.0;"/><line style="stroke:#181818;stroke-width:1.0;" x1="1425" x2="2275.5" y1="530.3203" y2="530.3203"/><text fill="#000000" font-family="FG Virgil" font-size="13" lengthAdjust="spacing" textLength="348" x="1432" y="525.2544">checkParticipantAvailability(date, time, participantList)</text><rect fill="none" height="39.1016" style="stroke:#000000;stroke-width:1.5;" width="182" x="2211.5" y="538.3203"/><path d="M2211.5,538.3203 L2279.5,538.3203 L2279.5,545.3203 L2269.5,555.3203 L2211.5,555.3203 L2211.5,538.3203 " fill="#EEEEEE" style="stroke:#000000;stroke-width:2.0;"/><text fill="#000000" font-family="FG Virgil" font-size="13" font-weight="bold" lengthAdjust="spacing" textLength="23" x="2224.5" y="552.3872">ref</text><text fill="#000000" font-family="FG Virgil" font-size="12" lengthAdjust="spacing" textLength="174" x="2215.5" y="570.459">checkAvailableParticipant_SD</text><polygon fill="#181818" points="1436,584.4219,1426,588.4219,1436,592.4219,1432,588.4219" style="stroke:#181818;stroke-width:1.0;"/><line style="stroke:#181818;stroke-width:1.0;stroke-dasharray:2.0,2.0;" x1="1430" x2="2280.5" y1="588.4219" y2="588.4219"/><polygon fill="#181818" points="693.5,613.5547,683.5,617.5547,693.5,621.5547,689.5,617.5547" style="stroke:#181818;stroke-width:1.0;"/><line style="stroke:#181818;stroke-width:1.0;stroke-dasharray:2.0,2.0;" x1="687.5" x2="1414" y1="617.5547" y2="617.5547"/><text fill="#000000" font-family="FG Virgil" font-size="13" lengthAdjust="spacing" textLength="147" x="699.5" y="612.4888">availableParticipantList</text><polygon fill="#181818" points="292.5,642.6875,282.5,646.6875,292.5,650.6875,288.5,646.6875" style="stroke:#181818;stroke-width:1.0;"/><line style="stroke:#181818;stroke-width:1.0;" x1="286.5" x2="671.5" y1="646.6875" y2="646.6875"/><text fill="#000000" font-family="FG Virgil" font-size="13" lengthAdjust="spacing" textLength="147" x="298.5" y="641.6216">availableParticipantList</text><polygon fill="#181818" points="34.5,671.8203,24.5,675.8203,34.5,679.8203,30.5,675.8203" style="stroke:#181818;stroke-width:1.0;"/><line style="stroke:#181818;stroke-width:1.0;stroke-dasharray:2.0,2.0;" x1="28.5" x2="270.5" y1="675.8203" y2="675.8203"/><text fill="#000000" font-family="FG Virgil" font-size="13" lengthAdjust="spacing" textLength="193" x="40.5" y="670.7544">displayAvailableParticipantList</text><polygon fill="#181818" points="660.5,700.9531,670.5,704.9531,660.5,708.9531,664.5,704.9531" style="stroke:#181818;stroke-width:1.0;"/><line style="stroke:#181818;stroke-width:1.0;" x1="281.5" x2="666.5" y1="704.9531" y2="704.9531"/><text fill="#000000" font-family="FG Virgil" font-size="13" lengthAdjust="spacing" textLength="362" x="288.5" y="699.8872">scheduleMeeting(date, duration, availableParticipantList)</text><polygon fill="#181818" points="1403,730.0859,1413,734.0859,1403,738.0859,1407,734.0859" style="stroke:#181818;stroke-width:1.0;"/><line style="stroke:#181818;stroke-width:1.0;" x1="682.5" x2="1409" y1="734.0859" y2="734.0859"/><text fill="#000000" font-family="FG Virgil" font-size="13" lengthAdjust="spacing" textLength="366" x="689.5" y="729.02">scheduleMeeting( duration, date, availableParticipantList)</text><polygon fill="#181818" points="1799,759.2188,1809,763.2188,1799,767.2188,1803,763.2188" style="stroke:#181818;stroke-width:1.0;"/><line style="stroke:#181818;stroke-width:1.0;" x1="1425" x2="1805" y1="763.2188" y2="763.2188"/><text fill="#000000" font-family="FG Virgil" font-size="13" lengthAdjust="spacing" textLength="362" x="1432" y="758.1528">scheduleMeeting(duration, date, availableParticipantList)</text><polygon fill="#181818" points="1436,788.3516,1426,792.3516,1436,796.3516,1432,792.3516" style="stroke:#181818;stroke-width:1.0;"/><line style="stroke:#181818;stroke-width:1.0;" x1="1430" x2="1810" y1="792.3516" y2="792.3516"/><text fill="#000000" font-family="FG Virgil" font-size="13" lengthAdjust="spacing" textLength="53" x="1442" y="787.2856">meeting</text><polygon fill="#181818" points="2269.5,817.4844,2279.5,821.4844,2269.5,825.4844,2273.5,821.4844" style="stroke:#181818;stroke-width:1.0;"/><line style="stroke:#181818;stroke-width:1.0;" x1="1425" x2="2275.5" y1="821.4844" y2="821.4844"/><text fill="#000000" font-family="FG Virgil" font-size="13" lengthAdjust="spacing" textLength="280" x="1432" y="816.4185">saveMeetingParticipant(meetingParticipant)</text><polygon fill="#181818" points="1436,831.4844,1426,835.4844,1436,839.4844,1432,835.4844" style="stroke:#181818;stroke-width:1.0;"/><line style="stroke:#181818;stroke-width:1.0;stroke-dasharray:2.0,2.0;" x1="1430" x2="2280.5" y1="835.4844" y2="835.4844"/><polygon fill="#181818" points="2269.5,860.6172,2279.5,864.6172,2269.5,868.6172,2273.5,864.6172" style="stroke:#181818;stroke-width:1.0;"/><line style="stroke:#181818;stroke-width:1.0;" x1="1425" x2="2275.5" y1="864.6172" y2="864.6172"/><text fill="#000000" font-family="FG Virgil" font-size="13" lengthAdjust="spacing" textLength="94" x="1432" y="859.5513">save(meeting)</text><polygon fill="#181818" points="1436,874.6172,1426,878.6172,1436,882.6172,1432,878.6172" style="stroke:#181818;stroke-width:1.0;"/><line style="stroke:#181818;stroke-width:1.0;stroke-dasharray:2.0,2.0;" x1="1430" x2="2285.5" y1="878.6172" y2="878.6172"/><polygon fill="#181818" points="693.5,903.75,683.5,907.75,693.5,911.75,689.5,907.75" style="stroke:#181818;stroke-width:1.0;"/><line style="stroke:#181818;stroke-width:1.0;stroke-dasharray:2.0,2.0;" x1="687.5" x2="1419" y1="907.75" y2="907.75"/><text fill="#000000" font-family="FG Virgil" font-size="13" lengthAdjust="spacing" textLength="53" x="699.5" y="902.6841">meeting</text><polygon fill="#181818" points="292.5,932.8828,282.5,936.8828,292.5,940.8828,288.5,936.8828" style="stroke:#181818;stroke-width:1.0;"/><line style="stroke:#181818;stroke-width:1.0;" x1="286.5" x2="676.5" y1="936.8828" y2="936.8828"/><text fill="#000000" font-family="FG Virgil" font-size="13" lengthAdjust="spacing" textLength="53" x="298.5" y="931.8169">meeting</text><polygon fill="#181818" points="34.5,946.8828,24.5,950.8828,34.5,954.8828,30.5,950.8828" style="stroke:#181818;stroke-width:1.0;"/><line style="stroke:#181818;stroke-width:1.0;stroke-dasharray:2.0,2.0;" x1="28.5" x2="275.5" y1="950.8828" y2="950.8828"/><!--SRC=[fLPTRk8m47xFAKPzeXAzG1GXHOLkMIqjWhBxM4sJ0IoIEB8DNNgjFS9UREtyEd-5QlE0adY-dndFECW3Ir8K6CCUa_1TCAKeWIr6aXoGrMAAmG5tj5RdY41GeEp5aBPuZDG3JzGJnWGFt-0d4piMsK5oZo5_Pyck87S00yK5R2G9G0c-UNAqa50iO2ac2jR1di9ZH0iYfO6RkOdJlvwN2fAKA5IC9vF9fwXxxKhmACfLh2VFmpIDMD1BuX_LdWlsaIskIPnOG608K2zyV8ujX1UOw8h5scQ9r_0uNrkVWWv7a-IcY7GBjXk3dl8OMQAHONRJ5bwIa4pg_Gl8v4c_bG5PRqtbwgSsV4KfbqplmlaXsvgpGPUtdhVDxmmgH8LlAAbCjKOQIFUbvudgmMJgvBiDTtSJlPzkjMM0PO6oxc0dLAG3732NtdWTNc-W2u4W7L2lwkMCrmLV7e0bMoxYhBg0R_oeGEsfvZTNqmLCZo8B7yDKyuu1VkXA0T_2igwIT8RSW4uYE5YX_WbPX6yiOkey2ZF6i5Am2czKRdFMAkcQkD0pbzMyMZlhH1SeaKT1fbzrfvbkej2Cr2DAFpa_RqV-T35_6iFo-TTizRfPprPZMBzifhEdbp6ypFpxnzdgjfQe36JizVkGXbQQfkh-Tg-fXs8n3TMYOQVcTHoh8jOuWP6tUzs5gkaOoP75Qb-LWWNjZqouZX9ijyzReWvt8UKXwMvaA4hDlty4uq2nTXYRUmH-XEzBlv_Qgkv56rRAEk5YF5sGnGXTJhI0z4ULuwwfEsDS3Tn5gDq5SPlcOWbAWzVatsVo_zlElWHjWPzqTtUFjNBc2uM8BDNNzVJ2FYokAqnNzgvHuO4oDGlLEAgqR-nnR6hGJrP3xoRce1n4zu4tSwrU7CiXasc4P_zBwdrdhMn-upkdwv33sqi9jhktBMHfv9hNAZNRDl-Gz-HnDNixXUAlGV_mDQATVbkzmoJnL7gp78pYpgkMeOjD2uEEhh5K6cWN-Mkorf7JdKNdwbagQpn8FgJV7gl6Pbbu-x-0qpDNZXsycVy3]--></g></svg>