<?xml version="1.0" encoding="us-ascii" standalone="no"?><svg xmlns="http://www.w3.org/2000/svg" xmlns:xlink="http://www.w3.org/1999/xlink" contentStyleType="text/css" height="516px" preserveAspectRatio="none" style="width:1019px;height:516px;background:#FFFFFF;" version="1.1" viewBox="0 0 1019 516" width="1019px" zoomAndPan="magnify"><defs/><g><rect fill="#FFFFFF" height="298.0625" style="stroke:#181818;stroke-width:1.0;" width="10" x="289.5" y="114.7266"/><rect fill="#FFFFFF" height="58.2656" style="stroke:#181818;stroke-width:1.0;" width="10" x="483" y="172.9922"/><rect fill="#FFFFFF" height="57.1328" style="stroke:#181818;stroke-width:1.0;" width="10" x="660" y="231.2578"/><rect fill="#FFFFFF" height="14" style="stroke:#181818;stroke-width:1.0;" width="10" x="796" y="260.3906"/><rect fill="#FFFFFF" height="29.1328" style="stroke:#181818;stroke-width:1.0;" width="10" x="796" y="317.5234"/><rect fill="#FFFFFF" height="43.1328" style="stroke:#181818;stroke-width:1.0;" width="10" x="946.5" y="346.6563"/><line style="stroke:#181818;stroke-width:0.5;stroke-dasharray:5.0,5.0;" x1="60" x2="60" y1="83.5938" y2="421.7891"/><line style="stroke:#181818;stroke-width:0.5;stroke-dasharray:5.0,5.0;" x1="294.5" x2="294.5" y1="83.5938" y2="421.7891"/><line style="stroke:#181818;stroke-width:0.5;stroke-dasharray:5.0,5.0;" x1="487.5" x2="487.5" y1="83.5938" y2="421.7891"/><line style="stroke:#181818;stroke-width:0.5;stroke-dasharray:5.0,5.0;" x1="664.5" x2="664.5" y1="83.5938" y2="421.7891"/><line style="stroke:#181818;stroke-width:0.5;stroke-dasharray:5.0,5.0;" x1="800.5" x2="800.5" y1="83.5938" y2="421.7891"/><line style="stroke:#181818;stroke-width:0.5;stroke-dasharray:5.0,5.0;" x1="951.5" x2="951.5" y1="83.5938" y2="421.7891"/><rect fill="#E2E2F0" height="46.5938" rx="2.5" ry="2.5" style="stroke:#181818;stroke-width:0.5;" width="111" x="5" y="36"/><text fill="#000000" font-family="FG Virgil" font-size="14" font-style="italic" lengthAdjust="spacing" textLength="97" x="12" y="55.9951">&#171;application&#187;</text><text fill="#000000" font-family="FG Virgil" font-size="14" lengthAdjust="spacing" textLength="73" x="24" y="72.292">Controller</text><rect fill="#E2E2F0" height="46.5938" rx="2.5" ry="2.5" style="stroke:#181818;stroke-width:0.5;" width="111" x="5" y="420.7891"/><text fill="#000000" font-family="FG Virgil" font-size="14" font-style="italic" lengthAdjust="spacing" textLength="97" x="12" y="440.7842">&#171;application&#187;</text><text fill="#000000" font-family="FG Virgil" font-size="14" lengthAdjust="spacing" textLength="73" x="24" y="457.0811">Controller</text><rect fill="#E2E2F0" height="46.5938" rx="2.5" ry="2.5" style="stroke:#181818;stroke-width:0.5;" width="210" x="189.5" y="36"/><text fill="#000000" font-family="FG Virgil" font-size="14" font-style="italic" lengthAdjust="spacing" textLength="97" x="246" y="55.9951">&#171;application&#187;</text><text fill="#000000" font-family="FG Virgil" font-size="14" lengthAdjust="spacing" textLength="196" x="196.5" y="72.292">CourseManagementService</text><rect fill="#E2E2F0" height="46.5938" rx="2.5" ry="2.5" style="stroke:#181818;stroke-width:0.5;" width="210" x="189.5" y="420.7891"/><text fill="#000000" font-family="FG Virgil" font-size="14" font-style="italic" lengthAdjust="spacing" textLength="97" x="246" y="440.7842">&#171;application&#187;</text><text fill="#000000" font-family="FG Virgil" font-size="14" lengthAdjust="spacing" textLength="196" x="196.5" y="457.0811">CourseManagementService</text><rect fill="#E2E2F0" height="46.5938" rx="2.5" ry="2.5" style="stroke:#181818;stroke-width:0.5;" width="157" x="409.5" y="36"/><text fill="#000000" font-family="FG Virgil" font-size="14" font-style="italic" lengthAdjust="spacing" textLength="100" x="438" y="55.9951">&#171;persistence&#187;</text><text fill="#000000" font-family="FG Virgil" font-size="14" lengthAdjust="spacing" textLength="143" x="416.5" y="72.292">PersistenceContext</text><rect fill="#E2E2F0" height="46.5938" rx="2.5" ry="2.5" style="stroke:#181818;stroke-width:0.5;" width="157" x="409.5" y="420.7891"/><text fill="#000000" font-family="FG Virgil" font-size="14" font-style="italic" lengthAdjust="spacing" textLength="100" x="438" y="440.7842">&#171;persistence&#187;</text><text fill="#000000" font-family="FG Virgil" font-size="14" lengthAdjust="spacing" textLength="143" x="416.5" y="457.0811">PersistenceContext</text><rect fill="#E2E2F0" height="30.2969" rx="2.5" ry="2.5" style="stroke:#181818;stroke-width:0.5;" width="105" x="612.5" y="52.2969"/><text fill="#000000" font-family="FG Virgil" font-size="14" lengthAdjust="spacing" textLength="91" x="619.5" y="72.292">AppSettings</text><rect fill="#E2E2F0" height="30.2969" rx="2.5" ry="2.5" style="stroke:#181818;stroke-width:0.5;" width="105" x="612.5" y="420.7891"/><text fill="#000000" font-family="FG Virgil" font-size="14" lengthAdjust="spacing" textLength="91" x="619.5" y="440.7842">AppSettings</text><rect fill="#E2E2F0" height="46.5938" rx="2.5" ry="2.5" style="stroke:#181818;stroke-width:0.5;" width="147" x="727.5" y="36"/><text fill="#000000" font-family="FG Virgil" font-size="14" font-style="italic" lengthAdjust="spacing" textLength="68" x="767" y="55.9951">&#171;factory&#187;</text><text fill="#000000" font-family="FG Virgil" font-size="14" lengthAdjust="spacing" textLength="133" x="734.5" y="72.292">RepositoryFactory</text><rect fill="#E2E2F0" height="46.5938" rx="2.5" ry="2.5" style="stroke:#181818;stroke-width:0.5;" width="147" x="727.5" y="420.7891"/><text fill="#000000" font-family="FG Virgil" font-size="14" font-style="italic" lengthAdjust="spacing" textLength="68" x="767" y="440.7842">&#171;factory&#187;</text><text fill="#000000" font-family="FG Virgil" font-size="14" lengthAdjust="spacing" textLength="133" x="734.5" y="457.0811">RepositoryFactory</text><text fill="#000000" font-family="FG Virgil" font-size="14" font-style="italic" lengthAdjust="spacing" textLength="90" x="903.5" y="63.9951">&#171;repository&#187;</text><text fill="#000000" font-family="FG Virgil" font-size="14" lengthAdjust="spacing" textLength="128" x="884.5" y="80.292">CourseRepository</text><path d="M933.5,15 C933.5,5 951.5,5 951.5,5 C951.5,5 969.5,5 969.5,15 L969.5,41 C969.5,51 951.5,51 951.5,51 C951.5,51 933.5,51 933.5,41 L933.5,15 " fill="#E2E2F0" style="stroke:#181818;stroke-width:1.5;"/><path d="M933.5,15 C933.5,25 951.5,25 951.5,25 C951.5,25 969.5,25 969.5,15 " fill="none" style="stroke:#181818;stroke-width:1.5;"/><text fill="#000000" font-family="FG Virgil" font-size="14" font-style="italic" lengthAdjust="spacing" textLength="90" x="903.5" y="433.7842">&#171;repository&#187;</text><text fill="#000000" font-family="FG Virgil" font-size="14" lengthAdjust="spacing" textLength="128" x="884.5" y="450.0811">CourseRepository</text><path d="M933.5,463.3828 C933.5,453.3828 951.5,453.3828 951.5,453.3828 C951.5,453.3828 969.5,453.3828 969.5,463.3828 L969.5,489.3828 C969.5,499.3828 951.5,499.3828 951.5,499.3828 C951.5,499.3828 933.5,499.3828 933.5,489.3828 L933.5,463.3828 " fill="#E2E2F0" style="stroke:#181818;stroke-width:1.5;"/><path d="M933.5,463.3828 C933.5,473.3828 951.5,473.3828 951.5,473.3828 C951.5,473.3828 969.5,473.3828 969.5,463.3828 " fill="none" style="stroke:#181818;stroke-width:1.5;"/><rect fill="#FFFFFF" height="298.0625" style="stroke:#181818;stroke-width:1.0;" width="10" x="289.5" y="114.7266"/><rect fill="#FFFFFF" height="58.2656" style="stroke:#181818;stroke-width:1.0;" width="10" x="483" y="172.9922"/><rect fill="#FFFFFF" height="57.1328" style="stroke:#181818;stroke-width:1.0;" width="10" x="660" y="231.2578"/><rect fill="#FFFFFF" height="14" style="stroke:#181818;stroke-width:1.0;" width="10" x="796" y="260.3906"/><rect fill="#FFFFFF" height="29.1328" style="stroke:#181818;stroke-width:1.0;" width="10" x="796" y="317.5234"/><rect fill="#FFFFFF" height="43.1328" style="stroke:#181818;stroke-width:1.0;" width="10" x="946.5" y="346.6563"/><polygon fill="#181818" points="277.5,110.7266,287.5,114.7266,277.5,118.7266,281.5,114.7266" style="stroke:#181818;stroke-width:1.0;"/><line style="stroke:#181818;stroke-width:1.0;" x1="60.5" x2="283.5" y1="114.7266" y2="114.7266"/><text fill="#000000" font-family="FG Virgil" font-size="13" lengthAdjust="spacing" textLength="41" x="67.5" y="109.6606">create</text><polygon fill="#181818" points="277.5,139.8594,287.5,143.8594,277.5,147.8594,281.5,143.8594" style="stroke:#181818;stroke-width:1.0;"/><line style="stroke:#181818;stroke-width:1.0;" x1="60.5" x2="283.5" y1="143.8594" y2="143.8594"/><text fill="#000000" font-family="FG Virgil" font-size="13" lengthAdjust="spacing" textLength="205" x="67.5" y="138.7935">allCoursesByManager(manager)</text><polygon fill="#181818" points="471,168.9922,481,172.9922,471,176.9922,475,172.9922" style="stroke:#181818;stroke-width:1.0;"/><line style="stroke:#181818;stroke-width:1.0;" x1="299.5" x2="477" y1="172.9922" y2="172.9922"/><text fill="#000000" font-family="FG Virgil" font-size="13" lengthAdjust="spacing" textLength="85" x="306.5" y="167.9263">repositories()</text><polygon fill="#181818" points="653,198.125,663,202.125,653,206.125,657,202.125" style="stroke:#181818;stroke-width:1.0;"/><line style="stroke:#181818;stroke-width:1.0;" x1="493" x2="659" y1="202.125" y2="202.125"/><text fill="#000000" font-family="FG Virgil" font-size="13" lengthAdjust="spacing" textLength="64" x="500" y="197.0591">instance()</text><polygon fill="#181818" points="648,227.2578,658,231.2578,648,235.2578,652,231.2578" style="stroke:#181818;stroke-width:1.0;"/><line style="stroke:#181818;stroke-width:1.0;" x1="488" x2="654" y1="231.2578" y2="231.2578"/><text fill="#000000" font-family="FG Virgil" font-size="13" lengthAdjust="spacing" textLength="148" x="495" y="226.1919">getRepositoryFactory()</text><polygon fill="#181818" points="784,256.3906,794,260.3906,784,264.3906,788,260.3906" style="stroke:#181818;stroke-width:1.0;"/><line style="stroke:#181818;stroke-width:1.0;stroke-dasharray:2.0,2.0;" x1="670" x2="790" y1="260.3906" y2="260.3906"/><text fill="#000000" font-family="FG Virgil" font-size="13" lengthAdjust="spacing" textLength="41" x="677" y="255.3247">create</text><polygon fill="#181818" points="681,270.3906,671,274.3906,681,278.3906,677,274.3906" style="stroke:#181818;stroke-width:1.0;"/><line style="stroke:#181818;stroke-width:1.0;stroke-dasharray:2.0,2.0;" x1="675" x2="800" y1="274.3906" y2="274.3906"/><polygon fill="#181818" points="310.5,284.3906,300.5,288.3906,310.5,292.3906,306.5,288.3906" style="stroke:#181818;stroke-width:1.0;"/><line style="stroke:#181818;stroke-width:1.0;stroke-dasharray:2.0,2.0;" x1="304.5" x2="664" y1="288.3906" y2="288.3906"/><polygon fill="#181818" points="784,313.5234,794,317.5234,784,321.5234,788,317.5234" style="stroke:#181818;stroke-width:1.0;"/><line style="stroke:#181818;stroke-width:1.0;" x1="299.5" x2="790" y1="317.5234" y2="317.5234"/><text fill="#000000" font-family="FG Virgil" font-size="13" lengthAdjust="spacing" textLength="60" x="306.5" y="312.4575">courses()</text><polygon fill="#181818" points="934.5,342.6563,944.5,346.6563,934.5,350.6563,938.5,346.6563" style="stroke:#181818;stroke-width:1.0;"/><line style="stroke:#181818;stroke-width:1.0;stroke-dasharray:2.0,2.0;" x1="801" x2="940.5" y1="346.6563" y2="346.6563"/><text fill="#000000" font-family="FG Virgil" font-size="13" lengthAdjust="spacing" textLength="60" x="808" y="341.5903">courses()</text><polygon fill="#181818" points="934.5,371.7891,944.5,375.7891,934.5,379.7891,938.5,375.7891" style="stroke:#181818;stroke-width:1.0;"/><line style="stroke:#181818;stroke-width:1.0;" x1="299.5" x2="940.5" y1="375.7891" y2="375.7891"/><text fill="#000000" font-family="FG Virgil" font-size="13" lengthAdjust="spacing" textLength="144" x="306.5" y="370.7231">courses = allCourses()</text><polygon fill="#181818" points="310.5,385.7891,300.5,389.7891,310.5,393.7891,306.5,389.7891" style="stroke:#181818;stroke-width:1.0;"/><line style="stroke:#181818;stroke-width:1.0;stroke-dasharray:2.0,2.0;" x1="304.5" x2="950.5" y1="389.7891" y2="389.7891"/><polygon fill="#181818" points="71.5,399.7891,61.5,403.7891,71.5,407.7891,67.5,403.7891" style="stroke:#181818;stroke-width:1.0;"/><line style="stroke:#181818;stroke-width:1.0;stroke-dasharray:2.0,2.0;" x1="65.5" x2="288.5" y1="403.7891" y2="403.7891"/><!--SRC=[ZLFDJiCm3BxtAN833cFtgKm2f7428IPnDwctHKlJAF46UtiSsZNkQ0MzD8xz_TX9hdP4VZ6VUmkE3hMzrKqzZtlZF0IeRtTKsw8FrGvSzHaC4Jgr0HjHv3peFMnnJIUBAg0caQjm0mTBgyRH2zIeLa_gtOIjaTnn1rNpQTosOouAtYUZZMTdwf6XeR4MWu8eex84xwtHGAPno-K5w10YFeDZNpKwMcCu6es9GV-araVzYs30y8eXciZjQaoQ-4K9B7OPxdDqeN_l_Hg9kAUOO15fa7v3tqH3JJYjGATVAZelotBJhfYp0e8FYDWrb7498AAo37sGEYbKzubvpPQYzuNI0O7Ii5dC77cPiqKn3GDhMo_nuTJEDrpNxV-cLnK8bGZas1QgjsemNcTGxqDKvqRI9scObQUwKCP50juGH5EbMwHVWx-0LJZgGfRq1UbGPO9ZDMEjZhcVy2YuAneapnTWrXgUCZO6FMld8rGJw4JSJpKVqy1tUxvZH_ENxJpVCPf_D9AbCjMWO61vH4xTYIlAsiNm2eatCpqluV5l5yoINuiG4oGv_mq0]--></g></svg>