<?xml version="1.0" encoding="us-ascii" standalone="no"?><svg xmlns="http://www.w3.org/2000/svg" xmlns:xlink="http://www.w3.org/1999/xlink" contentStyleType="text/css" height="516px" preserveAspectRatio="none" style="width:1068px;height:516px;background:#FFFFFF;" version="1.1" viewBox="0 0 1068 516" width="1068px" zoomAndPan="magnify"><defs/><g><rect fill="#FFFFFF" height="298.0625" style="stroke:#181818;stroke-width:1.0;" width="10" x="331.5" y="114.7266"/><rect fill="#FFFFFF" height="58.2656" style="stroke:#181818;stroke-width:1.0;" width="10" x="525" y="172.9922"/><rect fill="#FFFFFF" height="57.1328" style="stroke:#181818;stroke-width:1.0;" width="10" x="702" y="231.2578"/><rect fill="#FFFFFF" height="14" style="stroke:#181818;stroke-width:1.0;" width="10" x="838" y="260.3906"/><rect fill="#FFFFFF" height="95.2656" style="stroke:#181818;stroke-width:1.0;" width="10" x="838" y="317.5234"/><rect fill="#FFFFFF" height="14" style="stroke:#181818;stroke-width:1.0;" width="10" x="992" y="375.7891"/><line style="stroke:#181818;stroke-width:0.5;stroke-dasharray:5.0,5.0;" x1="60" x2="60" y1="83.5938" y2="421.7891"/><line style="stroke:#181818;stroke-width:0.5;stroke-dasharray:5.0,5.0;" x1="336.5" x2="336.5" y1="83.5938" y2="421.7891"/><line style="stroke:#181818;stroke-width:0.5;stroke-dasharray:5.0,5.0;" x1="529.5" x2="529.5" y1="83.5938" y2="421.7891"/><line style="stroke:#181818;stroke-width:0.5;stroke-dasharray:5.0,5.0;" x1="706.5" x2="706.5" y1="83.5938" y2="421.7891"/><line style="stroke:#181818;stroke-width:0.5;stroke-dasharray:5.0,5.0;" x1="842.5" x2="842.5" y1="83.5938" y2="421.7891"/><line style="stroke:#181818;stroke-width:0.5;stroke-dasharray:5.0,5.0;" x1="996.5" x2="996.5" y1="83.5938" y2="421.7891"/><rect fill="#E2E2F0" height="46.5938" rx="2.5" ry="2.5" style="stroke:#181818;stroke-width:0.5;" width="111" x="5" y="36"/><text fill="#000000" font-family="FG Virgil" font-size="14" font-style="italic" lengthAdjust="spacing" textLength="97" x="12" y="55.9951">&#171;application&#187;</text><text fill="#000000" font-family="FG Virgil" font-size="14" lengthAdjust="spacing" textLength="73" x="24" y="72.292">Controller</text><rect fill="#E2E2F0" height="46.5938" rx="2.5" ry="2.5" style="stroke:#181818;stroke-width:0.5;" width="111" x="5" y="420.7891"/><text fill="#000000" font-family="FG Virgil" font-size="14" font-style="italic" lengthAdjust="spacing" textLength="97" x="12" y="440.7842">&#171;application&#187;</text><text fill="#000000" font-family="FG Virgil" font-size="14" lengthAdjust="spacing" textLength="73" x="24" y="457.0811">Controller</text><rect fill="#E2E2F0" height="46.5938" rx="2.5" ry="2.5" style="stroke:#181818;stroke-width:0.5;" width="210" x="231.5" y="36"/><text fill="#000000" font-family="FG Virgil" font-size="14" font-style="italic" lengthAdjust="spacing" textLength="97" x="288" y="55.9951">&#171;application&#187;</text><text fill="#000000" font-family="FG Virgil" font-size="14" lengthAdjust="spacing" textLength="196" x="238.5" y="72.292">CourseManagementService</text><rect fill="#E2E2F0" height="46.5938" rx="2.5" ry="2.5" style="stroke:#181818;stroke-width:0.5;" width="210" x="231.5" y="420.7891"/><text fill="#000000" font-family="FG Virgil" font-size="14" font-style="italic" lengthAdjust="spacing" textLength="97" x="288" y="440.7842">&#171;application&#187;</text><text fill="#000000" font-family="FG Virgil" font-size="14" lengthAdjust="spacing" textLength="196" x="238.5" y="457.0811">CourseManagementService</text><rect fill="#E2E2F0" height="46.5938" rx="2.5" ry="2.5" style="stroke:#181818;stroke-width:0.5;" width="157" x="451.5" y="36"/><text fill="#000000" font-family="FG Virgil" font-size="14" font-style="italic" lengthAdjust="spacing" textLength="100" x="480" y="55.9951">&#171;persistence&#187;</text><text fill="#000000" font-family="FG Virgil" font-size="14" lengthAdjust="spacing" textLength="143" x="458.5" y="72.292">PersistenceContext</text><rect fill="#E2E2F0" height="46.5938" rx="2.5" ry="2.5" style="stroke:#181818;stroke-width:0.5;" width="157" x="451.5" y="420.7891"/><text fill="#000000" font-family="FG Virgil" font-size="14" font-style="italic" lengthAdjust="spacing" textLength="100" x="480" y="440.7842">&#171;persistence&#187;</text><text fill="#000000" font-family="FG Virgil" font-size="14" lengthAdjust="spacing" textLength="143" x="458.5" y="457.0811">PersistenceContext</text><rect fill="#E2E2F0" height="30.2969" rx="2.5" ry="2.5" style="stroke:#181818;stroke-width:0.5;" width="105" x="654.5" y="52.2969"/><text fill="#000000" font-family="FG Virgil" font-size="14" lengthAdjust="spacing" textLength="91" x="661.5" y="72.292">AppSettings</text><rect fill="#E2E2F0" height="30.2969" rx="2.5" ry="2.5" style="stroke:#181818;stroke-width:0.5;" width="105" x="654.5" y="420.7891"/><text fill="#000000" font-family="FG Virgil" font-size="14" lengthAdjust="spacing" textLength="91" x="661.5" y="440.7842">AppSettings</text><rect fill="#E2E2F0" height="46.5938" rx="2.5" ry="2.5" style="stroke:#181818;stroke-width:0.5;" width="147" x="769.5" y="36"/><text fill="#000000" font-family="FG Virgil" font-size="14" font-style="italic" lengthAdjust="spacing" textLength="68" x="809" y="55.9951">&#171;factory&#187;</text><text fill="#000000" font-family="FG Virgil" font-size="14" lengthAdjust="spacing" textLength="133" x="776.5" y="72.292">RepositoryFactory</text><rect fill="#E2E2F0" height="46.5938" rx="2.5" ry="2.5" style="stroke:#181818;stroke-width:0.5;" width="147" x="769.5" y="420.7891"/><text fill="#000000" font-family="FG Virgil" font-size="14" font-style="italic" lengthAdjust="spacing" textLength="68" x="809" y="440.7842">&#171;factory&#187;</text><text fill="#000000" font-family="FG Virgil" font-size="14" lengthAdjust="spacing" textLength="133" x="776.5" y="457.0811">RepositoryFactory</text><text fill="#000000" font-family="FG Virgil" font-size="14" font-style="italic" lengthAdjust="spacing" textLength="90" x="949" y="63.9951">&#171;repository&#187;</text><text fill="#000000" font-family="FG Virgil" font-size="14" lengthAdjust="spacing" textLength="135" x="926.5" y="80.292">CoursesRepository</text><path d="M979,15 C979,5 997,5 997,5 C997,5 1015,5 1015,15 L1015,41 C1015,51 997,51 997,51 C997,51 979,51 979,41 L979,15 " fill="#E2E2F0" style="stroke:#181818;stroke-width:1.5;"/><path d="M979,15 C979,25 997,25 997,25 C997,25 1015,25 1015,15 " fill="none" style="stroke:#181818;stroke-width:1.5;"/><text fill="#000000" font-family="FG Virgil" font-size="14" font-style="italic" lengthAdjust="spacing" textLength="90" x="949" y="433.7842">&#171;repository&#187;</text><text fill="#000000" font-family="FG Virgil" font-size="14" lengthAdjust="spacing" textLength="135" x="926.5" y="450.0811">CoursesRepository</text><path d="M979,463.3828 C979,453.3828 997,453.3828 997,453.3828 C997,453.3828 1015,453.3828 1015,463.3828 L1015,489.3828 C1015,499.3828 997,499.3828 997,499.3828 C997,499.3828 979,499.3828 979,489.3828 L979,463.3828 " fill="#E2E2F0" style="stroke:#181818;stroke-width:1.5;"/><path d="M979,463.3828 C979,473.3828 997,473.3828 997,473.3828 C997,473.3828 1015,473.3828 1015,463.3828 " fill="none" style="stroke:#181818;stroke-width:1.5;"/><rect fill="#FFFFFF" height="298.0625" style="stroke:#181818;stroke-width:1.0;" width="10" x="331.5" y="114.7266"/><rect fill="#FFFFFF" height="58.2656" style="stroke:#181818;stroke-width:1.0;" width="10" x="525" y="172.9922"/><rect fill="#FFFFFF" height="57.1328" style="stroke:#181818;stroke-width:1.0;" width="10" x="702" y="231.2578"/><rect fill="#FFFFFF" height="14" style="stroke:#181818;stroke-width:1.0;" width="10" x="838" y="260.3906"/><rect fill="#FFFFFF" height="95.2656" style="stroke:#181818;stroke-width:1.0;" width="10" x="838" y="317.5234"/><rect fill="#FFFFFF" height="14" style="stroke:#181818;stroke-width:1.0;" width="10" x="992" y="375.7891"/><polygon fill="#181818" points="319.5,110.7266,329.5,114.7266,319.5,118.7266,323.5,114.7266" style="stroke:#181818;stroke-width:1.0;"/><line style="stroke:#181818;stroke-width:1.0;" x1="60.5" x2="325.5" y1="114.7266" y2="114.7266"/><text fill="#000000" font-family="FG Virgil" font-size="13" lengthAdjust="spacing" textLength="41" x="67.5" y="109.6606">create</text><polygon fill="#181818" points="319.5,139.8594,329.5,143.8594,319.5,147.8594,323.5,143.8594" style="stroke:#181818;stroke-width:1.0;"/><line style="stroke:#181818;stroke-width:1.0;" x1="60.5" x2="325.5" y1="143.8594" y2="143.8594"/><text fill="#000000" font-family="FG Virgil" font-size="13" lengthAdjust="spacing" textLength="247" x="67.5" y="138.7935">allCoursesBySystemUser(systemUser)</text><polygon fill="#181818" points="513,168.9922,523,172.9922,513,176.9922,517,172.9922" style="stroke:#181818;stroke-width:1.0;"/><line style="stroke:#181818;stroke-width:1.0;" x1="341.5" x2="519" y1="172.9922" y2="172.9922"/><text fill="#000000" font-family="FG Virgil" font-size="13" lengthAdjust="spacing" textLength="85" x="348.5" y="167.9263">repositories()</text><polygon fill="#181818" points="695,198.125,705,202.125,695,206.125,699,202.125" style="stroke:#181818;stroke-width:1.0;"/><line style="stroke:#181818;stroke-width:1.0;" x1="535" x2="701" y1="202.125" y2="202.125"/><text fill="#000000" font-family="FG Virgil" font-size="13" lengthAdjust="spacing" textLength="64" x="542" y="197.0591">instance()</text><polygon fill="#181818" points="690,227.2578,700,231.2578,690,235.2578,694,231.2578" style="stroke:#181818;stroke-width:1.0;"/><line style="stroke:#181818;stroke-width:1.0;" x1="530" x2="696" y1="231.2578" y2="231.2578"/><text fill="#000000" font-family="FG Virgil" font-size="13" lengthAdjust="spacing" textLength="148" x="537" y="226.1919">getRepositoryFactory()</text><polygon fill="#181818" points="826,256.3906,836,260.3906,826,264.3906,830,260.3906" style="stroke:#181818;stroke-width:1.0;"/><line style="stroke:#181818;stroke-width:1.0;stroke-dasharray:2.0,2.0;" x1="712" x2="832" y1="260.3906" y2="260.3906"/><text fill="#000000" font-family="FG Virgil" font-size="13" lengthAdjust="spacing" textLength="41" x="719" y="255.3247">create</text><polygon fill="#181818" points="723,270.3906,713,274.3906,723,278.3906,719,274.3906" style="stroke:#181818;stroke-width:1.0;"/><line style="stroke:#181818;stroke-width:1.0;stroke-dasharray:2.0,2.0;" x1="717" x2="842" y1="274.3906" y2="274.3906"/><polygon fill="#181818" points="352.5,284.3906,342.5,288.3906,352.5,292.3906,348.5,288.3906" style="stroke:#181818;stroke-width:1.0;"/><line style="stroke:#181818;stroke-width:1.0;stroke-dasharray:2.0,2.0;" x1="346.5" x2="706" y1="288.3906" y2="288.3906"/><polygon fill="#181818" points="826,313.5234,836,317.5234,826,321.5234,830,317.5234" style="stroke:#181818;stroke-width:1.0;"/><line style="stroke:#181818;stroke-width:1.0;" x1="341.5" x2="832" y1="317.5234" y2="317.5234"/><text fill="#000000" font-family="FG Virgil" font-size="13" lengthAdjust="spacing" textLength="60" x="348.5" y="312.4575">courses()</text><polygon fill="#181818" points="985,342.6563,995,346.6563,985,350.6563,989,346.6563" style="stroke:#181818;stroke-width:1.0;"/><line style="stroke:#181818;stroke-width:1.0;stroke-dasharray:2.0,2.0;" x1="848" x2="991" y1="346.6563" y2="346.6563"/><text fill="#000000" font-family="FG Virgil" font-size="13" lengthAdjust="spacing" textLength="60" x="855" y="341.5903">courses()</text><polygon fill="#181818" points="980,371.7891,990,375.7891,980,379.7891,984,375.7891" style="stroke:#181818;stroke-width:1.0;"/><line style="stroke:#181818;stroke-width:1.0;" x1="341.5" x2="986" y1="375.7891" y2="375.7891"/><text fill="#000000" font-family="FG Virgil" font-size="13" lengthAdjust="spacing" textLength="380" x="348.5" y="370.7231">coursesByteacher = allCoursesBySystemUser(systemUser)</text><polygon fill="#181818" points="352.5,385.7891,342.5,389.7891,352.5,393.7891,348.5,389.7891" style="stroke:#181818;stroke-width:1.0;"/><line style="stroke:#181818;stroke-width:1.0;stroke-dasharray:2.0,2.0;" x1="346.5" x2="996" y1="389.7891" y2="389.7891"/><polygon fill="#181818" points="71.5,399.7891,61.5,403.7891,71.5,407.7891,67.5,403.7891" style="stroke:#181818;stroke-width:1.0;"/><line style="stroke:#181818;stroke-width:1.0;stroke-dasharray:2.0,2.0;" x1="65.5" x2="330.5" y1="403.7891" y2="403.7891"/><!--SRC=[bLF1ZjCm4BtdAtnZENHxhq8b5gcSG8W8xeCpRQnr7CkUTidVCwQfFMaJ8NA9npFlpPjd-rr7v7VRhRVWwDpRPptqs_Xgd8S0_ND7lQrog3fmxLimHEZK4Mn4aVEWN-643OqMLK1D8jVY4SwM3eEZhz2ZEdnMFqqu6SaTEsY7D-DE4tDLyJuPRJmhKvyO6WPhCIY8CgfhyDuQ3MG6jz_VWSuXuXTmhAj7Hms6Yz6O6FJVL7FH3mGpXcyOeeayhiRK4tzJ0ejTXliItVN_w7s3H3nJJB28D4j_Hpz4GqCO3w3JBnNTbdLzlAwOimM2Nn1n6YWMO4A8gAv33j8ebPe-OTXcBuRVAHqGABdDtSo5boLRLUimi7OIyp8s8q_V_uWOdc9Uli-z1Kub6kdUJcN11kDJ0MKrehgCapv9mwnixauP5mbuGn2jbPwG7lo_WxMug4AMv89qjZB1iTfmhuav-xm8defcoTizs5m5hmbRWjvwbuDKA-X4d5qjnpJJVJtbfQFvb-pYxnBDGyk5yfUHM6p7r-_3VzqugRBGpk-FU3RhPWcl1C_A2CnI7ene9aXA_Wy0]--></g></svg>