<?xml version="1.0" encoding="us-ascii" standalone="no"?><svg xmlns="http://www.w3.org/2000/svg" xmlns:xlink="http://www.w3.org/1999/xlink" contentStyleType="text/css" height="588px" preserveAspectRatio="none" style="width:1218px;height:588px;background:#FFFFFF;" version="1.1" viewBox="0 0 1218 588" width="1218px" zoomAndPan="magnify"><defs/><g><rect fill="#FFFFFF" height="370.3281" style="stroke:#181818;stroke-width:1.0;" width="10" x="457.5" y="114.7266"/><rect fill="#FFFFFF" height="58.2656" style="stroke:#181818;stroke-width:1.0;" width="10" x="651" y="202.125"/><rect fill="#FFFFFF" height="57.1328" style="stroke:#181818;stroke-width:1.0;" width="10" x="828" y="260.3906"/><rect fill="#FFFFFF" height="14" style="stroke:#181818;stroke-width:1.0;" width="10" x="964" y="289.5234"/><rect fill="#FFFFFF" height="138.3984" style="stroke:#181818;stroke-width:1.0;" width="10" x="964" y="346.6563"/><rect fill="#FFFFFF" height="57.1328" style="stroke:#181818;stroke-width:1.0;" width="10" x="1130" y="404.9219"/><line style="stroke:#181818;stroke-width:0.5;stroke-dasharray:5.0,5.0;" x1="60" x2="60" y1="83.5938" y2="494.0547"/><line style="stroke:#181818;stroke-width:0.5;stroke-dasharray:5.0,5.0;" x1="462.5" x2="462.5" y1="83.5938" y2="494.0547"/><line style="stroke:#181818;stroke-width:0.5;stroke-dasharray:5.0,5.0;" x1="655.5" x2="655.5" y1="83.5938" y2="494.0547"/><line style="stroke:#181818;stroke-width:0.5;stroke-dasharray:5.0,5.0;" x1="832.5" x2="832.5" y1="83.5938" y2="494.0547"/><line style="stroke:#181818;stroke-width:0.5;stroke-dasharray:5.0,5.0;" x1="968.5" x2="968.5" y1="83.5938" y2="494.0547"/><line style="stroke:#181818;stroke-width:0.5;stroke-dasharray:5.0,5.0;" x1="1134.5" x2="1134.5" y1="83.5938" y2="494.0547"/><rect fill="#E2E2F0" height="46.5938" rx="2.5" ry="2.5" style="stroke:#181818;stroke-width:0.5;" width="111" x="5" y="36"/><text fill="#000000" font-family="FG Virgil" font-size="14" font-style="italic" lengthAdjust="spacing" textLength="97" x="12" y="55.9951">&#171;application&#187;</text><text fill="#000000" font-family="FG Virgil" font-size="14" lengthAdjust="spacing" textLength="73" x="24" y="72.292">Controller</text><rect fill="#E2E2F0" height="46.5938" rx="2.5" ry="2.5" style="stroke:#181818;stroke-width:0.5;" width="111" x="5" y="493.0547"/><text fill="#000000" font-family="FG Virgil" font-size="14" font-style="italic" lengthAdjust="spacing" textLength="97" x="12" y="513.0498">&#171;application&#187;</text><text fill="#000000" font-family="FG Virgil" font-size="14" lengthAdjust="spacing" textLength="73" x="24" y="529.3467">Controller</text><rect fill="#E2E2F0" height="46.5938" rx="2.5" ry="2.5" style="stroke:#181818;stroke-width:0.5;" width="210" x="357.5" y="36"/><text fill="#000000" font-family="FG Virgil" font-size="14" font-style="italic" lengthAdjust="spacing" textLength="97" x="414" y="55.9951">&#171;application&#187;</text><text fill="#000000" font-family="FG Virgil" font-size="14" lengthAdjust="spacing" textLength="196" x="364.5" y="72.292">CourseManagementService</text><rect fill="#E2E2F0" height="46.5938" rx="2.5" ry="2.5" style="stroke:#181818;stroke-width:0.5;" width="210" x="357.5" y="493.0547"/><text fill="#000000" font-family="FG Virgil" font-size="14" font-style="italic" lengthAdjust="spacing" textLength="97" x="414" y="513.0498">&#171;application&#187;</text><text fill="#000000" font-family="FG Virgil" font-size="14" lengthAdjust="spacing" textLength="196" x="364.5" y="529.3467">CourseManagementService</text><rect fill="#E2E2F0" height="46.5938" rx="2.5" ry="2.5" style="stroke:#181818;stroke-width:0.5;" width="157" x="577.5" y="36"/><text fill="#000000" font-family="FG Virgil" font-size="14" font-style="italic" lengthAdjust="spacing" textLength="100" x="606" y="55.9951">&#171;persistence&#187;</text><text fill="#000000" font-family="FG Virgil" font-size="14" lengthAdjust="spacing" textLength="143" x="584.5" y="72.292">PersistenceContext</text><rect fill="#E2E2F0" height="46.5938" rx="2.5" ry="2.5" style="stroke:#181818;stroke-width:0.5;" width="157" x="577.5" y="493.0547"/><text fill="#000000" font-family="FG Virgil" font-size="14" font-style="italic" lengthAdjust="spacing" textLength="100" x="606" y="513.0498">&#171;persistence&#187;</text><text fill="#000000" font-family="FG Virgil" font-size="14" lengthAdjust="spacing" textLength="143" x="584.5" y="529.3467">PersistenceContext</text><rect fill="#E2E2F0" height="30.2969" rx="2.5" ry="2.5" style="stroke:#181818;stroke-width:0.5;" width="105" x="780.5" y="52.2969"/><text fill="#000000" font-family="FG Virgil" font-size="14" lengthAdjust="spacing" textLength="91" x="787.5" y="72.292">AppSettings</text><rect fill="#E2E2F0" height="30.2969" rx="2.5" ry="2.5" style="stroke:#181818;stroke-width:0.5;" width="105" x="780.5" y="493.0547"/><text fill="#000000" font-family="FG Virgil" font-size="14" lengthAdjust="spacing" textLength="91" x="787.5" y="513.0498">AppSettings</text><rect fill="#E2E2F0" height="46.5938" rx="2.5" ry="2.5" style="stroke:#181818;stroke-width:0.5;" width="147" x="895.5" y="36"/><text fill="#000000" font-family="FG Virgil" font-size="14" font-style="italic" lengthAdjust="spacing" textLength="68" x="935" y="55.9951">&#171;factory&#187;</text><text fill="#000000" font-family="FG Virgil" font-size="14" lengthAdjust="spacing" textLength="133" x="902.5" y="72.292">RepositoryFactory</text><rect fill="#E2E2F0" height="46.5938" rx="2.5" ry="2.5" style="stroke:#181818;stroke-width:0.5;" width="147" x="895.5" y="493.0547"/><text fill="#000000" font-family="FG Virgil" font-size="14" font-style="italic" lengthAdjust="spacing" textLength="68" x="935" y="513.0498">&#171;factory&#187;</text><text fill="#000000" font-family="FG Virgil" font-size="14" lengthAdjust="spacing" textLength="133" x="902.5" y="529.3467">RepositoryFactory</text><text fill="#000000" font-family="FG Virgil" font-size="14" font-style="italic" lengthAdjust="spacing" textLength="90" x="1087" y="63.9951">&#171;repository&#187;</text><text fill="#000000" font-family="FG Virgil" font-size="14" lengthAdjust="spacing" textLength="159" x="1052.5" y="80.292">EnrollmentRepository</text><path d="M1117,15 C1117,5 1135,5 1135,5 C1135,5 1153,5 1153,15 L1153,41 C1153,51 1135,51 1135,51 C1135,51 1117,51 1117,41 L1117,15 " fill="#E2E2F0" style="stroke:#181818;stroke-width:1.5;"/><path d="M1117,15 C1117,25 1135,25 1135,25 C1135,25 1153,25 1153,15 " fill="none" style="stroke:#181818;stroke-width:1.5;"/><text fill="#000000" font-family="FG Virgil" font-size="14" font-style="italic" lengthAdjust="spacing" textLength="90" x="1087" y="506.0498">&#171;repository&#187;</text><text fill="#000000" font-family="FG Virgil" font-size="14" lengthAdjust="spacing" textLength="159" x="1052.5" y="522.3467">EnrollmentRepository</text><path d="M1117,535.6484 C1117,525.6484 1135,525.6484 1135,525.6484 C1135,525.6484 1153,525.6484 1153,535.6484 L1153,561.6484 C1153,571.6484 1135,571.6484 1135,571.6484 C1135,571.6484 1117,571.6484 1117,561.6484 L1117,535.6484 " fill="#E2E2F0" style="stroke:#181818;stroke-width:1.5;"/><path d="M1117,535.6484 C1117,545.6484 1135,545.6484 1135,545.6484 C1135,545.6484 1153,545.6484 1153,535.6484 " fill="none" style="stroke:#181818;stroke-width:1.5;"/><rect fill="#FFFFFF" height="370.3281" style="stroke:#181818;stroke-width:1.0;" width="10" x="457.5" y="114.7266"/><rect fill="#FFFFFF" height="58.2656" style="stroke:#181818;stroke-width:1.0;" width="10" x="651" y="202.125"/><rect fill="#FFFFFF" height="57.1328" style="stroke:#181818;stroke-width:1.0;" width="10" x="828" y="260.3906"/><rect fill="#FFFFFF" height="14" style="stroke:#181818;stroke-width:1.0;" width="10" x="964" y="289.5234"/><rect fill="#FFFFFF" height="138.3984" style="stroke:#181818;stroke-width:1.0;" width="10" x="964" y="346.6563"/><rect fill="#FFFFFF" height="57.1328" style="stroke:#181818;stroke-width:1.0;" width="10" x="1130" y="404.9219"/><polygon fill="#181818" points="445.5,110.7266,455.5,114.7266,445.5,118.7266,449.5,114.7266" style="stroke:#181818;stroke-width:1.0;"/><line style="stroke:#181818;stroke-width:1.0;" x1="60.5" x2="451.5" y1="114.7266" y2="114.7266"/><text fill="#000000" font-family="FG Virgil" font-size="13" lengthAdjust="spacing" textLength="41" x="67.5" y="109.6606">create</text><polygon fill="#181818" points="445.5,139.8594,455.5,143.8594,445.5,147.8594,449.5,143.8594" style="stroke:#181818;stroke-width:1.0;"/><line style="stroke:#181818;stroke-width:1.0;" x1="60.5" x2="451.5" y1="143.8594" y2="143.8594"/><text fill="#000000" font-family="FG Virgil" font-size="13" lengthAdjust="spacing" textLength="145" x="67.5" y="138.7935">allCoursesStateEnroll()</text><polygon fill="#181818" points="445.5,168.9922,455.5,172.9922,445.5,176.9922,449.5,172.9922" style="stroke:#181818;stroke-width:1.0;"/><line style="stroke:#181818;stroke-width:1.0;" x1="60.5" x2="451.5" y1="172.9922" y2="172.9922"/><text fill="#000000" font-family="FG Virgil" font-size="13" lengthAdjust="spacing" textLength="373" x="67.5" y="167.9263">allCoursesByAcceptedStatusAndSystemUser(systemUser)</text><polygon fill="#181818" points="639,198.125,649,202.125,639,206.125,643,202.125" style="stroke:#181818;stroke-width:1.0;"/><line style="stroke:#181818;stroke-width:1.0;" x1="467.5" x2="645" y1="202.125" y2="202.125"/><text fill="#000000" font-family="FG Virgil" font-size="13" lengthAdjust="spacing" textLength="85" x="474.5" y="197.0591">repositories()</text><polygon fill="#181818" points="821,227.2578,831,231.2578,821,235.2578,825,231.2578" style="stroke:#181818;stroke-width:1.0;"/><line style="stroke:#181818;stroke-width:1.0;" x1="661" x2="827" y1="231.2578" y2="231.2578"/><text fill="#000000" font-family="FG Virgil" font-size="13" lengthAdjust="spacing" textLength="64" x="668" y="226.1919">instance()</text><polygon fill="#181818" points="816,256.3906,826,260.3906,816,264.3906,820,260.3906" style="stroke:#181818;stroke-width:1.0;"/><line style="stroke:#181818;stroke-width:1.0;" x1="656" x2="822" y1="260.3906" y2="260.3906"/><text fill="#000000" font-family="FG Virgil" font-size="13" lengthAdjust="spacing" textLength="148" x="663" y="255.3247">getRepositoryFactory()</text><polygon fill="#181818" points="952,285.5234,962,289.5234,952,293.5234,956,289.5234" style="stroke:#181818;stroke-width:1.0;"/><line style="stroke:#181818;stroke-width:1.0;stroke-dasharray:2.0,2.0;" x1="838" x2="958" y1="289.5234" y2="289.5234"/><text fill="#000000" font-family="FG Virgil" font-size="13" lengthAdjust="spacing" textLength="41" x="845" y="284.4575">create</text><polygon fill="#181818" points="849,299.5234,839,303.5234,849,307.5234,845,303.5234" style="stroke:#181818;stroke-width:1.0;"/><line style="stroke:#181818;stroke-width:1.0;stroke-dasharray:2.0,2.0;" x1="843" x2="968" y1="303.5234" y2="303.5234"/><polygon fill="#181818" points="478.5,313.5234,468.5,317.5234,478.5,321.5234,474.5,317.5234" style="stroke:#181818;stroke-width:1.0;"/><line style="stroke:#181818;stroke-width:1.0;stroke-dasharray:2.0,2.0;" x1="472.5" x2="832" y1="317.5234" y2="317.5234"/><polygon fill="#181818" points="952,342.6563,962,346.6563,952,350.6563,956,346.6563" style="stroke:#181818;stroke-width:1.0;"/><line style="stroke:#181818;stroke-width:1.0;" x1="467.5" x2="958" y1="346.6563" y2="346.6563"/><text fill="#000000" font-family="FG Virgil" font-size="13" lengthAdjust="spacing" textLength="86" x="474.5" y="341.5903">enrollments()</text><polygon fill="#181818" points="1123,371.7891,1133,375.7891,1123,379.7891,1127,375.7891" style="stroke:#181818;stroke-width:1.0;"/><line style="stroke:#181818;stroke-width:1.0;stroke-dasharray:2.0,2.0;" x1="974" x2="1129" y1="375.7891" y2="375.7891"/><text fill="#000000" font-family="FG Virgil" font-size="13" lengthAdjust="spacing" textLength="86" x="981" y="370.7231">enrollments()</text><polygon fill="#181818" points="1118,400.9219,1128,404.9219,1118,408.9219,1122,404.9219" style="stroke:#181818;stroke-width:1.0;"/><line style="stroke:#181818;stroke-width:1.0;" x1="467.5" x2="1124" y1="404.9219" y2="404.9219"/><text fill="#000000" font-family="FG Virgil" font-size="13" lengthAdjust="spacing" textLength="234" x="474.5" y="399.856">coursesByState = enrollingCourses()</text><polygon fill="#181818" points="478.5,414.9219,468.5,418.9219,478.5,422.9219,474.5,418.9219" style="stroke:#181818;stroke-width:1.0;"/><line style="stroke:#181818;stroke-width:1.0;stroke-dasharray:2.0,2.0;" x1="472.5" x2="1129" y1="418.9219" y2="418.9219"/><polygon fill="#181818" points="1118,444.0547,1128,448.0547,1118,452.0547,1122,448.0547" style="stroke:#181818;stroke-width:1.0;"/><line style="stroke:#181818;stroke-width:1.0;" x1="467.5" x2="1124" y1="448.0547" y2="448.0547"/><text fill="#000000" font-family="FG Virgil" font-size="13" lengthAdjust="spacing" textLength="539" x="474.5" y="442.9888">coursesBySystemUser = allCoursesByAcceptedStatusAndSystemUser(systemUser )</text><polygon fill="#181818" points="478.5,458.0547,468.5,462.0547,478.5,466.0547,474.5,462.0547" style="stroke:#181818;stroke-width:1.0;"/><line style="stroke:#181818;stroke-width:1.0;stroke-dasharray:2.0,2.0;" x1="472.5" x2="1134" y1="462.0547" y2="462.0547"/><polygon fill="#181818" points="71.5,472.0547,61.5,476.0547,71.5,480.0547,67.5,476.0547" style="stroke:#181818;stroke-width:1.0;"/><line style="stroke:#181818;stroke-width:1.0;stroke-dasharray:2.0,2.0;" x1="65.5" x2="456.5" y1="476.0547" y2="476.0547"/><!--SRC=[bLDDRzim3BtxL-Ysvf3c7dW1ic7PQKKnOxjpCfC8bML1OjBbtuzg78bEOhJpnQB8z_ZueKzx8hzSBBm5HuVEFkg-MyGNupm4w1xtrDagcseFhdqDXWYTseADA7mUz0liiA6JHHLGa_2rk8M3fKtlw0awL9llwhS9EoEvunxQ_jMutS1SLNnFHXlFojHNXeRUMWmAehJg6hotHWEPtgrMLw13YFW37Elgq563uMWq9WRzvcgE-ePWnF2C8Ph8vMfCEV4l9R2uPRWlrbN-jVSD4d5DCS4YqiZz4tqV3VNXj06TVYdeSgphxVd4d2qG_868wfjBLQTI2ZQ1X5NN8HkfcaeDd-ZPV2NgNoeT42Wrd1EQ8n-BjwgcOM3jkS6n8GQTjJtCFWRvSbfhZPwmJU13NBksEN4JkryHmqFCnrafG32fH2odi5IvQeEHHLmmkIGHBIZvapJCoaDQAkCY0Ly8egdG7TBD7AzWBTvL8KDoGDeHwM1RpJdNm9o7THSy18sSbtsQdmLF2Ri7lUGksw0cq8auTxMCIUh6lBftn_EUzDBZAQgRr1AYBrltjghgyy31BtFOnokY8gomZ0F4anltQ1ps0KLvrrdM_pyGDQl6AIU5JSnkea0Xd5dAanR914dn_mC0]--></g></svg>