<?xml version="1.0" encoding="us-ascii" standalone="no"?><svg xmlns="http://www.w3.org/2000/svg" xmlns:xlink="http://www.w3.org/1999/xlink" contentStyleType="text/css" height="612px" preserveAspectRatio="none" style="width:1335px;height:612px;background:#FFFFFF;" version="1.1" viewBox="0 0 1335 612" width="1335px" zoomAndPan="magnify"><defs/><g><!--cluster presentation--><g id="cluster_presentation"><path d="M14.5,6 L120.5,6 A3.75,3.75 0 0 1 123,8.5 L130,28.2969 L387.5,28.2969 A2.5,2.5 0 0 1 390,30.7969 L390,143.5 A2.5,2.5 0 0 1 387.5,146 L14.5,146 A2.5,2.5 0 0 1 12,143.5 L12,8.5 A2.5,2.5 0 0 1 14.5,6 " fill="#DDDDDD" style="stroke:#000000;stroke-width:1.5;"/><line style="stroke:#000000;stroke-width:1.5;" x1="12" x2="130" y1="28.2969" y2="28.2969"/><text fill="#000000" font-family="sans-serif" font-size="14" font-weight="bold" lengthAdjust="spacing" textLength="105" x="16" y="20.9951">presentation</text></g><!--cluster persistence--><g id="cluster_persistence"><path d="M619.5,428.5 L714.5,428.5 A3.75,3.75 0 0 1 717,431 L724,450.7969 L1325.5,450.7969 A2.5,2.5 0 0 1 1328,453.2969 L1328,574 A2.5,2.5 0 0 1 1325.5,576.5 L619.5,576.5 A2.5,2.5 0 0 1 617,574 L617,431 A2.5,2.5 0 0 1 619.5,428.5 " fill="#DBD8AE" style="stroke:#000000;stroke-width:1.5;"/><line style="stroke:#000000;stroke-width:1.5;" x1="617" x2="724" y1="450.7969" y2="450.7969"/><text fill="#000000" font-family="sans-serif" font-size="14" font-weight="bold" lengthAdjust="spacing" textLength="94" x="621" y="443.4951">persistence</text></g><!--cluster application--><g id="cluster_application"><path d="M8.5,170 L101.5,170 A3.75,3.75 0 0 1 104,172.5 L111,192.2969 L393.5,192.2969 A2.5,2.5 0 0 1 396,194.7969 L396,602.5 A2.5,2.5 0 0 1 393.5,605 L8.5,605 A2.5,2.5 0 0 1 6,602.5 L6,172.5 A2.5,2.5 0 0 1 8.5,170 " fill="#EAF4D3" style="stroke:#000000;stroke-width:1.5;"/><line style="stroke:#000000;stroke-width:1.5;" x1="6" x2="111" y1="192.2969" y2="192.2969"/><text fill="#000000" font-family="sans-serif" font-size="14" font-weight="bold" lengthAdjust="spacing" textLength="92" x="10" y="184.9951">application</text></g><!--class ListCoursesByUserUI--><g id="elem_ListCoursesByUserUI"><rect codeLine="4" fill="#F1F1F1" height="88.8594" id="ListCoursesByUserUI" rx="2.5" ry="2.5" style="stroke:#181818;stroke-width:0.5;" width="345" x="28.5" y="41"/><ellipse cx="124.75" cy="61.1328" fill="#ADD1B2" rx="11" ry="11" style="stroke:#181818;stroke-width:1.0;"/><path d="M127.0938,56.8047 C126.1563,56.3672 125.5625,56.2266 124.6875,56.2266 C122.0625,56.2266 120.0625,58.3047 120.0625,61.0234 L120.0625,62.1484 C120.0625,64.7266 122.1719,66.6172 125.0625,66.6172 C126.2813,66.6172 127.4375,66.3203 128.1875,65.7734 C128.7656,65.3672 129.0938,64.9141 129.0938,64.5234 C129.0938,64.0703 128.7031,63.6797 128.2344,63.6797 C128.0156,63.6797 127.8125,63.7578 127.625,63.9453 C127.1719,64.4297 127.1719,64.4297 126.9844,64.5234 C126.5625,64.7891 125.875,64.9141 125.1094,64.9141 C123.0625,64.9141 121.7656,63.8203 121.7656,62.1172 L121.7656,61.0234 C121.7656,59.2422 123.0156,57.9297 124.75,57.9297 C125.3281,57.9297 125.9375,58.0859 126.4063,58.3359 C126.8906,58.6172 127.0625,58.8359 127.1563,59.2422 C127.2188,59.6484 127.25,59.7734 127.3906,59.8984 C127.5313,60.0391 127.7656,60.1484 127.9844,60.1484 C128.25,60.1484 128.5156,60.0078 128.6875,59.7891 C128.7969,59.6328 128.8281,59.4453 128.8281,59.0234 L128.8281,57.6016 C128.8281,57.1641 128.8125,57.0391 128.7188,56.8828 C128.5625,56.6172 128.2813,56.4766 127.9844,56.4766 C127.6875,56.4766 127.4844,56.5703 127.2656,56.8828 L127.0938,56.8047 Z " fill="#000000"/><text fill="#000000" font-family="sans-serif" font-size="12" font-style="italic" lengthAdjust="spacing" textLength="25" x="204.75" y="57.1387">&#171;ui&#187;</text><text fill="#000000" font-family="sans-serif" font-size="14" lengthAdjust="spacing" textLength="144" x="145.25" y="72.9639">ListCoursesByUserUI</text><line style="stroke:#181818;stroke-width:0.5;" x1="29.5" x2="372.5" y1="81.2656" y2="81.2656"/><rect fill="none" height="6" style="stroke:#C82930;stroke-width:1.0;" width="6" x="36.5" y="91.9141"/><text fill="#000000" font-family="sans-serif" font-size="14" lengthAdjust="spacing" textLength="319" x="48.5" y="98.2607">theController :  ListCoursesByUserController</text><line style="stroke:#181818;stroke-width:0.5;" x1="29.5" x2="372.5" y1="105.5625" y2="105.5625"/><ellipse cx="39.5" cy="119.2109" fill="#84BE84" rx="3" ry="3" style="stroke:#038048;stroke-width:1.0;"/><text fill="#000000" font-family="sans-serif" font-size="14" lengthAdjust="spacing" textLength="66" x="48.5" y="122.5576">doShow()</text></g><!--class CourseRepository--><g id="elem_CourseRepository"><rect codeLine="12" fill="#F1F1F1" height="96.8906" id="CourseRepository" rx="2.5" ry="2.5" style="stroke:#181818;stroke-width:0.5;" width="250" x="1062" y="463.5"/><ellipse cx="1119.75" cy="479.5" fill="#B4A7E5" rx="11" ry="11" style="stroke:#181818;stroke-width:1.0;"/><path d="M1120.7031,476.2813 L1122.4219,476.2813 C1122.8125,476.2813 1123,476.25 1123.125,476.1719 C1123.3906,476.0156 1123.5313,475.7344 1123.5313,475.4375 C1123.5313,475.1719 1123.4219,474.9063 1123.1875,474.7344 C1123.0156,474.625 1122.875,474.5938 1122.4219,474.5938 L1117.2813,474.5938 C1116.8438,474.5938 1116.7188,474.6094 1116.5625,474.7031 C1116.3125,474.8594 1116.1563,475.1563 1116.1563,475.4375 C1116.1563,475.7188 1116.2969,475.9688 1116.5156,476.1406 C1116.6719,476.25 1116.8594,476.2813 1117.2813,476.2813 L1119,476.2813 L1119,482.7969 L1117.2813,482.7969 C1116.8438,482.7969 1116.7188,482.8125 1116.5625,482.9219 C1116.3125,483.0781 1116.1563,483.3594 1116.1563,483.6563 C1116.1563,483.9063 1116.2969,484.1719 1116.5156,484.3281 C1116.6719,484.4531 1116.875,484.5 1117.2813,484.5 L1122.4219,484.5 C1123.1719,484.5 1123.5313,484.2188 1123.5313,483.6563 C1123.5313,483.375 1123.4219,483.125 1123.1875,482.9531 C1123.0156,482.8281 1122.875,482.7969 1122.4219,482.7969 L1120.7031,482.7969 L1120.7031,476.2813 Z " fill="#000000"/><text fill="#000000" font-family="sans-serif" font-size="14" font-style="italic" lengthAdjust="spacing" textLength="126" x="1140.25" y="484.3467">CourseRepository</text><line style="stroke:#181818;stroke-width:0.5;" x1="1063" x2="1311" y1="495.5" y2="495.5"/><line style="stroke:#181818;stroke-width:0.5;" x1="1063" x2="1311" y1="503.5" y2="503.5"/><ellipse cx="1073" cy="517.1484" fill="#84BE84" rx="3" ry="3" style="stroke:#038048;stroke-width:1.0;"/><text fill="#000000" font-family="sans-serif" font-size="14" lengthAdjust="spacing" textLength="56" x="1082" y="520.4951">findAll()</text><ellipse cx="1073" cy="533.4453" fill="#84BE84" rx="3" ry="3" style="stroke:#038048;stroke-width:1.0;"/><text fill="#000000" font-family="sans-serif" font-size="14" lengthAdjust="spacing" textLength="137" x="1082" y="536.792">findByEnrollState()</text><ellipse cx="1073" cy="549.7422" fill="#84BE84" rx="3" ry="3" style="stroke:#038048;stroke-width:1.0;"/><text fill="#000000" font-family="sans-serif" font-size="14" lengthAdjust="spacing" textLength="224" x="1082" y="553.0889">findBySystemUser(systemUser)</text></g><!--class EnrollmentRepository--><g id="elem_EnrollmentRepository"><rect codeLine="17" fill="#F1F1F1" height="64.2969" id="EnrollmentRepository" rx="2.5" ry="2.5" style="stroke:#181818;stroke-width:0.5;" width="394" x="633" y="480"/><ellipse cx="748.75" cy="496" fill="#B4A7E5" rx="11" ry="11" style="stroke:#181818;stroke-width:1.0;"/><path d="M749.7031,492.7813 L751.4219,492.7813 C751.8125,492.7813 752,492.75 752.125,492.6719 C752.3906,492.5156 752.5313,492.2344 752.5313,491.9375 C752.5313,491.6719 752.4219,491.4063 752.1875,491.2344 C752.0156,491.125 751.875,491.0938 751.4219,491.0938 L746.2813,491.0938 C745.8438,491.0938 745.7188,491.1094 745.5625,491.2031 C745.3125,491.3594 745.1563,491.6563 745.1563,491.9375 C745.1563,492.2188 745.2969,492.4688 745.5156,492.6406 C745.6719,492.75 745.8594,492.7813 746.2813,492.7813 L748,492.7813 L748,499.2969 L746.2813,499.2969 C745.8438,499.2969 745.7188,499.3125 745.5625,499.4219 C745.3125,499.5781 745.1563,499.8594 745.1563,500.1563 C745.1563,500.4063 745.2969,500.6719 745.5156,500.8281 C745.6719,500.9531 745.875,501 746.2813,501 L751.4219,501 C752.1719,501 752.5313,500.7188 752.5313,500.1563 C752.5313,499.875 752.4219,499.625 752.1875,499.4531 C752.0156,499.3281 751.875,499.2969 751.4219,499.2969 L749.7031,499.2969 L749.7031,492.7813 Z " fill="#000000"/><text fill="#000000" font-family="sans-serif" font-size="14" font-style="italic" lengthAdjust="spacing" textLength="154" x="769.25" y="500.8467">EnrollmentRepository</text><line style="stroke:#181818;stroke-width:0.5;" x1="634" x2="1026" y1="512" y2="512"/><line style="stroke:#181818;stroke-width:0.5;" x1="634" x2="1026" y1="520" y2="520"/><ellipse cx="644" cy="533.6484" fill="#84BE84" rx="3" ry="3" style="stroke:#038048;stroke-width:1.0;"/><text fill="#000000" font-family="sans-serif" font-size="14" lengthAdjust="spacing" textLength="368" x="653" y="536.9951">findByAcceptedStatusAndSystemUser(systemUser)</text></g><!--class ListCoursesByUserController--><g id="elem_ListCoursesByUserController"><rect codeLine="22" fill="#F1F1F1" height="170.3438" id="ListCoursesByUserController" rx="2.5" ry="2.5" style="stroke:#181818;stroke-width:0.5;" width="355" x="23.5" y="205"/><ellipse cx="94.75" cy="225.1328" fill="#ADD1B2" rx="11" ry="11" style="stroke:#181818;stroke-width:1.0;"/><path d="M97.0938,220.8047 C96.1563,220.3672 95.5625,220.2266 94.6875,220.2266 C92.0625,220.2266 90.0625,222.3047 90.0625,225.0234 L90.0625,226.1484 C90.0625,228.7266 92.1719,230.6172 95.0625,230.6172 C96.2813,230.6172 97.4375,230.3203 98.1875,229.7734 C98.7656,229.3672 99.0938,228.9141 99.0938,228.5234 C99.0938,228.0703 98.7031,227.6797 98.2344,227.6797 C98.0156,227.6797 97.8125,227.7578 97.625,227.9453 C97.1719,228.4297 97.1719,228.4297 96.9844,228.5234 C96.5625,228.7891 95.875,228.9141 95.1094,228.9141 C93.0625,228.9141 91.7656,227.8203 91.7656,226.1172 L91.7656,225.0234 C91.7656,223.2422 93.0156,221.9297 94.75,221.9297 C95.3281,221.9297 95.9375,222.0859 96.4063,222.3359 C96.8906,222.6172 97.0625,222.8359 97.1563,223.2422 C97.2188,223.6484 97.25,223.7734 97.3906,223.8984 C97.5313,224.0391 97.7656,224.1484 97.9844,224.1484 C98.25,224.1484 98.5156,224.0078 98.6875,223.7891 C98.7969,223.6328 98.8281,223.4453 98.8281,223.0234 L98.8281,221.6016 C98.8281,221.1641 98.8125,221.0391 98.7188,220.8828 C98.5625,220.6172 98.2813,220.4766 97.9844,220.4766 C97.6875,220.4766 97.4844,220.5703 97.2656,220.8828 L97.0938,220.8047 Z " fill="#000000"/><text fill="#000000" font-family="sans-serif" font-size="12" font-style="italic" lengthAdjust="spacing" textLength="71" x="181.75" y="221.1387">&#171;controller&#187;</text><text fill="#000000" font-family="sans-serif" font-size="14" lengthAdjust="spacing" textLength="204" x="115.25" y="236.9639">ListCoursesByUserController</text><line style="stroke:#181818;stroke-width:0.5;" x1="24.5" x2="377.5" y1="245.2656" y2="245.2656"/><rect fill="none" height="6" style="stroke:#C82930;stroke-width:1.0;" width="6" x="31.5" y="255.9141"/><text fill="#000000" font-family="sans-serif" font-size="14" lengthAdjust="spacing" textLength="204" x="43.5" y="262.2607">authz : AuthorizationService</text><rect fill="none" height="6" style="stroke:#C82930;stroke-width:1.0;" width="6" x="31.5" y="272.2109"/><text fill="#000000" font-family="sans-serif" font-size="14" lengthAdjust="spacing" textLength="281" x="43.5" y="278.5576">courseSvc : CourseManagementService</text><line style="stroke:#181818;stroke-width:0.5;" x1="24.5" x2="377.5" y1="285.8594" y2="285.8594"/><ellipse cx="34.5" cy="299.5078" fill="#84BE84" rx="3" ry="3" style="stroke:#038048;stroke-width:1.0;"/><text fill="#000000" font-family="sans-serif" font-size="14" lengthAdjust="spacing" textLength="111" x="43.5" y="302.8545">userOfSession()</text><ellipse cx="34.5" cy="315.8047" fill="#84BE84" rx="3" ry="3" style="stroke:#038048;stroke-width:1.0;"/><text fill="#000000" font-family="sans-serif" font-size="14" lengthAdjust="spacing" textLength="163" x="43.5" y="319.1514">allCoursesStateEnroll()</text><ellipse cx="34.5" cy="332.1016" fill="#84BE84" rx="3" ry="3" style="stroke:#038048;stroke-width:1.0;"/><text fill="#000000" font-family="sans-serif" font-size="14" lengthAdjust="spacing" textLength="329" x="43.5" y="335.4482">allCoursesByAcceptedStatusAndSystemUser()</text><ellipse cx="34.5" cy="348.3984" fill="#84BE84" rx="3" ry="3" style="stroke:#038048;stroke-width:1.0;"/><text fill="#000000" font-family="sans-serif" font-size="14" lengthAdjust="spacing" textLength="185" x="43.5" y="351.7451">allCoursesBySystemUser()</text><ellipse cx="34.5" cy="364.6953" fill="#84BE84" rx="3" ry="3" style="stroke:#038048;stroke-width:1.0;"/><text fill="#000000" font-family="sans-serif" font-size="14" lengthAdjust="spacing" textLength="93" x="43.5" y="368.042">systemUser()</text></g><!--class CourseManagementService--><g id="elem_CourseManagementService"><rect codeLine="32" fill="#F1F1F1" height="154.0469" id="CourseManagementService" rx="2.5" ry="2.5" style="stroke:#181818;stroke-width:0.5;" width="357" x="22.5" y="435"/><ellipse cx="98.75" cy="455.1328" fill="#ADD1B2" rx="11" ry="11" style="stroke:#181818;stroke-width:1.0;"/><path d="M101.0938,450.8047 C100.1563,450.3672 99.5625,450.2266 98.6875,450.2266 C96.0625,450.2266 94.0625,452.3047 94.0625,455.0234 L94.0625,456.1484 C94.0625,458.7266 96.1719,460.6172 99.0625,460.6172 C100.2813,460.6172 101.4375,460.3203 102.1875,459.7734 C102.7656,459.3672 103.0938,458.9141 103.0938,458.5234 C103.0938,458.0703 102.7031,457.6797 102.2344,457.6797 C102.0156,457.6797 101.8125,457.7578 101.625,457.9453 C101.1719,458.4297 101.1719,458.4297 100.9844,458.5234 C100.5625,458.7891 99.875,458.9141 99.1094,458.9141 C97.0625,458.9141 95.7656,457.8203 95.7656,456.1172 L95.7656,455.0234 C95.7656,453.2422 97.0156,451.9297 98.75,451.9297 C99.3281,451.9297 99.9375,452.0859 100.4063,452.3359 C100.8906,452.6172 101.0625,452.8359 101.1563,453.2422 C101.2188,453.6484 101.25,453.7734 101.3906,453.8984 C101.5313,454.0391 101.7656,454.1484 101.9844,454.1484 C102.25,454.1484 102.5156,454.0078 102.6875,453.7891 C102.7969,453.6328 102.8281,453.4453 102.8281,453.0234 L102.8281,451.6016 C102.8281,451.1641 102.8125,451.0391 102.7188,450.8828 C102.5625,450.6172 102.2813,450.4766 101.9844,450.4766 C101.6875,450.4766 101.4844,450.5703 101.2656,450.8828 L101.0938,450.8047 Z " fill="#000000"/><text fill="#000000" font-family="sans-serif" font-size="12" font-style="italic" lengthAdjust="spacing" textLength="56" x="189.25" y="451.1387">&#171;service&#187;</text><text fill="#000000" font-family="sans-serif" font-size="14" lengthAdjust="spacing" textLength="196" x="119.25" y="466.9639">CourseManagementService</text><line style="stroke:#181818;stroke-width:0.5;" x1="23.5" x2="378.5" y1="475.2656" y2="475.2656"/><rect fill="none" height="6" style="stroke:#C82930;stroke-width:1.0;" width="6" x="30.5" y="485.9141"/><text fill="#000000" font-family="sans-serif" font-size="14" lengthAdjust="spacing" textLength="267" x="42.5" y="492.2607">courseRepository : CourseRepository</text><rect fill="none" height="6" style="stroke:#C82930;stroke-width:1.0;" width="6" x="30.5" y="502.2109"/><text fill="#000000" font-family="sans-serif" font-size="14" lengthAdjust="spacing" textLength="331" x="42.5" y="508.5576">enrollmentRepository : EnrollmentRepository</text><line style="stroke:#181818;stroke-width:0.5;" x1="23.5" x2="378.5" y1="515.8594" y2="515.8594"/><ellipse cx="33.5" cy="529.5078" fill="#84BE84" rx="3" ry="3" style="stroke:#038048;stroke-width:1.0;"/><text fill="#000000" font-family="sans-serif" font-size="14" lengthAdjust="spacing" textLength="82" x="42.5" y="532.8545">allCourses()</text><ellipse cx="33.5" cy="545.8047" fill="#84BE84" rx="3" ry="3" style="stroke:#038048;stroke-width:1.0;"/><text fill="#000000" font-family="sans-serif" font-size="14" lengthAdjust="spacing" textLength="129" x="42.5" y="549.1514">enrollingCourses()</text><ellipse cx="33.5" cy="562.1016" fill="#84BE84" rx="3" ry="3" style="stroke:#038048;stroke-width:1.0;"/><text fill="#000000" font-family="sans-serif" font-size="14" lengthAdjust="spacing" textLength="329" x="42.5" y="565.4482">allCoursesByAcceptedStatusAndSystemUser()</text><ellipse cx="33.5" cy="578.3984" fill="#84BE84" rx="3" ry="3" style="stroke:#038048;stroke-width:1.0;"/><text fill="#000000" font-family="sans-serif" font-size="14" lengthAdjust="spacing" textLength="185" x="42.5" y="581.7451">allCoursesBySystemUser()</text></g><!--class AuthorizationService--><g id="elem_AuthorizationService"><rect fill="#F1F1F1" height="48" id="AuthorizationService" rx="2.5" ry="2.5" style="stroke:#181818;stroke-width:0.5;" width="183" x="414.5" y="488"/><ellipse cx="429.5" cy="504" fill="#ADD1B2" rx="11" ry="11" style="stroke:#181818;stroke-width:1.0;"/><path d="M431.8438,499.6719 C430.9063,499.2344 430.3125,499.0938 429.4375,499.0938 C426.8125,499.0938 424.8125,501.1719 424.8125,503.8906 L424.8125,505.0156 C424.8125,507.5938 426.9219,509.4844 429.8125,509.4844 C431.0313,509.4844 432.1875,509.1875 432.9375,508.6406 C433.5156,508.2344 433.8438,507.7813 433.8438,507.3906 C433.8438,506.9375 433.4531,506.5469 432.9844,506.5469 C432.7656,506.5469 432.5625,506.625 432.375,506.8125 C431.9219,507.2969 431.9219,507.2969 431.7344,507.3906 C431.3125,507.6563 430.625,507.7813 429.8594,507.7813 C427.8125,507.7813 426.5156,506.6875 426.5156,504.9844 L426.5156,503.8906 C426.5156,502.1094 427.7656,500.7969 429.5,500.7969 C430.0781,500.7969 430.6875,500.9531 431.1563,501.2031 C431.6406,501.4844 431.8125,501.7031 431.9063,502.1094 C431.9688,502.5156 432,502.6406 432.1406,502.7656 C432.2813,502.9063 432.5156,503.0156 432.7344,503.0156 C433,503.0156 433.2656,502.875 433.4375,502.6563 C433.5469,502.5 433.5781,502.3125 433.5781,501.8906 L433.5781,500.4688 C433.5781,500.0313 433.5625,499.9063 433.4688,499.75 C433.3125,499.4844 433.0313,499.3438 432.7344,499.3438 C432.4375,499.3438 432.2344,499.4375 432.0156,499.75 L431.8438,499.6719 Z " fill="#000000"/><text fill="#000000" font-family="sans-serif" font-size="14" lengthAdjust="spacing" textLength="151" x="443.5" y="508.8467">AuthorizationService</text><line style="stroke:#181818;stroke-width:0.5;" x1="415.5" x2="596.5" y1="520" y2="520"/><line style="stroke:#181818;stroke-width:0.5;" x1="415.5" x2="596.5" y1="528" y2="528"/></g><!--link ListCoursesByUserController to AuthorizationService--><g id="link_ListCoursesByUserController_AuthorizationService"><path codeLine="45" d="M331.558,375.03 C353.341,389.809 375.505,405.325 396,420.5 C423.691,441.003 453.824,465.995 475.537,484.517 " fill="none" id="ListCoursesByUserController-to-AuthorizationService" style="stroke:#181818;stroke-width:1.0;stroke-dasharray:7.0,7.0;"/><polygon fill="#181818" points="479.491,487.898,475.2476,479.0102,475.6899,484.6497,470.0503,485.0919,479.491,487.898" style="stroke:#181818;stroke-width:1.0;"/></g><!--link ListCoursesByUserUI to ListCoursesByUserController--><g id="link_ListCoursesByUserUI_ListCoursesByUserController"><path codeLine="46" d="M201,130.439 C201,150.747 201,175.641 201,199.633 " fill="none" id="ListCoursesByUserUI-to-ListCoursesByUserController" style="stroke:#181818;stroke-width:1.0;stroke-dasharray:7.0,7.0;"/><polygon fill="#181818" points="201,204.737,205,195.737,201,199.737,197,195.737,201,204.737" style="stroke:#181818;stroke-width:1.0;"/></g><!--link ListCoursesByUserController to CourseManagementService--><g id="link_ListCoursesByUserController_CourseManagementService"><path codeLine="47" d="M201,375.114 C201,393.076 201,412.015 201,429.863 " fill="none" id="ListCoursesByUserController-to-CourseManagementService" style="stroke:#181818;stroke-width:1.0;stroke-dasharray:7.0,7.0;"/><polygon fill="#181818" points="201,434.866,205,425.866,201,429.866,197,425.866,201,434.866" style="stroke:#181818;stroke-width:1.0;"/></g><!--link CourseManagementService to CourseRepository--><g id="link_CourseManagementService_CourseRepository"><path codeLine="51" d="M320.42,434.966 C350.036,419.623 382.49,405.776 414.5,397.75 C480.566,381.184 962.652,376.921 1027.5,397.75 C1066.45,410.261 1103.96,436.181 1132.81,460.174 " fill="none" id="CourseManagementService-to-CourseRepository" style="stroke:#181818;stroke-width:1.0;stroke-dasharray:7.0,7.0;"/><polygon fill="#181818" points="1136.64,463.393,1132.3175,454.5434,1132.81,460.1787,1127.1747,460.6713,1136.64,463.393" style="stroke:#181818;stroke-width:1.0;"/></g><!--link CourseManagementService to EnrollmentRepository--><g id="link_CourseManagementService_EnrollmentRepository"><path codeLine="52" d="M320.42,434.966 C350.036,419.623 382.49,405.776 414.5,397.75 C493.391,377.969 518.278,379.337 597.5,397.75 C663.067,412.989 731.439,449.462 776.925,477.131 " fill="none" id="CourseManagementService-to-EnrollmentRepository" style="stroke:#181818;stroke-width:1.0;stroke-dasharray:7.0,7.0;"/><polygon fill="#181818" points="781.254,479.78,775.6639,471.6713,776.9888,477.1708,771.4892,478.4957,781.254,479.78" style="stroke:#181818;stroke-width:1.0;"/></g><!--SRC=[bLJHJi8m57tlLpJu88O03_fW2241zC54O-B21zJk0erTkxGT1ip-tRiLjedTqBwiQy-zvzvpxdQzTIwra_4ubKovB94ZhfCnbypQOIpOnh24a9Jn3xO1saiDM52EEQ5LZruzbEkBK5nb2ANFmhgbpem5kzYlB9ZL4wNJQIPcCuyRKhU5fLREQ2d1q4aWfhukGmOqrj5MV_PlojUSv8IKkxekC1QJWEA0PSNlyJq3JuTBA0TcpJXGJ_86gRR2QREl84Yn5YgUItdagCyM-qTLr19Xrn2uZVR8cnHLzssrhM1vXQ-hyFaIr35KoLdwEUUGEeWB-ipELVmNlhnsZAMf5Fna6B3rNNpRRLZ3c-cKLoyd_xo7B7FR0tetnwSsub0IH61sWaC3nil4qOuZr9EyC8Lr5SsVemSqG_RNTGJMOh8VKZCfZpMMDdW5Mn3TchN5j43i-N5E6kArj8IwMRzhYbR9KRjUgL8VDU4G61GC2SqFQKvEtLUZb-B29nHg4xx-luONLKIvYe-LT4tPQ3WBpr7eNrA0k_uNbuZQfX1NcvkZsM-NEh0XUxu1]--></g></svg>