<?xml version="1.0" encoding="us-ascii" standalone="no"?><svg xmlns="http://www.w3.org/2000/svg" xmlns:xlink="http://www.w3.org/1999/xlink" contentStyleType="text/css" height="836px" preserveAspectRatio="none" style="width:2011px;height:836px;background:#FFFFFF;" version="1.1" viewBox="0 0 2011 836" width="2011px" zoomAndPan="magnify"><defs/><g><rect fill="#FFFFFF" height="609.0313" style="stroke:#181818;stroke-width:1.0;" width="10" x="216.5" y="114.7266"/><rect fill="#FFFFFF" height="550.7656" style="stroke:#181818;stroke-width:1.0;" width="10" x="414.5" y="172.9922"/><rect fill="#FFFFFF" height="30" style="stroke:#181818;stroke-width:1.0;" width="10" x="954.5" y="202.125"/><rect fill="#FFFFFF" height="442.3672" style="stroke:#181818;stroke-width:1.0;" width="10" x="1152" y="290.3906"/><rect fill="#FFFFFF" height="58.2656" style="stroke:#181818;stroke-width:1.0;" width="10" x="1345.5" y="362.6563"/><rect fill="#FFFFFF" height="57.1328" style="stroke:#181818;stroke-width:1.0;" width="10" x="1522.5" y="420.9219"/><rect fill="#FFFFFF" height="14" style="stroke:#181818;stroke-width:1.0;" width="10" x="1754.5" y="450.0547"/><rect fill="#FFFFFF" height="225.5703" style="stroke:#181818;stroke-width:1.0;" width="10" x="1754.5" y="507.1875"/><rect fill="#FFFFFF" height="86.0391" style="stroke:#181818;stroke-width:1.0;" width="10" x="1908.5" y="565.4531"/><line style="stroke:#181818;stroke-width:0.5;stroke-dasharray:5.0,5.0;" x1="23" x2="23" y1="83.5938" y2="741.7578"/><line style="stroke:#181818;stroke-width:0.5;stroke-dasharray:5.0,5.0;" x1="221.5" x2="221.5" y1="83.5938" y2="741.7578"/><line style="stroke:#181818;stroke-width:0.5;stroke-dasharray:5.0,5.0;" x1="419.5" x2="419.5" y1="83.5938" y2="741.7578"/><line style="stroke:#181818;stroke-width:0.5;stroke-dasharray:5.0,5.0;" x1="959" x2="959" y1="83.5938" y2="741.7578"/><line style="stroke:#181818;stroke-width:0.5;stroke-dasharray:5.0,5.0;" x1="1157" x2="1157" y1="83.5938" y2="741.7578"/><line style="stroke:#181818;stroke-width:0.5;stroke-dasharray:5.0,5.0;" x1="1350" x2="1350" y1="83.5938" y2="741.7578"/><line style="stroke:#181818;stroke-width:0.5;stroke-dasharray:5.0,5.0;" x1="1527" x2="1527" y1="83.5938" y2="741.7578"/><line style="stroke:#181818;stroke-width:0.5;stroke-dasharray:5.0,5.0;" x1="1633" x2="1633" y1="83.5938" y2="741.7578"/><line style="stroke:#181818;stroke-width:0.5;stroke-dasharray:5.0,5.0;" x1="1759" x2="1759" y1="83.5938" y2="741.7578"/><line style="stroke:#181818;stroke-width:0.5;stroke-dasharray:5.0,5.0;" x1="1913" x2="1913" y1="83.5938" y2="741.7578"/><text fill="#000000" font-family="FG Virgil" font-size="14" lengthAdjust="spacing" textLength="31" x="5" y="80.292">User</text><ellipse cx="23.5" cy="15.7969" fill="#E2E2F0" rx="8" ry="8" style="stroke:#181818;stroke-width:0.5;"/><path d="M23.5,23.7969 L23.5,50.7969 M10.5,31.7969 L36.5,31.7969 M23.5,50.7969 L10.5,65.7969 M23.5,50.7969 L36.5,65.7969 " fill="none" style="stroke:#181818;stroke-width:0.5;"/><text fill="#000000" font-family="FG Virgil" font-size="14" lengthAdjust="spacing" textLength="31" x="5" y="753.7529">User</text><ellipse cx="23.5" cy="765.5547" fill="#E2E2F0" rx="8" ry="8" style="stroke:#181818;stroke-width:0.5;"/><path d="M23.5,773.5547 L23.5,800.5547 M10.5,781.5547 L36.5,781.5547 M23.5,800.5547 L10.5,815.5547 M23.5,800.5547 L36.5,815.5547 " fill="none" style="stroke:#181818;stroke-width:0.5;"/><rect fill="#E2E2F0" height="46.5938" rx="2.5" ry="2.5" style="stroke:#181818;stroke-width:0.5;" width="158" x="142.5" y="36"/><text fill="#000000" font-family="FG Virgil" font-size="14" font-style="italic" lengthAdjust="spacing" textLength="108" x="167.5" y="55.9951">&#171;presentation&#187;</text><text fill="#000000" font-family="FG Virgil" font-size="14" lengthAdjust="spacing" textLength="144" x="149.5" y="72.292">ListCoursesByUserUI</text><rect fill="#E2E2F0" height="46.5938" rx="2.5" ry="2.5" style="stroke:#181818;stroke-width:0.5;" width="158" x="142.5" y="740.7578"/><text fill="#000000" font-family="FG Virgil" font-size="14" font-style="italic" lengthAdjust="spacing" textLength="108" x="167.5" y="760.7529">&#171;presentation&#187;</text><text fill="#000000" font-family="FG Virgil" font-size="14" lengthAdjust="spacing" textLength="144" x="149.5" y="777.0498">ListCoursesByUserUI</text><rect fill="#E2E2F0" height="46.5938" rx="2.5" ry="2.5" style="stroke:#181818;stroke-width:0.5;" width="218" x="310.5" y="36"/><text fill="#000000" font-family="FG Virgil" font-size="14" font-style="italic" lengthAdjust="spacing" textLength="97" x="371" y="55.9951">&#171;application&#187;</text><text fill="#000000" font-family="FG Virgil" font-size="14" lengthAdjust="spacing" textLength="204" x="317.5" y="72.292">ListCoursesByUserController</text><rect fill="#E2E2F0" height="46.5938" rx="2.5" ry="2.5" style="stroke:#181818;stroke-width:0.5;" width="218" x="310.5" y="740.7578"/><text fill="#000000" font-family="FG Virgil" font-size="14" font-style="italic" lengthAdjust="spacing" textLength="97" x="371" y="760.7529">&#171;application&#187;</text><text fill="#000000" font-family="FG Virgil" font-size="14" lengthAdjust="spacing" textLength="204" x="317.5" y="777.0498">ListCoursesByUserController</text><rect fill="#E2E2F0" height="46.5938" rx="2.5" ry="2.5" style="stroke:#181818;stroke-width:0.5;" width="165" x="877" y="36"/><text fill="#000000" font-family="FG Virgil" font-size="14" font-style="italic" lengthAdjust="spacing" textLength="97" x="911" y="55.9951">&#171;application&#187;</text><text fill="#000000" font-family="FG Virgil" font-size="14" lengthAdjust="spacing" textLength="151" x="884" y="72.292">AuthorizationService</text><rect fill="#E2E2F0" height="46.5938" rx="2.5" ry="2.5" style="stroke:#181818;stroke-width:0.5;" width="165" x="877" y="740.7578"/><text fill="#000000" font-family="FG Virgil" font-size="14" font-style="italic" lengthAdjust="spacing" textLength="97" x="911" y="760.7529">&#171;application&#187;</text><text fill="#000000" font-family="FG Virgil" font-size="14" lengthAdjust="spacing" textLength="151" x="884" y="777.0498">AuthorizationService</text><rect fill="#E2E2F0" height="46.5938" rx="2.5" ry="2.5" style="stroke:#181818;stroke-width:0.5;" width="210" x="1052" y="36"/><text fill="#000000" font-family="FG Virgil" font-size="14" font-style="italic" lengthAdjust="spacing" textLength="97" x="1108.5" y="55.9951">&#171;application&#187;</text><text fill="#000000" font-family="FG Virgil" font-size="14" lengthAdjust="spacing" textLength="196" x="1059" y="72.292">CourseManagementService</text><rect fill="#E2E2F0" height="46.5938" rx="2.5" ry="2.5" style="stroke:#181818;stroke-width:0.5;" width="210" x="1052" y="740.7578"/><text fill="#000000" font-family="FG Virgil" font-size="14" font-style="italic" lengthAdjust="spacing" textLength="97" x="1108.5" y="760.7529">&#171;application&#187;</text><text fill="#000000" font-family="FG Virgil" font-size="14" lengthAdjust="spacing" textLength="196" x="1059" y="777.0498">CourseManagementService</text><rect fill="#E2E2F0" height="46.5938" rx="2.5" ry="2.5" style="stroke:#181818;stroke-width:0.5;" width="157" x="1272" y="36"/><text fill="#000000" font-family="FG Virgil" font-size="14" font-style="italic" lengthAdjust="spacing" textLength="100" x="1300.5" y="55.9951">&#171;persistence&#187;</text><text fill="#000000" font-family="FG Virgil" font-size="14" lengthAdjust="spacing" textLength="143" x="1279" y="72.292">PersistenceContext</text><rect fill="#E2E2F0" height="46.5938" rx="2.5" ry="2.5" style="stroke:#181818;stroke-width:0.5;" width="157" x="1272" y="740.7578"/><text fill="#000000" font-family="FG Virgil" font-size="14" font-style="italic" lengthAdjust="spacing" textLength="100" x="1300.5" y="760.7529">&#171;persistence&#187;</text><text fill="#000000" font-family="FG Virgil" font-size="14" lengthAdjust="spacing" textLength="143" x="1279" y="777.0498">PersistenceContext</text><rect fill="#E2E2F0" height="30.2969" rx="2.5" ry="2.5" style="stroke:#181818;stroke-width:0.5;" width="105" x="1475" y="52.2969"/><text fill="#000000" font-family="FG Virgil" font-size="14" lengthAdjust="spacing" textLength="91" x="1482" y="72.292">AppSettings</text><rect fill="#E2E2F0" height="30.2969" rx="2.5" ry="2.5" style="stroke:#181818;stroke-width:0.5;" width="105" x="1475" y="740.7578"/><text fill="#000000" font-family="FG Virgil" font-size="14" lengthAdjust="spacing" textLength="91" x="1482" y="760.7529">AppSettings</text><rect fill="#E2E2F0" height="46.5938" rx="2.5" ry="2.5" style="stroke:#181818;stroke-width:0.5;" width="86" x="1590" y="36"/><text fill="#000000" font-family="FG Virgil" font-size="14" font-style="italic" lengthAdjust="spacing" textLength="72" x="1597" y="55.9951">&#171;domain&#187;</text><text fill="#000000" font-family="FG Virgil" font-size="14" lengthAdjust="spacing" textLength="49" x="1608.5" y="72.292">Course</text><rect fill="#E2E2F0" height="46.5938" rx="2.5" ry="2.5" style="stroke:#181818;stroke-width:0.5;" width="86" x="1590" y="740.7578"/><text fill="#000000" font-family="FG Virgil" font-size="14" font-style="italic" lengthAdjust="spacing" textLength="72" x="1597" y="760.7529">&#171;domain&#187;</text><text fill="#000000" font-family="FG Virgil" font-size="14" lengthAdjust="spacing" textLength="49" x="1608.5" y="777.0498">Course</text><rect fill="#E2E2F0" height="46.5938" rx="2.5" ry="2.5" style="stroke:#181818;stroke-width:0.5;" width="147" x="1686" y="36"/><text fill="#000000" font-family="FG Virgil" font-size="14" font-style="italic" lengthAdjust="spacing" textLength="68" x="1725.5" y="55.9951">&#171;factory&#187;</text><text fill="#000000" font-family="FG Virgil" font-size="14" lengthAdjust="spacing" textLength="133" x="1693" y="72.292">RepositoryFactory</text><rect fill="#E2E2F0" height="46.5938" rx="2.5" ry="2.5" style="stroke:#181818;stroke-width:0.5;" width="147" x="1686" y="740.7578"/><text fill="#000000" font-family="FG Virgil" font-size="14" font-style="italic" lengthAdjust="spacing" textLength="68" x="1725.5" y="760.7529">&#171;factory&#187;</text><text fill="#000000" font-family="FG Virgil" font-size="14" lengthAdjust="spacing" textLength="133" x="1693" y="777.0498">RepositoryFactory</text><text fill="#000000" font-family="FG Virgil" font-size="14" font-style="italic" lengthAdjust="spacing" textLength="90" x="1865.5" y="63.9951">&#171;repository&#187;</text><text fill="#000000" font-family="FG Virgil" font-size="14" lengthAdjust="spacing" textLength="135" x="1843" y="80.292">CoursesRepository</text><path d="M1895.5,15 C1895.5,5 1913.5,5 1913.5,5 C1913.5,5 1931.5,5 1931.5,15 L1931.5,41 C1931.5,51 1913.5,51 1913.5,51 C1913.5,51 1895.5,51 1895.5,41 L1895.5,15 " fill="#E2E2F0" style="stroke:#181818;stroke-width:1.5;"/><path d="M1895.5,15 C1895.5,25 1913.5,25 1913.5,25 C1913.5,25 1931.5,25 1931.5,15 " fill="none" style="stroke:#181818;stroke-width:1.5;"/><text fill="#000000" font-family="FG Virgil" font-size="14" font-style="italic" lengthAdjust="spacing" textLength="90" x="1865.5" y="753.7529">&#171;repository&#187;</text><text fill="#000000" font-family="FG Virgil" font-size="14" lengthAdjust="spacing" textLength="135" x="1843" y="770.0498">CoursesRepository</text><path d="M1895.5,783.3516 C1895.5,773.3516 1913.5,773.3516 1913.5,773.3516 C1913.5,773.3516 1931.5,773.3516 1931.5,783.3516 L1931.5,809.3516 C1931.5,819.3516 1913.5,819.3516 1913.5,819.3516 C1913.5,819.3516 1895.5,819.3516 1895.5,809.3516 L1895.5,783.3516 " fill="#E2E2F0" style="stroke:#181818;stroke-width:1.5;"/><path d="M1895.5,783.3516 C1895.5,793.3516 1913.5,793.3516 1913.5,793.3516 C1913.5,793.3516 1931.5,793.3516 1931.5,783.3516 " fill="none" style="stroke:#181818;stroke-width:1.5;"/><rect fill="#FFFFFF" height="609.0313" style="stroke:#181818;stroke-width:1.0;" width="10" x="216.5" y="114.7266"/><rect fill="#FFFFFF" height="550.7656" style="stroke:#181818;stroke-width:1.0;" width="10" x="414.5" y="172.9922"/><rect fill="#FFFFFF" height="30" style="stroke:#181818;stroke-width:1.0;" width="10" x="954.5" y="202.125"/><rect fill="#FFFFFF" height="442.3672" style="stroke:#181818;stroke-width:1.0;" width="10" x="1152" y="290.3906"/><rect fill="#FFFFFF" height="58.2656" style="stroke:#181818;stroke-width:1.0;" width="10" x="1345.5" y="362.6563"/><rect fill="#FFFFFF" height="57.1328" style="stroke:#181818;stroke-width:1.0;" width="10" x="1522.5" y="420.9219"/><rect fill="#FFFFFF" height="14" style="stroke:#181818;stroke-width:1.0;" width="10" x="1754.5" y="450.0547"/><rect fill="#FFFFFF" height="225.5703" style="stroke:#181818;stroke-width:1.0;" width="10" x="1754.5" y="507.1875"/><rect fill="#FFFFFF" height="86.0391" style="stroke:#181818;stroke-width:1.0;" width="10" x="1908.5" y="565.4531"/><polygon fill="#181818" points="204.5,110.7266,214.5,114.7266,204.5,118.7266,208.5,114.7266" style="stroke:#181818;stroke-width:1.0;"/><line style="stroke:#181818;stroke-width:1.0;stroke-dasharray:2.0,2.0;" x1="23.5" x2="210.5" y1="114.7266" y2="114.7266"/><text fill="#000000" font-family="FG Virgil" font-size="13" lengthAdjust="spacing" textLength="78" x="30.5" y="109.6606">List Courses</text><polygon fill="#181818" points="407.5,139.8594,417.5,143.8594,407.5,147.8594,411.5,143.8594" style="stroke:#181818;stroke-width:1.0;"/><line style="stroke:#181818;stroke-width:1.0;" x1="226.5" x2="413.5" y1="143.8594" y2="143.8594"/><text fill="#000000" font-family="FG Virgil" font-size="13" lengthAdjust="spacing" textLength="41" x="233.5" y="138.7935">create</text><polygon fill="#181818" points="402.5,168.9922,412.5,172.9922,402.5,176.9922,406.5,172.9922" style="stroke:#181818;stroke-width:1.0;"/><line style="stroke:#181818;stroke-width:1.0;" x1="226.5" x2="408.5" y1="172.9922" y2="172.9922"/><text fill="#000000" font-family="FG Virgil" font-size="13" lengthAdjust="spacing" textLength="121" x="233.5" y="167.9263">allCoursesByUser()</text><polygon fill="#181818" points="942.5,198.125,952.5,202.125,942.5,206.125,946.5,202.125" style="stroke:#181818;stroke-width:1.0;"/><line style="stroke:#181818;stroke-width:1.0;" x1="424.5" x2="948.5" y1="202.125" y2="202.125"/><text fill="#000000" font-family="FG Virgil" font-size="13" lengthAdjust="spacing" textLength="511" x="431.5" y="197.0591">ensureAuthenticatedUserHasAnyOf(ADMIN, POWER_USER, STUDENT, TEACHER)</text><polygon fill="#181818" points="1145,257.2578,1155,261.2578,1145,265.2578,1149,261.2578" style="stroke:#181818;stroke-width:1.0;"/><line style="stroke:#181818;stroke-width:1.0;stroke-dasharray:2.0,2.0;" x1="424.5" x2="1151" y1="261.2578" y2="261.2578"/><text fill="#000000" font-family="FG Virgil" font-size="13" lengthAdjust="spacing" textLength="41" x="431.5" y="256.1919">create</text><polygon fill="#181818" points="1140,286.3906,1150,290.3906,1140,294.3906,1144,290.3906" style="stroke:#181818;stroke-width:1.0;"/><line style="stroke:#181818;stroke-width:1.0;" x1="424.5" x2="1146" y1="290.3906" y2="290.3906"/><text fill="#000000" font-family="FG Virgil" font-size="13" lengthAdjust="spacing" textLength="139" x="431.5" y="285.3247">user: userOfSession()</text><polygon fill="#181818" points="435.5,300.3906,425.5,304.3906,435.5,308.3906,431.5,304.3906" style="stroke:#181818;stroke-width:1.0;"/><line style="stroke:#181818;stroke-width:1.0;stroke-dasharray:2.0,2.0;" x1="429.5" x2="1151" y1="304.3906" y2="304.3906"/><polygon fill="#181818" points="1140,329.5234,1150,333.5234,1140,337.5234,1144,333.5234" style="stroke:#181818;stroke-width:1.0;"/><line style="stroke:#181818;stroke-width:1.0;" x1="424.5" x2="1146" y1="333.5234" y2="333.5234"/><text fill="#000000" font-family="FG Virgil" font-size="13" lengthAdjust="spacing" textLength="149" x="431.5" y="328.4575">allCoursesByUser(user)</text><polygon fill="#181818" points="1333.5,358.6563,1343.5,362.6563,1333.5,366.6563,1337.5,362.6563" style="stroke:#181818;stroke-width:1.0;"/><line style="stroke:#181818;stroke-width:1.0;" x1="1162" x2="1339.5" y1="362.6563" y2="362.6563"/><text fill="#000000" font-family="FG Virgil" font-size="13" lengthAdjust="spacing" textLength="85" x="1169" y="357.5903">repositories()</text><polygon fill="#181818" points="1515.5,387.7891,1525.5,391.7891,1515.5,395.7891,1519.5,391.7891" style="stroke:#181818;stroke-width:1.0;"/><line style="stroke:#181818;stroke-width:1.0;" x1="1355.5" x2="1521.5" y1="391.7891" y2="391.7891"/><text fill="#000000" font-family="FG Virgil" font-size="13" lengthAdjust="spacing" textLength="64" x="1362.5" y="386.7231">instance()</text><polygon fill="#181818" points="1510.5,416.9219,1520.5,420.9219,1510.5,424.9219,1514.5,420.9219" style="stroke:#181818;stroke-width:1.0;"/><line style="stroke:#181818;stroke-width:1.0;" x1="1350.5" x2="1516.5" y1="420.9219" y2="420.9219"/><text fill="#000000" font-family="FG Virgil" font-size="13" lengthAdjust="spacing" textLength="148" x="1357.5" y="415.856">getRepositoryFactory()</text><polygon fill="#181818" points="1742.5,446.0547,1752.5,450.0547,1742.5,454.0547,1746.5,450.0547" style="stroke:#181818;stroke-width:1.0;"/><line style="stroke:#181818;stroke-width:1.0;stroke-dasharray:2.0,2.0;" x1="1532.5" x2="1748.5" y1="450.0547" y2="450.0547"/><text fill="#000000" font-family="FG Virgil" font-size="13" lengthAdjust="spacing" textLength="41" x="1539.5" y="444.9888">create</text><polygon fill="#181818" points="1543.5,460.0547,1533.5,464.0547,1543.5,468.0547,1539.5,464.0547" style="stroke:#181818;stroke-width:1.0;"/><line style="stroke:#181818;stroke-width:1.0;stroke-dasharray:2.0,2.0;" x1="1537.5" x2="1758.5" y1="464.0547" y2="464.0547"/><polygon fill="#181818" points="1173,474.0547,1163,478.0547,1173,482.0547,1169,478.0547" style="stroke:#181818;stroke-width:1.0;"/><line style="stroke:#181818;stroke-width:1.0;stroke-dasharray:2.0,2.0;" x1="1167" x2="1526.5" y1="478.0547" y2="478.0547"/><polygon fill="#181818" points="1742.5,503.1875,1752.5,507.1875,1742.5,511.1875,1746.5,507.1875" style="stroke:#181818;stroke-width:1.0;"/><line style="stroke:#181818;stroke-width:1.0;" x1="1162" x2="1748.5" y1="507.1875" y2="507.1875"/><text fill="#000000" font-family="FG Virgil" font-size="13" lengthAdjust="spacing" textLength="60" x="1169" y="502.1216">courses()</text><polygon fill="#181818" points="1901.5,532.3203,1911.5,536.3203,1901.5,540.3203,1905.5,536.3203" style="stroke:#181818;stroke-width:1.0;"/><line style="stroke:#181818;stroke-width:1.0;stroke-dasharray:2.0,2.0;" x1="1764.5" x2="1907.5" y1="536.3203" y2="536.3203"/><text fill="#000000" font-family="FG Virgil" font-size="13" lengthAdjust="spacing" textLength="60" x="1771.5" y="531.2544">courses()</text><polygon fill="#181818" points="1896.5,561.4531,1906.5,565.4531,1896.5,569.4531,1900.5,565.4531" style="stroke:#181818;stroke-width:1.0;"/><line style="stroke:#181818;stroke-width:1.0;" x1="1162" x2="1902.5" y1="565.4531" y2="565.4531"/><text fill="#000000" font-family="FG Virgil" font-size="13" lengthAdjust="spacing" textLength="272" x="1169" y="560.3872">coursesByUser = findCoursesByUser(user)</text><rect fill="none" height="67.0391" style="stroke:#000000;stroke-width:1.5;" width="165" x="1840" y="573.4531"/><path d="M1840,573.4531 L1908,573.4531 L1908,580.4531 L1898,590.4531 L1840,590.4531 L1840,573.4531 " fill="#EEEEEE" style="stroke:#000000;stroke-width:2.0;"/><text fill="#000000" font-family="FG Virgil" font-size="13" font-weight="bold" lengthAdjust="spacing" textLength="23" x="1853" y="587.52">ref</text><text fill="#000000" font-family="FG Virgil" font-size="12" lengthAdjust="spacing" textLength="153" x="1844" y="605.5918">allCoursesByManager_SD</text><text fill="#000000" font-family="FG Virgil" font-size="12" lengthAdjust="spacing" textLength="147" x="1847" y="619.5605">allCoursesByStudent_SD</text><text fill="#000000" font-family="FG Virgil" font-size="12" lengthAdjust="spacing" textLength="150" x="1847.5" y="633.5293">allCoursesByTeacher_SD</text><polygon fill="#181818" points="1173,647.4922,1163,651.4922,1173,655.4922,1169,651.4922" style="stroke:#181818;stroke-width:1.0;"/><line style="stroke:#181818;stroke-width:1.0;stroke-dasharray:2.0,2.0;" x1="1167" x2="1912.5" y1="651.4922" y2="651.4922"/><polygon fill="#181818" points="435.5,661.4922,425.5,665.4922,435.5,669.4922,431.5,665.4922" style="stroke:#181818;stroke-width:1.0;"/><line style="stroke:#181818;stroke-width:1.0;stroke-dasharray:2.0,2.0;" x1="429.5" x2="1151" y1="665.4922" y2="665.4922"/><polygon fill="#181818" points="237.5,690.625,227.5,694.625,237.5,698.625,233.5,694.625" style="stroke:#181818;stroke-width:1.0;"/><line style="stroke:#181818;stroke-width:1.0;stroke-dasharray:2.0,2.0;" x1="231.5" x2="413.5" y1="694.625" y2="694.625"/><text fill="#000000" font-family="FG Virgil" font-size="13" lengthAdjust="spacing" textLength="95" x="243.5" y="689.5591">coursesByUser</text><polygon fill="#181818" points="34.5,719.7578,24.5,723.7578,34.5,727.7578,30.5,723.7578" style="stroke:#181818;stroke-width:1.0;"/><line style="stroke:#181818;stroke-width:1.0;stroke-dasharray:2.0,2.0;" x1="28.5" x2="220.5" y1="723.7578" y2="723.7578"/><text fill="#000000" font-family="FG Virgil" font-size="13" lengthAdjust="spacing" textLength="169" x="40.5" y="718.6919">shows courses list by user</text><!--SRC=[XLLDRzim3BtxL_2s3cZQk-4LoDfq3R1-84wsou12jUb4g2qRafmk_VMZxCIY4plpmOZCznwVI4hvih6s2g-lgrmeMnVvLL8Mr-PTgafeKLnjR947tH8sGgKVMbgB2ZAH6sInIYJlOesntUK86XFBOYbceixjVQdiaoWGxd_0BwdNackRZKZB3wdMU-L09BRKi3AeGHYOkbL0K2iJMP5P-2cDlIrhRT1ytpdOQkw0z8wYIgD1POMLfRgvEK-x9LUwpFCs3rj5aQYgN2P3AjFQRaejFvjOZ7eh4mJ75nJuF4jjapyAHTKgoEI1JUIa2SNRv4IWf_22sj0kK2NexE9VwyZigwk0NnrRhweOhQLA6qSpQ0ViUJUabPQ5aCVRM61L6abDsTqtdTevok5d56NjBoAbmeetGKBxgdkYOx1L5EbkuROSD3s7oUI6cXesZJjekE6GMs6H8W7GGrqdc6zU28b6YWSZKP7dlI6u-De0ErcFTGfiA4YdQN48g4ojqGq2DT5r2bEdz23CLEsUiulftUFywH9Udd_F5g-hUBQuX7YvkfizBIzXEPlUFimMRT9UuaQy-vpYI80x8aj-SFp6-wOveZQk1ExzdCLe38qOxT_NjCC6Z3RfLV2C-abfNIA_KuO5H-LZ6q8t0HBDnK1v63hmalHm6LAbgGv1AcC5VM12Oz0rsfE1FgAnNd0N7D81tA7Y0Let1TmhTqqQ9Ez1lU3XO4rQmsF6XgY7tAoh8smd77HbPQtdnjlM3lNcVxvzWOTaJb8EmDk1Wc-GIPMU7JBkomi56ZCejoJ1hfqGUYFRNipwDRw3Fue7ObkdTD9F0qkguAPXzFAp5EFbPzLdDaTgqZ-177Hq7T1zTrGpVrXMSq8qDsj8_xdbn-6UDv2x2_PjrrmCx70nYomx-xgQ_mC0]--></g></svg>