<?xml version="1.0" encoding="UTF-8" standalone="no"?><svg xmlns="http://www.w3.org/2000/svg" xmlns:xlink="http://www.w3.org/1999/xlink" contentStyleType="text/css" height="355px" preserveAspectRatio="none" style="width:717px;height:355px;background:#FFFFFF;" version="1.1" viewBox="0 0 717 355" width="717px" zoomAndPan="magnify"><defs/><g><rect fill="#FFFFFF" height="130.4063" style="stroke:#181818;stroke-width:1.0;" width="10" x="332.5" y="118.5703"/><rect fill="#FFFFFF" height="30.3516" style="stroke:#181818;stroke-width:1.0;" width="10" x="655.5" y="179.2734"/><line style="stroke:#181818;stroke-width:0.5;stroke-dasharray:5.0,5.0;" x1="121" x2="121" y1="86.2188" y2="257.9766"/><line style="stroke:#181818;stroke-width:0.5;stroke-dasharray:5.0,5.0;" x1="337" x2="337" y1="86.2188" y2="257.9766"/><line style="stroke:#181818;stroke-width:0.5;stroke-dasharray:5.0,5.0;" x1="660.5" x2="660.5" y1="86.2188" y2="257.9766"/><rect fill="#E2E2F0" height="49.2188" rx="2.5" ry="2.5" style="stroke:#181818;stroke-width:0.5;" width="232" x="5" y="36"/><text fill="#000000" font-family="FG Virgil" font-size="14" font-style="italic" lengthAdjust="spacing" textLength="84" x="79" y="57.5332">«application»</text><text fill="#000000" font-family="FG Virgil" font-size="14" lengthAdjust="spacing" textLength="218" x="12" y="75.1426">UndoLastChangeInPostItController</text><rect fill="#E2E2F0" height="49.2188" rx="2.5" ry="2.5" style="stroke:#181818;stroke-width:0.5;" width="232" x="5" y="256.9766"/><text fill="#000000" font-family="FG Virgil" font-size="14" font-style="italic" lengthAdjust="spacing" textLength="84" x="79" y="278.5098">«application»</text><text fill="#000000" font-family="FG Virgil" font-size="14" lengthAdjust="spacing" textLength="218" x="12" y="296.1191">UndoLastChangeInPostItController</text><rect fill="#E2E2F0" height="49.2188" rx="2.5" ry="2.5" style="stroke:#181818;stroke-width:0.5;" width="181" x="247" y="36"/><text fill="#000000" font-family="FG Virgil" font-size="14" font-style="italic" lengthAdjust="spacing" textLength="84" x="295.5" y="57.5332">«application»</text><text fill="#000000" font-family="FG Virgil" font-size="14" lengthAdjust="spacing" textLength="167" x="254" y="75.1426">BoardManagementService</text><rect fill="#E2E2F0" height="49.2188" rx="2.5" ry="2.5" style="stroke:#181818;stroke-width:0.5;" width="181" x="247" y="256.9766"/><text fill="#000000" font-family="FG Virgil" font-size="14" font-style="italic" lengthAdjust="spacing" textLength="84" x="295.5" y="278.5098">«application»</text><text fill="#000000" font-family="FG Virgil" font-size="14" lengthAdjust="spacing" textLength="167" x="254" y="296.1191">BoardManagementService</text><text fill="#000000" font-family="FG Virgil" font-size="14" font-style="italic" lengthAdjust="spacing" textLength="79" x="618" y="65.5332">«repository»</text><text fill="#000000" font-family="FG Virgil" font-size="14" lengthAdjust="spacing" textLength="106" x="604.5" y="83.1426">BoardRepository</text><path d="M642.5,15 C642.5,5 660.5,5 660.5,5 C660.5,5 678.5,5 678.5,15 L678.5,41 C678.5,51 660.5,51 660.5,51 C660.5,51 642.5,51 642.5,41 L642.5,15 " fill="#E2E2F0" style="stroke:#181818;stroke-width:1.5;"/><path d="M642.5,15 C642.5,25 660.5,25 660.5,25 C660.5,25 678.5,25 678.5,15 " fill="none" style="stroke:#181818;stroke-width:1.5;"/><text fill="#000000" font-family="FG Virgil" font-size="14" font-style="italic" lengthAdjust="spacing" textLength="79" x="618" y="271.5098">«repository»</text><text fill="#000000" font-family="FG Virgil" font-size="14" lengthAdjust="spacing" textLength="106" x="604.5" y="289.1191">BoardRepository</text><path d="M642.5,302.1953 C642.5,292.1953 660.5,292.1953 660.5,292.1953 C660.5,292.1953 678.5,292.1953 678.5,302.1953 L678.5,328.1953 C678.5,338.1953 660.5,338.1953 660.5,338.1953 C660.5,338.1953 642.5,338.1953 642.5,328.1953 L642.5,302.1953 " fill="#E2E2F0" style="stroke:#181818;stroke-width:1.5;"/><path d="M642.5,302.1953 C642.5,312.1953 660.5,312.1953 660.5,312.1953 C660.5,312.1953 678.5,312.1953 678.5,302.1953 " fill="none" style="stroke:#181818;stroke-width:1.5;"/><rect fill="#FFFFFF" height="130.4063" style="stroke:#181818;stroke-width:1.0;" width="10" x="332.5" y="118.5703"/><rect fill="#FFFFFF" height="30.3516" style="stroke:#181818;stroke-width:1.0;" width="10" x="655.5" y="179.2734"/><polygon fill="#181818" points="320.5,114.5703,330.5,118.5703,320.5,122.5703,324.5,118.5703" style="stroke:#181818;stroke-width:1.0;"/><line style="stroke:#181818;stroke-width:1.0;" x1="121" x2="326.5" y1="118.5703" y2="118.5703"/><text fill="#000000" font-family="FG Virgil" font-size="13" lengthAdjust="spacing" textLength="44" x="128" y="113.7139">create()</text><polygon fill="#181818" points="320.5,144.9219,330.5,148.9219,320.5,152.9219,324.5,148.9219" style="stroke:#181818;stroke-width:1.0;"/><line style="stroke:#181818;stroke-width:1.0;" x1="121" x2="326.5" y1="148.9219" y2="148.9219"/><text fill="#000000" font-family="FG Virgil" font-size="13" lengthAdjust="spacing" textLength="90" x="128" y="144.0654">boardsByUser()</text><polygon fill="#181818" points="643.5,175.2734,653.5,179.2734,643.5,183.2734,647.5,179.2734" style="stroke:#181818;stroke-width:1.0;"/><line style="stroke:#181818;stroke-width:1.0;" x1="342.5" x2="649.5" y1="179.2734" y2="179.2734"/><text fill="#000000" font-family="FG Virgil" font-size="13" lengthAdjust="spacing" textLength="294" x="349.5" y="174.417">boards = findBySystemUserWithWritePermission()</text><polygon fill="#181818" points="353.5,205.625,343.5,209.625,353.5,213.625,349.5,209.625" style="stroke:#181818;stroke-width:1.0;"/><line style="stroke:#181818;stroke-width:1.0;stroke-dasharray:2.0,2.0;" x1="347.5" x2="659.5" y1="209.625" y2="209.625"/><text fill="#000000" font-family="FG Virgil" font-size="13" lengthAdjust="spacing" textLength="39" x="359.5" y="204.7686">boards</text><polygon fill="#181818" points="132,235.9766,122,239.9766,132,243.9766,128,239.9766" style="stroke:#181818;stroke-width:1.0;"/><line style="stroke:#181818;stroke-width:1.0;stroke-dasharray:2.0,2.0;" x1="126" x2="331.5" y1="239.9766" y2="239.9766"/><text fill="#000000" font-family="FG Virgil" font-size="13" lengthAdjust="spacing" textLength="39" x="138" y="235.1201">boards</text><!--MD5=[95361179ec54ed5752e06a0e417f5fa8]
@startuml
'http://plantuml.com/skinparam.html
skinparam handwritten false
skinparam packageStyle rect
skinparam defaultFontName FG Virgil
skinparam shadowing false


participant UndoLastChangeInPostItController as Controller <<application>>
participant BoardManagementService as boardSvc <<application>>
database BoardRepository as Repository <<repository>>

Controller -> boardSvc : create()
activate boardSvc
Controller -> boardSvc : boardsByUser()
boardSvc -> Repository: boards = findBySystemUserWithWritePermission()
activate Repository

Repository - -> boardSvc : boards
deactivate Repository
boardSvc - -> Controller : boards
deactivate Controller

@enduml

@startuml
skinparam handwritten false
skinparam packageStyle rect
skinparam defaultFontName FG Virgil
skinparam shadowing false


participant UndoLastChangeInPostItController as Controller <<application>>
participant BoardManagementService as boardSvc <<application>>
database BoardRepository as Repository <<repository>>

Controller -> boardSvc : create()
activate boardSvc
Controller -> boardSvc : boardsByUser()
boardSvc -> Repository: boards = findBySystemUserWithWritePermission()
activate Repository

Repository - -> boardSvc : boards
deactivate Repository
boardSvc - -> Controller : boards
deactivate Controller

@enduml

PlantUML version 1.2022.12(Sun Oct 23 19:12:26 BST 2022)
(GPL source distribution)
Java Runtime: OpenJDK Runtime Environment
JVM: OpenJDK 64-Bit Server VM
Default Encoding: Cp1252
Language: pt
Country: PT
--></g></svg>