<?xml version="1.0" encoding="us-ascii" standalone="no"?><svg xmlns="http://www.w3.org/2000/svg" xmlns:xlink="http://www.w3.org/1999/xlink" contentStyleType="text/css" height="911px" preserveAspectRatio="none" style="width:2397px;height:911px;background:#FFFFFF;" version="1.1" viewBox="0 0 2397 911" width="2397px" zoomAndPan="magnify"><defs/><g><rect fill="#FFFFFF" height="684.6563" style="stroke:#181818;stroke-width:1.0;" width="10" x="312.5" y="114.7266"/><rect fill="#FFFFFF" height="612.3906" style="stroke:#181818;stroke-width:1.0;" width="10" x="1078.5" y="172.9922"/><rect fill="#FFFFFF" height="30" style="stroke:#181818;stroke-width:1.0;" width="10" x="1404.5" y="202.125"/><rect fill="#FFFFFF" height="58.2656" style="stroke:#181818;stroke-width:1.0;" width="10" x="1726.5" y="713.1172"/><rect fill="#FFFFFF" height="30" style="stroke:#181818;stroke-width:1.0;" width="10" x="2022" y="290.3906"/><rect fill="#FFFFFF" height="58.2656" style="stroke:#181818;stroke-width:1.0;" width="10" x="2184" y="349.5234"/><rect fill="#FFFFFF" height="363.5938" style="stroke:#181818;stroke-width:1.0;" width="10" x="2329.5" y="407.7891"/><line style="stroke:#181818;stroke-width:0.5;stroke-dasharray:5.0,5.0;" x1="23" x2="23" y1="83.5938" y2="817.3828"/><line style="stroke:#181818;stroke-width:0.5;stroke-dasharray:5.0,5.0;" x1="317.5" x2="317.5" y1="83.5938" y2="817.3828"/><line style="stroke:#181818;stroke-width:0.5;stroke-dasharray:5.0,5.0;" x1="1083.5" x2="1083.5" y1="83.5938" y2="817.3828"/><line style="stroke:#181818;stroke-width:0.5;stroke-dasharray:5.0,5.0;" x1="1409" x2="1409" y1="83.5938" y2="817.3828"/><line style="stroke:#181818;stroke-width:0.5;stroke-dasharray:5.0,5.0;" x1="1731.5" x2="1731.5" y1="83.5938" y2="817.3828"/><line style="stroke:#181818;stroke-width:0.5;stroke-dasharray:5.0,5.0;" x1="1889.5" x2="1889.5" y1="83.5938" y2="817.3828"/><line style="stroke:#181818;stroke-width:0.5;stroke-dasharray:5.0,5.0;" x1="2026.5" x2="2026.5" y1="83.5938" y2="817.3828"/><line style="stroke:#181818;stroke-width:0.5;stroke-dasharray:5.0,5.0;" x1="2188.5" x2="2188.5" y1="83.5938" y2="817.3828"/><line style="stroke:#181818;stroke-width:0.5;stroke-dasharray:5.0,5.0;" x1="2334.5" x2="2334.5" y1="83.5938" y2="817.3828"/><text fill="#000000" font-family="FG Virgil" font-size="14" lengthAdjust="spacing" textLength="31" x="5" y="80.292">User</text><ellipse cx="23.5" cy="15.7969" fill="#E2E2F0" rx="8" ry="8" style="stroke:#181818;stroke-width:0.5;"/><path d="M23.5,23.7969 L23.5,50.7969 M10.5,31.7969 L36.5,31.7969 M23.5,50.7969 L10.5,65.7969 M23.5,50.7969 L36.5,65.7969 " fill="none" style="stroke:#181818;stroke-width:0.5;"/><text fill="#000000" font-family="FG Virgil" font-size="14" lengthAdjust="spacing" textLength="31" x="5" y="829.3779">User</text><ellipse cx="23.5" cy="841.1797" fill="#E2E2F0" rx="8" ry="8" style="stroke:#181818;stroke-width:0.5;"/><path d="M23.5,849.1797 L23.5,876.1797 M10.5,857.1797 L36.5,857.1797 M23.5,876.1797 L10.5,891.1797 M23.5,876.1797 L36.5,891.1797 " fill="none" style="stroke:#181818;stroke-width:0.5;"/><rect fill="#E2E2F0" height="46.5938" rx="2.5" ry="2.5" style="stroke:#181818;stroke-width:0.5;" width="200" x="217.5" y="36"/><text fill="#000000" font-family="FG Virgil" font-size="14" font-style="italic" lengthAdjust="spacing" textLength="108" x="263.5" y="55.9951">&#171;presentation&#187;</text><text fill="#000000" font-family="FG Virgil" font-size="14" lengthAdjust="spacing" textLength="186" x="224.5" y="72.292">UpdateAutomaticExamsUI</text><rect fill="#E2E2F0" height="46.5938" rx="2.5" ry="2.5" style="stroke:#181818;stroke-width:0.5;" width="200" x="217.5" y="816.3828"/><text fill="#000000" font-family="FG Virgil" font-size="14" font-style="italic" lengthAdjust="spacing" textLength="108" x="263.5" y="836.3779">&#171;presentation&#187;</text><text fill="#000000" font-family="FG Virgil" font-size="14" lengthAdjust="spacing" textLength="186" x="224.5" y="852.6748">UpdateAutomaticExamsUI</text><rect fill="#E2E2F0" height="46.5938" rx="2.5" ry="2.5" style="stroke:#181818;stroke-width:0.5;" width="260" x="953.5" y="36"/><text fill="#000000" font-family="FG Virgil" font-size="14" font-style="italic" lengthAdjust="spacing" textLength="97" x="1035" y="55.9951">&#171;application&#187;</text><text fill="#000000" font-family="FG Virgil" font-size="14" lengthAdjust="spacing" textLength="246" x="960.5" y="72.292">UpdateAutomaticExamsController</text><rect fill="#E2E2F0" height="46.5938" rx="2.5" ry="2.5" style="stroke:#181818;stroke-width:0.5;" width="260" x="953.5" y="816.3828"/><text fill="#000000" font-family="FG Virgil" font-size="14" font-style="italic" lengthAdjust="spacing" textLength="97" x="1035" y="836.3779">&#171;application&#187;</text><text fill="#000000" font-family="FG Virgil" font-size="14" lengthAdjust="spacing" textLength="246" x="960.5" y="852.6748">UpdateAutomaticExamsController</text><rect fill="#E2E2F0" height="46.5938" rx="2.5" ry="2.5" style="stroke:#181818;stroke-width:0.5;" width="165" x="1327" y="36"/><text fill="#000000" font-family="FG Virgil" font-size="14" font-style="italic" lengthAdjust="spacing" textLength="97" x="1361" y="55.9951">&#171;application&#187;</text><text fill="#000000" font-family="FG Virgil" font-size="14" lengthAdjust="spacing" textLength="151" x="1334" y="72.292">AuthorizationService</text><rect fill="#E2E2F0" height="46.5938" rx="2.5" ry="2.5" style="stroke:#181818;stroke-width:0.5;" width="165" x="1327" y="816.3828"/><text fill="#000000" font-family="FG Virgil" font-size="14" font-style="italic" lengthAdjust="spacing" textLength="97" x="1361" y="836.3779">&#171;application&#187;</text><text fill="#000000" font-family="FG Virgil" font-size="14" lengthAdjust="spacing" textLength="151" x="1334" y="852.6748">AuthorizationService</text><rect fill="#E2E2F0" height="46.5938" rx="2.5" ry="2.5" style="stroke:#181818;stroke-width:0.5;" width="200" x="1631.5" y="36"/><text fill="#000000" font-family="FG Virgil" font-size="14" font-style="italic" lengthAdjust="spacing" textLength="97" x="1683" y="55.9951">&#171;application&#187;</text><text fill="#000000" font-family="FG Virgil" font-size="14" lengthAdjust="spacing" textLength="186" x="1638.5" y="72.292">ExamManagementService</text><rect fill="#E2E2F0" height="46.5938" rx="2.5" ry="2.5" style="stroke:#181818;stroke-width:0.5;" width="200" x="1631.5" y="816.3828"/><text fill="#000000" font-family="FG Virgil" font-size="14" font-style="italic" lengthAdjust="spacing" textLength="97" x="1683" y="836.3779">&#171;application&#187;</text><text fill="#000000" font-family="FG Virgil" font-size="14" lengthAdjust="spacing" textLength="186" x="1638.5" y="852.6748">ExamManagementService</text><rect fill="#E2E2F0" height="46.5938" rx="2.5" ry="2.5" style="stroke:#181818;stroke-width:0.5;" width="97" x="1841.5" y="36"/><text fill="#000000" font-family="FG Virgil" font-size="14" font-style="italic" lengthAdjust="spacing" textLength="72" x="1854" y="55.9951">&#171;domain&#187;</text><text fill="#000000" font-family="FG Virgil" font-size="14" lengthAdjust="spacing" textLength="83" x="1848.5" y="72.292">exam:Exam</text><rect fill="#E2E2F0" height="46.5938" rx="2.5" ry="2.5" style="stroke:#181818;stroke-width:0.5;" width="97" x="1841.5" y="816.3828"/><text fill="#000000" font-family="FG Virgil" font-size="14" font-style="italic" lengthAdjust="spacing" textLength="72" x="1854" y="836.3779">&#171;domain&#187;</text><text fill="#000000" font-family="FG Virgil" font-size="14" lengthAdjust="spacing" textLength="83" x="1848.5" y="852.6748">exam:Exam</text><rect fill="#E2E2F0" height="46.5938" rx="2.5" ry="2.5" style="stroke:#181818;stroke-width:0.5;" width="157" x="1948.5" y="36"/><text fill="#000000" font-family="FG Virgil" font-size="14" font-style="italic" lengthAdjust="spacing" textLength="100" x="1977" y="55.9951">&#171;persistence&#187;</text><text fill="#000000" font-family="FG Virgil" font-size="14" lengthAdjust="spacing" textLength="143" x="1955.5" y="72.292">PersistenceContext</text><rect fill="#E2E2F0" height="46.5938" rx="2.5" ry="2.5" style="stroke:#181818;stroke-width:0.5;" width="157" x="1948.5" y="816.3828"/><text fill="#000000" font-family="FG Virgil" font-size="14" font-style="italic" lengthAdjust="spacing" textLength="100" x="1977" y="836.3779">&#171;persistence&#187;</text><text fill="#000000" font-family="FG Virgil" font-size="14" lengthAdjust="spacing" textLength="143" x="1955.5" y="852.6748">PersistenceContext</text><rect fill="#E2E2F0" height="46.5938" rx="2.5" ry="2.5" style="stroke:#181818;stroke-width:0.5;" width="147" x="2115.5" y="36"/><text fill="#000000" font-family="FG Virgil" font-size="14" font-style="italic" lengthAdjust="spacing" textLength="68" x="2155" y="55.9951">&#171;factory&#187;</text><text fill="#000000" font-family="FG Virgil" font-size="14" lengthAdjust="spacing" textLength="133" x="2122.5" y="72.292">RepositoryFactory</text><rect fill="#E2E2F0" height="46.5938" rx="2.5" ry="2.5" style="stroke:#181818;stroke-width:0.5;" width="147" x="2115.5" y="816.3828"/><text fill="#000000" font-family="FG Virgil" font-size="14" font-style="italic" lengthAdjust="spacing" textLength="68" x="2155" y="836.3779">&#171;factory&#187;</text><text fill="#000000" font-family="FG Virgil" font-size="14" lengthAdjust="spacing" textLength="133" x="2122.5" y="852.6748">RepositoryFactory</text><text fill="#000000" font-family="FG Virgil" font-size="14" font-style="italic" lengthAdjust="spacing" textLength="90" x="2286.5" y="63.9951">&#171;repository&#187;</text><text fill="#000000" font-family="FG Virgil" font-size="14" lengthAdjust="spacing" textLength="118" x="2272.5" y="80.292">ExamRepository</text><path d="M2316.5,15 C2316.5,5 2334.5,5 2334.5,5 C2334.5,5 2352.5,5 2352.5,15 L2352.5,41 C2352.5,51 2334.5,51 2334.5,51 C2334.5,51 2316.5,51 2316.5,41 L2316.5,15 " fill="#E2E2F0" style="stroke:#181818;stroke-width:1.5;"/><path d="M2316.5,15 C2316.5,25 2334.5,25 2334.5,25 C2334.5,25 2352.5,25 2352.5,15 " fill="none" style="stroke:#181818;stroke-width:1.5;"/><text fill="#000000" font-family="FG Virgil" font-size="14" font-style="italic" lengthAdjust="spacing" textLength="90" x="2286.5" y="829.3779">&#171;repository&#187;</text><text fill="#000000" font-family="FG Virgil" font-size="14" lengthAdjust="spacing" textLength="118" x="2272.5" y="845.6748">ExamRepository</text><path d="M2316.5,858.9766 C2316.5,848.9766 2334.5,848.9766 2334.5,848.9766 C2334.5,848.9766 2352.5,848.9766 2352.5,858.9766 L2352.5,884.9766 C2352.5,894.9766 2334.5,894.9766 2334.5,894.9766 C2334.5,894.9766 2316.5,894.9766 2316.5,884.9766 L2316.5,858.9766 " fill="#E2E2F0" style="stroke:#181818;stroke-width:1.5;"/><path d="M2316.5,858.9766 C2316.5,868.9766 2334.5,868.9766 2334.5,868.9766 C2334.5,868.9766 2352.5,868.9766 2352.5,858.9766 " fill="none" style="stroke:#181818;stroke-width:1.5;"/><rect fill="#FFFFFF" height="684.6563" style="stroke:#181818;stroke-width:1.0;" width="10" x="312.5" y="114.7266"/><rect fill="#FFFFFF" height="612.3906" style="stroke:#181818;stroke-width:1.0;" width="10" x="1078.5" y="172.9922"/><rect fill="#FFFFFF" height="30" style="stroke:#181818;stroke-width:1.0;" width="10" x="1404.5" y="202.125"/><rect fill="#FFFFFF" height="58.2656" style="stroke:#181818;stroke-width:1.0;" width="10" x="1726.5" y="713.1172"/><rect fill="#FFFFFF" height="30" style="stroke:#181818;stroke-width:1.0;" width="10" x="2022" y="290.3906"/><rect fill="#FFFFFF" height="58.2656" style="stroke:#181818;stroke-width:1.0;" width="10" x="2184" y="349.5234"/><rect fill="#FFFFFF" height="363.5938" style="stroke:#181818;stroke-width:1.0;" width="10" x="2329.5" y="407.7891"/><polygon fill="#181818" points="300.5,110.7266,310.5,114.7266,300.5,118.7266,304.5,114.7266" style="stroke:#181818;stroke-width:1.0;"/><line style="stroke:#181818;stroke-width:1.0;" x1="23.5" x2="306.5" y1="114.7266" y2="114.7266"/><text fill="#000000" font-family="FG Virgil" font-size="13" lengthAdjust="spacing" textLength="223" x="30.5" y="109.6606">updateAutomaticFormativeExam()</text><polygon fill="#181818" points="1071.5,139.8594,1081.5,143.8594,1071.5,147.8594,1075.5,143.8594" style="stroke:#181818;stroke-width:1.0;"/><line style="stroke:#181818;stroke-width:1.0;stroke-dasharray:2.0,2.0;" x1="322.5" x2="1077.5" y1="143.8594" y2="143.8594"/><text fill="#000000" font-family="FG Virgil" font-size="13" lengthAdjust="spacing" textLength="41" x="329.5" y="138.7935">create</text><polygon fill="#181818" points="1066.5,168.9922,1076.5,172.9922,1066.5,176.9922,1070.5,172.9922" style="stroke:#181818;stroke-width:1.0;"/><line style="stroke:#181818;stroke-width:1.0;" x1="322.5" x2="1072.5" y1="172.9922" y2="172.9922"/><text fill="#000000" font-family="FG Virgil" font-size="13" lengthAdjust="spacing" textLength="196" x="329.5" y="167.9263">listAutomaticFormativeExam()</text><polygon fill="#181818" points="1392.5,198.125,1402.5,202.125,1392.5,206.125,1396.5,202.125" style="stroke:#181818;stroke-width:1.0;"/><line style="stroke:#181818;stroke-width:1.0;" x1="1088.5" x2="1398.5" y1="202.125" y2="202.125"/><text fill="#000000" font-family="FG Virgil" font-size="13" lengthAdjust="spacing" textLength="297" x="1095.5" y="197.0591">ensureAuthenticatedUserHasAnyOf(TEACHER)</text><polygon fill="#181818" points="1719.5,257.2578,1729.5,261.2578,1719.5,265.2578,1723.5,261.2578" style="stroke:#181818;stroke-width:1.0;"/><line style="stroke:#181818;stroke-width:1.0;" x1="1088.5" x2="1725.5" y1="261.2578" y2="261.2578"/><text fill="#000000" font-family="FG Virgil" font-size="13" lengthAdjust="spacing" textLength="192" x="1095.5" y="256.1919">allAutomaticFormativeExam()</text><polygon fill="#181818" points="2010,286.3906,2020,290.3906,2010,294.3906,2014,290.3906" style="stroke:#181818;stroke-width:1.0;"/><line style="stroke:#181818;stroke-width:1.0;" x1="1731.5" x2="2016" y1="290.3906" y2="290.3906"/><text fill="#000000" font-family="FG Virgil" font-size="13" lengthAdjust="spacing" textLength="85" x="1738.5" y="285.3247">repositories()</text><polygon fill="#181818" points="2172,345.5234,2182,349.5234,2172,353.5234,2176,349.5234" style="stroke:#181818;stroke-width:1.0;"/><line style="stroke:#181818;stroke-width:1.0;" x1="1731.5" x2="2178" y1="349.5234" y2="349.5234"/><text fill="#000000" font-family="FG Virgil" font-size="13" lengthAdjust="spacing" textLength="54" x="1738.5" y="344.4575">exams()</text><polygon fill="#181818" points="2322.5,374.6563,2332.5,378.6563,2322.5,382.6563,2326.5,378.6563" style="stroke:#181818;stroke-width:1.0;"/><line style="stroke:#181818;stroke-width:1.0;" x1="2194" x2="2328.5" y1="378.6563" y2="378.6563"/><text fill="#000000" font-family="FG Virgil" font-size="13" lengthAdjust="spacing" textLength="41" x="2201" y="373.5903">create</text><polygon fill="#181818" points="1742.5,403.7891,1732.5,407.7891,1742.5,411.7891,1738.5,407.7891" style="stroke:#181818;stroke-width:1.0;"/><line style="stroke:#181818;stroke-width:1.0;" x1="1736.5" x2="2188" y1="407.7891" y2="407.7891"/><text fill="#000000" font-family="FG Virgil" font-size="13" lengthAdjust="spacing" textLength="106" x="1748.5" y="402.7231">examRepository</text><polygon fill="#181818" points="1099.5,417.7891,1089.5,421.7891,1099.5,425.7891,1095.5,421.7891" style="stroke:#181818;stroke-width:1.0;"/><line style="stroke:#181818;stroke-width:1.0;stroke-dasharray:2.0,2.0;" x1="1093.5" x2="1730.5" y1="421.7891" y2="421.7891"/><polygon fill="#181818" points="2317.5,446.9219,2327.5,450.9219,2317.5,454.9219,2321.5,450.9219" style="stroke:#181818;stroke-width:1.0;"/><line style="stroke:#181818;stroke-width:1.0;" x1="1731.5" x2="2323.5" y1="450.9219" y2="450.9219"/><text fill="#000000" font-family="FG Virgil" font-size="13" lengthAdjust="spacing" textLength="192" x="1738.5" y="445.856">allAutomaticFormativeExam()</text><polygon fill="#181818" points="1742.5,476.0547,1732.5,480.0547,1742.5,484.0547,1738.5,480.0547" style="stroke:#181818;stroke-width:1.0;"/><line style="stroke:#181818;stroke-width:1.0;" x1="1736.5" x2="2328.5" y1="480.0547" y2="480.0547"/><text fill="#000000" font-family="FG Virgil" font-size="13" lengthAdjust="spacing" textLength="44" x="1748.5" y="474.9888">exams</text><polygon fill="#181818" points="1099.5,505.1875,1089.5,509.1875,1099.5,513.1875,1095.5,509.1875" style="stroke:#181818;stroke-width:1.0;"/><line style="stroke:#181818;stroke-width:1.0;stroke-dasharray:2.0,2.0;" x1="1093.5" x2="1730.5" y1="509.1875" y2="509.1875"/><text fill="#000000" font-family="FG Virgil" font-size="13" lengthAdjust="spacing" textLength="44" x="1105.5" y="504.1216">exams</text><polygon fill="#181818" points="333.5,534.3203,323.5,538.3203,333.5,542.3203,329.5,538.3203" style="stroke:#181818;stroke-width:1.0;"/><line style="stroke:#181818;stroke-width:1.0;stroke-dasharray:2.0,2.0;" x1="327.5" x2="1077.5" y1="538.3203" y2="538.3203"/><text fill="#000000" font-family="FG Virgil" font-size="13" lengthAdjust="spacing" textLength="44" x="339.5" y="533.2544">exams</text><polygon fill="#181818" points="34.5,563.4531,24.5,567.4531,34.5,571.4531,30.5,567.4531" style="stroke:#181818;stroke-width:1.0;"/><line style="stroke:#181818;stroke-width:1.0;stroke-dasharray:2.0,2.0;" x1="28.5" x2="311.5" y1="567.4531" y2="567.4531"/><text fill="#000000" font-family="FG Virgil" font-size="13" lengthAdjust="spacing" textLength="265" x="40.5" y="562.3872">shows list of Automatic formative exams</text><polygon fill="#181818" points="300.5,592.5859,310.5,596.5859,300.5,600.5859,304.5,596.5859" style="stroke:#181818;stroke-width:1.0;"/><line style="stroke:#181818;stroke-width:1.0;" x1="23.5" x2="306.5" y1="596.5859" y2="596.5859"/><text fill="#000000" font-family="FG Virgil" font-size="13" lengthAdjust="spacing" textLength="74" x="30.5" y="591.52">choose one</text><polygon fill="#181818" points="34.5,621.7188,24.5,625.7188,34.5,629.7188,30.5,625.7188" style="stroke:#181818;stroke-width:1.0;"/><line style="stroke:#181818;stroke-width:1.0;stroke-dasharray:2.0,2.0;" x1="28.5" x2="311.5" y1="625.7188" y2="625.7188"/><text fill="#000000" font-family="FG Virgil" font-size="13" lengthAdjust="spacing" textLength="145" x="40.5" y="620.6528">shows fields to modify</text><polygon fill="#181818" points="300.5,650.8516,310.5,654.8516,300.5,658.8516,304.5,654.8516" style="stroke:#181818;stroke-width:1.0;"/><line style="stroke:#181818;stroke-width:1.0;" x1="23.5" x2="306.5" y1="654.8516" y2="654.8516"/><text fill="#000000" font-family="FG Virgil" font-size="13" lengthAdjust="spacing" textLength="227" x="30.5" y="649.7856">choose one and write the new data</text><polygon fill="#181818" points="1066.5,679.9844,1076.5,683.9844,1066.5,687.9844,1070.5,683.9844" style="stroke:#181818;stroke-width:1.0;"/><line style="stroke:#181818;stroke-width:1.0;" x1="322.5" x2="1072.5" y1="683.9844" y2="683.9844"/><text fill="#000000" font-family="FG Virgil" font-size="13" lengthAdjust="spacing" textLength="732" x="329.5" y="678.9185">updateAutomaticFormativeExam( examTitle,examDescription,  section, examHeader, courseCode ,questionType)</text><polygon fill="#181818" points="1714.5,709.1172,1724.5,713.1172,1714.5,717.1172,1718.5,713.1172" style="stroke:#181818;stroke-width:1.0;"/><line style="stroke:#181818;stroke-width:1.0;" x1="1088.5" x2="1720.5" y1="713.1172" y2="713.1172"/><text fill="#000000" font-family="FG Virgil" font-size="13" lengthAdjust="spacing" textLength="619" x="1095.5" y="708.0513">saveAutomaticFormativeExam(examTitle, examDescription, section, examHeader, courseCode)</text><polygon fill="#181818" points="2317.5,738.25,2327.5,742.25,2317.5,746.25,2321.5,742.25" style="stroke:#181818;stroke-width:1.0;"/><line style="stroke:#181818;stroke-width:1.0;" x1="1736.5" x2="2323.5" y1="742.25" y2="742.25"/><text fill="#000000" font-family="FG Virgil" font-size="13" lengthAdjust="spacing" textLength="237" x="1743.5" y="737.1841">delete(oldAutomaticFormativeExam)</text><polygon fill="#181818" points="2322.5,767.3828,2332.5,771.3828,2322.5,775.3828,2326.5,771.3828" style="stroke:#181818;stroke-width:1.0;"/><line style="stroke:#181818;stroke-width:1.0;" x1="1731.5" x2="2328.5" y1="771.3828" y2="771.3828"/><text fill="#000000" font-family="FG Virgil" font-size="13" lengthAdjust="spacing" textLength="236" x="1738.5" y="766.3169">save(newAutomaticFormativeExam)</text><polygon fill="#181818" points="333.5,781.3828,323.5,785.3828,333.5,789.3828,329.5,785.3828" style="stroke:#181818;stroke-width:1.0;"/><line style="stroke:#181818;stroke-width:1.0;stroke-dasharray:2.0,2.0;" x1="327.5" x2="1082.5" y1="785.3828" y2="785.3828"/><polygon fill="#181818" points="34.5,795.3828,24.5,799.3828,34.5,803.3828,30.5,799.3828" style="stroke:#181818;stroke-width:1.0;"/><line style="stroke:#181818;stroke-width:1.0;stroke-dasharray:2.0,2.0;" x1="28.5" x2="316.5" y1="799.3828" y2="799.3828"/><!--SRC=[ZLRRRk8m47tFLupw11BzWIYgX5fe-x0NjMNVlScaM3LsrZPG-lKxOt9nGe3o04xcd9bZpyMu3wahOSK6ra8NUokzHmsbK0uJSAsn4lc7UCTNVr085dCV6miinLRvfT7-fzWWB1_XZxJlKiKWjnQ5sKlzNZjFGEJUM5Wvj20SpFafeK3MornMGdjOLONmEDzwin7qSl4fDcxrp63wphBAeaFjoMJqtTrrwZtfiqQfOxpeASj4LIcPZteY7sjZvLSmlgBToHo17GWoV5tcSjWVGjF1RKXeGoOkak5rbv-m-_GRXgNiv8P93xGNgObJXCKms6-qJZhANewyD_pqJ8hUyf5rJqFw2rR6ISh1OHaISs1siyooyhXY5fsi-2iSXkrrDCOFtcIPRHzuTmdG9oGQRkyeYIbi-tbQ6ik_EsH7asce4RaZ1843cJD_IzmkUoda5WbHUsTxtwnemsS3jFuxHl0JLGUv2wbE0RNRMXQxfcnoqh3WwdqIRguFlyh9ss9-_xHucHwLHfysId1qOYvm04ZwuPjgIScJKcVtqi20EN7UKsZJ8D5DJlNrHKRKP1mQ2Ox1ezX65McggoaDxwxhgE7ZgAOooMs_wBfwkCQhbHtbT0wkRhdHbLpHtzSrZexSBhwX8ZhENfKdINJCWoPCBnRD0Dohjf2cP3nYQuvBDJHrQsbwDJHyIXU0sRlGZM1AQ0L1sIXgQD6085_vsXYQDKRZkCDIeYeSU0CRKyZoaFJcIyS6kjw0xpS4wb_Gk0-3BEd6IdziN1vDGUkRz0fdl7f0brjPyHIV0JYw7yEAJKye2hGpoCtMEfhC1SBitnOT8zuE5KwZEZhJzaxipkdePC29ZYioek5NHxfGHIbLgaAF4wEASIdJYspUmeJE_1mtweD6p3TQuwJsac5JnItIyLRF1A__S4JWrVD_]--></g></svg>