<?xml version="1.0" encoding="us-ascii" standalone="no"?><svg xmlns="http://www.w3.org/2000/svg" xmlns:xlink="http://www.w3.org/1999/xlink" contentStyleType="text/css" height="1175px" preserveAspectRatio="none" style="width:3417px;height:1175px;background:#FFFFFF;" version="1.1" viewBox="0 0 3417 1175" width="3417px" zoomAndPan="magnify"><defs/><g><rect fill="#FFFFFF" height="947.9844" style="stroke:#181818;stroke-width:1.0;" width="10" x="407.5" y="114.7266"/><rect fill="#FFFFFF" height="846.5859" style="stroke:#181818;stroke-width:1.0;" width="10" x="1169.5" y="202.125"/><rect fill="#FFFFFF" height="30" style="stroke:#181818;stroke-width:1.0;" width="10" x="1495.5" y="698.5156"/><rect fill="#FFFFFF" height="269.7969" style="stroke:#181818;stroke-width:1.0;" width="10" x="2407.5" y="801.9141"/><rect fill="#FFFFFF" height="30" style="stroke:#181818;stroke-width:1.0;" width="10" x="2703" y="860.1797"/><rect fill="#FFFFFF" height="58.2656" style="stroke:#181818;stroke-width:1.0;" width="10" x="2865" y="919.3125"/><rect fill="#FFFFFF" height="14" style="stroke:#181818;stroke-width:1.0;" width="10" x="3010.5" y="1006.7109"/><line style="stroke:#181818;stroke-width:0.5;stroke-dasharray:5.0,5.0;" x1="23" x2="23" y1="83.5938" y2="1080.7109"/><line style="stroke:#181818;stroke-width:0.5;stroke-dasharray:5.0,5.0;" x1="412" x2="412" y1="83.5938" y2="1080.7109"/><line style="stroke:#181818;stroke-width:0.5;stroke-dasharray:5.0,5.0;" x1="1174" x2="1174" y1="83.5938" y2="1080.7109"/><line style="stroke:#181818;stroke-width:0.5;stroke-dasharray:5.0,5.0;" x1="1500" x2="1500" y1="83.5938" y2="1080.7109"/><line style="stroke:#181818;stroke-width:0.5;stroke-dasharray:5.0,5.0;" x1="1761.5" x2="1761.5" y1="83.5938" y2="1080.7109"/><line style="stroke:#181818;stroke-width:0.5;stroke-dasharray:5.0,5.0;" x1="1962.5" x2="1962.5" y1="83.5938" y2="1080.7109"/><line style="stroke:#181818;stroke-width:0.5;stroke-dasharray:5.0,5.0;" x1="2189.5" x2="2189.5" y1="83.5938" y2="1080.7109"/><line style="stroke:#181818;stroke-width:0.5;stroke-dasharray:5.0,5.0;" x1="2412.5" x2="2412.5" y1="83.5938" y2="1080.7109"/><line style="stroke:#181818;stroke-width:0.5;stroke-dasharray:5.0,5.0;" x1="2570.5" x2="2570.5" y1="83.5938" y2="1080.7109"/><line style="stroke:#181818;stroke-width:0.5;stroke-dasharray:5.0,5.0;" x1="2707.5" x2="2707.5" y1="83.5938" y2="1080.7109"/><line style="stroke:#181818;stroke-width:0.5;stroke-dasharray:5.0,5.0;" x1="2869.5" x2="2869.5" y1="83.5938" y2="1080.7109"/><line style="stroke:#181818;stroke-width:0.5;stroke-dasharray:5.0,5.0;" x1="3015.5" x2="3015.5" y1="83.5938" y2="1080.7109"/><line style="stroke:#181818;stroke-width:0.5;stroke-dasharray:5.0,5.0;" x1="3154.5" x2="3154.5" y1="83.5938" y2="1080.7109"/><line style="stroke:#181818;stroke-width:0.5;stroke-dasharray:5.0,5.0;" x1="3323.5" x2="3323.5" y1="83.5938" y2="1080.7109"/><text fill="#000000" font-family="FG Virgil" font-size="14" lengthAdjust="spacing" textLength="31" x="5" y="80.292">User</text><ellipse cx="23.5" cy="15.7969" fill="#E2E2F0" rx="8" ry="8" style="stroke:#181818;stroke-width:0.5;"/><path d="M23.5,23.7969 L23.5,50.7969 M10.5,31.7969 L36.5,31.7969 M23.5,50.7969 L10.5,65.7969 M23.5,50.7969 L36.5,65.7969 " fill="none" style="stroke:#181818;stroke-width:0.5;"/><text fill="#000000" font-family="FG Virgil" font-size="14" lengthAdjust="spacing" textLength="31" x="5" y="1092.7061">User</text><ellipse cx="23.5" cy="1104.5078" fill="#E2E2F0" rx="8" ry="8" style="stroke:#181818;stroke-width:0.5;"/><path d="M23.5,1112.5078 L23.5,1139.5078 M10.5,1120.5078 L36.5,1120.5078 M23.5,1139.5078 L10.5,1154.5078 M23.5,1139.5078 L36.5,1154.5078 " fill="none" style="stroke:#181818;stroke-width:0.5;"/><rect fill="#E2E2F0" height="46.5938" rx="2.5" ry="2.5" style="stroke:#181818;stroke-width:0.5;" width="197" x="314" y="36"/><text fill="#000000" font-family="FG Virgil" font-size="14" font-style="italic" lengthAdjust="spacing" textLength="108" x="358.5" y="55.9951">&#171;presentation&#187;</text><text fill="#000000" font-family="FG Virgil" font-size="14" lengthAdjust="spacing" textLength="183" x="321" y="72.292">CreateAutomaticExamsUI</text><rect fill="#E2E2F0" height="46.5938" rx="2.5" ry="2.5" style="stroke:#181818;stroke-width:0.5;" width="197" x="314" y="1079.7109"/><text fill="#000000" font-family="FG Virgil" font-size="14" font-style="italic" lengthAdjust="spacing" textLength="108" x="358.5" y="1099.7061">&#171;presentation&#187;</text><text fill="#000000" font-family="FG Virgil" font-size="14" lengthAdjust="spacing" textLength="183" x="321" y="1116.0029">CreateAutomaticExamsUI</text><rect fill="#E2E2F0" height="46.5938" rx="2.5" ry="2.5" style="stroke:#181818;stroke-width:0.5;" width="257" x="1046" y="36"/><text fill="#000000" font-family="FG Virgil" font-size="14" font-style="italic" lengthAdjust="spacing" textLength="97" x="1126" y="55.9951">&#171;application&#187;</text><text fill="#000000" font-family="FG Virgil" font-size="14" lengthAdjust="spacing" textLength="243" x="1053" y="72.292">CreateAutomaticExamsController</text><rect fill="#E2E2F0" height="46.5938" rx="2.5" ry="2.5" style="stroke:#181818;stroke-width:0.5;" width="257" x="1046" y="1079.7109"/><text fill="#000000" font-family="FG Virgil" font-size="14" font-style="italic" lengthAdjust="spacing" textLength="97" x="1126" y="1099.7061">&#171;application&#187;</text><text fill="#000000" font-family="FG Virgil" font-size="14" lengthAdjust="spacing" textLength="243" x="1053" y="1116.0029">CreateAutomaticExamsController</text><rect fill="#E2E2F0" height="46.5938" rx="2.5" ry="2.5" style="stroke:#181818;stroke-width:0.5;" width="165" x="1418" y="36"/><text fill="#000000" font-family="FG Virgil" font-size="14" font-style="italic" lengthAdjust="spacing" textLength="97" x="1452" y="55.9951">&#171;application&#187;</text><text fill="#000000" font-family="FG Virgil" font-size="14" lengthAdjust="spacing" textLength="151" x="1425" y="72.292">AuthorizationService</text><rect fill="#E2E2F0" height="46.5938" rx="2.5" ry="2.5" style="stroke:#181818;stroke-width:0.5;" width="165" x="1418" y="1079.7109"/><text fill="#000000" font-family="FG Virgil" font-size="14" font-style="italic" lengthAdjust="spacing" textLength="97" x="1452" y="1099.7061">&#171;application&#187;</text><text fill="#000000" font-family="FG Virgil" font-size="14" lengthAdjust="spacing" textLength="151" x="1425" y="1116.0029">AuthorizationService</text><rect fill="#E2E2F0" height="46.5938" rx="2.5" ry="2.5" style="stroke:#181818;stroke-width:0.5;" width="172" x="1675.5" y="36"/><text fill="#000000" font-family="FG Virgil" font-size="14" font-style="italic" lengthAdjust="spacing" textLength="97" x="1713" y="55.9951">&#171;application&#187;</text><text fill="#000000" font-family="FG Virgil" font-size="14" lengthAdjust="spacing" textLength="158" x="1682.5" y="72.292">ExamToTextLanguage</text><rect fill="#E2E2F0" height="46.5938" rx="2.5" ry="2.5" style="stroke:#181818;stroke-width:0.5;" width="172" x="1675.5" y="1079.7109"/><text fill="#000000" font-family="FG Virgil" font-size="14" font-style="italic" lengthAdjust="spacing" textLength="97" x="1713" y="1099.7061">&#171;application&#187;</text><text fill="#000000" font-family="FG Virgil" font-size="14" lengthAdjust="spacing" textLength="158" x="1682.5" y="1116.0029">ExamToTextLanguage</text><rect fill="#E2E2F0" height="46.5938" rx="2.5" ry="2.5" style="stroke:#181818;stroke-width:0.5;" width="210" x="1857.5" y="36"/><text fill="#000000" font-family="FG Virgil" font-size="14" font-style="italic" lengthAdjust="spacing" textLength="97" x="1914" y="55.9951">&#171;application&#187;</text><text fill="#000000" font-family="FG Virgil" font-size="14" lengthAdjust="spacing" textLength="196" x="1864.5" y="72.292">CourseManagementService</text><rect fill="#E2E2F0" height="46.5938" rx="2.5" ry="2.5" style="stroke:#181818;stroke-width:0.5;" width="210" x="1857.5" y="1079.7109"/><text fill="#000000" font-family="FG Virgil" font-size="14" font-style="italic" lengthAdjust="spacing" textLength="97" x="1914" y="1099.7061">&#171;application&#187;</text><text fill="#000000" font-family="FG Virgil" font-size="14" lengthAdjust="spacing" textLength="196" x="1864.5" y="1116.0029">CourseManagementService</text><rect fill="#E2E2F0" height="46.5938" rx="2.5" ry="2.5" style="stroke:#181818;stroke-width:0.5;" width="225" x="2077.5" y="36"/><text fill="#000000" font-family="FG Virgil" font-size="14" font-style="italic" lengthAdjust="spacing" textLength="97" x="2141.5" y="55.9951">&#171;application&#187;</text><text fill="#000000" font-family="FG Virgil" font-size="14" lengthAdjust="spacing" textLength="211" x="2084.5" y="72.292">QuestionManagementService</text><rect fill="#E2E2F0" height="46.5938" rx="2.5" ry="2.5" style="stroke:#181818;stroke-width:0.5;" width="225" x="2077.5" y="1079.7109"/><text fill="#000000" font-family="FG Virgil" font-size="14" font-style="italic" lengthAdjust="spacing" textLength="97" x="2141.5" y="1099.7061">&#171;application&#187;</text><text fill="#000000" font-family="FG Virgil" font-size="14" lengthAdjust="spacing" textLength="211" x="2084.5" y="1116.0029">QuestionManagementService</text><rect fill="#E2E2F0" height="46.5938" rx="2.5" ry="2.5" style="stroke:#181818;stroke-width:0.5;" width="200" x="2312.5" y="36"/><text fill="#000000" font-family="FG Virgil" font-size="14" font-style="italic" lengthAdjust="spacing" textLength="97" x="2364" y="55.9951">&#171;application&#187;</text><text fill="#000000" font-family="FG Virgil" font-size="14" lengthAdjust="spacing" textLength="186" x="2319.5" y="72.292">ExamManagementService</text><rect fill="#E2E2F0" height="46.5938" rx="2.5" ry="2.5" style="stroke:#181818;stroke-width:0.5;" width="200" x="2312.5" y="1079.7109"/><text fill="#000000" font-family="FG Virgil" font-size="14" font-style="italic" lengthAdjust="spacing" textLength="97" x="2364" y="1099.7061">&#171;application&#187;</text><text fill="#000000" font-family="FG Virgil" font-size="14" lengthAdjust="spacing" textLength="186" x="2319.5" y="1116.0029">ExamManagementService</text><rect fill="#E2E2F0" height="46.5938" rx="2.5" ry="2.5" style="stroke:#181818;stroke-width:0.5;" width="97" x="2522.5" y="36"/><text fill="#000000" font-family="FG Virgil" font-size="14" font-style="italic" lengthAdjust="spacing" textLength="72" x="2535" y="55.9951">&#171;domain&#187;</text><text fill="#000000" font-family="FG Virgil" font-size="14" lengthAdjust="spacing" textLength="83" x="2529.5" y="72.292">exam:Exam</text><rect fill="#E2E2F0" height="46.5938" rx="2.5" ry="2.5" style="stroke:#181818;stroke-width:0.5;" width="97" x="2522.5" y="1079.7109"/><text fill="#000000" font-family="FG Virgil" font-size="14" font-style="italic" lengthAdjust="spacing" textLength="72" x="2535" y="1099.7061">&#171;domain&#187;</text><text fill="#000000" font-family="FG Virgil" font-size="14" lengthAdjust="spacing" textLength="83" x="2529.5" y="1116.0029">exam:Exam</text><rect fill="#E2E2F0" height="46.5938" rx="2.5" ry="2.5" style="stroke:#181818;stroke-width:0.5;" width="157" x="2629.5" y="36"/><text fill="#000000" font-family="FG Virgil" font-size="14" font-style="italic" lengthAdjust="spacing" textLength="100" x="2658" y="55.9951">&#171;persistence&#187;</text><text fill="#000000" font-family="FG Virgil" font-size="14" lengthAdjust="spacing" textLength="143" x="2636.5" y="72.292">PersistenceContext</text><rect fill="#E2E2F0" height="46.5938" rx="2.5" ry="2.5" style="stroke:#181818;stroke-width:0.5;" width="157" x="2629.5" y="1079.7109"/><text fill="#000000" font-family="FG Virgil" font-size="14" font-style="italic" lengthAdjust="spacing" textLength="100" x="2658" y="1099.7061">&#171;persistence&#187;</text><text fill="#000000" font-family="FG Virgil" font-size="14" lengthAdjust="spacing" textLength="143" x="2636.5" y="1116.0029">PersistenceContext</text><rect fill="#E2E2F0" height="46.5938" rx="2.5" ry="2.5" style="stroke:#181818;stroke-width:0.5;" width="147" x="2796.5" y="36"/><text fill="#000000" font-family="FG Virgil" font-size="14" font-style="italic" lengthAdjust="spacing" textLength="68" x="2836" y="55.9951">&#171;factory&#187;</text><text fill="#000000" font-family="FG Virgil" font-size="14" lengthAdjust="spacing" textLength="133" x="2803.5" y="72.292">RepositoryFactory</text><rect fill="#E2E2F0" height="46.5938" rx="2.5" ry="2.5" style="stroke:#181818;stroke-width:0.5;" width="147" x="2796.5" y="1079.7109"/><text fill="#000000" font-family="FG Virgil" font-size="14" font-style="italic" lengthAdjust="spacing" textLength="68" x="2836" y="1099.7061">&#171;factory&#187;</text><text fill="#000000" font-family="FG Virgil" font-size="14" lengthAdjust="spacing" textLength="133" x="2803.5" y="1116.0029">RepositoryFactory</text><text fill="#000000" font-family="FG Virgil" font-size="14" font-style="italic" lengthAdjust="spacing" textLength="90" x="2967.5" y="63.9951">&#171;repository&#187;</text><text fill="#000000" font-family="FG Virgil" font-size="14" lengthAdjust="spacing" textLength="118" x="2953.5" y="80.292">ExamRepository</text><path d="M2997.5,15 C2997.5,5 3015.5,5 3015.5,5 C3015.5,5 3033.5,5 3033.5,15 L3033.5,41 C3033.5,51 3015.5,51 3015.5,51 C3015.5,51 2997.5,51 2997.5,41 L2997.5,15 " fill="#E2E2F0" style="stroke:#181818;stroke-width:1.5;"/><path d="M2997.5,15 C2997.5,25 3015.5,25 3015.5,25 C3015.5,25 3033.5,25 3033.5,15 " fill="none" style="stroke:#181818;stroke-width:1.5;"/><text fill="#000000" font-family="FG Virgil" font-size="14" font-style="italic" lengthAdjust="spacing" textLength="90" x="2967.5" y="1092.7061">&#171;repository&#187;</text><text fill="#000000" font-family="FG Virgil" font-size="14" lengthAdjust="spacing" textLength="118" x="2953.5" y="1109.0029">ExamRepository</text><path d="M2997.5,1122.3047 C2997.5,1112.3047 3015.5,1112.3047 3015.5,1112.3047 C3015.5,1112.3047 3033.5,1112.3047 3033.5,1122.3047 L3033.5,1148.3047 C3033.5,1158.3047 3015.5,1158.3047 3015.5,1158.3047 C3015.5,1158.3047 2997.5,1158.3047 2997.5,1148.3047 L2997.5,1122.3047 " fill="#E2E2F0" style="stroke:#181818;stroke-width:1.5;"/><path d="M2997.5,1122.3047 C2997.5,1132.3047 3015.5,1132.3047 3015.5,1132.3047 C3015.5,1132.3047 3033.5,1132.3047 3033.5,1122.3047 " fill="none" style="stroke:#181818;stroke-width:1.5;"/><text fill="#000000" font-family="FG Virgil" font-size="14" font-style="italic" lengthAdjust="spacing" textLength="90" x="3106.5" y="63.9951">&#171;repository&#187;</text><text fill="#000000" font-family="FG Virgil" font-size="14" lengthAdjust="spacing" textLength="128" x="3087.5" y="80.292">CourseRepository</text><path d="M3136.5,15 C3136.5,5 3154.5,5 3154.5,5 C3154.5,5 3172.5,5 3172.5,15 L3172.5,41 C3172.5,51 3154.5,51 3154.5,51 C3154.5,51 3136.5,51 3136.5,41 L3136.5,15 " fill="#E2E2F0" style="stroke:#181818;stroke-width:1.5;"/><path d="M3136.5,15 C3136.5,25 3154.5,25 3154.5,25 C3154.5,25 3172.5,25 3172.5,15 " fill="none" style="stroke:#181818;stroke-width:1.5;"/><text fill="#000000" font-family="FG Virgil" font-size="14" font-style="italic" lengthAdjust="spacing" textLength="90" x="3106.5" y="1092.7061">&#171;repository&#187;</text><text fill="#000000" font-family="FG Virgil" font-size="14" lengthAdjust="spacing" textLength="128" x="3087.5" y="1109.0029">CourseRepository</text><path d="M3136.5,1122.3047 C3136.5,1112.3047 3154.5,1112.3047 3154.5,1112.3047 C3154.5,1112.3047 3172.5,1112.3047 3172.5,1122.3047 L3172.5,1148.3047 C3172.5,1158.3047 3154.5,1158.3047 3154.5,1158.3047 C3154.5,1158.3047 3136.5,1158.3047 3136.5,1148.3047 L3136.5,1122.3047 " fill="#E2E2F0" style="stroke:#181818;stroke-width:1.5;"/><path d="M3136.5,1122.3047 C3136.5,1132.3047 3154.5,1132.3047 3154.5,1132.3047 C3154.5,1132.3047 3172.5,1132.3047 3172.5,1122.3047 " fill="none" style="stroke:#181818;stroke-width:1.5;"/><text fill="#000000" font-family="FG Virgil" font-size="14" font-style="italic" lengthAdjust="spacing" textLength="90" x="3276" y="63.9951">&#171;repository&#187;</text><text fill="#000000" font-family="FG Virgil" font-size="14" lengthAdjust="spacing" textLength="179" x="3231.5" y="80.292">QuestionTypeRepository</text><path d="M3306,15 C3306,5 3324,5 3324,5 C3324,5 3342,5 3342,15 L3342,41 C3342,51 3324,51 3324,51 C3324,51 3306,51 3306,41 L3306,15 " fill="#E2E2F0" style="stroke:#181818;stroke-width:1.5;"/><path d="M3306,15 C3306,25 3324,25 3324,25 C3324,25 3342,25 3342,15 " fill="none" style="stroke:#181818;stroke-width:1.5;"/><text fill="#000000" font-family="FG Virgil" font-size="14" font-style="italic" lengthAdjust="spacing" textLength="90" x="3276" y="1092.7061">&#171;repository&#187;</text><text fill="#000000" font-family="FG Virgil" font-size="14" lengthAdjust="spacing" textLength="179" x="3231.5" y="1109.0029">QuestionTypeRepository</text><path d="M3306,1122.3047 C3306,1112.3047 3324,1112.3047 3324,1112.3047 C3324,1112.3047 3342,1112.3047 3342,1122.3047 L3342,1148.3047 C3342,1158.3047 3324,1158.3047 3324,1158.3047 C3324,1158.3047 3306,1158.3047 3306,1148.3047 L3306,1122.3047 " fill="#E2E2F0" style="stroke:#181818;stroke-width:1.5;"/><path d="M3306,1122.3047 C3306,1132.3047 3324,1132.3047 3324,1132.3047 C3324,1132.3047 3342,1132.3047 3342,1122.3047 " fill="none" style="stroke:#181818;stroke-width:1.5;"/><rect fill="#FFFFFF" height="947.9844" style="stroke:#181818;stroke-width:1.0;" width="10" x="407.5" y="114.7266"/><rect fill="#FFFFFF" height="846.5859" style="stroke:#181818;stroke-width:1.0;" width="10" x="1169.5" y="202.125"/><rect fill="#FFFFFF" height="30" style="stroke:#181818;stroke-width:1.0;" width="10" x="1495.5" y="698.5156"/><rect fill="#FFFFFF" height="269.7969" style="stroke:#181818;stroke-width:1.0;" width="10" x="2407.5" y="801.9141"/><rect fill="#FFFFFF" height="30" style="stroke:#181818;stroke-width:1.0;" width="10" x="2703" y="860.1797"/><rect fill="#FFFFFF" height="58.2656" style="stroke:#181818;stroke-width:1.0;" width="10" x="2865" y="919.3125"/><rect fill="#FFFFFF" height="14" style="stroke:#181818;stroke-width:1.0;" width="10" x="3010.5" y="1006.7109"/><polygon fill="#181818" points="395.5,110.7266,405.5,114.7266,395.5,118.7266,399.5,114.7266" style="stroke:#181818;stroke-width:1.0;"/><line style="stroke:#181818;stroke-width:1.0;" x1="23.5" x2="401.5" y1="114.7266" y2="114.7266"/><text fill="#000000" font-family="FG Virgil" font-size="13" lengthAdjust="spacing" textLength="219" x="30.5" y="109.6606">createAutomaticFormativeExam()</text><polygon fill="#181818" points="1162.5,139.8594,1172.5,143.8594,1162.5,147.8594,1166.5,143.8594" style="stroke:#181818;stroke-width:1.0;"/><line style="stroke:#181818;stroke-width:1.0;stroke-dasharray:2.0,2.0;" x1="417.5" x2="1168.5" y1="143.8594" y2="143.8594"/><text fill="#000000" font-family="FG Virgil" font-size="13" lengthAdjust="spacing" textLength="41" x="424.5" y="138.7935">create</text><polygon fill="#181818" points="34.5,168.9922,24.5,172.9922,34.5,176.9922,30.5,172.9922" style="stroke:#181818;stroke-width:1.0;"/><line style="stroke:#181818;stroke-width:1.0;stroke-dasharray:2.0,2.0;" x1="28.5" x2="406.5" y1="172.9922" y2="172.9922"/><text fill="#000000" font-family="FG Virgil" font-size="13" lengthAdjust="spacing" textLength="207" x="40.5" y="167.9263">ask information about the exam</text><polygon fill="#181818" points="1157.5,198.125,1167.5,202.125,1157.5,206.125,1161.5,202.125" style="stroke:#181818;stroke-width:1.0;"/><line style="stroke:#181818;stroke-width:1.0;" x1="417.5" x2="1163.5" y1="202.125" y2="202.125"/><text fill="#000000" font-family="FG Virgil" font-size="13" lengthAdjust="spacing" textLength="80" x="424.5" y="197.0591">listCourses()</text><polygon fill="#181818" points="1157.5,227.2578,1167.5,231.2578,1157.5,235.2578,1161.5,231.2578" style="stroke:#181818;stroke-width:1.0;"/><line style="stroke:#181818;stroke-width:1.0;" x1="417.5" x2="1163.5" y1="231.2578" y2="231.2578"/><text fill="#000000" font-family="FG Virgil" font-size="13" lengthAdjust="spacing" textLength="123" x="424.5" y="226.1919">findQuestionType()</text><polygon fill="#181818" points="1950.5,256.3906,1960.5,260.3906,1950.5,264.3906,1954.5,260.3906" style="stroke:#181818;stroke-width:1.0;"/><line style="stroke:#181818;stroke-width:1.0;" x1="1179.5" x2="1956.5" y1="260.3906" y2="260.3906"/><text fill="#000000" font-family="FG Virgil" font-size="13" lengthAdjust="spacing" textLength="76" x="1186.5" y="255.3247">allCourses()</text><polygon fill="#181818" points="3142.5,285.5234,3152.5,289.5234,3142.5,293.5234,3146.5,289.5234" style="stroke:#181818;stroke-width:1.0;"/><line style="stroke:#181818;stroke-width:1.0;" x1="1962.5" x2="3148.5" y1="289.5234" y2="289.5234"/><text fill="#000000" font-family="FG Virgil" font-size="13" lengthAdjust="spacing" textLength="76" x="1969.5" y="284.4575">allCourses()</text><polygon fill="#181818" points="1973.5,314.6563,1963.5,318.6563,1973.5,322.6563,1969.5,318.6563" style="stroke:#181818;stroke-width:1.0;"/><line style="stroke:#181818;stroke-width:1.0;" x1="1967.5" x2="3153.5" y1="318.6563" y2="318.6563"/><text fill="#000000" font-family="FG Virgil" font-size="13" lengthAdjust="spacing" textLength="50" x="1979.5" y="313.5903">courses</text><polygon fill="#181818" points="1190.5,343.7891,1180.5,347.7891,1190.5,351.7891,1186.5,347.7891" style="stroke:#181818;stroke-width:1.0;"/><line style="stroke:#181818;stroke-width:1.0;stroke-dasharray:2.0,2.0;" x1="1184.5" x2="1961.5" y1="347.7891" y2="347.7891"/><text fill="#000000" font-family="FG Virgil" font-size="13" lengthAdjust="spacing" textLength="50" x="1196.5" y="342.7231">courses</text><polygon fill="#181818" points="428.5,372.9219,418.5,376.9219,428.5,380.9219,424.5,376.9219" style="stroke:#181818;stroke-width:1.0;"/><line style="stroke:#181818;stroke-width:1.0;stroke-dasharray:2.0,2.0;" x1="422.5" x2="1168.5" y1="376.9219" y2="376.9219"/><text fill="#000000" font-family="FG Virgil" font-size="13" lengthAdjust="spacing" textLength="50" x="434.5" y="371.856">courses</text><polygon fill="#181818" points="34.5,402.0547,24.5,406.0547,34.5,410.0547,30.5,406.0547" style="stroke:#181818;stroke-width:1.0;"/><line style="stroke:#181818;stroke-width:1.0;stroke-dasharray:2.0,2.0;" x1="28.5" x2="406.5" y1="406.0547" y2="406.0547"/><text fill="#000000" font-family="FG Virgil" font-size="13" lengthAdjust="spacing" textLength="67" x="40.5" y="400.9888">CourseList</text><polygon fill="#181818" points="2178,431.1875,2188,435.1875,2178,439.1875,2182,435.1875" style="stroke:#181818;stroke-width:1.0;"/><line style="stroke:#181818;stroke-width:1.0;" x1="1179.5" x2="2184" y1="435.1875" y2="435.1875"/><text fill="#000000" font-family="FG Virgil" font-size="13" lengthAdjust="spacing" textLength="123" x="1186.5" y="430.1216">findQuestionType()</text><polygon fill="#181818" points="3312,460.3203,3322,464.3203,3312,468.3203,3316,464.3203" style="stroke:#181818;stroke-width:1.0;"/><line style="stroke:#181818;stroke-width:1.0;" x1="2190" x2="3318" y1="464.3203" y2="464.3203"/><text fill="#000000" font-family="FG Virgil" font-size="13" lengthAdjust="spacing" textLength="123" x="2197" y="459.2544">findQuestionType()</text><polygon fill="#181818" points="2201,489.4531,2191,493.4531,2201,497.4531,2197,493.4531" style="stroke:#181818;stroke-width:1.0;"/><line style="stroke:#181818;stroke-width:1.0;" x1="2195" x2="3323" y1="493.4531" y2="493.4531"/><text fill="#000000" font-family="FG Virgil" font-size="13" lengthAdjust="spacing" textLength="94" x="2207" y="488.3872">questionTypes</text><polygon fill="#181818" points="1190.5,518.5859,1180.5,522.5859,1190.5,526.5859,1186.5,522.5859" style="stroke:#181818;stroke-width:1.0;"/><line style="stroke:#181818;stroke-width:1.0;stroke-dasharray:2.0,2.0;" x1="1184.5" x2="2189" y1="522.5859" y2="522.5859"/><text fill="#000000" font-family="FG Virgil" font-size="13" lengthAdjust="spacing" textLength="94" x="1196.5" y="517.52">questionTypes</text><polygon fill="#181818" points="428.5,547.7188,418.5,551.7188,428.5,555.7188,424.5,551.7188" style="stroke:#181818;stroke-width:1.0;"/><line style="stroke:#181818;stroke-width:1.0;stroke-dasharray:2.0,2.0;" x1="422.5" x2="1168.5" y1="551.7188" y2="551.7188"/><text fill="#000000" font-family="FG Virgil" font-size="13" lengthAdjust="spacing" textLength="94" x="434.5" y="546.6528">questionTypes</text><polygon fill="#181818" points="34.5,576.8516,24.5,580.8516,34.5,584.8516,30.5,580.8516" style="stroke:#181818;stroke-width:1.0;"/><line style="stroke:#181818;stroke-width:1.0;stroke-dasharray:2.0,2.0;" x1="28.5" x2="406.5" y1="580.8516" y2="580.8516"/><text fill="#000000" font-family="FG Virgil" font-size="13" lengthAdjust="spacing" textLength="111" x="40.5" y="575.7856">QuestionTypeList</text><polygon fill="#181818" points="395.5,636.25,405.5,640.25,395.5,644.25,399.5,640.25" style="stroke:#181818;stroke-width:1.0;"/><line style="stroke:#181818;stroke-width:1.0;" x1="23.5" x2="401.5" y1="640.25" y2="640.25"/><text fill="#000000" font-family="FG Virgil" font-size="13" lengthAdjust="spacing" textLength="331" x="30.5" y="604.9185">courseCode , title, exameDescription, nrOfSections,</text><text fill="#000000" font-family="FG Virgil" font-size="13" lengthAdjust="spacing" textLength="352" x="34.5" y="620.0513">sectionDescription, questionType, numberOfquestions,</text><text fill="#000000" font-family="FG Virgil" font-size="13" lengthAdjust="spacing" textLength="105" x="34.5" y="635.1841">scoreOfquestion</text><polygon fill="#181818" points="1157.5,665.3828,1167.5,669.3828,1157.5,673.3828,1161.5,669.3828" style="stroke:#181818;stroke-width:1.0;"/><line style="stroke:#181818;stroke-width:1.0;" x1="417.5" x2="1163.5" y1="669.3828" y2="669.3828"/><text fill="#000000" font-family="FG Virgil" font-size="13" lengthAdjust="spacing" textLength="728" x="424.5" y="664.3169">createAutomaticFormativeExam( examTitle,examDescription,  section, examHeader, courseCode ,questionType)</text><polygon fill="#181818" points="1483.5,694.5156,1493.5,698.5156,1483.5,702.5156,1487.5,698.5156" style="stroke:#181818;stroke-width:1.0;"/><line style="stroke:#181818;stroke-width:1.0;" x1="1179.5" x2="1489.5" y1="698.5156" y2="698.5156"/><text fill="#000000" font-family="FG Virgil" font-size="13" lengthAdjust="spacing" textLength="297" x="1186.5" y="693.4497">ensureAuthenticatedUserHasAnyOf(TEACHER)</text><polygon fill="#181818" points="1749.5,768.7813,1759.5,772.7813,1749.5,776.7813,1753.5,772.7813" style="stroke:#181818;stroke-width:1.0;"/><line style="stroke:#181818;stroke-width:1.0;" x1="1179.5" x2="1755.5" y1="772.7813" y2="772.7813"/><text fill="#000000" font-family="FG Virgil" font-size="13" lengthAdjust="spacing" textLength="558" x="1186.5" y="752.5825">convertExamIntoText(examTitle, examDescription, section, examHeader, courseCode,</text><text fill="#000000" font-family="FG Virgil" font-size="13" lengthAdjust="spacing" textLength="92" x="1190.5" y="767.7153">questionType)</text><polygon fill="#181818" points="2395.5,797.9141,2405.5,801.9141,2395.5,805.9141,2399.5,801.9141" style="stroke:#181818;stroke-width:1.0;"/><line style="stroke:#181818;stroke-width:1.0;" x1="1179.5" x2="2401.5" y1="801.9141" y2="801.9141"/><text fill="#000000" font-family="FG Virgil" font-size="13" lengthAdjust="spacing" textLength="363" x="1186.5" y="796.8481">verifyAutomaticFormativeExam(newExamFileLanguage)</text><polygon fill="#181818" points="2395.5,827.0469,2405.5,831.0469,2395.5,835.0469,2399.5,831.0469" style="stroke:#181818;stroke-width:1.0;"/><line style="stroke:#181818;stroke-width:1.0;" x1="1179.5" x2="2401.5" y1="831.0469" y2="831.0469"/><text fill="#000000" font-family="FG Virgil" font-size="13" lengthAdjust="spacing" textLength="619" x="1186.5" y="825.981">saveAutomaticFormativeExam(examTitle, examDescription, section, examHeader, courseCode)</text><polygon fill="#181818" points="2691,856.1797,2701,860.1797,2691,864.1797,2695,860.1797" style="stroke:#181818;stroke-width:1.0;"/><line style="stroke:#181818;stroke-width:1.0;" x1="2417.5" x2="2697" y1="860.1797" y2="860.1797"/><text fill="#000000" font-family="FG Virgil" font-size="13" lengthAdjust="spacing" textLength="85" x="2424.5" y="855.1138">repositories()</text><polygon fill="#181818" points="2853,915.3125,2863,919.3125,2853,923.3125,2857,919.3125" style="stroke:#181818;stroke-width:1.0;"/><line style="stroke:#181818;stroke-width:1.0;" x1="2417.5" x2="2859" y1="919.3125" y2="919.3125"/><text fill="#000000" font-family="FG Virgil" font-size="13" lengthAdjust="spacing" textLength="54" x="2424.5" y="914.2466">exams()</text><polygon fill="#181818" points="3003.5,944.4453,3013.5,948.4453,3003.5,952.4453,3007.5,948.4453" style="stroke:#181818;stroke-width:1.0;"/><line style="stroke:#181818;stroke-width:1.0;" x1="2875" x2="3009.5" y1="948.4453" y2="948.4453"/><text fill="#000000" font-family="FG Virgil" font-size="13" lengthAdjust="spacing" textLength="41" x="2882" y="943.3794">create</text><polygon fill="#181818" points="2428.5,973.5781,2418.5,977.5781,2428.5,981.5781,2424.5,977.5781" style="stroke:#181818;stroke-width:1.0;"/><line style="stroke:#181818;stroke-width:1.0;" x1="2422.5" x2="2869" y1="977.5781" y2="977.5781"/><text fill="#000000" font-family="FG Virgil" font-size="13" lengthAdjust="spacing" textLength="106" x="2434.5" y="972.5122">examRepository</text><polygon fill="#181818" points="2998.5,1002.7109,3008.5,1006.7109,2998.5,1010.7109,3002.5,1006.7109" style="stroke:#181818;stroke-width:1.0;"/><line style="stroke:#181818;stroke-width:1.0;" x1="2417.5" x2="3004.5" y1="1006.7109" y2="1006.7109"/><text fill="#000000" font-family="FG Virgil" font-size="13" lengthAdjust="spacing" textLength="236" x="2424.5" y="1001.645">save(newAutomaticFormativeExam)</text><polygon fill="#181818" points="2428.5,1016.7109,2418.5,1020.7109,2428.5,1024.7109,2424.5,1020.7109" style="stroke:#181818;stroke-width:1.0;"/><line style="stroke:#181818;stroke-width:1.0;stroke-dasharray:2.0,2.0;" x1="2422.5" x2="3014.5" y1="1020.7109" y2="1020.7109"/><polygon fill="#181818" points="1190.5,1030.7109,1180.5,1034.7109,1190.5,1038.7109,1186.5,1034.7109" style="stroke:#181818;stroke-width:1.0;"/><line style="stroke:#181818;stroke-width:1.0;stroke-dasharray:2.0,2.0;" x1="1184.5" x2="2406.5" y1="1034.7109" y2="1034.7109"/><polygon fill="#181818" points="428.5,1044.7109,418.5,1048.7109,428.5,1052.7109,424.5,1048.7109" style="stroke:#181818;stroke-width:1.0;"/><line style="stroke:#181818;stroke-width:1.0;stroke-dasharray:2.0,2.0;" x1="422.5" x2="1173.5" y1="1048.7109" y2="1048.7109"/><polygon fill="#181818" points="34.5,1058.7109,24.5,1062.7109,34.5,1066.7109,30.5,1062.7109" style="stroke:#181818;stroke-width:1.0;"/><line style="stroke:#181818;stroke-width:1.0;stroke-dasharray:2.0,2.0;" x1="28.5" x2="411.5" y1="1062.7109" y2="1062.7109"/><!--SRC=[fLRRRk8m47tFLrZxL2Jw0r5K2L7O8dMtkmNsQL_SP09MWvFQ3Ytz-frnRdO8fDBceKqySywSkTX6lmfPSCKFRCzbygw4CI1PoZCD0TEjiU3nAz_1sfmoO0fYuneJI7cPcMKkpKz-0BRyplu8jHEPwwJtFCdVXTpLv07ZiSaLssfGZ6isewy00oaZOb5mQTXS0JSmAqr-uBYu-E07lLsHC_wDeaA11cdGbCkxkt7e7FMfFCkgUCvN5F6Yo4Gyo8GS-ro9JsjSWpgA61WHS3HyNiTIs4s-WG_poEMkn08IS63rAiiyBvM67roYvm4JRaGWLMnDwsDydU5t2PhM1pdUQkCe2-aUP00q3A5z-3To2uda6u7kiJD28YQnB_rWlq1feN4MOw1EOR48vApI07HVVVWp5BaME56dfHsp4w6RroXAgpT29Tpm5wx1fjV1caOvAr6asWyFMJN8nvwjNKGtpTcSYXx71KkF2SjizmwxlSDz4RBO7_rbhkZ_4IYRcudTTkA87kWSCDf9jmZiTaD343GcInwYdbScP5gnvPBnbxmqpEp1jZ-WXm0-LORjgIgXCNGRkNCPmAH29cxc20oSpOhUtTI7k1Eph8lGMInfhmMXxtncxr5NxzebzQGwBgu-smR7vfOHbwkeZrYONbRkFiIy1ihWUY3WmdWCLl22xrdODyTF-m7xkVkkGnNmFNfrS1NPQh3U6DiwpVC4s9GPOJAOsac3Uz2n4WLXfqogftIDrn5-w2dxAvckFZmdLmT2oiCB8AnPhN5nhg1Rn4r5p_bqNjzULk76YgKtJqKZhKhZ0NW2QkgbwUgS1BK4Uln1iHTFo43gKf6GFPx6TEX2GdVf0zSpUNfARpQBsVnXyJpfQEgdtOQMwCoSm8Y3h-RyDgFUoICeGwQLDDPuqrM6dPLcf39Jx8zVcs4fpJqKOd2HdYxqIC8x_L-A31h53M6RUCqq5aVpuwL9-8zq9_OmxShUX6CKsxq1GzPU1CAUQ6peQPDoeC6mgzDwrtdGjr65ckfxDRHhupfgzs6lvewk9wixgzfxQHHNAwlaT0IZAJUwHlFj2wCneB4Q7eL9C5AFnHTazdwAt7Pf1YDPVONToSuxxYwTGVQ83lgHXd7R5RhNF-uTv-tg7m00]--></g></svg>