<?xml version="1.0" encoding="us-ascii" standalone="no"?><svg xmlns="http://www.w3.org/2000/svg" xmlns:xlink="http://www.w3.org/1999/xlink" contentStyleType="text/css" height="907px" preserveAspectRatio="none" style="width:3808px;height:907px;background:#FFFFFF;" version="1.1" viewBox="0 0 3808 907" width="3808px" zoomAndPan="magnify"><defs/><g><!--cluster presentation--><g id="cluster_presentation"><path d="M450.5,6 L556.5,6 A3.75,3.75 0 0 1 559,8.5 L566,28.2969 L857.5,28.2969 A2.5,2.5 0 0 1 860,30.7969 L860,143.5 A2.5,2.5 0 0 1 857.5,146 L450.5,146 A2.5,2.5 0 0 1 448,143.5 L448,8.5 A2.5,2.5 0 0 1 450.5,6 " fill="#DDDDDD" style="stroke:#000000;stroke-width:1.5;"/><line style="stroke:#000000;stroke-width:1.5;" x1="448" x2="566" y1="28.2969" y2="28.2969"/><text fill="#000000" font-family="sans-serif" font-size="14" font-weight="bold" lengthAdjust="spacing" textLength="105" x="452" y="20.9951">presentation</text></g><!--cluster domain--><g id="cluster_domain"><path d="M1305.5,368 L1366.5,368 A3.75,3.75 0 0 1 1369,370.5 L1376,390.2969 L3798.5,390.2969 A2.5,2.5 0 0 1 3801,392.7969 L3801,897.5 A2.5,2.5 0 0 1 3798.5,900 L1305.5,900 A2.5,2.5 0 0 1 1303,897.5 L1303,370.5 A2.5,2.5 0 0 1 1305.5,368 " fill="#DBD8AE" style="stroke:#000000;stroke-width:1.5;"/><line style="stroke:#000000;stroke-width:1.5;" x1="1303" x2="1376" y1="390.2969" y2="390.2969"/><text fill="#000000" font-family="sans-serif" font-size="14" font-weight="bold" lengthAdjust="spacing" textLength="60" x="1307" y="382.9951">domain</text></g><!--cluster persistence--><g id="cluster_persistence"><path d="M265.5,640.5 L360.5,640.5 A3.75,3.75 0 0 1 363,643 L370,662.7969 L1010.5,662.7969 A2.5,2.5 0 0 1 1013,665.2969 L1013,753 A2.5,2.5 0 0 1 1010.5,755.5 L265.5,755.5 A2.5,2.5 0 0 1 263,753 L263,643 A2.5,2.5 0 0 1 265.5,640.5 " fill="#DBD8AE" style="stroke:#000000;stroke-width:1.5;"/><line style="stroke:#000000;stroke-width:1.5;" x1="263" x2="370" y1="662.7969" y2="662.7969"/><text fill="#000000" font-family="sans-serif" font-size="14" font-weight="bold" lengthAdjust="spacing" textLength="94" x="267" y="655.4951">persistence</text></g><!--cluster application--><g id="cluster_application"><path d="M8.5,170 L101.5,170 A3.75,3.75 0 0 1 104,172.5 L111,192.2969 L1078.5,192.2969 A2.5,2.5 0 0 1 1081,194.7969 L1081,553 A2.5,2.5 0 0 1 1078.5,555.5 L8.5,555.5 A2.5,2.5 0 0 1 6,553 L6,172.5 A2.5,2.5 0 0 1 8.5,170 " fill="#EAF4D3" style="stroke:#000000;stroke-width:1.5;"/><line style="stroke:#000000;stroke-width:1.5;" x1="6" x2="111" y1="192.2969" y2="192.2969"/><text fill="#000000" font-family="sans-serif" font-size="14" font-weight="bold" lengthAdjust="spacing" textLength="92" x="10" y="184.9951">application</text></g><!--class CreateAutomaticExamsUI--><g id="elem_CreateAutomaticExamsUI"><rect codeLine="4" fill="#F1F1F1" height="88.8594" id="CreateAutomaticExamsUI" rx="2.5" ry="2.5" style="stroke:#181818;stroke-width:0.5;" width="380" x="464" y="41"/><ellipse cx="558.25" cy="61.1328" fill="#ADD1B2" rx="11" ry="11" style="stroke:#181818;stroke-width:1.0;"/><path d="M560.5938,56.8047 C559.6563,56.3672 559.0625,56.2266 558.1875,56.2266 C555.5625,56.2266 553.5625,58.3047 553.5625,61.0234 L553.5625,62.1484 C553.5625,64.7266 555.6719,66.6172 558.5625,66.6172 C559.7813,66.6172 560.9375,66.3203 561.6875,65.7734 C562.2656,65.3672 562.5938,64.9141 562.5938,64.5234 C562.5938,64.0703 562.2031,63.6797 561.7344,63.6797 C561.5156,63.6797 561.3125,63.7578 561.125,63.9453 C560.6719,64.4297 560.6719,64.4297 560.4844,64.5234 C560.0625,64.7891 559.375,64.9141 558.6094,64.9141 C556.5625,64.9141 555.2656,63.8203 555.2656,62.1172 L555.2656,61.0234 C555.2656,59.2422 556.5156,57.9297 558.25,57.9297 C558.8281,57.9297 559.4375,58.0859 559.9063,58.3359 C560.3906,58.6172 560.5625,58.8359 560.6563,59.2422 C560.7188,59.6484 560.75,59.7734 560.8906,59.8984 C561.0313,60.0391 561.2656,60.1484 561.4844,60.1484 C561.75,60.1484 562.0156,60.0078 562.1875,59.7891 C562.2969,59.6328 562.3281,59.4453 562.3281,59.0234 L562.3281,57.6016 C562.3281,57.1641 562.3125,57.0391 562.2188,56.8828 C562.0625,56.6172 561.7813,56.4766 561.4844,56.4766 C561.1875,56.4766 560.9844,56.5703 560.7656,56.8828 L560.5938,56.8047 Z " fill="#000000"/><text fill="#000000" font-family="sans-serif" font-size="12" font-style="italic" lengthAdjust="spacing" textLength="25" x="657.75" y="57.1387">&#171;ui&#187;</text><text fill="#000000" font-family="sans-serif" font-size="14" lengthAdjust="spacing" textLength="183" x="578.75" y="72.9639">CreateAutomaticExamsUI</text><line style="stroke:#181818;stroke-width:0.5;" x1="465" x2="843" y1="81.2656" y2="81.2656"/><rect fill="none" height="6" style="stroke:#C82930;stroke-width:1.0;" width="6" x="472" y="91.9141"/><text fill="#000000" font-family="sans-serif" font-size="14" lengthAdjust="spacing" textLength="354" x="484" y="98.2607">theController : CreateAutomaticExamsController</text><line style="stroke:#181818;stroke-width:0.5;" x1="465" x2="843" y1="105.5625" y2="105.5625"/><ellipse cx="475" cy="119.2109" fill="#84BE84" rx="3" ry="3" style="stroke:#038048;stroke-width:1.0;"/><text fill="#000000" font-family="sans-serif" font-size="14" lengthAdjust="spacing" textLength="66" x="484" y="122.5576">doShow()</text></g><!--class AutomaticFormativeExam--><g id="elem_AutomaticFormativeExam"><rect codeLine="14" fill="#F1F1F1" height="184.3125" id="AutomaticFormativeExam" rx="2.5" ry="2.5" style="stroke:#181818;stroke-width:0.5;" width="514" x="1319" y="403"/><ellipse cx="1478.25" cy="430.1172" fill="#ADD1B2" rx="11" ry="11" style="stroke:#181818;stroke-width:1.0;"/><path d="M1480.5938,425.7891 C1479.6563,425.3516 1479.0625,425.2109 1478.1875,425.2109 C1475.5625,425.2109 1473.5625,427.2891 1473.5625,430.0078 L1473.5625,431.1328 C1473.5625,433.7109 1475.6719,435.6016 1478.5625,435.6016 C1479.7813,435.6016 1480.9375,435.3047 1481.6875,434.7578 C1482.2656,434.3516 1482.5938,433.8984 1482.5938,433.5078 C1482.5938,433.0547 1482.2031,432.6641 1481.7344,432.6641 C1481.5156,432.6641 1481.3125,432.7422 1481.125,432.9297 C1480.6719,433.4141 1480.6719,433.4141 1480.4844,433.5078 C1480.0625,433.7734 1479.375,433.8984 1478.6094,433.8984 C1476.5625,433.8984 1475.2656,432.8047 1475.2656,431.1016 L1475.2656,430.0078 C1475.2656,428.2266 1476.5156,426.9141 1478.25,426.9141 C1478.8281,426.9141 1479.4375,427.0703 1479.9063,427.3203 C1480.3906,427.6016 1480.5625,427.8203 1480.6563,428.2266 C1480.7188,428.6328 1480.75,428.7578 1480.8906,428.8828 C1481.0313,429.0234 1481.2656,429.1328 1481.4844,429.1328 C1481.75,429.1328 1482.0156,428.9922 1482.1875,428.7734 C1482.2969,428.6172 1482.3281,428.4297 1482.3281,428.0078 L1482.3281,426.5859 C1482.3281,426.1484 1482.3125,426.0234 1482.2188,425.8672 C1482.0625,425.6016 1481.7813,425.4609 1481.4844,425.4609 C1481.1875,425.4609 1480.9844,425.5547 1480.7656,425.8672 L1480.5938,425.7891 Z " fill="#000000"/><text fill="#000000" font-family="sans-serif" font-size="12" font-style="italic" lengthAdjust="spacing" textLength="104" x="1540.25" y="419.1387">&#171;aggregate root&#187;</text><text fill="#000000" font-family="sans-serif" font-size="12" font-style="italic" lengthAdjust="spacing" textLength="49" x="1567.75" y="433.1074">&#171;entity&#187;</text><text fill="#000000" font-family="sans-serif" font-size="14" lengthAdjust="spacing" textLength="187" x="1498.75" y="448.9326">AutomaticFormativeExam</text><line style="stroke:#181818;stroke-width:0.5;" x1="1320" x2="1832" y1="457.2344" y2="457.2344"/><rect fill="none" height="6" style="stroke:#C82930;stroke-width:1.0;" width="6" x="1327" y="467.8828"/><text fill="#000000" font-family="sans-serif" font-size="14" lengthAdjust="spacing" textLength="157" x="1339" y="474.2295">examTitle : ExamTitle</text><rect fill="none" height="6" style="stroke:#C82930;stroke-width:1.0;" width="6" x="1327" y="484.1797"/><text fill="#000000" font-family="sans-serif" font-size="14" lengthAdjust="spacing" textLength="259" x="1339" y="490.5264">examDescription : ExamDescription</text><rect fill="none" height="6" style="stroke:#C82930;stroke-width:1.0;" width="6" x="1327" y="500.4766"/><text fill="#000000" font-family="sans-serif" font-size="14" lengthAdjust="spacing" textLength="193" x="1339" y="506.8232">examHeader : ExamHeader</text><rect fill="none" height="6" style="stroke:#C82930;stroke-width:1.0;" width="6" x="1327" y="516.7734"/><text fill="#000000" font-family="sans-serif" font-size="14" lengthAdjust="spacing" textLength="169" x="1339" y="523.1201">section : List&lt;Section&gt;</text><rect fill="none" height="6" style="stroke:#C82930;stroke-width:1.0;" width="6" x="1327" y="533.0703"/><text fill="#000000" font-family="sans-serif" font-size="14" lengthAdjust="spacing" textLength="61" x="1339" y="539.417">id : Long</text><rect fill="none" height="6" style="stroke:#C82930;stroke-width:1.0;" width="6" x="1327" y="549.3672"/><text fill="#000000" font-family="sans-serif" font-size="14" lengthAdjust="spacing" textLength="183" x="1339" y="555.7139">courseCode : CourseCode</text><line style="stroke:#181818;stroke-width:0.5;" x1="1320" x2="1832" y1="563.0156" y2="563.0156"/><ellipse cx="1330" cy="576.6641" fill="#84BE84" rx="3" ry="3" style="stroke:#038048;stroke-width:1.0;"/><text fill="#000000" font-family="sans-serif" font-size="14" lengthAdjust="spacing" textLength="488" x="1339" y="580.0107">init(examTitle, examDescription, section, examHeader, courseCode)</text></g><!--class ExamTitle--><g id="elem_ExamTitle"><rect codeLine="24" fill="#F1F1F1" height="56.2656" id="ExamTitle" rx="2.5" ry="2.5" style="stroke:#181818;stroke-width:0.5;" width="113" x="3671.5" y="467"/><ellipse cx="3686.5" cy="487.1328" fill="#ADD1B2" rx="11" ry="11" style="stroke:#181818;stroke-width:1.0;"/><path d="M3688.8438,482.8047 C3687.9063,482.3672 3687.3125,482.2266 3686.4375,482.2266 C3683.8125,482.2266 3681.8125,484.3047 3681.8125,487.0234 L3681.8125,488.1484 C3681.8125,490.7266 3683.9219,492.6172 3686.8125,492.6172 C3688.0313,492.6172 3689.1875,492.3203 3689.9375,491.7734 C3690.5156,491.3672 3690.8438,490.9141 3690.8438,490.5234 C3690.8438,490.0703 3690.4531,489.6797 3689.9844,489.6797 C3689.7656,489.6797 3689.5625,489.7578 3689.375,489.9453 C3688.9219,490.4297 3688.9219,490.4297 3688.7344,490.5234 C3688.3125,490.7891 3687.625,490.9141 3686.8594,490.9141 C3684.8125,490.9141 3683.5156,489.8203 3683.5156,488.1172 L3683.5156,487.0234 C3683.5156,485.2422 3684.7656,483.9297 3686.5,483.9297 C3687.0781,483.9297 3687.6875,484.0859 3688.1563,484.3359 C3688.6406,484.6172 3688.8125,484.8359 3688.9063,485.2422 C3688.9688,485.6484 3689,485.7734 3689.1406,485.8984 C3689.2813,486.0391 3689.5156,486.1484 3689.7344,486.1484 C3690,486.1484 3690.2656,486.0078 3690.4375,485.7891 C3690.5469,485.6328 3690.5781,485.4453 3690.5781,485.0234 L3690.5781,483.6016 C3690.5781,483.1641 3690.5625,483.0391 3690.4688,482.8828 C3690.3125,482.6172 3690.0313,482.4766 3689.7344,482.4766 C3689.4375,482.4766 3689.2344,482.5703 3689.0156,482.8828 L3688.8438,482.8047 Z " fill="#000000"/><text fill="#000000" font-family="sans-serif" font-size="12" font-style="italic" lengthAdjust="spacing" textLength="85" x="3698.5" y="483.1387">&#171;valueObject&#187;</text><text fill="#000000" font-family="sans-serif" font-size="14" lengthAdjust="spacing" textLength="72" x="3705" y="498.9639">ExamTitle</text><line style="stroke:#181818;stroke-width:0.5;" x1="3672.5" x2="3783.5" y1="507.2656" y2="507.2656"/><line style="stroke:#181818;stroke-width:0.5;" x1="3672.5" x2="3783.5" y1="515.2656" y2="515.2656"/></g><!--class ExamDescription--><g id="elem_ExamDescription"><rect codeLine="26" fill="#F1F1F1" height="56.2656" id="ExamDescription" rx="2.5" ry="2.5" style="stroke:#181818;stroke-width:0.5;" width="155" x="3481.5" y="467"/><ellipse cx="3496.5" cy="487.1328" fill="#ADD1B2" rx="11" ry="11" style="stroke:#181818;stroke-width:1.0;"/><path d="M3498.8438,482.8047 C3497.9063,482.3672 3497.3125,482.2266 3496.4375,482.2266 C3493.8125,482.2266 3491.8125,484.3047 3491.8125,487.0234 L3491.8125,488.1484 C3491.8125,490.7266 3493.9219,492.6172 3496.8125,492.6172 C3498.0313,492.6172 3499.1875,492.3203 3499.9375,491.7734 C3500.5156,491.3672 3500.8438,490.9141 3500.8438,490.5234 C3500.8438,490.0703 3500.4531,489.6797 3499.9844,489.6797 C3499.7656,489.6797 3499.5625,489.7578 3499.375,489.9453 C3498.9219,490.4297 3498.9219,490.4297 3498.7344,490.5234 C3498.3125,490.7891 3497.625,490.9141 3496.8594,490.9141 C3494.8125,490.9141 3493.5156,489.8203 3493.5156,488.1172 L3493.5156,487.0234 C3493.5156,485.2422 3494.7656,483.9297 3496.5,483.9297 C3497.0781,483.9297 3497.6875,484.0859 3498.1563,484.3359 C3498.6406,484.6172 3498.8125,484.8359 3498.9063,485.2422 C3498.9688,485.6484 3499,485.7734 3499.1406,485.8984 C3499.2813,486.0391 3499.5156,486.1484 3499.7344,486.1484 C3500,486.1484 3500.2656,486.0078 3500.4375,485.7891 C3500.5469,485.6328 3500.5781,485.4453 3500.5781,485.0234 L3500.5781,483.6016 C3500.5781,483.1641 3500.5625,483.0391 3500.4688,482.8828 C3500.3125,482.6172 3500.0313,482.4766 3499.7344,482.4766 C3499.4375,482.4766 3499.2344,482.5703 3499.0156,482.8828 L3498.8438,482.8047 Z " fill="#000000"/><text fill="#000000" font-family="sans-serif" font-size="12" font-style="italic" lengthAdjust="spacing" textLength="85" x="3529.5" y="483.1387">&#171;valueObject&#187;</text><text fill="#000000" font-family="sans-serif" font-size="14" lengthAdjust="spacing" textLength="123" x="3510.5" y="498.9639">ExamDescription</text><line style="stroke:#181818;stroke-width:0.5;" x1="3482.5" x2="3635.5" y1="507.2656" y2="507.2656"/><line style="stroke:#181818;stroke-width:0.5;" x1="3482.5" x2="3635.5" y1="515.2656" y2="515.2656"/></g><!--class CourseCode--><g id="elem_CourseCode"><rect codeLine="28" fill="#F1F1F1" height="56.2656" id="CourseCode" rx="2.5" ry="2.5" style="stroke:#181818;stroke-width:0.5;" width="118" x="3328" y="467"/><ellipse cx="3343" cy="487.1328" fill="#ADD1B2" rx="11" ry="11" style="stroke:#181818;stroke-width:1.0;"/><path d="M3345.3438,482.8047 C3344.4063,482.3672 3343.8125,482.2266 3342.9375,482.2266 C3340.3125,482.2266 3338.3125,484.3047 3338.3125,487.0234 L3338.3125,488.1484 C3338.3125,490.7266 3340.4219,492.6172 3343.3125,492.6172 C3344.5313,492.6172 3345.6875,492.3203 3346.4375,491.7734 C3347.0156,491.3672 3347.3438,490.9141 3347.3438,490.5234 C3347.3438,490.0703 3346.9531,489.6797 3346.4844,489.6797 C3346.2656,489.6797 3346.0625,489.7578 3345.875,489.9453 C3345.4219,490.4297 3345.4219,490.4297 3345.2344,490.5234 C3344.8125,490.7891 3344.125,490.9141 3343.3594,490.9141 C3341.3125,490.9141 3340.0156,489.8203 3340.0156,488.1172 L3340.0156,487.0234 C3340.0156,485.2422 3341.2656,483.9297 3343,483.9297 C3343.5781,483.9297 3344.1875,484.0859 3344.6563,484.3359 C3345.1406,484.6172 3345.3125,484.8359 3345.4063,485.2422 C3345.4688,485.6484 3345.5,485.7734 3345.6406,485.8984 C3345.7813,486.0391 3346.0156,486.1484 3346.2344,486.1484 C3346.5,486.1484 3346.7656,486.0078 3346.9375,485.7891 C3347.0469,485.6328 3347.0781,485.4453 3347.0781,485.0234 L3347.0781,483.6016 C3347.0781,483.1641 3347.0625,483.0391 3346.9688,482.8828 C3346.8125,482.6172 3346.5313,482.4766 3346.2344,482.4766 C3345.9375,482.4766 3345.7344,482.5703 3345.5156,482.8828 L3345.3438,482.8047 Z " fill="#000000"/><text fill="#000000" font-family="sans-serif" font-size="12" font-style="italic" lengthAdjust="spacing" textLength="85" x="3357.5" y="483.1387">&#171;valueObject&#187;</text><text fill="#000000" font-family="sans-serif" font-size="14" lengthAdjust="spacing" textLength="86" x="3357" y="498.9639">CourseCode</text><line style="stroke:#181818;stroke-width:0.5;" x1="3329" x2="3445" y1="507.2656" y2="507.2656"/><line style="stroke:#181818;stroke-width:0.5;" x1="3329" x2="3445" y1="515.2656" y2="515.2656"/></g><!--class ExamHeader--><g id="elem_ExamHeader"><rect codeLine="31" fill="#F1F1F1" height="137.75" id="ExamHeader" rx="2.5" ry="2.5" style="stroke:#181818;stroke-width:0.5;" width="431" x="2298.5" y="426"/><ellipse cx="2464.75" cy="446.1328" fill="#ADD1B2" rx="11" ry="11" style="stroke:#181818;stroke-width:1.0;"/><path d="M2467.0938,441.8047 C2466.1563,441.3672 2465.5625,441.2266 2464.6875,441.2266 C2462.0625,441.2266 2460.0625,443.3047 2460.0625,446.0234 L2460.0625,447.1484 C2460.0625,449.7266 2462.1719,451.6172 2465.0625,451.6172 C2466.2813,451.6172 2467.4375,451.3203 2468.1875,450.7734 C2468.7656,450.3672 2469.0938,449.9141 2469.0938,449.5234 C2469.0938,449.0703 2468.7031,448.6797 2468.2344,448.6797 C2468.0156,448.6797 2467.8125,448.7578 2467.625,448.9453 C2467.1719,449.4297 2467.1719,449.4297 2466.9844,449.5234 C2466.5625,449.7891 2465.875,449.9141 2465.1094,449.9141 C2463.0625,449.9141 2461.7656,448.8203 2461.7656,447.1172 L2461.7656,446.0234 C2461.7656,444.2422 2463.0156,442.9297 2464.75,442.9297 C2465.3281,442.9297 2465.9375,443.0859 2466.4063,443.3359 C2466.8906,443.6172 2467.0625,443.8359 2467.1563,444.2422 C2467.2188,444.6484 2467.25,444.7734 2467.3906,444.8984 C2467.5313,445.0391 2467.7656,445.1484 2467.9844,445.1484 C2468.25,445.1484 2468.5156,445.0078 2468.6875,444.7891 C2468.7969,444.6328 2468.8281,444.4453 2468.8281,444.0234 L2468.8281,442.6016 C2468.8281,442.1641 2468.8125,442.0391 2468.7188,441.8828 C2468.5625,441.6172 2468.2813,441.4766 2467.9844,441.4766 C2467.6875,441.4766 2467.4844,441.5703 2467.2656,441.8828 L2467.0938,441.8047 Z " fill="#000000"/><text fill="#000000" font-family="sans-serif" font-size="12" font-style="italic" lengthAdjust="spacing" textLength="49" x="2505.75" y="442.1387">&#171;entity&#187;</text><text fill="#000000" font-family="sans-serif" font-size="14" lengthAdjust="spacing" textLength="90" x="2485.25" y="457.9639">ExamHeader</text><line style="stroke:#181818;stroke-width:0.5;" x1="2299.5" x2="2728.5" y1="466.2656" y2="466.2656"/><rect fill="none" height="6" style="stroke:#C82930;stroke-width:1.0;" width="6" x="2306.5" y="476.9141"/><text fill="#000000" font-family="sans-serif" font-size="14" lengthAdjust="spacing" textLength="223" x="2318.5" y="483.2607">feedbackType : FeedbackType</text><rect fill="none" height="6" style="stroke:#C82930;stroke-width:1.0;" width="6" x="2306.5" y="493.2109"/><text fill="#000000" font-family="sans-serif" font-size="14" lengthAdjust="spacing" textLength="61" x="2318.5" y="499.5576">id : Long</text><rect fill="none" height="6" style="stroke:#C82930;stroke-width:1.0;" width="6" x="2306.5" y="509.5078"/><text fill="#000000" font-family="sans-serif" font-size="14" lengthAdjust="spacing" textLength="169" x="2318.5" y="515.8545">gradeType : GradeType</text><rect fill="none" height="6" style="stroke:#C82930;stroke-width:1.0;" width="6" x="2306.5" y="525.8047"/><text fill="#000000" font-family="sans-serif" font-size="14" lengthAdjust="spacing" textLength="361" x="2318.5" y="532.1514">examHeaderDescription : ExamHeaderDescription</text><line style="stroke:#181818;stroke-width:0.5;" x1="2299.5" x2="2728.5" y1="539.4531" y2="539.4531"/><ellipse cx="2309.5" cy="553.1016" fill="#84BE84" rx="3" ry="3" style="stroke:#038048;stroke-width:1.0;"/><text fill="#000000" font-family="sans-serif" font-size="14" lengthAdjust="spacing" textLength="405" x="2318.5" y="556.4482">init(feedbackType, gradeType, examHeaderDescription)</text></g><!--class GradeType--><g id="elem_GradeType"><rect codeLine="38" fill="#F1F1F1" height="56.2656" id="GradeType" rx="2.5" ry="2.5" style="stroke:#181818;stroke-width:0.5;" width="113" x="3179.5" y="467"/><ellipse cx="3194.5" cy="487.1328" fill="#EB937F" rx="11" ry="11" style="stroke:#181818;stroke-width:1.0;"/><path d="M3193.2969,488.0078 L3194.75,488.0078 L3194.75,488.1172 C3194.75,488.5234 3194.7813,488.6797 3194.8594,488.8359 C3195.0156,489.0859 3195.2969,489.2422 3195.5938,489.2422 C3195.8438,489.2422 3196.1094,489.1016 3196.2656,488.8828 C3196.3906,488.7266 3196.4219,488.5703 3196.4219,488.1172 L3196.4219,486.1953 C3196.4219,486.0391 3196.4219,485.9922 3196.4063,485.8359 C3196.3438,485.3672 3196.0313,485.0547 3195.5781,485.0547 C3195.3281,485.0547 3195.0625,485.1953 3194.8906,485.4141 C3194.7813,485.5859 3194.75,485.7422 3194.75,486.1953 L3194.75,486.3203 L3193.2969,486.3203 L3193.2969,483.9141 L3197.2813,483.9141 L3197.2813,484.7734 C3197.2813,485.1797 3197.3125,485.3516 3197.3906,485.5078 C3197.5625,485.7578 3197.8438,485.9141 3198.125,485.9141 C3198.3906,485.9141 3198.6563,485.7734 3198.8281,485.5547 C3198.9375,485.3828 3198.9688,485.2422 3198.9688,484.7734 L3198.9688,482.2266 L3191.3438,482.2266 C3190.9063,482.2266 3190.7813,482.2422 3190.625,482.3359 C3190.375,482.4922 3190.2188,482.7891 3190.2188,483.0703 C3190.2188,483.3516 3190.3594,483.6016 3190.5781,483.7734 C3190.7344,483.8828 3190.9219,483.9141 3191.3438,483.9141 L3191.5938,483.9141 L3191.5938,490.4297 L3191.3438,490.4297 C3190.9375,490.4297 3190.7813,490.4453 3190.625,490.5547 C3190.375,490.7266 3190.2188,490.9922 3190.2188,491.2891 C3190.2188,491.5547 3190.3594,491.8047 3190.5781,491.9609 C3190.7188,492.0859 3190.9531,492.1328 3191.3438,492.1328 L3199.3438,492.1328 L3199.3438,489.5547 C3199.3438,489.1172 3199.3125,488.9766 3199.2344,488.8203 C3199.0625,488.5703 3198.7813,488.4141 3198.5,488.4141 C3198.2344,488.4141 3197.9688,488.5234 3197.7969,488.7734 C3197.6875,488.9297 3197.6563,489.0703 3197.6563,489.5547 L3197.6563,490.4297 L3193.2969,490.4297 L3193.2969,488.0078 Z " fill="#000000"/><text fill="#000000" font-family="sans-serif" font-size="12" font-style="italic" lengthAdjust="spacing" textLength="85" x="3206.5" y="483.1387">&#171;valueObject&#187;</text><text fill="#000000" font-family="sans-serif" font-size="14" lengthAdjust="spacing" textLength="79" x="3209.5" y="498.9639">GradeType</text><line style="stroke:#181818;stroke-width:0.5;" x1="3180.5" x2="3291.5" y1="507.2656" y2="507.2656"/><line style="stroke:#181818;stroke-width:0.5;" x1="3180.5" x2="3291.5" y1="515.2656" y2="515.2656"/></g><!--class FeedbackType--><g id="elem_FeedbackType"><rect codeLine="40" fill="#F1F1F1" height="56.2656" id="FeedbackType" rx="2.5" ry="2.5" style="stroke:#181818;stroke-width:0.5;" width="138" x="3006" y="467"/><ellipse cx="3021" cy="487.1328" fill="#EB937F" rx="11" ry="11" style="stroke:#181818;stroke-width:1.0;"/><path d="M3019.7969,488.0078 L3021.25,488.0078 L3021.25,488.1172 C3021.25,488.5234 3021.2813,488.6797 3021.3594,488.8359 C3021.5156,489.0859 3021.7969,489.2422 3022.0938,489.2422 C3022.3438,489.2422 3022.6094,489.1016 3022.7656,488.8828 C3022.8906,488.7266 3022.9219,488.5703 3022.9219,488.1172 L3022.9219,486.1953 C3022.9219,486.0391 3022.9219,485.9922 3022.9063,485.8359 C3022.8438,485.3672 3022.5313,485.0547 3022.0781,485.0547 C3021.8281,485.0547 3021.5625,485.1953 3021.3906,485.4141 C3021.2813,485.5859 3021.25,485.7422 3021.25,486.1953 L3021.25,486.3203 L3019.7969,486.3203 L3019.7969,483.9141 L3023.7813,483.9141 L3023.7813,484.7734 C3023.7813,485.1797 3023.8125,485.3516 3023.8906,485.5078 C3024.0625,485.7578 3024.3438,485.9141 3024.625,485.9141 C3024.8906,485.9141 3025.1563,485.7734 3025.3281,485.5547 C3025.4375,485.3828 3025.4688,485.2422 3025.4688,484.7734 L3025.4688,482.2266 L3017.8438,482.2266 C3017.4063,482.2266 3017.2813,482.2422 3017.125,482.3359 C3016.875,482.4922 3016.7188,482.7891 3016.7188,483.0703 C3016.7188,483.3516 3016.8594,483.6016 3017.0781,483.7734 C3017.2344,483.8828 3017.4219,483.9141 3017.8438,483.9141 L3018.0938,483.9141 L3018.0938,490.4297 L3017.8438,490.4297 C3017.4375,490.4297 3017.2813,490.4453 3017.125,490.5547 C3016.875,490.7266 3016.7188,490.9922 3016.7188,491.2891 C3016.7188,491.5547 3016.8594,491.8047 3017.0781,491.9609 C3017.2188,492.0859 3017.4531,492.1328 3017.8438,492.1328 L3025.8438,492.1328 L3025.8438,489.5547 C3025.8438,489.1172 3025.8125,488.9766 3025.7344,488.8203 C3025.5625,488.5703 3025.2813,488.4141 3025,488.4141 C3024.7344,488.4141 3024.4688,488.5234 3024.2969,488.7734 C3024.1875,488.9297 3024.1563,489.0703 3024.1563,489.5547 L3024.1563,490.4297 L3019.7969,490.4297 L3019.7969,488.0078 Z " fill="#000000"/><text fill="#000000" font-family="sans-serif" font-size="12" font-style="italic" lengthAdjust="spacing" textLength="85" x="3045.5" y="483.1387">&#171;valueObject&#187;</text><text fill="#000000" font-family="sans-serif" font-size="14" lengthAdjust="spacing" textLength="106" x="3035" y="498.9639">FeedbackType</text><line style="stroke:#181818;stroke-width:0.5;" x1="3007" x2="3143" y1="507.2656" y2="507.2656"/><line style="stroke:#181818;stroke-width:0.5;" x1="3007" x2="3143" y1="515.2656" y2="515.2656"/></g><!--class ExamHeaderDescription--><g id="elem_ExamHeaderDescription"><rect codeLine="42" fill="#F1F1F1" height="56.2656" id="ExamHeaderDescription" rx="2.5" ry="2.5" style="stroke:#181818;stroke-width:0.5;" width="206" x="2765" y="467"/><ellipse cx="2780" cy="487.1328" fill="#ADD1B2" rx="11" ry="11" style="stroke:#181818;stroke-width:1.0;"/><path d="M2782.3438,482.8047 C2781.4063,482.3672 2780.8125,482.2266 2779.9375,482.2266 C2777.3125,482.2266 2775.3125,484.3047 2775.3125,487.0234 L2775.3125,488.1484 C2775.3125,490.7266 2777.4219,492.6172 2780.3125,492.6172 C2781.5313,492.6172 2782.6875,492.3203 2783.4375,491.7734 C2784.0156,491.3672 2784.3438,490.9141 2784.3438,490.5234 C2784.3438,490.0703 2783.9531,489.6797 2783.4844,489.6797 C2783.2656,489.6797 2783.0625,489.7578 2782.875,489.9453 C2782.4219,490.4297 2782.4219,490.4297 2782.2344,490.5234 C2781.8125,490.7891 2781.125,490.9141 2780.3594,490.9141 C2778.3125,490.9141 2777.0156,489.8203 2777.0156,488.1172 L2777.0156,487.0234 C2777.0156,485.2422 2778.2656,483.9297 2780,483.9297 C2780.5781,483.9297 2781.1875,484.0859 2781.6563,484.3359 C2782.1406,484.6172 2782.3125,484.8359 2782.4063,485.2422 C2782.4688,485.6484 2782.5,485.7734 2782.6406,485.8984 C2782.7813,486.0391 2783.0156,486.1484 2783.2344,486.1484 C2783.5,486.1484 2783.7656,486.0078 2783.9375,485.7891 C2784.0469,485.6328 2784.0781,485.4453 2784.0781,485.0234 L2784.0781,483.6016 C2784.0781,483.1641 2784.0625,483.0391 2783.9688,482.8828 C2783.8125,482.6172 2783.5313,482.4766 2783.2344,482.4766 C2782.9375,482.4766 2782.7344,482.5703 2782.5156,482.8828 L2782.3438,482.8047 Z " fill="#000000"/><text fill="#000000" font-family="sans-serif" font-size="12" font-style="italic" lengthAdjust="spacing" textLength="85" x="2838.5" y="483.1387">&#171;valueObject&#187;</text><text fill="#000000" font-family="sans-serif" font-size="14" lengthAdjust="spacing" textLength="174" x="2794" y="498.9639">ExamHeaderDescription</text><line style="stroke:#181818;stroke-width:0.5;" x1="2766" x2="2970" y1="507.2656" y2="507.2656"/><line style="stroke:#181818;stroke-width:0.5;" x1="2766" x2="2970" y1="515.2656" y2="515.2656"/></g><!--class Section--><g id="elem_Section"><rect codeLine="45" fill="#F1F1F1" height="121.4531" id="Section" rx="2.5" ry="2.5" style="stroke:#181818;stroke-width:0.5;" width="395" x="1868.5" y="434.5"/><ellipse cx="2034.25" cy="454.6328" fill="#ADD1B2" rx="11" ry="11" style="stroke:#181818;stroke-width:1.0;"/><path d="M2036.5938,450.3047 C2035.6563,449.8672 2035.0625,449.7266 2034.1875,449.7266 C2031.5625,449.7266 2029.5625,451.8047 2029.5625,454.5234 L2029.5625,455.6484 C2029.5625,458.2266 2031.6719,460.1172 2034.5625,460.1172 C2035.7813,460.1172 2036.9375,459.8203 2037.6875,459.2734 C2038.2656,458.8672 2038.5938,458.4141 2038.5938,458.0234 C2038.5938,457.5703 2038.2031,457.1797 2037.7344,457.1797 C2037.5156,457.1797 2037.3125,457.2578 2037.125,457.4453 C2036.6719,457.9297 2036.6719,457.9297 2036.4844,458.0234 C2036.0625,458.2891 2035.375,458.4141 2034.6094,458.4141 C2032.5625,458.4141 2031.2656,457.3203 2031.2656,455.6172 L2031.2656,454.5234 C2031.2656,452.7422 2032.5156,451.4297 2034.25,451.4297 C2034.8281,451.4297 2035.4375,451.5859 2035.9063,451.8359 C2036.3906,452.1172 2036.5625,452.3359 2036.6563,452.7422 C2036.7188,453.1484 2036.75,453.2734 2036.8906,453.3984 C2037.0313,453.5391 2037.2656,453.6484 2037.4844,453.6484 C2037.75,453.6484 2038.0156,453.5078 2038.1875,453.2891 C2038.2969,453.1328 2038.3281,452.9453 2038.3281,452.5234 L2038.3281,451.1016 C2038.3281,450.6641 2038.3125,450.5391 2038.2188,450.3828 C2038.0625,450.1172 2037.7813,449.9766 2037.4844,449.9766 C2037.1875,449.9766 2036.9844,450.0703 2036.7656,450.3828 L2036.5938,450.3047 Z " fill="#000000"/><text fill="#000000" font-family="sans-serif" font-size="12" font-style="italic" lengthAdjust="spacing" textLength="49" x="2057.75" y="450.6387">&#171;entity&#187;</text><text fill="#000000" font-family="sans-serif" font-size="14" lengthAdjust="spacing" textLength="55" x="2054.75" y="466.4639">Section</text><line style="stroke:#181818;stroke-width:0.5;" x1="1869.5" x2="2262.5" y1="474.7656" y2="474.7656"/><rect fill="none" height="6" style="stroke:#C82930;stroke-width:1.0;" width="6" x="1876.5" y="485.4141"/><text fill="#000000" font-family="sans-serif" font-size="14" lengthAdjust="spacing" textLength="61" x="1888.5" y="491.7607">id : Long</text><rect fill="none" height="6" style="stroke:#C82930;stroke-width:1.0;" width="6" x="1876.5" y="501.7109"/><text fill="#000000" font-family="sans-serif" font-size="14" lengthAdjust="spacing" textLength="369" x="1888.5" y="508.0576">examSectionDescription : ExamSectionDescription</text><rect fill="none" height="6" style="stroke:#C82930;stroke-width:1.0;" width="6" x="1876.5" y="518.0078"/><text fill="#000000" font-family="sans-serif" font-size="14" lengthAdjust="spacing" textLength="252" x="1888.5" y="524.3545">questionList : List&lt;ExamQuestion&gt;</text><line style="stroke:#181818;stroke-width:0.5;" x1="1869.5" x2="2262.5" y1="531.6563" y2="531.6563"/><ellipse cx="1879.5" cy="545.3047" fill="#84BE84" rx="3" ry="3" style="stroke:#038048;stroke-width:1.0;"/><text fill="#000000" font-family="sans-serif" font-size="14" lengthAdjust="spacing" textLength="308" x="1888.5" y="548.6514">init(examSectionDescription, questionList)</text></g><!--class ExamSectionDescription--><g id="elem_ExamSectionDescription"><rect codeLine="51" fill="#F1F1F1" height="56.2656" id="ExamSectionDescription" rx="2.5" ry="2.5" style="stroke:#181818;stroke-width:0.5;" width="210" x="1848" y="679.5"/><ellipse cx="1863" cy="699.6328" fill="#ADD1B2" rx="11" ry="11" style="stroke:#181818;stroke-width:1.0;"/><path d="M1865.3438,695.3047 C1864.4063,694.8672 1863.8125,694.7266 1862.9375,694.7266 C1860.3125,694.7266 1858.3125,696.8047 1858.3125,699.5234 L1858.3125,700.6484 C1858.3125,703.2266 1860.4219,705.1172 1863.3125,705.1172 C1864.5313,705.1172 1865.6875,704.8203 1866.4375,704.2734 C1867.0156,703.8672 1867.3438,703.4141 1867.3438,703.0234 C1867.3438,702.5703 1866.9531,702.1797 1866.4844,702.1797 C1866.2656,702.1797 1866.0625,702.2578 1865.875,702.4453 C1865.4219,702.9297 1865.4219,702.9297 1865.2344,703.0234 C1864.8125,703.2891 1864.125,703.4141 1863.3594,703.4141 C1861.3125,703.4141 1860.0156,702.3203 1860.0156,700.6172 L1860.0156,699.5234 C1860.0156,697.7422 1861.2656,696.4297 1863,696.4297 C1863.5781,696.4297 1864.1875,696.5859 1864.6563,696.8359 C1865.1406,697.1172 1865.3125,697.3359 1865.4063,697.7422 C1865.4688,698.1484 1865.5,698.2734 1865.6406,698.3984 C1865.7813,698.5391 1866.0156,698.6484 1866.2344,698.6484 C1866.5,698.6484 1866.7656,698.5078 1866.9375,698.2891 C1867.0469,698.1328 1867.0781,697.9453 1867.0781,697.5234 L1867.0781,696.1016 C1867.0781,695.6641 1867.0625,695.5391 1866.9688,695.3828 C1866.8125,695.1172 1866.5313,694.9766 1866.2344,694.9766 C1865.9375,694.9766 1865.7344,695.0703 1865.5156,695.3828 L1865.3438,695.3047 Z " fill="#000000"/><text fill="#000000" font-family="sans-serif" font-size="12" font-style="italic" lengthAdjust="spacing" textLength="85" x="1923.5" y="695.6387">&#171;valueObject&#187;</text><text fill="#000000" font-family="sans-serif" font-size="14" lengthAdjust="spacing" textLength="178" x="1877" y="711.4639">ExamSectionDescription</text><line style="stroke:#181818;stroke-width:0.5;" x1="1849" x2="2057" y1="719.7656" y2="719.7656"/><line style="stroke:#181818;stroke-width:0.5;" x1="1849" x2="2057" y1="727.7656" y2="727.7656"/></g><!--class ExamQuestion--><g id="elem_ExamQuestion"><rect codeLine="54" fill="#F1F1F1" height="121.4531" id="ExamQuestion" rx="2.5" ry="2.5" style="stroke:#181818;stroke-width:0.5;" width="169" x="2093.5" y="647"/><ellipse cx="2123.8" cy="667.1328" fill="#ADD1B2" rx="11" ry="11" style="stroke:#181818;stroke-width:1.0;"/><path d="M2126.1438,662.8047 C2125.2063,662.3672 2124.6125,662.2266 2123.7375,662.2266 C2121.1125,662.2266 2119.1125,664.3047 2119.1125,667.0234 L2119.1125,668.1484 C2119.1125,670.7266 2121.2219,672.6172 2124.1125,672.6172 C2125.3313,672.6172 2126.4875,672.3203 2127.2375,671.7734 C2127.8156,671.3672 2128.1438,670.9141 2128.1438,670.5234 C2128.1438,670.0703 2127.7531,669.6797 2127.2844,669.6797 C2127.0656,669.6797 2126.8625,669.7578 2126.675,669.9453 C2126.2219,670.4297 2126.2219,670.4297 2126.0344,670.5234 C2125.6125,670.7891 2124.925,670.9141 2124.1594,670.9141 C2122.1125,670.9141 2120.8156,669.8203 2120.8156,668.1172 L2120.8156,667.0234 C2120.8156,665.2422 2122.0656,663.9297 2123.8,663.9297 C2124.3781,663.9297 2124.9875,664.0859 2125.4563,664.3359 C2125.9406,664.6172 2126.1125,664.8359 2126.2063,665.2422 C2126.2688,665.6484 2126.3,665.7734 2126.4406,665.8984 C2126.5813,666.0391 2126.8156,666.1484 2127.0344,666.1484 C2127.3,666.1484 2127.5656,666.0078 2127.7375,665.7891 C2127.8469,665.6328 2127.8781,665.4453 2127.8781,665.0234 L2127.8781,663.6016 C2127.8781,663.1641 2127.8625,663.0391 2127.7688,662.8828 C2127.6125,662.6172 2127.3313,662.4766 2127.0344,662.4766 C2126.7375,662.4766 2126.5344,662.5703 2126.3156,662.8828 L2126.1438,662.8047 Z " fill="#000000"/><text fill="#000000" font-family="sans-serif" font-size="12" font-style="italic" lengthAdjust="spacing" textLength="49" x="2168.2" y="663.1387">&#171;entity&#187;</text><text fill="#000000" font-family="sans-serif" font-size="14" lengthAdjust="spacing" textLength="103" x="2141.2" y="678.9639">ExamQuestion</text><line style="stroke:#181818;stroke-width:0.5;" x1="2094.5" x2="2261.5" y1="687.2656" y2="687.2656"/><rect fill="none" height="6" style="stroke:#C82930;stroke-width:1.0;" width="6" x="2101.5" y="697.9141"/><text fill="#000000" font-family="sans-serif" font-size="14" lengthAdjust="spacing" textLength="61" x="2113.5" y="704.2607">id : Long</text><rect fill="none" height="6" style="stroke:#C82930;stroke-width:1.0;" width="6" x="2101.5" y="714.2109"/><text fill="#000000" font-family="sans-serif" font-size="14" lengthAdjust="spacing" textLength="139" x="2113.5" y="720.5576">question : Question</text><rect fill="none" height="6" style="stroke:#C82930;stroke-width:1.0;" width="6" x="2101.5" y="730.5078"/><text fill="#000000" font-family="sans-serif" font-size="14" lengthAdjust="spacing" textLength="93" x="2113.5" y="736.8545">score : Score</text><line style="stroke:#181818;stroke-width:0.5;" x1="2094.5" x2="2261.5" y1="744.1563" y2="744.1563"/><ellipse cx="2104.5" cy="757.8047" fill="#84BE84" rx="3" ry="3" style="stroke:#038048;stroke-width:1.0;"/><text fill="#000000" font-family="sans-serif" font-size="14" lengthAdjust="spacing" textLength="143" x="2113.5" y="761.1514">init(question, score)</text></g><!--class Score--><g id="elem_Score"><rect codeLine="60" fill="#F1F1F1" height="56.2656" id="Score" rx="2.5" ry="2.5" style="stroke:#181818;stroke-width:0.5;" width="113" x="2047.5" y="828"/><ellipse cx="2062.5" cy="848.1328" fill="#ADD1B2" rx="11" ry="11" style="stroke:#181818;stroke-width:1.0;"/><path d="M2064.8438,843.8047 C2063.9063,843.3672 2063.3125,843.2266 2062.4375,843.2266 C2059.8125,843.2266 2057.8125,845.3047 2057.8125,848.0234 L2057.8125,849.1484 C2057.8125,851.7266 2059.9219,853.6172 2062.8125,853.6172 C2064.0313,853.6172 2065.1875,853.3203 2065.9375,852.7734 C2066.5156,852.3672 2066.8438,851.9141 2066.8438,851.5234 C2066.8438,851.0703 2066.4531,850.6797 2065.9844,850.6797 C2065.7656,850.6797 2065.5625,850.7578 2065.375,850.9453 C2064.9219,851.4297 2064.9219,851.4297 2064.7344,851.5234 C2064.3125,851.7891 2063.625,851.9141 2062.8594,851.9141 C2060.8125,851.9141 2059.5156,850.8203 2059.5156,849.1172 L2059.5156,848.0234 C2059.5156,846.2422 2060.7656,844.9297 2062.5,844.9297 C2063.0781,844.9297 2063.6875,845.0859 2064.1563,845.3359 C2064.6406,845.6172 2064.8125,845.8359 2064.9063,846.2422 C2064.9688,846.6484 2065,846.7734 2065.1406,846.8984 C2065.2813,847.0391 2065.5156,847.1484 2065.7344,847.1484 C2066,847.1484 2066.2656,847.0078 2066.4375,846.7891 C2066.5469,846.6328 2066.5781,846.4453 2066.5781,846.0234 L2066.5781,844.6016 C2066.5781,844.1641 2066.5625,844.0391 2066.4688,843.8828 C2066.3125,843.6172 2066.0313,843.4766 2065.7344,843.4766 C2065.4375,843.4766 2065.2344,843.5703 2065.0156,843.8828 L2064.8438,843.8047 Z " fill="#000000"/><text fill="#000000" font-family="sans-serif" font-size="12" font-style="italic" lengthAdjust="spacing" textLength="85" x="2074.5" y="844.1387">&#171;valueObject&#187;</text><text fill="#000000" font-family="sans-serif" font-size="14" lengthAdjust="spacing" textLength="41" x="2096.5" y="859.9639">Score</text><line style="stroke:#181818;stroke-width:0.5;" x1="2048.5" x2="2159.5" y1="868.2656" y2="868.2656"/><line style="stroke:#181818;stroke-width:0.5;" x1="2048.5" x2="2159.5" y1="876.2656" y2="876.2656"/></g><!--class Question--><g id="elem_Question"><rect codeLine="62" fill="#F1F1F1" height="56.2656" id="Question" rx="2.5" ry="2.5" style="stroke:#181818;stroke-width:0.5;" width="113" x="2195.5" y="828"/><ellipse cx="2210.5" cy="848.1328" fill="#ADD1B2" rx="11" ry="11" style="stroke:#181818;stroke-width:1.0;"/><path d="M2212.8438,843.8047 C2211.9063,843.3672 2211.3125,843.2266 2210.4375,843.2266 C2207.8125,843.2266 2205.8125,845.3047 2205.8125,848.0234 L2205.8125,849.1484 C2205.8125,851.7266 2207.9219,853.6172 2210.8125,853.6172 C2212.0313,853.6172 2213.1875,853.3203 2213.9375,852.7734 C2214.5156,852.3672 2214.8438,851.9141 2214.8438,851.5234 C2214.8438,851.0703 2214.4531,850.6797 2213.9844,850.6797 C2213.7656,850.6797 2213.5625,850.7578 2213.375,850.9453 C2212.9219,851.4297 2212.9219,851.4297 2212.7344,851.5234 C2212.3125,851.7891 2211.625,851.9141 2210.8594,851.9141 C2208.8125,851.9141 2207.5156,850.8203 2207.5156,849.1172 L2207.5156,848.0234 C2207.5156,846.2422 2208.7656,844.9297 2210.5,844.9297 C2211.0781,844.9297 2211.6875,845.0859 2212.1563,845.3359 C2212.6406,845.6172 2212.8125,845.8359 2212.9063,846.2422 C2212.9688,846.6484 2213,846.7734 2213.1406,846.8984 C2213.2813,847.0391 2213.5156,847.1484 2213.7344,847.1484 C2214,847.1484 2214.2656,847.0078 2214.4375,846.7891 C2214.5469,846.6328 2214.5781,846.4453 2214.5781,846.0234 L2214.5781,844.6016 C2214.5781,844.1641 2214.5625,844.0391 2214.4688,843.8828 C2214.3125,843.6172 2214.0313,843.4766 2213.7344,843.4766 C2213.4375,843.4766 2213.2344,843.5703 2213.0156,843.8828 L2212.8438,843.8047 Z " fill="#000000"/><text fill="#000000" font-family="sans-serif" font-size="12" font-style="italic" lengthAdjust="spacing" textLength="85" x="2222.5" y="844.1387">&#171;valueObject&#187;</text><text fill="#000000" font-family="sans-serif" font-size="14" lengthAdjust="spacing" textLength="64" x="2233" y="859.9639">Question</text><line style="stroke:#181818;stroke-width:0.5;" x1="2196.5" x2="2307.5" y1="868.2656" y2="868.2656"/><line style="stroke:#181818;stroke-width:0.5;" x1="2196.5" x2="2307.5" y1="876.2656" y2="876.2656"/></g><!--class ExamRepository--><g id="elem_ExamRepository"><rect codeLine="67" fill="#F1F1F1" height="64.2969" id="ExamRepository" rx="2.5" ry="2.5" style="stroke:#181818;stroke-width:0.5;" width="284" x="713" y="675.5"/><ellipse cx="792.75" cy="691.5" fill="#B4A7E5" rx="11" ry="11" style="stroke:#181818;stroke-width:1.0;"/><path d="M793.7031,688.2813 L795.4219,688.2813 C795.8125,688.2813 796,688.25 796.125,688.1719 C796.3906,688.0156 796.5313,687.7344 796.5313,687.4375 C796.5313,687.1719 796.4219,686.9063 796.1875,686.7344 C796.0156,686.625 795.875,686.5938 795.4219,686.5938 L790.2813,686.5938 C789.8438,686.5938 789.7188,686.6094 789.5625,686.7031 C789.3125,686.8594 789.1563,687.1563 789.1563,687.4375 C789.1563,687.7188 789.2969,687.9688 789.5156,688.1406 C789.6719,688.25 789.8594,688.2813 790.2813,688.2813 L792,688.2813 L792,694.7969 L790.2813,694.7969 C789.8438,694.7969 789.7188,694.8125 789.5625,694.9219 C789.3125,695.0781 789.1563,695.3594 789.1563,695.6563 C789.1563,695.9063 789.2969,696.1719 789.5156,696.3281 C789.6719,696.4531 789.875,696.5 790.2813,696.5 L795.4219,696.5 C796.1719,696.5 796.5313,696.2188 796.5313,695.6563 C796.5313,695.375 796.4219,695.125 796.1875,694.9531 C796.0156,694.8281 795.875,694.7969 795.4219,694.7969 L793.7031,694.7969 L793.7031,688.2813 Z " fill="#000000"/><text fill="#000000" font-family="sans-serif" font-size="14" font-style="italic" lengthAdjust="spacing" textLength="116" x="813.25" y="696.3467">ExamRepository</text><line style="stroke:#181818;stroke-width:0.5;" x1="714" x2="996" y1="707.5" y2="707.5"/><line style="stroke:#181818;stroke-width:0.5;" x1="714" x2="996" y1="715.5" y2="715.5"/><ellipse cx="724" cy="729.1484" fill="#84BE84" rx="3" ry="3" style="stroke:#038048;stroke-width:1.0;"/><text fill="#000000" font-family="sans-serif" font-size="14" lengthAdjust="spacing" textLength="258" x="733" y="732.4951">save(newAutomaticFormativeExam)</text></g><!--class CourseRepository--><g id="elem_CourseRepository"><rect codeLine="70" fill="#F1F1F1" height="64.2969" id="CourseRepository" rx="2.5" ry="2.5" style="stroke:#181818;stroke-width:0.5;" width="158" x="520" y="675.5"/><ellipse cx="535" cy="691.5" fill="#B4A7E5" rx="11" ry="11" style="stroke:#181818;stroke-width:1.0;"/><path d="M535.9531,688.2813 L537.6719,688.2813 C538.0625,688.2813 538.25,688.25 538.375,688.1719 C538.6406,688.0156 538.7813,687.7344 538.7813,687.4375 C538.7813,687.1719 538.6719,686.9063 538.4375,686.7344 C538.2656,686.625 538.125,686.5938 537.6719,686.5938 L532.5313,686.5938 C532.0938,686.5938 531.9688,686.6094 531.8125,686.7031 C531.5625,686.8594 531.4063,687.1563 531.4063,687.4375 C531.4063,687.7188 531.5469,687.9688 531.7656,688.1406 C531.9219,688.25 532.1094,688.2813 532.5313,688.2813 L534.25,688.2813 L534.25,694.7969 L532.5313,694.7969 C532.0938,694.7969 531.9688,694.8125 531.8125,694.9219 C531.5625,695.0781 531.4063,695.3594 531.4063,695.6563 C531.4063,695.9063 531.5469,696.1719 531.7656,696.3281 C531.9219,696.4531 532.125,696.5 532.5313,696.5 L537.6719,696.5 C538.4219,696.5 538.7813,696.2188 538.7813,695.6563 C538.7813,695.375 538.6719,695.125 538.4375,694.9531 C538.2656,694.8281 538.125,694.7969 537.6719,694.7969 L535.9531,694.7969 L535.9531,688.2813 Z " fill="#000000"/><text fill="#000000" font-family="sans-serif" font-size="14" font-style="italic" lengthAdjust="spacing" textLength="126" x="549" y="696.3467">CourseRepository</text><line style="stroke:#181818;stroke-width:0.5;" x1="521" x2="677" y1="707.5" y2="707.5"/><line style="stroke:#181818;stroke-width:0.5;" x1="521" x2="677" y1="715.5" y2="715.5"/><ellipse cx="531" cy="729.1484" fill="#84BE84" rx="3" ry="3" style="stroke:#038048;stroke-width:1.0;"/><text fill="#000000" font-family="sans-serif" font-size="14" lengthAdjust="spacing" textLength="82" x="540" y="732.4951">allCourses()</text></g><!--class QuestionTypeRepository--><g id="elem_QuestionTypeRepository"><rect codeLine="73" fill="#F1F1F1" height="64.2969" id="QuestionTypeRepository" rx="2.5" ry="2.5" style="stroke:#181818;stroke-width:0.5;" width="206" x="279" y="675.5"/><ellipse cx="294" cy="691.5" fill="#B4A7E5" rx="11" ry="11" style="stroke:#181818;stroke-width:1.0;"/><path d="M294.9531,688.2813 L296.6719,688.2813 C297.0625,688.2813 297.25,688.25 297.375,688.1719 C297.6406,688.0156 297.7813,687.7344 297.7813,687.4375 C297.7813,687.1719 297.6719,686.9063 297.4375,686.7344 C297.2656,686.625 297.125,686.5938 296.6719,686.5938 L291.5313,686.5938 C291.0938,686.5938 290.9688,686.6094 290.8125,686.7031 C290.5625,686.8594 290.4063,687.1563 290.4063,687.4375 C290.4063,687.7188 290.5469,687.9688 290.7656,688.1406 C290.9219,688.25 291.1094,688.2813 291.5313,688.2813 L293.25,688.2813 L293.25,694.7969 L291.5313,694.7969 C291.0938,694.7969 290.9688,694.8125 290.8125,694.9219 C290.5625,695.0781 290.4063,695.3594 290.4063,695.6563 C290.4063,695.9063 290.5469,696.1719 290.7656,696.3281 C290.9219,696.4531 291.125,696.5 291.5313,696.5 L296.6719,696.5 C297.4219,696.5 297.7813,696.2188 297.7813,695.6563 C297.7813,695.375 297.6719,695.125 297.4375,694.9531 C297.2656,694.8281 297.125,694.7969 296.6719,694.7969 L294.9531,694.7969 L294.9531,688.2813 Z " fill="#000000"/><text fill="#000000" font-family="sans-serif" font-size="14" font-style="italic" lengthAdjust="spacing" textLength="174" x="308" y="696.3467">QuestionTypeRepository</text><line style="stroke:#181818;stroke-width:0.5;" x1="280" x2="484" y1="707.5" y2="707.5"/><line style="stroke:#181818;stroke-width:0.5;" x1="280" x2="484" y1="715.5" y2="715.5"/><ellipse cx="290" cy="729.1484" fill="#84BE84" rx="3" ry="3" style="stroke:#038048;stroke-width:1.0;"/><text fill="#000000" font-family="sans-serif" font-size="14" lengthAdjust="spacing" textLength="138" x="299" y="732.4951">findQuestionType()</text></g><!--class CreateAutomaticExamsController--><g id="elem_CreateAutomaticExamsController"><rect codeLine="78" fill="#F1F1F1" height="137.75" id="CreateAutomaticExamsController" rx="2.5" ry="2.5" style="stroke:#181818;stroke-width:0.5;" width="709" x="299.5" y="205"/><ellipse cx="528.25" cy="225.1328" fill="#ADD1B2" rx="11" ry="11" style="stroke:#181818;stroke-width:1.0;"/><path d="M530.5938,220.8047 C529.6563,220.3672 529.0625,220.2266 528.1875,220.2266 C525.5625,220.2266 523.5625,222.3047 523.5625,225.0234 L523.5625,226.1484 C523.5625,228.7266 525.6719,230.6172 528.5625,230.6172 C529.7813,230.6172 530.9375,230.3203 531.6875,229.7734 C532.2656,229.3672 532.5938,228.9141 532.5938,228.5234 C532.5938,228.0703 532.2031,227.6797 531.7344,227.6797 C531.5156,227.6797 531.3125,227.7578 531.125,227.9453 C530.6719,228.4297 530.6719,228.4297 530.4844,228.5234 C530.0625,228.7891 529.375,228.9141 528.6094,228.9141 C526.5625,228.9141 525.2656,227.8203 525.2656,226.1172 L525.2656,225.0234 C525.2656,223.2422 526.5156,221.9297 528.25,221.9297 C528.8281,221.9297 529.4375,222.0859 529.9063,222.3359 C530.3906,222.6172 530.5625,222.8359 530.6563,223.2422 C530.7188,223.6484 530.75,223.7734 530.8906,223.8984 C531.0313,224.0391 531.2656,224.1484 531.4844,224.1484 C531.75,224.1484 532.0156,224.0078 532.1875,223.7891 C532.2969,223.6328 532.3281,223.4453 532.3281,223.0234 L532.3281,221.6016 C532.3281,221.1641 532.3125,221.0391 532.2188,220.8828 C532.0625,220.6172 531.7813,220.4766 531.4844,220.4766 C531.1875,220.4766 530.9844,220.5703 530.7656,220.8828 L530.5938,220.8047 Z " fill="#000000"/><text fill="#000000" font-family="sans-serif" font-size="12" font-style="italic" lengthAdjust="spacing" textLength="71" x="634.75" y="221.1387">&#171;controller&#187;</text><text fill="#000000" font-family="sans-serif" font-size="14" lengthAdjust="spacing" textLength="243" x="548.75" y="236.9639">CreateAutomaticExamsController</text><line style="stroke:#181818;stroke-width:0.5;" x1="300.5" x2="1007.5" y1="245.2656" y2="245.2656"/><rect fill="none" height="6" style="stroke:#C82930;stroke-width:1.0;" width="6" x="307.5" y="255.9141"/><text fill="#000000" font-family="sans-serif" font-size="14" lengthAdjust="spacing" textLength="204" x="319.5" y="262.2607">authz : AuthorizationService</text><line style="stroke:#181818;stroke-width:0.5;" x1="300.5" x2="1007.5" y1="269.5625" y2="269.5625"/><ellipse cx="310.5" cy="283.2109" fill="#84BE84" rx="3" ry="3" style="stroke:#038048;stroke-width:1.0;"/><text fill="#000000" font-family="sans-serif" font-size="14" lengthAdjust="spacing" textLength="82" x="319.5" y="286.5576">allCourses()</text><ellipse cx="310.5" cy="299.5078" fill="#84BE84" rx="3" ry="3" style="stroke:#038048;stroke-width:1.0;"/><text fill="#000000" font-family="sans-serif" font-size="14" lengthAdjust="spacing" textLength="138" x="319.5" y="302.8545">findQuestionType()</text><ellipse cx="310.5" cy="315.8047" fill="#84BE84" rx="3" ry="3" style="stroke:#038048;stroke-width:1.0;"/><text fill="#000000" font-family="sans-serif" font-size="14" lengthAdjust="spacing" textLength="399" x="319.5" y="319.1514">verifyAutomaticFormativeExam(newExamFileLanguage)</text><ellipse cx="310.5" cy="332.1016" fill="#84BE84" rx="3" ry="3" style="stroke:#038048;stroke-width:1.0;"/><text fill="#000000" font-family="sans-serif" font-size="14" lengthAdjust="spacing" textLength="683" x="319.5" y="335.4482">saveAutomaticFormativeExam(examTitle, examDescription, section, examHeader, courseCode)</text></g><!--class ExamManagementService--><g id="elem_ExamManagementService"><rect codeLine="86" fill="#F1F1F1" height="88.8594" id="ExamManagementService" rx="2.5" ry="2.5" style="stroke:#181818;stroke-width:0.5;" width="284" x="781" y="450.5"/><ellipse cx="825.75" cy="470.6328" fill="#ADD1B2" rx="11" ry="11" style="stroke:#181818;stroke-width:1.0;"/><path d="M828.0938,466.3047 C827.1563,465.8672 826.5625,465.7266 825.6875,465.7266 C823.0625,465.7266 821.0625,467.8047 821.0625,470.5234 L821.0625,471.6484 C821.0625,474.2266 823.1719,476.1172 826.0625,476.1172 C827.2813,476.1172 828.4375,475.8203 829.1875,475.2734 C829.7656,474.8672 830.0938,474.4141 830.0938,474.0234 C830.0938,473.5703 829.7031,473.1797 829.2344,473.1797 C829.0156,473.1797 828.8125,473.2578 828.625,473.4453 C828.1719,473.9297 828.1719,473.9297 827.9844,474.0234 C827.5625,474.2891 826.875,474.4141 826.1094,474.4141 C824.0625,474.4141 822.7656,473.3203 822.7656,471.6172 L822.7656,470.5234 C822.7656,468.7422 824.0156,467.4297 825.75,467.4297 C826.3281,467.4297 826.9375,467.5859 827.4063,467.8359 C827.8906,468.1172 828.0625,468.3359 828.1563,468.7422 C828.2188,469.1484 828.25,469.2734 828.3906,469.3984 C828.5313,469.5391 828.7656,469.6484 828.9844,469.6484 C829.25,469.6484 829.5156,469.5078 829.6875,469.2891 C829.7969,469.1328 829.8281,468.9453 829.8281,468.5234 L829.8281,467.1016 C829.8281,466.6641 829.8125,466.5391 829.7188,466.3828 C829.5625,466.1172 829.2813,465.9766 828.9844,465.9766 C828.6875,465.9766 828.4844,466.0703 828.2656,466.3828 L828.0938,466.3047 Z " fill="#000000"/><text fill="#000000" font-family="sans-serif" font-size="12" font-style="italic" lengthAdjust="spacing" textLength="56" x="911.25" y="466.6387">&#171;service&#187;</text><text fill="#000000" font-family="sans-serif" font-size="14" lengthAdjust="spacing" textLength="186" x="846.25" y="482.4639">ExamManagementService</text><line style="stroke:#181818;stroke-width:0.5;" x1="782" x2="1064" y1="490.7656" y2="490.7656"/><rect fill="none" height="6" style="stroke:#C82930;stroke-width:1.0;" width="6" x="789" y="501.4141"/><text fill="#000000" font-family="sans-serif" font-size="14" lengthAdjust="spacing" textLength="249" x="801" y="507.7607">examRepository : ExamRepository</text><line style="stroke:#181818;stroke-width:0.5;" x1="782" x2="1064" y1="515.0625" y2="515.0625"/><ellipse cx="792" cy="528.7109" fill="#84BE84" rx="3" ry="3" style="stroke:#038048;stroke-width:1.0;"/><text fill="#000000" font-family="sans-serif" font-size="14" lengthAdjust="spacing" textLength="258" x="801" y="532.0576">save(newAutomaticFormativeExam)</text></g><!--class CourseManagementService--><g id="elem_CourseManagementService"><rect codeLine="90" fill="#F1F1F1" height="88.8594" id="CourseManagementService" rx="2.5" ry="2.5" style="stroke:#181818;stroke-width:0.5;" width="293" x="452.5" y="450.5"/><ellipse cx="496.75" cy="470.6328" fill="#ADD1B2" rx="11" ry="11" style="stroke:#181818;stroke-width:1.0;"/><path d="M499.0938,466.3047 C498.1563,465.8672 497.5625,465.7266 496.6875,465.7266 C494.0625,465.7266 492.0625,467.8047 492.0625,470.5234 L492.0625,471.6484 C492.0625,474.2266 494.1719,476.1172 497.0625,476.1172 C498.2813,476.1172 499.4375,475.8203 500.1875,475.2734 C500.7656,474.8672 501.0938,474.4141 501.0938,474.0234 C501.0938,473.5703 500.7031,473.1797 500.2344,473.1797 C500.0156,473.1797 499.8125,473.2578 499.625,473.4453 C499.1719,473.9297 499.1719,473.9297 498.9844,474.0234 C498.5625,474.2891 497.875,474.4141 497.1094,474.4141 C495.0625,474.4141 493.7656,473.3203 493.7656,471.6172 L493.7656,470.5234 C493.7656,468.7422 495.0156,467.4297 496.75,467.4297 C497.3281,467.4297 497.9375,467.5859 498.4063,467.8359 C498.8906,468.1172 499.0625,468.3359 499.1563,468.7422 C499.2188,469.1484 499.25,469.2734 499.3906,469.3984 C499.5313,469.5391 499.7656,469.6484 499.9844,469.6484 C500.25,469.6484 500.5156,469.5078 500.6875,469.2891 C500.7969,469.1328 500.8281,468.9453 500.8281,468.5234 L500.8281,467.1016 C500.8281,466.6641 500.8125,466.5391 500.7188,466.3828 C500.5625,466.1172 500.2813,465.9766 499.9844,465.9766 C499.6875,465.9766 499.4844,466.0703 499.2656,466.3828 L499.0938,466.3047 Z " fill="#000000"/><text fill="#000000" font-family="sans-serif" font-size="12" font-style="italic" lengthAdjust="spacing" textLength="56" x="587.25" y="466.6387">&#171;service&#187;</text><text fill="#000000" font-family="sans-serif" font-size="14" lengthAdjust="spacing" textLength="196" x="517.25" y="482.4639">CourseManagementService</text><line style="stroke:#181818;stroke-width:0.5;" x1="453.5" x2="744.5" y1="490.7656" y2="490.7656"/><rect fill="none" height="6" style="stroke:#C82930;stroke-width:1.0;" width="6" x="460.5" y="501.4141"/><text fill="#000000" font-family="sans-serif" font-size="14" lengthAdjust="spacing" textLength="267" x="472.5" y="507.7607">courseRepository : CourseRepository</text><line style="stroke:#181818;stroke-width:0.5;" x1="453.5" x2="744.5" y1="515.0625" y2="515.0625"/><ellipse cx="463.5" cy="528.7109" fill="#84BE84" rx="3" ry="3" style="stroke:#038048;stroke-width:1.0;"/><text fill="#000000" font-family="sans-serif" font-size="14" lengthAdjust="spacing" textLength="82" x="472.5" y="532.0576">allCourses()</text></g><!--class QuestionManagementService--><g id="elem_QuestionManagementService"><rect codeLine="94" fill="#F1F1F1" height="88.8594" id="QuestionManagementService" rx="2.5" ry="2.5" style="stroke:#181818;stroke-width:0.5;" width="395" x="22.5" y="450.5"/><ellipse cx="110.25" cy="470.6328" fill="#ADD1B2" rx="11" ry="11" style="stroke:#181818;stroke-width:1.0;"/><path d="M112.5938,466.3047 C111.6563,465.8672 111.0625,465.7266 110.1875,465.7266 C107.5625,465.7266 105.5625,467.8047 105.5625,470.5234 L105.5625,471.6484 C105.5625,474.2266 107.6719,476.1172 110.5625,476.1172 C111.7813,476.1172 112.9375,475.8203 113.6875,475.2734 C114.2656,474.8672 114.5938,474.4141 114.5938,474.0234 C114.5938,473.5703 114.2031,473.1797 113.7344,473.1797 C113.5156,473.1797 113.3125,473.2578 113.125,473.4453 C112.6719,473.9297 112.6719,473.9297 112.4844,474.0234 C112.0625,474.2891 111.375,474.4141 110.6094,474.4141 C108.5625,474.4141 107.2656,473.3203 107.2656,471.6172 L107.2656,470.5234 C107.2656,468.7422 108.5156,467.4297 110.25,467.4297 C110.8281,467.4297 111.4375,467.5859 111.9063,467.8359 C112.3906,468.1172 112.5625,468.3359 112.6563,468.7422 C112.7188,469.1484 112.75,469.2734 112.8906,469.3984 C113.0313,469.5391 113.2656,469.6484 113.4844,469.6484 C113.75,469.6484 114.0156,469.5078 114.1875,469.2891 C114.2969,469.1328 114.3281,468.9453 114.3281,468.5234 L114.3281,467.1016 C114.3281,466.6641 114.3125,466.5391 114.2188,466.3828 C114.0625,466.1172 113.7813,465.9766 113.4844,465.9766 C113.1875,465.9766 112.9844,466.0703 112.7656,466.3828 L112.5938,466.3047 Z " fill="#000000"/><text fill="#000000" font-family="sans-serif" font-size="12" font-style="italic" lengthAdjust="spacing" textLength="56" x="208.25" y="466.6387">&#171;service&#187;</text><text fill="#000000" font-family="sans-serif" font-size="14" lengthAdjust="spacing" textLength="211" x="130.75" y="482.4639">QuestionManagementService</text><line style="stroke:#181818;stroke-width:0.5;" x1="23.5" x2="416.5" y1="490.7656" y2="490.7656"/><rect fill="none" height="6" style="stroke:#C82930;stroke-width:1.0;" width="6" x="30.5" y="501.4141"/><text fill="#000000" font-family="sans-serif" font-size="14" lengthAdjust="spacing" textLength="369" x="42.5" y="507.7607">questionTypeRepository : QuestionTypeRepository</text><line style="stroke:#181818;stroke-width:0.5;" x1="23.5" x2="416.5" y1="515.0625" y2="515.0625"/><ellipse cx="33.5" cy="528.7109" fill="#84BE84" rx="3" ry="3" style="stroke:#038048;stroke-width:1.0;"/><text fill="#000000" font-family="sans-serif" font-size="14" lengthAdjust="spacing" textLength="138" x="42.5" y="532.0576">findQuestionType()</text></g><!--class Set--><g id="elem_Set"><rect codeLine="101" fill="#F1F1F1" height="48" id="Set" rx="2.5" ry="2.5" style="stroke:#181818;stroke-width:0.5;" width="55" x="879.5" y="61.5"/><ellipse cx="894.5" cy="77.5" fill="#B4A7E5" rx="11" ry="11" style="stroke:#181818;stroke-width:1.0;"/><path d="M895.4531,74.2813 L897.1719,74.2813 C897.5625,74.2813 897.75,74.25 897.875,74.1719 C898.1406,74.0156 898.2813,73.7344 898.2813,73.4375 C898.2813,73.1719 898.1719,72.9063 897.9375,72.7344 C897.7656,72.625 897.625,72.5938 897.1719,72.5938 L892.0313,72.5938 C891.5938,72.5938 891.4688,72.6094 891.3125,72.7031 C891.0625,72.8594 890.9063,73.1563 890.9063,73.4375 C890.9063,73.7188 891.0469,73.9688 891.2656,74.1406 C891.4219,74.25 891.6094,74.2813 892.0313,74.2813 L893.75,74.2813 L893.75,80.7969 L892.0313,80.7969 C891.5938,80.7969 891.4688,80.8125 891.3125,80.9219 C891.0625,81.0781 890.9063,81.3594 890.9063,81.6563 C890.9063,81.9063 891.0469,82.1719 891.2656,82.3281 C891.4219,82.4531 891.625,82.5 892.0313,82.5 L897.1719,82.5 C897.9219,82.5 898.2813,82.2188 898.2813,81.6563 C898.2813,81.375 898.1719,81.125 897.9375,80.9531 C897.7656,80.8281 897.625,80.7969 897.1719,80.7969 L895.4531,80.7969 L895.4531,74.2813 Z " fill="#000000"/><text fill="#000000" font-family="sans-serif" font-size="14" font-style="italic" lengthAdjust="spacing" textLength="23" x="908.5" y="82.3467">Set</text><line style="stroke:#181818;stroke-width:0.5;" x1="880.5" x2="933.5" y1="93.5" y2="93.5"/><line style="stroke:#181818;stroke-width:0.5;" x1="880.5" x2="933.5" y1="101.5" y2="101.5"/></g><!--class AuthorizationService--><g id="elem_AuthorizationService"><rect fill="#F1F1F1" height="48" id="AuthorizationService" rx="2.5" ry="2.5" style="stroke:#181818;stroke-width:0.5;" width="183" x="1100.5" y="471"/><ellipse cx="1115.5" cy="487" fill="#ADD1B2" rx="11" ry="11" style="stroke:#181818;stroke-width:1.0;"/><path d="M1117.8438,482.6719 C1116.9063,482.2344 1116.3125,482.0938 1115.4375,482.0938 C1112.8125,482.0938 1110.8125,484.1719 1110.8125,486.8906 L1110.8125,488.0156 C1110.8125,490.5938 1112.9219,492.4844 1115.8125,492.4844 C1117.0313,492.4844 1118.1875,492.1875 1118.9375,491.6406 C1119.5156,491.2344 1119.8438,490.7813 1119.8438,490.3906 C1119.8438,489.9375 1119.4531,489.5469 1118.9844,489.5469 C1118.7656,489.5469 1118.5625,489.625 1118.375,489.8125 C1117.9219,490.2969 1117.9219,490.2969 1117.7344,490.3906 C1117.3125,490.6563 1116.625,490.7813 1115.8594,490.7813 C1113.8125,490.7813 1112.5156,489.6875 1112.5156,487.9844 L1112.5156,486.8906 C1112.5156,485.1094 1113.7656,483.7969 1115.5,483.7969 C1116.0781,483.7969 1116.6875,483.9531 1117.1563,484.2031 C1117.6406,484.4844 1117.8125,484.7031 1117.9063,485.1094 C1117.9688,485.5156 1118,485.6406 1118.1406,485.7656 C1118.2813,485.9063 1118.5156,486.0156 1118.7344,486.0156 C1119,486.0156 1119.2656,485.875 1119.4375,485.6563 C1119.5469,485.5 1119.5781,485.3125 1119.5781,484.8906 L1119.5781,483.4688 C1119.5781,483.0313 1119.5625,482.9063 1119.4688,482.75 C1119.3125,482.4844 1119.0313,482.3438 1118.7344,482.3438 C1118.4375,482.3438 1118.2344,482.4375 1118.0156,482.75 L1117.8438,482.6719 Z " fill="#000000"/><text fill="#000000" font-family="sans-serif" font-size="14" lengthAdjust="spacing" textLength="151" x="1129.5" y="491.8467">AuthorizationService</text><line style="stroke:#181818;stroke-width:0.5;" x1="1101.5" x2="1282.5" y1="503" y2="503"/><line style="stroke:#181818;stroke-width:0.5;" x1="1101.5" x2="1282.5" y1="511" y2="511"/></g><!--link CreateAutomaticExamsController to AuthorizationService--><g id="link_CreateAutomaticExamsController_AuthorizationService"><path codeLine="105" d="M1008.71,325.476 C1033.96,335.097 1058.36,346.498 1081,360 C1124.52,385.956 1158.67,435.433 1177.04,466.46 " fill="none" id="CreateAutomaticExamsController-to-AuthorizationService" style="stroke:#181818;stroke-width:1.0;stroke-dasharray:7.0,7.0;"/><polygon fill="#181818" points="1179.63,470.899,1178.5374,461.1109,1177.105,466.5834,1171.6325,465.151,1179.63,470.899" style="stroke:#181818;stroke-width:1.0;"/></g><!--link CreateAutomaticExamsUI to CreateAutomaticExamsController--><g id="link_CreateAutomaticExamsUI_CreateAutomaticExamsController"><path codeLine="106" d="M654,130.226 C654,150.845 654,176.015 654,199.447 " fill="none" id="CreateAutomaticExamsUI-to-CreateAutomaticExamsController" style="stroke:#181818;stroke-width:1.0;stroke-dasharray:7.0,7.0;"/><polygon fill="#181818" points="654,204.731,658,195.731,654,199.731,650,195.731,654,204.731" style="stroke:#181818;stroke-width:1.0;"/></g><!--link CreateAutomaticExamsController to CourseManagementService--><g id="link_CreateAutomaticExamsController_CourseManagementService"><path codeLine="107" d="M636.899,343.092 C628.582,376.209 618.777,415.25 611.224,445.326 " fill="none" id="CreateAutomaticExamsController-to-CourseManagementService" style="stroke:#181818;stroke-width:1.0;stroke-dasharray:7.0,7.0;"/><polygon fill="#181818" points="609.937,450.452,616.0074,442.6963,611.154,445.6024,608.248,440.749,609.937,450.452" style="stroke:#181818;stroke-width:1.0;"/></g><!--link CreateAutomaticExamsController to QuestionManagementService--><g id="link_CreateAutomaticExamsController_QuestionManagementService"><path codeLine="108" d="M470.93,343.067 C458.658,348.544 446.581,354.207 435,360 C383.659,385.679 328.784,420.005 287.323,447.486 " fill="none" id="CreateAutomaticExamsController-to-QuestionManagementService" style="stroke:#181818;stroke-width:1.0;stroke-dasharray:7.0,7.0;"/><polygon fill="#181818" points="283.099,450.292,292.8087,448.6425,287.2634,447.5248,288.3812,441.9794,283.099,450.292" style="stroke:#181818;stroke-width:1.0;"/></g><!--link CreateAutomaticExamsController to ExamManagementService--><g id="link_CreateAutomaticExamsController_ExamManagementService"><path codeLine="109" d="M741.96,343.166 C749.102,348.83 756.188,354.494 763,360 C798.194,388.445 837.13,421.029 867.78,446.943 " fill="none" id="CreateAutomaticExamsController-to-ExamManagementService" style="stroke:#181818;stroke-width:1.0;stroke-dasharray:7.0,7.0;"/><polygon fill="#181818" points="871.857,450.392,867.5704,441.5249,868.0401,447.1622,862.4028,447.6319,871.857,450.392" style="stroke:#181818;stroke-width:1.0;"/></g><!--link ExamManagementService to AutomaticFormativeExam--><g id="link_ExamManagementService_AutomaticFormativeExam"><path codeLine="111" d="M957.701,450.241 C989.891,413.376 1041.61,365.046 1100.5,351.5 C1140.13,342.384 1243.87,342.384 1283.5,351.5 C1328.71,361.898 1374.97,380.362 1416.97,400.655 " fill="none" id="ExamManagementService-to-AutomaticFormativeExam" style="stroke:#181818;stroke-width:1.0;"/><polygon fill="#181818" points="1421.54,402.881,1415.1939,395.3492,1417.043,400.6954,1411.6969,402.5444,1421.54,402.881" style="stroke:#181818;stroke-width:1.0;"/></g><!--link AutomaticFormativeExam to ExamTitle--><g id="link_AutomaticFormativeExam_ExamTitle"><path codeLine="113" d="M1730.46,402.881 C1773.66,381.718 1821.64,362.277 1868.5,351.5 C1916.36,340.491 3588.64,340.491 3636.5,351.5 C3685.69,362.814 3709.98,422.928 3720.69,461.675 " fill="none" id="AutomaticFormativeExam-to-ExamTitle" style="stroke:#181818;stroke-width:1.0;"/><polygon fill="#181818" points="3722.05,466.759,3723.5834,457.0303,3720.7555,461.9295,3715.8562,459.1015,3722.05,466.759" style="stroke:#181818;stroke-width:1.0;"/></g><!--link AutomaticFormativeExam to ExamDescription--><g id="link_AutomaticFormativeExam_ExamDescription"><path codeLine="114" d="M1730.46,402.881 C1773.66,381.718 1821.64,362.277 1868.5,351.5 C1911.22,341.674 3403.78,341.674 3446.5,351.5 C3499.2,363.622 3531.66,423.466 3547.43,461.944 " fill="none" id="AutomaticFormativeExam-to-ExamDescription" style="stroke:#181818;stroke-width:1.0;"/><polygon fill="#181818" points="3549.45,466.991,3549.8162,457.149,3547.5906,462.3496,3542.3899,460.124,3549.45,466.991" style="stroke:#181818;stroke-width:1.0;"/></g><!--link AutomaticFormativeExam to CourseCode--><g id="link_AutomaticFormativeExam_CourseCode"><path codeLine="115" d="M1730.46,402.881 C1773.66,381.718 1821.64,362.277 1868.5,351.5 C1907.05,342.633 3253.95,342.633 3292.5,351.5 C3342.16,362.923 3367.63,423.001 3379.07,461.711 " fill="none" id="AutomaticFormativeExam-to-CourseCode" style="stroke:#181818;stroke-width:1.0;"/><polygon fill="#181818" points="3380.53,466.79,3381.8875,457.0351,3379.1485,461.9847,3374.199,459.2456,3380.53,466.79" style="stroke:#181818;stroke-width:1.0;"/></g><!--link AutomaticFormativeExam to ExamHeader--><g id="link_AutomaticFormativeExam_ExamHeader"><path codeLine="116" d="M1763.45,402.85 C1792.74,388.486 1822.68,373.827 1851,360 C1858.77,356.206 1860.07,353.438 1868.5,351.5 C1911.27,341.662 2220.73,341.662 2263.5,351.5 C2318.98,364.261 2374.54,393.948 2419.19,423.029 " fill="none" id="AutomaticFormativeExam-to-ExamHeader" style="stroke:#181818;stroke-width:1.0;"/><polygon fill="#181818" points="2423.48,425.841,2418.1485,417.56,2419.2992,423.0986,2413.7606,424.2492,2423.48,425.841" style="stroke:#181818;stroke-width:1.0;"/></g><!--link ExamHeader to GradeType--><g id="link_ExamHeader_GradeType"><path codeLine="117" d="M2604.93,425.876 C2650.48,395.924 2708.06,364.712 2765.5,351.5 C2806.54,342.061 3103.46,342.061 3144.5,351.5 C3193.69,362.814 3217.98,422.928 3228.69,461.675 " fill="none" id="ExamHeader-to-GradeType" style="stroke:#181818;stroke-width:1.0;"/><polygon fill="#181818" points="3230.05,466.759,3231.5834,457.0303,3228.7555,461.9295,3223.8562,459.1015,3230.05,466.759" style="stroke:#181818;stroke-width:1.0;"/></g><!--link ExamHeader to FeedbackType--><g id="link_ExamHeader_FeedbackType"><path codeLine="118" d="M2604.93,425.876 C2650.48,395.924 2708.06,364.712 2765.5,351.5 C2810.11,341.239 2926.89,341.239 2971.5,351.5 C2979.93,353.438 2982.54,354.248 2989,360 C3021.3,388.78 3046.12,432.478 3060.61,462.309 " fill="none" id="ExamHeader-to-FeedbackType" style="stroke:#181818;stroke-width:1.0;"/><polygon fill="#181818" points="3062.85,466.973,3062.5564,457.1285,3060.684,462.4665,3055.346,460.5941,3062.85,466.973" style="stroke:#181818;stroke-width:1.0;"/></g><!--link ExamHeader to ExamHeaderDescription--><g id="link_ExamHeader_ExamHeaderDescription"><path codeLine="119" d="M2729.72,495 C2739.69,495 2749.65,495 2759.62,495 " fill="none" id="ExamHeader-to-ExamHeaderDescription" style="stroke:#181818;stroke-width:1.0;"/><polygon fill="#181818" points="2764.83,495,2755.83,491,2759.83,495,2755.83,499,2764.83,495" style="stroke:#181818;stroke-width:1.0;"/></g><!--link AutomaticFormativeExam to Section--><g id="link_AutomaticFormativeExam_Section"><path codeLine="120" d="M1833.44,495 C1843.37,495 1853.3,495 1863.22,495 " fill="none" id="AutomaticFormativeExam-to-Section" style="stroke:#181818;stroke-width:1.0;"/><polygon fill="#181818" points="1868.42,495,1859.42,491,1863.42,495,1859.42,499,1868.42,495" style="stroke:#181818;stroke-width:1.0;"/></g><!--link Section to ExamSectionDescription--><g id="link_Section_ExamSectionDescription"><path codeLine="121" d="M2033.92,555.758 C2013.15,594.452 1986.92,643.305 1970.06,674.724 " fill="none" id="Section-to-ExamSectionDescription" style="stroke:#181818;stroke-width:1.0;"/><polygon fill="#181818" points="1967.64,679.23,1975.4169,673.1868,1970.0018,674.823,1968.3657,669.4079,1967.64,679.23" style="stroke:#181818;stroke-width:1.0;"/></g><!--link Section to ExamQuestion--><g id="link_Section_ExamQuestion"><path codeLine="122" d="M2097.8,555.758 C2112.16,582.76 2129.16,614.708 2143.8,642.228 " fill="none" id="Section-to-ExamQuestion" style="stroke:#181818;stroke-width:1.0;"/><polygon fill="#181818" points="2146.32,646.957,2145.624,637.1328,2143.9715,642.5429,2138.5614,640.8903,2146.32,646.957" style="stroke:#181818;stroke-width:1.0;"/></g><!--link ExamQuestion to Score--><g id="link_ExamQuestion_Score"><path codeLine="123" d="M2147.9,768.087 C2138.4,786.896 2128.27,806.952 2120.14,823.0522 " fill="none" id="ExamQuestion-to-Score" style="stroke:#181818;stroke-width:1.0;"/><polygon fill="#181818" points="2117.68,827.9162,2125.3034,821.6805,2119.9309,823.4515,2118.1598,818.079,2117.68,827.9162" style="stroke:#181818;stroke-width:1.0;"/></g><!--link ExamQuestion to Question--><g id="link_ExamQuestion_Question"><path codeLine="124" d="M2208.1,768.087 C2217.6,786.896 2227.73,806.952 2235.86,823.0522 " fill="none" id="ExamQuestion-to-Question" style="stroke:#181818;stroke-width:1.0;"/><polygon fill="#181818" points="2238.32,827.9162,2237.8402,818.079,2236.0691,823.4515,2230.6966,821.6805,2238.32,827.9162" style="stroke:#181818;stroke-width:1.0;"/></g><!--link CourseManagementService to CourseRepository--><g id="link_CourseManagementService_CourseRepository"><path codeLine="126" d="M599,539.616 C599,578.181 599,633.793 599,670.039 " fill="none" id="CourseManagementService-to-CourseRepository" style="stroke:#181818;stroke-width:1.0;stroke-dasharray:7.0,7.0;"/><polygon fill="#181818" points="599,675.242,603,666.242,599,670.242,595,666.242,599,675.242" style="stroke:#181818;stroke-width:1.0;"/></g><!--link QuestionManagementService to QuestionTypeRepository--><g id="link_QuestionManagementService_QuestionTypeRepository"><path codeLine="127" d="M253.567,539.616 C283.49,578.497 326.748,634.706 354.623,670.926 " fill="none" id="QuestionManagementService-to-QuestionTypeRepository" style="stroke:#181818;stroke-width:1.0;stroke-dasharray:7.0,7.0;"/><polygon fill="#181818" points="357.944,675.242,355.6246,665.6701,354.8944,671.2797,349.2849,670.5495,357.944,675.242" style="stroke:#181818;stroke-width:1.0;"/></g><!--link ExamManagementService to ExamRepository--><g id="link_ExamManagementService_ExamRepository"><path codeLine="128" d="M908.91,539.616 C896.401,578.339 878.34,634.249 866.635,670.484 " fill="none" id="ExamManagementService-to-ExamRepository" style="stroke:#181818;stroke-width:1.0;stroke-dasharray:7.0,7.0;"/><polygon fill="#181818" points="865.098,675.242,871.6708,667.9073,866.6349,670.4841,864.0581,665.4482,865.098,675.242" style="stroke:#181818;stroke-width:1.0;"/></g><!--SRC=[fLRDZjCm4BxxAI8uqAhfxW4EQ5LLGli3I8iGT7a0Rp9j3McSjPqkkrNV7JjnuadYfAdefR4zt_nydl7CkwrIcRowlCmIcgfybrn4V7SP9LJAUSpeHj0T8HcD_j0D16yo0H9IHHNZwPlWxKtnEv10_mf8S2s0AlYKAxxJGj7jNxgJlxu6YqNEbijIS1weBLppL0cU9222Ao_82HIWMH3prPO_JwR5yaYEX22_OerangFuCVv8uK0AAUTMhVkE2_E_1sD4kqKt6m4RRJqGdAlbKc_f-9XwgRmjFGOj_S1K0jhRs-gxTNu3CX8iCzHOARJJalq2D2v2lwqNI492PBNSCwaMgtAvH18iDeSytQ2zYET2Qc9Zu-HrlQWbPW5BcPhKeOHjhyFAS8Xy397UgQFrs2Au9aKJkAT93jyVVsjbcj3380QJDXxfeXi4rP_8e6NUTysQmpL0_AYJwk4bCopUeIKMwzAlDtMfn621dwjlBE18xQPAPzy1xRrXrq9dBFIhdJgy8o-0DDyvtmQuwu0m4oDnRSx7NRNdscp-epiB3YTlmx1YWLsskmSO-fI3D7kc-AeQDAWVTd_PkHk_iR2XQNg298-pPx64FJoFgifBVLGfmCSouiBazChyTqAlm64fDnHbeU2iv47n335HuboJ0Y4ruP16W3g25MUf0h6c4HI4_OICIwQuUAa5Pe6aUvYayEnl6dM4nwxAybtoADLQQPAKnt8ozJniJaaLj2ardogdSitI64iZnKq3HzSfQPObBAeQED3rX_ZzgGQEclLY4TMBPekakTg-wZJHq2qNxBKmiGAnPn6Sec4mb5cm1y7MB_xhC1Tb_kzO0lSqtUGwIemrbzc3_AzEY8hGrTytcchpErrxDd3Dboo_Meq66ibddoMtWSjiJ3eUIRivZdK5pmuDXzgvJ5h9Dv3FpU8zpvCdR_QZfwbvGCQNHF5G45TdAr27OemyaV8NywK_gNjcNID_Og8TOR7d5iT0UuaV0_QcCI7-x2wPyMGb8JqJjxLGpi_3ChWxzqkYGNTOdPsoqGoe3zoSrjnl37xD8_-qrc_RzdLIJJ5pgyCpWxH5wcxSwEtcjEp5dUqQGFeU0PTQg8RwAnMdKwlm_1bHfP0J_0S0]--></g></svg>