<?xml version="1.0" encoding="us-ascii" standalone="no"?><svg xmlns="http://www.w3.org/2000/svg" xmlns:xlink="http://www.w3.org/1999/xlink" contentStyleType="text/css" height="553.8462px" preserveAspectRatio="none" style="width:201px;height:553px;background:#FFFFFF;" version="1.1" viewBox="0 0 201 553" width="201.2821px" zoomAndPan="magnify"><defs/><g><ellipse cx="130.7692" cy="20.5128" fill="#181818" rx="12.8205" ry="12.8205" style="stroke:none;stroke-width:1.2820512820512822;"/><rect fill="#FFFFFF" height="51.2821" rx="16.0256" ry="16.0256" style="stroke:#000000;stroke-width:0.6410256410256411;" width="69.2308" x="96.1538" y="110.2564"/><text fill="#000000" font-family="sans-serif" font-size="17.9487" lengthAdjust="spacing" textLength="56.4103" x="102.5641" y="142.1199">Closed</text><rect fill="#FFFFFF" height="51.2821" rx="16.0256" ry="16.0256" style="stroke:#000000;stroke-width:0.6410256410256411;" width="64.1026" x="8.9744" y="238.4615"/><text fill="#000000" font-family="sans-serif" font-size="17.9487" lengthAdjust="spacing" textLength="44.8718" x="18.5897" y="270.325">Open</text><rect fill="#FFFFFF" height="51.2821" rx="16.0256" ry="16.0256" style="stroke:#000000;stroke-width:0.6410256410256411;" width="64.1026" x="43.5897" y="366.6667"/><text fill="#000000" font-family="sans-serif" font-size="17.9487" lengthAdjust="spacing" textLength="46.1538" x="52.5641" y="398.5301">Enroll</text><rect fill="#FFFFFF" height="51.2821" rx="16.0256" ry="16.0256" style="stroke:#000000;stroke-width:0.6410256410256411;" width="100" x="93.5897" y="494.8718"/><text fill="#000000" font-family="sans-serif" font-size="17.9487" lengthAdjust="spacing" textLength="87.1795" x="100" y="526.7353">inProgress</text><ellipse cx="130.7692" cy="264.1026" fill="none" rx="12.8205" ry="12.8205" style="stroke:#181818;stroke-width:1.2820512820512822;"/><ellipse cx="131.4103" cy="264.7436" fill="#181818" rx="7.6923" ry="7.6923" style="stroke:none;stroke-width:1.2820512820512822;"/><!--link *start* to Closed--><g id="link_*start*_Closed"><path d="M130.7692,33.4487 C130.7692,49.7692 130.7692,80.0641 130.7692,103.2564 " fill="none" id="*start*-to-Closed" style="stroke:#181818;stroke-width:1.2820512820512822;"/><polygon fill="#181818" points="130.7692,110.2051,135.8974,98.6667,130.7692,103.7949,125.641,98.6667,130.7692,110.2051" style="stroke:#181818;stroke-width:1.2820512820512822;"/></g><!--link Closed to Open--><g id="link_Closed_Open"><path d="M113.0385,162 C98.5385,182.3077 77.9744,211.1026 62.5256,232.7179 " fill="none" id="Closed-to-Open" style="stroke:#181818;stroke-width:1.2820512820512822;"/><polygon fill="#181818" points="58.7179,238.0513,69.6039,231.6536,62.449,232.8388,61.2639,225.6839,58.7179,238.0513" style="stroke:#181818;stroke-width:1.2820512820512822;"/></g><!--link Open to Enroll--><g id="link_Open_Enroll"><path d="M47.859,290.2051 C53.359,310.1667 61.1282,338.3333 67.0385,359.8205 " fill="none" id="Open-to-Enroll" style="stroke:#181818;stroke-width:1.2820512820512822;"/><polygon fill="#181818" points="68.8205,366.2564,70.7039,353.7709,67.1199,360.0758,60.815,356.4918,68.8205,366.2564" style="stroke:#181818;stroke-width:1.2820512820512822;"/></g><!--link Enroll to inProgress--><g id="link_Enroll_inProgress"><path d="M89.0641,418.4103 C99.9487,438.5513 115.359,467.0256 127.0128,488.5769 " fill="none" id="Enroll-to-inProgress" style="stroke:#181818;stroke-width:1.2820512820512822;"/><polygon fill="#181818" points="130.1923,494.4615,129.2323,481.8713,127.151,488.8187,120.2037,486.7374,130.1923,494.4615" style="stroke:#181818;stroke-width:1.2820512820512822;"/></g><!--link inProgress to Closed--><g id="link_inProgress_Closed"><path d="M149.7308,494.641 C161.0897,445.5769 182.7949,332.2179 166.6667,238.4615 C162.4872,214.1795 153.0641,188 144.9231,168.3333 " fill="none" id="inProgress-to-Closed" style="stroke:#181818;stroke-width:1.2820512820512822;"/><polygon fill="#181818" points="142.2179,161.9231,141.9832,174.5476,144.7121,167.8282,151.4315,170.5571,142.2179,161.9231" style="stroke:#181818;stroke-width:1.2820512820512822;"/></g><!--link Closed to *end*--><g id="link_Closed_*end*"><path d="M130.7692,162 C130.7692,186.1667 130.7692,222.3333 130.7692,244.141 " fill="none" id="Closed-to-*end*" style="stroke:#181818;stroke-width:1.2820512820512822;"/><polygon fill="#181818" points="130.7692,250.9487,135.8974,239.4103,130.7692,244.5385,125.641,239.4103,130.7692,250.9487" style="stroke:#181818;stroke-width:1.2820512820512822;"/></g><!--SRC=[POsn2i9038RtF4LceL1y08SMPzqSnE7eXJRqUZcIAoBYkzlU3Gvc-F_aoqzYWmk4nxR59_iymSIUa9QKN-Z91kMKMIA0pHoJKxUWPPS9tu1RTMwOHvKr-bw2ADucpbGtefwqqYviCVW0t0yFR9eJza6CF5Ghv98emYvbEaUL4A1Q8HolAgEI6VpQ_rixs9x05m00]--></g></svg>