<?xml version="1.0" encoding="UTF-8" standalone="no"?><svg xmlns="http://www.w3.org/2000/svg" xmlns:xlink="http://www.w3.org/1999/xlink" contentStyleType="text/css" height="1352px" preserveAspectRatio="none" style="width:857px;height:1352px;background:#FFFFFF;" version="1.1" viewBox="0 0 857 1352" width="857px" zoomAndPan="magnify"><defs/><g><!--MD5=[3dcf69e4e87a10af00fce8354034ba4c]
cluster presentation--><g id="cluster_presentation"><path d="M278.74,6 L369.74,6 A3.75,3.75 0 0 1 372.24,8.5 L379.24,29.6094 L569.74,29.6094 A2.5,2.5 0 0 1 572.24,32.1094 L572.24,149.5 A2.5,2.5 0 0 1 569.74,152 L278.74,152 A2.5,2.5 0 0 1 276.24,149.5 L276.24,8.5 A2.5,2.5 0 0 1 278.74,6 " fill="#DDDDDD" style="stroke:#000000;stroke-width:1.5;"/><line style="stroke:#000000;stroke-width:1.5;" x1="276.24" x2="379.24" y1="29.6094" y2="29.6094"/><text fill="#000000" font-family="sans-serif" font-size="14" font-weight="bold" lengthAdjust="spacing" textLength="90" x="280.24" y="22.5332">presentation</text></g><!--MD5=[27f772719433d509ddbc20ff768eba08]
cluster domain--><g id="cluster_domain"><path d="M16.74,588 L68.74,588 A3.75,3.75 0 0 1 71.24,590.5 L78.24,611.6094 L847.74,611.6094 A2.5,2.5 0 0 1 850.24,614.1094 L850.24,1342.5 A2.5,2.5 0 0 1 847.74,1345 L16.74,1345 A2.5,2.5 0 0 1 14.24,1342.5 L14.24,590.5 A2.5,2.5 0 0 1 16.74,588 " fill="#DBD8AE" style="stroke:#000000;stroke-width:1.5;"/><line style="stroke:#000000;stroke-width:1.5;" x1="14.24" x2="78.24" y1="611.6094" y2="611.6094"/><text fill="#000000" font-family="sans-serif" font-size="14" font-weight="bold" lengthAdjust="spacing" textLength="51" x="18.24" y="604.5332">domain</text></g><!--MD5=[0334151241c2df87d13997940bbf650c]
cluster persistence--><g id="cluster_persistence"><path d="M60.74,406 L145.74,406 A3.75,3.75 0 0 1 148.24,408.5 L155.24,429.6094 L241.74,429.6094 A2.5,2.5 0 0 1 244.24,432.1094 L244.24,538.5 A2.5,2.5 0 0 1 241.74,541 L60.74,541 A2.5,2.5 0 0 1 58.24,538.5 L58.24,408.5 A2.5,2.5 0 0 1 60.74,406 " fill="#DBD8AE" style="stroke:#000000;stroke-width:1.5;"/><line style="stroke:#000000;stroke-width:1.5;" x1="58.24" x2="155.24" y1="429.6094" y2="429.6094"/><text fill="#000000" font-family="sans-serif" font-size="14" font-weight="bold" lengthAdjust="spacing" textLength="84" x="62.24" y="422.5332">persistence</text></g><!--MD5=[3ff016c1aa5003d713567a073e2181a6]
cluster application--><g id="cluster_application"><path d="M270.74,176 L348.74,176 A3.75,3.75 0 0 1 351.24,178.5 L358.24,199.6094 L577.74,199.6094 A2.5,2.5 0 0 1 580.24,202.1094 L580.24,561.5 A2.5,2.5 0 0 1 577.74,564 L270.74,564 A2.5,2.5 0 0 1 268.24,561.5 L268.24,178.5 A2.5,2.5 0 0 1 270.74,176 " fill="#EAF4D3" style="stroke:#000000;stroke-width:1.5;"/><line style="stroke:#000000;stroke-width:1.5;" x1="268.24" x2="358.24" y1="199.6094" y2="199.6094"/><text fill="#000000" font-family="sans-serif" font-size="14" font-weight="bold" lengthAdjust="spacing" textLength="77" x="272.24" y="192.5332">application</text></g><!--MD5=[de565308e24f405ceeab270e09fa6730]
class CloseCourseUI--><g id="elem_CloseCourseUI"><rect codeLine="4" fill="#F1F1F1" height="93.9219" id="CloseCourseUI" rx="2.5" ry="2.5" style="stroke:#181818;stroke-width:0.5;" width="264" x="292.24" y="42"/><ellipse cx="372.99" cy="63.3516" fill="#ADD1B2" rx="11" ry="11" style="stroke:#181818;stroke-width:1.0;"/><path d="M374.99,59.8516 Q375.1931,59.3516 375.4275,59.1016 Q375.6619,58.8516 375.9275,58.8516 Q376.3963,58.8516 376.6931,59.1328 Q376.99,59.4141 376.99,60.0703 L376.99,61.6328 Q376.99,62.2891 376.7088,62.5703 Q376.4275,62.8516 375.99,62.8516 Q375.5994,62.8516 375.3494,62.6797 Q375.0994,62.5078 374.99,62.0547 Q374.9431,61.7422 374.7713,61.5703 Q374.4588,61.2422 373.8963,61.0547 Q373.3338,60.8516 372.7713,60.8516 Q372.0681,60.8516 371.4744,61.1328 Q370.8963,61.4141 370.4431,62.0391 Q369.99,62.6641 369.99,63.5234 L369.99,64.4453 Q369.99,65.4766 370.8338,66.1641 Q371.6775,66.8516 373.1775,66.8516 Q374.0681,66.8516 374.6931,66.6484 Q375.0525,66.5391 375.4588,66.1797 Q375.7244,65.9766 375.865,65.9141 Q376.0056,65.8516 376.1775,65.8516 Q376.5056,65.8516 376.74,66.1172 Q376.99,66.3672 376.99,66.7266 Q376.99,67.0703 376.6463,67.4766 Q376.1463,68.0703 375.3494,68.3984 Q374.3025,68.8516 373.0213,68.8516 Q371.5213,68.8516 370.3181,68.2578 Q369.3494,67.7891 368.6619,66.7734 Q367.99,65.7578 367.99,64.5547 L367.99,63.4609 Q367.99,62.2109 368.5838,61.1172 Q369.1931,60.0234 370.24,59.4453 Q371.3025,58.8516 372.49,58.8516 Q373.2088,58.8516 373.8338,59.1016 Q374.4588,59.3516 374.99,59.8516 Z " fill="#000000"/><text fill="#000000" font-family="sans-serif" font-size="12" font-style="italic" lengthAdjust="spacing" textLength="24" x="428.49" y="59.457">«ui»</text><text fill="#000000" font-family="sans-serif" font-size="14" lengthAdjust="spacing" textLength="94" x="393.49" y="76.627">CloseCourseUI</text><line style="stroke:#181818;stroke-width:0.5;" x1="293.24" x2="555.24" y1="84.7031" y2="84.7031"/><rect fill="none" height="6" style="stroke:#C82930;stroke-width:1.0;" width="6" x="300.24" y="96.0078"/><text fill="#000000" font-family="sans-serif" font-size="14" lengthAdjust="spacing" textLength="238" x="312.24" y="103.2363">theController : CloseCourseController</text><line style="stroke:#181818;stroke-width:0.5;" x1="293.24" x2="555.24" y1="110.3125" y2="110.3125"/><ellipse cx="303.24" cy="124.6172" fill="#84BE84" rx="3" ry="3" style="stroke:#038048;stroke-width:1.0;"/><text fill="#000000" font-family="sans-serif" font-size="14" lengthAdjust="spacing" textLength="60" x="312.24" y="128.8457">doShow()</text></g><!--MD5=[8e0c51616f94b19d70de6207fb45de7c]
class CourseStudentsLimit--><g id="elem_CourseStudentsLimit"><rect codeLine="16" fill="#F1F1F1" height="111.5313" id="CourseStudentsLimit" rx="2.5" ry="2.5" style="stroke:#181818;stroke-width:0.5;" width="226" x="30.24" y="1217"/><ellipse cx="73.59" cy="1238.3516" fill="#ADD1B2" rx="11" ry="11" style="stroke:#181818;stroke-width:1.0;"/><path d="M75.59,1234.8516 Q75.7931,1234.3516 76.0275,1234.1016 Q76.2619,1233.8516 76.5275,1233.8516 Q76.9963,1233.8516 77.2931,1234.1328 Q77.59,1234.4141 77.59,1235.0703 L77.59,1236.6328 Q77.59,1237.2891 77.3088,1237.5703 Q77.0275,1237.8516 76.59,1237.8516 Q76.1994,1237.8516 75.9494,1237.6797 Q75.6994,1237.5078 75.59,1237.0547 Q75.5431,1236.7422 75.3713,1236.5703 Q75.0588,1236.2422 74.4963,1236.0547 Q73.9338,1235.8516 73.3713,1235.8516 Q72.6681,1235.8516 72.0744,1236.1328 Q71.4963,1236.4141 71.0431,1237.0391 Q70.59,1237.6641 70.59,1238.5234 L70.59,1239.4453 Q70.59,1240.4766 71.4338,1241.1641 Q72.2775,1241.8516 73.7775,1241.8516 Q74.6681,1241.8516 75.2931,1241.6484 Q75.6525,1241.5391 76.0588,1241.1797 Q76.3244,1240.9766 76.465,1240.9141 Q76.6056,1240.8516 76.7775,1240.8516 Q77.1056,1240.8516 77.34,1241.1172 Q77.59,1241.3672 77.59,1241.7266 Q77.59,1242.0703 77.2463,1242.4766 Q76.7463,1243.0703 75.9494,1243.3984 Q74.9025,1243.8516 73.6213,1243.8516 Q72.1213,1243.8516 70.9181,1243.2578 Q69.9494,1242.7891 69.2619,1241.7734 Q68.59,1240.7578 68.59,1239.5547 L68.59,1238.4609 Q68.59,1237.2109 69.1838,1236.1172 Q69.7931,1235.0234 70.84,1234.4453 Q71.9025,1233.8516 73.09,1233.8516 Q73.8088,1233.8516 74.4338,1234.1016 Q75.0588,1234.3516 75.59,1234.8516 Z " fill="#000000"/><text fill="#000000" font-family="sans-serif" font-size="12" font-style="italic" lengthAdjust="spacing" textLength="81" x="118.89" y="1234.457">«value object»</text><text fill="#000000" font-family="sans-serif" font-size="14" lengthAdjust="spacing" textLength="131" x="93.89" y="1251.627">CourseStudentsLimit</text><line style="stroke:#181818;stroke-width:0.5;" x1="31.24" x2="255.24" y1="1259.7031" y2="1259.7031"/><rect fill="none" height="6" style="stroke:#C82930;stroke-width:1.0;" width="6" x="38.24" y="1271.0078"/><text fill="#000000" font-family="sans-serif" font-size="14" lengthAdjust="spacing" textLength="49" x="50.24" y="1278.2363">min : int</text><rect fill="none" height="6" style="stroke:#C82930;stroke-width:1.0;" width="6" x="38.24" y="1288.6172"/><text fill="#000000" font-family="sans-serif" font-size="14" lengthAdjust="spacing" textLength="52" x="50.24" y="1295.8457">max : int</text><line style="stroke:#181818;stroke-width:0.5;" x1="31.24" x2="255.24" y1="1302.9219" y2="1302.9219"/><ellipse cx="41.24" cy="1317.2266" fill="#84BE84" rx="3" ry="3" style="stroke:#038048;stroke-width:1.0;"/><text fill="#000000" font-family="sans-serif" font-size="14" lengthAdjust="spacing" textLength="200" x="50.24" y="1321.4551">CourseStudentsLimit (min, max)</text></g><!--MD5=[4066b0363c5a91ff3b6e03e0428953a9]
class Course--><g id="elem_Course"><rect codeLine="22" fill="#F1F1F1" height="285.1094" id="Course" rx="2.5" ry="2.5" style="stroke:#181818;stroke-width:0.5;" width="351" x="209.74" y="624"/><ellipse cx="335.99" cy="652.8984" fill="#ADD1B2" rx="11" ry="11" style="stroke:#181818;stroke-width:1.0;"/><path d="M337.99,649.3984 Q338.1931,648.8984 338.4275,648.6484 Q338.6619,648.3984 338.9275,648.3984 Q339.3963,648.3984 339.6931,648.6797 Q339.99,648.9609 339.99,649.6172 L339.99,651.1797 Q339.99,651.8359 339.7088,652.1172 Q339.4275,652.3984 338.99,652.3984 Q338.5994,652.3984 338.3494,652.2266 Q338.0994,652.0547 337.99,651.6016 Q337.9431,651.2891 337.7713,651.1172 Q337.4588,650.7891 336.8963,650.6016 Q336.3338,650.3984 335.7713,650.3984 Q335.0681,650.3984 334.4744,650.6797 Q333.8963,650.9609 333.4431,651.5859 Q332.99,652.2109 332.99,653.0703 L332.99,653.9922 Q332.99,655.0234 333.8338,655.7109 Q334.6775,656.3984 336.1775,656.3984 Q337.0681,656.3984 337.6931,656.1953 Q338.0525,656.0859 338.4588,655.7266 Q338.7244,655.5234 338.865,655.4609 Q339.0056,655.3984 339.1775,655.3984 Q339.5056,655.3984 339.74,655.6641 Q339.99,655.9141 339.99,656.2734 Q339.99,656.6172 339.6463,657.0234 Q339.1463,657.6172 338.3494,657.9453 Q337.3025,658.3984 336.0213,658.3984 Q334.5213,658.3984 333.3181,657.8047 Q332.3494,657.3359 331.6619,656.3203 Q330.99,655.3047 330.99,654.1016 L330.99,653.0078 Q330.99,651.7578 331.5838,650.6641 Q332.1931,649.5703 333.24,648.9922 Q334.3025,648.3984 335.49,648.3984 Q336.2088,648.3984 336.8338,648.6484 Q337.4588,648.8984 337.99,649.3984 Z " fill="#000000"/><text fill="#000000" font-family="sans-serif" font-size="12" font-style="italic" lengthAdjust="spacing" textLength="94" x="354.49" y="641.457">«aggregate root»</text><text fill="#000000" font-family="sans-serif" font-size="12" font-style="italic" lengthAdjust="spacing" textLength="43" x="379.99" y="656.5508">«entity»</text><text fill="#000000" font-family="sans-serif" font-size="14" lengthAdjust="spacing" textLength="46" x="378.49" y="673.7207">Course</text><line style="stroke:#181818;stroke-width:0.5;" x1="210.74" x2="559.74" y1="681.7969" y2="681.7969"/><rect fill="none" height="6" style="stroke:#C82930;stroke-width:1.0;" width="6" x="217.74" y="693.1016"/><text fill="#000000" font-family="sans-serif" font-size="14" lengthAdjust="spacing" textLength="123" x="229.74" y="700.3301">code : CourseCode</text><rect fill="none" height="6" style="stroke:#C82930;stroke-width:1.0;" width="6" x="217.74" y="710.7109"/><text fill="#000000" font-family="sans-serif" font-size="14" lengthAdjust="spacing" textLength="129" x="229.74" y="717.9395">name : CourseName</text><rect fill="none" height="6" style="stroke:#C82930;stroke-width:1.0;" width="6" x="217.74" y="728.3203"/><text fill="#000000" font-family="sans-serif" font-size="14" lengthAdjust="spacing" textLength="198" x="229.74" y="735.5488">description : CourseDescription</text><rect fill="none" height="6" style="stroke:#C82930;stroke-width:1.0;" width="6" x="217.74" y="745.9297"/><text fill="#000000" font-family="sans-serif" font-size="14" lengthAdjust="spacing" textLength="170" x="229.74" y="753.1582">courseState : CourseName</text><rect fill="none" height="6" style="stroke:#C82930;stroke-width:1.0;" width="6" x="217.74" y="763.5391"/><text fill="#000000" font-family="sans-serif" font-size="14" lengthAdjust="spacing" textLength="206" x="229.74" y="770.7676">courseTeachers : List&lt;Teacher&gt;</text><rect fill="none" height="6" style="stroke:#C82930;stroke-width:1.0;" width="6" x="217.74" y="781.1484"/><text fill="#000000" font-family="sans-serif" font-size="14" lengthAdjust="spacing" textLength="171" x="229.74" y="788.377">teacherInCharge : Teacher</text><rect fill="none" height="6" style="stroke:#C82930;stroke-width:1.0;" width="6" x="217.74" y="798.7578"/><text fill="#000000" font-family="sans-serif" font-size="14" lengthAdjust="spacing" textLength="174" x="229.74" y="805.9863">limits : CourseStudentsLimit</text><rect fill="none" height="6" style="stroke:#C82930;stroke-width:1.0;" width="6" x="217.74" y="816.3672"/><text fill="#000000" font-family="sans-serif" font-size="14" lengthAdjust="spacing" textLength="137" x="229.74" y="823.5957">createdOn : Calendar</text><rect fill="none" height="6" style="stroke:#C82930;stroke-width:1.0;" width="6" x="217.74" y="833.9766"/><text fill="#000000" font-family="sans-serif" font-size="14" lengthAdjust="spacing" textLength="142" x="229.74" y="841.2051">modifiedOn : Calendar</text><line style="stroke:#181818;stroke-width:0.5;" x1="210.74" x2="559.74" y1="848.2813" y2="848.2813"/><ellipse cx="220.74" cy="862.5859" fill="#84BE84" rx="3" ry="3" style="stroke:#038048;stroke-width:1.0;"/><text fill="#000000" font-family="sans-serif" font-size="14" lengthAdjust="spacing" textLength="250" x="229.74" y="866.8145">Course (code, name, description, limits)</text><ellipse cx="220.74" cy="880.1953" fill="#84BE84" rx="3" ry="3" style="stroke:#038048;stroke-width:1.0;"/><text fill="#000000" font-family="sans-serif" font-size="14" lengthAdjust="spacing" textLength="325" x="229.74" y="884.4238">Course (code, name, description, limits, createdOn)</text><ellipse cx="220.74" cy="897.8047" fill="#84BE84" rx="3" ry="3" style="stroke:#038048;stroke-width:1.0;"/><text fill="#000000" font-family="sans-serif" font-size="14" lengthAdjust="spacing" textLength="68" x="229.74" y="902.0332">close(now)</text></g><!--MD5=[799856c08d18301c64071de18adb2d39]
class CourseState--><g id="elem_CourseState"><rect codeLine="37" fill="#F1F1F1" height="118.4375" id="CourseState" rx="2.5" ry="2.5" style="stroke:#181818;stroke-width:0.5;" width="111" x="67.74" y="973.5"/><ellipse cx="82.74" cy="989.5" fill="#EB937F" rx="11" ry="11" style="stroke:#181818;stroke-width:1.0;"/><path d="M81.24,990.5 L81.24,992.5 L85.24,992.5 L85.24,991.5 L85.24,991.0156 L85.865,990.5 L86.24,990.5 L86.615,990.5 L87.24,991.0156 L87.24,991.5 L87.24,994.5 L79.24,994.5 L78.7556,994.5 L78.24,993.875 L78.24,993.5 L78.24,993.125 L78.7556,992.5 L79.24,992.5 L79.24,992.5 L79.24,986.5 L79.24,986.5 L78.7556,986.5 L78.24,985.875 L78.24,985.5 L78.24,985.125 L78.7556,984.5 L79.24,984.5 L87.24,984.5 L87.24,987.5 L87.24,987.9844 L86.615,988.5 L86.24,988.5 L85.865,988.5 L85.24,987.9844 L85.24,987.5 L85.24,986.5 L81.24,986.5 L81.24,988.5 L82.24,988.5 L82.24,988.0156 L82.24,988.0156 L82.865,987.5 L83.24,987.5 L83.615,987.5 L84.24,988.0156 L84.24,988.5 L84.24,990.5 L84.24,990.9844 L83.615,991.5 L83.615,991.5 L83.24,991.5 L82.865,991.5 L82.24,990.9844 L82.24,990.9844 L82.24,990.5 L81.24,990.5 Z " fill="#000000"/><text fill="#000000" font-family="sans-serif" font-size="14" lengthAdjust="spacing" textLength="79" x="96.74" y="995.2285">CourseState</text><line style="stroke:#181818;stroke-width:0.5;" x1="68.74" x2="177.74" y1="1005.5" y2="1005.5"/><text fill="#000000" font-family="sans-serif" font-size="14" lengthAdjust="spacing" textLength="57" x="73.74" y="1024.0332">CLOSED</text><text fill="#000000" font-family="sans-serif" font-size="14" lengthAdjust="spacing" textLength="38" x="73.74" y="1041.6426">OPEN</text><text fill="#000000" font-family="sans-serif" font-size="14" lengthAdjust="spacing" textLength="55" x="73.74" y="1059.252">ENROLL</text><text fill="#000000" font-family="sans-serif" font-size="14" lengthAdjust="spacing" textLength="98" x="73.74" y="1076.8613">IN_PROGRESS</text><line style="stroke:#181818;stroke-width:0.5;" x1="68.74" x2="177.74" y1="1083.9375" y2="1083.9375"/></g><!--MD5=[61a83f88cb8b7d3a80bc8c481f3736bf]
class Teacher--><g id="elem_Teacher"><rect codeLine="44" fill="#F1F1F1" height="126.625" id="Teacher" rx="2.5" ry="2.5" style="stroke:#181818;stroke-width:0.5;" width="204" x="214.24" y="969"/><ellipse cx="273.49" cy="997.8984" fill="#ADD1B2" rx="11" ry="11" style="stroke:#181818;stroke-width:1.0;"/><path d="M275.49,994.3984 Q275.6931,993.8984 275.9275,993.6484 Q276.1619,993.3984 276.4275,993.3984 Q276.8963,993.3984 277.1931,993.6797 Q277.49,993.9609 277.49,994.6172 L277.49,996.1797 Q277.49,996.8359 277.2088,997.1172 Q276.9275,997.3984 276.49,997.3984 Q276.0994,997.3984 275.8494,997.2266 Q275.5994,997.0547 275.49,996.6016 Q275.4431,996.2891 275.2713,996.1172 Q274.9588,995.7891 274.3963,995.6016 Q273.8338,995.3984 273.2713,995.3984 Q272.5681,995.3984 271.9744,995.6797 Q271.3963,995.9609 270.9431,996.5859 Q270.49,997.2109 270.49,998.0703 L270.49,998.9922 Q270.49,1000.0234 271.3338,1000.7109 Q272.1775,1001.3984 273.6775,1001.3984 Q274.5681,1001.3984 275.1931,1001.1953 Q275.5525,1001.0859 275.9588,1000.7266 Q276.2244,1000.5234 276.365,1000.4609 Q276.5056,1000.3984 276.6775,1000.3984 Q277.0056,1000.3984 277.24,1000.6641 Q277.49,1000.9141 277.49,1001.2734 Q277.49,1001.6172 277.1463,1002.0234 Q276.6463,1002.6172 275.8494,1002.9453 Q274.8025,1003.3984 273.5213,1003.3984 Q272.0213,1003.3984 270.8181,1002.8047 Q269.8494,1002.3359 269.1619,1001.3203 Q268.49,1000.3047 268.49,999.1016 L268.49,998.0078 Q268.49,996.7578 269.0838,995.6641 Q269.6931,994.5703 270.74,993.9922 Q271.8025,993.3984 272.99,993.3984 Q273.7088,993.3984 274.3338,993.6484 Q274.9588,993.8984 275.49,994.3984 Z " fill="#000000"/><text fill="#000000" font-family="sans-serif" font-size="12" font-style="italic" lengthAdjust="spacing" textLength="81" x="291.99" y="986.457">«value object»</text><text fill="#000000" font-family="sans-serif" font-size="12" font-style="italic" lengthAdjust="spacing" textLength="24" x="320.49" y="1001.5508">«id»</text><text fill="#000000" font-family="sans-serif" font-size="14" lengthAdjust="spacing" textLength="53" x="305.99" y="1018.7207">Teacher</text><line style="stroke:#181818;stroke-width:0.5;" x1="215.24" x2="417.24" y1="1026.7969" y2="1026.7969"/><rect fill="none" height="6" style="stroke:#C82930;stroke-width:1.0;" width="6" x="222.24" y="1038.1016"/><text fill="#000000" font-family="sans-serif" font-size="14" lengthAdjust="spacing" textLength="121" x="234.24" y="1045.3301">acronym : Acronym</text><rect fill="none" height="6" style="stroke:#C82930;stroke-width:1.0;" width="6" x="222.24" y="1055.7109"/><text fill="#000000" font-family="sans-serif" font-size="14" lengthAdjust="spacing" textLength="160" x="234.24" y="1062.9395">systemUser : SystemUser</text><line style="stroke:#181818;stroke-width:0.5;" x1="215.24" x2="417.24" y1="1070.0156" y2="1070.0156"/><ellipse cx="225.24" cy="1084.3203" fill="#84BE84" rx="3" ry="3" style="stroke:#038048;stroke-width:1.0;"/><text fill="#000000" font-family="sans-serif" font-size="14" lengthAdjust="spacing" textLength="178" x="234.24" y="1088.5488">Teacher(user : SystemUser)</text></g><!--MD5=[0914d6e5e1a282792d31c06d16c1ac2b]
class CourseDescription--><g id="elem_CourseDescription"><rect codeLine="50" fill="#F1F1F1" height="111.5313" id="CourseDescription" rx="2.5" ry="2.5" style="stroke:#181818;stroke-width:0.5;" width="226" x="341.24" y="1217"/><ellipse cx="391.49" cy="1238.3516" fill="#ADD1B2" rx="11" ry="11" style="stroke:#181818;stroke-width:1.0;"/><path d="M393.49,1234.8516 Q393.6931,1234.3516 393.9275,1234.1016 Q394.1619,1233.8516 394.4275,1233.8516 Q394.8963,1233.8516 395.1931,1234.1328 Q395.49,1234.4141 395.49,1235.0703 L395.49,1236.6328 Q395.49,1237.2891 395.2088,1237.5703 Q394.9275,1237.8516 394.49,1237.8516 Q394.0994,1237.8516 393.8494,1237.6797 Q393.5994,1237.5078 393.49,1237.0547 Q393.4431,1236.7422 393.2713,1236.5703 Q392.9588,1236.2422 392.3963,1236.0547 Q391.8338,1235.8516 391.2713,1235.8516 Q390.5681,1235.8516 389.9744,1236.1328 Q389.3963,1236.4141 388.9431,1237.0391 Q388.49,1237.6641 388.49,1238.5234 L388.49,1239.4453 Q388.49,1240.4766 389.3338,1241.1641 Q390.1775,1241.8516 391.6775,1241.8516 Q392.5681,1241.8516 393.1931,1241.6484 Q393.5525,1241.5391 393.9588,1241.1797 Q394.2244,1240.9766 394.365,1240.9141 Q394.5056,1240.8516 394.6775,1240.8516 Q395.0056,1240.8516 395.24,1241.1172 Q395.49,1241.3672 395.49,1241.7266 Q395.49,1242.0703 395.1463,1242.4766 Q394.6463,1243.0703 393.8494,1243.3984 Q392.8025,1243.8516 391.5213,1243.8516 Q390.0213,1243.8516 388.8181,1243.2578 Q387.8494,1242.7891 387.1619,1241.7734 Q386.49,1240.7578 386.49,1239.5547 L386.49,1238.4609 Q386.49,1237.2109 387.0838,1236.1172 Q387.6931,1235.0234 388.74,1234.4453 Q389.8025,1233.8516 390.99,1233.8516 Q391.7088,1233.8516 392.3338,1234.1016 Q392.9588,1234.3516 393.49,1234.8516 Z " fill="#000000"/><text fill="#000000" font-family="sans-serif" font-size="12" font-style="italic" lengthAdjust="spacing" textLength="81" x="429.99" y="1234.457">«value object»</text><text fill="#000000" font-family="sans-serif" font-size="14" lengthAdjust="spacing" textLength="117" x="411.99" y="1251.627">CourseDescription</text><line style="stroke:#181818;stroke-width:0.5;" x1="342.24" x2="566.24" y1="1259.7031" y2="1259.7031"/><rect fill="none" height="6" style="stroke:#C82930;stroke-width:1.0;" width="6" x="349.24" y="1271.0078"/><text fill="#000000" font-family="sans-serif" font-size="14" lengthAdjust="spacing" textLength="118" x="361.24" y="1278.2363">description : String</text><line style="stroke:#181818;stroke-width:0.5;" x1="342.24" x2="566.24" y1="1285.3125" y2="1285.3125"/><ellipse cx="352.24" cy="1299.6172" fill="#84BE84" rx="3" ry="3" style="stroke:#038048;stroke-width:1.0;"/><text fill="#000000" font-family="sans-serif" font-size="14" lengthAdjust="spacing" textLength="128" x="361.24" y="1303.8457">valueOf(description)</text><ellipse cx="352.24" cy="1317.2266" fill="#84BE84" rx="3" ry="3" style="stroke:#038048;stroke-width:1.0;"/><text fill="#000000" font-family="sans-serif" font-size="14" lengthAdjust="spacing" textLength="200" x="361.24" y="1321.4551">CourseDescription (description)</text></g><!--MD5=[d48061ccbd276027f3231694ef585189]
class CourseCode--><g id="elem_CourseCode"><rect codeLine="56" fill="#F1F1F1" height="111.5313" id="CourseCode" rx="2.5" ry="2.5" style="stroke:#181818;stroke-width:0.5;" width="151" x="490.74" y="976.5"/><ellipse cx="523.29" cy="997.8516" fill="#ADD1B2" rx="11" ry="11" style="stroke:#181818;stroke-width:1.0;"/><path d="M525.29,994.3516 Q525.4931,993.8516 525.7275,993.6016 Q525.9619,993.3516 526.2275,993.3516 Q526.6963,993.3516 526.9931,993.6328 Q527.29,993.9141 527.29,994.5703 L527.29,996.1328 Q527.29,996.7891 527.0088,997.0703 Q526.7275,997.3516 526.29,997.3516 Q525.8994,997.3516 525.6494,997.1797 Q525.3994,997.0078 525.29,996.5547 Q525.2431,996.2422 525.0713,996.0703 Q524.7588,995.7422 524.1963,995.5547 Q523.6338,995.3516 523.0713,995.3516 Q522.3681,995.3516 521.7744,995.6328 Q521.1963,995.9141 520.7431,996.5391 Q520.29,997.1641 520.29,998.0234 L520.29,998.9453 Q520.29,999.9766 521.1338,1000.6641 Q521.9775,1001.3516 523.4775,1001.3516 Q524.3681,1001.3516 524.9931,1001.1484 Q525.3525,1001.0391 525.7588,1000.6797 Q526.0244,1000.4766 526.165,1000.4141 Q526.3056,1000.3516 526.4775,1000.3516 Q526.8056,1000.3516 527.04,1000.6172 Q527.29,1000.8672 527.29,1001.2266 Q527.29,1001.5703 526.9463,1001.9766 Q526.4463,1002.5703 525.6494,1002.8984 Q524.6025,1003.3516 523.3213,1003.3516 Q521.8213,1003.3516 520.6181,1002.7578 Q519.6494,1002.2891 518.9619,1001.2734 Q518.29,1000.2578 518.29,999.0547 L518.29,997.9609 Q518.29,996.7109 518.8838,995.6172 Q519.4931,994.5234 520.54,993.9453 Q521.6025,993.3516 522.79,993.3516 Q523.5088,993.3516 524.1338,993.6016 Q524.7588,993.8516 525.29,994.3516 Z " fill="#000000"/><text fill="#000000" font-family="sans-serif" font-size="12" font-style="italic" lengthAdjust="spacing" textLength="81" x="540.69" y="993.957">«value object»</text><text fill="#000000" font-family="sans-serif" font-size="14" lengthAdjust="spacing" textLength="80" x="541.19" y="1011.127">CourseCode</text><line style="stroke:#181818;stroke-width:0.5;" x1="491.74" x2="640.74" y1="1019.2031" y2="1019.2031"/><rect fill="none" height="6" style="stroke:#C82930;stroke-width:1.0;" width="6" x="498.74" y="1030.5078"/><text fill="#000000" font-family="sans-serif" font-size="14" lengthAdjust="spacing" textLength="80" x="510.74" y="1037.7363">code : String</text><line style="stroke:#181818;stroke-width:0.5;" x1="491.74" x2="640.74" y1="1044.8125" y2="1044.8125"/><ellipse cx="501.74" cy="1059.1172" fill="#84BE84" rx="3" ry="3" style="stroke:#038048;stroke-width:1.0;"/><text fill="#000000" font-family="sans-serif" font-size="14" lengthAdjust="spacing" textLength="90" x="510.74" y="1063.3457">valueOf(code)</text><ellipse cx="501.74" cy="1076.7266" fill="#84BE84" rx="3" ry="3" style="stroke:#038048;stroke-width:1.0;"/><text fill="#000000" font-family="sans-serif" font-size="14" lengthAdjust="spacing" textLength="125" x="510.74" y="1080.9551">CourseCode (code)</text></g><!--MD5=[f71a75121e942823de72c354b66f346f]
class CourseName--><g id="elem_CourseName"><rect codeLine="62" fill="#F1F1F1" height="111.5313" id="CourseName" rx="2.5" ry="2.5" style="stroke:#181818;stroke-width:0.5;" width="157" x="676.74" y="976.5"/><ellipse cx="711.09" cy="997.8516" fill="#ADD1B2" rx="11" ry="11" style="stroke:#181818;stroke-width:1.0;"/><path d="M713.09,994.3516 Q713.2931,993.8516 713.5275,993.6016 Q713.7619,993.3516 714.0275,993.3516 Q714.4963,993.3516 714.7931,993.6328 Q715.09,993.9141 715.09,994.5703 L715.09,996.1328 Q715.09,996.7891 714.8088,997.0703 Q714.5275,997.3516 714.09,997.3516 Q713.6994,997.3516 713.4494,997.1797 Q713.1994,997.0078 713.09,996.5547 Q713.0431,996.2422 712.8713,996.0703 Q712.5588,995.7422 711.9963,995.5547 Q711.4338,995.3516 710.8713,995.3516 Q710.1681,995.3516 709.5744,995.6328 Q708.9963,995.9141 708.5431,996.5391 Q708.09,997.1641 708.09,998.0234 L708.09,998.9453 Q708.09,999.9766 708.9338,1000.6641 Q709.7775,1001.3516 711.2775,1001.3516 Q712.1681,1001.3516 712.7931,1001.1484 Q713.1525,1001.0391 713.5588,1000.6797 Q713.8244,1000.4766 713.965,1000.4141 Q714.1056,1000.3516 714.2775,1000.3516 Q714.6056,1000.3516 714.84,1000.6172 Q715.09,1000.8672 715.09,1001.2266 Q715.09,1001.5703 714.7463,1001.9766 Q714.2463,1002.5703 713.4494,1002.8984 Q712.4025,1003.3516 711.1213,1003.3516 Q709.6213,1003.3516 708.4181,1002.7578 Q707.4494,1002.2891 706.7619,1001.2734 Q706.09,1000.2578 706.09,999.0547 L706.09,997.9609 Q706.09,996.7109 706.6838,995.6172 Q707.2931,994.5234 708.34,993.9453 Q709.4025,993.3516 710.59,993.3516 Q711.3088,993.3516 711.9338,993.6016 Q712.5588,993.8516 713.09,994.3516 Z " fill="#000000"/><text fill="#000000" font-family="sans-serif" font-size="12" font-style="italic" lengthAdjust="spacing" textLength="81" x="729.89" y="993.957">«value object»</text><text fill="#000000" font-family="sans-serif" font-size="14" lengthAdjust="spacing" textLength="82" x="729.39" y="1011.127">CourseName</text><line style="stroke:#181818;stroke-width:0.5;" x1="677.74" x2="832.74" y1="1019.2031" y2="1019.2031"/><rect fill="none" height="6" style="stroke:#C82930;stroke-width:1.0;" width="6" x="684.74" y="1030.5078"/><text fill="#000000" font-family="sans-serif" font-size="14" lengthAdjust="spacing" textLength="84" x="696.74" y="1037.7363">name : String</text><line style="stroke:#181818;stroke-width:0.5;" x1="677.74" x2="832.74" y1="1044.8125" y2="1044.8125"/><ellipse cx="687.74" cy="1059.1172" fill="#84BE84" rx="3" ry="3" style="stroke:#038048;stroke-width:1.0;"/><text fill="#000000" font-family="sans-serif" font-size="14" lengthAdjust="spacing" textLength="94" x="696.74" y="1063.3457">valueOf(name)</text><ellipse cx="687.74" cy="1076.7266" fill="#84BE84" rx="3" ry="3" style="stroke:#038048;stroke-width:1.0;"/><text fill="#000000" font-family="sans-serif" font-size="14" lengthAdjust="spacing" textLength="131" x="696.74" y="1080.9551">CourseName (name)</text></g><!--MD5=[e357f1fd68df466d60efd00f0c47fbc0]
class CourseRepository--><g id="elem_CourseRepository"><rect codeLine="71" fill="#F1F1F1" height="83.2188" id="CourseRepository" rx="2.5" ry="2.5" style="stroke:#181818;stroke-width:0.5;" width="153" x="74.74" y="442"/><ellipse cx="92.89" cy="458" fill="#B4A7E5" rx="11" ry="11" style="stroke:#181818;stroke-width:1.0;"/><path d="M93.89,455 L93.89,461 L95.89,461 L96.3744,461 L96.89,461.625 L96.89,462 L96.89,462.375 L96.3744,463 L95.89,463 L89.89,463 L89.4056,463 L88.89,462.375 L88.89,462 L88.89,461.625 L89.4056,461 L89.89,461 L91.89,461 L91.89,455 L89.89,455 L89.4056,455 L88.89,454.375 L88.89,454 L88.89,453.625 L89.4056,453 L89.89,453 L95.89,453 L96.3744,453 L96.89,453.625 L96.89,454 L96.89,454.375 L96.3744,455 L95.89,455 L93.89,455 Z " fill="#000000"/><text fill="#000000" font-family="sans-serif" font-size="14" font-style="italic" lengthAdjust="spacing" textLength="114" x="107.59" y="463.7285">CourseRepository</text><line style="stroke:#181818;stroke-width:0.5;" x1="75.74" x2="226.74" y1="474" y2="474"/><line style="stroke:#181818;stroke-width:0.5;" x1="75.74" x2="226.74" y1="482" y2="482"/><text fill="#000000" font-family="sans-serif" font-size="14" lengthAdjust="spacing" textLength="48" x="80.74" y="500.5332">findAll()</text><text fill="#000000" font-family="sans-serif" font-size="14" lengthAdjust="spacing" textLength="141" x="80.74" y="518.1426">save(course : Course)</text></g><!--MD5=[262394767764e2b7868769f8148932f2]
class CloseCourseController--><g id="elem_CloseCourseController"><rect codeLine="77" fill="#F1F1F1" height="146.75" id="CloseCourseController" rx="2.5" ry="2.5" style="stroke:#181818;stroke-width:0.5;" width="279" x="284.74" y="212"/><ellipse cx="347.99" cy="233.3516" fill="#ADD1B2" rx="11" ry="11" style="stroke:#181818;stroke-width:1.0;"/><path d="M349.99,229.8516 Q350.1931,229.3516 350.4275,229.1016 Q350.6619,228.8516 350.9275,228.8516 Q351.3963,228.8516 351.6931,229.1328 Q351.99,229.4141 351.99,230.0703 L351.99,231.6328 Q351.99,232.2891 351.7088,232.5703 Q351.4275,232.8516 350.99,232.8516 Q350.5994,232.8516 350.3494,232.6797 Q350.0994,232.5078 349.99,232.0547 Q349.9431,231.7422 349.7713,231.5703 Q349.4588,231.2422 348.8963,231.0547 Q348.3338,230.8516 347.7713,230.8516 Q347.0681,230.8516 346.4744,231.1328 Q345.8963,231.4141 345.4431,232.0391 Q344.99,232.6641 344.99,233.5234 L344.99,234.4453 Q344.99,235.4766 345.8338,236.1641 Q346.6775,236.8516 348.1775,236.8516 Q349.0681,236.8516 349.6931,236.6484 Q350.0525,236.5391 350.4588,236.1797 Q350.7244,235.9766 350.865,235.9141 Q351.0056,235.8516 351.1775,235.8516 Q351.5056,235.8516 351.74,236.1172 Q351.99,236.3672 351.99,236.7266 Q351.99,237.0703 351.6463,237.4766 Q351.1463,238.0703 350.3494,238.3984 Q349.3025,238.8516 348.0213,238.8516 Q346.5213,238.8516 345.3181,238.2578 Q344.3494,237.7891 343.6619,236.7734 Q342.99,235.7578 342.99,234.5547 L342.99,233.4609 Q342.99,232.2109 343.5838,231.1172 Q344.1931,230.0234 345.24,229.4453 Q346.3025,228.8516 347.49,228.8516 Q348.2088,228.8516 348.8338,229.1016 Q349.4588,229.3516 349.99,229.8516 Z " fill="#000000"/><text fill="#000000" font-family="sans-serif" font-size="12" font-style="italic" lengthAdjust="spacing" textLength="65" x="407.99" y="229.457">«controller»</text><text fill="#000000" font-family="sans-serif" font-size="14" lengthAdjust="spacing" textLength="144" x="368.49" y="246.627">CloseCourseController</text><line style="stroke:#181818;stroke-width:0.5;" x1="285.74" x2="562.74" y1="254.7031" y2="254.7031"/><rect fill="none" height="6" style="stroke:#C82930;stroke-width:1.0;" width="6" x="292.74" y="266.0078"/><text fill="#000000" font-family="sans-serif" font-size="14" lengthAdjust="spacing" textLength="175" x="304.74" y="273.2363">authz : AuthorizationService</text><rect fill="none" height="6" style="stroke:#C82930;stroke-width:1.0;" width="6" x="292.74" y="283.6172"/><text fill="#000000" font-family="sans-serif" font-size="14" lengthAdjust="spacing" textLength="253" x="304.74" y="290.8457">courseSvc : CourseManagementService</text><rect fill="none" height="6" style="stroke:#C82930;stroke-width:1.0;" width="6" x="292.74" y="301.2266"/><text fill="#000000" font-family="sans-serif" font-size="14" lengthAdjust="spacing" textLength="237" x="304.74" y="308.4551">courseRepository : CourseRepository</text><line style="stroke:#181818;stroke-width:0.5;" x1="285.74" x2="562.74" y1="315.5313" y2="315.5313"/><ellipse cx="295.74" cy="329.8359" fill="#84BE84" rx="3" ry="3" style="stroke:#038048;stroke-width:1.0;"/><text fill="#000000" font-family="sans-serif" font-size="14" lengthAdjust="spacing" textLength="77" x="304.74" y="334.0645">allCourses()</text><ellipse cx="295.74" cy="347.4453" fill="#84BE84" rx="3" ry="3" style="stroke:#038048;stroke-width:1.0;"/><text fill="#000000" font-family="sans-serif" font-size="14" lengthAdjust="spacing" textLength="86" x="304.74" y="351.6738">close(course)</text></g><!--MD5=[d2835a54d52a26759a9c0b49dfb83fe0]
class CourseManagementService--><g id="elem_CourseManagementService"><rect codeLine="85" fill="#F1F1F1" height="129.1406" id="CourseManagementService" rx="2.5" ry="2.5" style="stroke:#181818;stroke-width:0.5;" width="263" x="284.74" y="419"/><ellipse cx="324.94" cy="440.3516" fill="#ADD1B2" rx="11" ry="11" style="stroke:#181818;stroke-width:1.0;"/><path d="M326.94,436.8516 Q327.1431,436.3516 327.3775,436.1016 Q327.6119,435.8516 327.8775,435.8516 Q328.3463,435.8516 328.6431,436.1328 Q328.94,436.4141 328.94,437.0703 L328.94,438.6328 Q328.94,439.2891 328.6588,439.5703 Q328.3775,439.8516 327.94,439.8516 Q327.5494,439.8516 327.2994,439.6797 Q327.0494,439.5078 326.94,439.0547 Q326.8931,438.7422 326.7213,438.5703 Q326.4088,438.2422 325.8463,438.0547 Q325.2838,437.8516 324.7213,437.8516 Q324.0181,437.8516 323.4244,438.1328 Q322.8463,438.4141 322.3931,439.0391 Q321.94,439.6641 321.94,440.5234 L321.94,441.4453 Q321.94,442.4766 322.7838,443.1641 Q323.6275,443.8516 325.1275,443.8516 Q326.0181,443.8516 326.6431,443.6484 Q327.0025,443.5391 327.4088,443.1797 Q327.6744,442.9766 327.815,442.9141 Q327.9556,442.8516 328.1275,442.8516 Q328.4556,442.8516 328.69,443.1172 Q328.94,443.3672 328.94,443.7266 Q328.94,444.0703 328.5963,444.4766 Q328.0963,445.0703 327.2994,445.3984 Q326.2525,445.8516 324.9713,445.8516 Q323.4713,445.8516 322.2681,445.2578 Q321.2994,444.7891 320.6119,443.7734 Q319.94,442.7578 319.94,441.5547 L319.94,440.4609 Q319.94,439.2109 320.5338,438.1172 Q321.1431,437.0234 322.19,436.4453 Q323.2525,435.8516 324.44,435.8516 Q325.1588,435.8516 325.7838,436.1016 Q326.4088,436.3516 326.94,436.8516 Z " fill="#000000"/><text fill="#000000" font-family="sans-serif" font-size="12" font-style="italic" lengthAdjust="spacing" textLength="53" x="405.54" y="436.457">«service»</text><text fill="#000000" font-family="sans-serif" font-size="14" lengthAdjust="spacing" textLength="175" x="344.54" y="453.627">CourseManagementService</text><line style="stroke:#181818;stroke-width:0.5;" x1="285.74" x2="546.74" y1="461.7031" y2="461.7031"/><rect fill="none" height="6" style="stroke:#C82930;stroke-width:1.0;" width="6" x="292.74" y="473.0078"/><text fill="#000000" font-family="sans-serif" font-size="14" lengthAdjust="spacing" textLength="237" x="304.74" y="480.2363">courseRepository : CourseRepository</text><line style="stroke:#181818;stroke-width:0.5;" x1="285.74" x2="546.74" y1="487.3125" y2="487.3125"/><ellipse cx="295.74" cy="501.6172" fill="#84BE84" rx="3" ry="3" style="stroke:#038048;stroke-width:1.0;"/><text fill="#000000" font-family="sans-serif" font-size="14" lengthAdjust="spacing" textLength="117" x="304.74" y="505.8457">enrollingCourses()</text><ellipse cx="295.74" cy="519.2266" fill="#84BE84" rx="3" ry="3" style="stroke:#038048;stroke-width:1.0;"/><text fill="#000000" font-family="sans-serif" font-size="14" lengthAdjust="spacing" textLength="144" x="304.74" y="523.4551">getCourseRepository()</text><ellipse cx="295.74" cy="536.8359" fill="#84BE84" rx="3" ry="3" style="stroke:#038048;stroke-width:1.0;"/><text fill="#000000" font-family="sans-serif" font-size="14" lengthAdjust="spacing" textLength="77" x="304.74" y="541.0645">allCourses()</text></g><!--MD5=[8a3b60ec0463290b96edbf86cc99e862]
link CloseCourseUI to CloseCourseController--><g id="link_CloseCourseUI_CloseCourseController"><path codeLine="95" d="M424.24,136.09 C424.24,157.17 424.24,182.74 424.24,206.67 " fill="none" id="CloseCourseUI-to-CloseCourseController" style="stroke:#181818;stroke-width:1.0;stroke-dasharray:7.0,7.0;"/><polygon fill="#181818" points="424.24,211.74,428.24,202.74,424.24,206.74,420.24,202.74,424.24,211.74" style="stroke:#181818;stroke-width:1.0;"/></g><!--MD5=[8396ac89b544e17eee541931ab2c5e2f]
link CloseCourseController to CourseManagementService--><g id="link_CloseCourseController_CourseManagementService"><path codeLine="96" d="M421.27,359.2 C420.55,376.98 419.77,395.94 419.06,413.53 " fill="none" id="CloseCourseController-to-CourseManagementService" style="stroke:#181818;stroke-width:1.0;stroke-dasharray:7.0,7.0;"/><polygon fill="#181818" points="418.83,418.94,423.1865,410.1071,419.0298,413.944,415.1929,409.7873,418.83,418.94" style="stroke:#181818;stroke-width:1.0;"/></g><!--MD5=[5f51c4f556a3967dddec88ee110fd332]
link Course to CourseCode--><g id="link_Course_CourseCode"><path codeLine="99" d="M482.36,909.16 C497.57,931.34 512.52,953.15 525.49,972.07 " fill="none" id="Course-to-CourseCode" style="stroke:#181818;stroke-width:1.0;"/><polygon fill="#181818" points="528.4,976.31,526.6131,966.6246,525.574,972.1852,520.0134,971.1462,528.4,976.31" style="stroke:#181818;stroke-width:1.0;"/></g><!--MD5=[fb1b11975120a3eff39f2a5b357f0d9b]
link Course to CourseDescription--><g id="link_Course_CourseDescription"><path codeLine="100" d="M424.63,909.09 C429.15,929.09 433.22,949.48 436.24,969 C449.18,1052.58 452.97,1150.45 454,1211.84 " fill="none" id="Course-to-CourseDescription" style="stroke:#181818;stroke-width:1.0;"/><polygon fill="#181818" points="454.08,1216.93,457.951,1207.8738,454.0086,1211.9305,449.9518,1207.9881,454.08,1216.93" style="stroke:#181818;stroke-width:1.0;"/></g><!--MD5=[879e79d9b9300cd2bae6192b9cbae86c]
link Course to Teacher--><g id="link_Course_Teacher"><path codeLine="101" d="M348.22,909.16 C343.26,928.12 338.38,946.8 333.97,963.65 " fill="none" id="Course-to-Teacher" style="stroke:#181818;stroke-width:1.0;"/><polygon fill="#181818" points="332.62,968.82,338.753,961.1138,333.8763,963.9804,331.0097,959.1037,332.62,968.82" style="stroke:#181818;stroke-width:1.0;"/></g><!--MD5=[247acfaafee6ebcbc1a3de2d658d887a]
link Course to CourseName--><g id="link_Course_CourseName"><path codeLine="102" d="M560.76,892.74 C600.23,920.9 640.28,949.47 673.69,973.31 " fill="none" id="Course-to-CourseName" style="stroke:#181818;stroke-width:1.0;"/><polygon fill="#181818" points="678.15,976.5,673.1598,968.009,674.0842,973.5898,668.5034,974.5142,678.15,976.5" style="stroke:#181818;stroke-width:1.0;"/></g><!--MD5=[e64f2b7cf82963464778f39ca9b22dac]
link Course to CourseState--><g id="link_Course_CourseState"><path codeLine="104" d="M244.65,909.16 C222.8,931.18 201.31,952.84 182.62,971.66 " fill="none" id="Course-to-CourseState" style="stroke:#181818;stroke-width:1.0;"/><polygon fill="#181818" points="178.92,975.39,188.0981,971.8174,182.4412,971.8402,182.4184,966.1834,178.92,975.39" style="stroke:#181818;stroke-width:1.0;"/></g><!--MD5=[ac1a8bcfeb8542d9f9e910e4ede23889]
link CourseManagementService to CourseRepository--><g id="link_CourseManagementService_CourseRepository"><path codeLine="106" d="M284.51,483.5 C267.39,483.5 250.27,483.5 233.15,483.5 " fill="none" id="CourseManagementService-to-CourseRepository" style="stroke:#181818;stroke-width:1.0;stroke-dasharray:7.0,7.0;"/><polygon fill="#181818" points="227.84,483.5,236.84,487.5,232.84,483.5,236.84,479.5,227.84,483.5" style="stroke:#181818;stroke-width:1.0;"/></g><!--MD5=[d1190def5e9caafbaac48b25e41a7655]
link Course to CourseStudentsLimit--><g id="link_Course_CourseStudentsLimit"><path codeLine="108" d="M209.69,830.37 C147.98,861.92 85.32,906.97 50.24,969 C6,1047.23 56.07,1148.98 98.11,1212.39 " fill="none" id="Course-to-CourseStudentsLimit" style="stroke:#181818;stroke-width:1.0;"/><polygon fill="#181818" points="101.12,1216.88,99.4559,1207.1727,98.3465,1212.7197,92.7995,1211.6103,101.12,1216.88" style="stroke:#181818;stroke-width:1.0;"/></g><!--MD5=[59c14209ec6f3a0fc2acb8a96bf0d78a]
link CloseCourseController to Course--><g id="link_CloseCourseController_Course"><path codeLine="109" d="M537.67,359.27 C548.73,370.89 558.37,383.81 565.24,398 C598.94,467.61 593.54,500.03 565.24,572 C558.76,588.49 550.13,604.41 540.16,619.55 " fill="none" id="CloseCourseController-to-Course" style="stroke:#181818;stroke-width:1.0;stroke-dasharray:7.0,7.0;"/><polygon fill="#181818" points="537.31,623.8,545.643,618.5501,540.0934,619.6463,538.9972,614.0967,537.31,623.8" style="stroke:#181818;stroke-width:1.0;"/></g><!--MD5=[55c69a8b7b83d26318503dc8eb17e636]
link CourseRepository to Course--><g id="link_CourseRepository_Course"><path codeLine="111" d="M185.02,525.06 C206.12,550.4 234.71,584.73 263.67,619.51 " fill="none" id="CourseRepository-to-Course" style="stroke:#181818;stroke-width:1.0;"/><polygon fill="#181818" points="267.2,623.76,264.5147,614.2843,264.0005,619.9177,258.367,619.4035,267.2,623.76" style="stroke:#181818;stroke-width:1.0;"/></g><!--MD5=[e82fef11876bba5a1ed93d08acbfb49e]
@startuml
'https://plantuml.com/class-diagram

package "presentation" #DDDDDD{
    class CloseCourseUI <<ui>>{
    - theController : CloseCourseController
    + doShow()
    }
}



package "domain" #dbd8ae{


       
        class CourseStudentsLimit <<value object>> {
        -min : int
        -max : int
        +CourseStudentsLimit (min, max)
        }

        class Course <<aggregate root>> <<entity>>{
        - code : CourseCode
        - name : CourseName
        - description : CourseDescription
        - courseState : CourseName
        - courseTeachers : List<Teacher>
        - teacherInCharge : Teacher
        - limits : CourseStudentsLimit
        - createdOn : Calendar
        - modifiedOn : Calendar
        + Course (code, name, description, limits)
        + Course (code, name, description, limits, createdOn)
         + close(now)
        }

        enum CourseState{
        CLOSED
        OPEN
        ENROLL
        IN_PROGRESS
        }

        class Teacher <<value object>> <<id>>{
         -acronym : Acronym
         -systemUser : SystemUser
         +Teacher(user : SystemUser)
        }

        class CourseDescription <<value object>>{
        -description : String
        +valueOf(description)
        + CourseDescription (description)
        }

        class CourseCode <<value object>>{
        -code : String
        +valueOf(code)
        +CourseCode (code)
        }

        class CourseName<<value object>>{
        -name : String
         +valueOf(name)
        + CourseName (name)
        }


}
    package "persistence" #dbd8ae{
       interface CourseRepository{
       findAll()
       save(course : Course)
       }
    }
package "application" #eaf4d3{
    class CloseCourseController <<controller>>{
        - authz : AuthorizationService
        - courseSvc : CourseManagementService
        - courseRepository : CourseRepository
         + allCourses()
        + close(course)
    }

    class CourseManagementService <<service>>{
         - courseRepository : CourseRepository
         + enrollingCourses()
         + getCourseRepository()
         + allCourses()
    }

}


CloseCourseUI .-> CloseCourseController
CloseCourseController .-> CourseManagementService


Course - -> CourseCode
Course - - - -> CourseDescription
Course - -> Teacher
Course - -> CourseName

Course - -> CourseState

CourseManagementService .> CourseRepository

Course - - - -> CourseStudentsLimit
CloseCourseController .- -> Course

CourseRepository - -> Course

@enduml

@startuml

package "presentation" #DDDDDD{
    class CloseCourseUI <<ui>>{
    - theController : CloseCourseController
    + doShow()
    }
}



package "domain" #dbd8ae{


       
        class CourseStudentsLimit <<value object>> {
        -min : int
        -max : int
        +CourseStudentsLimit (min, max)
        }

        class Course <<aggregate root>> <<entity>>{
        - code : CourseCode
        - name : CourseName
        - description : CourseDescription
        - courseState : CourseName
        - courseTeachers : List<Teacher>
        - teacherInCharge : Teacher
        - limits : CourseStudentsLimit
        - createdOn : Calendar
        - modifiedOn : Calendar
        + Course (code, name, description, limits)
        + Course (code, name, description, limits, createdOn)
         + close(now)
        }

        enum CourseState{
        CLOSED
        OPEN
        ENROLL
        IN_PROGRESS
        }

        class Teacher <<value object>> <<id>>{
         -acronym : Acronym
         -systemUser : SystemUser
         +Teacher(user : SystemUser)
        }

        class CourseDescription <<value object>>{
        -description : String
        +valueOf(description)
        + CourseDescription (description)
        }

        class CourseCode <<value object>>{
        -code : String
        +valueOf(code)
        +CourseCode (code)
        }

        class CourseName<<value object>>{
        -name : String
         +valueOf(name)
        + CourseName (name)
        }


}
    package "persistence" #dbd8ae{
       interface CourseRepository{
       findAll()
       save(course : Course)
       }
    }
package "application" #eaf4d3{
    class CloseCourseController <<controller>>{
        - authz : AuthorizationService
        - courseSvc : CourseManagementService
        - courseRepository : CourseRepository
         + allCourses()
        + close(course)
    }

    class CourseManagementService <<service>>{
         - courseRepository : CourseRepository
         + enrollingCourses()
         + getCourseRepository()
         + allCourses()
    }

}


CloseCourseUI .-> CloseCourseController
CloseCourseController .-> CourseManagementService


Course - -> CourseCode
Course - - - -> CourseDescription
Course - -> Teacher
Course - -> CourseName

Course - -> CourseState

CourseManagementService .> CourseRepository

Course - - - -> CourseStudentsLimit
CloseCourseController .- -> Course

CourseRepository - -> Course

@enduml

PlantUML version 1.2022.12(Sun Oct 23 19:12:26 BST 2022)
(GPL source distribution)
Java Runtime: OpenJDK Runtime Environment
JVM: OpenJDK 64-Bit Server VM
Default Encoding: Cp1252
Language: pt
Country: PT
--></g></svg>