<?xml version="1.0" encoding="UTF-8" standalone="no"?><svg xmlns="http://www.w3.org/2000/svg" xmlns:xlink="http://www.w3.org/1999/xlink" contentStyleType="text/css" height="355px" preserveAspectRatio="none" style="width:641px;height:355px;background:#FFFFFF;" version="1.1" viewBox="0 0 641 355" width="641px" zoomAndPan="magnify"><defs/><g><rect fill="#FFFFFF" height="130.4063" style="stroke:#181818;stroke-width:1.0;" width="10" x="256.5" y="118.5703"/><rect fill="#FFFFFF" height="30.3516" style="stroke:#181818;stroke-width:1.0;" width="10" x="579.5" y="179.2734"/><line style="stroke:#181818;stroke-width:0.5;stroke-dasharray:5.0,5.0;" x1="83" x2="83" y1="86.2188" y2="257.9766"/><line style="stroke:#181818;stroke-width:0.5;stroke-dasharray:5.0,5.0;" x1="261" x2="261" y1="86.2188" y2="257.9766"/><line style="stroke:#181818;stroke-width:0.5;stroke-dasharray:5.0,5.0;" x1="584.5" x2="584.5" y1="86.2188" y2="257.9766"/><rect fill="#E2E2F0" height="49.2188" rx="2.5" ry="2.5" style="stroke:#181818;stroke-width:0.5;" width="156" x="5" y="36"/><text fill="#000000" font-family="FG Virgil" font-size="14" font-style="italic" lengthAdjust="spacing" textLength="84" x="41" y="57.5332">«application»</text><text fill="#000000" font-family="FG Virgil" font-size="14" lengthAdjust="spacing" textLength="142" x="12" y="75.1426">UpdatePostItController</text><rect fill="#E2E2F0" height="49.2188" rx="2.5" ry="2.5" style="stroke:#181818;stroke-width:0.5;" width="156" x="5" y="256.9766"/><text fill="#000000" font-family="FG Virgil" font-size="14" font-style="italic" lengthAdjust="spacing" textLength="84" x="41" y="278.5098">«application»</text><text fill="#000000" font-family="FG Virgil" font-size="14" lengthAdjust="spacing" textLength="142" x="12" y="296.1191">UpdatePostItController</text><rect fill="#E2E2F0" height="49.2188" rx="2.5" ry="2.5" style="stroke:#181818;stroke-width:0.5;" width="181" x="171" y="36"/><text fill="#000000" font-family="FG Virgil" font-size="14" font-style="italic" lengthAdjust="spacing" textLength="84" x="219.5" y="57.5332">«application»</text><text fill="#000000" font-family="FG Virgil" font-size="14" lengthAdjust="spacing" textLength="167" x="178" y="75.1426">BoardManagementService</text><rect fill="#E2E2F0" height="49.2188" rx="2.5" ry="2.5" style="stroke:#181818;stroke-width:0.5;" width="181" x="171" y="256.9766"/><text fill="#000000" font-family="FG Virgil" font-size="14" font-style="italic" lengthAdjust="spacing" textLength="84" x="219.5" y="278.5098">«application»</text><text fill="#000000" font-family="FG Virgil" font-size="14" lengthAdjust="spacing" textLength="167" x="178" y="296.1191">BoardManagementService</text><text fill="#000000" font-family="FG Virgil" font-size="14" font-style="italic" lengthAdjust="spacing" textLength="79" x="542" y="65.5332">«repository»</text><text fill="#000000" font-family="FG Virgil" font-size="14" lengthAdjust="spacing" textLength="106" x="528.5" y="83.1426">BoardRepository</text><path d="M566.5,15 C566.5,5 584.5,5 584.5,5 C584.5,5 602.5,5 602.5,15 L602.5,41 C602.5,51 584.5,51 584.5,51 C584.5,51 566.5,51 566.5,41 L566.5,15 " fill="#E2E2F0" style="stroke:#181818;stroke-width:1.5;"/><path d="M566.5,15 C566.5,25 584.5,25 584.5,25 C584.5,25 602.5,25 602.5,15 " fill="none" style="stroke:#181818;stroke-width:1.5;"/><text fill="#000000" font-family="FG Virgil" font-size="14" font-style="italic" lengthAdjust="spacing" textLength="79" x="542" y="271.5098">«repository»</text><text fill="#000000" font-family="FG Virgil" font-size="14" lengthAdjust="spacing" textLength="106" x="528.5" y="289.1191">BoardRepository</text><path d="M566.5,302.1953 C566.5,292.1953 584.5,292.1953 584.5,292.1953 C584.5,292.1953 602.5,292.1953 602.5,302.1953 L602.5,328.1953 C602.5,338.1953 584.5,338.1953 584.5,338.1953 C584.5,338.1953 566.5,338.1953 566.5,328.1953 L566.5,302.1953 " fill="#E2E2F0" style="stroke:#181818;stroke-width:1.5;"/><path d="M566.5,302.1953 C566.5,312.1953 584.5,312.1953 584.5,312.1953 C584.5,312.1953 602.5,312.1953 602.5,302.1953 " fill="none" style="stroke:#181818;stroke-width:1.5;"/><rect fill="#FFFFFF" height="130.4063" style="stroke:#181818;stroke-width:1.0;" width="10" x="256.5" y="118.5703"/><rect fill="#FFFFFF" height="30.3516" style="stroke:#181818;stroke-width:1.0;" width="10" x="579.5" y="179.2734"/><polygon fill="#181818" points="244.5,114.5703,254.5,118.5703,244.5,122.5703,248.5,118.5703" style="stroke:#181818;stroke-width:1.0;"/><line style="stroke:#181818;stroke-width:1.0;" x1="83" x2="250.5" y1="118.5703" y2="118.5703"/><text fill="#000000" font-family="FG Virgil" font-size="13" lengthAdjust="spacing" textLength="44" x="90" y="113.7139">create()</text><polygon fill="#181818" points="244.5,144.9219,254.5,148.9219,244.5,152.9219,248.5,148.9219" style="stroke:#181818;stroke-width:1.0;"/><line style="stroke:#181818;stroke-width:1.0;" x1="83" x2="250.5" y1="148.9219" y2="148.9219"/><text fill="#000000" font-family="FG Virgil" font-size="13" lengthAdjust="spacing" textLength="90" x="90" y="144.0654">boardsByUser()</text><polygon fill="#181818" points="567.5,175.2734,577.5,179.2734,567.5,183.2734,571.5,179.2734" style="stroke:#181818;stroke-width:1.0;"/><line style="stroke:#181818;stroke-width:1.0;" x1="266.5" x2="573.5" y1="179.2734" y2="179.2734"/><text fill="#000000" font-family="FG Virgil" font-size="13" lengthAdjust="spacing" textLength="294" x="273.5" y="174.417">boards = findBySystemUserWithWritePermission()</text><polygon fill="#181818" points="277.5,205.625,267.5,209.625,277.5,213.625,273.5,209.625" style="stroke:#181818;stroke-width:1.0;"/><line style="stroke:#181818;stroke-width:1.0;stroke-dasharray:2.0,2.0;" x1="271.5" x2="583.5" y1="209.625" y2="209.625"/><text fill="#000000" font-family="FG Virgil" font-size="13" lengthAdjust="spacing" textLength="39" x="283.5" y="204.7686">boards</text><polygon fill="#181818" points="94,235.9766,84,239.9766,94,243.9766,90,239.9766" style="stroke:#181818;stroke-width:1.0;"/><line style="stroke:#181818;stroke-width:1.0;stroke-dasharray:2.0,2.0;" x1="88" x2="255.5" y1="239.9766" y2="239.9766"/><text fill="#000000" font-family="FG Virgil" font-size="13" lengthAdjust="spacing" textLength="39" x="100" y="235.1201">boards</text><!--MD5=[565218343d61065d8b7ce0cbff7f6bb8]
@startuml
'http://plantuml.com/skinparam.html
skinparam handwritten false
skinparam packageStyle rect
skinparam defaultFontName FG Virgil
skinparam shadowing false


participant UpdatePostItController as Controller <<application>>
participant BoardManagementService as boardSvc <<application>>
database BoardRepository as Repository <<repository>>

Controller -> boardSvc : create()
activate boardSvc
Controller -> boardSvc : boardsByUser()
boardSvc -> Repository: boards = findBySystemUserWithWritePermission()
activate Repository

Repository - -> boardSvc : boards
deactivate Repository
boardSvc - -> Controller : boards
deactivate Controller

@enduml

@startuml
skinparam handwritten false
skinparam packageStyle rect
skinparam defaultFontName FG Virgil
skinparam shadowing false


participant UpdatePostItController as Controller <<application>>
participant BoardManagementService as boardSvc <<application>>
database BoardRepository as Repository <<repository>>

Controller -> boardSvc : create()
activate boardSvc
Controller -> boardSvc : boardsByUser()
boardSvc -> Repository: boards = findBySystemUserWithWritePermission()
activate Repository

Repository - -> boardSvc : boards
deactivate Repository
boardSvc - -> Controller : boards
deactivate Controller

@enduml

PlantUML version 1.2022.12(Sun Oct 23 19:12:26 BST 2022)
(GPL source distribution)
Java Runtime: OpenJDK Runtime Environment
JVM: OpenJDK 64-Bit Server VM
Default Encoding: Cp1252
Language: pt
Country: PT
--></g></svg>