<?xml version="1.0" encoding="UTF-8" standalone="no"?><svg xmlns="http://www.w3.org/2000/svg" xmlns:xlink="http://www.w3.org/1999/xlink" contentStyleType="text/css" height="767px" preserveAspectRatio="none" style="width:385px;height:767px;background:#FFFFFF;" version="1.1" viewBox="0 0 385 767" width="385px" zoomAndPan="magnify"><defs/><g><rect fill="#FFFFFF" height="560.3281" style="stroke:#181818;stroke-width:1.0;" width="10" x="309.5" y="114.9609"/><rect fill="none" height="139.7578" style="stroke:#000000;stroke-width:1.5;" width="369" x="10" y="281.7188"/><rect fill="none" height="139.7578" style="stroke:#000000;stroke-width:1.5;" width="369" x="10" y="435.4766"/><rect fill="none" height="79.0547" style="stroke:#000000;stroke-width:1.5;" width="369" x="10" y="589.2344"/><line style="stroke:#181818;stroke-width:0.5;stroke-dasharray:5.0,5.0;" x1="37" x2="37" y1="82.6094" y2="685.2891"/><line style="stroke:#181818;stroke-width:0.5;stroke-dasharray:5.0,5.0;" x1="314" x2="314" y1="82.6094" y2="685.2891"/><text fill="#000000" font-family="FG Virgil" font-size="14" lengthAdjust="spacing" textLength="29" x="20" y="79.5332">User</text><ellipse cx="37.5" cy="13.5" fill="#E2E2F0" rx="8" ry="8" style="stroke:#181818;stroke-width:0.5;"/><path d="M37.5,21.5 L37.5,48.5 M24.5,29.5 L50.5,29.5 M37.5,48.5 L24.5,63.5 M37.5,48.5 L50.5,63.5 " fill="none" style="stroke:#181818;stroke-width:0.5;"/><text fill="#000000" font-family="FG Virgil" font-size="14" lengthAdjust="spacing" textLength="29" x="20" y="698.8223">User</text><ellipse cx="37.5" cy="710.3984" fill="#E2E2F0" rx="8" ry="8" style="stroke:#181818;stroke-width:0.5;"/><path d="M37.5,718.3984 L37.5,745.3984 M24.5,726.3984 L50.5,726.3984 M37.5,745.3984 L24.5,760.3984 M37.5,745.3984 L50.5,760.3984 " fill="none" style="stroke:#181818;stroke-width:0.5;"/><rect fill="#E2E2F0" height="49.2188" rx="2.5" ry="2.5" style="stroke:#181818;stroke-width:0.5;" width="109" x="260" y="32.3906"/><text fill="#000000" font-family="FG Virgil" font-size="14" font-style="italic" lengthAdjust="spacing" textLength="95" x="267" y="53.9238">«presentation»</text><text fill="#000000" font-family="FG Virgil" font-size="14" lengthAdjust="spacing" textLength="92" x="268.5" y="71.5332">UpdatePostItUI</text><rect fill="#E2E2F0" height="49.2188" rx="2.5" ry="2.5" style="stroke:#181818;stroke-width:0.5;" width="109" x="260" y="684.2891"/><text fill="#000000" font-family="FG Virgil" font-size="14" font-style="italic" lengthAdjust="spacing" textLength="95" x="267" y="705.8223">«presentation»</text><text fill="#000000" font-family="FG Virgil" font-size="14" lengthAdjust="spacing" textLength="92" x="268.5" y="723.4316">UpdatePostItUI</text><rect fill="#FFFFFF" height="560.3281" style="stroke:#181818;stroke-width:1.0;" width="10" x="309.5" y="114.9609"/><polygon fill="#181818" points="297.5,110.9609,307.5,114.9609,297.5,118.9609,301.5,114.9609" style="stroke:#181818;stroke-width:1.0;"/><line style="stroke:#181818;stroke-width:1.0;stroke-dasharray:2.0,2.0;" x1="37.5" x2="303.5" y1="114.9609" y2="114.9609"/><text fill="#000000" font-family="FG Virgil" font-size="13" lengthAdjust="spacing" textLength="84" x="44.5" y="110.1045">udpates PostIt</text><polygon fill="#181818" points="48.5,141.3125,38.5,145.3125,48.5,149.3125,44.5,145.3125" style="stroke:#181818;stroke-width:1.0;"/><line style="stroke:#181818;stroke-width:1.0;stroke-dasharray:2.0,2.0;" x1="42.5" x2="308.5" y1="145.3125" y2="145.3125"/><text fill="#000000" font-family="FG Virgil" font-size="13" lengthAdjust="spacing" textLength="221" x="54.5" y="140.4561">lists the boards with write permissions</text><polygon fill="#181818" points="297.5,171.6641,307.5,175.6641,297.5,179.6641,301.5,175.6641" style="stroke:#181818;stroke-width:1.0;"/><line style="stroke:#181818;stroke-width:1.0;" x1="37.5" x2="303.5" y1="175.6641" y2="175.6641"/><text fill="#000000" font-family="FG Virgil" font-size="13" lengthAdjust="spacing" textLength="89" x="44.5" y="170.8076">selects a board</text><polygon fill="#181818" points="48.5,202.0156,38.5,206.0156,48.5,210.0156,44.5,206.0156" style="stroke:#181818;stroke-width:1.0;"/><line style="stroke:#181818;stroke-width:1.0;stroke-dasharray:2.0,2.0;" x1="42.5" x2="308.5" y1="206.0156" y2="206.0156"/><text fill="#000000" font-family="FG Virgil" font-size="13" lengthAdjust="spacing" textLength="248" x="54.5" y="201.1592">shows cells with postIts owned by the user</text><polygon fill="#181818" points="297.5,232.3672,307.5,236.3672,297.5,240.3672,301.5,236.3672" style="stroke:#181818;stroke-width:1.0;"/><line style="stroke:#181818;stroke-width:1.0;" x1="37.5" x2="303.5" y1="236.3672" y2="236.3672"/><text fill="#000000" font-family="FG Virgil" font-size="13" lengthAdjust="spacing" textLength="173" x="44.5" y="231.5107">selects a cell to update PostIt</text><polygon fill="#181818" points="48.5,262.7188,38.5,266.7188,48.5,270.7188,44.5,266.7188" style="stroke:#181818;stroke-width:1.0;"/><line style="stroke:#181818;stroke-width:1.0;stroke-dasharray:2.0,2.0;" x1="42.5" x2="308.5" y1="266.7188" y2="266.7188"/><text fill="#000000" font-family="FG Virgil" font-size="13" lengthAdjust="spacing" textLength="119" x="54.5" y="261.8623">show update options</text><path d="M10,281.7188 L71,281.7188 L71,290.0703 L61,300.0703 L10,300.0703 L10,281.7188 " fill="#EEEEEE" style="stroke:#000000;stroke-width:1.5;"/><rect fill="none" height="139.7578" style="stroke:#000000;stroke-width:1.5;" width="369" x="10" y="281.7188"/><text fill="#000000" font-family="FG Virgil" font-size="13" font-weight="bold" lengthAdjust="spacing" textLength="16" x="25" y="296.2139">alt</text><text fill="#000000" font-family="FG Virgil" font-size="11" font-weight="bold" lengthAdjust="spacing" textLength="103" x="86" y="295.1377">[option == content]</text><polygon fill="#181818" points="297.5,318.4219,307.5,322.4219,297.5,326.4219,301.5,322.4219" style="stroke:#181818;stroke-width:1.0;"/><line style="stroke:#181818;stroke-width:1.0;stroke-dasharray:2.0,2.0;" x1="37.5" x2="303.5" y1="322.4219" y2="322.4219"/><text fill="#000000" font-family="FG Virgil" font-size="13" lengthAdjust="spacing" textLength="132" x="44.5" y="317.5654">selects update content</text><polygon fill="#181818" points="48.5,348.7734,38.5,352.7734,48.5,356.7734,44.5,352.7734" style="stroke:#181818;stroke-width:1.0;"/><line style="stroke:#181818;stroke-width:1.0;stroke-dasharray:2.0,2.0;" x1="42.5" x2="308.5" y1="352.7734" y2="352.7734"/><text fill="#000000" font-family="FG Virgil" font-size="13" lengthAdjust="spacing" textLength="102" x="54.5" y="347.917">asks new content</text><polygon fill="#181818" points="297.5,379.125,307.5,383.125,297.5,387.125,301.5,383.125" style="stroke:#181818;stroke-width:1.0;"/><line style="stroke:#181818;stroke-width:1.0;stroke-dasharray:2.0,2.0;" x1="37.5" x2="303.5" y1="383.125" y2="383.125"/><text fill="#000000" font-family="FG Virgil" font-size="13" lengthAdjust="spacing" textLength="109" x="44.5" y="378.2686">inputs new content</text><polygon fill="#181818" points="48.5,409.4766,38.5,413.4766,48.5,417.4766,44.5,413.4766" style="stroke:#181818;stroke-width:1.0;"/><line style="stroke:#181818;stroke-width:1.0;stroke-dasharray:2.0,2.0;" x1="42.5" x2="308.5" y1="413.4766" y2="413.4766"/><text fill="#000000" font-family="FG Virgil" font-size="13" lengthAdjust="spacing" textLength="101" x="54.5" y="408.6201">displays success</text><path d="M10,435.4766 L71,435.4766 L71,443.8281 L61,453.8281 L10,453.8281 L10,435.4766 " fill="#EEEEEE" style="stroke:#000000;stroke-width:1.5;"/><rect fill="none" height="139.7578" style="stroke:#000000;stroke-width:1.5;" width="369" x="10" y="435.4766"/><text fill="#000000" font-family="FG Virgil" font-size="13" font-weight="bold" lengthAdjust="spacing" textLength="16" x="25" y="449.9717">alt</text><text fill="#000000" font-family="FG Virgil" font-size="11" font-weight="bold" lengthAdjust="spacing" textLength="119" x="86" y="448.8955">[option == placement]</text><polygon fill="#181818" points="297.5,472.1797,307.5,476.1797,297.5,480.1797,301.5,476.1797" style="stroke:#181818;stroke-width:1.0;"/><line style="stroke:#181818;stroke-width:1.0;stroke-dasharray:2.0,2.0;" x1="37.5" x2="303.5" y1="476.1797" y2="476.1797"/><text fill="#000000" font-family="FG Virgil" font-size="13" lengthAdjust="spacing" textLength="76" x="44.5" y="471.3232">selects move</text><polygon fill="#181818" points="48.5,502.5313,38.5,506.5313,48.5,510.5313,44.5,506.5313" style="stroke:#181818;stroke-width:1.0;"/><line style="stroke:#181818;stroke-width:1.0;stroke-dasharray:2.0,2.0;" x1="42.5" x2="308.5" y1="506.5313" y2="506.5313"/><text fill="#000000" font-family="FG Virgil" font-size="13" lengthAdjust="spacing" textLength="169" x="54.5" y="501.6748">shows availableCells in board</text><polygon fill="#181818" points="297.5,532.8828,307.5,536.8828,297.5,540.8828,301.5,536.8828" style="stroke:#181818;stroke-width:1.0;"/><line style="stroke:#181818;stroke-width:1.0;stroke-dasharray:2.0,2.0;" x1="37.5" x2="303.5" y1="536.8828" y2="536.8828"/><text fill="#000000" font-family="FG Virgil" font-size="13" lengthAdjust="spacing" textLength="185" x="44.5" y="532.0264">selects a cell to place the postIt</text><polygon fill="#181818" points="48.5,563.2344,38.5,567.2344,48.5,571.2344,44.5,567.2344" style="stroke:#181818;stroke-width:1.0;"/><line style="stroke:#181818;stroke-width:1.0;stroke-dasharray:2.0,2.0;" x1="42.5" x2="308.5" y1="567.2344" y2="567.2344"/><text fill="#000000" font-family="FG Virgil" font-size="13" lengthAdjust="spacing" textLength="101" x="54.5" y="562.3779">displays success</text><path d="M10,589.2344 L71,589.2344 L71,597.5859 L61,607.5859 L10,607.5859 L10,589.2344 " fill="#EEEEEE" style="stroke:#000000;stroke-width:1.5;"/><rect fill="none" height="79.0547" style="stroke:#000000;stroke-width:1.5;" width="369" x="10" y="589.2344"/><text fill="#000000" font-family="FG Virgil" font-size="13" font-weight="bold" lengthAdjust="spacing" textLength="16" x="25" y="603.7295">alt</text><text fill="#000000" font-family="FG Virgil" font-size="11" font-weight="bold" lengthAdjust="spacing" textLength="96" x="86" y="602.6533">[option == delete]</text><polygon fill="#181818" points="297.5,625.9375,307.5,629.9375,297.5,633.9375,301.5,629.9375" style="stroke:#181818;stroke-width:1.0;"/><line style="stroke:#181818;stroke-width:1.0;stroke-dasharray:2.0,2.0;" x1="37.5" x2="303.5" y1="629.9375" y2="629.9375"/><text fill="#000000" font-family="FG Virgil" font-size="13" lengthAdjust="spacing" textLength="81" x="44.5" y="625.0811">selects delete</text><polygon fill="#181818" points="48.5,656.2891,38.5,660.2891,48.5,664.2891,44.5,660.2891" style="stroke:#181818;stroke-width:1.0;"/><line style="stroke:#181818;stroke-width:1.0;stroke-dasharray:2.0,2.0;" x1="42.5" x2="308.5" y1="660.2891" y2="660.2891"/><text fill="#000000" font-family="FG Virgil" font-size="13" lengthAdjust="spacing" textLength="101" x="54.5" y="655.4326">displays success</text><!--MD5=[30dc9c786180135e2b1db493b1d26605]
@startuml
'http://plantuml.com/skinparam.html
skinparam handwritten false
skinparam packageStyle rect
skinparam defaultFontName FG Virgil
skinparam shadowing false

actor User as Actor
participant UpdatePostItUI as UI <<presentation>>




Actor - -> UI: udpates PostIt
activate UI

UI - -> Actor: lists the boards with write permissions
Actor -> UI: selects a board



UI - -> Actor : shows cells with postIts owned by the user
Actor -> UI: selects a cell to update PostIt


        UI- ->Actor: show update options


        alt option == content
        Actor - -> UI : selects update content
        UI- ->Actor: asks new content
        Actor - -> UI : inputs new content




         UI - -> Actor : displays success
end

alt option == placement
        Actor - -> UI :  selects move


         UI - -> Actor : shows availableCells in board


         Actor - -> UI :  selects a cell to place the postIt


         UI - -> Actor : displays success
          end




          alt option == delete
                  Actor - -> UI :  selects delete

UI - -> Actor : displays success

                    end


deactivate UI
@enduml

@startuml
skinparam handwritten false
skinparam packageStyle rect
skinparam defaultFontName FG Virgil
skinparam shadowing false

actor User as Actor
participant UpdatePostItUI as UI <<presentation>>




Actor - -> UI: udpates PostIt
activate UI

UI - -> Actor: lists the boards with write permissions
Actor -> UI: selects a board



UI - -> Actor : shows cells with postIts owned by the user
Actor -> UI: selects a cell to update PostIt


        UI- ->Actor: show update options


        alt option == content
        Actor - -> UI : selects update content
        UI- ->Actor: asks new content
        Actor - -> UI : inputs new content




         UI - -> Actor : displays success
end

alt option == placement
        Actor - -> UI :  selects move


         UI - -> Actor : shows availableCells in board


         Actor - -> UI :  selects a cell to place the postIt


         UI - -> Actor : displays success
          end




          alt option == delete
                  Actor - -> UI :  selects delete

UI - -> Actor : displays success

                    end


deactivate UI
@enduml

PlantUML version 1.2022.12(Sun Oct 23 19:12:26 BST 2022)
(GPL source distribution)
Java Runtime: OpenJDK Runtime Environment
JVM: OpenJDK 64-Bit Server VM
Default Encoding: Cp1252
Language: pt
Country: PT
--></g></svg>