<?xml version="1.0" encoding="us-ascii" standalone="no"?><svg xmlns="http://www.w3.org/2000/svg" xmlns:xlink="http://www.w3.org/1999/xlink" contentStyleType="text/css" height="1045px" preserveAspectRatio="none" style="width:1887px;height:1045px;background:#FFFFFF;" version="1.1" viewBox="0 0 1887 1045" width="1887px" zoomAndPan="magnify"><defs/><g><rect fill="#FFFFFF" height="818.3203" style="stroke:#181818;stroke-width:1.0;" width="10" x="232" y="114.7266"/><rect fill="#FFFFFF" height="30" style="stroke:#181818;stroke-width:1.0;" width="10" x="758.5" y="172.9922"/><rect fill="#FFFFFF" height="30" style="stroke:#181818;stroke-width:1.0;" width="10" x="1363.5" y="290.3906"/><rect fill="#FFFFFF" height="30" style="stroke:#181818;stroke-width:1.0;" width="10" x="1363.5" y="669.9844"/><rect fill="#FFFFFF" height="58.2656" style="stroke:#181818;stroke-width:1.0;" width="10" x="1525.5" y="349.5234"/><rect fill="#FFFFFF" height="58.2656" style="stroke:#181818;stroke-width:1.0;" width="10" x="1525.5" y="729.1172"/><rect fill="#FFFFFF" height="29.1328" style="stroke:#181818;stroke-width:1.0;" width="10" x="1676" y="436.9219"/><rect fill="#FFFFFF" height="29.1328" style="stroke:#181818;stroke-width:1.0;" width="10" x="1817" y="816.5156"/><line style="stroke:#181818;stroke-width:0.5;stroke-dasharray:5.0,5.0;" x1="37" x2="37" y1="83.5938" y2="951.0469"/><line style="stroke:#181818;stroke-width:0.5;stroke-dasharray:5.0,5.0;" x1="236.5" x2="236.5" y1="83.5938" y2="951.0469"/><line style="stroke:#181818;stroke-width:0.5;stroke-dasharray:5.0,5.0;" x1="442.5" x2="442.5" y1="83.5938" y2="951.0469"/><line style="stroke:#181818;stroke-width:0.5;stroke-dasharray:5.0,5.0;" x1="763" x2="763" y1="83.5938" y2="951.0469"/><line style="stroke:#181818;stroke-width:0.5;stroke-dasharray:5.0,5.0;" x1="961" x2="961" y1="83.5938" y2="951.0469"/><line style="stroke:#181818;stroke-width:0.5;stroke-dasharray:5.0,5.0;" x1="1178" x2="1178" y1="83.5938" y2="951.0469"/><line style="stroke:#181818;stroke-width:0.5;stroke-dasharray:5.0,5.0;" x1="1368" x2="1368" y1="83.5938" y2="951.0469"/><line style="stroke:#181818;stroke-width:0.5;stroke-dasharray:5.0,5.0;" x1="1530" x2="1530" y1="83.5938" y2="951.0469"/><line style="stroke:#181818;stroke-width:0.5;stroke-dasharray:5.0,5.0;" x1="1681" x2="1681" y1="83.5938" y2="951.0469"/><line style="stroke:#181818;stroke-width:0.5;stroke-dasharray:5.0,5.0;" x1="1822" x2="1822" y1="83.5938" y2="951.0469"/><text fill="#000000" font-family="FG Virgil" font-size="14" lengthAdjust="spacing" textLength="58" x="5" y="80.292">Teacher</text><ellipse cx="37" cy="15.7969" fill="#E2E2F0" rx="8" ry="8" style="stroke:#181818;stroke-width:0.5;"/><path d="M37,23.7969 L37,50.7969 M24,31.7969 L50,31.7969 M37,50.7969 L24,65.7969 M37,50.7969 L50,65.7969 " fill="none" style="stroke:#181818;stroke-width:0.5;"/><text fill="#000000" font-family="FG Virgil" font-size="14" lengthAdjust="spacing" textLength="58" x="5" y="963.042">Teacher</text><ellipse cx="37" cy="974.8438" fill="#E2E2F0" rx="8" ry="8" style="stroke:#181818;stroke-width:0.5;"/><path d="M37,982.8438 L37,1009.8438 M24,990.8438 L50,990.8438 M37,1009.8438 L24,1024.8438 M37,1009.8438 L50,1024.8438 " fill="none" style="stroke:#181818;stroke-width:0.5;"/><rect fill="#E2E2F0" height="46.5938" rx="2.5" ry="2.5" style="stroke:#181818;stroke-width:0.5;" width="169" x="152.5" y="36"/><text fill="#000000" font-family="FG Virgil" font-size="14" font-style="italic" lengthAdjust="spacing" textLength="108" x="183" y="55.9951">&#171;presentation&#187;</text><text fill="#000000" font-family="FG Virgil" font-size="14" lengthAdjust="spacing" textLength="155" x="159.5" y="72.292">ListGradesOfCourseUI</text><rect fill="#E2E2F0" height="46.5938" rx="2.5" ry="2.5" style="stroke:#181818;stroke-width:0.5;" width="169" x="152.5" y="950.0469"/><text fill="#000000" font-family="FG Virgil" font-size="14" font-style="italic" lengthAdjust="spacing" textLength="108" x="183" y="970.042">&#171;presentation&#187;</text><text fill="#000000" font-family="FG Virgil" font-size="14" lengthAdjust="spacing" textLength="155" x="159.5" y="986.3389">ListGradesOfCourseUI</text><rect fill="#E2E2F0" height="46.5938" rx="2.5" ry="2.5" style="stroke:#181818;stroke-width:0.5;" width="222" x="331.5" y="36"/><text fill="#000000" font-family="FG Virgil" font-size="14" font-style="italic" lengthAdjust="spacing" textLength="97" x="394" y="55.9951">&#171;application&#187;</text><text fill="#000000" font-family="FG Virgil" font-size="14" lengthAdjust="spacing" textLength="208" x="338.5" y="72.292">ListGradeOfCourseController</text><rect fill="#E2E2F0" height="46.5938" rx="2.5" ry="2.5" style="stroke:#181818;stroke-width:0.5;" width="222" x="331.5" y="950.0469"/><text fill="#000000" font-family="FG Virgil" font-size="14" font-style="italic" lengthAdjust="spacing" textLength="97" x="394" y="970.042">&#171;application&#187;</text><text fill="#000000" font-family="FG Virgil" font-size="14" lengthAdjust="spacing" textLength="208" x="338.5" y="986.3389">ListGradeOfCourseController</text><rect fill="#E2E2F0" height="46.5938" rx="2.5" ry="2.5" style="stroke:#181818;stroke-width:0.5;" width="165" x="681" y="36"/><text fill="#000000" font-family="FG Virgil" font-size="14" font-style="italic" lengthAdjust="spacing" textLength="97" x="715" y="55.9951">&#171;application&#187;</text><text fill="#000000" font-family="FG Virgil" font-size="14" lengthAdjust="spacing" textLength="151" x="688" y="72.292">AuthorizationService</text><rect fill="#E2E2F0" height="46.5938" rx="2.5" ry="2.5" style="stroke:#181818;stroke-width:0.5;" width="165" x="681" y="950.0469"/><text fill="#000000" font-family="FG Virgil" font-size="14" font-style="italic" lengthAdjust="spacing" textLength="97" x="715" y="970.042">&#171;application&#187;</text><text fill="#000000" font-family="FG Virgil" font-size="14" lengthAdjust="spacing" textLength="151" x="688" y="986.3389">AuthorizationService</text><rect fill="#E2E2F0" height="46.5938" rx="2.5" ry="2.5" style="stroke:#181818;stroke-width:0.5;" width="210" x="856" y="36"/><text fill="#000000" font-family="FG Virgil" font-size="14" font-style="italic" lengthAdjust="spacing" textLength="97" x="912.5" y="55.9951">&#171;application&#187;</text><text fill="#000000" font-family="FG Virgil" font-size="14" lengthAdjust="spacing" textLength="196" x="863" y="72.292">CourseManagementService</text><rect fill="#E2E2F0" height="46.5938" rx="2.5" ry="2.5" style="stroke:#181818;stroke-width:0.5;" width="210" x="856" y="950.0469"/><text fill="#000000" font-family="FG Virgil" font-size="14" font-style="italic" lengthAdjust="spacing" textLength="97" x="912.5" y="970.042">&#171;application&#187;</text><text fill="#000000" font-family="FG Virgil" font-size="14" lengthAdjust="spacing" textLength="196" x="863" y="986.3389">CourseManagementService</text><rect fill="#E2E2F0" height="46.5938" rx="2.5" ry="2.5" style="stroke:#181818;stroke-width:0.5;" width="204" x="1076" y="36"/><text fill="#000000" font-family="FG Virgil" font-size="14" font-style="italic" lengthAdjust="spacing" textLength="97" x="1129.5" y="55.9951">&#171;application&#187;</text><text fill="#000000" font-family="FG Virgil" font-size="14" lengthAdjust="spacing" textLength="190" x="1083" y="72.292">GradeManagementService</text><rect fill="#E2E2F0" height="46.5938" rx="2.5" ry="2.5" style="stroke:#181818;stroke-width:0.5;" width="204" x="1076" y="950.0469"/><text fill="#000000" font-family="FG Virgil" font-size="14" font-style="italic" lengthAdjust="spacing" textLength="97" x="1129.5" y="970.042">&#171;application&#187;</text><text fill="#000000" font-family="FG Virgil" font-size="14" lengthAdjust="spacing" textLength="190" x="1083" y="986.3389">GradeManagementService</text><rect fill="#E2E2F0" height="46.5938" rx="2.5" ry="2.5" style="stroke:#181818;stroke-width:0.5;" width="157" x="1290" y="36"/><text fill="#000000" font-family="FG Virgil" font-size="14" font-style="italic" lengthAdjust="spacing" textLength="100" x="1318.5" y="55.9951">&#171;persistence&#187;</text><text fill="#000000" font-family="FG Virgil" font-size="14" lengthAdjust="spacing" textLength="143" x="1297" y="72.292">PersistenceContext</text><rect fill="#E2E2F0" height="46.5938" rx="2.5" ry="2.5" style="stroke:#181818;stroke-width:0.5;" width="157" x="1290" y="950.0469"/><text fill="#000000" font-family="FG Virgil" font-size="14" font-style="italic" lengthAdjust="spacing" textLength="100" x="1318.5" y="970.042">&#171;persistence&#187;</text><text fill="#000000" font-family="FG Virgil" font-size="14" lengthAdjust="spacing" textLength="143" x="1297" y="986.3389">PersistenceContext</text><rect fill="#E2E2F0" height="46.5938" rx="2.5" ry="2.5" style="stroke:#181818;stroke-width:0.5;" width="147" x="1457" y="36"/><text fill="#000000" font-family="FG Virgil" font-size="14" font-style="italic" lengthAdjust="spacing" textLength="68" x="1496.5" y="55.9951">&#171;factory&#187;</text><text fill="#000000" font-family="FG Virgil" font-size="14" lengthAdjust="spacing" textLength="133" x="1464" y="72.292">RepositoryFactory</text><rect fill="#E2E2F0" height="46.5938" rx="2.5" ry="2.5" style="stroke:#181818;stroke-width:0.5;" width="147" x="1457" y="950.0469"/><text fill="#000000" font-family="FG Virgil" font-size="14" font-style="italic" lengthAdjust="spacing" textLength="68" x="1496.5" y="970.042">&#171;factory&#187;</text><text fill="#000000" font-family="FG Virgil" font-size="14" lengthAdjust="spacing" textLength="133" x="1464" y="986.3389">RepositoryFactory</text><text fill="#000000" font-family="FG Virgil" font-size="14" font-style="italic" lengthAdjust="spacing" textLength="90" x="1633" y="63.9951">&#171;repository&#187;</text><text fill="#000000" font-family="FG Virgil" font-size="14" lengthAdjust="spacing" textLength="128" x="1614" y="80.292">CourseRepository</text><path d="M1663,15 C1663,5 1681,5 1681,5 C1681,5 1699,5 1699,15 L1699,41 C1699,51 1681,51 1681,51 C1681,51 1663,51 1663,41 L1663,15 " fill="#E2E2F0" style="stroke:#181818;stroke-width:1.5;"/><path d="M1663,15 C1663,25 1681,25 1681,25 C1681,25 1699,25 1699,15 " fill="none" style="stroke:#181818;stroke-width:1.5;"/><text fill="#000000" font-family="FG Virgil" font-size="14" font-style="italic" lengthAdjust="spacing" textLength="90" x="1633" y="963.042">&#171;repository&#187;</text><text fill="#000000" font-family="FG Virgil" font-size="14" lengthAdjust="spacing" textLength="128" x="1614" y="979.3389">CourseRepository</text><path d="M1663,992.6406 C1663,982.6406 1681,982.6406 1681,982.6406 C1681,982.6406 1699,982.6406 1699,992.6406 L1699,1018.6406 C1699,1028.6406 1681,1028.6406 1681,1028.6406 C1681,1028.6406 1663,1028.6406 1663,1018.6406 L1663,992.6406 " fill="#E2E2F0" style="stroke:#181818;stroke-width:1.5;"/><path d="M1663,992.6406 C1663,1002.6406 1681,1002.6406 1681,1002.6406 C1681,1002.6406 1699,1002.6406 1699,992.6406 " fill="none" style="stroke:#181818;stroke-width:1.5;"/><text fill="#000000" font-family="FG Virgil" font-size="14" font-style="italic" lengthAdjust="spacing" textLength="90" x="1774" y="63.9951">&#171;repository&#187;</text><text fill="#000000" font-family="FG Virgil" font-size="14" lengthAdjust="spacing" textLength="122" x="1758" y="80.292">GradeRepository</text><path d="M1804,15 C1804,5 1822,5 1822,5 C1822,5 1840,5 1840,15 L1840,41 C1840,51 1822,51 1822,51 C1822,51 1804,51 1804,41 L1804,15 " fill="#E2E2F0" style="stroke:#181818;stroke-width:1.5;"/><path d="M1804,15 C1804,25 1822,25 1822,25 C1822,25 1840,25 1840,15 " fill="none" style="stroke:#181818;stroke-width:1.5;"/><text fill="#000000" font-family="FG Virgil" font-size="14" font-style="italic" lengthAdjust="spacing" textLength="90" x="1774" y="963.042">&#171;repository&#187;</text><text fill="#000000" font-family="FG Virgil" font-size="14" lengthAdjust="spacing" textLength="122" x="1758" y="979.3389">GradeRepository</text><path d="M1804,992.6406 C1804,982.6406 1822,982.6406 1822,982.6406 C1822,982.6406 1840,982.6406 1840,992.6406 L1840,1018.6406 C1840,1028.6406 1822,1028.6406 1822,1028.6406 C1822,1028.6406 1804,1028.6406 1804,1018.6406 L1804,992.6406 " fill="#E2E2F0" style="stroke:#181818;stroke-width:1.5;"/><path d="M1804,992.6406 C1804,1002.6406 1822,1002.6406 1822,1002.6406 C1822,1002.6406 1840,1002.6406 1840,992.6406 " fill="none" style="stroke:#181818;stroke-width:1.5;"/><rect fill="#FFFFFF" height="818.3203" style="stroke:#181818;stroke-width:1.0;" width="10" x="232" y="114.7266"/><rect fill="#FFFFFF" height="30" style="stroke:#181818;stroke-width:1.0;" width="10" x="758.5" y="172.9922"/><rect fill="#FFFFFF" height="30" style="stroke:#181818;stroke-width:1.0;" width="10" x="1363.5" y="290.3906"/><rect fill="#FFFFFF" height="30" style="stroke:#181818;stroke-width:1.0;" width="10" x="1363.5" y="669.9844"/><rect fill="#FFFFFF" height="58.2656" style="stroke:#181818;stroke-width:1.0;" width="10" x="1525.5" y="349.5234"/><rect fill="#FFFFFF" height="58.2656" style="stroke:#181818;stroke-width:1.0;" width="10" x="1525.5" y="729.1172"/><rect fill="#FFFFFF" height="29.1328" style="stroke:#181818;stroke-width:1.0;" width="10" x="1676" y="436.9219"/><rect fill="#FFFFFF" height="29.1328" style="stroke:#181818;stroke-width:1.0;" width="10" x="1817" y="816.5156"/><polygon fill="#181818" points="220,110.7266,230,114.7266,220,118.7266,224,114.7266" style="stroke:#181818;stroke-width:1.0;"/><line style="stroke:#181818;stroke-width:1.0;stroke-dasharray:2.0,2.0;" x1="37" x2="226" y1="114.7266" y2="114.7266"/><text fill="#000000" font-family="FG Virgil" font-size="13" lengthAdjust="spacing" textLength="176" x="44" y="109.6606">ask list of grades by course</text><polygon fill="#181818" points="430.5,139.8594,440.5,143.8594,430.5,147.8594,434.5,143.8594" style="stroke:#181818;stroke-width:1.0;"/><line style="stroke:#181818;stroke-width:1.0;stroke-dasharray:2.0,2.0;" x1="242" x2="436.5" y1="143.8594" y2="143.8594"/><text fill="#000000" font-family="FG Virgil" font-size="13" lengthAdjust="spacing" textLength="41" x="249" y="138.7935">create</text><polygon fill="#181818" points="746.5,168.9922,756.5,172.9922,746.5,176.9922,750.5,172.9922" style="stroke:#181818;stroke-width:1.0;"/><line style="stroke:#181818;stroke-width:1.0;" x1="442.5" x2="752.5" y1="172.9922" y2="172.9922"/><text fill="#000000" font-family="FG Virgil" font-size="13" lengthAdjust="spacing" textLength="297" x="449.5" y="167.9263">ensureAuthenticatedUserHasAnyOf(TEACHER)</text><polygon fill="#181818" points="430.5,228.125,440.5,232.125,430.5,236.125,434.5,232.125" style="stroke:#181818;stroke-width:1.0;"/><line style="stroke:#181818;stroke-width:1.0;" x1="242" x2="436.5" y1="232.125" y2="232.125"/><text fill="#000000" font-family="FG Virgil" font-size="13" lengthAdjust="spacing" textLength="144" x="249" y="227.0591">allCoursesByTeacher()</text><polygon fill="#181818" points="949,257.2578,959,261.2578,949,265.2578,953,261.2578" style="stroke:#181818;stroke-width:1.0;"/><line style="stroke:#181818;stroke-width:1.0;" x1="442.5" x2="955" y1="261.2578" y2="261.2578"/><text fill="#000000" font-family="FG Virgil" font-size="13" lengthAdjust="spacing" textLength="247" x="449.5" y="256.1919">allCoursesBySystemUser(systemUser)</text><polygon fill="#181818" points="1351.5,286.3906,1361.5,290.3906,1351.5,294.3906,1355.5,290.3906" style="stroke:#181818;stroke-width:1.0;"/><line style="stroke:#181818;stroke-width:1.0;" x1="961" x2="1357.5" y1="290.3906" y2="290.3906"/><text fill="#000000" font-family="FG Virgil" font-size="13" lengthAdjust="spacing" textLength="85" x="968" y="285.3247">repositories()</text><polygon fill="#181818" points="1513.5,345.5234,1523.5,349.5234,1513.5,353.5234,1517.5,349.5234" style="stroke:#181818;stroke-width:1.0;"/><line style="stroke:#181818;stroke-width:1.0;" x1="961" x2="1519.5" y1="349.5234" y2="349.5234"/><text fill="#000000" font-family="FG Virgil" font-size="13" lengthAdjust="spacing" textLength="60" x="968" y="344.4575">courses()</text><polygon fill="#181818" points="1669,374.6563,1679,378.6563,1669,382.6563,1673,378.6563" style="stroke:#181818;stroke-width:1.0;"/><line style="stroke:#181818;stroke-width:1.0;" x1="1535.5" x2="1675" y1="378.6563" y2="378.6563"/><text fill="#000000" font-family="FG Virgil" font-size="13" lengthAdjust="spacing" textLength="41" x="1542.5" y="373.5903">create</text><polygon fill="#181818" points="972,403.7891,962,407.7891,972,411.7891,968,407.7891" style="stroke:#181818;stroke-width:1.0;"/><line style="stroke:#181818;stroke-width:1.0;" x1="966" x2="1529.5" y1="407.7891" y2="407.7891"/><text fill="#000000" font-family="FG Virgil" font-size="13" lengthAdjust="spacing" textLength="112" x="978" y="402.7231">courseRepository</text><polygon fill="#181818" points="1664,432.9219,1674,436.9219,1664,440.9219,1668,436.9219" style="stroke:#181818;stroke-width:1.0;"/><line style="stroke:#181818;stroke-width:1.0;" x1="961" x2="1670" y1="436.9219" y2="436.9219"/><text fill="#000000" font-family="FG Virgil" font-size="13" lengthAdjust="spacing" textLength="205" x="968" y="431.856">findBySystemUser(systemUser)</text><polygon fill="#181818" points="972,462.0547,962,466.0547,972,470.0547,968,466.0547" style="stroke:#181818;stroke-width:1.0;"/><line style="stroke:#181818;stroke-width:1.0;stroke-dasharray:2.0,2.0;" x1="966" x2="1680" y1="466.0547" y2="466.0547"/><text fill="#000000" font-family="FG Virgil" font-size="13" lengthAdjust="spacing" textLength="85" x="978" y="460.9888">listOfCourses</text><polygon fill="#181818" points="453.5,491.1875,443.5,495.1875,453.5,499.1875,449.5,495.1875" style="stroke:#181818;stroke-width:1.0;"/><line style="stroke:#181818;stroke-width:1.0;stroke-dasharray:2.0,2.0;" x1="447.5" x2="960" y1="495.1875" y2="495.1875"/><text fill="#000000" font-family="FG Virgil" font-size="13" lengthAdjust="spacing" textLength="85" x="459.5" y="490.1216">listOfCourses</text><polygon fill="#181818" points="253,520.3203,243,524.3203,253,528.3203,249,524.3203" style="stroke:#181818;stroke-width:1.0;"/><line style="stroke:#181818;stroke-width:1.0;stroke-dasharray:2.0,2.0;" x1="247" x2="441.5" y1="524.3203" y2="524.3203"/><text fill="#000000" font-family="FG Virgil" font-size="13" lengthAdjust="spacing" textLength="85" x="259" y="519.2544">listOfCourses</text><polygon fill="#181818" points="48,549.4531,38,553.4531,48,557.4531,44,553.4531" style="stroke:#181818;stroke-width:1.0;"/><line style="stroke:#181818;stroke-width:1.0;stroke-dasharray:2.0,2.0;" x1="42" x2="231" y1="553.4531" y2="553.4531"/><text fill="#000000" font-family="FG Virgil" font-size="13" lengthAdjust="spacing" textLength="93" x="54" y="548.3872">list Of Courses</text><polygon fill="#181818" points="220,578.5859,230,582.5859,220,586.5859,224,582.5859" style="stroke:#181818;stroke-width:1.0;"/><line style="stroke:#181818;stroke-width:1.0;stroke-dasharray:2.0,2.0;" x1="37" x2="226" y1="582.5859" y2="582.5859"/><text fill="#000000" font-family="FG Virgil" font-size="13" lengthAdjust="spacing" textLength="105" x="44" y="577.52">choose a course</text><polygon fill="#181818" points="430.5,607.7188,440.5,611.7188,430.5,615.7188,434.5,611.7188" style="stroke:#181818;stroke-width:1.0;"/><line style="stroke:#181818;stroke-width:1.0;" x1="242" x2="436.5" y1="611.7188" y2="611.7188"/><text fill="#000000" font-family="FG Virgil" font-size="13" lengthAdjust="spacing" textLength="174" x="249" y="606.6528">allGradesByCourse(course)</text><polygon fill="#181818" points="1166,636.8516,1176,640.8516,1166,644.8516,1170,640.8516" style="stroke:#181818;stroke-width:1.0;"/><line style="stroke:#181818;stroke-width:1.0;" x1="442.5" x2="1172" y1="640.8516" y2="640.8516"/><text fill="#000000" font-family="FG Virgil" font-size="13" lengthAdjust="spacing" textLength="207" x="449.5" y="635.7856">allGradesByCourse(courseCode)</text><polygon fill="#181818" points="1351.5,665.9844,1361.5,669.9844,1351.5,673.9844,1355.5,669.9844" style="stroke:#181818;stroke-width:1.0;"/><line style="stroke:#181818;stroke-width:1.0;" x1="1178" x2="1357.5" y1="669.9844" y2="669.9844"/><text fill="#000000" font-family="FG Virgil" font-size="13" lengthAdjust="spacing" textLength="85" x="1185" y="664.9185">repositories()</text><polygon fill="#181818" points="1513.5,725.1172,1523.5,729.1172,1513.5,733.1172,1517.5,729.1172" style="stroke:#181818;stroke-width:1.0;"/><line style="stroke:#181818;stroke-width:1.0;" x1="1178" x2="1519.5" y1="729.1172" y2="729.1172"/><text fill="#000000" font-family="FG Virgil" font-size="13" lengthAdjust="spacing" textLength="54" x="1185" y="724.0513">grades()</text><polygon fill="#181818" points="1810,754.25,1820,758.25,1810,762.25,1814,758.25" style="stroke:#181818;stroke-width:1.0;"/><line style="stroke:#181818;stroke-width:1.0;" x1="1535.5" x2="1816" y1="758.25" y2="758.25"/><text fill="#000000" font-family="FG Virgil" font-size="13" lengthAdjust="spacing" textLength="41" x="1542.5" y="753.1841">create</text><polygon fill="#181818" points="1189,783.3828,1179,787.3828,1189,791.3828,1185,787.3828" style="stroke:#181818;stroke-width:1.0;"/><line style="stroke:#181818;stroke-width:1.0;" x1="1183" x2="1529.5" y1="787.3828" y2="787.3828"/><text fill="#000000" font-family="FG Virgil" font-size="13" lengthAdjust="spacing" textLength="106" x="1195" y="782.3169">gradeRepository</text><polygon fill="#181818" points="1805,812.5156,1815,816.5156,1805,820.5156,1809,816.5156" style="stroke:#181818;stroke-width:1.0;"/><line style="stroke:#181818;stroke-width:1.0;" x1="1178" x2="1811" y1="816.5156" y2="816.5156"/><text fill="#000000" font-family="FG Virgil" font-size="13" lengthAdjust="spacing" textLength="138" x="1185" y="811.4497">findByCourse(course)</text><polygon fill="#181818" points="1189,841.6484,1179,845.6484,1189,849.6484,1185,845.6484" style="stroke:#181818;stroke-width:1.0;"/><line style="stroke:#181818;stroke-width:1.0;stroke-dasharray:2.0,2.0;" x1="1183" x2="1821" y1="845.6484" y2="845.6484"/><text fill="#000000" font-family="FG Virgil" font-size="13" lengthAdjust="spacing" textLength="79" x="1195" y="840.5825">listOfGrades</text><polygon fill="#181818" points="453.5,870.7813,443.5,874.7813,453.5,878.7813,449.5,874.7813" style="stroke:#181818;stroke-width:1.0;"/><line style="stroke:#181818;stroke-width:1.0;stroke-dasharray:2.0,2.0;" x1="447.5" x2="1177" y1="874.7813" y2="874.7813"/><text fill="#000000" font-family="FG Virgil" font-size="13" lengthAdjust="spacing" textLength="79" x="459.5" y="869.7153">listOfGrades</text><polygon fill="#181818" points="253,899.9141,243,903.9141,253,907.9141,249,903.9141" style="stroke:#181818;stroke-width:1.0;"/><line style="stroke:#181818;stroke-width:1.0;stroke-dasharray:2.0,2.0;" x1="247" x2="441.5" y1="903.9141" y2="903.9141"/><text fill="#000000" font-family="FG Virgil" font-size="13" lengthAdjust="spacing" textLength="79" x="259" y="898.8481">listOfGrades</text><polygon fill="#181818" points="48,929.0469,38,933.0469,48,937.0469,44,933.0469" style="stroke:#181818;stroke-width:1.0;"/><line style="stroke:#181818;stroke-width:1.0;stroke-dasharray:2.0,2.0;" x1="42" x2="236" y1="933.0469" y2="933.0469"/><text fill="#000000" font-family="FG Virgil" font-size="13" lengthAdjust="spacing" textLength="87" x="54" y="927.981">list Of Grades</text><!--SRC=[pLLDRzim3BtxL_2O7l870gD06lGZmBOCJRCxQzE9K4Ss92MT- -idMROiAyh7OGFcGn2BVEGZnKVB3yPh5BY77VByKp2bY4E1fQG4f3FMc7tWbjQgAGa4PSetvbJWeLHF5LS_S4_mz0o_cDYoqdUIEyohJyQtNV04C5ELW3V2R4S2KCBS72Gwbr0iOpLo1T-OLCy2SvAhOb4TXAJDqhZgtpIj1KdY2XMh-Ftz6M2FMsXseYfBcyfxIrEiwv9bqJ3pWzfLWdsrnZM98yi8J03KXg_BM9ltEtBTkBtcsSCrEcjDwsDsEK9RG3J0rbXY-760doIaRWJnhAsVVYi3zavD5uUtCFyhrPLa-bAQf_Qo6eFk_wPfOVyPL8uAtr5IL_G0jCqEpj9Kk9SHkYru30wF0gn-xDp0T7glnsAcCHzGweAWAcoR9BmtNSVReMD7LAHT4qZ039813lCmWqoGTj2sn9iIxTDU-Go8ouCWCnZwIapZATz84YyevxnP5PEtn_dYvV7rJXCB7fUxZNHYFZd8AK1O3qDvp1ZBqlPOFZITdYPj_d41mzID8Uj6N__U536HxkzTuWeOS632-ECp0tSRZAHE2h77bU51axYhLxFl7FKTU6bMtLZEkjFhN3f0t2j-sez-s_xnJBknkOfqh7kgGv2hBUavtz2F4z7De60yFtlRbviLHZl3u2JfD1Wx8yn-8yju4A_SnKtz6HKUA2F8btXC1sMqYoDERhFKLhjVh1rM1JYFyUB9TbMbTnZskoQ92jL-pHuQ6sHYVRrbCPQis_FdiOig9q-i3l5_QTNHygLgr_C_Lchm0RbTg3tbZkTVawdVYl3hreiqc8xB_Nc-XLxyDCm_7S-SLOGTksjYlOc5NtrKgbskoqezfJLQ6hs_7oKgv3w2Xzui_m00]--></g></svg>