<?xml version="1.0" encoding="us-ascii" standalone="no"?><svg xmlns="http://www.w3.org/2000/svg" xmlns:xlink="http://www.w3.org/1999/xlink" contentStyleType="text/css" height="472px" preserveAspectRatio="none" style="width:711px;height:472px;background:#FFFFFF;" version="1.1" viewBox="0 0 711 472" width="711px" zoomAndPan="magnify"><defs/><g><!--cluster presentation--><g id="cluster_presentation"><path d="M128,6 L234,6 A3.75,3.75 0 0 1 236.5,8.5 L243.5,28.2969 L501,28.2969 A2.5,2.5 0 0 1 503.5,30.7969 L503.5,143.5 A2.5,2.5 0 0 1 501,146 L128,146 A2.5,2.5 0 0 1 125.5,143.5 L125.5,8.5 A2.5,2.5 0 0 1 128,6 " fill="#DDDDDD" style="stroke:#000000;stroke-width:1.5;"/><line style="stroke:#000000;stroke-width:1.5;" x1="125.5" x2="243.5" y1="28.2969" y2="28.2969"/><text fill="#000000" font-family="sans-serif" font-size="14" font-weight="bold" lengthAdjust="spacing" textLength="105" x="129.5" y="20.9951">presentation</text></g><!--cluster persistence--><g id="cluster_persistence"><path d="M212,350 L307,350 A3.75,3.75 0 0 1 309.5,352.5 L316.5,372.2969 L702,372.2969 A2.5,2.5 0 0 1 704.5,374.7969 L704.5,462.5 A2.5,2.5 0 0 1 702,465 L212,465 A2.5,2.5 0 0 1 209.5,462.5 L209.5,352.5 A2.5,2.5 0 0 1 212,350 " fill="#DBD8AE" style="stroke:#000000;stroke-width:1.5;"/><line style="stroke:#000000;stroke-width:1.5;" x1="209.5" x2="316.5" y1="372.2969" y2="372.2969"/><text fill="#000000" font-family="sans-serif" font-size="14" font-weight="bold" lengthAdjust="spacing" textLength="94" x="213.5" y="364.9951">persistence</text></g><!--cluster application--><g id="cluster_application"><path d="M174,170 L267,170 A3.75,3.75 0 0 1 269.5,172.5 L276.5,192.2969 L455,192.2969 A2.5,2.5 0 0 1 457.5,194.7969 L457.5,323.5 A2.5,2.5 0 0 1 455,326 L174,326 A2.5,2.5 0 0 1 171.5,323.5 L171.5,172.5 A2.5,2.5 0 0 1 174,170 " fill="#EAF4D3" style="stroke:#000000;stroke-width:1.5;"/><line style="stroke:#000000;stroke-width:1.5;" x1="171.5" x2="276.5" y1="192.2969" y2="192.2969"/><text fill="#000000" font-family="sans-serif" font-size="14" font-weight="bold" lengthAdjust="spacing" textLength="92" x="175.5" y="184.9951">application</text></g><!--class ListGradesOfCourseUI--><g id="elem_ListGradesOfCourseUI"><rect codeLine="4" fill="#F1F1F1" height="88.8594" id="ListGradesOfCourseUI" rx="2.5" ry="2.5" style="stroke:#181818;stroke-width:0.5;" width="345" x="142" y="41"/><ellipse cx="232.75" cy="61.1328" fill="#ADD1B2" rx="11" ry="11" style="stroke:#181818;stroke-width:1.0;"/><path d="M235.0938,56.8047 C234.1563,56.3672 233.5625,56.2266 232.6875,56.2266 C230.0625,56.2266 228.0625,58.3047 228.0625,61.0234 L228.0625,62.1484 C228.0625,64.7266 230.1719,66.6172 233.0625,66.6172 C234.2813,66.6172 235.4375,66.3203 236.1875,65.7734 C236.7656,65.3672 237.0938,64.9141 237.0938,64.5234 C237.0938,64.0703 236.7031,63.6797 236.2344,63.6797 C236.0156,63.6797 235.8125,63.7578 235.625,63.9453 C235.1719,64.4297 235.1719,64.4297 234.9844,64.5234 C234.5625,64.7891 233.875,64.9141 233.1094,64.9141 C231.0625,64.9141 229.7656,63.8203 229.7656,62.1172 L229.7656,61.0234 C229.7656,59.2422 231.0156,57.9297 232.75,57.9297 C233.3281,57.9297 233.9375,58.0859 234.4063,58.3359 C234.8906,58.6172 235.0625,58.8359 235.1563,59.2422 C235.2188,59.6484 235.25,59.7734 235.3906,59.8984 C235.5313,60.0391 235.7656,60.1484 235.9844,60.1484 C236.25,60.1484 236.5156,60.0078 236.6875,59.7891 C236.7969,59.6328 236.8281,59.4453 236.8281,59.0234 L236.8281,57.6016 C236.8281,57.1641 236.8125,57.0391 236.7188,56.8828 C236.5625,56.6172 236.2813,56.4766 235.9844,56.4766 C235.6875,56.4766 235.4844,56.5703 235.2656,56.8828 L235.0938,56.8047 Z " fill="#000000"/><text fill="#000000" font-family="sans-serif" font-size="12" font-style="italic" lengthAdjust="spacing" textLength="25" x="318.25" y="57.1387">&#171;ui&#187;</text><text fill="#000000" font-family="sans-serif" font-size="14" lengthAdjust="spacing" textLength="155" x="253.25" y="72.9639">ListGradesOfCourseUI</text><line style="stroke:#181818;stroke-width:0.5;" x1="143" x2="486" y1="81.2656" y2="81.2656"/><rect fill="none" height="6" style="stroke:#C82930;stroke-width:1.0;" width="6" x="150" y="91.9141"/><text fill="#000000" font-family="sans-serif" font-size="14" lengthAdjust="spacing" textLength="319" x="162" y="98.2607">theController : ListGradeOfCourseController</text><line style="stroke:#181818;stroke-width:0.5;" x1="143" x2="486" y1="105.5625" y2="105.5625"/><ellipse cx="153" cy="119.2109" fill="#84BE84" rx="3" ry="3" style="stroke:#038048;stroke-width:1.0;"/><text fill="#000000" font-family="sans-serif" font-size="14" lengthAdjust="spacing" textLength="66" x="162" y="122.5576">doShow()</text></g><!--class CourseRepository--><g id="elem_CourseRepository"><rect codeLine="13" fill="#F1F1F1" height="64.2969" id="CourseRepository" rx="2.5" ry="2.5" style="stroke:#181818;stroke-width:0.5;" width="250" x="438.5" y="385"/><ellipse cx="496.25" cy="401" fill="#B4A7E5" rx="11" ry="11" style="stroke:#181818;stroke-width:1.0;"/><path d="M497.2031,397.7813 L498.9219,397.7813 C499.3125,397.7813 499.5,397.75 499.625,397.6719 C499.8906,397.5156 500.0313,397.2344 500.0313,396.9375 C500.0313,396.6719 499.9219,396.4063 499.6875,396.2344 C499.5156,396.125 499.375,396.0938 498.9219,396.0938 L493.7813,396.0938 C493.3438,396.0938 493.2188,396.1094 493.0625,396.2031 C492.8125,396.3594 492.6563,396.6563 492.6563,396.9375 C492.6563,397.2188 492.7969,397.4688 493.0156,397.6406 C493.1719,397.75 493.3594,397.7813 493.7813,397.7813 L495.5,397.7813 L495.5,404.2969 L493.7813,404.2969 C493.3438,404.2969 493.2188,404.3125 493.0625,404.4219 C492.8125,404.5781 492.6563,404.8594 492.6563,405.1563 C492.6563,405.4063 492.7969,405.6719 493.0156,405.8281 C493.1719,405.9531 493.375,406 493.7813,406 L498.9219,406 C499.6719,406 500.0313,405.7188 500.0313,405.1563 C500.0313,404.875 499.9219,404.625 499.6875,404.4531 C499.5156,404.3281 499.375,404.2969 498.9219,404.2969 L497.2031,404.2969 L497.2031,397.7813 Z " fill="#000000"/><text fill="#000000" font-family="sans-serif" font-size="14" font-style="italic" lengthAdjust="spacing" textLength="126" x="516.75" y="405.8467">CourseRepository</text><line style="stroke:#181818;stroke-width:0.5;" x1="439.5" x2="687.5" y1="417" y2="417"/><line style="stroke:#181818;stroke-width:0.5;" x1="439.5" x2="687.5" y1="425" y2="425"/><ellipse cx="449.5" cy="438.6484" fill="#84BE84" rx="3" ry="3" style="stroke:#038048;stroke-width:1.0;"/><text fill="#000000" font-family="sans-serif" font-size="14" lengthAdjust="spacing" textLength="224" x="458.5" y="441.9951">findBySystemUser(systemUser)</text></g><!--class GradeRepository--><g id="elem_GradeRepository"><rect codeLine="16" fill="#F1F1F1" height="64.2969" id="GradeRepository" rx="2.5" ry="2.5" style="stroke:#181818;stroke-width:0.5;" width="178" x="225.5" y="385"/><ellipse cx="252.2" cy="401" fill="#B4A7E5" rx="11" ry="11" style="stroke:#181818;stroke-width:1.0;"/><path d="M253.1531,397.7813 L254.8719,397.7813 C255.2625,397.7813 255.45,397.75 255.575,397.6719 C255.8406,397.5156 255.9813,397.2344 255.9813,396.9375 C255.9813,396.6719 255.8719,396.4063 255.6375,396.2344 C255.4656,396.125 255.325,396.0938 254.8719,396.0938 L249.7313,396.0938 C249.2938,396.0938 249.1688,396.1094 249.0125,396.2031 C248.7625,396.3594 248.6063,396.6563 248.6063,396.9375 C248.6063,397.2188 248.7469,397.4688 248.9656,397.6406 C249.1219,397.75 249.3094,397.7813 249.7313,397.7813 L251.45,397.7813 L251.45,404.2969 L249.7313,404.2969 C249.2938,404.2969 249.1688,404.3125 249.0125,404.4219 C248.7625,404.5781 248.6063,404.8594 248.6063,405.1563 C248.6063,405.4063 248.7469,405.6719 248.9656,405.8281 C249.1219,405.9531 249.325,406 249.7313,406 L254.8719,406 C255.6219,406 255.9813,405.7188 255.9813,405.1563 C255.9813,404.875 255.8719,404.625 255.6375,404.4531 C255.4656,404.3281 255.325,404.2969 254.8719,404.2969 L253.1531,404.2969 L253.1531,397.7813 Z " fill="#000000"/><text fill="#000000" font-family="sans-serif" font-size="14" font-style="italic" lengthAdjust="spacing" textLength="120" x="268.8" y="405.8467">GradeRepository</text><line style="stroke:#181818;stroke-width:0.5;" x1="226.5" x2="402.5" y1="417" y2="417"/><line style="stroke:#181818;stroke-width:0.5;" x1="226.5" x2="402.5" y1="425" y2="425"/><ellipse cx="236.5" cy="438.6484" fill="#84BE84" rx="3" ry="3" style="stroke:#038048;stroke-width:1.0;"/><text fill="#000000" font-family="sans-serif" font-size="14" lengthAdjust="spacing" textLength="152" x="245.5" y="441.9951">findByCourse(course)</text></g><!--class ListGradeOfCourseController--><g id="elem_ListGradeOfCourseController"><rect codeLine="22" fill="#F1F1F1" height="105.1563" id="ListGradeOfCourseController" rx="2.5" ry="2.5" style="stroke:#181818;stroke-width:0.5;" width="253" x="188" y="205"/><ellipse cx="208.85" cy="225.1328" fill="#ADD1B2" rx="11" ry="11" style="stroke:#181818;stroke-width:1.0;"/><path d="M211.1938,220.8047 C210.2563,220.3672 209.6625,220.2266 208.7875,220.2266 C206.1625,220.2266 204.1625,222.3047 204.1625,225.0234 L204.1625,226.1484 C204.1625,228.7266 206.2719,230.6172 209.1625,230.6172 C210.3813,230.6172 211.5375,230.3203 212.2875,229.7734 C212.8656,229.3672 213.1938,228.9141 213.1938,228.5234 C213.1938,228.0703 212.8031,227.6797 212.3344,227.6797 C212.1156,227.6797 211.9125,227.7578 211.725,227.9453 C211.2719,228.4297 211.2719,228.4297 211.0844,228.5234 C210.6625,228.7891 209.975,228.9141 209.2094,228.9141 C207.1625,228.9141 205.8656,227.8203 205.8656,226.1172 L205.8656,225.0234 C205.8656,223.2422 207.1156,221.9297 208.85,221.9297 C209.4281,221.9297 210.0375,222.0859 210.5063,222.3359 C210.9906,222.6172 211.1625,222.8359 211.2563,223.2422 C211.3188,223.6484 211.35,223.7734 211.4906,223.8984 C211.6313,224.0391 211.8656,224.1484 212.0844,224.1484 C212.35,224.1484 212.6156,224.0078 212.7875,223.7891 C212.8969,223.6328 212.9281,223.4453 212.9281,223.0234 L212.9281,221.6016 C212.9281,221.1641 212.9125,221.0391 212.8188,220.8828 C212.6625,220.6172 212.3813,220.4766 212.0844,220.4766 C211.7875,220.4766 211.5844,220.5703 211.3656,220.8828 L211.1938,220.8047 Z " fill="#000000"/><text fill="#000000" font-family="sans-serif" font-size="12" font-style="italic" lengthAdjust="spacing" textLength="71" x="292.65" y="221.1387">&#171;controller&#187;</text><text fill="#000000" font-family="sans-serif" font-size="14" lengthAdjust="spacing" textLength="208" x="224.15" y="236.9639">ListGradeOfCourseController</text><line style="stroke:#181818;stroke-width:0.5;" x1="189" x2="440" y1="245.2656" y2="245.2656"/><rect fill="none" height="6" style="stroke:#C82930;stroke-width:1.0;" width="6" x="196" y="255.9141"/><text fill="#000000" font-family="sans-serif" font-size="14" lengthAdjust="spacing" textLength="204" x="208" y="262.2607">authz : AuthorizationService</text><line style="stroke:#181818;stroke-width:0.5;" x1="189" x2="440" y1="269.5625" y2="269.5625"/><ellipse cx="199" cy="283.2109" fill="#84BE84" rx="3" ry="3" style="stroke:#038048;stroke-width:1.0;"/><text fill="#000000" font-family="sans-serif" font-size="14" lengthAdjust="spacing" textLength="158" x="208" y="286.5576">allCoursesByTeacher()</text><ellipse cx="199" cy="299.5078" fill="#84BE84" rx="3" ry="3" style="stroke:#038048;stroke-width:1.0;"/><text fill="#000000" font-family="sans-serif" font-size="14" lengthAdjust="spacing" textLength="227" x="208" y="302.8545">allGradesByCourse(courseCode)</text></g><!--class AuthorizationService--><g id="elem_AuthorizationService"><rect fill="#F1F1F1" height="48" id="AuthorizationService" rx="2.5" ry="2.5" style="stroke:#181818;stroke-width:0.5;" width="183" x="7" y="393"/><ellipse cx="22" cy="409" fill="#ADD1B2" rx="11" ry="11" style="stroke:#181818;stroke-width:1.0;"/><path d="M24.3438,404.6719 C23.4063,404.2344 22.8125,404.0938 21.9375,404.0938 C19.3125,404.0938 17.3125,406.1719 17.3125,408.8906 L17.3125,410.0156 C17.3125,412.5938 19.4219,414.4844 22.3125,414.4844 C23.5313,414.4844 24.6875,414.1875 25.4375,413.6406 C26.0156,413.2344 26.3438,412.7813 26.3438,412.3906 C26.3438,411.9375 25.9531,411.5469 25.4844,411.5469 C25.2656,411.5469 25.0625,411.625 24.875,411.8125 C24.4219,412.2969 24.4219,412.2969 24.2344,412.3906 C23.8125,412.6563 23.125,412.7813 22.3594,412.7813 C20.3125,412.7813 19.0156,411.6875 19.0156,409.9844 L19.0156,408.8906 C19.0156,407.1094 20.2656,405.7969 22,405.7969 C22.5781,405.7969 23.1875,405.9531 23.6563,406.2031 C24.1406,406.4844 24.3125,406.7031 24.4063,407.1094 C24.4688,407.5156 24.5,407.6406 24.6406,407.7656 C24.7813,407.9063 25.0156,408.0156 25.2344,408.0156 C25.5,408.0156 25.7656,407.875 25.9375,407.6563 C26.0469,407.5 26.0781,407.3125 26.0781,406.8906 L26.0781,405.4688 C26.0781,405.0313 26.0625,404.9063 25.9688,404.75 C25.8125,404.4844 25.5313,404.3438 25.2344,404.3438 C24.9375,404.3438 24.7344,404.4375 24.5156,404.75 L24.3438,404.6719 Z " fill="#000000"/><text fill="#000000" font-family="sans-serif" font-size="14" lengthAdjust="spacing" textLength="151" x="36" y="413.8467">AuthorizationService</text><line style="stroke:#181818;stroke-width:0.5;" x1="8" x2="189" y1="425" y2="425"/><line style="stroke:#181818;stroke-width:0.5;" x1="8" x2="189" y1="433" y2="433"/></g><!--link ListGradeOfCourseController to AuthorizationService--><g id="link_ListGradeOfCourseController_AuthorizationService"><path codeLine="34" d="M243.774,310.071 C207.186,336.75 164.092,368.172 134.393,389.8281 " fill="none" id="ListGradeOfCourseController-to-AuthorizationService" style="stroke:#181818;stroke-width:1.0;stroke-dasharray:7.0,7.0;"/><polygon fill="#181818" points="130.111,392.9506,139.7398,390.8803,134.1511,390.0048,135.0265,384.4161,130.111,392.9506" style="stroke:#181818;stroke-width:1.0;"/></g><!--link ListGradesOfCourseUI to ListGradeOfCourseController--><g id="link_ListGradesOfCourseUI_ListGradeOfCourseController"><path codeLine="35" d="M314.5,130.279 C314.5,151.407 314.5,177.017 314.5,199.633 " fill="none" id="ListGradesOfCourseUI-to-ListGradeOfCourseController" style="stroke:#181818;stroke-width:1.0;stroke-dasharray:7.0,7.0;"/><polygon fill="#181818" points="314.5,204.71,318.5,195.71,314.5,199.71,310.5,195.71,314.5,204.71" style="stroke:#181818;stroke-width:1.0;"/></g><!--link ListGradeOfCourseController to GradeRepository--><g id="link_ListGradeOfCourseController_GradeRepository"><path codeLine="38" d="M314.5,310.071 C314.5,332.733 314.5,358.816 314.5,379.43 " fill="none" id="ListGradeOfCourseController-to-GradeRepository" style="stroke:#181818;stroke-width:1.0;stroke-dasharray:7.0,7.0;"/><polygon fill="#181818" points="314.5,384.5474,318.5,375.5474,314.5,379.5474,310.5,375.5474,314.5,384.5474" style="stroke:#181818;stroke-width:1.0;"/></g><!--link ListGradeOfCourseController to CourseRepository--><g id="link_ListGradeOfCourseController_CourseRepository"><path codeLine="39" d="M396.032,310.071 C433.36,333.683 476.562,361.009 509.737,381.993 " fill="none" id="ListGradeOfCourseController-to-CourseRepository" style="stroke:#181818;stroke-width:1.0;stroke-dasharray:7.0,7.0;"/><polygon fill="#181818" points="514.143,384.7801,508.6748,376.5887,509.9173,382.1074,504.3985,383.3498,514.143,384.7801" style="stroke:#181818;stroke-width:1.0;"/></g><!--SRC=[XLB1QiCm3BtdAqntM4DfSzWEevJ2si4O30RB-W6QhJHcZcriPoCT_VUvzjhGD3Gws3AMdfwUT5iwf-qyoxG0wUfApAYgCYh0sYdZi3LG9Oa6-WLR92DjqA9quBYI8tBp5Emt8Tv22ddbrZqRO6ZVYhMgZSND2raiQhvSnh0fSIMkbNH62O66pDkKOqRx6p8cXAcyL3_ZD3ptoJxnTd1RMcYiHq59qRDYd-m1C9Ox69SEJG4KISH_HwqiTyeqRKoq2IcuPAicRpnOjR5enlRafftWVK-1qCSmVkGnfk6wnFtlyzGUQ2quFOgEKDopkrxHBnNqsjFJupY3E0UeNRdp-Z_wMnc-2_WvcczECMaPWn0HrAwQ3mHQUb7Iy_yuy4vRQyNQriB8md6Dwsowx6VJkrM7w6kxCrohCwt1-Exw_040]--></g></svg>