<?xml version="1.0" encoding="us-ascii" standalone="no"?>
<svg xmlns="http://www.w3.org/2000/svg" xmlns:xlink="http://www.w3.org/1999/xlink" contentStyleType="text/css"
     height="415px" preserveAspectRatio="none" style="width:518px;height:415px;background:#FFFFFF;" version="1.1"
     viewBox="0 0 518 415" width="518px" zoomAndPan="magnify">
    <defs/>
    <g>
        <line style="stroke:#181818;stroke-width:0.5;stroke-dasharray:5.0,5.0;" x1="37" x2="37" y1="81.2969"
              y2="334.3594"/>
        <line style="stroke:#181818;stroke-width:0.5;stroke-dasharray:5.0,5.0;" x1="414.5" x2="414.5" y1="81.2969"
              y2="334.3594"/>
        <text fill="#000000" font-family="FG Virgil" font-size="14" lengthAdjust="spacing" textLength="58" x="5"
              y="77.9951">Student
        </text>
        <ellipse cx="37" cy="13.5" fill="#E2E2F0" rx="8" ry="8" style="stroke:#181818;stroke-width:0.5;"/>
        <path d="M37,21.5 L37,48.5 M24,29.5 L50,29.5 M37,48.5 L24,63.5 M37,48.5 L50,63.5 " fill="none"
              style="stroke:#181818;stroke-width:0.5;"/>
        <text fill="#000000" font-family="FG Virgil" font-size="14" lengthAdjust="spacing" textLength="58" x="5"
              y="346.3545">Student
        </text>
        <ellipse cx="37" cy="358.1563" fill="#E2E2F0" rx="8" ry="8" style="stroke:#181818;stroke-width:0.5;"/>
        <path d="M37,366.1563 L37,393.1563 M24,374.1563 L50,374.1563 M37,393.1563 L24,408.1563 M37,393.1563 L50,408.1563 "
              fill="none" style="stroke:#181818;stroke-width:0.5;"/>
        <rect fill="#E2E2F0" height="46.5938" rx="2.5" ry="2.5" style="stroke:#181818;stroke-width:0.5;" width="195"
              x="317.5" y="33.7031"/>
        <text fill="#000000" font-family="FG Virgil" font-size="14" font-style="italic" lengthAdjust="spacing"
              textLength="108" x="361" y="53.6982">&#171;presentation&#187;
        </text>
        <text fill="#000000" font-family="FG Virgil" font-size="14" lengthAdjust="spacing" textLength="181" x="324.5"
              y="69.9951">TakeAnAutomaticExamUI
        </text>
        <rect fill="#E2E2F0" height="46.5938" rx="2.5" ry="2.5" style="stroke:#181818;stroke-width:0.5;" width="195"
              x="317.5" y="333.3594"/>
        <text fill="#000000" font-family="FG Virgil" font-size="14" font-style="italic" lengthAdjust="spacing"
              textLength="108" x="361" y="353.3545">&#171;presentation&#187;
        </text>
        <text fill="#000000" font-family="FG Virgil" font-size="14" lengthAdjust="spacing" textLength="181" x="324.5"
              y="369.6514">TakeAnAutomaticExamUI
        </text>
        <polygon fill="#181818" points="403,108.4297,413,112.4297,403,116.4297,407,112.4297"
                 style="stroke:#181818;stroke-width:1.0;"/>
        <line style="stroke:#181818;stroke-width:1.0;stroke-dasharray:2.0,2.0;" x1="37" x2="409" y1="112.4297"
              y2="112.4297"/>
        <text fill="#000000" font-family="FG Virgil" font-size="13" lengthAdjust="spacing" textLength="229" x="44"
              y="107.3638">take An Automatic Formative Exam
        </text>
        <polygon fill="#181818" points="48,137.5625,38,141.5625,48,145.5625,44,141.5625"
                 style="stroke:#181818;stroke-width:1.0;"/>
        <line style="stroke:#181818;stroke-width:1.0;stroke-dasharray:2.0,2.0;" x1="42" x2="414" y1="141.5625"
              y2="141.5625"/>
        <text fill="#000000" font-family="FG Virgil" font-size="13" lengthAdjust="spacing" textLength="93" x="54"
              y="136.4966">List of courses
        </text>
        <polygon fill="#181818" points="403,166.6953,413,170.6953,403,174.6953,407,170.6953"
                 style="stroke:#181818;stroke-width:1.0;"/>
        <line style="stroke:#181818;stroke-width:1.0;stroke-dasharray:2.0,2.0;" x1="37" x2="409" y1="170.6953"
              y2="170.6953"/>
        <text fill="#000000" font-family="FG Virgil" font-size="13" lengthAdjust="spacing" textLength="105" x="44"
              y="165.6294">choose a course
        </text>
        <polygon fill="#181818" points="48,195.8281,38,199.8281,48,203.8281,44,199.8281"
                 style="stroke:#181818;stroke-width:1.0;"/>
        <line style="stroke:#181818;stroke-width:1.0;stroke-dasharray:2.0,2.0;" x1="42" x2="414" y1="199.8281"
              y2="199.8281"/>
        <text fill="#000000" font-family="FG Virgil" font-size="13" lengthAdjust="spacing" textLength="223" x="54"
              y="194.7622">List of automatic formative exams
        </text>
        <polygon fill="#181818" points="403,224.9609,413,228.9609,403,232.9609,407,228.9609"
                 style="stroke:#181818;stroke-width:1.0;"/>
        <line style="stroke:#181818;stroke-width:1.0;stroke-dasharray:2.0,2.0;" x1="37" x2="409" y1="228.9609"
              y2="228.9609"/>
        <text fill="#000000" font-family="FG Virgil" font-size="13" lengthAdjust="spacing" textLength="311" x="44"
              y="223.895">choose an automatic formative exam to answer
        </text>
        <polygon fill="#181818" points="48,254.0938,38,258.0938,48,262.0938,44,258.0938"
                 style="stroke:#181818;stroke-width:1.0;"/>
        <line style="stroke:#181818;stroke-width:1.0;stroke-dasharray:2.0,2.0;" x1="42" x2="414" y1="258.0938"
              y2="258.0938"/>
        <text fill="#000000" font-family="FG Virgil" font-size="13" lengthAdjust="spacing" textLength="178" x="54"
              y="253.0278">ask path to the answers file
        </text>
        <polygon fill="#181818" points="403,283.2266,413,287.2266,403,291.2266,407,287.2266"
                 style="stroke:#181818;stroke-width:1.0;"/>
        <line style="stroke:#181818;stroke-width:1.0;stroke-dasharray:2.0,2.0;" x1="37" x2="409" y1="287.2266"
              y2="287.2266"/>
        <text fill="#000000" font-family="FG Virgil" font-size="13" lengthAdjust="spacing" textLength="354" x="44"
              y="282.1606">insert the path to the file where the answers are saved
        </text>
        <polygon fill="#181818" points="48,312.3594,38,316.3594,48,320.3594,44,316.3594"
                 style="stroke:#181818;stroke-width:1.0;"/>
        <line style="stroke:#181818;stroke-width:1.0;stroke-dasharray:2.0,2.0;" x1="42" x2="414" y1="316.3594"
              y2="316.3594"/>
        <text fill="#000000" font-family="FG Virgil" font-size="13" lengthAdjust="spacing" textLength="183" x="54"
              y="311.2935">Display Grade and Feedback
        </text><!--SRC=[TP91ReD034NtEOKla0j4KIIabgXIrKtIxbt6m0YOGRO9pUthIGWbQi82CVRxxqiZfF6XHyOEQWnkPAzA0KfiXLOWyxB7ei6A3dfk2PWANIuTbJYqciUW7zWHv7luybpvTWb9ZIwEFbIJV0LOQ6GuwE0eAA10bWOhwsBrXU_HfaTiA0lPeB536xx-OFVvbbXxRxSzarZMDZ7iTgPCpyK2w_NEc0se2I0BC2iWZvm-JWJ9TicOBF7Nv0RUlIZ44eeui91SjV_CHHsZ4E24tQWdBfpxoxcVh7-sFvQ7fq7GQ6iPYV-QBNthHMdi8hLEcDOqeGAbR-bnfGz2h1Tu6Km166jYklEWdGLFvERRkQj_yTAtU8OzeqiX1pcH-xQ_w1S0]-->
    </g>
</svg>