<?xml version="1.0" encoding="UTF-8" standalone="no"?><svg xmlns="http://www.w3.org/2000/svg" xmlns:xlink="http://www.w3.org/1999/xlink" contentStyleType="text/css" height="355px" preserveAspectRatio="none" style="width:670px;height:355px;background:#FFFFFF;" version="1.1" viewBox="0 0 670 355" width="670px" zoomAndPan="magnify"><defs/><g><rect fill="#FFFFFF" height="130.4063" style="stroke:#181818;stroke-width:1.0;" width="10" x="286.5" y="118.5703"/><rect fill="#FFFFFF" height="30.3516" style="stroke:#181818;stroke-width:1.0;" width="10" x="608.5" y="179.2734"/><line style="stroke:#181818;stroke-width:0.5;stroke-dasharray:5.0,5.0;" x1="98" x2="98" y1="86.2188" y2="257.9766"/><line style="stroke:#181818;stroke-width:0.5;stroke-dasharray:5.0,5.0;" x1="291" x2="291" y1="86.2188" y2="257.9766"/><line style="stroke:#181818;stroke-width:0.5;stroke-dasharray:5.0,5.0;" x1="613.5" x2="613.5" y1="86.2188" y2="257.9766"/><rect fill="#E2E2F0" height="49.2188" rx="2.5" ry="2.5" style="stroke:#181818;stroke-width:0.5;" width="186" x="5" y="36"/><text fill="#000000" font-family="FG Virgil" font-size="14" font-style="italic" lengthAdjust="spacing" textLength="84" x="56" y="57.5332">«application»</text><text fill="#000000" font-family="FG Virgil" font-size="14" lengthAdjust="spacing" textLength="172" x="12" y="75.1426">ViewBoardHistoryController</text><rect fill="#E2E2F0" height="49.2188" rx="2.5" ry="2.5" style="stroke:#181818;stroke-width:0.5;" width="186" x="5" y="256.9766"/><text fill="#000000" font-family="FG Virgil" font-size="14" font-style="italic" lengthAdjust="spacing" textLength="84" x="56" y="278.5098">«application»</text><text fill="#000000" font-family="FG Virgil" font-size="14" lengthAdjust="spacing" textLength="172" x="12" y="296.1191">ViewBoardHistoryController</text><rect fill="#E2E2F0" height="49.2188" rx="2.5" ry="2.5" style="stroke:#181818;stroke-width:0.5;" width="181" x="201" y="36"/><text fill="#000000" font-family="FG Virgil" font-size="14" font-style="italic" lengthAdjust="spacing" textLength="84" x="249.5" y="57.5332">«application»</text><text fill="#000000" font-family="FG Virgil" font-size="14" lengthAdjust="spacing" textLength="167" x="208" y="75.1426">BoardManagementService</text><rect fill="#E2E2F0" height="49.2188" rx="2.5" ry="2.5" style="stroke:#181818;stroke-width:0.5;" width="181" x="201" y="256.9766"/><text fill="#000000" font-family="FG Virgil" font-size="14" font-style="italic" lengthAdjust="spacing" textLength="84" x="249.5" y="278.5098">«application»</text><text fill="#000000" font-family="FG Virgil" font-size="14" lengthAdjust="spacing" textLength="167" x="208" y="296.1191">BoardManagementService</text><text fill="#000000" font-family="FG Virgil" font-size="14" font-style="italic" lengthAdjust="spacing" textLength="79" x="571" y="65.5332">«repository»</text><text fill="#000000" font-family="FG Virgil" font-size="14" lengthAdjust="spacing" textLength="106" x="557.5" y="83.1426">BoardRepository</text><path d="M595.5,15 C595.5,5 613.5,5 613.5,5 C613.5,5 631.5,5 631.5,15 L631.5,41 C631.5,51 613.5,51 613.5,51 C613.5,51 595.5,51 595.5,41 L595.5,15 " fill="#E2E2F0" style="stroke:#181818;stroke-width:1.5;"/><path d="M595.5,15 C595.5,25 613.5,25 613.5,25 C613.5,25 631.5,25 631.5,15 " fill="none" style="stroke:#181818;stroke-width:1.5;"/><text fill="#000000" font-family="FG Virgil" font-size="14" font-style="italic" lengthAdjust="spacing" textLength="79" x="571" y="271.5098">«repository»</text><text fill="#000000" font-family="FG Virgil" font-size="14" lengthAdjust="spacing" textLength="106" x="557.5" y="289.1191">BoardRepository</text><path d="M595.5,302.1953 C595.5,292.1953 613.5,292.1953 613.5,292.1953 C613.5,292.1953 631.5,292.1953 631.5,302.1953 L631.5,328.1953 C631.5,338.1953 613.5,338.1953 613.5,338.1953 C613.5,338.1953 595.5,338.1953 595.5,328.1953 L595.5,302.1953 " fill="#E2E2F0" style="stroke:#181818;stroke-width:1.5;"/><path d="M595.5,302.1953 C595.5,312.1953 613.5,312.1953 613.5,312.1953 C613.5,312.1953 631.5,312.1953 631.5,302.1953 " fill="none" style="stroke:#181818;stroke-width:1.5;"/><rect fill="#FFFFFF" height="130.4063" style="stroke:#181818;stroke-width:1.0;" width="10" x="286.5" y="118.5703"/><rect fill="#FFFFFF" height="30.3516" style="stroke:#181818;stroke-width:1.0;" width="10" x="608.5" y="179.2734"/><polygon fill="#181818" points="274.5,114.5703,284.5,118.5703,274.5,122.5703,278.5,118.5703" style="stroke:#181818;stroke-width:1.0;"/><line style="stroke:#181818;stroke-width:1.0;" x1="98" x2="280.5" y1="118.5703" y2="118.5703"/><text fill="#000000" font-family="FG Virgil" font-size="13" lengthAdjust="spacing" textLength="44" x="105" y="113.7139">create()</text><polygon fill="#181818" points="274.5,144.9219,284.5,148.9219,274.5,152.9219,278.5,148.9219" style="stroke:#181818;stroke-width:1.0;"/><line style="stroke:#181818;stroke-width:1.0;" x1="98" x2="280.5" y1="148.9219" y2="148.9219"/><text fill="#000000" font-family="FG Virgil" font-size="13" lengthAdjust="spacing" textLength="90" x="105" y="144.0654">boardsByUser()</text><polygon fill="#181818" points="596.5,175.2734,606.5,179.2734,596.5,183.2734,600.5,179.2734" style="stroke:#181818;stroke-width:1.0;"/><line style="stroke:#181818;stroke-width:1.0;" x1="296.5" x2="602.5" y1="179.2734" y2="179.2734"/><text fill="#000000" font-family="FG Virgil" font-size="13" lengthAdjust="spacing" textLength="293" x="303.5" y="174.417">boards = findBySystemUserWithReadPermission()</text><polygon fill="#181818" points="307.5,205.625,297.5,209.625,307.5,213.625,303.5,209.625" style="stroke:#181818;stroke-width:1.0;"/><line style="stroke:#181818;stroke-width:1.0;stroke-dasharray:2.0,2.0;" x1="301.5" x2="612.5" y1="209.625" y2="209.625"/><text fill="#000000" font-family="FG Virgil" font-size="13" lengthAdjust="spacing" textLength="39" x="313.5" y="204.7686">boards</text><polygon fill="#181818" points="109,235.9766,99,239.9766,109,243.9766,105,239.9766" style="stroke:#181818;stroke-width:1.0;"/><line style="stroke:#181818;stroke-width:1.0;stroke-dasharray:2.0,2.0;" x1="103" x2="285.5" y1="239.9766" y2="239.9766"/><text fill="#000000" font-family="FG Virgil" font-size="13" lengthAdjust="spacing" textLength="39" x="115" y="235.1201">boards</text><!--MD5=[4638b767203ef8454cb06253c7a0a96c]
@startuml
'http://plantuml.com/skinparam.html
skinparam handwritten false
skinparam packageStyle rect
skinparam defaultFontName FG Virgil
skinparam shadowing false


participant ViewBoardHistoryController as Controller <<application>>
participant BoardManagementService as boardSvc <<application>>
database BoardRepository as Repository <<repository>>

Controller -> boardSvc : create()
activate boardSvc
Controller -> boardSvc : boardsByUser()
boardSvc -> Repository: boards = findBySystemUserWithReadPermission()
activate Repository

Repository - -> boardSvc : boards
deactivate Repository
boardSvc - -> Controller : boards
deactivate Controller

@enduml

@startuml
skinparam handwritten false
skinparam packageStyle rect
skinparam defaultFontName FG Virgil
skinparam shadowing false


participant ViewBoardHistoryController as Controller <<application>>
participant BoardManagementService as boardSvc <<application>>
database BoardRepository as Repository <<repository>>

Controller -> boardSvc : create()
activate boardSvc
Controller -> boardSvc : boardsByUser()
boardSvc -> Repository: boards = findBySystemUserWithReadPermission()
activate Repository

Repository - -> boardSvc : boards
deactivate Repository
boardSvc - -> Controller : boards
deactivate Controller

@enduml

PlantUML version 1.2022.12(Sun Oct 23 19:12:26 BST 2022)
(GPL source distribution)
Java Runtime: OpenJDK Runtime Environment
JVM: OpenJDK 64-Bit Server VM
Default Encoding: Cp1252
Language: pt
Country: PT
--></g></svg>