<?xml version="1.0" encoding="UTF-8" standalone="no"?><svg xmlns="http://www.w3.org/2000/svg" xmlns:xlink="http://www.w3.org/1999/xlink" contentStyleType="text/css" height="485.4px" preserveAspectRatio="none" style="width:713px;height:485px;background:#FFFFFF;" version="1.1" viewBox="0 0 713 485" width="713.4px" zoomAndPan="magnify"><defs/><g><rect fill="#FFFFFF" height="345.2531" style="stroke:#181818;stroke-width:0.6;" width="6" x="159.3" y="71.1422"/><rect fill="#FFFFFF" height="308.8313" style="stroke:#181818;stroke-width:0.6;" width="6" x="305.7" y="107.5641"/><rect fill="#FFFFFF" height="270.0094" style="stroke:#181818;stroke-width:0.6;" width="6" x="501.3" y="151.7859"/><rect fill="#FFFFFF" height="18.2109" style="stroke:#181818;stroke-width:0.6;" width="6" x="591" y="343.5516"/><rect fill="#FFFFFF" height="46.0781" style="stroke:#181818;stroke-width:0.6;" width="6" x="676.5" y="169.9969"/><line style="stroke:#181818;stroke-width:0.3;stroke-dasharray:5.0,5.0;" x1="13.2" x2="13.2" y1="51.7312" y2="427.1953"/><line style="stroke:#181818;stroke-width:0.3;stroke-dasharray:5.0,5.0;" x1="162.3" x2="162.3" y1="51.7312" y2="427.1953"/><line style="stroke:#181818;stroke-width:0.3;stroke-dasharray:5.0,5.0;" x1="308.7" x2="308.7" y1="51.7312" y2="427.1953"/><line style="stroke:#181818;stroke-width:0.3;stroke-dasharray:5.0,5.0;" x1="504" x2="504" y1="51.7312" y2="427.1953"/><line style="stroke:#181818;stroke-width:0.3;stroke-dasharray:5.0,5.0;" x1="594" x2="594" y1="51.7312" y2="427.1953"/><line style="stroke:#181818;stroke-width:0.3;stroke-dasharray:5.0,5.0;" x1="679.2" x2="679.2" y1="51.7312" y2="427.1953"/><text fill="#000000" font-family="FG Virgil" font-size="8.4" lengthAdjust="spacing" textLength="17.4" x="3" y="49.8855">User</text><ellipse cx="13.5" cy="10.2656" fill="#E2E2F0" rx="4.8" ry="4.8" style="stroke:#181818;stroke-width:0.3;"/><path d="M13.5,15.0656 L13.5,31.2656 M5.7,19.8656 L21.3,19.8656 M13.5,31.2656 L5.7,40.2656 M13.5,31.2656 L21.3,40.2656 " fill="none" style="stroke:#181818;stroke-width:0.3;"/><text fill="#000000" font-family="FG Virgil" font-size="8.4" lengthAdjust="spacing" textLength="17.4" x="3" y="435.3152">User</text><ellipse cx="13.5" cy="442.2609" fill="#E2E2F0" rx="4.8" ry="4.8" style="stroke:#181818;stroke-width:0.3;"/><path d="M13.5,447.0609 L13.5,463.2609 M5.7,451.8609 L21.3,451.8609 M13.5,463.2609 L5.7,472.2609 M13.5,463.2609 L21.3,472.2609 " fill="none" style="stroke:#181818;stroke-width:0.3;"/><rect fill="#E2E2F0" height="29.5313" rx="1.5" ry="1.5" style="stroke:#181818;stroke-width:0.3;" width="81.6" x="121.5" y="21.6"/><text fill="#000000" font-family="FG Virgil" font-size="8.4" font-style="italic" lengthAdjust="spacing" textLength="57" x="133.8" y="34.5199">«presentation»</text><text fill="#000000" font-family="FG Virgil" font-size="8.4" lengthAdjust="spacing" textLength="73.2" x="125.7" y="45.0855">ViewBoardHistoryUI</text><rect fill="#E2E2F0" height="29.5313" rx="1.5" ry="1.5" style="stroke:#181818;stroke-width:0.3;" width="81.6" x="121.5" y="426.5953"/><text fill="#000000" font-family="FG Virgil" font-size="8.4" font-style="italic" lengthAdjust="spacing" textLength="57" x="133.8" y="439.5152">«presentation»</text><text fill="#000000" font-family="FG Virgil" font-size="8.4" lengthAdjust="spacing" textLength="73.2" x="125.7" y="450.0809">ViewBoardHistoryUI</text><rect fill="#E2E2F0" height="29.5313" rx="1.5" ry="1.5" style="stroke:#181818;stroke-width:0.3;" width="111.6" x="252.9" y="21.6"/><text fill="#000000" font-family="FG Virgil" font-size="8.4" font-style="italic" lengthAdjust="spacing" textLength="50.4" x="283.5" y="34.5199">«application»</text><text fill="#000000" font-family="FG Virgil" font-size="8.4" lengthAdjust="spacing" textLength="103.2" x="257.1" y="45.0855">ViewBoardHistoryController</text><rect fill="#E2E2F0" height="29.5313" rx="1.5" ry="1.5" style="stroke:#181818;stroke-width:0.3;" width="111.6" x="252.9" y="426.5953"/><text fill="#000000" font-family="FG Virgil" font-size="8.4" font-style="italic" lengthAdjust="spacing" textLength="50.4" x="283.5" y="439.5152">«application»</text><text fill="#000000" font-family="FG Virgil" font-size="8.4" lengthAdjust="spacing" textLength="103.2" x="257.1" y="450.0809">ViewBoardHistoryController</text><rect fill="#E2E2F0" height="29.5313" rx="1.5" ry="1.5" style="stroke:#181818;stroke-width:0.3;" width="108.6" x="450" y="21.6"/><text fill="#000000" font-family="FG Virgil" font-size="8.4" font-style="italic" lengthAdjust="spacing" textLength="50.4" x="479.1" y="34.5199">«application»</text><text fill="#000000" font-family="FG Virgil" font-size="8.4" lengthAdjust="spacing" textLength="100.2" x="454.2" y="45.0855">BoardManagementService</text><rect fill="#E2E2F0" height="29.5313" rx="1.5" ry="1.5" style="stroke:#181818;stroke-width:0.3;" width="108.6" x="450" y="426.5953"/><text fill="#000000" font-family="FG Virgil" font-size="8.4" font-style="italic" lengthAdjust="spacing" textLength="50.4" x="479.1" y="439.5152">«application»</text><text fill="#000000" font-family="FG Virgil" font-size="8.4" lengthAdjust="spacing" textLength="100.2" x="454.2" y="450.0809">BoardManagementService</text><rect fill="#E2E2F0" height="29.5313" rx="1.5" ry="1.5" style="stroke:#181818;stroke-width:0.3;" width="58.8" x="564.6" y="21.6"/><text fill="#000000" font-family="FG Virgil" font-size="8.4" font-style="italic" lengthAdjust="spacing" textLength="37.2" x="575.4" y="34.5199">«domain»</text><text fill="#000000" font-family="FG Virgil" font-size="8.4" lengthAdjust="spacing" textLength="50.4" x="568.8" y="45.0855">SharedBoard</text><rect fill="#E2E2F0" height="29.5313" rx="1.5" ry="1.5" style="stroke:#181818;stroke-width:0.3;" width="58.8" x="564.6" y="426.5953"/><text fill="#000000" font-family="FG Virgil" font-size="8.4" font-style="italic" lengthAdjust="spacing" textLength="37.2" x="575.4" y="439.5152">«domain»</text><text fill="#000000" font-family="FG Virgil" font-size="8.4" lengthAdjust="spacing" textLength="50.4" x="568.8" y="450.0809">SharedBoard</text><text fill="#000000" font-family="FG Virgil" font-size="8.4" font-style="italic" lengthAdjust="spacing" textLength="47.4" x="654" y="39.3199">«repository»</text><text fill="#000000" font-family="FG Virgil" font-size="8.4" lengthAdjust="spacing" textLength="63" x="646.2" y="49.8855">boardRepository</text><path d="M668.7,9 C668.7,3 679.5,3 679.5,3 C679.5,3 690.3,3 690.3,9 L690.3,24.6 C690.3,30.6 679.5,30.6 679.5,30.6 C679.5,30.6 668.7,30.6 668.7,24.6 L668.7,9 " fill="#E2E2F0" style="stroke:#181818;stroke-width:0.8999999999999999;"/><path d="M668.7,9 C668.7,15 679.5,15 679.5,15 C679.5,15 690.3,15 690.3,9 " fill="none" style="stroke:#181818;stroke-width:0.8999999999999999;"/><text fill="#000000" font-family="FG Virgil" font-size="8.4" font-style="italic" lengthAdjust="spacing" textLength="47.4" x="654" y="435.3152">«repository»</text><text fill="#000000" font-family="FG Virgil" font-size="8.4" lengthAdjust="spacing" textLength="63" x="646.2" y="445.8809">boardRepository</text><path d="M668.7,453.7266 C668.7,447.7266 679.5,447.7266 679.5,447.7266 C679.5,447.7266 690.3,447.7266 690.3,453.7266 L690.3,469.3266 C690.3,475.3266 679.5,475.3266 679.5,475.3266 C679.5,475.3266 668.7,475.3266 668.7,469.3266 L668.7,453.7266 " fill="#E2E2F0" style="stroke:#181818;stroke-width:0.8999999999999999;"/><path d="M668.7,453.7266 C668.7,459.7266 679.5,459.7266 679.5,459.7266 C679.5,459.7266 690.3,459.7266 690.3,453.7266 " fill="none" style="stroke:#181818;stroke-width:0.8999999999999999;"/><rect fill="#FFFFFF" height="345.2531" style="stroke:#181818;stroke-width:0.6;" width="6" x="159.3" y="71.1422"/><rect fill="#FFFFFF" height="308.8313" style="stroke:#181818;stroke-width:0.6;" width="6" x="305.7" y="107.5641"/><rect fill="#FFFFFF" height="270.0094" style="stroke:#181818;stroke-width:0.6;" width="6" x="501.3" y="151.7859"/><rect fill="#FFFFFF" height="18.2109" style="stroke:#181818;stroke-width:0.6;" width="6" x="591" y="343.5516"/><rect fill="#FFFFFF" height="46.0781" style="stroke:#181818;stroke-width:0.6;" width="6" x="676.5" y="169.9969"/><polygon fill="#181818" points="152.1,68.7422,158.1,71.1422,152.1,73.5422,154.5,71.1422" style="stroke:#181818;stroke-width:0.6;"/><line style="stroke:#181818;stroke-width:0.6;stroke-dasharray:2.0,2.0;" x1="13.5" x2="155.7" y1="71.1422" y2="71.1422"/><text fill="#000000" font-family="FG Virgil" font-size="7.8" lengthAdjust="spacing" textLength="61.8" x="17.7" y="68.2283">view board history</text><polygon fill="#181818" points="301.5,86.9531,307.5,89.3531,301.5,91.7531,303.9,89.3531" style="stroke:#181818;stroke-width:0.6;"/><line style="stroke:#181818;stroke-width:0.6;" x1="165.3" x2="305.1" y1="89.3531" y2="89.3531"/><text fill="#000000" font-family="FG Virgil" font-size="7.8" lengthAdjust="spacing" textLength="26.4" x="169.5" y="86.4393">create()</text><polygon fill="#181818" points="298.5,105.1641,304.5,107.5641,298.5,109.9641,300.9,107.5641" style="stroke:#181818;stroke-width:0.6;"/><line style="stroke:#181818;stroke-width:0.6;" x1="165.3" x2="302.1" y1="107.5641" y2="107.5641"/><text fill="#000000" font-family="FG Virgil" font-size="7.8" lengthAdjust="spacing" textLength="126" x="169.5" y="104.6502">sharedBoardsWithReadPermission()</text><line style="stroke:#181818;stroke-width:0.6;" x1="311.7" x2="336.9" y1="125.775" y2="125.775"/><line style="stroke:#181818;stroke-width:0.6;" x1="336.9" x2="336.9" y1="125.775" y2="133.575"/><line style="stroke:#181818;stroke-width:0.6;" x1="312.3" x2="336.9" y1="133.575" y2="133.575"/><polygon fill="#181818" points="318.3,131.175,312.3,133.575,318.3,135.975,315.9,133.575" style="stroke:#181818;stroke-width:0.6;"/><text fill="#000000" font-family="FG Virgil" font-size="7.8" lengthAdjust="spacing" textLength="62.4" x="315.9" y="122.8611">user:currentUser()</text><polygon fill="#181818" points="494.1,149.3859,500.1,151.7859,494.1,154.1859,496.5,151.7859" style="stroke:#181818;stroke-width:0.6;"/><line style="stroke:#181818;stroke-width:0.6;" x1="311.7" x2="497.7" y1="151.7859" y2="151.7859"/><text fill="#000000" font-family="FG Virgil" font-size="7.8" lengthAdjust="spacing" textLength="178.2" x="315.9" y="148.8721">allBoardsBySystemUserWithReadPermission(user)</text><polygon fill="#181818" points="669.3,167.5969,675.3,169.9969,669.3,172.3969,671.7,169.9969" style="stroke:#181818;stroke-width:0.6;"/><line style="stroke:#181818;stroke-width:0.6;" x1="507.3" x2="672.9" y1="169.9969" y2="169.9969"/><text fill="#000000" font-family="FG Virgil" font-size="7.8" lengthAdjust="spacing" textLength="157.8" x="511.5" y="167.083">findBySystemUserWithReadPermission(user)</text><rect fill="none" height="24.8672" style="stroke:#000000;stroke-width:0.8999999999999999;" width="150.6" x="448.2" y="174.7969"/><path d="M448.2,174.7969 L485.4,174.7969 L485.4,179.5969 L479.4,185.5969 L448.2,185.5969 L448.2,174.7969 " fill="#EEEEEE" style="stroke:#000000;stroke-width:1.2;"/><text fill="#000000" font-family="FG Virgil" font-size="7.8" font-weight="bold" lengthAdjust="spacing" textLength="10.2" x="456" y="184.0939">ref</text><text fill="#000000" font-family="FG Virgil" font-size="7.2" lengthAdjust="spacing" textLength="145.8" x="450.6" y="195.4711">SD_findBySystemUserWithReadPermission</text><polygon fill="#181818" points="513.9,213.675,507.9,216.075,513.9,218.475,511.5,216.075" style="stroke:#181818;stroke-width:0.6;"/><line style="stroke:#181818;stroke-width:0.6;stroke-dasharray:2.0,2.0;" x1="510.3" x2="678.9" y1="216.075" y2="216.075"/><text fill="#000000" font-family="FG Virgil" font-size="7.8" lengthAdjust="spacing" textLength="126" x="517.5" y="213.1611">allUserBoardsWithReadPermissions</text><polygon fill="#181818" points="318.3,231.8859,312.3,234.2859,318.3,236.6859,315.9,234.2859" style="stroke:#181818;stroke-width:0.6;"/><line style="stroke:#181818;stroke-width:0.6;stroke-dasharray:2.0,2.0;" x1="314.7" x2="500.7" y1="234.2859" y2="234.2859"/><text fill="#000000" font-family="FG Virgil" font-size="7.8" lengthAdjust="spacing" textLength="126" x="321.9" y="231.3721">allUserBoardsWithReadPermissions</text><polygon fill="#181818" points="171.9,250.0969,165.9,252.4969,171.9,254.8969,169.5,252.4969" style="stroke:#181818;stroke-width:0.6;"/><line style="stroke:#181818;stroke-width:0.6;stroke-dasharray:2.0,2.0;" x1="168.3" x2="305.1" y1="252.4969" y2="252.4969"/><text fill="#000000" font-family="FG Virgil" font-size="7.8" lengthAdjust="spacing" textLength="126" x="175.5" y="249.583">allUserBoardsWithReadPermissions</text><polygon fill="#181818" points="20.1,268.3078,14.1,270.7078,20.1,273.1078,17.7,270.7078" style="stroke:#181818;stroke-width:0.6;"/><line style="stroke:#181818;stroke-width:0.6;stroke-dasharray:2.0,2.0;" x1="16.5" x2="158.7" y1="270.7078" y2="270.7078"/><text fill="#000000" font-family="FG Virgil" font-size="7.8" lengthAdjust="spacing" textLength="131.4" x="23.7" y="267.7939">lists the boards with read permissions</text><polygon fill="#181818" points="152.1,286.5188,158.1,288.9188,152.1,291.3187,154.5,288.9188" style="stroke:#181818;stroke-width:0.6;"/><line style="stroke:#181818;stroke-width:0.6;" x1="13.5" x2="155.7" y1="288.9188" y2="288.9188"/><text fill="#000000" font-family="FG Virgil" font-size="7.8" lengthAdjust="spacing" textLength="53.4" x="17.7" y="286.0049">selects a board</text><polygon fill="#181818" points="298.5,304.7297,304.5,307.1297,298.5,309.5297,300.9,307.1297" style="stroke:#181818;stroke-width:0.6;"/><line style="stroke:#181818;stroke-width:0.6;" x1="165.3" x2="302.1" y1="307.1297" y2="307.1297"/><text fill="#000000" font-family="FG Virgil" font-size="7.8" lengthAdjust="spacing" textLength="94.2" x="169.5" y="304.2158">boardHistory(bardSelected)</text><polygon fill="#181818" points="494.1,322.9406,500.1,325.3406,494.1,327.7406,496.5,325.3406" style="stroke:#181818;stroke-width:0.6;"/><line style="stroke:#181818;stroke-width:0.6;" x1="311.7" x2="497.7" y1="325.3406" y2="325.3406"/><text fill="#000000" font-family="FG Virgil" font-size="7.8" lengthAdjust="spacing" textLength="88.8" x="315.9" y="322.4268">boardModifications(board)</text><polygon fill="#181818" points="583.8,341.1516,589.8,343.5516,583.8,345.9516,586.2,343.5516" style="stroke:#181818;stroke-width:0.6;"/><line style="stroke:#181818;stroke-width:0.6;" x1="507.3" x2="587.4" y1="343.5516" y2="343.5516"/><text fill="#000000" font-family="FG Virgil" font-size="7.8" lengthAdjust="spacing" textLength="50.4" x="511.5" y="340.6377">modifications()</text><polygon fill="#181818" points="513.9,359.3625,507.9,361.7625,513.9,364.1625,511.5,361.7625" style="stroke:#181818;stroke-width:0.6;"/><line style="stroke:#181818;stroke-width:0.6;stroke-dasharray:2.0,2.0;" x1="510.3" x2="593.4" y1="361.7625" y2="361.7625"/><text fill="#000000" font-family="FG Virgil" font-size="7.8" lengthAdjust="spacing" textLength="45.6" x="517.5" y="358.8486">modifications</text><polygon fill="#181818" points="318.3,377.5734,312.3,379.9734,318.3,382.3734,315.9,379.9734" style="stroke:#181818;stroke-width:0.6;"/><line style="stroke:#181818;stroke-width:0.6;stroke-dasharray:2.0,2.0;" x1="314.7" x2="500.7" y1="379.9734" y2="379.9734"/><text fill="#000000" font-family="FG Virgil" font-size="7.8" lengthAdjust="spacing" textLength="45.6" x="321.9" y="377.0596">modifications</text><polygon fill="#181818" points="171.9,395.7844,165.9,398.1844,171.9,400.5844,169.5,398.1844" style="stroke:#181818;stroke-width:0.6;"/><line style="stroke:#181818;stroke-width:0.6;stroke-dasharray:2.0,2.0;" x1="168.3" x2="305.1" y1="398.1844" y2="398.1844"/><text fill="#000000" font-family="FG Virgil" font-size="7.8" lengthAdjust="spacing" textLength="45.6" x="175.5" y="395.2705">modifications</text><polygon fill="#181818" points="20.1,413.9953,14.1,416.3953,20.1,418.7953,17.7,416.3953" style="stroke:#181818;stroke-width:0.6;"/><line style="stroke:#181818;stroke-width:0.6;stroke-dasharray:2.0,2.0;" x1="16.5" x2="161.7" y1="416.3953" y2="416.3953"/><text fill="#000000" font-family="FG Virgil" font-size="7.8" lengthAdjust="spacing" textLength="43.2" x="23.7" y="413.4814">displays info</text><!--MD5=[92e99e0f620cfdd2a8d0ceb6fc3c6f98]
@startuml
'http://plantuml.com/skinparam.html
skinparam handwritten false
skinparam packageStyle rect
skinparam defaultFontName FG Virgil
skinparam shadowing false

actor User as Actor
participant ViewBoardHistoryUI as UI <<presentation>>
participant ViewBoardHistoryController as Controller <<application>>

participant BoardManagementService as BoardManagementService <<application>>

participant SharedBoard as SharedBoard <<domain>>
database boardRepository as BoardRepository <<repository>>



Actor - -> UI: view board history
activate UI
UI -> Controller: create()
UI -> Controller: sharedBoardsWithReadPermission()
activate Controller
Controller -> Controller : user:currentUser()
Controller -> BoardManagementService: allBoardsBySystemUserWithReadPermission(user)
activate BoardManagementService

BoardManagementService -> BoardRepository: findBySystemUserWithReadPermission(user)
ref over BoardManagementService : SD_findBySystemUserWithReadPermission
activate BoardRepository

BoardRepository - -> BoardManagementService: allUserBoardsWithReadPermissions
deactivate BoardRepository

BoardManagementService - -> Controller: allUserBoardsWithReadPermissions
Controller - -> UI: allUserBoardsWithReadPermissions
UI - -> Actor: lists the boards with read permissions
Actor -> UI: selects a board

UI -> Controller : boardHistory(bardSelected)
Controller -> BoardManagementService : boardModifications(board)

BoardManagementService -> SharedBoard: modifications()
activate SharedBoard
 SharedBoard - -> BoardManagementService: modifications
 deactivate SharedBoard
  BoardManagementService - -> Controller: modifications
    Controller - -> UI: modifications


         UI - -> Actor : displays info


         deactivate Controller
deactivate UI
@enduml

@startuml
skinparam handwritten false
skinparam packageStyle rect
skinparam defaultFontName FG Virgil
skinparam shadowing false

actor User as Actor
participant ViewBoardHistoryUI as UI <<presentation>>
participant ViewBoardHistoryController as Controller <<application>>

participant BoardManagementService as BoardManagementService <<application>>

participant SharedBoard as SharedBoard <<domain>>
database boardRepository as BoardRepository <<repository>>



Actor - -> UI: view board history
activate UI
UI -> Controller: create()
UI -> Controller: sharedBoardsWithReadPermission()
activate Controller
Controller -> Controller : user:currentUser()
Controller -> BoardManagementService: allBoardsBySystemUserWithReadPermission(user)
activate BoardManagementService

BoardManagementService -> BoardRepository: findBySystemUserWithReadPermission(user)
ref over BoardManagementService : SD_findBySystemUserWithReadPermission
activate BoardRepository

BoardRepository - -> BoardManagementService: allUserBoardsWithReadPermissions
deactivate BoardRepository

BoardManagementService - -> Controller: allUserBoardsWithReadPermissions
Controller - -> UI: allUserBoardsWithReadPermissions
UI - -> Actor: lists the boards with read permissions
Actor -> UI: selects a board

UI -> Controller : boardHistory(bardSelected)
Controller -> BoardManagementService : boardModifications(board)

BoardManagementService -> SharedBoard: modifications()
activate SharedBoard
 SharedBoard - -> BoardManagementService: modifications
 deactivate SharedBoard
  BoardManagementService - -> Controller: modifications
    Controller - -> UI: modifications


         UI - -> Actor : displays info


         deactivate Controller
deactivate UI
@enduml

PlantUML version 1.2022.12(Sun Oct 23 19:12:26 BST 2022)
(GPL source distribution)
Java Runtime: OpenJDK Runtime Environment
JVM: OpenJDK 64-Bit Server VM
Default Encoding: Cp1252
Language: pt
Country: PT
--></g></svg>