<?xml version="1.0" encoding="UTF-8" standalone="no"?><svg xmlns="http://www.w3.org/2000/svg" xmlns:xlink="http://www.w3.org/1999/xlink" contentStyleType="text/css" height="306px" preserveAspectRatio="none" style="width:344px;height:306px;background:#FFFFFF;" version="1.1" viewBox="0 0 344 306" width="344px" zoomAndPan="magnify"><defs/><g><rect fill="#FFFFFF" height="91.0547" style="stroke:#181818;stroke-width:1.0;" width="10" x="265.5" y="114.9609"/><line style="stroke:#181818;stroke-width:0.5;stroke-dasharray:5.0,5.0;" x1="22" x2="22" y1="82.6094" y2="224.0156"/><line style="stroke:#181818;stroke-width:0.5;stroke-dasharray:5.0,5.0;" x1="270.5" x2="270.5" y1="82.6094" y2="224.0156"/><text fill="#000000" font-family="FG Virgil" font-size="14" lengthAdjust="spacing" textLength="29" x="5" y="79.5332">User</text><ellipse cx="22.5" cy="13.5" fill="#E2E2F0" rx="8" ry="8" style="stroke:#181818;stroke-width:0.5;"/><path d="M22.5,21.5 L22.5,48.5 M9.5,29.5 L35.5,29.5 M22.5,48.5 L9.5,63.5 M22.5,48.5 L35.5,63.5 " fill="none" style="stroke:#181818;stroke-width:0.5;"/><text fill="#000000" font-family="FG Virgil" font-size="14" lengthAdjust="spacing" textLength="29" x="5" y="237.5488">User</text><ellipse cx="22.5" cy="249.125" fill="#E2E2F0" rx="8" ry="8" style="stroke:#181818;stroke-width:0.5;"/><path d="M22.5,257.125 L22.5,284.125 M9.5,265.125 L35.5,265.125 M22.5,284.125 L9.5,299.125 M22.5,284.125 L35.5,299.125 " fill="none" style="stroke:#181818;stroke-width:0.5;"/><rect fill="#E2E2F0" height="49.2188" rx="2.5" ry="2.5" style="stroke:#181818;stroke-width:0.5;" width="136" x="202.5" y="32.3906"/><text fill="#000000" font-family="FG Virgil" font-size="14" font-style="italic" lengthAdjust="spacing" textLength="95" x="223" y="53.9238">«presentation»</text><text fill="#000000" font-family="FG Virgil" font-size="14" lengthAdjust="spacing" textLength="122" x="209.5" y="71.5332">ViewBoardHistoryUI</text><rect fill="#E2E2F0" height="49.2188" rx="2.5" ry="2.5" style="stroke:#181818;stroke-width:0.5;" width="136" x="202.5" y="223.0156"/><text fill="#000000" font-family="FG Virgil" font-size="14" font-style="italic" lengthAdjust="spacing" textLength="95" x="223" y="244.5488">«presentation»</text><text fill="#000000" font-family="FG Virgil" font-size="14" lengthAdjust="spacing" textLength="122" x="209.5" y="262.1582">ViewBoardHistoryUI</text><rect fill="#FFFFFF" height="91.0547" style="stroke:#181818;stroke-width:1.0;" width="10" x="265.5" y="114.9609"/><polygon fill="#181818" points="253.5,110.9609,263.5,114.9609,253.5,118.9609,257.5,114.9609" style="stroke:#181818;stroke-width:1.0;"/><line style="stroke:#181818;stroke-width:1.0;stroke-dasharray:2.0,2.0;" x1="22.5" x2="259.5" y1="114.9609" y2="114.9609"/><text fill="#000000" font-family="FG Virgil" font-size="13" lengthAdjust="spacing" textLength="103" x="29.5" y="110.1045">view board history</text><polygon fill="#181818" points="33.5,141.3125,23.5,145.3125,33.5,149.3125,29.5,145.3125" style="stroke:#181818;stroke-width:1.0;"/><line style="stroke:#181818;stroke-width:1.0;stroke-dasharray:2.0,2.0;" x1="27.5" x2="264.5" y1="145.3125" y2="145.3125"/><text fill="#000000" font-family="FG Virgil" font-size="13" lengthAdjust="spacing" textLength="219" x="39.5" y="140.4561">lists the boards with read permissions</text><polygon fill="#181818" points="253.5,171.6641,263.5,175.6641,253.5,179.6641,257.5,175.6641" style="stroke:#181818;stroke-width:1.0;"/><line style="stroke:#181818;stroke-width:1.0;" x1="22.5" x2="259.5" y1="175.6641" y2="175.6641"/><text fill="#000000" font-family="FG Virgil" font-size="13" lengthAdjust="spacing" textLength="89" x="29.5" y="170.8076">selects a board</text><polygon fill="#181818" points="33.5,202.0156,23.5,206.0156,33.5,210.0156,29.5,206.0156" style="stroke:#181818;stroke-width:1.0;"/><line style="stroke:#181818;stroke-width:1.0;stroke-dasharray:2.0,2.0;" x1="27.5" x2="269.5" y1="206.0156" y2="206.0156"/><text fill="#000000" font-family="FG Virgil" font-size="13" lengthAdjust="spacing" textLength="72" x="39.5" y="201.1592">displays info</text><!--MD5=[aa138d24d274e93770f07cf063682c51]
@startuml
'http://plantuml.com/skinparam.html
skinparam handwritten false
skinparam packageStyle rect
skinparam defaultFontName FG Virgil
skinparam shadowing false

actor User as Actor
participant ViewBoardHistoryUI as UI <<presentation>>




Actor - -> UI: view board history
activate UI

UI - -> Actor: lists the boards with read permissions
Actor -> UI: selects a board
         UI - -> Actor : displays info
deactivate UI
@enduml

@startuml
skinparam handwritten false
skinparam packageStyle rect
skinparam defaultFontName FG Virgil
skinparam shadowing false

actor User as Actor
participant ViewBoardHistoryUI as UI <<presentation>>




Actor - -> UI: view board history
activate UI

UI - -> Actor: lists the boards with read permissions
Actor -> UI: selects a board
         UI - -> Actor : displays info
deactivate UI
@enduml

PlantUML version 1.2022.12(Sun Oct 23 19:12:26 BST 2022)
(GPL source distribution)
Java Runtime: OpenJDK Runtime Environment
JVM: OpenJDK 64-Bit Server VM
Default Encoding: Cp1252
Language: pt
Country: PT
--></g></svg>