<?xml version="1.0" encoding="us-ascii" standalone="no"?><svg xmlns="http://www.w3.org/2000/svg" xmlns:xlink="http://www.w3.org/1999/xlink" contentStyleType="text/css" height="451px" preserveAspectRatio="none" style="width:1138px;height:451px;background:#FFFFFF;" version="1.1" viewBox="0 0 1138 451" width="1138px" zoomAndPan="magnify"><defs/><g><rect fill="#FFFFFF" height="236.1406" style="stroke:#181818;stroke-width:1.0;" width="10" x="462.5" y="112.8047"/><rect fill="#FFFFFF" height="57.0469" style="stroke:#181818;stroke-width:1.0;" width="10" x="635" y="169.8516"/><rect fill="#FFFFFF" height="56.5234" style="stroke:#181818;stroke-width:1.0;" width="10" x="796" y="226.8984"/><rect fill="#FFFFFF" height="14" style="stroke:#181818;stroke-width:1.0;" width="10" x="916" y="255.4219"/><rect fill="#FFFFFF" height="14" style="stroke:#181818;stroke-width:1.0;" width="10" x="1061.5" y="311.9453"/><line style="stroke:#181818;stroke-width:0.5;stroke-dasharray:5.0,5.0;" x1="95" x2="95" y1="82.2813" y2="357.9453"/><line style="stroke:#181818;stroke-width:0.5;stroke-dasharray:5.0,5.0;" x1="467" x2="467" y1="82.2813" y2="357.9453"/><line style="stroke:#181818;stroke-width:0.5;stroke-dasharray:5.0,5.0;" x1="640" x2="640" y1="82.2813" y2="357.9453"/><line style="stroke:#181818;stroke-width:0.5;stroke-dasharray:5.0,5.0;" x1="801" x2="801" y1="82.2813" y2="357.9453"/><line style="stroke:#181818;stroke-width:0.5;stroke-dasharray:5.0,5.0;" x1="921" x2="921" y1="82.2813" y2="357.9453"/><line style="stroke:#181818;stroke-width:0.5;stroke-dasharray:5.0,5.0;" x1="1066" x2="1066" y1="82.2813" y2="357.9453"/><rect fill="#E2E2F0" height="45.2813" rx="2.5" ry="2.5" style="stroke:#181818;stroke-width:0.5;" width="181" x="5" y="36"/><text fill="#000000" font-family="FG Virgil" font-size="14" font-style="italic" lengthAdjust="spacing" textLength="84" x="53.5" y="55.6738">&#171;application&#187;</text><text fill="#000000" font-family="FG Virgil" font-size="14" lengthAdjust="spacing" textLength="167" x="12" y="71.3145">ListFutureExamsController</text><rect fill="#E2E2F0" height="45.2813" rx="2.5" ry="2.5" style="stroke:#181818;stroke-width:0.5;" width="181" x="5" y="356.9453"/><text fill="#000000" font-family="FG Virgil" font-size="14" font-style="italic" lengthAdjust="spacing" textLength="84" x="53.5" y="376.6191">&#171;application&#187;</text><text fill="#000000" font-family="FG Virgil" font-size="14" lengthAdjust="spacing" textLength="167" x="12" y="392.2598">ListFutureExamsController</text><rect fill="#E2E2F0" height="45.2813" rx="2.5" ry="2.5" style="stroke:#181818;stroke-width:0.5;" width="189" x="373" y="36"/><text fill="#000000" font-family="FG Virgil" font-size="14" font-style="italic" lengthAdjust="spacing" textLength="84" x="425.5" y="55.6738">&#171;application&#187;</text><text fill="#000000" font-family="FG Virgil" font-size="14" lengthAdjust="spacing" textLength="175" x="380" y="71.3145">CourseManagementService</text><rect fill="#E2E2F0" height="45.2813" rx="2.5" ry="2.5" style="stroke:#181818;stroke-width:0.5;" width="189" x="373" y="356.9453"/><text fill="#000000" font-family="FG Virgil" font-size="14" font-style="italic" lengthAdjust="spacing" textLength="84" x="425.5" y="376.6191">&#171;application&#187;</text><text fill="#000000" font-family="FG Virgil" font-size="14" lengthAdjust="spacing" textLength="175" x="380" y="392.2598">CourseManagementService</text><rect fill="#E2E2F0" height="45.2813" rx="2.5" ry="2.5" style="stroke:#181818;stroke-width:0.5;" width="136" x="572" y="36"/><text fill="#000000" font-family="FG Virgil" font-size="14" font-style="italic" lengthAdjust="spacing" textLength="89" x="595.5" y="55.6738">&#171;persistence&#187;</text><text fill="#000000" font-family="FG Virgil" font-size="14" lengthAdjust="spacing" textLength="122" x="579" y="71.3145">PersistenceContext</text><rect fill="#E2E2F0" height="45.2813" rx="2.5" ry="2.5" style="stroke:#181818;stroke-width:0.5;" width="136" x="572" y="356.9453"/><text fill="#000000" font-family="FG Virgil" font-size="14" font-style="italic" lengthAdjust="spacing" textLength="89" x="595.5" y="376.6191">&#171;persistence&#187;</text><text fill="#000000" font-family="FG Virgil" font-size="14" lengthAdjust="spacing" textLength="122" x="579" y="392.2598">PersistenceContext</text><rect fill="#E2E2F0" height="29.6406" rx="2.5" ry="2.5" style="stroke:#181818;stroke-width:0.5;" width="90" x="756" y="51.6406"/><text fill="#000000" font-family="FG Virgil" font-size="14" lengthAdjust="spacing" textLength="76" x="763" y="71.3145">AppSettings</text><rect fill="#E2E2F0" height="29.6406" rx="2.5" ry="2.5" style="stroke:#181818;stroke-width:0.5;" width="90" x="756" y="356.9453"/><text fill="#000000" font-family="FG Virgil" font-size="14" lengthAdjust="spacing" textLength="76" x="763" y="376.6191">AppSettings</text><rect fill="#E2E2F0" height="45.2813" rx="2.5" ry="2.5" style="stroke:#181818;stroke-width:0.5;" width="130" x="856" y="36"/><text fill="#000000" font-family="FG Virgil" font-size="14" font-style="italic" lengthAdjust="spacing" textLength="59" x="891.5" y="55.6738">&#171;factory&#187;</text><text fill="#000000" font-family="FG Virgil" font-size="14" lengthAdjust="spacing" textLength="116" x="863" y="71.3145">RepositoryFactory</text><rect fill="#E2E2F0" height="45.2813" rx="2.5" ry="2.5" style="stroke:#181818;stroke-width:0.5;" width="130" x="856" y="356.9453"/><text fill="#000000" font-family="FG Virgil" font-size="14" font-style="italic" lengthAdjust="spacing" textLength="59" x="891.5" y="376.6191">&#171;factory&#187;</text><text fill="#000000" font-family="FG Virgil" font-size="14" lengthAdjust="spacing" textLength="116" x="863" y="392.2598">RepositoryFactory</text><text fill="#000000" font-family="FG Virgil" font-size="14" font-style="italic" lengthAdjust="spacing" textLength="79" x="1024" y="63.6738">&#171;repository&#187;</text><text fill="#000000" font-family="FG Virgil" font-size="14" lengthAdjust="spacing" textLength="135" x="996" y="79.3145">EnrollmentRepository</text><path d="M1048.5,15 C1048.5,5 1066.5,5 1066.5,5 C1066.5,5 1084.5,5 1084.5,15 L1084.5,41 C1084.5,51 1066.5,51 1066.5,51 C1066.5,51 1048.5,51 1048.5,41 L1048.5,15 " fill="#E2E2F0" style="stroke:#181818;stroke-width:1.5;"/><path d="M1048.5,15 C1048.5,25 1066.5,25 1066.5,25 C1066.5,25 1084.5,25 1084.5,15 " fill="none" style="stroke:#181818;stroke-width:1.5;"/><text fill="#000000" font-family="FG Virgil" font-size="14" font-style="italic" lengthAdjust="spacing" textLength="79" x="1024" y="369.6191">&#171;repository&#187;</text><text fill="#000000" font-family="FG Virgil" font-size="14" lengthAdjust="spacing" textLength="135" x="996" y="385.2598">EnrollmentRepository</text><path d="M1048.5,398.2266 C1048.5,388.2266 1066.5,388.2266 1066.5,388.2266 C1066.5,388.2266 1084.5,388.2266 1084.5,398.2266 L1084.5,424.2266 C1084.5,434.2266 1066.5,434.2266 1066.5,434.2266 C1066.5,434.2266 1048.5,434.2266 1048.5,424.2266 L1048.5,398.2266 " fill="#E2E2F0" style="stroke:#181818;stroke-width:1.5;"/><path d="M1048.5,398.2266 C1048.5,408.2266 1066.5,408.2266 1066.5,408.2266 C1066.5,408.2266 1084.5,408.2266 1084.5,398.2266 " fill="none" style="stroke:#181818;stroke-width:1.5;"/><rect fill="#FFFFFF" height="236.1406" style="stroke:#181818;stroke-width:1.0;" width="10" x="462.5" y="112.8047"/><rect fill="#FFFFFF" height="57.0469" style="stroke:#181818;stroke-width:1.0;" width="10" x="635" y="169.8516"/><rect fill="#FFFFFF" height="56.5234" style="stroke:#181818;stroke-width:1.0;" width="10" x="796" y="226.8984"/><rect fill="#FFFFFF" height="14" style="stroke:#181818;stroke-width:1.0;" width="10" x="916" y="255.4219"/><rect fill="#FFFFFF" height="14" style="stroke:#181818;stroke-width:1.0;" width="10" x="1061.5" y="311.9453"/><polygon fill="#181818" points="450.5,108.8047,460.5,112.8047,450.5,116.8047,454.5,112.8047" style="stroke:#181818;stroke-width:1.0;"/><line style="stroke:#181818;stroke-width:1.0;" x1="95.5" x2="456.5" y1="112.8047" y2="112.8047"/><text fill="#000000" font-family="FG Virgil" font-size="13" lengthAdjust="spacing" textLength="36" x="102.5" y="108.0498">create</text><polygon fill="#181818" points="450.5,137.3281,460.5,141.3281,450.5,145.3281,454.5,141.3281" style="stroke:#181818;stroke-width:1.0;"/><line style="stroke:#181818;stroke-width:1.0;" x1="95.5" x2="456.5" y1="141.3281" y2="141.3281"/><text fill="#000000" font-family="FG Virgil" font-size="13" lengthAdjust="spacing" textLength="343" x="102.5" y="136.5732">allCoursesByAcceptedStatusAndSystemUser(systemUser)</text><polygon fill="#181818" points="623,165.8516,633,169.8516,623,173.8516,627,169.8516" style="stroke:#181818;stroke-width:1.0;"/><line style="stroke:#181818;stroke-width:1.0;" x1="472.5" x2="629" y1="169.8516" y2="169.8516"/><text fill="#000000" font-family="FG Virgil" font-size="13" lengthAdjust="spacing" textLength="75" x="479.5" y="165.0967">repositories()</text><polygon fill="#181818" points="789,194.375,799,198.375,789,202.375,793,198.375" style="stroke:#181818;stroke-width:1.0;"/><line style="stroke:#181818;stroke-width:1.0;" x1="645" x2="795" y1="198.375" y2="198.375"/><text fill="#000000" font-family="FG Virgil" font-size="13" lengthAdjust="spacing" textLength="57" x="652" y="193.6201">instance()</text><polygon fill="#181818" points="784,222.8984,794,226.8984,784,230.8984,788,226.8984" style="stroke:#181818;stroke-width:1.0;"/><line style="stroke:#181818;stroke-width:1.0;" x1="640" x2="790" y1="226.8984" y2="226.8984"/><text fill="#000000" font-family="FG Virgil" font-size="13" lengthAdjust="spacing" textLength="132" x="647" y="222.1436">getRepositoryFactory()</text><polygon fill="#181818" points="904,251.4219,914,255.4219,904,259.4219,908,255.4219" style="stroke:#181818;stroke-width:1.0;"/><line style="stroke:#181818;stroke-width:1.0;stroke-dasharray:2.0,2.0;" x1="806" x2="910" y1="255.4219" y2="255.4219"/><text fill="#000000" font-family="FG Virgil" font-size="13" lengthAdjust="spacing" textLength="36" x="813" y="250.667">create</text><polygon fill="#181818" points="817,265.4219,807,269.4219,817,273.4219,813,269.4219" style="stroke:#181818;stroke-width:1.0;"/><line style="stroke:#181818;stroke-width:1.0;stroke-dasharray:2.0,2.0;" x1="811" x2="920" y1="269.4219" y2="269.4219"/><polygon fill="#181818" points="483.5,279.4219,473.5,283.4219,483.5,287.4219,479.5,283.4219" style="stroke:#181818;stroke-width:1.0;"/><line style="stroke:#181818;stroke-width:1.0;stroke-dasharray:2.0,2.0;" x1="477.5" x2="800" y1="283.4219" y2="283.4219"/><polygon fill="#181818" points="1049.5,307.9453,1059.5,311.9453,1049.5,315.9453,1053.5,311.9453" style="stroke:#181818;stroke-width:1.0;"/><line style="stroke:#181818;stroke-width:1.0;" x1="472.5" x2="1055.5" y1="311.9453" y2="311.9453"/><text fill="#000000" font-family="FG Virgil" font-size="13" lengthAdjust="spacing" textLength="493" x="479.5" y="307.1904">coursesBySystemUser = allCoursesByAcceptedStatusAndSystemUser(systemUser)</text><polygon fill="#181818" points="483.5,321.9453,473.5,325.9453,483.5,329.9453,479.5,325.9453" style="stroke:#181818;stroke-width:1.0;"/><line style="stroke:#181818;stroke-width:1.0;stroke-dasharray:2.0,2.0;" x1="477.5" x2="1065.5" y1="325.9453" y2="325.9453"/><polygon fill="#181818" points="106.5,335.9453,96.5,339.9453,106.5,343.9453,102.5,339.9453" style="stroke:#181818;stroke-width:1.0;"/><line style="stroke:#181818;stroke-width:1.0;stroke-dasharray:2.0,2.0;" x1="100.5" x2="461.5" y1="339.9453" y2="339.9453"/><!--SRC=[dL9DRzim3BthL-Yszf3cRdW1igBPfHs66TkTavb4g2mB8fqs_txKabZi-d7OmR18llT8FkdJdZarosKA47aQmeqRXoKz-fWWmt2pvo6OERHxYFrJzimOxHO2eQebS8-mmuwF0Mr6nwhMunQcm9inyZSOq6w-sby-xxpMfZtquvEFkxEoCP9dxtoIoUoz9zvCF6MyUuQ1RaKfZo5Wja1MHMqBAGNlWFqOLwiN6hVZb0aV8CgO0qRkC1-ymwBW_fQwW_jGu3jcaZamEYmjyPaBLsM5dMhq3tkTKeVCiY4L6Y6_AF_0D9BdCHytuCglW2x7jjsUJgBP0yDl8BHtiInTDgdSGb9Hs-Ov4Aenogh5IgtTM9SH68sqyGSvrDe770ZXP2fzEQwTmyJOTmmyqJhstL5i67uIvYkQZzUcycsHq-urTfxM8rrTrs4KocY628YFZVMH62GXdBVAE-HNzWgqnpSRpCboHVBPXUYSMQzzEXVCvQeMfwPQ_0AvQ5Lh5QXmb3a2goCtPuhON5srd__B_xbXbJVgnRmxduAhAGLTduU6g-mV]--></g></svg>