<?xml version="1.0" encoding="us-ascii" standalone="no"?><svg xmlns="http://www.w3.org/2000/svg" xmlns:xlink="http://www.w3.org/1999/xlink" contentStyleType="text/css" height="723px" preserveAspectRatio="none" style="width:1181px;height:723px;background:#FFFFFF;" version="1.1" viewBox="0 0 1181 723" width="1181px" zoomAndPan="magnify"><defs/><g><rect fill="#FFFFFF" height="499.3047" style="stroke:#181818;stroke-width:1.0;" width="10" x="209.5" y="112.8047"/><rect fill="#FFFFFF" height="442.2578" style="stroke:#181818;stroke-width:1.0;" width="10" x="375.5" y="141.3281"/><rect fill="#FFFFFF" height="71.4531" style="stroke:#181818;stroke-width:1.0;" width="10" x="570.5" y="169.8516"/><rect fill="#FFFFFF" height="142.6172" style="stroke:#181818;stroke-width:1.0;" width="10" x="763.5" y="412.4453"/><rect fill="#FFFFFF" height="57.0469" style="stroke:#181818;stroke-width:1.0;" width="10" x="1121.5" y="469.4922"/><line style="stroke:#181818;stroke-width:0.5;stroke-dasharray:5.0,5.0;" x1="32" x2="32" y1="82.2813" y2="630.1094"/><line style="stroke:#181818;stroke-width:0.5;stroke-dasharray:5.0,5.0;" x1="214" x2="214" y1="82.2813" y2="630.1094"/><line style="stroke:#181818;stroke-width:0.5;stroke-dasharray:5.0,5.0;" x1="380" x2="380" y1="82.2813" y2="630.1094"/><line style="stroke:#181818;stroke-width:0.5;stroke-dasharray:5.0,5.0;" x1="575" x2="575" y1="82.2813" y2="630.1094"/><line style="stroke:#181818;stroke-width:0.5;stroke-dasharray:5.0,5.0;" x1="768" x2="768" y1="82.2813" y2="630.1094"/><line style="stroke:#181818;stroke-width:0.5;stroke-dasharray:5.0,5.0;" x1="1126.5" x2="1126.5" y1="82.2813" y2="630.1094"/><text fill="#000000" font-family="FG Virgil" font-size="14" lengthAdjust="spacing" textLength="49" x="5" y="79.3145">Student</text><ellipse cx="32.5" cy="15.1406" fill="#E2E2F0" rx="8" ry="8" style="stroke:#181818;stroke-width:0.5;"/><path d="M32.5,23.1406 L32.5,50.1406 M19.5,31.1406 L45.5,31.1406 M32.5,50.1406 L19.5,65.1406 M32.5,50.1406 L45.5,65.1406 " fill="none" style="stroke:#181818;stroke-width:0.5;"/><text fill="#000000" font-family="FG Virgil" font-size="14" lengthAdjust="spacing" textLength="49" x="5" y="641.7832">Student</text><ellipse cx="32.5" cy="653.25" fill="#E2E2F0" rx="8" ry="8" style="stroke:#181818;stroke-width:0.5;"/><path d="M32.5,661.25 L32.5,688.25 M19.5,669.25 L45.5,669.25 M32.5,688.25 L19.5,703.25 M32.5,688.25 L45.5,703.25 " fill="none" style="stroke:#181818;stroke-width:0.5;"/><rect fill="#E2E2F0" height="45.2813" rx="2.5" ry="2.5" style="stroke:#181818;stroke-width:0.5;" width="131" x="149" y="36"/><text fill="#000000" font-family="FG Virgil" font-size="14" font-style="italic" lengthAdjust="spacing" textLength="95" x="167" y="55.6738">&#171;presentation&#187;</text><text fill="#000000" font-family="FG Virgil" font-size="14" lengthAdjust="spacing" textLength="117" x="156" y="71.3145">ListFutureExamsUI</text><rect fill="#E2E2F0" height="45.2813" rx="2.5" ry="2.5" style="stroke:#181818;stroke-width:0.5;" width="131" x="149" y="629.1094"/><text fill="#000000" font-family="FG Virgil" font-size="14" font-style="italic" lengthAdjust="spacing" textLength="95" x="167" y="648.7832">&#171;presentation&#187;</text><text fill="#000000" font-family="FG Virgil" font-size="14" lengthAdjust="spacing" textLength="117" x="156" y="664.4238">ListFutureExamsUI</text><rect fill="#E2E2F0" height="45.2813" rx="2.5" ry="2.5" style="stroke:#181818;stroke-width:0.5;" width="181" x="290" y="36"/><text fill="#000000" font-family="FG Virgil" font-size="14" font-style="italic" lengthAdjust="spacing" textLength="84" x="338.5" y="55.6738">&#171;application&#187;</text><text fill="#000000" font-family="FG Virgil" font-size="14" lengthAdjust="spacing" textLength="167" x="297" y="71.3145">ListFutureExamsController</text><rect fill="#E2E2F0" height="45.2813" rx="2.5" ry="2.5" style="stroke:#181818;stroke-width:0.5;" width="181" x="290" y="629.1094"/><text fill="#000000" font-family="FG Virgil" font-size="14" font-style="italic" lengthAdjust="spacing" textLength="84" x="338.5" y="648.7832">&#171;application&#187;</text><text fill="#000000" font-family="FG Virgil" font-size="14" lengthAdjust="spacing" textLength="167" x="297" y="664.4238">ListFutureExamsController</text><rect fill="#E2E2F0" height="45.2813" rx="2.5" ry="2.5" style="stroke:#181818;stroke-width:0.5;" width="189" x="481" y="36"/><text fill="#000000" font-family="FG Virgil" font-size="14" font-style="italic" lengthAdjust="spacing" textLength="84" x="533.5" y="55.6738">&#171;application&#187;</text><text fill="#000000" font-family="FG Virgil" font-size="14" lengthAdjust="spacing" textLength="175" x="488" y="71.3145">CourseManagementService</text><rect fill="#E2E2F0" height="45.2813" rx="2.5" ry="2.5" style="stroke:#181818;stroke-width:0.5;" width="189" x="481" y="629.1094"/><text fill="#000000" font-family="FG Virgil" font-size="14" font-style="italic" lengthAdjust="spacing" textLength="84" x="533.5" y="648.7832">&#171;application&#187;</text><text fill="#000000" font-family="FG Virgil" font-size="14" lengthAdjust="spacing" textLength="175" x="488" y="664.4238">CourseManagementService</text><rect fill="#E2E2F0" height="45.2813" rx="2.5" ry="2.5" style="stroke:#181818;stroke-width:0.5;" width="177" x="680" y="36"/><text fill="#000000" font-family="FG Virgil" font-size="14" font-style="italic" lengthAdjust="spacing" textLength="84" x="726.5" y="55.6738">&#171;application&#187;</text><text fill="#000000" font-family="FG Virgil" font-size="14" lengthAdjust="spacing" textLength="163" x="687" y="71.3145">ExamManagementService</text><rect fill="#E2E2F0" height="45.2813" rx="2.5" ry="2.5" style="stroke:#181818;stroke-width:0.5;" width="177" x="680" y="629.1094"/><text fill="#000000" font-family="FG Virgil" font-size="14" font-style="italic" lengthAdjust="spacing" textLength="84" x="726.5" y="648.7832">&#171;application&#187;</text><text fill="#000000" font-family="FG Virgil" font-size="14" lengthAdjust="spacing" textLength="163" x="687" y="664.4238">ExamManagementService</text><text fill="#000000" font-family="FG Virgil" font-size="14" font-style="italic" lengthAdjust="spacing" textLength="79" x="1084" y="63.6738">&#171;repository&#187;</text><text fill="#000000" font-family="FG Virgil" font-size="14" lengthAdjust="spacing" textLength="102" x="1072.5" y="79.3145">ExamRepository</text><path d="M1108.5,15 C1108.5,5 1126.5,5 1126.5,5 C1126.5,5 1144.5,5 1144.5,15 L1144.5,41 C1144.5,51 1126.5,51 1126.5,51 C1126.5,51 1108.5,51 1108.5,41 L1108.5,15 " fill="#E2E2F0" style="stroke:#181818;stroke-width:1.5;"/><path d="M1108.5,15 C1108.5,25 1126.5,25 1126.5,25 C1126.5,25 1144.5,25 1144.5,15 " fill="none" style="stroke:#181818;stroke-width:1.5;"/><text fill="#000000" font-family="FG Virgil" font-size="14" font-style="italic" lengthAdjust="spacing" textLength="79" x="1084" y="641.7832">&#171;repository&#187;</text><text fill="#000000" font-family="FG Virgil" font-size="14" lengthAdjust="spacing" textLength="102" x="1072.5" y="657.4238">ExamRepository</text><path d="M1108.5,670.3906 C1108.5,660.3906 1126.5,660.3906 1126.5,660.3906 C1126.5,660.3906 1144.5,660.3906 1144.5,670.3906 L1144.5,696.3906 C1144.5,706.3906 1126.5,706.3906 1126.5,706.3906 C1126.5,706.3906 1108.5,706.3906 1108.5,696.3906 L1108.5,670.3906 " fill="#E2E2F0" style="stroke:#181818;stroke-width:1.5;"/><path d="M1108.5,670.3906 C1108.5,680.3906 1126.5,680.3906 1126.5,680.3906 C1126.5,680.3906 1144.5,680.3906 1144.5,670.3906 " fill="none" style="stroke:#181818;stroke-width:1.5;"/><rect fill="#FFFFFF" height="499.3047" style="stroke:#181818;stroke-width:1.0;" width="10" x="209.5" y="112.8047"/><rect fill="#FFFFFF" height="442.2578" style="stroke:#181818;stroke-width:1.0;" width="10" x="375.5" y="141.3281"/><rect fill="#FFFFFF" height="71.4531" style="stroke:#181818;stroke-width:1.0;" width="10" x="570.5" y="169.8516"/><rect fill="#FFFFFF" height="142.6172" style="stroke:#181818;stroke-width:1.0;" width="10" x="763.5" y="412.4453"/><rect fill="#FFFFFF" height="57.0469" style="stroke:#181818;stroke-width:1.0;" width="10" x="1121.5" y="469.4922"/><polygon fill="#181818" points="197.5,108.8047,207.5,112.8047,197.5,116.8047,201.5,112.8047" style="stroke:#181818;stroke-width:1.0;"/><line style="stroke:#181818;stroke-width:1.0;" x1="32.5" x2="203.5" y1="112.8047" y2="112.8047"/><text fill="#000000" font-family="FG Virgil" font-size="13" lengthAdjust="spacing" textLength="107" x="39.5" y="108.0498">List Future Exams</text><polygon fill="#181818" points="363.5,137.3281,373.5,141.3281,363.5,145.3281,367.5,141.3281" style="stroke:#181818;stroke-width:1.0;"/><line style="stroke:#181818;stroke-width:1.0;" x1="219.5" x2="369.5" y1="141.3281" y2="141.3281"/><text fill="#000000" font-family="FG Virgil" font-size="13" lengthAdjust="spacing" textLength="44" x="226.5" y="136.5732">create()</text><polygon fill="#181818" points="558.5,165.8516,568.5,169.8516,558.5,173.8516,562.5,169.8516" style="stroke:#181818;stroke-width:1.0;"/><line style="stroke:#181818;stroke-width:1.0;" x1="385.5" x2="564.5" y1="169.8516" y2="169.8516"/><text fill="#000000" font-family="FG Virgil" font-size="13" lengthAdjust="spacing" textLength="155" x="392.5" y="165.0967">allCoursesByStudent(user)</text><rect fill="none" height="37.9297" style="stroke:#000000;stroke-width:1.5;" width="195" x="478" y="177.8516"/><path d="M478,177.8516 L540,177.8516 L540,183.8516 L530,193.8516 L478,193.8516 L478,177.8516 " fill="#EEEEEE" style="stroke:#000000;stroke-width:2.0;"/><text fill="#000000" font-family="FG Virgil" font-size="13" font-weight="bold" lengthAdjust="spacing" textLength="17" x="491" y="191.6201">ref</text><text fill="#000000" font-family="FG Virgil" font-size="12" lengthAdjust="spacing" textLength="147" x="502" y="208.7148">SD_ListCoursesByStudent</text><polygon fill="#181818" points="396.5,237.3047,386.5,241.3047,396.5,245.3047,392.5,241.3047" style="stroke:#181818;stroke-width:1.0;"/><line style="stroke:#181818;stroke-width:1.0;stroke-dasharray:2.0,2.0;" x1="390.5" x2="574.5" y1="241.3047" y2="241.3047"/><text fill="#000000" font-family="FG Virgil" font-size="13" lengthAdjust="spacing" textLength="46" x="402.5" y="236.5498">courses</text><polygon fill="#181818" points="230.5,265.8281,220.5,269.8281,230.5,273.8281,226.5,269.8281" style="stroke:#181818;stroke-width:1.0;"/><line style="stroke:#181818;stroke-width:1.0;stroke-dasharray:2.0,2.0;" x1="224.5" x2="374.5" y1="269.8281" y2="269.8281"/><text fill="#000000" font-family="FG Virgil" font-size="13" lengthAdjust="spacing" textLength="46" x="236.5" y="265.0732">courses</text><polygon fill="#181818" points="43.5,294.3516,33.5,298.3516,43.5,302.3516,39.5,298.3516" style="stroke:#181818;stroke-width:1.0;"/><line style="stroke:#181818;stroke-width:1.0;stroke-dasharray:2.0,2.0;" x1="37.5" x2="208.5" y1="298.3516" y2="298.3516"/><text fill="#000000" font-family="FG Virgil" font-size="13" lengthAdjust="spacing" textLength="124" x="49.5" y="293.5967">Shows list of courses</text><polygon fill="#181818" points="43.5,322.875,33.5,326.875,43.5,330.875,39.5,326.875" style="stroke:#181818;stroke-width:1.0;"/><line style="stroke:#181818;stroke-width:1.0;stroke-dasharray:2.0,2.0;" x1="37.5" x2="208.5" y1="326.875" y2="326.875"/><text fill="#000000" font-family="FG Virgil" font-size="13" lengthAdjust="spacing" textLength="152" x="49.5" y="322.1201">Asks to select one course</text><polygon fill="#181818" points="197.5,351.3984,207.5,355.3984,197.5,359.3984,201.5,355.3984" style="stroke:#181818;stroke-width:1.0;"/><line style="stroke:#181818;stroke-width:1.0;" x1="32.5" x2="203.5" y1="355.3984" y2="355.3984"/><text fill="#000000" font-family="FG Virgil" font-size="13" lengthAdjust="spacing" textLength="112" x="39.5" y="350.6436">Selects one course</text><polygon fill="#181818" points="363.5,379.9219,373.5,383.9219,363.5,387.9219,367.5,383.9219" style="stroke:#181818;stroke-width:1.0;"/><line style="stroke:#181818;stroke-width:1.0;" x1="219.5" x2="369.5" y1="383.9219" y2="383.9219"/><text fill="#000000" font-family="FG Virgil" font-size="13" lengthAdjust="spacing" textLength="39" x="226.5" y="379.167">course</text><polygon fill="#181818" points="751.5,408.4453,761.5,412.4453,751.5,416.4453,755.5,412.4453" style="stroke:#181818;stroke-width:1.0;"/><line style="stroke:#181818;stroke-width:1.0;" x1="385.5" x2="757.5" y1="412.4453" y2="412.4453"/><text fill="#000000" font-family="FG Virgil" font-size="13" lengthAdjust="spacing" textLength="158" x="392.5" y="407.6904">allExamsByCourse(course)</text><polygon fill="#181818" points="751.5,436.9688,761.5,440.9688,751.5,444.9688,755.5,440.9688" style="stroke:#181818;stroke-width:1.0;"/><line style="stroke:#181818;stroke-width:1.0;" x1="385.5" x2="757.5" y1="440.9688" y2="440.9688"/><text fill="#000000" font-family="FG Virgil" font-size="13" lengthAdjust="spacing" textLength="214" x="392.5" y="436.2139">allFormativeExamsByCourse(course)</text><polygon fill="#181818" points="1109.5,465.4922,1119.5,469.4922,1109.5,473.4922,1113.5,469.4922" style="stroke:#181818;stroke-width:1.0;"/><line style="stroke:#181818;stroke-width:1.0;" x1="773.5" x2="1115.5" y1="469.4922" y2="469.4922"/><text fill="#000000" font-family="FG Virgil" font-size="13" lengthAdjust="spacing" textLength="329" x="780.5" y="464.7373">formativeExams = findFormativeExamsByCourse(course)</text><polygon fill="#181818" points="1109.5,494.0156,1119.5,498.0156,1109.5,502.0156,1113.5,498.0156" style="stroke:#181818;stroke-width:1.0;"/><line style="stroke:#181818;stroke-width:1.0;" x1="773.5" x2="1115.5" y1="498.0156" y2="498.0156"/><text fill="#000000" font-family="FG Virgil" font-size="13" lengthAdjust="spacing" textLength="261" x="780.5" y="493.2607">regularExams = findExamsByCourse(course)</text><polygon fill="#181818" points="784.5,522.5391,774.5,526.5391,784.5,530.5391,780.5,526.5391" style="stroke:#181818;stroke-width:1.0;"/><line style="stroke:#181818;stroke-width:1.0;stroke-dasharray:2.0,2.0;" x1="778.5" x2="1125.5" y1="526.5391" y2="526.5391"/><text fill="#000000" font-family="FG Virgil" font-size="13" lengthAdjust="spacing" textLength="39" x="790.5" y="521.7842">exams</text><polygon fill="#181818" points="396.5,551.0625,386.5,555.0625,396.5,559.0625,392.5,555.0625" style="stroke:#181818;stroke-width:1.0;"/><line style="stroke:#181818;stroke-width:1.0;stroke-dasharray:2.0,2.0;" x1="390.5" x2="767.5" y1="555.0625" y2="555.0625"/><text fill="#000000" font-family="FG Virgil" font-size="13" lengthAdjust="spacing" textLength="39" x="402.5" y="550.3076">exams</text><polygon fill="#181818" points="230.5,579.5859,220.5,583.5859,230.5,587.5859,226.5,583.5859" style="stroke:#181818;stroke-width:1.0;"/><line style="stroke:#181818;stroke-width:1.0;stroke-dasharray:2.0,2.0;" x1="224.5" x2="379.5" y1="583.5859" y2="583.5859"/><text fill="#000000" font-family="FG Virgil" font-size="13" lengthAdjust="spacing" textLength="39" x="236.5" y="578.8311">exams</text><polygon fill="#181818" points="43.5,608.1094,33.5,612.1094,43.5,616.1094,39.5,612.1094" style="stroke:#181818;stroke-width:1.0;"/><line style="stroke:#181818;stroke-width:1.0;stroke-dasharray:2.0,2.0;" x1="37.5" x2="213.5" y1="612.1094" y2="612.1094"/><text fill="#000000" font-family="FG Virgil" font-size="13" lengthAdjust="spacing" textLength="153" x="49.5" y="607.3545">Shows list of future exams</text><!--SRC=[XLDDZvim4BtpA-RMz93D7T58kzkcYjJsK9HUgoaCmOgnaMr8y-yxDWauB9jUejZlOsQUXm-rSsswsRGIbUiQ-LJePcDFGhLei7cgNIEJyGWrgl9iX7Eae49fAS9QB4vufDnT986XmaLOIHLsqksqSZ-m8TXzXL_274NiRMiizLceuzKvmS9f0xdhIb8EqCAplqYOxKGXMkuNlWdhTfth37tvYuqzx3sDVxEiDMHPXavejTq-4hroKqPBISQBerEMOTjAKInvlEhEMFgEYYTkk4vEfXS5UOSYG7bVF3JmfHVbnC2IE2dHuH-q5AG_gTLMS1mNhvdTP9aP3ruPSeFrbfD9m_GmZ1zqrkSiUdJ4SCBPCMyA8ON246EhZnDjGfCeBPPDawU0KWuPsPVBzGbNdIKJ-Opqn505kcUJs27__DltEdT99ixwhbMM391DIbee4lSQieW4Vco-6uBYqhK-Mv0-ALszHtgs9mjEWoN9omvQtOh5UNkpWDkOC4zvx6GMw6qNGfpXiLukGnwhWH-bUUK-SjXfq_0wzRHiTUEox7wXKgZkbF09Ag7A_zYDdTsRFIfZwDX9D76HPUzajl7hQTGq_BdRWVSQc6tw6zrIfBTNVKEEleh3dcbX2UQhL0tVtI2ErOVzFm00]--></g></svg>