<?xml version="1.0" encoding="us-ascii" standalone="no"?><svg xmlns="http://www.w3.org/2000/svg" xmlns:xlink="http://www.w3.org/1999/xlink" contentStyleType="text/css" height="979px" preserveAspectRatio="none" style="width:1459px;height:979px;background:#FFFFFF;" version="1.1" viewBox="0 0 1459 979" width="1459px" zoomAndPan="magnify"><defs/><g><!--cluster presentation--><g id="cluster_presentation"><path d="M488.5,6 L579.5,6 A3.75,3.75 0 0 1 582,8.5 L589,27.6406 L803.5,27.6406 A2.5,2.5 0 0 1 806,30.1406 L806,139.5 A2.5,2.5 0 0 1 803.5,142 L488.5,142 A2.5,2.5 0 0 1 486,139.5 L486,8.5 A2.5,2.5 0 0 1 488.5,6 " fill="#DDDDDD" style="stroke:#000000;stroke-width:1.5;"/><line style="stroke:#000000;stroke-width:1.5;" x1="486" x2="589" y1="27.6406" y2="27.6406"/><text fill="#000000" font-family="sans-serif" font-size="14" font-weight="bold" lengthAdjust="spacing" textLength="90" x="490" y="20.6738">presentation</text></g><!--cluster domain--><g id="cluster_domain"><path d="M691.5,551 L743.5,551 A3.75,3.75 0 0 1 746,553.5 L753,572.6406 L1449.5,572.6406 A2.5,2.5 0 0 1 1452,575.1406 L1452,969.5 A2.5,2.5 0 0 1 1449.5,972 L691.5,972 A2.5,2.5 0 0 1 689,969.5 L689,553.5 A2.5,2.5 0 0 1 691.5,551 " fill="#DBD8AE" style="stroke:#000000;stroke-width:1.5;"/><line style="stroke:#000000;stroke-width:1.5;" x1="689" x2="753" y1="572.6406" y2="572.6406"/><text fill="#000000" font-family="sans-serif" font-size="14" font-weight="bold" lengthAdjust="spacing" textLength="51" x="693" y="565.6738">domain</text></g><!--cluster persistence--><g id="cluster_persistence"><path d="M8.5,589 L93.5,589 A3.75,3.75 0 0 1 96,591.5 L103,610.6406 L612.5,610.6406 A2.5,2.5 0 0 1 615,613.1406 L615,722.5 A2.5,2.5 0 0 1 612.5,725 L8.5,725 A2.5,2.5 0 0 1 6,722.5 L6,591.5 A2.5,2.5 0 0 1 8.5,589 " fill="#DBD8AE" style="stroke:#000000;stroke-width:1.5;"/><line style="stroke:#000000;stroke-width:1.5;" x1="6" x2="103" y1="610.6406" y2="610.6406"/><text fill="#000000" font-family="sans-serif" font-size="14" font-weight="bold" lengthAdjust="spacing" textLength="84" x="10" y="603.6738">persistence</text></g><!--cluster application--><g id="cluster_application"><path d="M123.5,166 L201.5,166 A3.75,3.75 0 0 1 204,168.5 L211,187.6406 L799.5,187.6406 A2.5,2.5 0 0 1 802,190.1406 L802,524.5 A2.5,2.5 0 0 1 799.5,527 L123.5,527 A2.5,2.5 0 0 1 121,524.5 L121,168.5 A2.5,2.5 0 0 1 123.5,166 " fill="#EAF4D3" style="stroke:#000000;stroke-width:1.5;"/><line style="stroke:#000000;stroke-width:1.5;" x1="121" x2="211" y1="187.6406" y2="187.6406"/><text fill="#000000" font-family="sans-serif" font-size="14" font-weight="bold" lengthAdjust="spacing" textLength="77" x="125" y="180.6738">application</text></g><!--class ListFutureExamsUI--><g id="elem_ListFutureExamsUI"><rect codeLine="4" fill="#F1F1F1" height="86.3281" id="ListFutureExamsUI" rx="2.5" ry="2.5" style="stroke:#181818;stroke-width:0.5;" width="287" x="502.5" y="40"/><ellipse cx="583.25" cy="59.5234" fill="#ADD1B2" rx="11" ry="11" style="stroke:#181818;stroke-width:1.0;"/><path d="M586.0156,55.3984 Q586.1719,55.1797 586.3594,55.0703 Q586.5469,54.9609 586.7656,54.9609 Q587.1406,54.9609 587.375,55.2266 Q587.6094,55.4766 587.6094,56.0859 L587.6094,57.5391 Q587.6094,58.1484 587.375,58.4141 Q587.1406,58.6797 586.7656,58.6797 Q586.4219,58.6797 586.2188,58.4766 Q586.0156,58.2891 585.9063,57.7734 Q585.8594,57.4141 585.6719,57.2266 Q585.3438,56.8516 584.7344,56.6328 Q584.125,56.4141 583.5,56.4141 Q582.7344,56.4141 582.0938,56.7422 Q581.4688,57.0703 580.9688,57.8203 Q580.4844,58.5703 580.4844,59.6016 L580.4844,60.6953 Q580.4844,61.9297 581.375,62.7578 Q582.2656,63.5703 583.8594,63.5703 Q584.7969,63.5703 585.4531,63.3203 Q585.8438,63.1641 586.2656,62.7266 Q586.5313,62.4609 586.6719,62.3828 Q586.8281,62.3047 587.0313,62.3047 Q587.3594,62.3047 587.6094,62.5703 Q587.875,62.8203 587.875,63.1641 Q587.875,63.5078 587.5313,63.9141 Q587.0313,64.4922 586.2344,64.8203 Q585.1563,65.2734 583.8594,65.2734 Q582.3438,65.2734 581.1406,64.6484 Q580.1563,64.1484 579.4688,63.0859 Q578.7813,62.0078 578.7813,60.7266 L578.7813,59.5703 Q578.7813,58.2422 579.3906,57.1016 Q580.0156,55.9453 581.1094,55.3359 Q582.2031,54.7109 583.4375,54.7109 Q584.1719,54.7109 584.8125,54.8828 Q585.4688,55.0391 586.0156,55.3984 Z " fill="#000000"/><text fill="#000000" font-family="sans-serif" font-size="12" font-style="italic" lengthAdjust="spacing" textLength="24" x="650.25" y="55.8633">&#171;ui&#187;</text><text fill="#000000" font-family="sans-serif" font-size="14" lengthAdjust="spacing" textLength="117" x="603.75" y="71.0801">ListFutureExamsUI</text><line style="stroke:#181818;stroke-width:0.5;" x1="503.5" x2="788.5" y1="79.0469" y2="79.0469"/><rect fill="none" height="6" style="stroke:#C82930;stroke-width:1.0;" width="6" x="510.5" y="89.3672"/><text fill="#000000" font-family="sans-serif" font-size="14" lengthAdjust="spacing" textLength="261" x="522.5" y="95.7207">theController : ListFutureExamsController</text><line style="stroke:#181818;stroke-width:0.5;" x1="503.5" x2="788.5" y1="102.6875" y2="102.6875"/><ellipse cx="513.5" cy="116.0078" fill="#84BE84" rx="3" ry="3" style="stroke:#038048;stroke-width:1.0;"/><text fill="#000000" font-family="sans-serif" font-size="14" lengthAdjust="spacing" textLength="60" x="522.5" y="119.3613">doShow()</text></g><!--class Exam--><g id="elem_Exam"><rect codeLine="11" fill="#F1F1F1" height="162.2969" id="Exam" rx="2.5" ry="2.5" style="stroke:#181818;stroke-width:0.5;" width="456" x="705" y="585"/><ellipse cx="883.75" cy="611.2266" fill="#ADD1B2" rx="11" ry="11" style="stroke:#181818;stroke-width:1.0;"/><path d="M886.5156,607.1016 Q886.6719,606.8828 886.8594,606.7734 Q887.0469,606.6641 887.2656,606.6641 Q887.6406,606.6641 887.875,606.9297 Q888.1094,607.1797 888.1094,607.7891 L888.1094,609.2422 Q888.1094,609.8516 887.875,610.1172 Q887.6406,610.3828 887.2656,610.3828 Q886.9219,610.3828 886.7188,610.1797 Q886.5156,609.9922 886.4063,609.4766 Q886.3594,609.1172 886.1719,608.9297 Q885.8438,608.5547 885.2344,608.3359 Q884.625,608.1172 884,608.1172 Q883.2344,608.1172 882.5938,608.4453 Q881.9688,608.7734 881.4688,609.5234 Q880.9844,610.2734 880.9844,611.3047 L880.9844,612.3984 Q880.9844,613.6328 881.875,614.4609 Q882.7656,615.2734 884.3594,615.2734 Q885.2969,615.2734 885.9531,615.0234 Q886.3438,614.8672 886.7656,614.4297 Q887.0313,614.1641 887.1719,614.0859 Q887.3281,614.0078 887.5313,614.0078 Q887.8594,614.0078 888.1094,614.2734 Q888.375,614.5234 888.375,614.8672 Q888.375,615.2109 888.0313,615.6172 Q887.5313,616.1953 886.7344,616.5234 Q885.6563,616.9766 884.3594,616.9766 Q882.8438,616.9766 881.6406,616.3516 Q880.6563,615.8516 879.9688,614.7891 Q879.2813,613.7109 879.2813,612.4297 L879.2813,611.2734 Q879.2813,609.9453 879.8906,608.8047 Q880.5156,607.6484 881.6094,607.0391 Q882.7031,606.4141 883.9375,606.4141 Q884.6719,606.4141 885.3125,606.5859 Q885.9688,606.7422 886.5156,607.1016 Z " fill="#000000"/><text fill="#000000" font-family="sans-serif" font-size="12" font-style="italic" lengthAdjust="spacing" textLength="94" x="902.25" y="600.8633">&#171;aggregate root&#187;</text><text fill="#000000" font-family="sans-serif" font-size="12" font-style="italic" lengthAdjust="spacing" textLength="43" x="927.75" y="614.2695">&#171;entity&#187;</text><text fill="#000000" font-family="sans-serif" font-size="14" lengthAdjust="spacing" textLength="34" x="932.25" y="629.4863">Exam</text><line style="stroke:#181818;stroke-width:0.5;" x1="706" x2="1160" y1="637.4531" y2="637.4531"/><rect fill="none" height="6" style="stroke:#C82930;stroke-width:1.0;" width="6" x="713" y="647.7734"/><text fill="#000000" font-family="sans-serif" font-size="14" lengthAdjust="spacing" textLength="133" x="725" y="654.127">examTitle : ExamTitle</text><rect fill="none" height="6" style="stroke:#C82930;stroke-width:1.0;" width="6" x="713" y="663.4141"/><text fill="#000000" font-family="sans-serif" font-size="14" lengthAdjust="spacing" textLength="221" x="725" y="669.7676">examDescription : ExamDescription</text><rect fill="none" height="6" style="stroke:#C82930;stroke-width:1.0;" width="6" x="713" y="679.0547"/><text fill="#000000" font-family="sans-serif" font-size="14" lengthAdjust="spacing" textLength="153" x="725" y="685.4082">examDates : ExamDates</text><rect fill="none" height="6" style="stroke:#C82930;stroke-width:1.0;" width="6" x="713" y="694.6953"/><text fill="#000000" font-family="sans-serif" font-size="14" lengthAdjust="spacing" textLength="171" x="725" y="701.0488">examHeader : ExamHeader</text><rect fill="none" height="6" style="stroke:#C82930;stroke-width:1.0;" width="6" x="713" y="710.3359"/><text fill="#000000" font-family="sans-serif" font-size="14" lengthAdjust="spacing" textLength="142" x="725" y="716.6895">section : List&lt;Section&gt;</text><line style="stroke:#181818;stroke-width:0.5;" x1="706" x2="1160" y1="723.6563" y2="723.6563"/><ellipse cx="716" cy="736.9766" fill="#84BE84" rx="3" ry="3" style="stroke:#038048;stroke-width:1.0;"/><text fill="#000000" font-family="sans-serif" font-size="14" lengthAdjust="spacing" textLength="430" x="725" y="740.3301">Exam(examTitle, examDates, examDescription, section,examHeader)</text></g><!--class AutomaticFormativeExam--><g id="elem_AutomaticFormativeExam"><rect codeLine="20" fill="#F1F1F1" height="148.8906" id="AutomaticFormativeExam" rx="2.5" ry="2.5" style="stroke:#181818;stroke-width:0.5;" width="592" x="705" y="807"/><ellipse cx="917.25" cy="826.5234" fill="#ADD1B2" rx="11" ry="11" style="stroke:#181818;stroke-width:1.0;"/><path d="M920.0156,822.3984 Q920.1719,822.1797 920.3594,822.0703 Q920.5469,821.9609 920.7656,821.9609 Q921.1406,821.9609 921.375,822.2266 Q921.6094,822.4766 921.6094,823.0859 L921.6094,824.5391 Q921.6094,825.1484 921.375,825.4141 Q921.1406,825.6797 920.7656,825.6797 Q920.4219,825.6797 920.2188,825.4766 Q920.0156,825.2891 919.9063,824.7734 Q919.8594,824.4141 919.6719,824.2266 Q919.3438,823.8516 918.7344,823.6328 Q918.125,823.4141 917.5,823.4141 Q916.7344,823.4141 916.0938,823.7422 Q915.4688,824.0703 914.9688,824.8203 Q914.4844,825.5703 914.4844,826.6016 L914.4844,827.6953 Q914.4844,828.9297 915.375,829.7578 Q916.2656,830.5703 917.8594,830.5703 Q918.7969,830.5703 919.4531,830.3203 Q919.8438,830.1641 920.2656,829.7266 Q920.5313,829.4609 920.6719,829.3828 Q920.8281,829.3047 921.0313,829.3047 Q921.3594,829.3047 921.6094,829.5703 Q921.875,829.8203 921.875,830.1641 Q921.875,830.5078 921.5313,830.9141 Q921.0313,831.4922 920.2344,831.8203 Q919.1563,832.2734 917.8594,832.2734 Q916.3438,832.2734 915.1406,831.6484 Q914.1563,831.1484 913.4688,830.0859 Q912.7813,829.0078 912.7813,827.7266 L912.7813,826.5703 Q912.7813,825.2422 913.3906,824.1016 Q914.0156,822.9453 915.1094,822.3359 Q916.2031,821.7109 917.4375,821.7109 Q918.1719,821.7109 918.8125,821.8828 Q919.4688,822.0391 920.0156,822.3984 Z " fill="#000000"/><text fill="#000000" font-family="sans-serif" font-size="12" font-style="italic" lengthAdjust="spacing" textLength="43" x="995.75" y="822.8633">&#171;entity&#187;</text><text fill="#000000" font-family="sans-serif" font-size="14" lengthAdjust="spacing" textLength="159" x="937.75" y="838.0801">AutomaticFormativeExam</text><line style="stroke:#181818;stroke-width:0.5;" x1="706" x2="1296" y1="846.0469" y2="846.0469"/><rect fill="none" height="6" style="stroke:#C82930;stroke-width:1.0;" width="6" x="713" y="856.3672"/><text fill="#000000" font-family="sans-serif" font-size="14" lengthAdjust="spacing" textLength="133" x="725" y="862.7207">examTitle : ExamTitle</text><rect fill="none" height="6" style="stroke:#C82930;stroke-width:1.0;" width="6" x="713" y="872.0078"/><text fill="#000000" font-family="sans-serif" font-size="14" lengthAdjust="spacing" textLength="221" x="725" y="878.3613">examDescription : ExamDescription</text><rect fill="none" height="6" style="stroke:#C82930;stroke-width:1.0;" width="6" x="713" y="887.6484"/><text fill="#000000" font-family="sans-serif" font-size="14" lengthAdjust="spacing" textLength="142" x="725" y="894.002">section : List&lt;Section&gt;</text><rect fill="none" height="6" style="stroke:#C82930;stroke-width:1.0;" width="6" x="713" y="903.2891"/><text fill="#000000" font-family="sans-serif" font-size="14" lengthAdjust="spacing" textLength="171" x="725" y="909.6426">examHeader : ExamHeader</text><rect fill="none" height="6" style="stroke:#C82930;stroke-width:1.0;" width="6" x="713" y="918.9297"/><text fill="#000000" font-family="sans-serif" font-size="14" lengthAdjust="spacing" textLength="169" x="725" y="925.2832">courseCode : CourseCode</text><line style="stroke:#181818;stroke-width:0.5;" x1="706" x2="1296" y1="932.25" y2="932.25"/><ellipse cx="716" cy="945.5703" fill="#84BE84" rx="3" ry="3" style="stroke:#038048;stroke-width:1.0;"/><text fill="#000000" font-family="sans-serif" font-size="14" lengthAdjust="spacing" textLength="566" x="725" y="948.9238">AutomaticFormativeExam(examTitle, examDescription, section, examHeader, courseCode)</text></g><!--class ExamDates--><g id="elem_ExamDates"><rect codeLine="29" fill="#F1F1F1" height="101.9688" id="ExamDates" rx="2.5" ry="2.5" style="stroke:#181818;stroke-width:0.5;" width="240" x="1196" y="615"/><ellipse cx="1273.25" cy="634.5234" fill="#ADD1B2" rx="11" ry="11" style="stroke:#181818;stroke-width:1.0;"/><path d="M1276.0156,630.3984 Q1276.1719,630.1797 1276.3594,630.0703 Q1276.5469,629.9609 1276.7656,629.9609 Q1277.1406,629.9609 1277.375,630.2266 Q1277.6094,630.4766 1277.6094,631.0859 L1277.6094,632.5391 Q1277.6094,633.1484 1277.375,633.4141 Q1277.1406,633.6797 1276.7656,633.6797 Q1276.4219,633.6797 1276.2188,633.4766 Q1276.0156,633.2891 1275.9063,632.7734 Q1275.8594,632.4141 1275.6719,632.2266 Q1275.3438,631.8516 1274.7344,631.6328 Q1274.125,631.4141 1273.5,631.4141 Q1272.7344,631.4141 1272.0938,631.7422 Q1271.4688,632.0703 1270.9688,632.8203 Q1270.4844,633.5703 1270.4844,634.6016 L1270.4844,635.6953 Q1270.4844,636.9297 1271.375,637.7578 Q1272.2656,638.5703 1273.8594,638.5703 Q1274.7969,638.5703 1275.4531,638.3203 Q1275.8438,638.1641 1276.2656,637.7266 Q1276.5313,637.4609 1276.6719,637.3828 Q1276.8281,637.3047 1277.0313,637.3047 Q1277.3594,637.3047 1277.6094,637.5703 Q1277.875,637.8203 1277.875,638.1641 Q1277.875,638.5078 1277.5313,638.9141 Q1277.0313,639.4922 1276.2344,639.8203 Q1275.1563,640.2734 1273.8594,640.2734 Q1272.3438,640.2734 1271.1406,639.6484 Q1270.1563,639.1484 1269.4688,638.0859 Q1268.7813,637.0078 1268.7813,635.7266 L1268.7813,634.5703 Q1268.7813,633.2422 1269.3906,632.1016 Q1270.0156,630.9453 1271.1094,630.3359 Q1272.2031,629.7109 1273.4375,629.7109 Q1274.1719,629.7109 1274.8125,629.8828 Q1275.4688,630.0391 1276.0156,630.3984 Z " fill="#000000"/><text fill="#000000" font-family="sans-serif" font-size="12" font-style="italic" lengthAdjust="spacing" textLength="81" x="1291.75" y="630.8633">&#171;value object&#187;</text><text fill="#000000" font-family="sans-serif" font-size="14" lengthAdjust="spacing" textLength="71" x="1296.75" y="646.0801">ExamDates</text><line style="stroke:#181818;stroke-width:0.5;" x1="1197" x2="1435" y1="654.0469" y2="654.0469"/><rect fill="none" height="6" style="stroke:#C82930;stroke-width:1.0;" width="6" x="1204" y="664.3672"/><text fill="#000000" font-family="sans-serif" font-size="14" lengthAdjust="spacing" textLength="132" x="1216" y="670.7207">openDate : Calendar</text><rect fill="none" height="6" style="stroke:#C82930;stroke-width:1.0;" width="6" x="1204" y="680.0078"/><text fill="#000000" font-family="sans-serif" font-size="14" lengthAdjust="spacing" textLength="133" x="1216" y="686.3613">closeDate : Calendar</text><line style="stroke:#181818;stroke-width:0.5;" x1="1197" x2="1435" y1="693.3281" y2="693.3281"/><ellipse cx="1207" cy="706.6484" fill="#84BE84" rx="3" ry="3" style="stroke:#038048;stroke-width:1.0;"/><text fill="#000000" font-family="sans-serif" font-size="14" lengthAdjust="spacing" textLength="214" x="1216" y="710.002">ExamDates(openDate, closeDate)</text></g><!--class CourseRepository--><g id="elem_CourseRepository"><rect codeLine="39" fill="#F1F1F1" height="70.6875" id="CourseRepository" rx="2.5" ry="2.5" style="stroke:#181818;stroke-width:0.5;" width="288" x="22" y="630.5"/><ellipse cx="104.75" cy="650.0234" fill="#B4A7E5" rx="11" ry="11" style="stroke:#181818;stroke-width:1.0;"/><path d="M105.7031,646.6641 L105.7031,653.3203 L107.4219,653.3203 Q108.0313,653.3203 108.2969,653.5547 Q108.5625,653.7891 108.5625,654.1797 Q108.5625,654.5547 108.2969,654.7891 Q108.0313,655.0234 107.4219,655.0234 L102.2813,655.0234 Q101.6719,655.0234 101.4063,654.7891 Q101.1406,654.5547 101.1406,654.1641 Q101.1406,653.7891 101.4063,653.5547 Q101.6719,653.3203 102.2813,653.3203 L104,653.3203 L104,646.6641 L102.2813,646.6641 Q101.6719,646.6641 101.4063,646.4297 Q101.1406,646.1953 101.1406,645.8047 Q101.1406,645.4297 101.4063,645.1953 Q101.6719,644.9609 102.2813,644.9609 L107.4219,644.9609 Q108.0313,644.9609 108.2969,645.1953 Q108.5625,645.4297 108.5625,645.8047 Q108.5625,646.1953 108.2969,646.4297 Q108.0313,646.6641 107.4219,646.6641 L105.7031,646.6641 Z " fill="#000000"/><text fill="#000000" font-family="sans-serif" font-size="12" font-style="italic" lengthAdjust="spacing" textLength="68" x="148.25" y="646.3633">&#171;repository&#187;</text><text fill="#000000" font-family="sans-serif" font-size="14" font-style="italic" lengthAdjust="spacing" textLength="114" x="125.25" y="661.5801">CourseRepository</text><line style="stroke:#181818;stroke-width:0.5;" x1="23" x2="309" y1="669.5469" y2="669.5469"/><line style="stroke:#181818;stroke-width:0.5;" x1="23" x2="309" y1="677.5469" y2="677.5469"/><text fill="#000000" font-family="sans-serif" font-size="14" lengthAdjust="spacing" textLength="276" x="28" y="694.2207">findByAcceptedStatusAndSystemUser(user)</text></g><!--class ExamRepository--><g id="elem_ExamRepository"><rect codeLine="43" fill="#F1F1F1" height="86.3281" id="ExamRepository" rx="2.5" ry="2.5" style="stroke:#181818;stroke-width:0.5;" width="254" x="345" y="623"/><ellipse cx="416.75" cy="642.5234" fill="#B4A7E5" rx="11" ry="11" style="stroke:#181818;stroke-width:1.0;"/><path d="M417.7031,639.1641 L417.7031,645.8203 L419.4219,645.8203 Q420.0313,645.8203 420.2969,646.0547 Q420.5625,646.2891 420.5625,646.6797 Q420.5625,647.0547 420.2969,647.2891 Q420.0313,647.5234 419.4219,647.5234 L414.2813,647.5234 Q413.6719,647.5234 413.4063,647.2891 Q413.1406,647.0547 413.1406,646.6641 Q413.1406,646.2891 413.4063,646.0547 Q413.6719,645.8203 414.2813,645.8203 L416,645.8203 L416,639.1641 L414.2813,639.1641 Q413.6719,639.1641 413.4063,638.9297 Q413.1406,638.6953 413.1406,638.3047 Q413.1406,637.9297 413.4063,637.6953 Q413.6719,637.4609 414.2813,637.4609 L419.4219,637.4609 Q420.0313,637.4609 420.2969,637.6953 Q420.5625,637.9297 420.5625,638.3047 Q420.5625,638.6953 420.2969,638.9297 Q420.0313,639.1641 419.4219,639.1641 L417.7031,639.1641 Z " fill="#000000"/><text fill="#000000" font-family="sans-serif" font-size="12" font-style="italic" lengthAdjust="spacing" textLength="68" x="454.25" y="638.8633">&#171;repository&#187;</text><text fill="#000000" font-family="sans-serif" font-size="14" font-style="italic" lengthAdjust="spacing" textLength="102" x="437.25" y="654.0801">ExamRepository</text><line style="stroke:#181818;stroke-width:0.5;" x1="346" x2="598" y1="662.0469" y2="662.0469"/><line style="stroke:#181818;stroke-width:0.5;" x1="346" x2="598" y1="670.0469" y2="670.0469"/><text fill="#000000" font-family="sans-serif" font-size="14" lengthAdjust="spacing" textLength="234" x="351" y="686.7207">findExamsByCourseAndDate(course)</text><text fill="#000000" font-family="sans-serif" font-size="14" lengthAdjust="spacing" textLength="242" x="351" y="702.3613">findFormativeExamsByCourse(course)</text></g><!--class ListFutureExamsController--><g id="elem_ListFutureExamsController"><rect codeLine="51" fill="#F1F1F1" height="148.8906" id="ListFutureExamsController" rx="2.5" ry="2.5" style="stroke:#181818;stroke-width:0.5;" width="279" x="506.5" y="200"/><ellipse cx="558.25" cy="219.5234" fill="#ADD1B2" rx="11" ry="11" style="stroke:#181818;stroke-width:1.0;"/><path d="M561.0156,215.3984 Q561.1719,215.1797 561.3594,215.0703 Q561.5469,214.9609 561.7656,214.9609 Q562.1406,214.9609 562.375,215.2266 Q562.6094,215.4766 562.6094,216.0859 L562.6094,217.5391 Q562.6094,218.1484 562.375,218.4141 Q562.1406,218.6797 561.7656,218.6797 Q561.4219,218.6797 561.2188,218.4766 Q561.0156,218.2891 560.9063,217.7734 Q560.8594,217.4141 560.6719,217.2266 Q560.3438,216.8516 559.7344,216.6328 Q559.125,216.4141 558.5,216.4141 Q557.7344,216.4141 557.0938,216.7422 Q556.4688,217.0703 555.9688,217.8203 Q555.4844,218.5703 555.4844,219.6016 L555.4844,220.6953 Q555.4844,221.9297 556.375,222.7578 Q557.2656,223.5703 558.8594,223.5703 Q559.7969,223.5703 560.4531,223.3203 Q560.8438,223.1641 561.2656,222.7266 Q561.5313,222.4609 561.6719,222.3828 Q561.8281,222.3047 562.0313,222.3047 Q562.3594,222.3047 562.6094,222.5703 Q562.875,222.8203 562.875,223.1641 Q562.875,223.5078 562.5313,223.9141 Q562.0313,224.4922 561.2344,224.8203 Q560.1563,225.2734 558.8594,225.2734 Q557.3438,225.2734 556.1406,224.6484 Q555.1563,224.1484 554.4688,223.0859 Q553.7813,222.0078 553.7813,220.7266 L553.7813,219.5703 Q553.7813,218.2422 554.3906,217.1016 Q555.0156,215.9453 556.1094,215.3359 Q557.2031,214.7109 558.4375,214.7109 Q559.1719,214.7109 559.8125,214.8828 Q560.4688,215.0391 561.0156,215.3984 Z " fill="#000000"/><text fill="#000000" font-family="sans-serif" font-size="12" font-style="italic" lengthAdjust="spacing" textLength="65" x="629.75" y="215.8633">&#171;controller&#187;</text><text fill="#000000" font-family="sans-serif" font-size="14" lengthAdjust="spacing" textLength="167" x="578.75" y="231.0801">ListFutureExamsController</text><line style="stroke:#181818;stroke-width:0.5;" x1="507.5" x2="784.5" y1="239.0469" y2="239.0469"/><rect fill="none" height="6" style="stroke:#C82930;stroke-width:1.0;" width="6" x="514.5" y="249.3672"/><text fill="#000000" font-family="sans-serif" font-size="14" lengthAdjust="spacing" textLength="175" x="526.5" y="255.7207">authz : AuthorizationService</text><rect fill="none" height="6" style="stroke:#C82930;stroke-width:1.0;" width="6" x="514.5" y="265.0078"/><text fill="#000000" font-family="sans-serif" font-size="14" lengthAdjust="spacing" textLength="253" x="526.5" y="271.3613">courseSvc : CourseManagementService</text><rect fill="none" height="6" style="stroke:#C82930;stroke-width:1.0;" width="6" x="514.5" y="280.6484"/><text fill="#000000" font-family="sans-serif" font-size="14" lengthAdjust="spacing" textLength="231" x="526.5" y="287.002">examSvc : ExamManagementService</text><line style="stroke:#181818;stroke-width:0.5;" x1="507.5" x2="784.5" y1="293.9688" y2="293.9688"/><ellipse cx="517.5" cy="307.2891" fill="#84BE84" rx="3" ry="3" style="stroke:#038048;stroke-width:1.0;"/><text fill="#000000" font-family="sans-serif" font-size="14" lengthAdjust="spacing" textLength="142" x="526.5" y="310.6426">allCoursesByStudent()</text><ellipse cx="517.5" cy="322.9297" fill="#84BE84" rx="3" ry="3" style="stroke:#038048;stroke-width:1.0;"/><text fill="#000000" font-family="sans-serif" font-size="14" lengthAdjust="spacing" textLength="170" x="526.5" y="326.2832">allExamsByCourse(course)</text><ellipse cx="517.5" cy="338.5703" fill="#84BE84" rx="3" ry="3" style="stroke:#038048;stroke-width:1.0;"/><text fill="#000000" font-family="sans-serif" font-size="14" lengthAdjust="spacing" textLength="233" x="526.5" y="341.9238">allFormativeExamsByCourse(course)</text></g><!--class CourseManagementService--><g id="elem_CourseManagementService"><rect codeLine="60" fill="#F1F1F1" height="86.3281" id="CourseManagementService" rx="2.5" ry="2.5" style="stroke:#181818;stroke-width:0.5;" width="346" x="137" y="417"/><ellipse cx="218.25" cy="436.5234" fill="#ADD1B2" rx="11" ry="11" style="stroke:#181818;stroke-width:1.0;"/><path d="M221.0156,432.3984 Q221.1719,432.1797 221.3594,432.0703 Q221.5469,431.9609 221.7656,431.9609 Q222.1406,431.9609 222.375,432.2266 Q222.6094,432.4766 222.6094,433.0859 L222.6094,434.5391 Q222.6094,435.1484 222.375,435.4141 Q222.1406,435.6797 221.7656,435.6797 Q221.4219,435.6797 221.2188,435.4766 Q221.0156,435.2891 220.9063,434.7734 Q220.8594,434.4141 220.6719,434.2266 Q220.3438,433.8516 219.7344,433.6328 Q219.125,433.4141 218.5,433.4141 Q217.7344,433.4141 217.0938,433.7422 Q216.4688,434.0703 215.9688,434.8203 Q215.4844,435.5703 215.4844,436.6016 L215.4844,437.6953 Q215.4844,438.9297 216.375,439.7578 Q217.2656,440.5703 218.8594,440.5703 Q219.7969,440.5703 220.4531,440.3203 Q220.8438,440.1641 221.2656,439.7266 Q221.5313,439.4609 221.6719,439.3828 Q221.8281,439.3047 222.0313,439.3047 Q222.3594,439.3047 222.6094,439.5703 Q222.875,439.8203 222.875,440.1641 Q222.875,440.5078 222.5313,440.9141 Q222.0313,441.4922 221.2344,441.8203 Q220.1563,442.2734 218.8594,442.2734 Q217.3438,442.2734 216.1406,441.6484 Q215.1563,441.1484 214.4688,440.0859 Q213.7813,439.0078 213.7813,437.7266 L213.7813,436.5703 Q213.7813,435.2422 214.3906,434.1016 Q215.0156,432.9453 216.1094,432.3359 Q217.2031,431.7109 218.4375,431.7109 Q219.1719,431.7109 219.8125,431.8828 Q220.4688,432.0391 221.0156,432.3984 Z " fill="#000000"/><text fill="#000000" font-family="sans-serif" font-size="12" font-style="italic" lengthAdjust="spacing" textLength="53" x="299.75" y="432.8633">&#171;service&#187;</text><text fill="#000000" font-family="sans-serif" font-size="14" lengthAdjust="spacing" textLength="175" x="238.75" y="448.0801">CourseManagementService</text><line style="stroke:#181818;stroke-width:0.5;" x1="138" x2="482" y1="456.0469" y2="456.0469"/><rect fill="none" height="6" style="stroke:#C82930;stroke-width:1.0;" width="6" x="145" y="466.3672"/><text fill="#000000" font-family="sans-serif" font-size="14" lengthAdjust="spacing" textLength="237" x="157" y="472.7207">courseRepository : CourseRepository</text><line style="stroke:#181818;stroke-width:0.5;" x1="138" x2="482" y1="479.6875" y2="479.6875"/><ellipse cx="148" cy="493.0078" fill="#84BE84" rx="3" ry="3" style="stroke:#038048;stroke-width:1.0;"/><text fill="#000000" font-family="sans-serif" font-size="14" lengthAdjust="spacing" textLength="320" x="157" y="496.3613">allCoursesByAcceptedStatusAndSystemUser(user)</text></g><!--class ExamManagementService--><g id="elem_ExamManagementService"><rect codeLine="65" fill="#F1F1F1" height="101.9688" id="ExamManagementService" rx="2.5" ry="2.5" style="stroke:#181818;stroke-width:0.5;" width="268" x="518" y="409"/><ellipse cx="566.25" cy="428.5234" fill="#ADD1B2" rx="11" ry="11" style="stroke:#181818;stroke-width:1.0;"/><path d="M569.0156,424.3984 Q569.1719,424.1797 569.3594,424.0703 Q569.5469,423.9609 569.7656,423.9609 Q570.1406,423.9609 570.375,424.2266 Q570.6094,424.4766 570.6094,425.0859 L570.6094,426.5391 Q570.6094,427.1484 570.375,427.4141 Q570.1406,427.6797 569.7656,427.6797 Q569.4219,427.6797 569.2188,427.4766 Q569.0156,427.2891 568.9063,426.7734 Q568.8594,426.4141 568.6719,426.2266 Q568.3438,425.8516 567.7344,425.6328 Q567.125,425.4141 566.5,425.4141 Q565.7344,425.4141 565.0938,425.7422 Q564.4688,426.0703 563.9688,426.8203 Q563.4844,427.5703 563.4844,428.6016 L563.4844,429.6953 Q563.4844,430.9297 564.375,431.7578 Q565.2656,432.5703 566.8594,432.5703 Q567.7969,432.5703 568.4531,432.3203 Q568.8438,432.1641 569.2656,431.7266 Q569.5313,431.4609 569.6719,431.3828 Q569.8281,431.3047 570.0313,431.3047 Q570.3594,431.3047 570.6094,431.5703 Q570.875,431.8203 570.875,432.1641 Q570.875,432.5078 570.5313,432.9141 Q570.0313,433.4922 569.2344,433.8203 Q568.1563,434.2734 566.8594,434.2734 Q565.3438,434.2734 564.1406,433.6484 Q563.1563,433.1484 562.4688,432.0859 Q561.7813,431.0078 561.7813,429.7266 L561.7813,428.5703 Q561.7813,427.2422 562.3906,426.1016 Q563.0156,424.9453 564.1094,424.3359 Q565.2031,423.7109 566.4375,423.7109 Q567.1719,423.7109 567.8125,423.8828 Q568.4688,424.0391 569.0156,424.3984 Z " fill="#000000"/><text fill="#000000" font-family="sans-serif" font-size="12" font-style="italic" lengthAdjust="spacing" textLength="53" x="641.75" y="424.8633">&#171;service&#187;</text><text fill="#000000" font-family="sans-serif" font-size="14" lengthAdjust="spacing" textLength="163" x="586.75" y="440.0801">ExamManagementService</text><line style="stroke:#181818;stroke-width:0.5;" x1="519" x2="785" y1="448.0469" y2="448.0469"/><rect fill="none" height="6" style="stroke:#C82930;stroke-width:1.0;" width="6" x="526" y="458.3672"/><text fill="#000000" font-family="sans-serif" font-size="14" lengthAdjust="spacing" textLength="215" x="538" y="464.7207">examRepository : ExamRepository</text><line style="stroke:#181818;stroke-width:0.5;" x1="519" x2="785" y1="471.6875" y2="471.6875"/><ellipse cx="529" cy="485.0078" fill="#84BE84" rx="3" ry="3" style="stroke:#038048;stroke-width:1.0;"/><text fill="#000000" font-family="sans-serif" font-size="14" lengthAdjust="spacing" textLength="234" x="538" y="488.3613">findExamsByCourseAndDate(course)</text><ellipse cx="529" cy="500.6484" fill="#84BE84" rx="3" ry="3" style="stroke:#038048;stroke-width:1.0;"/><text fill="#000000" font-family="sans-serif" font-size="14" lengthAdjust="spacing" textLength="242" x="538" y="504.002">findFormativeExamsByCourse(course)</text></g><!--link ListFutureExamsUI to ListFutureExamsController--><g id="link_ListFutureExamsUI_ListFutureExamsController"><path codeLine="72" d="M646,126.06 C646,146.31 646,171.28 646,194.88 " fill="none" id="ListFutureExamsUI-to-ListFutureExamsController" style="stroke:#181818;stroke-width:1.0;stroke-dasharray:7.0,7.0;"/><polygon fill="#181818" points="646,199.89,650,190.89,646,194.89,642,190.89,646,199.89" style="stroke:#181818;stroke-width:1.0;"/></g><!--link ListFutureExamsController to CourseManagementService--><g id="link_ListFutureExamsController_CourseManagementService"><path codeLine="73" d="M511.27,349.08 C470.91,371.12 427.88,394.62 392.01,414.21 " fill="none" id="ListFutureExamsController-to-CourseManagementService" style="stroke:#181818;stroke-width:1.0;stroke-dasharray:7.0,7.0;"/><polygon fill="#181818" points="387.22,416.83,397.0354,416.0185,391.6062,414.4297,393.1949,409.0006,387.22,416.83" style="stroke:#181818;stroke-width:1.0;"/></g><!--link ListFutureExamsController to ExamManagementService--><g id="link_ListFutureExamsController_ExamManagementService"><path codeLine="74" d="M648.41,349.08 C649,367.24 649.63,386.39 650.19,403.53 " fill="none" id="ListFutureExamsController-to-ExamManagementService" style="stroke:#181818;stroke-width:1.0;stroke-dasharray:7.0,7.0;"/><polygon fill="#181818" points="650.36,408.78,654.0745,399.6585,650.2025,403.7825,646.0785,399.9105,650.36,408.78" style="stroke:#181818;stroke-width:1.0;"/></g><!--link CourseManagementService to CourseRepository--><g id="link_CourseManagementService_CourseRepository"><path codeLine="75" d="M280.16,503.27 C254.67,539.38 218.3,590.91 193.5,626.04 " fill="none" id="CourseManagementService-to-CourseRepository" style="stroke:#181818;stroke-width:1.0;stroke-dasharray:7.0,7.0;"/><polygon fill="#181818" points="190.54,630.24,198.9994,625.1963,193.4245,626.156,192.4649,620.5811,190.54,630.24" style="stroke:#181818;stroke-width:1.0;"/></g><!--link ExamManagementService to Exam--><g id="link_ExamManagementService_Exam"><path codeLine="76" d="M721.1,511.17 C750.42,532.45 785.38,557.83 818.37,581.78 " fill="none" id="ExamManagementService-to-Exam" style="stroke:#181818;stroke-width:1.0;stroke-dasharray:7.0,7.0;"/><polygon fill="#181818" points="822.8,585,817.8776,576.4694,818.7576,582.0574,813.1696,582.9374,822.8,585" style="stroke:#181818;stroke-width:1.0;"/></g><!--link ExamManagementService to ExamRepository--><g id="link_ExamManagementService_ExamRepository"><path codeLine="77" d="M607.74,511.17 C578.63,544.15 540.83,587 512.51,619.09 " fill="none" id="ExamManagementService-to-ExamRepository" style="stroke:#181818;stroke-width:1.0;stroke-dasharray:7.0,7.0;"/><polygon fill="#181818" points="509.11,622.95,518.0634,618.8468,512.4176,619.2004,512.0641,613.5546,509.11,622.95" style="stroke:#181818;stroke-width:1.0;"/></g><!--link ExamRepository to Exam--><g id="link_ExamRepository_Exam"><path codeLine="78" d="M599.41,666 C632.8,666 666.2,666 699.6,666 " fill="none" id="ExamRepository-to-Exam" style="stroke:#181818;stroke-width:1.0;"/><polygon fill="#181818" points="704.96,666,695.96,662,699.96,666,695.96,670,704.96,666" style="stroke:#181818;stroke-width:1.0;"/></g><!--link ListFutureExamsController to Exam--><g id="link_ListFutureExamsController_Exam"><path codeLine="79" d="M745.83,349.27 C766.57,367.37 787.21,387.71 804,409 C844.92,460.86 878.09,527.77 900.54,580.18 " fill="none" id="ListFutureExamsController-to-Exam" style="stroke:#181818;stroke-width:1.0;stroke-dasharray:7.0,7.0;"/><polygon fill="#181818" points="902.55,584.89,902.7072,575.0424,900.5925,580.2891,895.3458,578.1744,902.55,584.89" style="stroke:#181818;stroke-width:1.0;"/></g><!--link Exam to ExamDates--><g id="link_Exam_ExamDates"><path codeLine="80" d="M1161.15,666 C1171.03,666 1180.9,666 1190.77,666 " fill="none" id="Exam-to-ExamDates" style="stroke:#181818;stroke-width:1.0;"/><polygon fill="#181818" points="1195.93,666,1186.93,662,1190.93,666,1186.93,670,1195.93,666" style="stroke:#181818;stroke-width:1.0;"/></g><!--reverse link Exam to AutomaticFormativeExam--><g id="link_Exam_AutomaticFormativeExam"><path codeLine="81" d="M964.62,766.28 C968.99,779.99 973.41,793.86 977.59,806.99 " fill="none" id="Exam-backto-AutomaticFormativeExam" style="stroke:#181818;stroke-width:1.0;"/><polygon fill="none" points="957.91,768.29,958.51,747.11,971.25,764.04,957.91,768.29" style="stroke:#181818;stroke-width:1.0;"/></g><!--link ExamManagementService to AutomaticFormativeExam--><g id="link_ExamManagementService_AutomaticFormativeExam"><path codeLine="82" d="M644.09,511.24 C637.24,573.09 635.33,678.36 687,747 C704.02,769.61 725.63,788.43 749.51,804.09 " fill="none" id="ExamManagementService-to-AutomaticFormativeExam" style="stroke:#181818;stroke-width:1.0;stroke-dasharray:7.0,7.0;"/><polygon fill="#181818" points="753.99,806.98,748.6022,798.7355,749.7906,804.2661,744.26,805.4545,753.99,806.98" style="stroke:#181818;stroke-width:1.0;"/></g><!--SRC=[hLLDZziW4BtdLw3jeLdbwz0UgYYobDtDgfNQIztz0InC4bhRM83JPjlzxnri38vZMpviBW7FO-RDum7lZyRaUhrQvGdDJ94cIoRJ5KkerWikw47HT3B9AVj53q1kSWKQCaEDaDaDUVTG_lvE2FxA9UIhqEQnC8M2tH-QwgSlPBCfH1HLc0KnHxYNcL4oIK2HTHiVOYL-HhYCZ_BtzBQSlavU6rouJAcmBFWp_qIXoSBcmiBqS51me0Q8aj944Nv2yiASFHz0u0zX4a0gkteSGW-WcHAvxTO16byQC2oXQu0TXz1deBniTESdLL03Sscj19kucaQkROkUUd9pugkuOM0n9oxJF9IhrMeeiYqCocK4UvJA_f_0QVJcWWmrDYm9auNIQ0zkYz_xYPEakuChaRgK8Q7id8Gg7JBv7KHbJZGfWCZddvZ5woDpo2p0CgG9P9pMv1EfeIio2qcdzMfaKSCzYQQrSr0QnOECGSFV9L9a1jIUCd0AVOTSQc6aEYDbvISruRt8-DrvonZa1dYC9xVGsup7PyoUFcbGqqAt31CgME8ZyfSdz-vSyS7ajgrf9VEj1rticaTVm5eYq3nF1Akl6g3xZ_m35ksyPnftocR3_2JSExGmnnVS6dJHKIhnKgQDGPq4S_PsneXFpBll6ysGIOf7v19fxLJXRF5kr8pG9AdIOBUnAJW2t3rMnlfrACFZz79gzD15BNGr2aAmjclMLqQgI3JfZ_TFE4QZsC2bmzOjopavHfbiDjvcIFJwdLekee7NgDzlTbsVNOPNTPkdRoz3dOO-tK8lbrNolh2htShJs0S76EBVB57ZgxUlUbZ-BHOzL_O0wPu5_m40]--></g></svg>