<?xml version="1.0" encoding="us-ascii" standalone="no"?><svg xmlns="http://www.w3.org/2000/svg" xmlns:xlink="http://www.w3.org/1999/xlink" contentStyleType="text/css" height="338px" preserveAspectRatio="none" style="width:639px;height:338px;background:#FFFFFF;" version="1.1" viewBox="0 0 639 338" width="639px" zoomAndPan="magnify"><defs/><g><rect fill="#FFFFFF" height="123.0938" style="stroke:#181818;stroke-width:1.0;" width="10" x="254.5" y="112.8047"/><rect fill="#FFFFFF" height="28.5234" style="stroke:#181818;stroke-width:1.0;" width="10" x="577.5" y="169.8516"/><line style="stroke:#181818;stroke-width:0.5;stroke-dasharray:5.0,5.0;" x1="82" x2="82" y1="82.2813" y2="244.8984"/><line style="stroke:#181818;stroke-width:0.5;stroke-dasharray:5.0,5.0;" x1="259" x2="259" y1="82.2813" y2="244.8984"/><line style="stroke:#181818;stroke-width:0.5;stroke-dasharray:5.0,5.0;" x1="582.5" x2="582.5" y1="82.2813" y2="244.8984"/><rect fill="#E2E2F0" height="45.2813" rx="2.5" ry="2.5" style="stroke:#181818;stroke-width:0.5;" width="154" x="5" y="36"/><text fill="#000000" font-family="FG Virgil" font-size="14" font-style="italic" lengthAdjust="spacing" textLength="84" x="40" y="55.6738">&#171;application&#187;</text><text fill="#000000" font-family="FG Virgil" font-size="14" lengthAdjust="spacing" textLength="140" x="12" y="71.3145">CreatePostItController</text><rect fill="#E2E2F0" height="45.2813" rx="2.5" ry="2.5" style="stroke:#181818;stroke-width:0.5;" width="154" x="5" y="243.8984"/><text fill="#000000" font-family="FG Virgil" font-size="14" font-style="italic" lengthAdjust="spacing" textLength="84" x="40" y="263.5723">&#171;application&#187;</text><text fill="#000000" font-family="FG Virgil" font-size="14" lengthAdjust="spacing" textLength="140" x="12" y="279.2129">CreatePostItController</text><rect fill="#E2E2F0" height="45.2813" rx="2.5" ry="2.5" style="stroke:#181818;stroke-width:0.5;" width="181" x="169" y="36"/><text fill="#000000" font-family="FG Virgil" font-size="14" font-style="italic" lengthAdjust="spacing" textLength="84" x="217.5" y="55.6738">&#171;application&#187;</text><text fill="#000000" font-family="FG Virgil" font-size="14" lengthAdjust="spacing" textLength="167" x="176" y="71.3145">BoardManagementService</text><rect fill="#E2E2F0" height="45.2813" rx="2.5" ry="2.5" style="stroke:#181818;stroke-width:0.5;" width="181" x="169" y="243.8984"/><text fill="#000000" font-family="FG Virgil" font-size="14" font-style="italic" lengthAdjust="spacing" textLength="84" x="217.5" y="263.5723">&#171;application&#187;</text><text fill="#000000" font-family="FG Virgil" font-size="14" lengthAdjust="spacing" textLength="167" x="176" y="279.2129">BoardManagementService</text><text fill="#000000" font-family="FG Virgil" font-size="14" font-style="italic" lengthAdjust="spacing" textLength="79" x="540" y="63.6738">&#171;repository&#187;</text><text fill="#000000" font-family="FG Virgil" font-size="14" lengthAdjust="spacing" textLength="106" x="526.5" y="79.3145">BoardRepository</text><path d="M564.5,15 C564.5,5 582.5,5 582.5,5 C582.5,5 600.5,5 600.5,15 L600.5,41 C600.5,51 582.5,51 582.5,51 C582.5,51 564.5,51 564.5,41 L564.5,15 " fill="#E2E2F0" style="stroke:#181818;stroke-width:1.5;"/><path d="M564.5,15 C564.5,25 582.5,25 582.5,25 C582.5,25 600.5,25 600.5,15 " fill="none" style="stroke:#181818;stroke-width:1.5;"/><text fill="#000000" font-family="FG Virgil" font-size="14" font-style="italic" lengthAdjust="spacing" textLength="79" x="540" y="256.5723">&#171;repository&#187;</text><text fill="#000000" font-family="FG Virgil" font-size="14" lengthAdjust="spacing" textLength="106" x="526.5" y="272.2129">BoardRepository</text><path d="M564.5,285.1797 C564.5,275.1797 582.5,275.1797 582.5,275.1797 C582.5,275.1797 600.5,275.1797 600.5,285.1797 L600.5,311.1797 C600.5,321.1797 582.5,321.1797 582.5,321.1797 C582.5,321.1797 564.5,321.1797 564.5,311.1797 L564.5,285.1797 " fill="#E2E2F0" style="stroke:#181818;stroke-width:1.5;"/><path d="M564.5,285.1797 C564.5,295.1797 582.5,295.1797 582.5,295.1797 C582.5,295.1797 600.5,295.1797 600.5,285.1797 " fill="none" style="stroke:#181818;stroke-width:1.5;"/><rect fill="#FFFFFF" height="123.0938" style="stroke:#181818;stroke-width:1.0;" width="10" x="254.5" y="112.8047"/><rect fill="#FFFFFF" height="28.5234" style="stroke:#181818;stroke-width:1.0;" width="10" x="577.5" y="169.8516"/><polygon fill="#181818" points="242.5,108.8047,252.5,112.8047,242.5,116.8047,246.5,112.8047" style="stroke:#181818;stroke-width:1.0;"/><line style="stroke:#181818;stroke-width:1.0;" x1="82" x2="248.5" y1="112.8047" y2="112.8047"/><text fill="#000000" font-family="FG Virgil" font-size="13" lengthAdjust="spacing" textLength="44" x="89" y="108.0498">create()</text><polygon fill="#181818" points="242.5,137.3281,252.5,141.3281,242.5,145.3281,246.5,141.3281" style="stroke:#181818;stroke-width:1.0;"/><line style="stroke:#181818;stroke-width:1.0;" x1="82" x2="248.5" y1="141.3281" y2="141.3281"/><text fill="#000000" font-family="FG Virgil" font-size="13" lengthAdjust="spacing" textLength="90" x="89" y="136.5732">boardsByUser()</text><polygon fill="#181818" points="565.5,165.8516,575.5,169.8516,565.5,173.8516,569.5,169.8516" style="stroke:#181818;stroke-width:1.0;"/><line style="stroke:#181818;stroke-width:1.0;" x1="264.5" x2="571.5" y1="169.8516" y2="169.8516"/><text fill="#000000" font-family="FG Virgil" font-size="13" lengthAdjust="spacing" textLength="294" x="271.5" y="165.0967">boards = findBySystemUserWithWritePermission()</text><polygon fill="#181818" points="275.5,194.375,265.5,198.375,275.5,202.375,271.5,198.375" style="stroke:#181818;stroke-width:1.0;"/><line style="stroke:#181818;stroke-width:1.0;stroke-dasharray:2.0,2.0;" x1="269.5" x2="581.5" y1="198.375" y2="198.375"/><text fill="#000000" font-family="FG Virgil" font-size="13" lengthAdjust="spacing" textLength="39" x="281.5" y="193.6201">boards</text><polygon fill="#181818" points="93,222.8984,83,226.8984,93,230.8984,89,226.8984" style="stroke:#181818;stroke-width:1.0;"/><line style="stroke:#181818;stroke-width:1.0;stroke-dasharray:2.0,2.0;" x1="87" x2="253.5" y1="226.8984" y2="226.8984"/><text fill="#000000" font-family="FG Virgil" font-size="13" lengthAdjust="spacing" textLength="39" x="99" y="222.1436">boards</text><!--SRC=[TP7DJiCm48JlVWhVW4FRUnLoQAKY3g2A27hUsjjcLV_9thRAs-CKI8m8jrtFVgCP-Qvb3il58XXmVBPchhnTf1Ev017il6LhnB3A5fo-Hc969mzW4XPQ07M28pRS6PGH5HUQnWES3M-yurUmA3TFyeFYaKhlr8BsLtB7RsSXyZkJef2JoNL4ODpwnC-ypZRH6uDHGfB5LbKGWY45JDxLzI-3bOUeNy3bY1OTDnWlfB0tsFTASr5_S0qCUqZunRvXy8dOnww7Ygsguh1aIXI1PlNelfJgrk7-GO1YkkHn4FzdRcDQTUy9OoO79L-D4NxEvACyaDEhhkaIe-sP7N6xop-6MuoMKihDoW2ZXn15fTbK2A5nYXiZPQZeCOMDilW4]--></g></svg>