<?xml version="1.0" encoding="UTF-8" standalone="no"?><svg xmlns="http://www.w3.org/2000/svg" xmlns:xlink="http://www.w3.org/1999/xlink" contentStyleType="text/css" height="942.6px" preserveAspectRatio="none" style="width:1178px;height:942px;background:#FFFFFF;" version="1.1" viewBox="0 0 1178 942" width="1178.4px" zoomAndPan="magnify"><defs/><g><rect fill="#FFFFFF" height="808.2937" style="stroke:#181818;stroke-width:0.6;" width="6" x="160.5" y="71.1422"/><rect fill="#FFFFFF" height="748.2609" style="stroke:#181818;stroke-width:0.6;" width="6" x="318.9" y="107.5641"/><rect fill="#FFFFFF" height="704.0391" style="stroke:#181818;stroke-width:0.6;" width="6" x="650.1" y="151.7859"/><rect fill="#FFFFFF" height="114.4547" style="stroke:#181818;stroke-width:0.6;" width="6" x="733.2" y="533.4609"/><rect fill="#FFFFFF" height="18.2109" style="stroke:#181818;stroke-width:0.6;" width="6" x="941.1" y="343.5516"/><rect fill="#FFFFFF" height="62.4328" style="stroke:#181818;stroke-width:0.6;" width="6" x="941.1" y="775.1813"/><rect fill="#FFFFFF" height="46.0781" style="stroke:#181818;stroke-width:0.6;" width="6" x="1141.5" y="169.9969"/><rect fill="#FFFFFF" height="18" style="stroke:#181818;stroke-width:0.6;" width="6" x="1141.5" y="684.3375"/><rect fill="#FFFFFF" height="41.8219" style="stroke:#181818;stroke-width:0.6;" width="6" x="1141.5" y="837.6141"/><line style="stroke:#181818;stroke-width:0.3;stroke-dasharray:5.0,5.0;" x1="13.2" x2="13.2" y1="51.7312" y2="884.8359"/><line style="stroke:#181818;stroke-width:0.3;stroke-dasharray:5.0,5.0;" x1="163.2" x2="163.2" y1="51.7312" y2="884.8359"/><line style="stroke:#181818;stroke-width:0.3;stroke-dasharray:5.0,5.0;" x1="321.6" x2="321.6" y1="51.7312" y2="884.8359"/><line style="stroke:#181818;stroke-width:0.3;stroke-dasharray:5.0,5.0;" x1="652.8" x2="652.8" y1="51.7312" y2="884.8359"/><line style="stroke:#181818;stroke-width:0.3;stroke-dasharray:5.0,5.0;" x1="736.2" x2="736.2" y1="51.7312" y2="884.8359"/><line style="stroke:#181818;stroke-width:0.3;stroke-dasharray:5.0,5.0;" x1="856.5" x2="856.5" y1="51.7312" y2="884.8359"/><line style="stroke:#181818;stroke-width:0.3;stroke-dasharray:5.0,5.0;" x1="944.1" x2="944.1" y1="51.7312" y2="884.8359"/><line style="stroke:#181818;stroke-width:0.3;stroke-dasharray:5.0,5.0;" x1="1055.1" x2="1055.1" y1="51.7312" y2="884.8359"/><line style="stroke:#181818;stroke-width:0.3;stroke-dasharray:5.0,5.0;" x1="1144.5" x2="1144.5" y1="51.7312" y2="884.8359"/><text fill="#000000" font-family="FG Virgil" font-size="8.4" lengthAdjust="spacing" textLength="17.4" x="3" y="49.8855">User</text><ellipse cx="13.5" cy="10.2656" fill="#E2E2F0" rx="4.8" ry="4.8" style="stroke:#181818;stroke-width:0.3;"/><path d="M13.5,15.0656 L13.5,31.2656 M5.7,19.8656 L21.3,19.8656 M13.5,31.2656 L5.7,40.2656 M13.5,31.2656 L21.3,40.2656 " fill="none" style="stroke:#181818;stroke-width:0.3;"/><text fill="#000000" font-family="FG Virgil" font-size="8.4" lengthAdjust="spacing" textLength="17.4" x="3" y="892.9559">User</text><ellipse cx="13.5" cy="899.9016" fill="#E2E2F0" rx="4.8" ry="4.8" style="stroke:#181818;stroke-width:0.3;"/><path d="M13.5,904.7016 L13.5,920.9016 M5.7,909.5016 L21.3,909.5016 M13.5,920.9016 L5.7,929.9016 M13.5,920.9016 L21.3,929.9016 " fill="none" style="stroke:#181818;stroke-width:0.3;"/><rect fill="#E2E2F0" height="29.5313" rx="1.5" ry="1.5" style="stroke:#181818;stroke-width:0.3;" width="96.6" x="115.2" y="21.6"/><text fill="#000000" font-family="FG Virgil" font-size="8.4" font-style="italic" lengthAdjust="spacing" textLength="57" x="135" y="34.5199">«presentation»</text><text fill="#000000" font-family="FG Virgil" font-size="8.4" lengthAdjust="spacing" textLength="88.2" x="119.4" y="45.0855">CreatePostItOnBoardUI</text><rect fill="#E2E2F0" height="29.5313" rx="1.5" ry="1.5" style="stroke:#181818;stroke-width:0.3;" width="96.6" x="115.2" y="884.2359"/><text fill="#000000" font-family="FG Virgil" font-size="8.4" font-style="italic" lengthAdjust="spacing" textLength="57" x="135" y="897.1559">«presentation»</text><text fill="#000000" font-family="FG Virgil" font-size="8.4" lengthAdjust="spacing" textLength="88.2" x="119.4" y="907.7215">CreatePostItOnBoardUI</text><rect fill="#E2E2F0" height="29.5313" rx="1.5" ry="1.5" style="stroke:#181818;stroke-width:0.3;" width="126.6" x="258.6" y="21.6"/><text fill="#000000" font-family="FG Virgil" font-size="8.4" font-style="italic" lengthAdjust="spacing" textLength="50.4" x="296.7" y="34.5199">«application»</text><text fill="#000000" font-family="FG Virgil" font-size="8.4" lengthAdjust="spacing" textLength="118.2" x="262.8" y="45.0855">CreatePostItOnBoardController</text><rect fill="#E2E2F0" height="29.5313" rx="1.5" ry="1.5" style="stroke:#181818;stroke-width:0.3;" width="126.6" x="258.6" y="884.2359"/><text fill="#000000" font-family="FG Virgil" font-size="8.4" font-style="italic" lengthAdjust="spacing" textLength="50.4" x="296.7" y="897.1559">«application»</text><text fill="#000000" font-family="FG Virgil" font-size="8.4" lengthAdjust="spacing" textLength="118.2" x="262.8" y="907.7215">CreatePostItOnBoardController</text><rect fill="#E2E2F0" height="29.5313" rx="1.5" ry="1.5" style="stroke:#181818;stroke-width:0.3;" width="108.6" x="598.8" y="21.6"/><text fill="#000000" font-family="FG Virgil" font-size="8.4" font-style="italic" lengthAdjust="spacing" textLength="50.4" x="627.9" y="34.5199">«application»</text><text fill="#000000" font-family="FG Virgil" font-size="8.4" lengthAdjust="spacing" textLength="100.2" x="603" y="45.0855">BoardManagementService</text><rect fill="#E2E2F0" height="29.5313" rx="1.5" ry="1.5" style="stroke:#181818;stroke-width:0.3;" width="108.6" x="598.8" y="884.2359"/><text fill="#000000" font-family="FG Virgil" font-size="8.4" font-style="italic" lengthAdjust="spacing" textLength="50.4" x="627.9" y="897.1559">«application»</text><text fill="#000000" font-family="FG Virgil" font-size="8.4" lengthAdjust="spacing" textLength="100.2" x="603" y="907.7215">BoardManagementService</text><rect fill="#E2E2F0" height="29.5313" rx="1.5" ry="1.5" style="stroke:#181818;stroke-width:0.3;" width="45.6" x="713.4" y="21.6"/><text fill="#000000" font-family="FG Virgil" font-size="8.4" font-style="italic" lengthAdjust="spacing" textLength="37.2" x="717.6" y="34.5199">«domain»</text><text fill="#000000" font-family="FG Virgil" font-size="8.4" lengthAdjust="spacing" textLength="29.4" x="721.5" y="45.0855">cell:Cell</text><rect fill="#E2E2F0" height="29.5313" rx="1.5" ry="1.5" style="stroke:#181818;stroke-width:0.3;" width="45.6" x="713.4" y="884.2359"/><text fill="#000000" font-family="FG Virgil" font-size="8.4" font-style="italic" lengthAdjust="spacing" textLength="37.2" x="717.6" y="897.1559">«domain»</text><text fill="#000000" font-family="FG Virgil" font-size="8.4" lengthAdjust="spacing" textLength="29.4" x="721.5" y="907.7215">cell:Cell</text><rect fill="#E2E2F0" height="29.5313" rx="1.5" ry="1.5" style="stroke:#181818;stroke-width:0.3;" width="52.2" x="830.7" y="21.6"/><text fill="#000000" font-family="FG Virgil" font-size="8.4" font-style="italic" lengthAdjust="spacing" textLength="37.2" x="838.2" y="34.5199">«domain»</text><text fill="#000000" font-family="FG Virgil" font-size="8.4" lengthAdjust="spacing" textLength="43.8" x="834.9" y="45.0855">postIt:PostIt</text><rect fill="#E2E2F0" height="29.5313" rx="1.5" ry="1.5" style="stroke:#181818;stroke-width:0.3;" width="52.2" x="830.7" y="884.2359"/><text fill="#000000" font-family="FG Virgil" font-size="8.4" font-style="italic" lengthAdjust="spacing" textLength="37.2" x="838.2" y="897.1559">«domain»</text><text fill="#000000" font-family="FG Virgil" font-size="8.4" lengthAdjust="spacing" textLength="43.8" x="834.9" y="907.7215">postIt:PostIt</text><rect fill="#E2E2F0" height="29.5313" rx="1.5" ry="1.5" style="stroke:#181818;stroke-width:0.3;" width="110.4" x="888.9" y="21.6"/><text fill="#000000" font-family="FG Virgil" font-size="8.4" font-style="italic" lengthAdjust="spacing" textLength="37.2" x="925.5" y="34.5199">«domain»</text><text fill="#000000" font-family="FG Virgil" font-size="8.4" lengthAdjust="spacing" textLength="102" x="893.1" y="45.0855">sharedBoard:SharedBoard</text><rect fill="#E2E2F0" height="29.5313" rx="1.5" ry="1.5" style="stroke:#181818;stroke-width:0.3;" width="110.4" x="888.9" y="884.2359"/><text fill="#000000" font-family="FG Virgil" font-size="8.4" font-style="italic" lengthAdjust="spacing" textLength="37.2" x="925.5" y="897.1559">«domain»</text><text fill="#000000" font-family="FG Virgil" font-size="8.4" lengthAdjust="spacing" textLength="102" x="893.1" y="907.7215">sharedBoard:SharedBoard</text><rect fill="#E2E2F0" height="29.5313" rx="1.5" ry="1.5" style="stroke:#181818;stroke-width:0.3;" width="99.6" x="1005.3" y="21.6"/><text fill="#000000" font-family="FG Virgil" font-size="8.4" font-style="italic" lengthAdjust="spacing" textLength="37.2" x="1036.5" y="34.5199">«domain»</text><text fill="#000000" font-family="FG Virgil" font-size="8.4" lengthAdjust="spacing" textLength="91.2" x="1009.5" y="45.0855">mod : BoardModification</text><rect fill="#E2E2F0" height="29.5313" rx="1.5" ry="1.5" style="stroke:#181818;stroke-width:0.3;" width="99.6" x="1005.3" y="884.2359"/><text fill="#000000" font-family="FG Virgil" font-size="8.4" font-style="italic" lengthAdjust="spacing" textLength="37.2" x="1036.5" y="897.1559">«domain»</text><text fill="#000000" font-family="FG Virgil" font-size="8.4" lengthAdjust="spacing" textLength="91.2" x="1009.5" y="907.7215">mod : BoardModification</text><text fill="#000000" font-family="FG Virgil" font-size="8.4" font-style="italic" lengthAdjust="spacing" textLength="47.4" x="1119" y="39.3199">«repository»</text><text fill="#000000" font-family="FG Virgil" font-size="8.4" lengthAdjust="spacing" textLength="63.6" x="1110.9" y="49.8855">BoardRepository</text><path d="M1133.7,9 C1133.7,3 1144.5,3 1144.5,3 C1144.5,3 1155.3,3 1155.3,9 L1155.3,24.6 C1155.3,30.6 1144.5,30.6 1144.5,30.6 C1144.5,30.6 1133.7,30.6 1133.7,24.6 L1133.7,9 " fill="#E2E2F0" style="stroke:#181818;stroke-width:0.8999999999999999;"/><path d="M1133.7,9 C1133.7,15 1144.5,15 1144.5,15 C1144.5,15 1155.3,15 1155.3,9 " fill="none" style="stroke:#181818;stroke-width:0.8999999999999999;"/><text fill="#000000" font-family="FG Virgil" font-size="8.4" font-style="italic" lengthAdjust="spacing" textLength="47.4" x="1119" y="892.9559">«repository»</text><text fill="#000000" font-family="FG Virgil" font-size="8.4" lengthAdjust="spacing" textLength="63.6" x="1110.9" y="903.5215">BoardRepository</text><path d="M1133.7,911.3672 C1133.7,905.3672 1144.5,905.3672 1144.5,905.3672 C1144.5,905.3672 1155.3,905.3672 1155.3,911.3672 L1155.3,926.9672 C1155.3,932.9672 1144.5,932.9672 1144.5,932.9672 C1144.5,932.9672 1133.7,932.9672 1133.7,926.9672 L1133.7,911.3672 " fill="#E2E2F0" style="stroke:#181818;stroke-width:0.8999999999999999;"/><path d="M1133.7,911.3672 C1133.7,917.3672 1144.5,917.3672 1144.5,917.3672 C1144.5,917.3672 1155.3,917.3672 1155.3,911.3672 " fill="none" style="stroke:#181818;stroke-width:0.8999999999999999;"/><rect fill="#FFFFFF" height="808.2937" style="stroke:#181818;stroke-width:0.6;" width="6" x="160.5" y="71.1422"/><rect fill="#FFFFFF" height="748.2609" style="stroke:#181818;stroke-width:0.6;" width="6" x="318.9" y="107.5641"/><rect fill="#FFFFFF" height="704.0391" style="stroke:#181818;stroke-width:0.6;" width="6" x="650.1" y="151.7859"/><rect fill="#FFFFFF" height="114.4547" style="stroke:#181818;stroke-width:0.6;" width="6" x="733.2" y="533.4609"/><rect fill="#FFFFFF" height="18.2109" style="stroke:#181818;stroke-width:0.6;" width="6" x="941.1" y="343.5516"/><rect fill="#FFFFFF" height="62.4328" style="stroke:#181818;stroke-width:0.6;" width="6" x="941.1" y="775.1813"/><rect fill="#FFFFFF" height="46.0781" style="stroke:#181818;stroke-width:0.6;" width="6" x="1141.5" y="169.9969"/><rect fill="#FFFFFF" height="18" style="stroke:#181818;stroke-width:0.6;" width="6" x="1141.5" y="684.3375"/><rect fill="#FFFFFF" height="41.8219" style="stroke:#181818;stroke-width:0.6;" width="6" x="1141.5" y="837.6141"/><polygon fill="#181818" points="153.3,68.7422,159.3,71.1422,153.3,73.5422,155.7,71.1422" style="stroke:#181818;stroke-width:0.6;"/><line style="stroke:#181818;stroke-width:0.6;" x1="13.5" x2="156.9" y1="71.1422" y2="71.1422"/><text fill="#000000" font-family="FG Virgil" font-size="7.8" lengthAdjust="spacing" textLength="85.8" x="17.7" y="68.2283">Create PostIt on a Board</text><polygon fill="#181818" points="314.7,86.9531,320.7,89.3531,314.7,91.7531,317.1,89.3531" style="stroke:#181818;stroke-width:0.6;"/><line style="stroke:#181818;stroke-width:0.6;" x1="166.5" x2="318.3" y1="89.3531" y2="89.3531"/><text fill="#000000" font-family="FG Virgil" font-size="7.8" lengthAdjust="spacing" textLength="26.4" x="170.7" y="86.4393">create()</text><polygon fill="#181818" points="311.7,105.1641,317.7,107.5641,311.7,109.9641,314.1,107.5641" style="stroke:#181818;stroke-width:0.6;"/><line style="stroke:#181818;stroke-width:0.6;" x1="166.5" x2="315.3" y1="107.5641" y2="107.5641"/><text fill="#000000" font-family="FG Virgil" font-size="7.8" lengthAdjust="spacing" textLength="126.6" x="170.7" y="104.6502">sharedBoardsWithWritePermission()</text><line style="stroke:#181818;stroke-width:0.6;" x1="324.9" x2="350.1" y1="125.775" y2="125.775"/><line style="stroke:#181818;stroke-width:0.6;" x1="350.1" x2="350.1" y1="125.775" y2="133.575"/><line style="stroke:#181818;stroke-width:0.6;" x1="325.5" x2="350.1" y1="133.575" y2="133.575"/><polygon fill="#181818" points="331.5,131.175,325.5,133.575,331.5,135.975,329.1,133.575" style="stroke:#181818;stroke-width:0.6;"/><text fill="#000000" font-family="FG Virgil" font-size="7.8" lengthAdjust="spacing" textLength="62.4" x="329.1" y="122.8611">user:currentUser()</text><polygon fill="#181818" points="642.9,149.3859,648.9,151.7859,642.9,154.1859,645.3,151.7859" style="stroke:#181818;stroke-width:0.6;"/><line style="stroke:#181818;stroke-width:0.6;" x1="324.9" x2="646.5" y1="151.7859" y2="151.7859"/><text fill="#000000" font-family="FG Virgil" font-size="7.8" lengthAdjust="spacing" textLength="178.8" x="329.1" y="148.8721">allBoardsBySystemUserWithWritePermission(user)</text><polygon fill="#181818" points="1134.3,167.5969,1140.3,169.9969,1134.3,172.3969,1136.7,169.9969" style="stroke:#181818;stroke-width:0.6;"/><line style="stroke:#181818;stroke-width:0.6;" x1="656.1" x2="1137.9" y1="169.9969" y2="169.9969"/><text fill="#000000" font-family="FG Virgil" font-size="7.8" lengthAdjust="spacing" textLength="158.4" x="660.3" y="167.083">findBySystemUserWithWritePermission(user)</text><rect fill="none" height="24.8672" style="stroke:#000000;stroke-width:0.8999999999999999;" width="149.4" x="597" y="174.7969"/><path d="M597,174.7969 L634.2,174.7969 L634.2,179.5969 L628.2,185.5969 L597,185.5969 L597,174.7969 " fill="#EEEEEE" style="stroke:#000000;stroke-width:1.2;"/><text fill="#000000" font-family="FG Virgil" font-size="7.8" font-weight="bold" lengthAdjust="spacing" textLength="10.2" x="604.8" y="184.0939">ref</text><text fill="#000000" font-family="FG Virgil" font-size="7.2" lengthAdjust="spacing" textLength="144.6" x="599.4" y="195.4711">SD_findBySystemUserWithWritePermission</text><polygon fill="#181818" points="662.7,213.675,656.7,216.075,662.7,218.475,660.3,216.075" style="stroke:#181818;stroke-width:0.6;"/><line style="stroke:#181818;stroke-width:0.6;stroke-dasharray:2.0,2.0;" x1="659.1" x2="1143.9" y1="216.075" y2="216.075"/><text fill="#000000" font-family="FG Virgil" font-size="7.8" lengthAdjust="spacing" textLength="126.6" x="666.3" y="213.1611">allUserBoardsWithWritePermissions</text><polygon fill="#181818" points="331.5,231.8859,325.5,234.2859,331.5,236.6859,329.1,234.2859" style="stroke:#181818;stroke-width:0.6;"/><line style="stroke:#181818;stroke-width:0.6;stroke-dasharray:2.0,2.0;" x1="327.9" x2="649.5" y1="234.2859" y2="234.2859"/><text fill="#000000" font-family="FG Virgil" font-size="7.8" lengthAdjust="spacing" textLength="126.6" x="335.1" y="231.3721">allUserBoardsWithWritePermissions</text><polygon fill="#181818" points="173.1,250.0969,167.1,252.4969,173.1,254.8969,170.7,252.4969" style="stroke:#181818;stroke-width:0.6;"/><line style="stroke:#181818;stroke-width:0.6;stroke-dasharray:2.0,2.0;" x1="169.5" x2="318.3" y1="252.4969" y2="252.4969"/><text fill="#000000" font-family="FG Virgil" font-size="7.8" lengthAdjust="spacing" textLength="126.6" x="176.7" y="249.583">allUserBoardsWithWritePermissions</text><polygon fill="#181818" points="20.1,268.3078,14.1,270.7078,20.1,273.1078,17.7,270.7078" style="stroke:#181818;stroke-width:0.6;"/><line style="stroke:#181818;stroke-width:0.6;stroke-dasharray:2.0,2.0;" x1="16.5" x2="159.9" y1="270.7078" y2="270.7078"/><text fill="#000000" font-family="FG Virgil" font-size="7.8" lengthAdjust="spacing" textLength="132.6" x="23.7" y="267.7939">lists the boards with write permissions</text><polygon fill="#181818" points="153.3,286.5188,159.3,288.9188,153.3,291.3187,155.7,288.9188" style="stroke:#181818;stroke-width:0.6;"/><line style="stroke:#181818;stroke-width:0.6;" x1="13.5" x2="156.9" y1="288.9188" y2="288.9188"/><text fill="#000000" font-family="FG Virgil" font-size="7.8" lengthAdjust="spacing" textLength="53.4" x="17.7" y="286.0049">selects a board</text><polygon fill="#181818" points="311.7,304.7297,317.7,307.1297,311.7,309.5297,314.1,307.1297" style="stroke:#181818;stroke-width:0.6;"/><line style="stroke:#181818;stroke-width:0.6;" x1="166.5" x2="315.3" y1="307.1297" y2="307.1297"/><text fill="#000000" font-family="FG Virgil" font-size="7.8" lengthAdjust="spacing" textLength="122.4" x="170.7" y="304.2158">findAvailableCellsFromBoard(board)</text><polygon fill="#181818" points="642.9,322.9406,648.9,325.3406,642.9,327.7406,645.3,325.3406" style="stroke:#181818;stroke-width:0.6;"/><line style="stroke:#181818;stroke-width:0.6;" x1="324.9" x2="646.5" y1="325.3406" y2="325.3406"/><text fill="#000000" font-family="FG Virgil" font-size="7.8" lengthAdjust="spacing" textLength="122.4" x="329.1" y="322.4268">findAvailableCellsFromBoard(board)</text><polygon fill="#181818" points="933.9,341.1516,939.9,343.5516,933.9,345.9516,936.3,343.5516" style="stroke:#181818;stroke-width:0.6;"/><line style="stroke:#181818;stroke-width:0.6;" x1="656.1" x2="937.5" y1="343.5516" y2="343.5516"/><text fill="#000000" font-family="FG Virgil" font-size="7.8" lengthAdjust="spacing" textLength="159.6" x="660.3" y="340.6377">availableCells = findAvailableCellsFromBoard()</text><polygon fill="#181818" points="662.7,359.3625,656.7,361.7625,662.7,364.1625,660.3,361.7625" style="stroke:#181818;stroke-width:0.6;"/><line style="stroke:#181818;stroke-width:0.6;stroke-dasharray:2.0,2.0;" x1="659.1" x2="943.5" y1="361.7625" y2="361.7625"/><text fill="#000000" font-family="FG Virgil" font-size="7.8" lengthAdjust="spacing" textLength="46.8" x="666.3" y="358.8486">availableCells</text><polygon fill="#181818" points="331.5,377.5734,325.5,379.9734,331.5,382.3734,329.1,379.9734" style="stroke:#181818;stroke-width:0.6;"/><line style="stroke:#181818;stroke-width:0.6;stroke-dasharray:2.0,2.0;" x1="327.9" x2="649.5" y1="379.9734" y2="379.9734"/><text fill="#000000" font-family="FG Virgil" font-size="7.8" lengthAdjust="spacing" textLength="46.8" x="335.1" y="377.0596">availableCells</text><polygon fill="#181818" points="173.1,395.7844,167.1,398.1844,173.1,400.5844,170.7,398.1844" style="stroke:#181818;stroke-width:0.6;"/><line style="stroke:#181818;stroke-width:0.6;stroke-dasharray:2.0,2.0;" x1="169.5" x2="318.3" y1="398.1844" y2="398.1844"/><text fill="#000000" font-family="FG Virgil" font-size="7.8" lengthAdjust="spacing" textLength="46.8" x="176.7" y="395.2705">availableCells</text><polygon fill="#181818" points="20.1,413.9953,14.1,416.3953,20.1,418.7953,17.7,416.3953" style="stroke:#181818;stroke-width:0.6;"/><line style="stroke:#181818;stroke-width:0.6;stroke-dasharray:2.0,2.0;" x1="16.5" x2="159.9" y1="416.3953" y2="416.3953"/><text fill="#000000" font-family="FG Virgil" font-size="7.8" lengthAdjust="spacing" textLength="101.4" x="23.7" y="413.4814">shows availableCells in board</text><polygon fill="#181818" points="153.3,432.2063,159.3,434.6063,153.3,437.0062,155.7,434.6063" style="stroke:#181818;stroke-width:0.6;"/><line style="stroke:#181818;stroke-width:0.6;" x1="13.5" x2="156.9" y1="434.6063" y2="434.6063"/><text fill="#000000" font-family="FG Virgil" font-size="7.8" lengthAdjust="spacing" textLength="72.6" x="17.7" y="431.6924">selects a cell to post</text><polygon fill="#181818" points="20.1,450.4172,14.1,452.8172,20.1,455.2172,17.7,452.8172" style="stroke:#181818;stroke-width:0.6;"/><line style="stroke:#181818;stroke-width:0.6;stroke-dasharray:2.0,2.0;" x1="16.5" x2="159.9" y1="452.8172" y2="452.8172"/><text fill="#000000" font-family="FG Virgil" font-size="7.8" lengthAdjust="spacing" textLength="67.8" x="23.7" y="449.9033">asks PostIt content</text><polygon fill="#181818" points="153.3,468.6281,159.3,471.0281,153.3,473.4281,155.7,471.0281" style="stroke:#181818;stroke-width:0.6;"/><line style="stroke:#181818;stroke-width:0.6;" x1="13.5" x2="156.9" y1="471.0281" y2="471.0281"/><text fill="#000000" font-family="FG Virgil" font-size="7.8" lengthAdjust="spacing" textLength="85.2" x="17.7" y="468.1143">inputs the PostIt content</text><polygon fill="#181818" points="311.7,486.8391,317.7,489.2391,311.7,491.6391,314.1,489.2391" style="stroke:#181818;stroke-width:0.6;"/><line style="stroke:#181818;stroke-width:0.6;" x1="166.5" x2="315.3" y1="489.2391" y2="489.2391"/><text fill="#000000" font-family="FG Virgil" font-size="7.8" lengthAdjust="spacing" textLength="138" x="170.7" y="486.3252">createPostIt(sharedBoard, cell, content)</text><line style="stroke:#181818;stroke-width:0.6;" x1="324.9" x2="350.1" y1="507.45" y2="507.45"/><line style="stroke:#181818;stroke-width:0.6;" x1="350.1" x2="350.1" y1="507.45" y2="515.25"/><line style="stroke:#181818;stroke-width:0.6;" x1="325.5" x2="350.1" y1="515.25" y2="515.25"/><polygon fill="#181818" points="331.5,512.85,325.5,515.25,331.5,517.65,329.1,515.25" style="stroke:#181818;stroke-width:0.6;"/><text fill="#000000" font-family="FG Virgil" font-size="7.8" lengthAdjust="spacing" textLength="72.6" x="329.1" y="504.5361">owner : currentUser()</text><polygon fill="#181818" points="726,531.0609,732,533.4609,726,535.8609,728.4,533.4609" style="stroke:#181818;stroke-width:0.6;"/><line style="stroke:#181818;stroke-width:0.6;" x1="324.9" x2="729.6" y1="533.4609" y2="533.4609"/><text fill="#000000" font-family="FG Virgil" font-size="7.8" lengthAdjust="spacing" textLength="88.8" x="329.1" y="530.5471">addPostIt(owner, content)</text><line style="stroke:#181818;stroke-width:0.6;" x1="739.2" x2="764.4" y1="551.6719" y2="551.6719"/><line style="stroke:#181818;stroke-width:0.6;" x1="764.4" x2="764.4" y1="551.6719" y2="559.4719"/><line style="stroke:#181818;stroke-width:0.6;" x1="739.8" x2="764.4" y1="559.4719" y2="559.4719"/><polygon fill="#181818" points="745.8,557.0719,739.8,559.4719,745.8,561.8719,743.4,559.4719" style="stroke:#181818;stroke-width:0.6;"/><text fill="#000000" font-family="FG Virgil" font-size="7.8" lengthAdjust="spacing" textLength="56.4" x="743.4" y="548.758">canHavePostiIt()</text><polygon fill="#181818" points="849.6,575.2828,855.6,577.6828,849.6,580.0828,852,577.6828" style="stroke:#181818;stroke-width:0.6;"/><line style="stroke:#181818;stroke-width:0.6;" x1="739.2" x2="853.2" y1="577.6828" y2="577.6828"/><text fill="#000000" font-family="FG Virgil" font-size="7.8" lengthAdjust="spacing" textLength="71.4" x="743.4" y="574.7689">postItToadd :create()</text><line style="stroke:#181818;stroke-width:0.6;" x1="739.2" x2="764.4" y1="595.8938" y2="595.8938"/><line style="stroke:#181818;stroke-width:0.6;" x1="764.4" x2="764.4" y1="595.8938" y2="603.6938"/><line style="stroke:#181818;stroke-width:0.6;" x1="739.8" x2="764.4" y1="603.6938" y2="603.6938"/><polygon fill="#181818" points="745.8,601.2937,739.8,603.6938,745.8,606.0938,743.4,603.6938" style="stroke:#181818;stroke-width:0.6;"/><text fill="#000000" font-family="FG Virgil" font-size="7.8" lengthAdjust="spacing" textLength="75.6" x="743.4" y="592.9799">postItList : postItList()</text><line style="stroke:#181818;stroke-width:0.6;" x1="739.2" x2="764.4" y1="621.9047" y2="621.9047"/><line style="stroke:#181818;stroke-width:0.6;" x1="764.4" x2="764.4" y1="621.9047" y2="629.7047"/><line style="stroke:#181818;stroke-width:0.6;" x1="739.8" x2="764.4" y1="629.7047" y2="629.7047"/><polygon fill="#181818" points="745.8,627.3047,739.8,629.7047,745.8,632.1047,743.4,629.7047" style="stroke:#181818;stroke-width:0.6;"/><text fill="#000000" font-family="FG Virgil" font-size="7.8" lengthAdjust="spacing" textLength="106.2" x="743.4" y="618.9908">addedPostIt : add(postItToadd)</text><polygon fill="#181818" points="331.5,645.5156,325.5,647.9156,331.5,650.3156,329.1,647.9156" style="stroke:#181818;stroke-width:0.6;"/><line style="stroke:#181818;stroke-width:0.6;stroke-dasharray:2.0,2.0;" x1="327.9" x2="735.6" y1="647.9156" y2="647.9156"/><text fill="#000000" font-family="FG Virgil" font-size="7.8" lengthAdjust="spacing" textLength="41.4" x="335.1" y="645.0018">addedPostIt</text><polygon fill="#181818" points="642.9,663.7266,648.9,666.1266,642.9,668.5266,645.3,666.1266" style="stroke:#181818;stroke-width:0.6;"/><line style="stroke:#181818;stroke-width:0.6;" x1="324.9" x2="646.5" y1="666.1266" y2="666.1266"/><text fill="#000000" font-family="FG Virgil" font-size="7.8" lengthAdjust="spacing" textLength="109.2" x="329.1" y="663.2127">saveSharedBoard(sharedBoard)</text><polygon fill="#181818" points="1134.3,681.9375,1140.3,684.3375,1134.3,686.7375,1136.7,684.3375" style="stroke:#181818;stroke-width:0.6;"/><line style="stroke:#181818;stroke-width:0.6;" x1="656.1" x2="1137.9" y1="684.3375" y2="684.3375"/><text fill="#000000" font-family="FG Virgil" font-size="7.8" lengthAdjust="spacing" textLength="64.2" x="660.3" y="681.4236">save(sharedBoard)</text><polygon fill="#181818" points="729,718.1484,735,720.5484,729,722.9484,731.4,720.5484" style="stroke:#181818;stroke-width:0.6;"/><line style="stroke:#181818;stroke-width:0.6;stroke-dasharray:2.0,2.0;" x1="324.9" x2="732.6" y1="720.5484" y2="720.5484"/><text fill="#000000" font-family="FG Virgil" font-size="7.8" lengthAdjust="spacing" textLength="100.2" x="329.1" y="717.6346">createdPostIt = latestPostIt()</text><polygon fill="#181818" points="331.5,736.3594,325.5,738.7594,331.5,741.1594,329.1,738.7594" style="stroke:#181818;stroke-width:0.6;"/><line style="stroke:#181818;stroke-width:0.6;stroke-dasharray:2.0,2.0;" x1="327.9" x2="735.6" y1="738.7594" y2="738.7594"/><text fill="#000000" font-family="FG Virgil" font-size="7.8" lengthAdjust="spacing" textLength="46.2" x="335.1" y="735.8455">createdPostIt</text><polygon fill="#181818" points="642.9,754.5703,648.9,756.9703,642.9,759.3703,645.3,756.9703" style="stroke:#181818;stroke-width:0.6;"/><line style="stroke:#181818;stroke-width:0.6;stroke-dasharray:2.0,2.0;" x1="324.9" x2="646.5" y1="756.9703" y2="756.9703"/><text fill="#000000" font-family="FG Virgil" font-size="7.8" lengthAdjust="spacing" textLength="310.8" x="329.1" y="754.0564">registerPrimaryBoardModification(board, createdPostIt, ModificationType.CREATION, cell)</text><polygon fill="#181818" points="933.9,772.7813,939.9,775.1813,933.9,777.5813,936.3,775.1813" style="stroke:#181818;stroke-width:0.6;"/><line style="stroke:#181818;stroke-width:0.6;stroke-dasharray:2.0,2.0;" x1="656.1" x2="937.5" y1="775.1813" y2="775.1813"/><text fill="#000000" font-family="FG Virgil" font-size="7.8" lengthAdjust="spacing" textLength="150.6" x="660.3" y="772.2674">addCreationModification(createdPostIt, cell)</text><polygon fill="#181818" points="1047.9,790.9922,1053.9,793.3922,1047.9,795.7922,1050.3,793.3922" style="stroke:#181818;stroke-width:0.6;"/><line style="stroke:#181818;stroke-width:0.6;stroke-dasharray:2.0,2.0;" x1="947.1" x2="1051.5" y1="793.3922" y2="793.3922"/><text fill="#000000" font-family="FG Virgil" font-size="7.8" lengthAdjust="spacing" textLength="88.2" x="951.3" y="790.4783">createBoardModification()</text><line style="stroke:#181818;stroke-width:0.6;stroke-dasharray:2.0,2.0;" x1="947.1" x2="972.3" y1="811.6031" y2="811.6031"/><line style="stroke:#181818;stroke-width:0.6;stroke-dasharray:2.0,2.0;" x1="972.3" x2="972.3" y1="811.6031" y2="819.4031"/><line style="stroke:#181818;stroke-width:0.6;stroke-dasharray:2.0,2.0;" x1="947.7" x2="972.3" y1="819.4031" y2="819.4031"/><polygon fill="#181818" points="953.7,817.0031,947.7,819.4031,953.7,821.8031,951.3,819.4031" style="stroke:#181818;stroke-width:0.6;"/><text fill="#000000" font-family="FG Virgil" font-size="7.8" lengthAdjust="spacing" textLength="94.2" x="951.3" y="808.6893">addBoardModification(mod)</text><polygon fill="#181818" points="1134.3,835.2141,1140.3,837.6141,1134.3,840.0141,1136.7,837.6141" style="stroke:#181818;stroke-width:0.6;"/><line style="stroke:#181818;stroke-width:0.6;" x1="656.1" x2="1137.9" y1="837.6141" y2="837.6141"/><text fill="#000000" font-family="FG Virgil" font-size="7.8" lengthAdjust="spacing" textLength="64.2" x="660.3" y="834.7002">save(sharedBoard)</text><polygon fill="#181818" points="173.1,853.425,167.1,855.825,173.1,858.225,170.7,855.825" style="stroke:#181818;stroke-width:0.6;"/><line style="stroke:#181818;stroke-width:0.6;stroke-dasharray:2.0,2.0;" x1="169.5" x2="321.3" y1="855.825" y2="855.825"/><text fill="#000000" font-family="FG Virgil" font-size="7.8" lengthAdjust="spacing" textLength="41.4" x="176.7" y="852.9111">addedPostIt</text><polygon fill="#181818" points="20.1,871.6359,14.1,874.0359,20.1,876.4359,17.7,874.0359" style="stroke:#181818;stroke-width:0.6;"/><line style="stroke:#181818;stroke-width:0.6;stroke-dasharray:2.0,2.0;" x1="16.5" x2="159.9" y1="874.0359" y2="874.0359"/><text fill="#000000" font-family="FG Virgil" font-size="7.8" lengthAdjust="spacing" textLength="60.6" x="23.7" y="871.1221">displays success</text><!--MD5=[2e4ce233df28e356204638eec2d5d34f]
@startuml
'http://plantuml.com/skinparam.html
skinparam handwritten false
skinparam monochrome false
skinparam packageStyle rect
skinparam defaultFontName FG Virgil
skinparam shadowing false

actor User as Actor
participant CreatePostItOnBoardUI as UI <<presentation>>
participant CreatePostItOnBoardController as Controller <<application>>
participant BoardManagementService as BoardManagementService <<application>>
participant "cell:Cell" as Cell <<domain>>
participant "postIt:PostIt" as PostIt <<domain>>
participant "sharedBoard:SharedBoard" as SharedBoard <<domain>>
participant "mod : BoardModification" as modification <<domain>>
database BoardRepository as BoardRepository <<repository>>


Actor -> UI: Create PostIt on a Board
activate UI
UI -> Controller: create()
UI -> Controller: sharedBoardsWithWritePermission()
activate Controller
Controller -> Controller : user:currentUser()
Controller -> BoardManagementService: allBoardsBySystemUserWithWritePermission(user)
activate BoardManagementService

BoardManagementService -> BoardRepository: findBySystemUserWithWritePermission(user)
ref over BoardManagementService : SD_findBySystemUserWithWritePermission
activate BoardRepository

BoardRepository - -> BoardManagementService: allUserBoardsWithWritePermissions
deactivate BoardRepository

BoardManagementService - -> Controller: allUserBoardsWithWritePermissions
Controller - -> UI: allUserBoardsWithWritePermissions
UI - -> Actor: lists the boards with write permissions
Actor -> UI: selects a board

UI -> Controller : findAvailableCellsFromBoard(board)
Controller -> BoardManagementService : findAvailableCellsFromBoard(board)

BoardManagementService -> SharedBoard: availableCells = findAvailableCellsFromBoard()
activate SharedBoard
SharedBoard - -> BoardManagementService : availableCells
deactivate SharedBoard
BoardManagementService - -> Controller : availableCells


Controller - -> UI : availableCells


UI - -> Actor : shows availableCells in board
Actor -> UI: selects a cell to post



UI - -> Actor: asks PostIt content
Actor -> UI: inputs the PostIt content

UI -> Controller: createPostIt(sharedBoard, cell, content)
Controller -> Controller : owner : currentUser()
Controller -> Cell : addPostIt(owner, content)


activate Cell
Cell -> Cell : canHavePostiIt()
Cell -> PostIt : postItToadd :create()
Cell -> Cell : postItList : postItList()
Cell -> Cell : addedPostIt : add(postItToadd)

Cell - -> Controller : addedPostIt
deactivate Cell
Controller -> BoardManagementService : saveSharedBoard(sharedBoard)
BoardManagementService -> BoardRepository :save(sharedBoard)
activate BoardRepository
deactivate BoardRepository
Controller - -> Cell : createdPostIt = latestPostIt()
Cell - - -> Controller : createdPostIt
Controller - -> BoardManagementService : registerPrimaryBoardModification(board, createdPostIt, ModificationType.CREATION, cell)
 BoardManagementService - -> SharedBoard : addCreationModification(createdPostIt, cell)
 activate SharedBoard
SharedBoard - -> modification : createBoardModification()
SharedBoard - -> SharedBoard : addBoardModification(mod)


BoardManagementService -> BoardRepository :save(sharedBoard)
 deactivate SharedBoard
activate BoardRepository
deactivate BoardRepository

Controller - -> UI :addedPostIt
deactivate BoardManagementService


deactivate Controller
UI - -> Actor: displays success
@enduml

@startuml
skinparam handwritten false
skinparam monochrome false
skinparam packageStyle rect
skinparam defaultFontName FG Virgil
skinparam shadowing false

actor User as Actor
participant CreatePostItOnBoardUI as UI <<presentation>>
participant CreatePostItOnBoardController as Controller <<application>>
participant BoardManagementService as BoardManagementService <<application>>
participant "cell:Cell" as Cell <<domain>>
participant "postIt:PostIt" as PostIt <<domain>>
participant "sharedBoard:SharedBoard" as SharedBoard <<domain>>
participant "mod : BoardModification" as modification <<domain>>
database BoardRepository as BoardRepository <<repository>>


Actor -> UI: Create PostIt on a Board
activate UI
UI -> Controller: create()
UI -> Controller: sharedBoardsWithWritePermission()
activate Controller
Controller -> Controller : user:currentUser()
Controller -> BoardManagementService: allBoardsBySystemUserWithWritePermission(user)
activate BoardManagementService

BoardManagementService -> BoardRepository: findBySystemUserWithWritePermission(user)
ref over BoardManagementService : SD_findBySystemUserWithWritePermission
activate BoardRepository

BoardRepository - -> BoardManagementService: allUserBoardsWithWritePermissions
deactivate BoardRepository

BoardManagementService - -> Controller: allUserBoardsWithWritePermissions
Controller - -> UI: allUserBoardsWithWritePermissions
UI - -> Actor: lists the boards with write permissions
Actor -> UI: selects a board

UI -> Controller : findAvailableCellsFromBoard(board)
Controller -> BoardManagementService : findAvailableCellsFromBoard(board)

BoardManagementService -> SharedBoard: availableCells = findAvailableCellsFromBoard()
activate SharedBoard
SharedBoard - -> BoardManagementService : availableCells
deactivate SharedBoard
BoardManagementService - -> Controller : availableCells


Controller - -> UI : availableCells


UI - -> Actor : shows availableCells in board
Actor -> UI: selects a cell to post



UI - -> Actor: asks PostIt content
Actor -> UI: inputs the PostIt content

UI -> Controller: createPostIt(sharedBoard, cell, content)
Controller -> Controller : owner : currentUser()
Controller -> Cell : addPostIt(owner, content)


activate Cell
Cell -> Cell : canHavePostiIt()
Cell -> PostIt : postItToadd :create()
Cell -> Cell : postItList : postItList()
Cell -> Cell : addedPostIt : add(postItToadd)

Cell - -> Controller : addedPostIt
deactivate Cell
Controller -> BoardManagementService : saveSharedBoard(sharedBoard)
BoardManagementService -> BoardRepository :save(sharedBoard)
activate BoardRepository
deactivate BoardRepository
Controller - -> Cell : createdPostIt = latestPostIt()
Cell - - -> Controller : createdPostIt
Controller - -> BoardManagementService : registerPrimaryBoardModification(board, createdPostIt, ModificationType.CREATION, cell)
 BoardManagementService - -> SharedBoard : addCreationModification(createdPostIt, cell)
 activate SharedBoard
SharedBoard - -> modification : createBoardModification()
SharedBoard - -> SharedBoard : addBoardModification(mod)


BoardManagementService -> BoardRepository :save(sharedBoard)
 deactivate SharedBoard
activate BoardRepository
deactivate BoardRepository

Controller - -> UI :addedPostIt
deactivate BoardManagementService


deactivate Controller
UI - -> Actor: displays success
@enduml

PlantUML version 1.2022.12(Sun Oct 23 19:12:26 BST 2022)
(GPL source distribution)
Java Runtime: OpenJDK Runtime Environment
JVM: OpenJDK 64-Bit Server VM
Default Encoding: Cp1252
Language: pt
Country: PT
--></g></svg>