<?xml version="1.0" encoding="us-ascii" standalone="no"?><svg xmlns="http://www.w3.org/2000/svg" xmlns:xlink="http://www.w3.org/1999/xlink" contentStyleType="text/css" height="1599px" preserveAspectRatio="none" style="width:3500px;height:1599px;background:#FFFFFF;" version="1.1" viewBox="0 0 3500 1599" width="3500px" zoomAndPan="magnify"><defs/><g><rect fill="#FFFFFF" height="1372.4453" style="stroke:#181818;stroke-width:1.0;" width="10" x="334" y="114.7266"/><rect fill="#FFFFFF" height="1285.0469" style="stroke:#181818;stroke-width:1.0;" width="10" x="794" y="172.9922"/><rect fill="#FFFFFF" height="30" style="stroke:#181818;stroke-width:1.0;" width="10" x="1115" y="172.9922"/><rect fill="#FFFFFF" height="963.7188" style="stroke:#181818;stroke-width:1.0;" width="10" x="1307.5" y="465.1875"/><rect fill="#FFFFFF" height="87.3984" style="stroke:#181818;stroke-width:1.0;" width="10" x="1538" y="232.125"/><rect fill="#FFFFFF" height="203.6641" style="stroke:#181818;stroke-width:1.0;" width="10" x="1770.5" y="1196.1094"/><rect fill="#FFFFFF" height="30" style="stroke:#181818;stroke-width:1.0;" width="10" x="1961" y="1225.2422"/><rect fill="#FFFFFF" height="58.2656" style="stroke:#181818;stroke-width:1.0;" width="10" x="2123" y="1284.375"/><rect fill="#FFFFFF" height="29.1328" style="stroke:#181818;stroke-width:1.0;" width="10" x="2289" y="261.2578"/><rect fill="#FFFFFF" height="29.1328" style="stroke:#181818;stroke-width:1.0;" width="10" x="2443.5" y="494.3203"/><rect fill="#FFFFFF" height="14" style="stroke:#181818;stroke-width:1.0;" width="10" x="2579.5" y="1371.7734"/><rect fill="#FFFFFF" height="30" style="stroke:#181818;stroke-width:1.0;" width="10" x="2822.5" y="814.7813"/><rect fill="#FFFFFF" height="30" style="stroke:#181818;stroke-width:1.0;" width="10" x="3134" y="990.4453"/><rect fill="#FFFFFF" height="30" style="stroke:#181818;stroke-width:1.0;" width="10" x="3383" y="1078.7109"/><line style="stroke:#181818;stroke-width:0.5;stroke-dasharray:5.0,5.0;" x1="37" x2="37" y1="83.5938" y2="1505.1719"/><line style="stroke:#181818;stroke-width:0.5;stroke-dasharray:5.0,5.0;" x1="339" x2="339" y1="83.5938" y2="1505.1719"/><line style="stroke:#181818;stroke-width:0.5;stroke-dasharray:5.0,5.0;" x1="799" x2="799" y1="83.5938" y2="1505.1719"/><line style="stroke:#181818;stroke-width:0.5;stroke-dasharray:5.0,5.0;" x1="1119.5" x2="1119.5" y1="83.5938" y2="1505.1719"/><line style="stroke:#181818;stroke-width:0.5;stroke-dasharray:5.0,5.0;" x1="1312.5" x2="1312.5" y1="83.5938" y2="1505.1719"/><line style="stroke:#181818;stroke-width:0.5;stroke-dasharray:5.0,5.0;" x1="1542.5" x2="1542.5" y1="83.5938" y2="1505.1719"/><line style="stroke:#181818;stroke-width:0.5;stroke-dasharray:5.0,5.0;" x1="1775.5" x2="1775.5" y1="83.5938" y2="1505.1719"/><line style="stroke:#181818;stroke-width:0.5;stroke-dasharray:5.0,5.0;" x1="1965.5" x2="1965.5" y1="83.5938" y2="1505.1719"/><line style="stroke:#181818;stroke-width:0.5;stroke-dasharray:5.0,5.0;" x1="2127.5" x2="2127.5" y1="83.5938" y2="1505.1719"/><line style="stroke:#181818;stroke-width:0.5;stroke-dasharray:5.0,5.0;" x1="2293.5" x2="2293.5" y1="83.5938" y2="1505.1719"/><line style="stroke:#181818;stroke-width:0.5;stroke-dasharray:5.0,5.0;" x1="2448.5" x2="2448.5" y1="83.5938" y2="1505.1719"/><line style="stroke:#181818;stroke-width:0.5;stroke-dasharray:5.0,5.0;" x1="2584.5" x2="2584.5" y1="83.5938" y2="1505.1719"/><line style="stroke:#181818;stroke-width:0.5;stroke-dasharray:5.0,5.0;" x1="2827.5" x2="2827.5" y1="83.5938" y2="1505.1719"/><line style="stroke:#181818;stroke-width:0.5;stroke-dasharray:5.0,5.0;" x1="3138.5" x2="3138.5" y1="83.5938" y2="1505.1719"/><line style="stroke:#181818;stroke-width:0.5;stroke-dasharray:5.0,5.0;" x1="3387.5" x2="3387.5" y1="83.5938" y2="1505.1719"/><text fill="#000000" font-family="FG Virgil" font-size="14" lengthAdjust="spacing" textLength="58" x="5" y="80.292">Student</text><ellipse cx="37" cy="15.7969" fill="#E2E2F0" rx="8" ry="8" style="stroke:#181818;stroke-width:0.5;"/><path d="M37,23.7969 L37,50.7969 M24,31.7969 L50,31.7969 M37,50.7969 L24,65.7969 M37,50.7969 L50,65.7969 " fill="none" style="stroke:#181818;stroke-width:0.5;"/><text fill="#000000" font-family="FG Virgil" font-size="14" lengthAdjust="spacing" textLength="58" x="5" y="1517.167">Student</text><ellipse cx="37" cy="1528.9688" fill="#E2E2F0" rx="8" ry="8" style="stroke:#181818;stroke-width:0.5;"/><path d="M37,1536.9688 L37,1563.9688 M24,1544.9688 L50,1544.9688 M37,1563.9688 L24,1578.9688 M37,1563.9688 L50,1578.9688 " fill="none" style="stroke:#181818;stroke-width:0.5;"/><rect fill="#E2E2F0" height="46.5938" rx="2.5" ry="2.5" style="stroke:#181818;stroke-width:0.5;" width="122" x="278" y="36"/><text fill="#000000" font-family="FG Virgil" font-size="14" font-style="italic" lengthAdjust="spacing" textLength="108" x="285" y="55.9951">&#171;presentation&#187;</text><text fill="#000000" font-family="FG Virgil" font-size="14" lengthAdjust="spacing" textLength="106" x="286" y="72.292">TakeAnExamUI</text><rect fill="#E2E2F0" height="46.5938" rx="2.5" ry="2.5" style="stroke:#181818;stroke-width:0.5;" width="122" x="278" y="1504.1719"/><text fill="#000000" font-family="FG Virgil" font-size="14" font-style="italic" lengthAdjust="spacing" textLength="108" x="285" y="1524.167">&#171;presentation&#187;</text><text fill="#000000" font-family="FG Virgil" font-size="14" lengthAdjust="spacing" textLength="106" x="286" y="1540.4639">TakeAnExamUI</text><rect fill="#E2E2F0" height="46.5938" rx="2.5" ry="2.5" style="stroke:#181818;stroke-width:0.5;" width="180" x="709" y="36"/><text fill="#000000" font-family="FG Virgil" font-size="14" font-style="italic" lengthAdjust="spacing" textLength="97" x="750.5" y="55.9951">&#171;application&#187;</text><text fill="#000000" font-family="FG Virgil" font-size="14" lengthAdjust="spacing" textLength="166" x="716" y="72.292">TakeAnExamController</text><rect fill="#E2E2F0" height="46.5938" rx="2.5" ry="2.5" style="stroke:#181818;stroke-width:0.5;" width="180" x="709" y="1504.1719"/><text fill="#000000" font-family="FG Virgil" font-size="14" font-style="italic" lengthAdjust="spacing" textLength="97" x="750.5" y="1524.167">&#171;application&#187;</text><text fill="#000000" font-family="FG Virgil" font-size="14" lengthAdjust="spacing" textLength="166" x="716" y="1540.4639">TakeAnExamController</text><rect fill="#E2E2F0" height="46.5938" rx="2.5" ry="2.5" style="stroke:#181818;stroke-width:0.5;" width="165" x="1037.5" y="36"/><text fill="#000000" font-family="FG Virgil" font-size="14" font-style="italic" lengthAdjust="spacing" textLength="97" x="1071.5" y="55.9951">&#171;application&#187;</text><text fill="#000000" font-family="FG Virgil" font-size="14" lengthAdjust="spacing" textLength="151" x="1044.5" y="72.292">AuthorizationService</text><rect fill="#E2E2F0" height="46.5938" rx="2.5" ry="2.5" style="stroke:#181818;stroke-width:0.5;" width="165" x="1037.5" y="1504.1719"/><text fill="#000000" font-family="FG Virgil" font-size="14" font-style="italic" lengthAdjust="spacing" textLength="97" x="1071.5" y="1524.167">&#171;application&#187;</text><text fill="#000000" font-family="FG Virgil" font-size="14" lengthAdjust="spacing" textLength="151" x="1044.5" y="1540.4639">AuthorizationService</text><rect fill="#E2E2F0" height="46.5938" rx="2.5" ry="2.5" style="stroke:#181818;stroke-width:0.5;" width="200" x="1212.5" y="36"/><text fill="#000000" font-family="FG Virgil" font-size="14" font-style="italic" lengthAdjust="spacing" textLength="97" x="1264" y="55.9951">&#171;application&#187;</text><text fill="#000000" font-family="FG Virgil" font-size="14" lengthAdjust="spacing" textLength="186" x="1219.5" y="72.292">ExamManagementService</text><rect fill="#E2E2F0" height="46.5938" rx="2.5" ry="2.5" style="stroke:#181818;stroke-width:0.5;" width="200" x="1212.5" y="1504.1719"/><text fill="#000000" font-family="FG Virgil" font-size="14" font-style="italic" lengthAdjust="spacing" textLength="97" x="1264" y="1524.167">&#171;application&#187;</text><text fill="#000000" font-family="FG Virgil" font-size="14" lengthAdjust="spacing" textLength="186" x="1219.5" y="1540.4639">ExamManagementService</text><rect fill="#E2E2F0" height="46.5938" rx="2.5" ry="2.5" style="stroke:#181818;stroke-width:0.5;" width="241" x="1422.5" y="36"/><text fill="#000000" font-family="FG Virgil" font-size="14" font-style="italic" lengthAdjust="spacing" textLength="97" x="1494.5" y="55.9951">&#171;application&#187;</text><text fill="#000000" font-family="FG Virgil" font-size="14" lengthAdjust="spacing" textLength="227" x="1429.5" y="72.292">EnrollmentManagementService</text><rect fill="#E2E2F0" height="46.5938" rx="2.5" ry="2.5" style="stroke:#181818;stroke-width:0.5;" width="241" x="1422.5" y="1504.1719"/><text fill="#000000" font-family="FG Virgil" font-size="14" font-style="italic" lengthAdjust="spacing" textLength="97" x="1494.5" y="1524.167">&#171;application&#187;</text><text fill="#000000" font-family="FG Virgil" font-size="14" lengthAdjust="spacing" textLength="227" x="1429.5" y="1540.4639">EnrollmentManagementService</text><rect fill="#E2E2F0" height="46.5938" rx="2.5" ry="2.5" style="stroke:#181818;stroke-width:0.5;" width="204" x="1673.5" y="36"/><text fill="#000000" font-family="FG Virgil" font-size="14" font-style="italic" lengthAdjust="spacing" textLength="97" x="1727" y="55.9951">&#171;application&#187;</text><text fill="#000000" font-family="FG Virgil" font-size="14" lengthAdjust="spacing" textLength="190" x="1680.5" y="72.292">GradeManagementService</text><rect fill="#E2E2F0" height="46.5938" rx="2.5" ry="2.5" style="stroke:#181818;stroke-width:0.5;" width="204" x="1673.5" y="1504.1719"/><text fill="#000000" font-family="FG Virgil" font-size="14" font-style="italic" lengthAdjust="spacing" textLength="97" x="1727" y="1524.167">&#171;application&#187;</text><text fill="#000000" font-family="FG Virgil" font-size="14" lengthAdjust="spacing" textLength="190" x="1680.5" y="1540.4639">GradeManagementService</text><rect fill="#E2E2F0" height="46.5938" rx="2.5" ry="2.5" style="stroke:#181818;stroke-width:0.5;" width="157" x="1887.5" y="36"/><text fill="#000000" font-family="FG Virgil" font-size="14" font-style="italic" lengthAdjust="spacing" textLength="100" x="1916" y="55.9951">&#171;persistence&#187;</text><text fill="#000000" font-family="FG Virgil" font-size="14" lengthAdjust="spacing" textLength="143" x="1894.5" y="72.292">PersistenceContext</text><rect fill="#E2E2F0" height="46.5938" rx="2.5" ry="2.5" style="stroke:#181818;stroke-width:0.5;" width="157" x="1887.5" y="1504.1719"/><text fill="#000000" font-family="FG Virgil" font-size="14" font-style="italic" lengthAdjust="spacing" textLength="100" x="1916" y="1524.167">&#171;persistence&#187;</text><text fill="#000000" font-family="FG Virgil" font-size="14" lengthAdjust="spacing" textLength="143" x="1894.5" y="1540.4639">PersistenceContext</text><rect fill="#E2E2F0" height="46.5938" rx="2.5" ry="2.5" style="stroke:#181818;stroke-width:0.5;" width="147" x="2054.5" y="36"/><text fill="#000000" font-family="FG Virgil" font-size="14" font-style="italic" lengthAdjust="spacing" textLength="68" x="2094" y="55.9951">&#171;factory&#187;</text><text fill="#000000" font-family="FG Virgil" font-size="14" lengthAdjust="spacing" textLength="133" x="2061.5" y="72.292">RepositoryFactory</text><rect fill="#E2E2F0" height="46.5938" rx="2.5" ry="2.5" style="stroke:#181818;stroke-width:0.5;" width="147" x="2054.5" y="1504.1719"/><text fill="#000000" font-family="FG Virgil" font-size="14" font-style="italic" lengthAdjust="spacing" textLength="68" x="2094" y="1524.167">&#171;factory&#187;</text><text fill="#000000" font-family="FG Virgil" font-size="14" lengthAdjust="spacing" textLength="133" x="2061.5" y="1540.4639">RepositoryFactory</text><text fill="#000000" font-family="FG Virgil" font-size="14" font-style="italic" lengthAdjust="spacing" textLength="90" x="2246" y="63.9951">&#171;repository&#187;</text><text fill="#000000" font-family="FG Virgil" font-size="14" lengthAdjust="spacing" textLength="159" x="2211.5" y="80.292">EnrollmentRepository</text><path d="M2276,15 C2276,5 2294,5 2294,5 C2294,5 2312,5 2312,15 L2312,41 C2312,51 2294,51 2294,51 C2294,51 2276,51 2276,41 L2276,15 " fill="#E2E2F0" style="stroke:#181818;stroke-width:1.5;"/><path d="M2276,15 C2276,25 2294,25 2294,25 C2294,25 2312,25 2312,15 " fill="none" style="stroke:#181818;stroke-width:1.5;"/><text fill="#000000" font-family="FG Virgil" font-size="14" font-style="italic" lengthAdjust="spacing" textLength="90" x="2246" y="1517.167">&#171;repository&#187;</text><text fill="#000000" font-family="FG Virgil" font-size="14" lengthAdjust="spacing" textLength="159" x="2211.5" y="1533.4639">EnrollmentRepository</text><path d="M2276,1546.7656 C2276,1536.7656 2294,1536.7656 2294,1536.7656 C2294,1536.7656 2312,1536.7656 2312,1546.7656 L2312,1572.7656 C2312,1582.7656 2294,1582.7656 2294,1582.7656 C2294,1582.7656 2276,1582.7656 2276,1572.7656 L2276,1546.7656 " fill="#E2E2F0" style="stroke:#181818;stroke-width:1.5;"/><path d="M2276,1546.7656 C2276,1556.7656 2294,1556.7656 2294,1556.7656 C2294,1556.7656 2312,1556.7656 2312,1546.7656 " fill="none" style="stroke:#181818;stroke-width:1.5;"/><text fill="#000000" font-family="FG Virgil" font-size="14" font-style="italic" lengthAdjust="spacing" textLength="90" x="2400.5" y="63.9951">&#171;repository&#187;</text><text fill="#000000" font-family="FG Virgil" font-size="14" lengthAdjust="spacing" textLength="118" x="2386.5" y="80.292">ExamRepository</text><path d="M2430.5,15 C2430.5,5 2448.5,5 2448.5,5 C2448.5,5 2466.5,5 2466.5,15 L2466.5,41 C2466.5,51 2448.5,51 2448.5,51 C2448.5,51 2430.5,51 2430.5,41 L2430.5,15 " fill="#E2E2F0" style="stroke:#181818;stroke-width:1.5;"/><path d="M2430.5,15 C2430.5,25 2448.5,25 2448.5,25 C2448.5,25 2466.5,25 2466.5,15 " fill="none" style="stroke:#181818;stroke-width:1.5;"/><text fill="#000000" font-family="FG Virgil" font-size="14" font-style="italic" lengthAdjust="spacing" textLength="90" x="2400.5" y="1517.167">&#171;repository&#187;</text><text fill="#000000" font-family="FG Virgil" font-size="14" lengthAdjust="spacing" textLength="118" x="2386.5" y="1533.4639">ExamRepository</text><path d="M2430.5,1546.7656 C2430.5,1536.7656 2448.5,1536.7656 2448.5,1536.7656 C2448.5,1536.7656 2466.5,1536.7656 2466.5,1546.7656 L2466.5,1572.7656 C2466.5,1582.7656 2448.5,1582.7656 2448.5,1582.7656 C2448.5,1582.7656 2430.5,1582.7656 2430.5,1572.7656 L2430.5,1546.7656 " fill="#E2E2F0" style="stroke:#181818;stroke-width:1.5;"/><path d="M2430.5,1546.7656 C2430.5,1556.7656 2448.5,1556.7656 2448.5,1556.7656 C2448.5,1556.7656 2466.5,1556.7656 2466.5,1546.7656 " fill="none" style="stroke:#181818;stroke-width:1.5;"/><text fill="#000000" font-family="FG Virgil" font-size="14" font-style="italic" lengthAdjust="spacing" textLength="90" x="2536.5" y="63.9951">&#171;repository&#187;</text><text fill="#000000" font-family="FG Virgil" font-size="14" lengthAdjust="spacing" textLength="122" x="2520.5" y="80.292">GradeRepository</text><path d="M2566.5,15 C2566.5,5 2584.5,5 2584.5,5 C2584.5,5 2602.5,5 2602.5,15 L2602.5,41 C2602.5,51 2584.5,51 2584.5,51 C2584.5,51 2566.5,51 2566.5,41 L2566.5,15 " fill="#E2E2F0" style="stroke:#181818;stroke-width:1.5;"/><path d="M2566.5,15 C2566.5,25 2584.5,25 2584.5,25 C2584.5,25 2602.5,25 2602.5,15 " fill="none" style="stroke:#181818;stroke-width:1.5;"/><text fill="#000000" font-family="FG Virgil" font-size="14" font-style="italic" lengthAdjust="spacing" textLength="90" x="2536.5" y="1517.167">&#171;repository&#187;</text><text fill="#000000" font-family="FG Virgil" font-size="14" lengthAdjust="spacing" textLength="122" x="2520.5" y="1533.4639">GradeRepository</text><path d="M2566.5,1546.7656 C2566.5,1536.7656 2584.5,1536.7656 2584.5,1536.7656 C2584.5,1536.7656 2602.5,1536.7656 2602.5,1546.7656 L2602.5,1572.7656 C2602.5,1582.7656 2584.5,1582.7656 2584.5,1582.7656 C2584.5,1582.7656 2566.5,1582.7656 2566.5,1572.7656 L2566.5,1546.7656 " fill="#E2E2F0" style="stroke:#181818;stroke-width:1.5;"/><path d="M2566.5,1546.7656 C2566.5,1556.7656 2584.5,1556.7656 2584.5,1556.7656 C2584.5,1556.7656 2602.5,1556.7656 2602.5,1546.7656 " fill="none" style="stroke:#181818;stroke-width:1.5;"/><rect fill="#E2E2F0" height="30.2969" rx="2.5" ry="2.5" style="stroke:#181818;stroke-width:0.5;" width="338" x="2658.5" y="52.2969"/><text fill="#000000" font-family="FG Virgil" font-size="14" lengthAdjust="spacing" textLength="324" x="2665.5" y="72.292">ConvertIntoExamReadyToBeAnsweredVisitor</text><rect fill="#E2E2F0" height="30.2969" rx="2.5" ry="2.5" style="stroke:#181818;stroke-width:0.5;" width="338" x="2658.5" y="1504.1719"/><text fill="#000000" font-family="FG Virgil" font-size="14" lengthAdjust="spacing" textLength="324" x="2665.5" y="1524.167">ConvertIntoExamReadyToBeAnsweredVisitor</text><rect fill="#E2E2F0" height="30.2969" rx="2.5" ry="2.5" style="stroke:#181818;stroke-width:0.5;" width="265" x="3006.5" y="52.2969"/><text fill="#000000" font-family="FG Virgil" font-size="14" lengthAdjust="spacing" textLength="251" x="3013.5" y="72.292">ConvertExamIntoSolutionsListener</text><rect fill="#E2E2F0" height="30.2969" rx="2.5" ry="2.5" style="stroke:#181818;stroke-width:0.5;" width="265" x="3006.5" y="1504.1719"/><text fill="#000000" font-family="FG Virgil" font-size="14" lengthAdjust="spacing" textLength="251" x="3013.5" y="1524.167">ConvertExamIntoSolutionsListener</text><rect fill="#E2E2F0" height="30.2969" rx="2.5" ry="2.5" style="stroke:#181818;stroke-width:0.5;" width="213" x="3281.5" y="52.2969"/><text fill="#000000" font-family="FG Virgil" font-size="14" lengthAdjust="spacing" textLength="199" x="3288.5" y="72.292">GradeAnsweredExamVisitor</text><rect fill="#E2E2F0" height="30.2969" rx="2.5" ry="2.5" style="stroke:#181818;stroke-width:0.5;" width="213" x="3281.5" y="1504.1719"/><text fill="#000000" font-family="FG Virgil" font-size="14" lengthAdjust="spacing" textLength="199" x="3288.5" y="1524.167">GradeAnsweredExamVisitor</text><rect fill="#FFFFFF" height="1372.4453" style="stroke:#181818;stroke-width:1.0;" width="10" x="334" y="114.7266"/><rect fill="#FFFFFF" height="1285.0469" style="stroke:#181818;stroke-width:1.0;" width="10" x="794" y="172.9922"/><rect fill="#FFFFFF" height="30" style="stroke:#181818;stroke-width:1.0;" width="10" x="1115" y="172.9922"/><rect fill="#FFFFFF" height="963.7188" style="stroke:#181818;stroke-width:1.0;" width="10" x="1307.5" y="465.1875"/><rect fill="#FFFFFF" height="87.3984" style="stroke:#181818;stroke-width:1.0;" width="10" x="1538" y="232.125"/><rect fill="#FFFFFF" height="203.6641" style="stroke:#181818;stroke-width:1.0;" width="10" x="1770.5" y="1196.1094"/><rect fill="#FFFFFF" height="30" style="stroke:#181818;stroke-width:1.0;" width="10" x="1961" y="1225.2422"/><rect fill="#FFFFFF" height="58.2656" style="stroke:#181818;stroke-width:1.0;" width="10" x="2123" y="1284.375"/><rect fill="#FFFFFF" height="29.1328" style="stroke:#181818;stroke-width:1.0;" width="10" x="2289" y="261.2578"/><rect fill="#FFFFFF" height="29.1328" style="stroke:#181818;stroke-width:1.0;" width="10" x="2443.5" y="494.3203"/><rect fill="#FFFFFF" height="14" style="stroke:#181818;stroke-width:1.0;" width="10" x="2579.5" y="1371.7734"/><rect fill="#FFFFFF" height="30" style="stroke:#181818;stroke-width:1.0;" width="10" x="2822.5" y="814.7813"/><rect fill="#FFFFFF" height="30" style="stroke:#181818;stroke-width:1.0;" width="10" x="3134" y="990.4453"/><rect fill="#FFFFFF" height="30" style="stroke:#181818;stroke-width:1.0;" width="10" x="3383" y="1078.7109"/><polygon fill="#181818" points="322,110.7266,332,114.7266,322,118.7266,326,114.7266" style="stroke:#181818;stroke-width:1.0;"/><line style="stroke:#181818;stroke-width:1.0;stroke-dasharray:2.0,2.0;" x1="37" x2="328" y1="114.7266" y2="114.7266"/><text fill="#000000" font-family="FG Virgil" font-size="13" lengthAdjust="spacing" textLength="90" x="44" y="109.6606">take An Exam</text><polygon fill="#181818" points="787,139.8594,797,143.8594,787,147.8594,791,143.8594" style="stroke:#181818;stroke-width:1.0;"/><line style="stroke:#181818;stroke-width:1.0;stroke-dasharray:2.0,2.0;" x1="344" x2="793" y1="143.8594" y2="143.8594"/><text fill="#000000" font-family="FG Virgil" font-size="13" lengthAdjust="spacing" textLength="41" x="351" y="138.7935">create</text><polygon fill="#181818" points="1103,168.9922,1113,172.9922,1103,176.9922,1107,172.9922" style="stroke:#181818;stroke-width:1.0;"/><line style="stroke:#181818;stroke-width:1.0;" x1="804" x2="1109" y1="172.9922" y2="172.9922"/><text fill="#000000" font-family="FG Virgil" font-size="13" lengthAdjust="spacing" textLength="297" x="811" y="167.9263">ensureAuthenticatedUserHasAnyOf(STUDENT)</text><polygon fill="#181818" points="1526,228.125,1536,232.125,1526,236.125,1530,232.125" style="stroke:#181818;stroke-width:1.0;"/><line style="stroke:#181818;stroke-width:1.0;" x1="804" x2="1532" y1="232.125" y2="232.125"/><text fill="#000000" font-family="FG Virgil" font-size="13" lengthAdjust="spacing" textLength="142" x="811" y="227.0591">allCoursesByStudent()</text><polygon fill="#181818" points="2277,257.2578,2287,261.2578,2277,265.2578,2281,261.2578" style="stroke:#181818;stroke-width:1.0;"/><line style="stroke:#181818;stroke-width:1.0;" x1="1548" x2="2283" y1="261.2578" y2="261.2578"/><text fill="#000000" font-family="FG Virgil" font-size="13" lengthAdjust="spacing" textLength="241" x="1555" y="256.1919">findAllCourseByStudent( systemUser)</text><polygon fill="#181818" points="1559,286.3906,1549,290.3906,1559,294.3906,1555,290.3906" style="stroke:#181818;stroke-width:1.0;"/><line style="stroke:#181818;stroke-width:1.0;" x1="1553" x2="2293" y1="290.3906" y2="290.3906"/><text fill="#000000" font-family="FG Virgil" font-size="13" lengthAdjust="spacing" textLength="72" x="1565" y="285.3247">coursesList</text><polygon fill="#181818" points="815,315.5234,805,319.5234,815,323.5234,811,319.5234" style="stroke:#181818;stroke-width:1.0;"/><line style="stroke:#181818;stroke-width:1.0;stroke-dasharray:2.0,2.0;" x1="809" x2="1542" y1="319.5234" y2="319.5234"/><text fill="#000000" font-family="FG Virgil" font-size="13" lengthAdjust="spacing" textLength="72" x="821" y="314.4575">coursesList</text><polygon fill="#181818" points="355,344.6563,345,348.6563,355,352.6563,351,348.6563" style="stroke:#181818;stroke-width:1.0;"/><line style="stroke:#181818;stroke-width:1.0;stroke-dasharray:2.0,2.0;" x1="349" x2="793" y1="348.6563" y2="348.6563"/><text fill="#000000" font-family="FG Virgil" font-size="13" lengthAdjust="spacing" textLength="72" x="361" y="343.5903">coursesList</text><polygon fill="#181818" points="48,373.7891,38,377.7891,48,381.7891,44,377.7891" style="stroke:#181818;stroke-width:1.0;"/><line style="stroke:#181818;stroke-width:1.0;stroke-dasharray:2.0,2.0;" x1="42" x2="333" y1="377.7891" y2="377.7891"/><text fill="#000000" font-family="FG Virgil" font-size="13" lengthAdjust="spacing" textLength="93" x="54" y="372.7231">List of courses</text><polygon fill="#181818" points="322,402.9219,332,406.9219,322,410.9219,326,406.9219" style="stroke:#181818;stroke-width:1.0;"/><line style="stroke:#181818;stroke-width:1.0;stroke-dasharray:2.0,2.0;" x1="37" x2="328" y1="406.9219" y2="406.9219"/><text fill="#000000" font-family="FG Virgil" font-size="13" lengthAdjust="spacing" textLength="105" x="44" y="401.856">choose a course</text><polygon fill="#181818" points="782,432.0547,792,436.0547,782,440.0547,786,436.0547" style="stroke:#181818;stroke-width:1.0;"/><line style="stroke:#181818;stroke-width:1.0;" x1="344" x2="788" y1="436.0547" y2="436.0547"/><text fill="#000000" font-family="FG Virgil" font-size="13" lengthAdjust="spacing" textLength="43" x="351" y="430.9888">course</text><polygon fill="#181818" points="1295.5,461.1875,1305.5,465.1875,1295.5,469.1875,1299.5,465.1875" style="stroke:#181818;stroke-width:1.0;"/><line style="stroke:#181818;stroke-width:1.0;" x1="804" x2="1301.5" y1="465.1875" y2="465.1875"/><text fill="#000000" font-family="FG Virgil" font-size="13" lengthAdjust="spacing" textLength="324" x="811" y="460.1216">allExamsByCourseAndDate(courseCode, calendar)</text><polygon fill="#181818" points="2431.5,490.3203,2441.5,494.3203,2431.5,498.3203,2435.5,494.3203" style="stroke:#181818;stroke-width:1.0;"/><line style="stroke:#181818;stroke-width:1.0;" x1="1317.5" x2="2437.5" y1="494.3203" y2="494.3203"/><text fill="#000000" font-family="FG Virgil" font-size="13" lengthAdjust="spacing" textLength="334" x="1324.5" y="489.2544">findExamsByCourseAndDate(courseCode, calendar)</text><polygon fill="#181818" points="1328.5,519.4531,1318.5,523.4531,1328.5,527.4531,1324.5,523.4531" style="stroke:#181818;stroke-width:1.0;"/><line style="stroke:#181818;stroke-width:1.0;" x1="1322.5" x2="2447.5" y1="523.4531" y2="523.4531"/><text fill="#000000" font-family="FG Virgil" font-size="13" lengthAdjust="spacing" textLength="66" x="1334.5" y="518.3872">examsList</text><polygon fill="#181818" points="815,548.5859,805,552.5859,815,556.5859,811,552.5859" style="stroke:#181818;stroke-width:1.0;"/><line style="stroke:#181818;stroke-width:1.0;stroke-dasharray:2.0,2.0;" x1="809" x2="1306.5" y1="552.5859" y2="552.5859"/><text fill="#000000" font-family="FG Virgil" font-size="13" lengthAdjust="spacing" textLength="66" x="821" y="547.52">examsList</text><polygon fill="#181818" points="355,577.7188,345,581.7188,355,585.7188,351,581.7188" style="stroke:#181818;stroke-width:1.0;"/><line style="stroke:#181818;stroke-width:1.0;stroke-dasharray:2.0,2.0;" x1="349" x2="793" y1="581.7188" y2="581.7188"/><text fill="#000000" font-family="FG Virgil" font-size="13" lengthAdjust="spacing" textLength="66" x="361" y="576.6528">examsList</text><polygon fill="#181818" points="48,606.8516,38,610.8516,48,614.8516,44,610.8516" style="stroke:#181818;stroke-width:1.0;"/><line style="stroke:#181818;stroke-width:1.0;stroke-dasharray:2.0,2.0;" x1="42" x2="333" y1="610.8516" y2="610.8516"/><text fill="#000000" font-family="FG Virgil" font-size="13" lengthAdjust="spacing" textLength="87" x="54" y="605.7856">List of exams</text><polygon fill="#181818" points="322,635.9844,332,639.9844,322,643.9844,326,639.9844" style="stroke:#181818;stroke-width:1.0;"/><line style="stroke:#181818;stroke-width:1.0;stroke-dasharray:2.0,2.0;" x1="37" x2="328" y1="639.9844" y2="639.9844"/><text fill="#000000" font-family="FG Virgil" font-size="13" lengthAdjust="spacing" textLength="175" x="44" y="634.9185">choose an exam to answer</text><polygon fill="#181818" points="782,665.1172,792,669.1172,782,673.1172,786,669.1172" style="stroke:#181818;stroke-width:1.0;"/><line style="stroke:#181818;stroke-width:1.0;stroke-dasharray:2.0,2.0;" x1="344" x2="788" y1="669.1172" y2="669.1172"/><text fill="#000000" font-family="FG Virgil" font-size="13" lengthAdjust="spacing" textLength="37" x="351" y="664.0513">exam</text><polygon fill="#181818" points="48,694.25,38,698.25,48,702.25,44,698.25" style="stroke:#181818;stroke-width:1.0;"/><line style="stroke:#181818;stroke-width:1.0;stroke-dasharray:2.0,2.0;" x1="42" x2="333" y1="698.25" y2="698.25"/><text fill="#000000" font-family="FG Virgil" font-size="13" lengthAdjust="spacing" textLength="234" x="54" y="693.1841">ask path to the file with the answers</text><polygon fill="#181818" points="322,723.3828,332,727.3828,322,731.3828,326,727.3828" style="stroke:#181818;stroke-width:1.0;"/><line style="stroke:#181818;stroke-width:1.0;stroke-dasharray:2.0,2.0;" x1="37" x2="328" y1="727.3828" y2="727.3828"/><text fill="#000000" font-family="FG Virgil" font-size="13" lengthAdjust="spacing" textLength="273" x="44" y="722.3169">insert the path to the file with the answers</text><polygon fill="#181818" points="782,752.5156,792,756.5156,782,760.5156,786,756.5156" style="stroke:#181818;stroke-width:1.0;"/><line style="stroke:#181818;stroke-width:1.0;stroke-dasharray:2.0,2.0;" x1="344" x2="788" y1="756.5156" y2="756.5156"/><text fill="#000000" font-family="FG Virgil" font-size="13" lengthAdjust="spacing" textLength="372" x="351" y="751.4497">saveExamToBeAnsweredOnPath(selectedExam , filepath)</text><polygon fill="#181818" points="1295.5,781.6484,1305.5,785.6484,1295.5,789.6484,1299.5,785.6484" style="stroke:#181818;stroke-width:1.0;"/><line style="stroke:#181818;stroke-width:1.0;" x1="804" x2="1301.5" y1="785.6484" y2="785.6484"/><text fill="#000000" font-family="FG Virgil" font-size="13" lengthAdjust="spacing" textLength="336" x="811" y="780.5825">convertExamToExamToBeAnswered(selectedExam)</text><polygon fill="#181818" points="2810.5,810.7813,2820.5,814.7813,2810.5,818.7813,2814.5,814.7813" style="stroke:#181818;stroke-width:1.0;"/><line style="stroke:#181818;stroke-width:1.0;" x1="1317.5" x2="2816.5" y1="814.7813" y2="814.7813"/><text fill="#000000" font-family="FG Virgil" font-size="13" lengthAdjust="spacing" textLength="295" x="1324.5" y="809.7153">examToBeAnsweredVisitor.visit(sectionsTree)</text><polygon fill="#181818" points="1328.5,869.9141,1318.5,873.9141,1328.5,877.9141,1324.5,873.9141" style="stroke:#181818;stroke-width:1.0;"/><line style="stroke:#181818;stroke-width:1.0;stroke-dasharray:2.0,2.0;" x1="1322.5" x2="2826.5" y1="873.9141" y2="873.9141"/><text fill="#000000" font-family="FG Virgil" font-size="13" lengthAdjust="spacing" textLength="193" x="1334.5" y="868.8481">sectionsOfExamToBeAnswerd</text><polygon fill="#181818" points="815,899.0469,805,903.0469,815,907.0469,811,903.0469" style="stroke:#181818;stroke-width:1.0;"/><line style="stroke:#181818;stroke-width:1.0;stroke-dasharray:2.0,2.0;" x1="809" x2="1306.5" y1="903.0469" y2="903.0469"/><text fill="#000000" font-family="FG Virgil" font-size="13" lengthAdjust="spacing" textLength="193" x="821" y="897.981">sectionsOfExamToBeAnswerd</text><polygon fill="#181818" points="782,928.1797,792,932.1797,782,936.1797,786,932.1797" style="stroke:#181818;stroke-width:1.0;"/><line style="stroke:#181818;stroke-width:1.0;stroke-dasharray:2.0,2.0;" x1="344" x2="788" y1="932.1797" y2="932.1797"/><text fill="#000000" font-family="FG Virgil" font-size="13" lengthAdjust="spacing" textLength="426" x="351" y="927.1138">gradeSubmitedExam(examWithSolutions, filePathAnsweredExam)</text><polygon fill="#181818" points="1295.5,957.3125,1305.5,961.3125,1295.5,965.3125,1299.5,961.3125" style="stroke:#181818;stroke-width:1.0;"/><line style="stroke:#181818;stroke-width:1.0;" x1="804" x2="1301.5" y1="961.3125" y2="961.3125"/><text fill="#000000" font-family="FG Virgil" font-size="13" lengthAdjust="spacing" textLength="446" x="811" y="956.2466">getGradeSubmitedExam(examWithSolution , filePathAnsweredExam)</text><polygon fill="#181818" points="3122,986.4453,3132,990.4453,3122,994.4453,3126,990.4453" style="stroke:#181818;stroke-width:1.0;"/><line style="stroke:#181818;stroke-width:1.0;" x1="1317.5" x2="3128" y1="990.4453" y2="990.4453"/><text fill="#000000" font-family="FG Virgil" font-size="13" lengthAdjust="spacing" textLength="309" x="1324.5" y="985.3794">convertIntoSolutionsListener.getExamAnswers()</text><polygon fill="#181818" points="1328.5,1045.5781,1318.5,1049.5781,1328.5,1053.5781,1324.5,1049.5781" style="stroke:#181818;stroke-width:1.0;"/><line style="stroke:#181818;stroke-width:1.0;stroke-dasharray:2.0,2.0;" x1="1322.5" x2="3138" y1="1049.5781" y2="1049.5781"/><text fill="#000000" font-family="FG Virgil" font-size="13" lengthAdjust="spacing" textLength="107" x="1334.5" y="1044.5122">solutionsofExam</text><polygon fill="#181818" points="3371,1074.7109,3381,1078.7109,3371,1082.7109,3375,1078.7109" style="stroke:#181818;stroke-width:1.0;"/><line style="stroke:#181818;stroke-width:1.0;" x1="1317.5" x2="3377" y1="1078.7109" y2="1078.7109"/><text fill="#000000" font-family="FG Virgil" font-size="13" lengthAdjust="spacing" textLength="242" x="1324.5" y="1073.645">gradeExamVisitor.visit(answerd_tree)</text><polygon fill="#181818" points="1328.5,1133.8438,1318.5,1137.8438,1328.5,1141.8438,1324.5,1137.8438" style="stroke:#181818;stroke-width:1.0;"/><line style="stroke:#181818;stroke-width:1.0;stroke-dasharray:2.0,2.0;" x1="1322.5" x2="3387" y1="1137.8438" y2="1137.8438"/><text fill="#000000" font-family="FG Virgil" font-size="13" lengthAdjust="spacing" textLength="37" x="1334.5" y="1132.7778">grade</text><polygon fill="#181818" points="815,1162.9766,805,1166.9766,815,1170.9766,811,1166.9766" style="stroke:#181818;stroke-width:1.0;"/><line style="stroke:#181818;stroke-width:1.0;stroke-dasharray:2.0,2.0;" x1="809" x2="1306.5" y1="1166.9766" y2="1166.9766"/><text fill="#000000" font-family="FG Virgil" font-size="13" lengthAdjust="spacing" textLength="37" x="821" y="1161.9106">grade</text><polygon fill="#181818" points="1758.5,1192.1094,1768.5,1196.1094,1758.5,1200.1094,1762.5,1196.1094" style="stroke:#181818;stroke-width:1.0;"/><line style="stroke:#181818;stroke-width:1.0;stroke-dasharray:2.0,2.0;" x1="804" x2="1764.5" y1="1196.1094" y2="1196.1094"/><text fill="#000000" font-family="FG Virgil" font-size="13" lengthAdjust="spacing" textLength="373" x="811" y="1191.0435">saveGrade(systemUser, examWithSolutions, examGrade)</text><polygon fill="#181818" points="1949,1221.2422,1959,1225.2422,1949,1229.2422,1953,1225.2422" style="stroke:#181818;stroke-width:1.0;"/><line style="stroke:#181818;stroke-width:1.0;" x1="1780.5" x2="1955" y1="1225.2422" y2="1225.2422"/><text fill="#000000" font-family="FG Virgil" font-size="13" lengthAdjust="spacing" textLength="85" x="1787.5" y="1220.1763">repositories()</text><polygon fill="#181818" points="2111,1280.375,2121,1284.375,2111,1288.375,2115,1284.375" style="stroke:#181818;stroke-width:1.0;"/><line style="stroke:#181818;stroke-width:1.0;" x1="1317.5" x2="2117" y1="1284.375" y2="1284.375"/><text fill="#000000" font-family="FG Virgil" font-size="13" lengthAdjust="spacing" textLength="54" x="1324.5" y="1279.3091">grades()</text><polygon fill="#181818" points="2572.5,1309.5078,2582.5,1313.5078,2572.5,1317.5078,2576.5,1313.5078" style="stroke:#181818;stroke-width:1.0;"/><line style="stroke:#181818;stroke-width:1.0;" x1="2133" x2="2578.5" y1="1313.5078" y2="1313.5078"/><text fill="#000000" font-family="FG Virgil" font-size="13" lengthAdjust="spacing" textLength="41" x="2140" y="1308.4419">create</text><polygon fill="#181818" points="1791.5,1338.6406,1781.5,1342.6406,1791.5,1346.6406,1787.5,1342.6406" style="stroke:#181818;stroke-width:1.0;"/><line style="stroke:#181818;stroke-width:1.0;" x1="1785.5" x2="2127" y1="1342.6406" y2="1342.6406"/><text fill="#000000" font-family="FG Virgil" font-size="13" lengthAdjust="spacing" textLength="106" x="1797.5" y="1337.5747">gradeRepository</text><polygon fill="#181818" points="2567.5,1367.7734,2577.5,1371.7734,2567.5,1375.7734,2571.5,1371.7734" style="stroke:#181818;stroke-width:1.0;"/><line style="stroke:#181818;stroke-width:1.0;" x1="1780.5" x2="2573.5" y1="1371.7734" y2="1371.7734"/><text fill="#000000" font-family="FG Virgil" font-size="13" lengthAdjust="spacing" textLength="78" x="1787.5" y="1366.7075">save(grade)</text><polygon fill="#181818" points="1791.5,1381.7734,1781.5,1385.7734,1791.5,1389.7734,1787.5,1385.7734" style="stroke:#181818;stroke-width:1.0;"/><line style="stroke:#181818;stroke-width:1.0;stroke-dasharray:2.0,2.0;" x1="1785.5" x2="2583.5" y1="1385.7734" y2="1385.7734"/><polygon fill="#181818" points="815,1395.7734,805,1399.7734,815,1403.7734,811,1399.7734" style="stroke:#181818;stroke-width:1.0;"/><line style="stroke:#181818;stroke-width:1.0;stroke-dasharray:2.0,2.0;" x1="809" x2="1774.5" y1="1399.7734" y2="1399.7734"/><polygon fill="#181818" points="815,1424.9063,805,1428.9063,815,1432.9063,811,1428.9063" style="stroke:#181818;stroke-width:1.0;"/><line style="stroke:#181818;stroke-width:1.0;stroke-dasharray:2.0,2.0;" x1="809" x2="1311.5" y1="1428.9063" y2="1428.9063"/><text fill="#000000" font-family="FG Virgil" font-size="13" lengthAdjust="spacing" textLength="128" x="821" y="1423.8403">grade and feedback</text><polygon fill="#181818" points="355,1454.0391,345,1458.0391,355,1462.0391,351,1458.0391" style="stroke:#181818;stroke-width:1.0;"/><line style="stroke:#181818;stroke-width:1.0;stroke-dasharray:2.0,2.0;" x1="349" x2="798" y1="1458.0391" y2="1458.0391"/><text fill="#000000" font-family="FG Virgil" font-size="13" lengthAdjust="spacing" textLength="128" x="361" y="1452.9731">grade and feedback</text><polygon fill="#181818" points="48,1483.1719,38,1487.1719,48,1491.1719,44,1487.1719" style="stroke:#181818;stroke-width:1.0;"/><line style="stroke:#181818;stroke-width:1.0;stroke-dasharray:2.0,2.0;" x1="42" x2="338" y1="1487.1719" y2="1487.1719"/><text fill="#000000" font-family="FG Virgil" font-size="13" lengthAdjust="spacing" textLength="183" x="54" y="1482.106">Display Grade and Feedback</text><!--SRC=[bLVBRXiv4BppAtYK0ISV80W653ls6iZ6mKhE7XVqJ4iYF285afAZVFrsSnvycADnT4WaTbUnsLN3QTjNgGx2Y3tV2LM_6UaSABuHZGN6xH0yYEfLR67bpWrm0vMBWpLinB5nzrgvxs8F_Fw1_vHcAviuoUv4hT-asdRaZ8lAQSDNxbY3SbnOlgG5XdiP9ojv4BYw5g-mL5z_YVtp8wNWlul5mO15Y71IgvkRCS0jbcDqqu0XOFHhiH27GoEh8dvvT3jjv6yVN84voGeu4GWC_BwCfLt_5WhxjCVoUZ1Y0GEhKpM1LbGV8SiSGtYIwS686eeaMugKy2d13p1MMZH21TGt-ENbYLP9XF0ht_yVE6WhKSlplTVuJEZ-wsAnQRyHgXPEl0WBqU43c535zSN233zI5knpXazNHf6-PIaqNygms3BlL_xfqmtQSiuTEeylbT_IcrkUX0CCOIRvblA22-UyCe1nnY9dOeQtsHpLjaS3P4OyEia4zRC5yvUmItL-sinMw-Uxhz_NLspO9z3WTkbdoF7axy8r51BIgbBppRbecbjzD1RibtFt0C-kM2WcoMSiXIDVKTOvtqXLBtlgmCpj6OssfmP41ovnC5PaBfoWQil_XXPcKGEAf5dvYOxZL6aFudvwmsJ0mIAjgUQSLhdUz4aiDLkrqnfjAxem8t2nB39VfcLt6St96Kr3TaKLsvulLNs7jSzQxAskuPfNeW5L2smzIypKyT1gJ-cbJP-uLjG_sIHeaJ3HFXbtT1ZSXxwslMI9fpEQkDgyPGb5IR6GCAgNJs4ZSYaVvaxZL_k6ZoehN0oKWkkut7CB-ueNhDiH46y4R2c-XTyaBUoWexBzSvtkB1K-DSxdJJFWiT_NOyK9g8Th_GMbeqIedzGF99jPQ70K02yll_Qaj0avPSnpbLOdBAWbp6aJGcHXFQwjY82FokbMKL6VO-nFwGLksrS8V3xH_xX3HQyykpO0Lz4r_K7wIvVdHoa-cETr28th2t_Qf5shGvDoEuz3IhPhPuFZorvs0io8-5_qo4etHq_KIapIzxLsGet9lGNtC4dBHsdVoqy1QjnGqZS_W_ZtQMZhk-XdB8IWBR-T5PGVPVw0vEFOgOHSv3wklMH91tmZumODZlVAHIkTrTkdklxFUQiFDO_nN3hdA6Oia9tBLyZ6dTh5iojtc5QnCNW9-RrcOHQuvWM3qf9FZ4xSy_Gd77Zz2oiUQ-TycF4aU9kKFWDn16NbrAY7SN8nDzAw6vQxnamNqkMF5D6Fths9mjimJA5JmBvdNKd92_NokI_NDcXHAevKdsrRDISwa657qlEPFdPP6P8_11C73yT9B1xFXS6Dbny7V2lNV0DGl-3VtibW6GQlxbCQLGeSXTkhhozm9OF7dRI7HfpRetko-u4i8df-_1y0]--></g></svg>