<?xml version="1.0" encoding="us-ascii" standalone="no"?><svg xmlns="http://www.w3.org/2000/svg" xmlns:xlink="http://www.w3.org/1999/xlink" contentStyleType="text/css" height="719px" preserveAspectRatio="none" style="width:2984px;height:719px;background:#FFFFFF;" version="1.1" viewBox="0 0 2984 719" width="2984px" zoomAndPan="magnify"><defs/><g><!--cluster presentation--><g id="cluster_presentation"><path d="M907.5,6 L1013.5,6 A3.75,3.75 0 0 1 1016,8.5 L1023,28.2969 L1238.5,28.2969 A2.5,2.5 0 0 1 1241,30.7969 L1241,143.5 A2.5,2.5 0 0 1 1238.5,146 L907.5,146 A2.5,2.5 0 0 1 905,143.5 L905,8.5 A2.5,2.5 0 0 1 907.5,6 " fill="#DDDDDD" style="stroke:#000000;stroke-width:1.5;"/><line style="stroke:#000000;stroke-width:1.5;" x1="905" x2="1023" y1="28.2969" y2="28.2969"/><text fill="#000000" font-family="sans-serif" font-size="14" font-weight="bold" lengthAdjust="spacing" textLength="105" x="909" y="20.9951">presentation</text></g><!--cluster domain--><g id="cluster_domain"><path d="M1759.5,368 L1820.5,368 A3.75,3.75 0 0 1 1823,370.5 L1830,390.2969 L2974.5,390.2969 A2.5,2.5 0 0 1 2977,392.7969 L2977,570.5 A2.5,2.5 0 0 1 2974.5,573 L1759.5,573 A2.5,2.5 0 0 1 1757,570.5 L1757,370.5 A2.5,2.5 0 0 1 1759.5,368 " fill="#DBD8AE" style="stroke:#000000;stroke-width:1.5;"/><line style="stroke:#000000;stroke-width:1.5;" x1="1757" x2="1830" y1="390.2969" y2="390.2969"/><text fill="#000000" font-family="sans-serif" font-size="14" font-weight="bold" lengthAdjust="spacing" textLength="60" x="1761" y="382.9951">domain</text></g><!--cluster persistence--><g id="cluster_persistence"><path d="M1562.5,597 L1657.5,597 A3.75,3.75 0 0 1 1660,599.5 L1667,619.2969 L2382.5,619.2969 A2.5,2.5 0 0 1 2385,621.7969 L2385,709.5 A2.5,2.5 0 0 1 2382.5,712 L1562.5,712 A2.5,2.5 0 0 1 1560,709.5 L1560,599.5 A2.5,2.5 0 0 1 1562.5,597 " fill="#DBD8AE" style="stroke:#000000;stroke-width:1.5;"/><line style="stroke:#000000;stroke-width:1.5;" x1="1560" x2="1667" y1="619.2969" y2="619.2969"/><text fill="#000000" font-family="sans-serif" font-size="14" font-weight="bold" lengthAdjust="spacing" textLength="94" x="1564" y="611.9951">persistence</text></g><!--cluster application--><g id="cluster_application"><path d="M8.5,170 L101.5,170 A3.75,3.75 0 0 1 104,172.5 L111,192.2969 L1533.5,192.2969 A2.5,2.5 0 0 1 1536,194.7969 L1536,709.5 A2.5,2.5 0 0 1 1533.5,712 L8.5,712 A2.5,2.5 0 0 1 6,709.5 L6,172.5 A2.5,2.5 0 0 1 8.5,170 " fill="#EAF4D3" style="stroke:#000000;stroke-width:1.5;"/><line style="stroke:#000000;stroke-width:1.5;" x1="6" x2="111" y1="192.2969" y2="192.2969"/><text fill="#000000" font-family="sans-serif" font-size="14" font-weight="bold" lengthAdjust="spacing" textLength="92" x="10" y="184.9951">application</text></g><!--class TakeAnExamUI--><g id="elem_TakeAnExamUI"><rect codeLine="4" fill="#F1F1F1" height="88.8594" id="TakeAnExamUI" rx="2.5" ry="2.5" style="stroke:#181818;stroke-width:0.5;" width="303" x="921.5" y="41"/><ellipse cx="1015.75" cy="61.1328" fill="#ADD1B2" rx="11" ry="11" style="stroke:#181818;stroke-width:1.0;"/><path d="M1018.0938,56.8047 C1017.1563,56.3672 1016.5625,56.2266 1015.6875,56.2266 C1013.0625,56.2266 1011.0625,58.3047 1011.0625,61.0234 L1011.0625,62.1484 C1011.0625,64.7266 1013.1719,66.6172 1016.0625,66.6172 C1017.2813,66.6172 1018.4375,66.3203 1019.1875,65.7734 C1019.7656,65.3672 1020.0938,64.9141 1020.0938,64.5234 C1020.0938,64.0703 1019.7031,63.6797 1019.2344,63.6797 C1019.0156,63.6797 1018.8125,63.7578 1018.625,63.9453 C1018.1719,64.4297 1018.1719,64.4297 1017.9844,64.5234 C1017.5625,64.7891 1016.875,64.9141 1016.1094,64.9141 C1014.0625,64.9141 1012.7656,63.8203 1012.7656,62.1172 L1012.7656,61.0234 C1012.7656,59.2422 1014.0156,57.9297 1015.75,57.9297 C1016.3281,57.9297 1016.9375,58.0859 1017.4063,58.3359 C1017.8906,58.6172 1018.0625,58.8359 1018.1563,59.2422 C1018.2188,59.6484 1018.25,59.7734 1018.3906,59.8984 C1018.5313,60.0391 1018.7656,60.1484 1018.9844,60.1484 C1019.25,60.1484 1019.5156,60.0078 1019.6875,59.7891 C1019.7969,59.6328 1019.8281,59.4453 1019.8281,59.0234 L1019.8281,57.6016 C1019.8281,57.1641 1019.8125,57.0391 1019.7188,56.8828 C1019.5625,56.6172 1019.2813,56.4766 1018.9844,56.4766 C1018.6875,56.4766 1018.4844,56.5703 1018.2656,56.8828 L1018.0938,56.8047 Z " fill="#000000"/><text fill="#000000" font-family="sans-serif" font-size="12" font-style="italic" lengthAdjust="spacing" textLength="25" x="1076.75" y="57.1387">&#171;ui&#187;</text><text fill="#000000" font-family="sans-serif" font-size="14" lengthAdjust="spacing" textLength="106" x="1036.25" y="72.9639">TakeAnExamUI</text><line style="stroke:#181818;stroke-width:0.5;" x1="922.5" x2="1223.5" y1="81.2656" y2="81.2656"/><rect fill="none" height="6" style="stroke:#C82930;stroke-width:1.0;" width="6" x="929.5" y="91.9141"/><text fill="#000000" font-family="sans-serif" font-size="14" lengthAdjust="spacing" textLength="277" x="941.5" y="98.2607">theController : TakeAnExamController</text><line style="stroke:#181818;stroke-width:0.5;" x1="922.5" x2="1223.5" y1="105.5625" y2="105.5625"/><ellipse cx="932.5" cy="119.2109" fill="#84BE84" rx="3" ry="3" style="stroke:#038048;stroke-width:1.0;"/><text fill="#000000" font-family="sans-serif" font-size="14" lengthAdjust="spacing" textLength="66" x="941.5" y="122.5576">doShow()</text></g><!--class Exam--><g id="elem_Exam"><rect codeLine="43" fill="#F1F1F1" height="154.0469" id="Exam" rx="2.5" ry="2.5" style="stroke:#181818;stroke-width:0.5;" width="367" x="2143.5" y="403"/><ellipse cx="2299.75" cy="423.1328" fill="#ADD1B2" rx="11" ry="11" style="stroke:#181818;stroke-width:1.0;"/><path d="M2302.0938,418.8047 C2301.1563,418.3672 2300.5625,418.2266 2299.6875,418.2266 C2297.0625,418.2266 2295.0625,420.3047 2295.0625,423.0234 L2295.0625,424.1484 C2295.0625,426.7266 2297.1719,428.6172 2300.0625,428.6172 C2301.2813,428.6172 2302.4375,428.3203 2303.1875,427.7734 C2303.7656,427.3672 2304.0938,426.9141 2304.0938,426.5234 C2304.0938,426.0703 2303.7031,425.6797 2303.2344,425.6797 C2303.0156,425.6797 2302.8125,425.7578 2302.625,425.9453 C2302.1719,426.4297 2302.1719,426.4297 2301.9844,426.5234 C2301.5625,426.7891 2300.875,426.9141 2300.1094,426.9141 C2298.0625,426.9141 2296.7656,425.8203 2296.7656,424.1172 L2296.7656,423.0234 C2296.7656,421.2422 2298.0156,419.9297 2299.75,419.9297 C2300.3281,419.9297 2300.9375,420.0859 2301.4063,420.3359 C2301.8906,420.6172 2302.0625,420.8359 2302.1563,421.2422 C2302.2188,421.6484 2302.25,421.7734 2302.3906,421.8984 C2302.5313,422.0391 2302.7656,422.1484 2302.9844,422.1484 C2303.25,422.1484 2303.5156,422.0078 2303.6875,421.7891 C2303.7969,421.6328 2303.8281,421.4453 2303.8281,421.0234 L2303.8281,419.6016 C2303.8281,419.1641 2303.8125,419.0391 2303.7188,418.8828 C2303.5625,418.6172 2303.2813,418.4766 2302.9844,418.4766 C2302.6875,418.4766 2302.4844,418.5703 2302.2656,418.8828 L2302.0938,418.8047 Z " fill="#000000"/><text fill="#000000" font-family="sans-serif" font-size="12" font-style="italic" lengthAdjust="spacing" textLength="50" x="2318.25" y="419.1387">&#171;Entity&#187;</text><text fill="#000000" font-family="sans-serif" font-size="14" lengthAdjust="spacing" textLength="39" x="2323.75" y="434.9639">Exam</text><line style="stroke:#181818;stroke-width:0.5;" x1="2144.5" x2="2509.5" y1="443.2656" y2="443.2656"/><rect fill="none" height="6" style="stroke:#C82930;stroke-width:1.0;" width="6" x="2151.5" y="453.9141"/><text fill="#000000" font-family="sans-serif" font-size="14" lengthAdjust="spacing" textLength="157" x="2163.5" y="460.2607">examTitle : ExamTitle</text><rect fill="none" height="6" style="stroke:#C82930;stroke-width:1.0;" width="6" x="2151.5" y="470.2109"/><text fill="#000000" font-family="sans-serif" font-size="14" lengthAdjust="spacing" textLength="175" x="2163.5" y="476.5576">examDates : ExamDates</text><rect fill="none" height="6" style="stroke:#C82930;stroke-width:1.0;" width="6" x="2151.5" y="486.5078"/><text fill="#000000" font-family="sans-serif" font-size="14" lengthAdjust="spacing" textLength="99" x="2163.5" y="492.8545">string : String</text><rect fill="none" height="6" style="stroke:#C82930;stroke-width:1.0;" width="6" x="2151.5" y="502.8047"/><text fill="#000000" font-family="sans-serif" font-size="14" lengthAdjust="spacing" textLength="61" x="2163.5" y="509.1514">id : Long</text><rect fill="none" height="6" style="stroke:#C82930;stroke-width:1.0;" width="6" x="2151.5" y="519.1016"/><text fill="#000000" font-family="sans-serif" font-size="14" lengthAdjust="spacing" textLength="183" x="2163.5" y="525.4482">courseCode : CourseCode</text><line style="stroke:#181818;stroke-width:0.5;" x1="2144.5" x2="2509.5" y1="532.75" y2="532.75"/><ellipse cx="2154.5" cy="546.3984" fill="#84BE84" rx="3" ry="3" style="stroke:#038048;stroke-width:1.0;"/><text fill="#000000" font-family="sans-serif" font-size="14" lengthAdjust="spacing" textLength="341" x="2163.5" y="549.7451">init(examTitle, examDates, courseCode , string)</text></g><!--class ExamTitle--><g id="elem_ExamTitle"><rect codeLine="23" fill="#F1F1F1" height="56.2656" id="ExamTitle" rx="2.5" ry="2.5" style="stroke:#181818;stroke-width:0.5;" width="113" x="2699.5" y="452"/><ellipse cx="2714.5" cy="472.1328" fill="#ADD1B2" rx="11" ry="11" style="stroke:#181818;stroke-width:1.0;"/><path d="M2716.8438,467.8047 C2715.9063,467.3672 2715.3125,467.2266 2714.4375,467.2266 C2711.8125,467.2266 2709.8125,469.3047 2709.8125,472.0234 L2709.8125,473.1484 C2709.8125,475.7266 2711.9219,477.6172 2714.8125,477.6172 C2716.0313,477.6172 2717.1875,477.3203 2717.9375,476.7734 C2718.5156,476.3672 2718.8438,475.9141 2718.8438,475.5234 C2718.8438,475.0703 2718.4531,474.6797 2717.9844,474.6797 C2717.7656,474.6797 2717.5625,474.7578 2717.375,474.9453 C2716.9219,475.4297 2716.9219,475.4297 2716.7344,475.5234 C2716.3125,475.7891 2715.625,475.9141 2714.8594,475.9141 C2712.8125,475.9141 2711.5156,474.8203 2711.5156,473.1172 L2711.5156,472.0234 C2711.5156,470.2422 2712.7656,468.9297 2714.5,468.9297 C2715.0781,468.9297 2715.6875,469.0859 2716.1563,469.3359 C2716.6406,469.6172 2716.8125,469.8359 2716.9063,470.2422 C2716.9688,470.6484 2717,470.7734 2717.1406,470.8984 C2717.2813,471.0391 2717.5156,471.1484 2717.7344,471.1484 C2718,471.1484 2718.2656,471.0078 2718.4375,470.7891 C2718.5469,470.6328 2718.5781,470.4453 2718.5781,470.0234 L2718.5781,468.6016 C2718.5781,468.1641 2718.5625,468.0391 2718.4688,467.8828 C2718.3125,467.6172 2718.0313,467.4766 2717.7344,467.4766 C2717.4375,467.4766 2717.2344,467.5703 2717.0156,467.8828 L2716.8438,467.8047 Z " fill="#000000"/><text fill="#000000" font-family="sans-serif" font-size="12" font-style="italic" lengthAdjust="spacing" textLength="85" x="2726.5" y="468.1387">&#171;valueObject&#187;</text><text fill="#000000" font-family="sans-serif" font-size="14" lengthAdjust="spacing" textLength="72" x="2733" y="483.9639">ExamTitle</text><line style="stroke:#181818;stroke-width:0.5;" x1="2700.5" x2="2811.5" y1="492.2656" y2="492.2656"/><line style="stroke:#181818;stroke-width:0.5;" x1="2700.5" x2="2811.5" y1="500.2656" y2="500.2656"/></g><!--class CourseCode--><g id="elem_CourseCode"><rect codeLine="26" fill="#F1F1F1" height="56.2656" id="CourseCode" rx="2.5" ry="2.5" style="stroke:#181818;stroke-width:0.5;" width="118" x="2546" y="452"/><ellipse cx="2561" cy="472.1328" fill="#ADD1B2" rx="11" ry="11" style="stroke:#181818;stroke-width:1.0;"/><path d="M2563.3438,467.8047 C2562.4063,467.3672 2561.8125,467.2266 2560.9375,467.2266 C2558.3125,467.2266 2556.3125,469.3047 2556.3125,472.0234 L2556.3125,473.1484 C2556.3125,475.7266 2558.4219,477.6172 2561.3125,477.6172 C2562.5313,477.6172 2563.6875,477.3203 2564.4375,476.7734 C2565.0156,476.3672 2565.3438,475.9141 2565.3438,475.5234 C2565.3438,475.0703 2564.9531,474.6797 2564.4844,474.6797 C2564.2656,474.6797 2564.0625,474.7578 2563.875,474.9453 C2563.4219,475.4297 2563.4219,475.4297 2563.2344,475.5234 C2562.8125,475.7891 2562.125,475.9141 2561.3594,475.9141 C2559.3125,475.9141 2558.0156,474.8203 2558.0156,473.1172 L2558.0156,472.0234 C2558.0156,470.2422 2559.2656,468.9297 2561,468.9297 C2561.5781,468.9297 2562.1875,469.0859 2562.6563,469.3359 C2563.1406,469.6172 2563.3125,469.8359 2563.4063,470.2422 C2563.4688,470.6484 2563.5,470.7734 2563.6406,470.8984 C2563.7813,471.0391 2564.0156,471.1484 2564.2344,471.1484 C2564.5,471.1484 2564.7656,471.0078 2564.9375,470.7891 C2565.0469,470.6328 2565.0781,470.4453 2565.0781,470.0234 L2565.0781,468.6016 C2565.0781,468.1641 2565.0625,468.0391 2564.9688,467.8828 C2564.8125,467.6172 2564.5313,467.4766 2564.2344,467.4766 C2563.9375,467.4766 2563.7344,467.5703 2563.5156,467.8828 L2563.3438,467.8047 Z " fill="#000000"/><text fill="#000000" font-family="sans-serif" font-size="12" font-style="italic" lengthAdjust="spacing" textLength="85" x="2575.5" y="468.1387">&#171;valueObject&#187;</text><text fill="#000000" font-family="sans-serif" font-size="14" lengthAdjust="spacing" textLength="86" x="2575" y="483.9639">CourseCode</text><line style="stroke:#181818;stroke-width:0.5;" x1="2547" x2="2663" y1="492.2656" y2="492.2656"/><line style="stroke:#181818;stroke-width:0.5;" x1="2547" x2="2663" y1="500.2656" y2="500.2656"/></g><!--class ExamDates--><g id="elem_ExamDates"><rect codeLine="29" fill="#F1F1F1" height="56.2656" id="ExamDates" rx="2.5" ry="2.5" style="stroke:#181818;stroke-width:0.5;" width="113" x="2847.5" y="452"/><ellipse cx="2862.5" cy="472.1328" fill="#ADD1B2" rx="11" ry="11" style="stroke:#181818;stroke-width:1.0;"/><path d="M2864.8438,467.8047 C2863.9063,467.3672 2863.3125,467.2266 2862.4375,467.2266 C2859.8125,467.2266 2857.8125,469.3047 2857.8125,472.0234 L2857.8125,473.1484 C2857.8125,475.7266 2859.9219,477.6172 2862.8125,477.6172 C2864.0313,477.6172 2865.1875,477.3203 2865.9375,476.7734 C2866.5156,476.3672 2866.8438,475.9141 2866.8438,475.5234 C2866.8438,475.0703 2866.4531,474.6797 2865.9844,474.6797 C2865.7656,474.6797 2865.5625,474.7578 2865.375,474.9453 C2864.9219,475.4297 2864.9219,475.4297 2864.7344,475.5234 C2864.3125,475.7891 2863.625,475.9141 2862.8594,475.9141 C2860.8125,475.9141 2859.5156,474.8203 2859.5156,473.1172 L2859.5156,472.0234 C2859.5156,470.2422 2860.7656,468.9297 2862.5,468.9297 C2863.0781,468.9297 2863.6875,469.0859 2864.1563,469.3359 C2864.6406,469.6172 2864.8125,469.8359 2864.9063,470.2422 C2864.9688,470.6484 2865,470.7734 2865.1406,470.8984 C2865.2813,471.0391 2865.5156,471.1484 2865.7344,471.1484 C2866,471.1484 2866.2656,471.0078 2866.4375,470.7891 C2866.5469,470.6328 2866.5781,470.4453 2866.5781,470.0234 L2866.5781,468.6016 C2866.5781,468.1641 2866.5625,468.0391 2866.4688,467.8828 C2866.3125,467.6172 2866.0313,467.4766 2865.7344,467.4766 C2865.4375,467.4766 2865.2344,467.5703 2865.0156,467.8828 L2864.8438,467.8047 Z " fill="#000000"/><text fill="#000000" font-family="sans-serif" font-size="12" font-style="italic" lengthAdjust="spacing" textLength="85" x="2874.5" y="468.1387">&#171;valueObject&#187;</text><text fill="#000000" font-family="sans-serif" font-size="14" lengthAdjust="spacing" textLength="81" x="2876.5" y="483.9639">ExamDates</text><line style="stroke:#181818;stroke-width:0.5;" x1="2848.5" x2="2959.5" y1="492.2656" y2="492.2656"/><line style="stroke:#181818;stroke-width:0.5;" x1="2848.5" x2="2959.5" y1="500.2656" y2="500.2656"/></g><!--class ExamGrade--><g id="elem_ExamGrade"><rect codeLine="32" fill="#F1F1F1" height="151.7188" id="ExamGrade" rx="2.5" ry="2.5" style="stroke:#181818;stroke-width:0.5;" width="210" x="1773" y="404"/><ellipse cx="1823.75" cy="431.1172" fill="#ADD1B2" rx="11" ry="11" style="stroke:#181818;stroke-width:1.0;"/><path d="M1826.0938,426.7891 C1825.1563,426.3516 1824.5625,426.2109 1823.6875,426.2109 C1821.0625,426.2109 1819.0625,428.2891 1819.0625,431.0078 L1819.0625,432.1328 C1819.0625,434.7109 1821.1719,436.6016 1824.0625,436.6016 C1825.2813,436.6016 1826.4375,436.3047 1827.1875,435.7578 C1827.7656,435.3516 1828.0938,434.8984 1828.0938,434.5078 C1828.0938,434.0547 1827.7031,433.6641 1827.2344,433.6641 C1827.0156,433.6641 1826.8125,433.7422 1826.625,433.9297 C1826.1719,434.4141 1826.1719,434.4141 1825.9844,434.5078 C1825.5625,434.7734 1824.875,434.8984 1824.1094,434.8984 C1822.0625,434.8984 1820.7656,433.8047 1820.7656,432.1016 L1820.7656,431.0078 C1820.7656,429.2266 1822.0156,427.9141 1823.75,427.9141 C1824.3281,427.9141 1824.9375,428.0703 1825.4063,428.3203 C1825.8906,428.6016 1826.0625,428.8203 1826.1563,429.2266 C1826.2188,429.6328 1826.25,429.7578 1826.3906,429.8828 C1826.5313,430.0234 1826.7656,430.1328 1826.9844,430.1328 C1827.25,430.1328 1827.5156,429.9922 1827.6875,429.7734 C1827.7969,429.6172 1827.8281,429.4297 1827.8281,429.0078 L1827.8281,427.5859 C1827.8281,427.1484 1827.8125,427.0234 1827.7188,426.8672 C1827.5625,426.6016 1827.2813,426.4609 1826.9844,426.4609 C1826.6875,426.4609 1826.4844,426.5547 1826.2656,426.8672 L1826.0938,426.7891 Z " fill="#000000"/><text fill="#000000" font-family="sans-serif" font-size="12" font-style="italic" lengthAdjust="spacing" textLength="104" x="1842.25" y="420.1387">&#171;aggregate root&#187;</text><text fill="#000000" font-family="sans-serif" font-size="12" font-style="italic" lengthAdjust="spacing" textLength="49" x="1869.75" y="434.1074">&#171;entity&#187;</text><text fill="#000000" font-family="sans-serif" font-size="14" lengthAdjust="spacing" textLength="82" x="1853.25" y="449.9326">ExamGrade</text><line style="stroke:#181818;stroke-width:0.5;" x1="1774" x2="1982" y1="458.2344" y2="458.2344"/><rect fill="none" height="6" style="stroke:#C82930;stroke-width:1.0;" width="6" x="1781" y="468.8828"/><text fill="#000000" font-family="sans-serif" font-size="14" lengthAdjust="spacing" textLength="127" x="1793" y="475.2295">student : Student</text><rect fill="none" height="6" style="stroke:#C82930;stroke-width:1.0;" width="6" x="1781" y="485.1797"/><text fill="#000000" font-family="sans-serif" font-size="14" lengthAdjust="spacing" textLength="91" x="1793" y="491.5264">exam : Exam</text><rect fill="none" height="6" style="stroke:#C82930;stroke-width:1.0;" width="6" x="1781" y="501.4766"/><text fill="#000000" font-family="sans-serif" font-size="14" lengthAdjust="spacing" textLength="103" x="1793" y="507.8232">score : Double</text><rect fill="none" height="6" style="stroke:#C82930;stroke-width:1.0;" width="6" x="1781" y="517.7734"/><text fill="#000000" font-family="sans-serif" font-size="14" lengthAdjust="spacing" textLength="61" x="1793" y="524.1201">id : Long</text><line style="stroke:#181818;stroke-width:0.5;" x1="1774" x2="1982" y1="531.4219" y2="531.4219"/><ellipse cx="1784" cy="545.0703" fill="#84BE84" rx="3" ry="3" style="stroke:#038048;stroke-width:1.0;"/><text fill="#000000" font-family="sans-serif" font-size="14" lengthAdjust="spacing" textLength="184" x="1793" y="548.417">init(student, exam, score)</text></g><!--class Student--><g id="elem_Student"><rect codeLine="40" fill="#F1F1F1" height="56.2656" id="Student" rx="2.5" ry="2.5" style="stroke:#181818;stroke-width:0.5;" width="90" x="2018" y="452"/><ellipse cx="2033" cy="472.1328" fill="#ADD1B2" rx="11" ry="11" style="stroke:#181818;stroke-width:1.0;"/><path d="M2035.3438,467.8047 C2034.4063,467.3672 2033.8125,467.2266 2032.9375,467.2266 C2030.3125,467.2266 2028.3125,469.3047 2028.3125,472.0234 L2028.3125,473.1484 C2028.3125,475.7266 2030.4219,477.6172 2033.3125,477.6172 C2034.5313,477.6172 2035.6875,477.3203 2036.4375,476.7734 C2037.0156,476.3672 2037.3438,475.9141 2037.3438,475.5234 C2037.3438,475.0703 2036.9531,474.6797 2036.4844,474.6797 C2036.2656,474.6797 2036.0625,474.7578 2035.875,474.9453 C2035.4219,475.4297 2035.4219,475.4297 2035.2344,475.5234 C2034.8125,475.7891 2034.125,475.9141 2033.3594,475.9141 C2031.3125,475.9141 2030.0156,474.8203 2030.0156,473.1172 L2030.0156,472.0234 C2030.0156,470.2422 2031.2656,468.9297 2033,468.9297 C2033.5781,468.9297 2034.1875,469.0859 2034.6563,469.3359 C2035.1406,469.6172 2035.3125,469.8359 2035.4063,470.2422 C2035.4688,470.6484 2035.5,470.7734 2035.6406,470.8984 C2035.7813,471.0391 2036.0156,471.1484 2036.2344,471.1484 C2036.5,471.1484 2036.7656,471.0078 2036.9375,470.7891 C2037.0469,470.6328 2037.0781,470.4453 2037.0781,470.0234 L2037.0781,468.6016 C2037.0781,468.1641 2037.0625,468.0391 2036.9688,467.8828 C2036.8125,467.6172 2036.5313,467.4766 2036.2344,467.4766 C2035.9375,467.4766 2035.7344,467.5703 2035.5156,467.8828 L2035.3438,467.8047 Z " fill="#000000"/><text fill="#000000" font-family="sans-serif" font-size="12" font-style="italic" lengthAdjust="spacing" textLength="50" x="2051" y="468.1387">&#171;Entity&#187;</text><text fill="#000000" font-family="sans-serif" font-size="14" lengthAdjust="spacing" textLength="58" x="2047" y="483.9639">Student</text><line style="stroke:#181818;stroke-width:0.5;" x1="2019" x2="2107" y1="492.2656" y2="492.2656"/><line style="stroke:#181818;stroke-width:0.5;" x1="2019" x2="2107" y1="500.2656" y2="500.2656"/></g><!--class GradeRepository--><g id="elem_GradeRepository"><rect codeLine="48" fill="#F1F1F1" height="64.2969" id="GradeRepository" rx="2.5" ry="2.5" style="stroke:#181818;stroke-width:0.5;" width="152" x="2217" y="632"/><ellipse cx="2232" cy="648" fill="#B4A7E5" rx="11" ry="11" style="stroke:#181818;stroke-width:1.0;"/><path d="M2232.9531,644.7813 L2234.6719,644.7813 C2235.0625,644.7813 2235.25,644.75 2235.375,644.6719 C2235.6406,644.5156 2235.7813,644.2344 2235.7813,643.9375 C2235.7813,643.6719 2235.6719,643.4063 2235.4375,643.2344 C2235.2656,643.125 2235.125,643.0938 2234.6719,643.0938 L2229.5313,643.0938 C2229.0938,643.0938 2228.9688,643.1094 2228.8125,643.2031 C2228.5625,643.3594 2228.4063,643.6563 2228.4063,643.9375 C2228.4063,644.2188 2228.5469,644.4688 2228.7656,644.6406 C2228.9219,644.75 2229.1094,644.7813 2229.5313,644.7813 L2231.25,644.7813 L2231.25,651.2969 L2229.5313,651.2969 C2229.0938,651.2969 2228.9688,651.3125 2228.8125,651.4219 C2228.5625,651.5781 2228.4063,651.8594 2228.4063,652.1563 C2228.4063,652.4063 2228.5469,652.6719 2228.7656,652.8281 C2228.9219,652.9531 2229.125,653 2229.5313,653 L2234.6719,653 C2235.4219,653 2235.7813,652.7188 2235.7813,652.1563 C2235.7813,651.875 2235.6719,651.625 2235.4375,651.4531 C2235.2656,651.3281 2235.125,651.2969 2234.6719,651.2969 L2232.9531,651.2969 L2232.9531,644.7813 Z " fill="#000000"/><text fill="#000000" font-family="sans-serif" font-size="14" font-style="italic" lengthAdjust="spacing" textLength="120" x="2246" y="652.8467">GradeRepository</text><line style="stroke:#181818;stroke-width:0.5;" x1="2218" x2="2368" y1="664" y2="664"/><line style="stroke:#181818;stroke-width:0.5;" x1="2218" x2="2368" y1="672" y2="672"/><ellipse cx="2228" cy="685.6484" fill="#84BE84" rx="3" ry="3" style="stroke:#038048;stroke-width:1.0;"/><text fill="#000000" font-family="sans-serif" font-size="14" lengthAdjust="spacing" textLength="85" x="2237" y="688.9951">saveGrade()</text></g><!--class ExamRepository--><g id="elem_ExamRepository"><rect codeLine="52" fill="#F1F1F1" height="64.2969" id="ExamRepository" rx="2.5" ry="2.5" style="stroke:#181818;stroke-width:0.5;" width="363" x="1576.5" y="632"/><ellipse cx="1695.75" cy="648" fill="#B4A7E5" rx="11" ry="11" style="stroke:#181818;stroke-width:1.0;"/><path d="M1696.7031,644.7813 L1698.4219,644.7813 C1698.8125,644.7813 1699,644.75 1699.125,644.6719 C1699.3906,644.5156 1699.5313,644.2344 1699.5313,643.9375 C1699.5313,643.6719 1699.4219,643.4063 1699.1875,643.2344 C1699.0156,643.125 1698.875,643.0938 1698.4219,643.0938 L1693.2813,643.0938 C1692.8438,643.0938 1692.7188,643.1094 1692.5625,643.2031 C1692.3125,643.3594 1692.1563,643.6563 1692.1563,643.9375 C1692.1563,644.2188 1692.2969,644.4688 1692.5156,644.6406 C1692.6719,644.75 1692.8594,644.7813 1693.2813,644.7813 L1695,644.7813 L1695,651.2969 L1693.2813,651.2969 C1692.8438,651.2969 1692.7188,651.3125 1692.5625,651.4219 C1692.3125,651.5781 1692.1563,651.8594 1692.1563,652.1563 C1692.1563,652.4063 1692.2969,652.6719 1692.5156,652.8281 C1692.6719,652.9531 1692.875,653 1693.2813,653 L1698.4219,653 C1699.1719,653 1699.5313,652.7188 1699.5313,652.1563 C1699.5313,651.875 1699.4219,651.625 1699.1875,651.4531 C1699.0156,651.3281 1698.875,651.2969 1698.4219,651.2969 L1696.7031,651.2969 L1696.7031,644.7813 Z " fill="#000000"/><text fill="#000000" font-family="sans-serif" font-size="14" font-style="italic" lengthAdjust="spacing" textLength="116" x="1716.25" y="652.8467">ExamRepository</text><line style="stroke:#181818;stroke-width:0.5;" x1="1577.5" x2="1938.5" y1="664" y2="664"/><line style="stroke:#181818;stroke-width:0.5;" x1="1577.5" x2="1938.5" y1="672" y2="672"/><ellipse cx="1587.5" cy="685.6484" fill="#84BE84" rx="3" ry="3" style="stroke:#038048;stroke-width:1.0;"/><text fill="#000000" font-family="sans-serif" font-size="14" lengthAdjust="spacing" textLength="337" x="1596.5" y="688.9951">findExamsByCourseAndDates(course, calendar)</text></g><!--class EnrollmentRepository--><g id="elem_EnrollmentRepository"><rect codeLine="56" fill="#F1F1F1" height="64.2969" id="EnrollmentRepository" rx="2.5" ry="2.5" style="stroke:#181818;stroke-width:0.5;" width="207" x="1974.5" y="632"/><ellipse cx="1998.95" cy="648" fill="#B4A7E5" rx="11" ry="11" style="stroke:#181818;stroke-width:1.0;"/><path d="M1999.9031,644.7813 L2001.6219,644.7813 C2002.0125,644.7813 2002.2,644.75 2002.325,644.6719 C2002.5906,644.5156 2002.7313,644.2344 2002.7313,643.9375 C2002.7313,643.6719 2002.6219,643.4063 2002.3875,643.2344 C2002.2156,643.125 2002.075,643.0938 2001.6219,643.0938 L1996.4813,643.0938 C1996.0438,643.0938 1995.9188,643.1094 1995.7625,643.2031 C1995.5125,643.3594 1995.3563,643.6563 1995.3563,643.9375 C1995.3563,644.2188 1995.4969,644.4688 1995.7156,644.6406 C1995.8719,644.75 1996.0594,644.7813 1996.4813,644.7813 L1998.2,644.7813 L1998.2,651.2969 L1996.4813,651.2969 C1996.0438,651.2969 1995.9188,651.3125 1995.7625,651.4219 C1995.5125,651.5781 1995.3563,651.8594 1995.3563,652.1563 C1995.3563,652.4063 1995.4969,652.6719 1995.7156,652.8281 C1995.8719,652.9531 1996.075,653 1996.4813,653 L2001.6219,653 C2002.3719,653 2002.7313,652.7188 2002.7313,652.1563 C2002.7313,651.875 2002.6219,651.625 2002.3875,651.4531 C2002.2156,651.3281 2002.075,651.2969 2001.6219,651.2969 L1999.9031,651.2969 L1999.9031,644.7813 Z " fill="#000000"/><text fill="#000000" font-family="sans-serif" font-size="14" font-style="italic" lengthAdjust="spacing" textLength="154" x="2015.05" y="652.8467">EnrollmentRepository</text><line style="stroke:#181818;stroke-width:0.5;" x1="1975.5" x2="2180.5" y1="664" y2="664"/><line style="stroke:#181818;stroke-width:0.5;" x1="1975.5" x2="2180.5" y1="672" y2="672"/><ellipse cx="1985.5" cy="685.6484" fill="#84BE84" rx="3" ry="3" style="stroke:#038048;stroke-width:1.0;"/><text fill="#000000" font-family="sans-serif" font-size="14" lengthAdjust="spacing" textLength="181" x="1994.5" y="688.9951">findAllCourseByStudent()</text></g><!--class TakeAnExamController--><g id="elem_TakeAnExamController"><rect codeLine="62" fill="#F1F1F1" height="137.75" id="TakeAnExamController" rx="2.5" ry="2.5" style="stroke:#181818;stroke-width:0.5;" width="498" x="824" y="205"/><ellipse cx="985.75" cy="225.1328" fill="#ADD1B2" rx="11" ry="11" style="stroke:#181818;stroke-width:1.0;"/><path d="M988.0938,220.8047 C987.1563,220.3672 986.5625,220.2266 985.6875,220.2266 C983.0625,220.2266 981.0625,222.3047 981.0625,225.0234 L981.0625,226.1484 C981.0625,228.7266 983.1719,230.6172 986.0625,230.6172 C987.2813,230.6172 988.4375,230.3203 989.1875,229.7734 C989.7656,229.3672 990.0938,228.9141 990.0938,228.5234 C990.0938,228.0703 989.7031,227.6797 989.2344,227.6797 C989.0156,227.6797 988.8125,227.7578 988.625,227.9453 C988.1719,228.4297 988.1719,228.4297 987.9844,228.5234 C987.5625,228.7891 986.875,228.9141 986.1094,228.9141 C984.0625,228.9141 982.7656,227.8203 982.7656,226.1172 L982.7656,225.0234 C982.7656,223.2422 984.0156,221.9297 985.75,221.9297 C986.3281,221.9297 986.9375,222.0859 987.4063,222.3359 C987.8906,222.6172 988.0625,222.8359 988.1563,223.2422 C988.2188,223.6484 988.25,223.7734 988.3906,223.8984 C988.5313,224.0391 988.7656,224.1484 988.9844,224.1484 C989.25,224.1484 989.5156,224.0078 989.6875,223.7891 C989.7969,223.6328 989.8281,223.4453 989.8281,223.0234 L989.8281,221.6016 C989.8281,221.1641 989.8125,221.0391 989.7188,220.8828 C989.5625,220.6172 989.2813,220.4766 988.9844,220.4766 C988.6875,220.4766 988.4844,220.5703 988.2656,220.8828 L988.0938,220.8047 Z " fill="#000000"/><text fill="#000000" font-family="sans-serif" font-size="12" font-style="italic" lengthAdjust="spacing" textLength="71" x="1053.75" y="221.1387">&#171;controller&#187;</text><text fill="#000000" font-family="sans-serif" font-size="14" lengthAdjust="spacing" textLength="166" x="1006.25" y="236.9639">TakeAnExamController</text><line style="stroke:#181818;stroke-width:0.5;" x1="825" x2="1321" y1="245.2656" y2="245.2656"/><rect fill="none" height="6" style="stroke:#C82930;stroke-width:1.0;" width="6" x="832" y="255.9141"/><text fill="#000000" font-family="sans-serif" font-size="14" lengthAdjust="spacing" textLength="204" x="844" y="262.2607">authz : AuthorizationService</text><line style="stroke:#181818;stroke-width:0.5;" x1="825" x2="1321" y1="269.5625" y2="269.5625"/><ellipse cx="835" cy="283.2109" fill="#84BE84" rx="3" ry="3" style="stroke:#038048;stroke-width:1.0;"/><text fill="#000000" font-family="sans-serif" font-size="14" lengthAdjust="spacing" textLength="158" x="844" y="286.5576">allCoursesByStudent()</text><ellipse cx="835" cy="299.5078" fill="#84BE84" rx="3" ry="3" style="stroke:#038048;stroke-width:1.0;"/><text fill="#000000" font-family="sans-serif" font-size="14" lengthAdjust="spacing" textLength="355" x="844" y="302.8545">allExamsByCourseAndDate(courseCode, calendar)</text><ellipse cx="835" cy="315.8047" fill="#84BE84" rx="3" ry="3" style="stroke:#038048;stroke-width:1.0;"/><text fill="#000000" font-family="sans-serif" font-size="14" lengthAdjust="spacing" textLength="406" x="844" y="319.1514">saveExamToBeAnsweredOnPath(selectedExam, filePath)</text><ellipse cx="835" cy="332.1016" fill="#84BE84" rx="3" ry="3" style="stroke:#038048;stroke-width:1.0;"/><text fill="#000000" font-family="sans-serif" font-size="14" lengthAdjust="spacing" textLength="472" x="844" y="335.4482">gradeSubmitedExam(examWithSolutions, filePathAnsweredExam)</text></g><!--class ExamManagementService--><g id="elem_ExamManagementService"><rect codeLine="70" fill="#F1F1F1" height="137.75" id="ExamManagementService" rx="2.5" ry="2.5" style="stroke:#181818;stroke-width:0.5;" width="639" x="22.5" y="411"/><ellipse cx="244.75" cy="431.1328" fill="#ADD1B2" rx="11" ry="11" style="stroke:#181818;stroke-width:1.0;"/><path d="M247.0938,426.8047 C246.1563,426.3672 245.5625,426.2266 244.6875,426.2266 C242.0625,426.2266 240.0625,428.3047 240.0625,431.0234 L240.0625,432.1484 C240.0625,434.7266 242.1719,436.6172 245.0625,436.6172 C246.2813,436.6172 247.4375,436.3203 248.1875,435.7734 C248.7656,435.3672 249.0938,434.9141 249.0938,434.5234 C249.0938,434.0703 248.7031,433.6797 248.2344,433.6797 C248.0156,433.6797 247.8125,433.7578 247.625,433.9453 C247.1719,434.4297 247.1719,434.4297 246.9844,434.5234 C246.5625,434.7891 245.875,434.9141 245.1094,434.9141 C243.0625,434.9141 241.7656,433.8203 241.7656,432.1172 L241.7656,431.0234 C241.7656,429.2422 243.0156,427.9297 244.75,427.9297 C245.3281,427.9297 245.9375,428.0859 246.4063,428.3359 C246.8906,428.6172 247.0625,428.8359 247.1563,429.2422 C247.2188,429.6484 247.25,429.7734 247.3906,429.8984 C247.5313,430.0391 247.7656,430.1484 247.9844,430.1484 C248.25,430.1484 248.5156,430.0078 248.6875,429.7891 C248.7969,429.6328 248.8281,429.4453 248.8281,429.0234 L248.8281,427.6016 C248.8281,427.1641 248.8125,427.0391 248.7188,426.8828 C248.5625,426.6172 248.2813,426.4766 247.9844,426.4766 C247.6875,426.4766 247.4844,426.5703 247.2656,426.8828 L247.0938,426.8047 Z " fill="#000000"/><text fill="#000000" font-family="sans-serif" font-size="12" font-style="italic" lengthAdjust="spacing" textLength="56" x="330.25" y="427.1387">&#171;service&#187;</text><text fill="#000000" font-family="sans-serif" font-size="14" lengthAdjust="spacing" textLength="186" x="265.25" y="442.9639">ExamManagementService</text><line style="stroke:#181818;stroke-width:0.5;" x1="23.5" x2="660.5" y1="451.2656" y2="451.2656"/><rect fill="none" height="6" style="stroke:#C82930;stroke-width:1.0;" width="6" x="30.5" y="461.9141"/><text fill="#000000" font-family="sans-serif" font-size="14" lengthAdjust="spacing" textLength="249" x="42.5" y="468.2607">examRepository : ExamRepository</text><line style="stroke:#181818;stroke-width:0.5;" x1="23.5" x2="660.5" y1="475.5625" y2="475.5625"/><ellipse cx="33.5" cy="489.2109" fill="#84BE84" rx="3" ry="3" style="stroke:#038048;stroke-width:1.0;"/><text fill="#000000" font-family="sans-serif" font-size="14" lengthAdjust="spacing" textLength="337" x="42.5" y="492.5576">findExamsByCourseAndDates(course, calendar)</text><ellipse cx="33.5" cy="505.5078" fill="#84BE84" rx="3" ry="3" style="stroke:#038048;stroke-width:1.0;"/><text fill="#000000" font-family="sans-serif" font-size="14" lengthAdjust="spacing" textLength="370" x="42.5" y="508.8545">convertExamToExamToBeAnswered(selectedExam)</text><ellipse cx="33.5" cy="521.8047" fill="#84BE84" rx="3" ry="3" style="stroke:#038048;stroke-width:1.0;"/><text fill="#000000" font-family="sans-serif" font-size="14" lengthAdjust="spacing" textLength="613" x="42.5" y="525.1514">getGradeSubmitedExam(examWithSolutions.examContent(), filePathAnsweredExam)</text><ellipse cx="33.5" cy="538.1016" fill="#84BE84" rx="3" ry="3" style="stroke:#038048;stroke-width:1.0;"/><text fill="#000000" font-family="sans-serif" font-size="14" lengthAdjust="spacing" textLength="489" x="42.5" y="541.4482">generateFeedback(examWithSolutions.examContent(), examGrade)</text></g><!--class EnrollmentManagementService--><g id="elem_EnrollmentManagementService"><rect codeLine="79" fill="#F1F1F1" height="88.8594" id="EnrollmentManagementService" rx="2.5" ry="2.5" style="stroke:#181818;stroke-width:0.5;" width="357" x="696.5" y="435.5"/><ellipse cx="757.25" cy="455.6328" fill="#ADD1B2" rx="11" ry="11" style="stroke:#181818;stroke-width:1.0;"/><path d="M759.5938,451.3047 C758.6563,450.8672 758.0625,450.7266 757.1875,450.7266 C754.5625,450.7266 752.5625,452.8047 752.5625,455.5234 L752.5625,456.6484 C752.5625,459.2266 754.6719,461.1172 757.5625,461.1172 C758.7813,461.1172 759.9375,460.8203 760.6875,460.2734 C761.2656,459.8672 761.5938,459.4141 761.5938,459.0234 C761.5938,458.5703 761.2031,458.1797 760.7344,458.1797 C760.5156,458.1797 760.3125,458.2578 760.125,458.4453 C759.6719,458.9297 759.6719,458.9297 759.4844,459.0234 C759.0625,459.2891 758.375,459.4141 757.6094,459.4141 C755.5625,459.4141 754.2656,458.3203 754.2656,456.6172 L754.2656,455.5234 C754.2656,453.7422 755.5156,452.4297 757.25,452.4297 C757.8281,452.4297 758.4375,452.5859 758.9063,452.8359 C759.3906,453.1172 759.5625,453.3359 759.6563,453.7422 C759.7188,454.1484 759.75,454.2734 759.8906,454.3984 C760.0313,454.5391 760.2656,454.6484 760.4844,454.6484 C760.75,454.6484 761.0156,454.5078 761.1875,454.2891 C761.2969,454.1328 761.3281,453.9453 761.3281,453.5234 L761.3281,452.1016 C761.3281,451.6641 761.3125,451.5391 761.2188,451.3828 C761.0625,451.1172 760.7813,450.9766 760.4844,450.9766 C760.1875,450.9766 759.9844,451.0703 759.7656,451.3828 L759.5938,451.3047 Z " fill="#000000"/><text fill="#000000" font-family="sans-serif" font-size="12" font-style="italic" lengthAdjust="spacing" textLength="56" x="863.25" y="451.6387">&#171;service&#187;</text><text fill="#000000" font-family="sans-serif" font-size="14" lengthAdjust="spacing" textLength="227" x="777.75" y="467.4639">EnrollmentManagementService</text><line style="stroke:#181818;stroke-width:0.5;" x1="697.5" x2="1052.5" y1="475.7656" y2="475.7656"/><rect fill="none" height="6" style="stroke:#C82930;stroke-width:1.0;" width="6" x="704.5" y="486.4141"/><text fill="#000000" font-family="sans-serif" font-size="14" lengthAdjust="spacing" textLength="331" x="716.5" y="492.7607">enrollmentRepository : enrollmentRepository</text><line style="stroke:#181818;stroke-width:0.5;" x1="697.5" x2="1052.5" y1="500.0625" y2="500.0625"/><ellipse cx="707.5" cy="513.7109" fill="#84BE84" rx="3" ry="3" style="stroke:#038048;stroke-width:1.0;"/><text fill="#000000" font-family="sans-serif" font-size="14" lengthAdjust="spacing" textLength="264" x="716.5" y="517.0576">findAllCourseByStudent(systemUser)</text></g><!--class GradeManagementService--><g id="elem_GradeManagementService"><rect codeLine="85" fill="#F1F1F1" height="88.8594" id="GradeManagementService" rx="2.5" ry="2.5" style="stroke:#181818;stroke-width:0.5;" width="431" x="1088.5" y="435.5"/><ellipse cx="1204.75" cy="455.6328" fill="#ADD1B2" rx="11" ry="11" style="stroke:#181818;stroke-width:1.0;"/><path d="M1207.0938,451.3047 C1206.1563,450.8672 1205.5625,450.7266 1204.6875,450.7266 C1202.0625,450.7266 1200.0625,452.8047 1200.0625,455.5234 L1200.0625,456.6484 C1200.0625,459.2266 1202.1719,461.1172 1205.0625,461.1172 C1206.2813,461.1172 1207.4375,460.8203 1208.1875,460.2734 C1208.7656,459.8672 1209.0938,459.4141 1209.0938,459.0234 C1209.0938,458.5703 1208.7031,458.1797 1208.2344,458.1797 C1208.0156,458.1797 1207.8125,458.2578 1207.625,458.4453 C1207.1719,458.9297 1207.1719,458.9297 1206.9844,459.0234 C1206.5625,459.2891 1205.875,459.4141 1205.1094,459.4141 C1203.0625,459.4141 1201.7656,458.3203 1201.7656,456.6172 L1201.7656,455.5234 C1201.7656,453.7422 1203.0156,452.4297 1204.75,452.4297 C1205.3281,452.4297 1205.9375,452.5859 1206.4063,452.8359 C1206.8906,453.1172 1207.0625,453.3359 1207.1563,453.7422 C1207.2188,454.1484 1207.25,454.2734 1207.3906,454.3984 C1207.5313,454.5391 1207.7656,454.6484 1207.9844,454.6484 C1208.25,454.6484 1208.5156,454.5078 1208.6875,454.2891 C1208.7969,454.1328 1208.8281,453.9453 1208.8281,453.5234 L1208.8281,452.1016 C1208.8281,451.6641 1208.8125,451.5391 1208.7188,451.3828 C1208.5625,451.1172 1208.2813,450.9766 1207.9844,450.9766 C1207.6875,450.9766 1207.4844,451.0703 1207.2656,451.3828 L1207.0938,451.3047 Z " fill="#000000"/><text fill="#000000" font-family="sans-serif" font-size="12" font-style="italic" lengthAdjust="spacing" textLength="56" x="1292.25" y="451.6387">&#171;service&#187;</text><text fill="#000000" font-family="sans-serif" font-size="14" lengthAdjust="spacing" textLength="190" x="1225.25" y="467.4639">GradeManagementService</text><line style="stroke:#181818;stroke-width:0.5;" x1="1089.5" x2="1518.5" y1="475.7656" y2="475.7656"/><rect fill="none" height="6" style="stroke:#C82930;stroke-width:1.0;" width="6" x="1096.5" y="486.4141"/><text fill="#000000" font-family="sans-serif" font-size="14" lengthAdjust="spacing" textLength="255" x="1108.5" y="492.7607">gradeRepository : GradeRepository</text><line style="stroke:#181818;stroke-width:0.5;" x1="1089.5" x2="1518.5" y1="500.0625" y2="500.0625"/><ellipse cx="1099.5" cy="513.7109" fill="#84BE84" rx="3" ry="3" style="stroke:#038048;stroke-width:1.0;"/><text fill="#000000" font-family="sans-serif" font-size="14" lengthAdjust="spacing" textLength="405" x="1108.5" y="517.0576">saveGrade(systemUser, examWithSolutions, examGrade)</text></g><!--class ConvertExamIntoSolutionsListener--><g id="elem_ConvertExamIntoSolutionsListener"><rect codeLine="90" fill="#F1F1F1" height="64.2969" id="ConvertExamIntoSolutionsListener" rx="2.5" ry="2.5" style="stroke:#181818;stroke-width:0.5;" width="283" x="22.5" y="632"/><ellipse cx="37.5" cy="648" fill="#ADD1B2" rx="11" ry="11" style="stroke:#181818;stroke-width:1.0;"/><path d="M39.8438,643.6719 C38.9063,643.2344 38.3125,643.0938 37.4375,643.0938 C34.8125,643.0938 32.8125,645.1719 32.8125,647.8906 L32.8125,649.0156 C32.8125,651.5938 34.9219,653.4844 37.8125,653.4844 C39.0313,653.4844 40.1875,653.1875 40.9375,652.6406 C41.5156,652.2344 41.8438,651.7813 41.8438,651.3906 C41.8438,650.9375 41.4531,650.5469 40.9844,650.5469 C40.7656,650.5469 40.5625,650.625 40.375,650.8125 C39.9219,651.2969 39.9219,651.2969 39.7344,651.3906 C39.3125,651.6563 38.625,651.7813 37.8594,651.7813 C35.8125,651.7813 34.5156,650.6875 34.5156,648.9844 L34.5156,647.8906 C34.5156,646.1094 35.7656,644.7969 37.5,644.7969 C38.0781,644.7969 38.6875,644.9531 39.1563,645.2031 C39.6406,645.4844 39.8125,645.7031 39.9063,646.1094 C39.9688,646.5156 40,646.6406 40.1406,646.7656 C40.2813,646.9063 40.5156,647.0156 40.7344,647.0156 C41,647.0156 41.2656,646.875 41.4375,646.6563 C41.5469,646.5 41.5781,646.3125 41.5781,645.8906 L41.5781,644.4688 C41.5781,644.0313 41.5625,643.9063 41.4688,643.75 C41.3125,643.4844 41.0313,643.3438 40.7344,643.3438 C40.4375,643.3438 40.2344,643.4375 40.0156,643.75 L39.8438,643.6719 Z " fill="#000000"/><text fill="#000000" font-family="sans-serif" font-size="14" lengthAdjust="spacing" textLength="251" x="51.5" y="652.8467">ConvertExamIntoSolutionsListener</text><line style="stroke:#181818;stroke-width:0.5;" x1="23.5" x2="304.5" y1="664" y2="664"/><line style="stroke:#181818;stroke-width:0.5;" x1="23.5" x2="304.5" y1="672" y2="672"/><ellipse cx="33.5" cy="685.6484" fill="#84BE84" rx="3" ry="3" style="stroke:#038048;stroke-width:1.0;"/><text fill="#000000" font-family="sans-serif" font-size="14" lengthAdjust="spacing" textLength="133" x="42.5" y="688.9951">getExamAnswers()</text></g><!--class ConvertIntoExamReadyToBeAnsweredVisitor--><g id="elem_ConvertIntoExamReadyToBeAnsweredVisitor"><rect codeLine="95" fill="#F1F1F1" height="64.2969" id="ConvertIntoExamReadyToBeAnsweredVisitor" rx="2.5" ry="2.5" style="stroke:#181818;stroke-width:0.5;" width="356" x="341" y="632"/><ellipse cx="356" cy="648" fill="#ADD1B2" rx="11" ry="11" style="stroke:#181818;stroke-width:1.0;"/><path d="M358.3438,643.6719 C357.4063,643.2344 356.8125,643.0938 355.9375,643.0938 C353.3125,643.0938 351.3125,645.1719 351.3125,647.8906 L351.3125,649.0156 C351.3125,651.5938 353.4219,653.4844 356.3125,653.4844 C357.5313,653.4844 358.6875,653.1875 359.4375,652.6406 C360.0156,652.2344 360.3438,651.7813 360.3438,651.3906 C360.3438,650.9375 359.9531,650.5469 359.4844,650.5469 C359.2656,650.5469 359.0625,650.625 358.875,650.8125 C358.4219,651.2969 358.4219,651.2969 358.2344,651.3906 C357.8125,651.6563 357.125,651.7813 356.3594,651.7813 C354.3125,651.7813 353.0156,650.6875 353.0156,648.9844 L353.0156,647.8906 C353.0156,646.1094 354.2656,644.7969 356,644.7969 C356.5781,644.7969 357.1875,644.9531 357.6563,645.2031 C358.1406,645.4844 358.3125,645.7031 358.4063,646.1094 C358.4688,646.5156 358.5,646.6406 358.6406,646.7656 C358.7813,646.9063 359.0156,647.0156 359.2344,647.0156 C359.5,647.0156 359.7656,646.875 359.9375,646.6563 C360.0469,646.5 360.0781,646.3125 360.0781,645.8906 L360.0781,644.4688 C360.0781,644.0313 360.0625,643.9063 359.9688,643.75 C359.8125,643.4844 359.5313,643.3438 359.2344,643.3438 C358.9375,643.3438 358.7344,643.4375 358.5156,643.75 L358.3438,643.6719 Z " fill="#000000"/><text fill="#000000" font-family="sans-serif" font-size="14" lengthAdjust="spacing" textLength="324" x="370" y="652.8467">ConvertIntoExamReadyToBeAnsweredVisitor</text><line style="stroke:#181818;stroke-width:0.5;" x1="342" x2="696" y1="664" y2="664"/><line style="stroke:#181818;stroke-width:0.5;" x1="342" x2="696" y1="672" y2="672"/><ellipse cx="352" cy="685.6484" fill="#84BE84" rx="3" ry="3" style="stroke:#038048;stroke-width:1.0;"/><text fill="#000000" font-family="sans-serif" font-size="14" lengthAdjust="spacing" textLength="133" x="361" y="688.9951">visit(sectionsTree)</text></g><!--class GradeAnsweredExamVisitor--><g id="elem_GradeAnsweredExamVisitor"><rect codeLine="98" fill="#F1F1F1" height="64.2969" id="GradeAnsweredExamVisitor" rx="2.5" ry="2.5" style="stroke:#181818;stroke-width:0.5;" width="231" x="732.5" y="632"/><ellipse cx="747.5" cy="648" fill="#ADD1B2" rx="11" ry="11" style="stroke:#181818;stroke-width:1.0;"/><path d="M749.8438,643.6719 C748.9063,643.2344 748.3125,643.0938 747.4375,643.0938 C744.8125,643.0938 742.8125,645.1719 742.8125,647.8906 L742.8125,649.0156 C742.8125,651.5938 744.9219,653.4844 747.8125,653.4844 C749.0313,653.4844 750.1875,653.1875 750.9375,652.6406 C751.5156,652.2344 751.8438,651.7813 751.8438,651.3906 C751.8438,650.9375 751.4531,650.5469 750.9844,650.5469 C750.7656,650.5469 750.5625,650.625 750.375,650.8125 C749.9219,651.2969 749.9219,651.2969 749.7344,651.3906 C749.3125,651.6563 748.625,651.7813 747.8594,651.7813 C745.8125,651.7813 744.5156,650.6875 744.5156,648.9844 L744.5156,647.8906 C744.5156,646.1094 745.7656,644.7969 747.5,644.7969 C748.0781,644.7969 748.6875,644.9531 749.1563,645.2031 C749.6406,645.4844 749.8125,645.7031 749.9063,646.1094 C749.9688,646.5156 750,646.6406 750.1406,646.7656 C750.2813,646.9063 750.5156,647.0156 750.7344,647.0156 C751,647.0156 751.2656,646.875 751.4375,646.6563 C751.5469,646.5 751.5781,646.3125 751.5781,645.8906 L751.5781,644.4688 C751.5781,644.0313 751.5625,643.9063 751.4688,643.75 C751.3125,643.4844 751.0313,643.3438 750.7344,643.3438 C750.4375,643.3438 750.2344,643.4375 750.0156,643.75 L749.8438,643.6719 Z " fill="#000000"/><text fill="#000000" font-family="sans-serif" font-size="14" lengthAdjust="spacing" textLength="199" x="761.5" y="652.8467">GradeAnsweredExamVisitor</text><line style="stroke:#181818;stroke-width:0.5;" x1="733.5" x2="962.5" y1="664" y2="664"/><line style="stroke:#181818;stroke-width:0.5;" x1="733.5" x2="962.5" y1="672" y2="672"/><ellipse cx="743.5" cy="685.6484" fill="#84BE84" rx="3" ry="3" style="stroke:#038048;stroke-width:1.0;"/><text fill="#000000" font-family="sans-serif" font-size="14" lengthAdjust="spacing" textLength="137" x="752.5" y="688.9951">visit(answerd_tree)</text></g><!--class AuthorizationService--><g id="elem_AuthorizationService"><rect fill="#F1F1F1" height="48" id="AuthorizationService" rx="2.5" ry="2.5" style="stroke:#181818;stroke-width:0.5;" width="183" x="1554.5" y="456"/><ellipse cx="1569.5" cy="472" fill="#ADD1B2" rx="11" ry="11" style="stroke:#181818;stroke-width:1.0;"/><path d="M1571.8438,467.6719 C1570.9063,467.2344 1570.3125,467.0938 1569.4375,467.0938 C1566.8125,467.0938 1564.8125,469.1719 1564.8125,471.8906 L1564.8125,473.0156 C1564.8125,475.5938 1566.9219,477.4844 1569.8125,477.4844 C1571.0313,477.4844 1572.1875,477.1875 1572.9375,476.6406 C1573.5156,476.2344 1573.8438,475.7813 1573.8438,475.3906 C1573.8438,474.9375 1573.4531,474.5469 1572.9844,474.5469 C1572.7656,474.5469 1572.5625,474.625 1572.375,474.8125 C1571.9219,475.2969 1571.9219,475.2969 1571.7344,475.3906 C1571.3125,475.6563 1570.625,475.7813 1569.8594,475.7813 C1567.8125,475.7813 1566.5156,474.6875 1566.5156,472.9844 L1566.5156,471.8906 C1566.5156,470.1094 1567.7656,468.7969 1569.5,468.7969 C1570.0781,468.7969 1570.6875,468.9531 1571.1563,469.2031 C1571.6406,469.4844 1571.8125,469.7031 1571.9063,470.1094 C1571.9688,470.5156 1572,470.6406 1572.1406,470.7656 C1572.2813,470.9063 1572.5156,471.0156 1572.7344,471.0156 C1573,471.0156 1573.2656,470.875 1573.4375,470.6563 C1573.5469,470.5 1573.5781,470.3125 1573.5781,469.8906 L1573.5781,468.4688 C1573.5781,468.0313 1573.5625,467.9063 1573.4688,467.75 C1573.3125,467.4844 1573.0313,467.3438 1572.7344,467.3438 C1572.4375,467.3438 1572.2344,467.4375 1572.0156,467.75 L1571.8438,467.6719 Z " fill="#000000"/><text fill="#000000" font-family="sans-serif" font-size="14" lengthAdjust="spacing" textLength="151" x="1583.5" y="476.8467">AuthorizationService</text><line style="stroke:#181818;stroke-width:0.5;" x1="1555.5" x2="1736.5" y1="488" y2="488"/><line style="stroke:#181818;stroke-width:0.5;" x1="1555.5" x2="1736.5" y1="496" y2="496"/></g><!--link TakeAnExamController to AuthorizationService--><g id="link_TakeAnExamController_AuthorizationService"><path codeLine="105" d="M1322.08,290.929 C1394.36,303.268 1471.2,324.339 1536,360 C1575.77,381.89 1609.11,423.466 1628.32,451.212 " fill="none" id="TakeAnExamController-to-AuthorizationService" style="stroke:#181818;stroke-width:1.0;stroke-dasharray:7.0,7.0;"/><polygon fill="#181818" points="1631.28,455.542,1629.5022,445.8549,1628.4579,451.4146,1622.8983,450.3703,1631.28,455.542" style="stroke:#181818;stroke-width:1.0;"/></g><!--link TakeAnExamUI to TakeAnExamController--><g id="link_TakeAnExamUI_TakeAnExamController"><path codeLine="106" d="M1073,130.226 C1073,150.845 1073,176.015 1073,199.447 " fill="none" id="TakeAnExamUI-to-TakeAnExamController" style="stroke:#181818;stroke-width:1.0;stroke-dasharray:7.0,7.0;"/><polygon fill="#181818" points="1073,204.731,1077,195.731,1073,199.731,1069,195.731,1073,204.731" style="stroke:#181818;stroke-width:1.0;"/></g><!--link TakeAnExamController to ExamManagementService--><g id="link_TakeAnExamController_ExamManagementService"><path codeLine="107" d="M823.805,323.744 C775.494,334.605 725.457,346.844 679,360 C628.829,374.208 575.281,391.912 525.979,409.285 " fill="none" id="TakeAnExamController-to-ExamManagementService" style="stroke:#181818;stroke-width:1.0;stroke-dasharray:7.0,7.0;"/><polygon fill="#181818" points="521.222,410.965,531.0403,411.7408,525.9368,409.3005,528.3771,404.1971,521.222,410.965" style="stroke:#181818;stroke-width:1.0;"/></g><!--link TakeAnExamController to EnrollmentManagementService--><g id="link_TakeAnExamController_EnrollmentManagementService"><path codeLine="108" d="M1006.79,343.213 C978.72,372.137 946.68,405.148 921.22,431.379 " fill="none" id="TakeAnExamController-to-EnrollmentManagementService" style="stroke:#181818;stroke-width:1.0;stroke-dasharray:7.0,7.0;"/><polygon fill="#181818" points="917.513,435.199,926.6522,431.5283,920.996,431.6117,920.9126,425.9555,917.513,435.199" style="stroke:#181818;stroke-width:1.0;"/></g><!--link TakeAnExamController to GradeManagementService--><g id="link_TakeAnExamController_GradeManagementService"><path codeLine="109" d="M1150.24,343.213 C1183.13,372.256 1220.68,405.419 1250.44,431.701 " fill="none" id="TakeAnExamController-to-GradeManagementService" style="stroke:#181818;stroke-width:1.0;stroke-dasharray:7.0,7.0;"/><polygon fill="#181818" points="1254.4,435.199,1250.2878,426.2497,1250.6471,431.8952,1245.0016,432.2544,1254.4,435.199" style="stroke:#181818;stroke-width:1.0;"/></g><!--link ExamManagementService to Exam--><g id="link_ExamManagementService_Exam"><path codeLine="111" d="M496.285,410.86 C557.34,387.033 628.961,363.363 696.5,351.5 C735.131,344.715 2070.28,342.708 2108.5,351.5 C2147.7,360.516 2186.76,379.473 2220.78,400.124 " fill="none" id="ExamManagementService-to-Exam" style="stroke:#181818;stroke-width:1.0;"/><polygon fill="#181818" points="2225.33,402.915,2219.749,394.8,2221.0677,400.3011,2215.5667,401.6197,2225.33,402.915" style="stroke:#181818;stroke-width:1.0;"/></g><!--link ExamManagementService to ExamGrade--><g id="link_ExamManagementService_ExamGrade"><path codeLine="112" d="M496.285,410.86 C557.34,387.033 628.961,363.363 696.5,351.5 C724.981,346.497 1709.32,345.018 1737.5,351.5 C1768.38,358.604 1795.84,378.409 1818.11,400.405 " fill="none" id="ExamManagementService-to-ExamGrade" style="stroke:#181818;stroke-width:1.0;"/><polygon fill="#181818" points="1821.64,403.953,1818.1268,394.7521,1818.1131,400.4089,1812.4562,400.3952,1821.64,403.953" style="stroke:#181818;stroke-width:1.0;"/></g><!--link ExamManagementService to ConvertExamIntoSolutionsListener--><g id="link_ExamManagementService_ConvertExamIntoSolutionsListener"><path codeLine="113" d="M275.466,549.029 C249.143,575.944 220.013,605.728 198.136,628.0971 " fill="none" id="ExamManagementService-to-ConvertExamIntoSolutionsListener" style="stroke:#181818;stroke-width:1.0;stroke-dasharray:7.0,7.0;"/><polygon fill="#181818" points="194.414,631.9029,203.5665,628.2652,197.91,628.3282,197.847,622.6717,194.414,631.9029" style="stroke:#181818;stroke-width:1.0;"/></g><!--link ExamManagementService to ConvertIntoExamReadyToBeAnsweredVisitor--><g id="link_ExamManagementService_ConvertIntoExamReadyToBeAnsweredVisitor"><path codeLine="114" d="M408.16,549.029 C434.336,575.944 463.302,605.728 485.056,628.0971 " fill="none" id="ExamManagementService-to-ConvertIntoExamReadyToBeAnsweredVisitor" style="stroke:#181818;stroke-width:1.0;stroke-dasharray:7.0,7.0;"/><polygon fill="#181818" points="488.757,631.9029,485.3488,622.6625,485.2707,628.3188,479.6143,628.2407,488.757,631.9029" style="stroke:#181818;stroke-width:1.0;"/></g><!--link ExamManagementService to GradeAnsweredExamVisitor--><g id="link_ExamManagementService_GradeAnsweredExamVisitor"><path codeLine="115" d="M563.951,549.043 C602.204,560.144 641.663,571.204 679,581 C694.434,585.049 699.092,583.31 714,589 C741.931,599.662 771.191,615.243 795.218,629.3616 " fill="none" id="ExamManagementService-to-GradeAnsweredExamVisitor" style="stroke:#181818;stroke-width:1.0;stroke-dasharray:7.0,7.0;"/><polygon fill="#181818" points="799.642,631.9792,793.9328,623.9539,795.3387,629.4333,789.8593,630.8392,799.642,631.9792" style="stroke:#181818;stroke-width:1.0;"/></g><!--link Exam to ExamTitle--><g id="link_Exam_ExamTitle"><path codeLine="117" d="M2429.19,402.952 C2464.42,381.235 2505.4,360.953 2546.5,351.5 C2575.9,344.737 2659.62,339.764 2682,360 C2708.92,384.341 2729.48,420.741 2742.02,447.066 " fill="none" id="Exam-to-ExamTitle" style="stroke:#181818;stroke-width:1.0;"/><polygon fill="#181818" points="2744.26,451.859,2744.0618,442.0121,2742.1378,447.3317,2736.8182,445.4077,2744.26,451.859" style="stroke:#181818;stroke-width:1.0;"/></g><!--link Exam to CourseCode--><g id="link_Exam_CourseCode"><path codeLine="118" d="M2510.52,480 C2520.58,480 2530.64,480 2540.69,480 " fill="none" id="Exam-to-CourseCode" style="stroke:#181818;stroke-width:1.0;"/><polygon fill="#181818" points="2545.95,480,2536.95,476,2540.95,480,2536.95,484,2545.95,480" style="stroke:#181818;stroke-width:1.0;"/></g><!--link Exam to ExamDates--><g id="link_Exam_ExamDates"><path codeLine="119" d="M2429.19,402.952 C2464.42,381.235 2505.4,360.953 2546.5,351.5 C2575.3,344.875 2783.7,344.875 2812.5,351.5 C2856.64,361.652 2881.93,412.308 2894.31,446.903 " fill="none" id="Exam-to-ExamDates" style="stroke:#181818;stroke-width:1.0;"/><polygon fill="#181818" points="2896.04,451.884,2896.8529,442.0687,2894.3933,447.1629,2889.2992,444.7034,2896.04,451.884" style="stroke:#181818;stroke-width:1.0;"/></g><!--link ExamGrade to Student--><g id="link_ExamGrade_Student"><path codeLine="121" d="M1983.15,480 C1992.97,480 2002.8,480 2012.63,480 " fill="none" id="ExamGrade-to-Student" style="stroke:#181818;stroke-width:1.0;"/><polygon fill="#181818" points="2017.77,480,2008.77,476,2012.77,480,2008.77,484,2017.77,480" style="stroke:#181818;stroke-width:1.0;"/></g><!--link ExamGrade to Exam--><g id="link_ExamGrade_Exam"><path codeLine="122" d="M1948.39,403.845 C1964.8,388.284 1982.82,372.78 2001,360 C2008.07,355.028 2010.07,353.438 2018.5,351.5 C2057.48,342.534 2069.52,342.534 2108.5,351.5 C2147.7,360.516 2186.76,379.473 2220.78,400.124 " fill="none" id="ExamGrade-to-Exam" style="stroke:#181818;stroke-width:1.0;"/><polygon fill="#181818" points="2225.33,402.915,2219.749,394.8,2221.0677,400.3011,2215.5667,401.6197,2225.33,402.915" style="stroke:#181818;stroke-width:1.0;"/></g><!--link ExamManagementService to ExamRepository--><g id="link_ExamManagementService_ExamRepository"><path codeLine="125" d="M537.715,549.077 C583.524,562.204 632.528,574.029 679,581 C773.173,595.127 1442.08,573.308 1536,589 C1584.91,597.171 1637.64,614.37 1679.43,630.1317 " fill="none" id="ExamManagementService-to-ExamRepository" style="stroke:#181818;stroke-width:1.0;stroke-dasharray:7.0,7.0;"/><polygon fill="#181818" points="1684.21,631.9471,1677.2115,625.0174,1679.5345,630.1753,1674.3766,632.4983,1684.21,631.9471" style="stroke:#181818;stroke-width:1.0;"/></g><!--link GradeManagementService to GradeRepository--><g id="link_GradeManagementService_GradeRepository"><path codeLine="126" d="M1383.9,524.581 C1427.72,546.065 1483.82,569.734 1537,581 C1572.98,588.622 2164.32,576.752 2199,589 C2221.94,597.102 2243.57,613.284 2260.28,628.4541 " fill="none" id="GradeManagementService-to-GradeRepository" style="stroke:#181818;stroke-width:1.0;stroke-dasharray:7.0,7.0;"/><polygon fill="#181818" points="2263.99,631.8748,2260.0827,622.8342,2260.3133,628.4863,2254.6611,628.7169,2263.99,631.8748" style="stroke:#181818;stroke-width:1.0;"/></g><!--link EnrollmentManagementService to EnrollmentRepository--><g id="link_EnrollmentManagementService_EnrollmentRepository"><path codeLine="127" d="M941.341,524.608 C977.953,546.099 1025.18,569.767 1071,581 C1118.81,592.72 1909.68,575.446 1957,589 C1985.07,597.041 2013.1,613.513 2035.11,628.8785 " fill="none" id="EnrollmentManagementService-to-EnrollmentRepository" style="stroke:#181818;stroke-width:1.0;stroke-dasharray:7.0,7.0;"/><polygon fill="#181818" points="2039.42,631.9341,2034.3797,623.4727,2035.3371,629.0479,2029.7618,630.0053,2039.42,631.9341" style="stroke:#181818;stroke-width:1.0;"/></g><!--SRC=[bLR9Rjim4BthAuJqK0TnaaDxA0B3WBCq290YHPsqnu8M9p8RYJH8ogbh-D_BJI8bKtBYYwNXh6_UZFXnAULAN9oVhmf4PLKMPnahpxC22N6A2SevAfDaXR8Nb4DwjE8WW4ea2QD7wOThyzicgVePa_GHlS2Ctln5vTDTEfbKP3grnwUfNC8LevApeW2UNWIgNcnKJrBCvalsEZeshxjaboH13fYLYEZeU86_8DWcHikde3sgq2ZFEUH8GiePazEf4gdCYTpK6TciG6a_4bc0okYcVkwSNoilmfsRv-1SI4vehWxdvY4u8LX9xrbBbh6A2mK3rk6kcfT6uoGbbCXHazJOnn-7ncCNzzWNlul0O0kRJDQegE1XyGSo3SGsiEaO-PJUOzNWCc0qQ7pBaOdunfu9MM4bDw2Rfqw_NAj2Yunn3VargnQjzkutoRN0nR0D65i7KRHT6IuJbV6DotYu-3PPXsriC3-4m0KH4cW6mHHORK8by6UKGMem_G4h9eXaVBFls1Ohq1gCgfks_fIzQvrqnFD9-amereVYScEPDAFO46DakQiuZ0gW6F4cMDG_rTkWL73svs-3pOh21hhSk0RibU42xFm2GQjLGR9wXm5w_em_nNTOiAycawnvQRCHLNBvJx5efluP9_-CupdmDSd2mKPrgYAMgpcFGJVoKnz1ppNGp3gxL3RY5JZW1_eToUL8GA7644nBnWgl0hGuDCvrv-VLeYHEpQoUNqGkvwoeT2726zRUjLwtVvxDtn1LAElcEGmKTC8-XRYvKVKDTaFh1Kcdr-yabZPJBLi3bnQUBaWjU5fcESZRmy2SWME8wUG1cAnR2bmb_HK0BnGP3xk4UZSUroGEmMwcvAsGEzWZqwN0ZucJjusSsAXjL3wfaAqDcOIBpfJndaHjidbxYwayEtij6TnfFZCBPeVPNNptjdlzLMneT4SbQnpScosibaFVSbL4qaQM4MAq5sNlwslYw1Xs513UX8pzIKpDss20rrgac9oPX1uvG6V_xNseJBqXHtkz8gE4VykOLtCdYsxAizDfV1UsxePQAte3xFKPNIu3wltZqMyKPscIn1URIshurBZiKT4X3v7hiEaXlWnuw6M3BRckmLwAQqbmRmsLxCquyVSv9Q_lPosXmImPoAhp7UXP7Ks_0jMXdTWcXJVw3m00]--></g></svg>