<?xml version="1.0" encoding="us-ascii" standalone="no"?><svg xmlns="http://www.w3.org/2000/svg" xmlns:xlink="http://www.w3.org/1999/xlink" contentStyleType="text/css" height="1174px" preserveAspectRatio="none" style="width:1904px;height:1174px;background:#FFFFFF;" version="1.1" viewBox="0 0 1904 1174" width="1904px" zoomAndPan="magnify"><defs/><g><rect fill="#FFFFFF" height="958.8086" style="stroke:#181818;stroke-width:1.0;" width="10" x="29.5" y="98.2422"/><rect fill="#FFFFFF" height="156.4551" style="stroke:#181818;stroke-width:1.0;" width="10" x="355.5" y="121.5332"/><rect fill="#FFFFFF" height="31.291" style="stroke:#181818;stroke-width:1.0;" width="10" x="355.5" y="309.2793"/><rect fill="#FFFFFF" height="122.873" style="stroke:#181818;stroke-width:1.0;" width="10" x="355.5" y="371.8613"/><rect fill="#FFFFFF" height="28" style="stroke:#181818;stroke-width:1.0;" width="10" x="360.5" y="411.1523"/><rect fill="#FFFFFF" height="172.125" style="stroke:#181818;stroke-width:1.0;" width="10" x="355.5" y="526.0254"/><rect fill="#FFFFFF" height="327.6094" style="stroke:#181818;stroke-width:1.0;" width="10" x="355.5" y="729.4414"/><rect fill="#FFFFFF" height="93.873" style="stroke:#181818;stroke-width:1.0;" width="10" x="700.5" y="152.8242"/><rect fill="#FFFFFF" height="61.291" style="stroke:#181818;stroke-width:1.0;" width="10" x="700.5" y="557.3164"/><rect fill="#FFFFFF" height="247.7363" style="stroke:#181818;stroke-width:1.0;" width="10" x="700.5" y="778.0234"/><rect fill="#FFFFFF" height="148.1543" style="stroke:#181818;stroke-width:1.0;" width="10" x="1142.5" y="809.3145"/><rect fill="#FFFFFF" height="28" style="stroke:#181818;stroke-width:1.0;" width="10" x="1147.5" y="929.4688"/><rect fill="#FFFFFF" height="31.291" style="stroke:#181818;stroke-width:1.0;" width="10" x="1646" y="215.4063"/><rect fill="#FFFFFF" height="30" style="stroke:#181818;stroke-width:1.0;" width="10" x="1646" y="588.6074"/><rect fill="#FFFFFF" height="30" style="stroke:#181818;stroke-width:1.0;" width="10" x="1646" y="995.7598"/><line style="stroke:#181818;stroke-width:0.5;stroke-dasharray:5.0,5.0;" x1="34" x2="34" y1="88.2422" y2="1075.0508"/><line style="stroke:#181818;stroke-width:0.5;stroke-dasharray:5.0,5.0;" x1="360" x2="360" y1="88.2422" y2="1075.0508"/><line style="stroke:#181818;stroke-width:0.5;stroke-dasharray:5.0,5.0;" x1="705" x2="705" y1="88.2422" y2="1075.0508"/><line style="stroke:#181818;stroke-width:0.5;stroke-dasharray:5.0,5.0;" x1="1147" x2="1147" y1="88.2422" y2="1075.0508"/><line style="stroke:#181818;stroke-width:0.5;stroke-dasharray:5.0,5.0;" x1="1503.5" x2="1503.5" y1="867.7461" y2="1075.0508"/><line style="stroke:#181818;stroke-width:0.5;stroke-dasharray:5.0,5.0;" x1="1650.5" x2="1650.5" y1="88.2422" y2="1075.0508"/><line style="stroke:#181818;stroke-width:0.5;stroke-dasharray:5.0,5.0;" x1="1753.5" x2="1753.5" y1="88.2422" y2="1075.0508"/><line style="stroke:#181818;stroke-width:0.5;stroke-dasharray:5.0,5.0;" x1="1849.5" x2="1849.5" y1="88.2422" y2="1075.0508"/><text fill="#000000" font-family="sans-serif" font-size="14" lengthAdjust="spacing" textLength="53" x="5" y="84.7285">Teacher</text><ellipse cx="34.5" cy="18.1211" fill="#E2E2F0" rx="8" ry="8" style="stroke:#181818;stroke-width:0.5;"/><path d="M34.5,26.1211 L34.5,53.1211 M21.5,34.1211 L47.5,34.1211 M34.5,53.1211 L21.5,68.1211 M34.5,53.1211 L47.5,68.1211 " fill="none" style="stroke:#181818;stroke-width:0.5;"/><text fill="#000000" font-family="sans-serif" font-size="14" lengthAdjust="spacing" textLength="53" x="5" y="1089.1582">Teacher</text><ellipse cx="34.5" cy="1101.1719" fill="#E2E2F0" rx="8" ry="8" style="stroke:#181818;stroke-width:0.5;"/><path d="M34.5,1109.1719 L34.5,1136.1719 M21.5,1117.1719 L47.5,1117.1719 M34.5,1136.1719 L21.5,1151.1719 M34.5,1136.1719 L47.5,1151.1719 " fill="none" style="stroke:#181818;stroke-width:0.5;"/><rect fill="#E2E2F0" height="51.2422" rx="2.5" ry="2.5" style="stroke:#181818;stroke-width:0.5;" width="165" x="278" y="36"/><text fill="#000000" font-family="sans-serif" font-size="14" font-style="italic" lengthAdjust="spacing" textLength="95" x="313" y="58.1074">&#171;presentation&#187;</text><text fill="#000000" font-family="sans-serif" font-size="14" lengthAdjust="spacing" textLength="151" x="285" y="76.7285">UpdateClassScheduleUI</text><rect fill="#E2E2F0" height="51.2422" rx="2.5" ry="2.5" style="stroke:#181818;stroke-width:0.5;" width="165" x="278" y="1074.0508"/><text fill="#000000" font-family="sans-serif" font-size="14" font-style="italic" lengthAdjust="spacing" textLength="95" x="313" y="1096.1582">&#171;presentation&#187;</text><text fill="#000000" font-family="sans-serif" font-size="14" lengthAdjust="spacing" textLength="151" x="285" y="1114.7793">UpdateClassScheduleUI</text><rect fill="#E2E2F0" height="51.2422" rx="2.5" ry="2.5" style="stroke:#181818;stroke-width:0.5;" width="215" x="598" y="36"/><text fill="#000000" font-family="sans-serif" font-size="14" font-style="italic" lengthAdjust="spacing" textLength="84" x="663.5" y="58.1074">&#171;application&#187;</text><text fill="#000000" font-family="sans-serif" font-size="14" lengthAdjust="spacing" textLength="201" x="605" y="76.7285">UpdateClassScheduleController</text><rect fill="#E2E2F0" height="51.2422" rx="2.5" ry="2.5" style="stroke:#181818;stroke-width:0.5;" width="215" x="598" y="1074.0508"/><text fill="#000000" font-family="sans-serif" font-size="14" font-style="italic" lengthAdjust="spacing" textLength="84" x="663.5" y="1096.1582">&#171;application&#187;</text><text fill="#000000" font-family="sans-serif" font-size="14" lengthAdjust="spacing" textLength="201" x="605" y="1114.7793">UpdateClassScheduleController</text><rect fill="#E2E2F0" height="69.8633" rx="2.5" ry="2.5" style="stroke:#181818;stroke-width:0.5;" width="115" x="1090" y="17.3789"/><text fill="#000000" font-family="sans-serif" font-size="14" font-style="italic" lengthAdjust="spacing" textLength="62" x="1116.5" y="39.4863">&#171;domain&#187;</text><text fill="#000000" font-family="sans-serif" font-size="14" lengthAdjust="spacing" textLength="81" x="1107" y="58.1074">chosenClass</text><text fill="#000000" font-family="sans-serif" font-size="14" lengthAdjust="spacing" textLength="101" x="1097" y="76.7285">:RecurringClass</text><rect fill="#E2E2F0" height="69.8633" rx="2.5" ry="2.5" style="stroke:#181818;stroke-width:0.5;" width="115" x="1090" y="1074.0508"/><text fill="#000000" font-family="sans-serif" font-size="14" font-style="italic" lengthAdjust="spacing" textLength="62" x="1116.5" y="1096.1582">&#171;domain&#187;</text><text fill="#000000" font-family="sans-serif" font-size="14" lengthAdjust="spacing" textLength="81" x="1107" y="1114.7793">chosenClass</text><text fill="#000000" font-family="sans-serif" font-size="14" lengthAdjust="spacing" textLength="101" x="1097" y="1133.4004">:RecurringClass</text><rect fill="#E2E2F0" height="69.8633" rx="2.5" ry="2.5" style="stroke:#181818;stroke-width:0.5;" width="166" x="1420.5" y="1074.0508"/><text fill="#000000" font-family="sans-serif" font-size="14" font-style="italic" lengthAdjust="spacing" textLength="62" x="1472.5" y="1096.1582">&#171;domain&#187;</text><text fill="#000000" font-family="sans-serif" font-size="14" lengthAdjust="spacing" textLength="20" x="1493.5" y="1114.7793">rcd</text><text fill="#000000" font-family="sans-serif" font-size="14" lengthAdjust="spacing" textLength="152" x="1427.5" y="1133.4004">:RescheduledClassDate</text><text fill="#000000" font-family="sans-serif" font-size="14" font-style="italic" lengthAdjust="spacing" textLength="79" x="1608.5" y="66.1074">&#171;repository&#187;</text><text fill="#000000" font-family="sans-serif" font-size="14" lengthAdjust="spacing" textLength="103" x="1596.5" y="84.7285">ClassRepository</text><path d="M1633,15 C1633,5 1651,5 1651,5 C1651,5 1669,5 1669,15 L1669,41 C1669,51 1651,51 1651,51 C1651,51 1633,51 1633,41 L1633,15 " fill="#E2E2F0" style="stroke:#181818;stroke-width:1.5;"/><path d="M1633,15 C1633,25 1651,25 1651,25 C1651,25 1669,25 1669,15 " fill="none" style="stroke:#181818;stroke-width:1.5;"/><text fill="#000000" font-family="sans-serif" font-size="14" font-style="italic" lengthAdjust="spacing" textLength="79" x="1608.5" y="1089.1582">&#171;repository&#187;</text><text fill="#000000" font-family="sans-serif" font-size="14" lengthAdjust="spacing" textLength="103" x="1596.5" y="1107.7793">ClassRepository</text><path d="M1633,1121.293 C1633,1111.293 1651,1111.293 1651,1111.293 C1651,1111.293 1669,1111.293 1669,1121.293 L1669,1147.293 C1669,1157.293 1651,1157.293 1651,1157.293 C1651,1157.293 1633,1157.293 1633,1147.293 L1633,1121.293 " fill="#E2E2F0" style="stroke:#181818;stroke-width:1.5;"/><path d="M1633,1121.293 C1633,1131.293 1651,1131.293 1651,1131.293 C1651,1131.293 1669,1131.293 1669,1121.293 " fill="none" style="stroke:#181818;stroke-width:1.5;"/><rect fill="#E2E2F0" height="51.2422" rx="2.5" ry="2.5" style="stroke:#181818;stroke-width:0.5;" width="76" x="1715.5" y="36"/><text fill="#000000" font-family="sans-serif" font-size="14" font-style="italic" lengthAdjust="spacing" textLength="62" x="1722.5" y="58.1074">&#171;domain&#187;</text><text fill="#000000" font-family="sans-serif" font-size="14" lengthAdjust="spacing" textLength="35" x="1736" y="76.7285">Class</text><rect fill="#E2E2F0" height="51.2422" rx="2.5" ry="2.5" style="stroke:#181818;stroke-width:0.5;" width="76" x="1715.5" y="1074.0508"/><text fill="#000000" font-family="sans-serif" font-size="14" font-style="italic" lengthAdjust="spacing" textLength="62" x="1722.5" y="1096.1582">&#171;domain&#187;</text><text fill="#000000" font-family="sans-serif" font-size="14" lengthAdjust="spacing" textLength="35" x="1736" y="1114.7793">Class</text><rect fill="#E2E2F0" height="51.2422" rx="2.5" ry="2.5" style="stroke:#181818;stroke-width:0.5;" width="97" x="1801.5" y="36"/><text fill="#000000" font-family="sans-serif" font-size="14" font-style="italic" lengthAdjust="spacing" textLength="59" x="1820.5" y="58.1074">&#171;factory&#187;</text><text fill="#000000" font-family="sans-serif" font-size="14" lengthAdjust="spacing" textLength="83" x="1808.5" y="76.7285">ClassFactory</text><rect fill="#E2E2F0" height="51.2422" rx="2.5" ry="2.5" style="stroke:#181818;stroke-width:0.5;" width="97" x="1801.5" y="1074.0508"/><text fill="#000000" font-family="sans-serif" font-size="14" font-style="italic" lengthAdjust="spacing" textLength="59" x="1820.5" y="1096.1582">&#171;factory&#187;</text><text fill="#000000" font-family="sans-serif" font-size="14" lengthAdjust="spacing" textLength="83" x="1808.5" y="1114.7793">ClassFactory</text><rect fill="#FFFFFF" height="958.8086" style="stroke:#181818;stroke-width:1.0;" width="10" x="29.5" y="98.2422"/><rect fill="#FFFFFF" height="156.4551" style="stroke:#181818;stroke-width:1.0;" width="10" x="355.5" y="121.5332"/><rect fill="#FFFFFF" height="31.291" style="stroke:#181818;stroke-width:1.0;" width="10" x="355.5" y="309.2793"/><rect fill="#FFFFFF" height="122.873" style="stroke:#181818;stroke-width:1.0;" width="10" x="355.5" y="371.8613"/><rect fill="#FFFFFF" height="28" style="stroke:#181818;stroke-width:1.0;" width="10" x="360.5" y="411.1523"/><rect fill="#FFFFFF" height="172.125" style="stroke:#181818;stroke-width:1.0;" width="10" x="355.5" y="526.0254"/><rect fill="#FFFFFF" height="327.6094" style="stroke:#181818;stroke-width:1.0;" width="10" x="355.5" y="729.4414"/><rect fill="#FFFFFF" height="93.873" style="stroke:#181818;stroke-width:1.0;" width="10" x="700.5" y="152.8242"/><rect fill="#FFFFFF" height="61.291" style="stroke:#181818;stroke-width:1.0;" width="10" x="700.5" y="557.3164"/><rect fill="#FFFFFF" height="247.7363" style="stroke:#181818;stroke-width:1.0;" width="10" x="700.5" y="778.0234"/><rect fill="#FFFFFF" height="148.1543" style="stroke:#181818;stroke-width:1.0;" width="10" x="1142.5" y="809.3145"/><rect fill="#FFFFFF" height="28" style="stroke:#181818;stroke-width:1.0;" width="10" x="1147.5" y="929.4688"/><rect fill="#FFFFFF" height="31.291" style="stroke:#181818;stroke-width:1.0;" width="10" x="1646" y="215.4063"/><rect fill="#FFFFFF" height="30" style="stroke:#181818;stroke-width:1.0;" width="10" x="1646" y="588.6074"/><rect fill="#FFFFFF" height="30" style="stroke:#181818;stroke-width:1.0;" width="10" x="1646" y="995.7598"/><polygon fill="#181818" points="343.5,117.5332,353.5,121.5332,343.5,125.5332,347.5,121.5332" style="stroke:#181818;stroke-width:1.0;"/><line style="stroke:#181818;stroke-width:1.0;" x1="39.5" x2="349.5" y1="121.5332" y2="121.5332"/><text fill="#000000" font-family="sans-serif" font-size="13" font-weight="bold" lengthAdjust="spacing" textLength="7" x="46.5" y="116.2705">1</text><text fill="#000000" font-family="sans-serif" font-size="13" lengthAdjust="spacing" textLength="224" x="57.5" y="116.2705">asks to update the schedule of a class</text><polygon fill="#181818" points="688.5,148.8242,698.5,152.8242,688.5,156.8242,692.5,152.8242" style="stroke:#181818;stroke-width:1.0;"/><line style="stroke:#181818;stroke-width:1.0;" x1="365.5" x2="694.5" y1="152.8242" y2="152.8242"/><text fill="#000000" font-family="sans-serif" font-size="13" font-weight="bold" lengthAdjust="spacing" textLength="7" x="372.5" y="147.5615">2</text><text fill="#000000" font-family="sans-serif" font-size="13" lengthAdjust="spacing" textLength="44" x="383.5" y="147.5615">create()</text><polygon fill="#181818" points="688.5,180.1152,698.5,184.1152,688.5,188.1152,692.5,184.1152" style="stroke:#181818;stroke-width:1.0;"/><line style="stroke:#181818;stroke-width:1.0;" x1="365.5" x2="694.5" y1="184.1152" y2="184.1152"/><text fill="#000000" font-family="sans-serif" font-size="13" font-weight="bold" lengthAdjust="spacing" textLength="7" x="372.5" y="178.8525">3</text><text fill="#000000" font-family="sans-serif" font-size="13" lengthAdjust="spacing" textLength="127" x="383.5" y="178.8525">listRecurringClasses()</text><polygon fill="#181818" points="1634,211.4063,1644,215.4063,1634,219.4063,1638,215.4063" style="stroke:#181818;stroke-width:1.0;"/><line style="stroke:#181818;stroke-width:1.0;" x1="710.5" x2="1640" y1="215.4063" y2="215.4063"/><text fill="#000000" font-family="sans-serif" font-size="13" font-weight="bold" lengthAdjust="spacing" textLength="7" x="717.5" y="210.1436">4</text><text fill="#000000" font-family="sans-serif" font-size="13" lengthAdjust="spacing" textLength="44" x="728.5" y="210.1436">create()</text><polygon fill="#181818" points="1639,242.6973,1649,246.6973,1639,250.6973,1643,246.6973" style="stroke:#181818;stroke-width:1.0;"/><line style="stroke:#181818;stroke-width:1.0;" x1="705.5" x2="1645" y1="246.6973" y2="246.6973"/><text fill="#000000" font-family="sans-serif" font-size="13" font-weight="bold" lengthAdjust="spacing" textLength="7" x="712.5" y="241.4346">5</text><text fill="#000000" font-family="sans-serif" font-size="13" lengthAdjust="spacing" textLength="260" x="723.5" y="241.4346">findRecurringClassesOfTeacher(this_teacher)</text><polygon fill="#181818" points="50.5,273.9883,40.5,277.9883,50.5,281.9883,46.5,277.9883" style="stroke:#181818;stroke-width:1.0;"/><line style="stroke:#181818;stroke-width:1.0;stroke-dasharray:2.0,2.0;" x1="44.5" x2="359.5" y1="277.9883" y2="277.9883"/><text fill="#000000" font-family="sans-serif" font-size="13" font-weight="bold" lengthAdjust="spacing" textLength="7" x="56.5" y="272.7256">6</text><text fill="#000000" font-family="sans-serif" font-size="13" lengthAdjust="spacing" textLength="197" x="67.5" y="272.7256">shows the list of recurring classes</text><polygon fill="#181818" points="343.5,305.2793,353.5,309.2793,343.5,313.2793,347.5,309.2793" style="stroke:#181818;stroke-width:1.0;"/><line style="stroke:#181818;stroke-width:1.0;" x1="39.5" x2="349.5" y1="309.2793" y2="309.2793"/><text fill="#000000" font-family="sans-serif" font-size="13" font-weight="bold" lengthAdjust="spacing" textLength="7" x="46.5" y="304.0166">7</text><text fill="#000000" font-family="sans-serif" font-size="13" lengthAdjust="spacing" textLength="149" x="57.5" y="304.0166">selects a Recurring Class</text><polygon fill="#181818" points="50.5,336.5703,40.5,340.5703,50.5,344.5703,46.5,340.5703" style="stroke:#181818;stroke-width:1.0;"/><line style="stroke:#181818;stroke-width:1.0;stroke-dasharray:2.0,2.0;" x1="44.5" x2="359.5" y1="340.5703" y2="340.5703"/><text fill="#000000" font-family="sans-serif" font-size="13" font-weight="bold" lengthAdjust="spacing" textLength="7" x="56.5" y="335.3076">8</text><text fill="#000000" font-family="sans-serif" font-size="13" lengthAdjust="spacing" textLength="208" x="67.5" y="335.3076">requests the date to be rescheduled</text><polygon fill="#181818" points="343.5,367.8613,353.5,371.8613,343.5,375.8613,347.5,371.8613" style="stroke:#181818;stroke-width:1.0;"/><line style="stroke:#181818;stroke-width:1.0;" x1="39.5" x2="349.5" y1="371.8613" y2="371.8613"/><text fill="#000000" font-family="sans-serif" font-size="13" font-weight="bold" lengthAdjust="spacing" textLength="7" x="46.5" y="366.5986">9</text><text fill="#000000" font-family="sans-serif" font-size="13" lengthAdjust="spacing" textLength="83" x="57.5" y="366.5986">types the date</text><line style="stroke:#181818;stroke-width:1.0;" x1="370.5" x2="412.5" y1="403.1523" y2="403.1523"/><line style="stroke:#181818;stroke-width:1.0;" x1="412.5" x2="412.5" y1="403.1523" y2="416.1523"/><line style="stroke:#181818;stroke-width:1.0;" x1="371.5" x2="412.5" y1="416.1523" y2="416.1523"/><polygon fill="#181818" points="381.5,412.1523,371.5,416.1523,381.5,420.1523,377.5,416.1523" style="stroke:#181818;stroke-width:1.0;"/><text fill="#000000" font-family="sans-serif" font-size="13" font-weight="bold" lengthAdjust="spacing" textLength="14" x="377.5" y="397.8896">10</text><text fill="#000000" font-family="sans-serif" font-size="13" lengthAdjust="spacing" textLength="110" x="395.5" y="397.8896">validateChosenDay</text><polygon fill="#181818" points="50.5,490.7344,40.5,494.7344,50.5,498.7344,46.5,494.7344" style="stroke:#181818;stroke-width:1.0;"/><line style="stroke:#181818;stroke-width:1.0;stroke-dasharray:2.0,2.0;" x1="44.5" x2="359.5" y1="494.7344" y2="494.7344"/><text fill="#000000" font-family="sans-serif" font-size="13" font-weight="bold" lengthAdjust="spacing" textLength="14" x="56.5" y="480.8262">11</text><text fill="#000000" font-family="sans-serif" font-size="13" lengthAdjust="spacing" textLength="274" x="74.5" y="472.1807">requestsdata: newClassDate, time and duration</text><text fill="#000000" font-family="sans-serif" font-size="13" lengthAdjust="spacing" textLength="150" x="78.5" y="489.4717">of the new class schedule</text><polygon fill="#181818" points="343.5,522.0254,353.5,526.0254,343.5,530.0254,347.5,526.0254" style="stroke:#181818;stroke-width:1.0;"/><line style="stroke:#181818;stroke-width:1.0;" x1="39.5" x2="349.5" y1="526.0254" y2="526.0254"/><text fill="#000000" font-family="sans-serif" font-size="13" font-weight="bold" lengthAdjust="spacing" textLength="14" x="46.5" y="520.7627">12</text><text fill="#000000" font-family="sans-serif" font-size="13" lengthAdjust="spacing" textLength="122" x="64.5" y="520.7627">types requested data</text><polygon fill="#181818" points="688.5,553.3164,698.5,557.3164,688.5,561.3164,692.5,557.3164" style="stroke:#181818;stroke-width:1.0;"/><line style="stroke:#181818;stroke-width:1.0;" x1="365.5" x2="694.5" y1="557.3164" y2="557.3164"/><text fill="#000000" font-family="sans-serif" font-size="13" font-weight="bold" lengthAdjust="spacing" textLength="14" x="372.5" y="552.0537">13</text><text fill="#000000" font-family="sans-serif" font-size="13" lengthAdjust="spacing" textLength="278" x="390.5" y="552.0537">checkAvailability(newClassDate, time , duration)</text><polygon fill="#181818" points="1634,584.6074,1644,588.6074,1634,592.6074,1638,588.6074" style="stroke:#181818;stroke-width:1.0;"/><line style="stroke:#181818;stroke-width:1.0;" x1="710.5" x2="1640" y1="588.6074" y2="588.6074"/><text fill="#000000" font-family="sans-serif" font-size="13" font-weight="bold" lengthAdjust="spacing" textLength="14" x="717.5" y="583.3447">14</text><text fill="#000000" font-family="sans-serif" font-size="13" lengthAdjust="spacing" textLength="411" x="735.5" y="583.3447">checkScheduleAvailability(teacher, newClassDate, startTime, endTime)</text><rect fill="none" height="43.252" style="stroke:#000000;stroke-width:1.5;" width="175" x="1593.5" y="626.6074"/><path d="M1593.5,626.6074 L1655.5,626.6074 L1655.5,635.6074 L1645.5,645.6074 L1593.5,645.6074 L1593.5,626.6074 " fill="#EEEEEE" style="stroke:#000000;stroke-width:2.0;"/><text fill="#000000" font-family="sans-serif" font-size="13" font-weight="bold" lengthAdjust="spacing" textLength="17" x="1606.5" y="642.6357">ref</text><text fill="#000000" font-family="sans-serif" font-size="12" lengthAdjust="spacing" textLength="167" x="1597.5" y="662.5566">SD_CheckScheduleAvailability</text><polygon fill="#181818" points="50.5,694.1504,40.5,698.1504,50.5,702.1504,46.5,698.1504" style="stroke:#181818;stroke-width:1.0;"/><line style="stroke:#181818;stroke-width:1.0;stroke-dasharray:2.0,2.0;" x1="44.5" x2="359.5" y1="698.1504" y2="698.1504"/><text fill="#000000" font-family="sans-serif" font-size="13" font-weight="bold" lengthAdjust="spacing" textLength="14" x="56.5" y="692.8877">15</text><text fill="#000000" font-family="sans-serif" font-size="13" lengthAdjust="spacing" textLength="236" x="74.5" y="692.8877">shows all data and requests confirmation</text><polygon fill="#181818" points="343.5,725.4414,353.5,729.4414,343.5,733.4414,347.5,729.4414" style="stroke:#181818;stroke-width:1.0;"/><line style="stroke:#181818;stroke-width:1.0;" x1="39.5" x2="349.5" y1="729.4414" y2="729.4414"/><text fill="#000000" font-family="sans-serif" font-size="13" font-weight="bold" lengthAdjust="spacing" textLength="14" x="46.5" y="724.1787">16</text><text fill="#000000" font-family="sans-serif" font-size="13" lengthAdjust="spacing" textLength="100" x="64.5" y="724.1787">confirms the data</text><polygon fill="#181818" points="688.5,774.0234,698.5,778.0234,688.5,782.0234,692.5,778.0234" style="stroke:#181818;stroke-width:1.0;"/><line style="stroke:#181818;stroke-width:1.0;" x1="365.5" x2="694.5" y1="778.0234" y2="778.0234"/><text fill="#000000" font-family="sans-serif" font-size="13" font-weight="bold" lengthAdjust="spacing" textLength="14" x="372.5" y="764.1152">17</text><text fill="#000000" font-family="sans-serif" font-size="13" lengthAdjust="spacing" textLength="209" x="390.5" y="755.4697">updateClassSchedule(chosenClass,</text><text fill="#000000" font-family="sans-serif" font-size="13" lengthAdjust="spacing" textLength="298" x="390.5" y="772.7607">classDateToChange, newClassDate, time, duration)</text><polygon fill="#181818" points="1130.5,805.3145,1140.5,809.3145,1130.5,813.3145,1134.5,809.3145" style="stroke:#181818;stroke-width:1.0;"/><line style="stroke:#181818;stroke-width:1.0;" x1="710.5" x2="1136.5" y1="809.3145" y2="809.3145"/><text fill="#000000" font-family="sans-serif" font-size="13" font-weight="bold" lengthAdjust="spacing" textLength="14" x="717.5" y="804.0518">18</text><text fill="#000000" font-family="sans-serif" font-size="13" lengthAdjust="spacing" textLength="395" x="735.5" y="804.0518">addReschedule(classDateToChange, newClassDate, time, duration);</text><polygon fill="#181818" points="1408.5,853.8965,1418.5,857.8965,1408.5,861.8965,1412.5,857.8965" style="stroke:#181818;stroke-width:1.0;"/><line style="stroke:#181818;stroke-width:1.0;" x1="1152.5" x2="1414.5" y1="857.8965" y2="857.8965"/><text fill="#000000" font-family="sans-serif" font-size="13" font-weight="bold" lengthAdjust="spacing" textLength="14" x="1159.5" y="843.9883">19</text><text fill="#000000" font-family="sans-serif" font-size="13" lengthAdjust="spacing" textLength="226" x="1177.5" y="835.3428">RescheduledClassDate(newClassDate,</text><text fill="#000000" font-family="sans-serif" font-size="13" lengthAdjust="spacing" textLength="177" x="1181.5" y="852.6338">startTime, startTime, endTime)</text><rect fill="#E2E2F0" height="69.8633" rx="2.5" ry="2.5" style="stroke:#181818;stroke-width:0.5;" width="166" x="1420.5" y="817.3145"/><text fill="#000000" font-family="sans-serif" font-size="14" font-style="italic" lengthAdjust="spacing" textLength="62" x="1472.5" y="839.4219">&#171;domain&#187;</text><text fill="#000000" font-family="sans-serif" font-size="14" lengthAdjust="spacing" textLength="20" x="1493.5" y="858.043">rcd</text><text fill="#000000" font-family="sans-serif" font-size="14" lengthAdjust="spacing" textLength="152" x="1427.5" y="876.6641">:RescheduledClassDate</text><line style="stroke:#181818;stroke-width:1.0;" x1="1157.5" x2="1199.5" y1="921.4688" y2="921.4688"/><line style="stroke:#181818;stroke-width:1.0;" x1="1199.5" x2="1199.5" y1="921.4688" y2="934.4688"/><line style="stroke:#181818;stroke-width:1.0;" x1="1158.5" x2="1199.5" y1="934.4688" y2="934.4688"/><polygon fill="#181818" points="1168.5,930.4688,1158.5,934.4688,1168.5,938.4688,1164.5,934.4688" style="stroke:#181818;stroke-width:1.0;"/><text fill="#000000" font-family="sans-serif" font-size="13" font-weight="bold" lengthAdjust="spacing" textLength="14" x="1164.5" y="916.2061">20</text><text fill="#000000" font-family="sans-serif" font-size="13" lengthAdjust="spacing" textLength="168" x="1182.5" y="916.2061">put(classDateToChange, rcd)</text><polygon fill="#181818" points="1634,991.7598,1644,995.7598,1634,999.7598,1638,995.7598" style="stroke:#181818;stroke-width:1.0;"/><line style="stroke:#181818;stroke-width:1.0;" x1="710.5" x2="1640" y1="995.7598" y2="995.7598"/><text fill="#000000" font-family="sans-serif" font-size="13" font-weight="bold" lengthAdjust="spacing" textLength="14" x="717.5" y="990.4971">21</text><text fill="#000000" font-family="sans-serif" font-size="13" lengthAdjust="spacing" textLength="109" x="735.5" y="990.4971">save(chosenClass)</text><polygon fill="#181818" points="45.5,1053.0508,35.5,1057.0508,45.5,1061.0508,41.5,1057.0508" style="stroke:#181818;stroke-width:1.0;"/><line style="stroke:#181818;stroke-width:1.0;stroke-dasharray:2.0,2.0;" x1="39.5" x2="359.5" y1="1057.0508" y2="1057.0508"/><text fill="#000000" font-family="sans-serif" font-size="13" font-weight="bold" lengthAdjust="spacing" textLength="14" x="51.5" y="1051.7881">22</text><text fill="#000000" font-family="sans-serif" font-size="13" lengthAdjust="spacing" textLength="152" x="69.5" y="1051.7881">informs operation success</text><!--SRC=[bLNRQkCm47ttLuWy9INvWMme1BTb2uL2aZui18eYZMjHH_9ASah-VaVoJNRbTfk7OCapPqRd78rfPPMipYVGIKAPLPhC3a1P3df6g267-stw-twNb5HRmKH9fIKl9QSMqe8QiyT0NXNmykY2yN-pAJKOa9PQeUJjxNU9gP9Mgw80xG3Im-u98MXP5eAr2FWBGMOiLrZ0enpbUWUiqbh8Dx_XUmu248ohCnNZJcQQSPzicZwu3x_3zZm4lWvJiMrweWQ8Zzf1gOn0ggukD5XjDhfRZ0hMtRWZFctt-wcsVDI3b-7Q1Ry-RDF3y-uF9cNrAqyAFeeBzjj9b3GFP7MBIgmn_zqGgqZbMISs1zAUbgYCKC9SjHxdvJ510J7PgR0cJ0FkpXTzWDiVX1J2s27_O331guX1FJCnjFvjD24Jae-ndxF6cdER2_DgwyKYuH133NPzvoqzczNAysDozM4yBUuSZXBTrgkf0HDY83rZYWqKm2pAIhfEQma7f7ughE5l1SRMjMjj53a1xdTk71SUrhNN4lhiY8AkoeKMmbytVnlkw7KGDyIVwj3vVaqaV7ItOqciE0EXaXDUQNz5Zz9nvxh1m9gvpcZ_Suwc671t6ZhjnnpO-_P2HK5FeX3sEe_qjUow6llMcsniIWVPJg81T6EjvUZink9bFM2X9G79tKFSq753QiY8kk2a2tlOtxscKssWuSOc7ajLcvWMXIVFwzBPYocP2NtsT7mjH1FPUMgeGY03MJVZP334vy74NPAZP2rZ1vNcLBx1CkAXQQdQSH3ESHnddFVZUlxJ4h_w6W5i4fR0YZZsRswmLkoxCBGRcZumGymN8-ZXOShAnew0zHVnHaFzmls9xTX4DVGoKEedrltEXa9colb7bL0JJap569XF4pHOjj-jVm00]--></g></svg>