<?xml version="1.0" encoding="us-ascii" standalone="no"?><svg xmlns="http://www.w3.org/2000/svg" xmlns:xlink="http://www.w3.org/1999/xlink" contentStyleType="text/css" height="1019px" preserveAspectRatio="none" style="width:1724px;height:1019px;background:#FFFFFF;" version="1.1" viewBox="0 0 1724 1019" width="1724px" zoomAndPan="magnify"><defs/><g><!--cluster presentation--><g id="cluster_presentation"><path d="M1184.5,6.0137 L1275.5,6.0137 A3.75,3.75 0 0 1 1278,8.5137 L1285,30.6348 L1487.5,30.6348 A2.5,2.5 0 0 1 1490,33.1348 L1490,154.5137 A2.5,2.5 0 0 1 1487.5,157.0137 L1184.5,157.0137 A2.5,2.5 0 0 1 1182,154.5137 L1182,8.5137 A2.5,2.5 0 0 1 1184.5,6.0137 " fill="#DDDDDD" style="stroke:#000000;stroke-width:1.5;"/><line style="stroke:#000000;stroke-width:1.5;" x1="1182" x2="1285" y1="30.6348" y2="30.6348"/><text fill="#000000" font-family="sans-serif" font-size="14" font-weight="bold" lengthAdjust="spacing" textLength="90" x="1186" y="23.1211">presentation</text></g><!--cluster domain--><g id="cluster_domain"><path d="M8.5,190.0137 L60.5,190.0137 A3.75,3.75 0 0 1 63,192.5137 L70,214.6348 L1153.5,214.6348 A2.5,2.5 0 0 1 1156,217.1348 L1156,857.5137 A2.5,2.5 0 0 1 1153.5,860.0137 L8.5,860.0137 A2.5,2.5 0 0 1 6,857.5137 L6,192.5137 A2.5,2.5 0 0 1 8.5,190.0137 " fill="#DBD8AE" style="stroke:#000000;stroke-width:1.5;"/><line style="stroke:#000000;stroke-width:1.5;" x1="6" x2="70" y1="214.6348" y2="214.6348"/><text fill="#000000" font-family="sans-serif" font-size="14" font-weight="bold" lengthAdjust="spacing" textLength="51" x="10" y="207.1211">domain</text></g><!--cluster application--><g id="cluster_application"><path d="M1182.5,226.0137 L1260.5,226.0137 A3.75,3.75 0 0 1 1263,228.5137 L1270,250.6348 L1489.5,250.6348 A2.5,2.5 0 0 1 1492,253.1348 L1492,652.5137 A2.5,2.5 0 0 1 1489.5,655.0137 L1182.5,655.0137 A2.5,2.5 0 0 1 1180,652.5137 L1180,228.5137 A2.5,2.5 0 0 1 1182.5,226.0137 " fill="#EAF4D3" style="stroke:#000000;stroke-width:1.5;"/><line style="stroke:#000000;stroke-width:1.5;" x1="1180" x2="1270" y1="250.6348" y2="250.6348"/><text fill="#000000" font-family="sans-serif" font-size="14" font-weight="bold" lengthAdjust="spacing" textLength="77" x="1184" y="243.1211">application</text></g><!--cluster repositories--><g id="cluster_repositories"><path d="M1239.5,700.0137 L1326.5,700.0137 A3.75,3.75 0 0 1 1329,702.5137 L1336,724.6348 L1595.5,724.6348 A2.5,2.5 0 0 1 1598,727.1348 L1598,829.5137 A2.5,2.5 0 0 1 1595.5,832.0137 L1239.5,832.0137 A2.5,2.5 0 0 1 1237,829.5137 L1237,702.5137 A2.5,2.5 0 0 1 1239.5,700.0137 " fill="#B0C4DE" style="stroke:#000000;stroke-width:1.5;"/><line style="stroke:#000000;stroke-width:1.5;" x1="1237" x2="1336" y1="724.6348" y2="724.6348"/><text fill="#000000" font-family="sans-serif" font-size="14" font-weight="bold" lengthAdjust="spacing" textLength="86" x="1241" y="717.1211">repositories</text></g><!--cluster persistence--><g id="cluster_persistence"><path d="M1298.5,911.0137 L1383.5,911.0137 A3.75,3.75 0 0 1 1386,913.5137 L1393,935.6348 L1714.5,935.6348 A2.5,2.5 0 0 1 1717,938.1348 L1717,1009.5137 A2.5,2.5 0 0 1 1714.5,1012.0137 L1298.5,1012.0137 A2.5,2.5 0 0 1 1296,1009.5137 L1296,913.5137 A2.5,2.5 0 0 1 1298.5,911.0137 " fill="#B0C4DE" style="stroke:#000000;stroke-width:1.5;"/><line style="stroke:#000000;stroke-width:1.5;" x1="1296" x2="1393" y1="935.6348" y2="935.6348"/><text fill="#000000" font-family="sans-serif" font-size="14" font-weight="bold" lengthAdjust="spacing" textLength="84" x="1300" y="928.1211">persistence</text></g><!--class ScheduleRecurringClassUI--><g id="elem_ScheduleRecurringClassUI"><rect codeLine="4" fill="#F1F1F1" height="97.8242" id="ScheduleRecurringClassUI" rx="2.5" ry="2.5" style="stroke:#181818;stroke-width:0.5;" width="275" x="1198.5" y="43.0137"/><ellipse cx="1247.75" cy="65.3047" fill="#ADD1B2" rx="11" ry="11" style="stroke:#181818;stroke-width:1.0;"/><path d="M1250.5156,61.1797 Q1250.6719,60.9609 1250.8594,60.8516 Q1251.0469,60.7422 1251.2656,60.7422 Q1251.6406,60.7422 1251.875,61.0078 Q1252.1094,61.2578 1252.1094,61.8672 L1252.1094,63.3203 Q1252.1094,63.9297 1251.875,64.1953 Q1251.6406,64.4609 1251.2656,64.4609 Q1250.9219,64.4609 1250.7188,64.2578 Q1250.5156,64.0703 1250.4063,63.5547 Q1250.3594,63.1953 1250.1719,63.0078 Q1249.8438,62.6328 1249.2344,62.4141 Q1248.625,62.1953 1248,62.1953 Q1247.2344,62.1953 1246.5938,62.5234 Q1245.9688,62.8516 1245.4688,63.6016 Q1244.9844,64.3516 1244.9844,65.3828 L1244.9844,66.4766 Q1244.9844,67.7109 1245.875,68.5391 Q1246.7656,69.3516 1248.3594,69.3516 Q1249.2969,69.3516 1249.9531,69.1016 Q1250.3438,68.9453 1250.7656,68.5078 Q1251.0313,68.2422 1251.1719,68.1641 Q1251.3281,68.0859 1251.5313,68.0859 Q1251.8594,68.0859 1252.1094,68.3516 Q1252.375,68.6016 1252.375,68.9453 Q1252.375,69.2891 1252.0313,69.6953 Q1251.5313,70.2734 1250.7344,70.6016 Q1249.6563,71.0547 1248.3594,71.0547 Q1246.8438,71.0547 1245.6406,70.4297 Q1244.6563,69.9297 1243.9688,68.8672 Q1243.2813,67.7891 1243.2813,66.5078 L1243.2813,65.3516 Q1243.2813,64.0234 1243.8906,62.8828 Q1244.5156,61.7266 1245.6094,61.1172 Q1246.7031,60.4922 1247.9375,60.4922 Q1248.6719,60.4922 1249.3125,60.6641 Q1249.9688,60.8203 1250.5156,61.1797 Z " fill="#000000"/><text fill="#000000" font-family="sans-serif" font-size="12" font-style="italic" lengthAdjust="spacing" textLength="27" x="1338.75" y="60.9629">&#171;UI&#187;</text><text fill="#000000" font-family="sans-serif" font-size="14" lengthAdjust="spacing" textLength="168" x="1268.25" y="79.082">ScheduleRecurringClassUI</text><line style="stroke:#181818;stroke-width:0.5;" x1="1199.5" x2="1472.5" y1="87.5957" y2="87.5957"/><rect fill="none" height="6" style="stroke:#C82930;stroke-width:1.0;" width="6" x="1206.5" y="99.4063"/><text fill="#000000" font-family="sans-serif" font-size="14" lengthAdjust="spacing" textLength="249" x="1218.5" y="106.7031">ctrl : ScheduleRecurringClassController</text><line style="stroke:#181818;stroke-width:0.5;" x1="1199.5" x2="1472.5" y1="114.2168" y2="114.2168"/><ellipse cx="1209.5" cy="129.0273" fill="#84BE84" rx="3" ry="3" style="stroke:#038048;stroke-width:1.0;"/><text fill="#000000" font-family="sans-serif" font-size="14" lengthAdjust="spacing" textLength="60" x="1218.5" y="133.3242">doShow()</text></g><!--class Class--><g id="elem_Class"><rect codeLine="12" fill="#F1F1F1" height="244.1328" id="Class" rx="2.5" ry="2.5" style="stroke:#181818;stroke-width:0.5;" width="325" x="362.5" y="227.0137"/><ellipse cx="475.75" cy="257.2852" fill="#ADD1B2" rx="11" ry="11" style="stroke:#181818;stroke-width:1.0;"/><path d="M478.5156,253.1602 Q478.6719,252.9414 478.8594,252.832 Q479.0469,252.7227 479.2656,252.7227 Q479.6406,252.7227 479.875,252.9883 Q480.1094,253.2383 480.1094,253.8477 L480.1094,255.3008 Q480.1094,255.9102 479.875,256.1758 Q479.6406,256.4414 479.2656,256.4414 Q478.9219,256.4414 478.7188,256.2383 Q478.5156,256.0508 478.4063,255.5352 Q478.3594,255.1758 478.1719,254.9883 Q477.8438,254.6133 477.2344,254.3945 Q476.625,254.1758 476,254.1758 Q475.2344,254.1758 474.5938,254.5039 Q473.9688,254.832 473.4688,255.582 Q472.9844,256.332 472.9844,257.3633 L472.9844,258.457 Q472.9844,259.6914 473.875,260.5195 Q474.7656,261.332 476.3594,261.332 Q477.2969,261.332 477.9531,261.082 Q478.3438,260.9258 478.7656,260.4883 Q479.0313,260.2227 479.1719,260.1445 Q479.3281,260.0664 479.5313,260.0664 Q479.8594,260.0664 480.1094,260.332 Q480.375,260.582 480.375,260.9258 Q480.375,261.2695 480.0313,261.6758 Q479.5313,262.2539 478.7344,262.582 Q477.6563,263.0352 476.3594,263.0352 Q474.8438,263.0352 473.6406,262.4102 Q472.6563,261.9102 471.9688,260.8477 Q471.2813,259.7695 471.2813,258.4883 L471.2813,257.332 Q471.2813,256.0039 471.8906,254.8633 Q472.5156,253.707 473.6094,253.0977 Q474.7031,252.4727 475.9375,252.4727 Q476.6719,252.4727 477.3125,252.6445 Q477.9688,252.8008 478.5156,253.1602 Z " fill="#000000"/><text fill="#000000" font-family="sans-serif" font-size="12" font-style="italic" lengthAdjust="spacing" textLength="94" x="494.25" y="244.9629">&#171;aggregate root&#187;</text><text fill="#000000" font-family="sans-serif" font-size="12" font-style="italic" lengthAdjust="spacing" textLength="43" x="519.75" y="260.9238">&#171;entity&#187;</text><text fill="#000000" font-family="sans-serif" font-size="14" lengthAdjust="spacing" textLength="35" x="523.75" y="279.043">Class</text><line style="stroke:#181818;stroke-width:0.5;" x1="363.5" x2="686.5" y1="287.5566" y2="287.5566"/><rect fill="none" height="6" style="stroke:#C82930;stroke-width:1.0;" width="6" x="370.5" y="299.3672"/><text fill="#000000" font-family="sans-serif" font-size="14" lengthAdjust="spacing" textLength="96" x="382.5" y="306.6641">ClassTitle : title</text><rect fill="none" height="6" style="stroke:#C82930;stroke-width:1.0;" width="6" x="370.5" y="317.9883"/><text fill="#000000" font-family="sans-serif" font-size="14" lengthAdjust="spacing" textLength="149" x="382.5" y="325.2852">ClassDuration: duration</text><rect fill="none" height="6" style="stroke:#C82930;stroke-width:1.0;" width="6" x="370.5" y="336.6094"/><text fill="#000000" font-family="sans-serif" font-size="14" lengthAdjust="spacing" textLength="124" x="382.5" y="343.9063">Calendar: dayClass</text><rect fill="none" height="6" style="stroke:#C82930;stroke-width:1.0;" width="6" x="370.5" y="355.2305"/><text fill="#000000" font-family="sans-serif" font-size="14" lengthAdjust="spacing" textLength="80" x="382.5" y="362.5273">int: weekDay</text><rect fill="none" height="6" style="stroke:#C82930;stroke-width:1.0;" width="6" x="370.5" y="373.8516"/><text fill="#000000" font-family="sans-serif" font-size="14" lengthAdjust="spacing" textLength="166" x="382.5" y="381.1484">LocalTime: classTimeStart</text><rect fill="none" height="6" style="stroke:#C82930;stroke-width:1.0;" width="6" x="370.5" y="392.4727"/><text fill="#000000" font-family="sans-serif" font-size="14" lengthAdjust="spacing" textLength="161" x="382.5" y="399.7695">LocalTime: classTimeEnd</text><rect fill="none" height="6" style="stroke:#C82930;stroke-width:1.0;" width="6" x="370.5" y="411.0938"/><text fill="#000000" font-family="sans-serif" font-size="14" lengthAdjust="spacing" textLength="109" x="382.5" y="418.3906">Teacher: teacher</text><rect fill="none" height="6" style="stroke:#C82930;stroke-width:1.0;" width="6" x="370.5" y="429.7148"/><text fill="#000000" font-family="sans-serif" font-size="14" lengthAdjust="spacing" textLength="97" x="382.5" y="437.0117">Course: course</text><line style="stroke:#181818;stroke-width:0.5;" x1="363.5" x2="686.5" y1="444.5254" y2="444.5254"/><ellipse cx="373.5" cy="459.3359" fill="#84BE84" rx="3" ry="3" style="stroke:#038048;stroke-width:1.0;"/><text fill="#000000" font-family="sans-serif" font-size="14" lengthAdjust="spacing" textLength="299" x="382.5" y="463.6328">Class(title, duration, day, time, teacher, course)</text></g><!--class RecurringClass--><g id="elem_RecurringClass"><rect codeLine="24" fill="#F1F1F1" height="116.4453" id="RecurringClass" rx="2.5" ry="2.5" style="stroke:#181818;stroke-width:0.5;" width="423" x="716.5" y="532.0137"/><ellipse cx="875.25" cy="554.3047" fill="#ADD1B2" rx="11" ry="11" style="stroke:#181818;stroke-width:1.0;"/><path d="M878.0156,550.1797 Q878.1719,549.9609 878.3594,549.8516 Q878.5469,549.7422 878.7656,549.7422 Q879.1406,549.7422 879.375,550.0078 Q879.6094,550.2578 879.6094,550.8672 L879.6094,552.3203 Q879.6094,552.9297 879.375,553.1953 Q879.1406,553.4609 878.7656,553.4609 Q878.4219,553.4609 878.2188,553.2578 Q878.0156,553.0703 877.9063,552.5547 Q877.8594,552.1953 877.6719,552.0078 Q877.3438,551.6328 876.7344,551.4141 Q876.125,551.1953 875.5,551.1953 Q874.7344,551.1953 874.0938,551.5234 Q873.4688,551.8516 872.9688,552.6016 Q872.4844,553.3516 872.4844,554.3828 L872.4844,555.4766 Q872.4844,556.7109 873.375,557.5391 Q874.2656,558.3516 875.8594,558.3516 Q876.7969,558.3516 877.4531,558.1016 Q877.8438,557.9453 878.2656,557.5078 Q878.5313,557.2422 878.6719,557.1641 Q878.8281,557.0859 879.0313,557.0859 Q879.3594,557.0859 879.6094,557.3516 Q879.875,557.6016 879.875,557.9453 Q879.875,558.2891 879.5313,558.6953 Q879.0313,559.2734 878.2344,559.6016 Q877.1563,560.0547 875.8594,560.0547 Q874.3438,560.0547 873.1406,559.4297 Q872.1563,558.9297 871.4688,557.8672 Q870.7813,556.7891 870.7813,555.5078 L870.7813,554.3516 Q870.7813,553.0234 871.3906,551.8828 Q872.0156,550.7266 873.1094,550.1172 Q874.2031,549.4922 875.4375,549.4922 Q876.1719,549.4922 876.8125,549.6641 Q877.4688,549.8203 878.0156,550.1797 Z " fill="#000000"/><text fill="#000000" font-family="sans-serif" font-size="12" font-style="italic" lengthAdjust="spacing" textLength="43" x="922.75" y="549.9629">&#171;entity&#187;</text><text fill="#000000" font-family="sans-serif" font-size="14" lengthAdjust="spacing" textLength="97" x="895.75" y="568.082">RecurringClass</text><line style="stroke:#181818;stroke-width:0.5;" x1="717.5" x2="1138.5" y1="576.5957" y2="576.5957"/><rect fill="none" height="6" style="stroke:#C82930;stroke-width:1.0;" width="6" x="724.5" y="588.4063"/><text fill="#000000" font-family="sans-serif" font-size="14" lengthAdjust="spacing" textLength="397" x="736.5" y="595.7031">Map &lt;Calendar,RescheduledClassDate&gt; : rescheduledClasses</text><line style="stroke:#181818;stroke-width:0.5;" x1="717.5" x2="1138.5" y1="603.2168" y2="603.2168"/><ellipse cx="727.5" cy="618.0273" fill="#84BE84" rx="3" ry="3" style="stroke:#038048;stroke-width:1.0;"/><text fill="#000000" font-family="sans-serif" font-size="14" lengthAdjust="spacing" textLength="187" x="736.5" y="622.3242">RecurringClass(super(title,..))</text><ellipse cx="727.5" cy="636.6484" fill="#84BE84" rx="3" ry="3" style="stroke:#038048;stroke-width:1.0;"/><text fill="#000000" font-family="sans-serif" font-size="14" lengthAdjust="spacing" textLength="109" x="736.5" y="640.9453">addReschedule()</text></g><!--class RescheduledClassDate--><g id="elem_RescheduledClassDate"><rect codeLine="30" fill="#F1F1F1" height="135.0664" id="RescheduledClassDate" rx="2.5" ry="2.5" style="stroke:#181818;stroke-width:0.5;" width="425" x="714.5" y="709.0137"/><ellipse cx="848.75" cy="731.3047" fill="#ADD1B2" rx="11" ry="11" style="stroke:#181818;stroke-width:1.0;"/><path d="M851.5156,727.1797 Q851.6719,726.9609 851.8594,726.8516 Q852.0469,726.7422 852.2656,726.7422 Q852.6406,726.7422 852.875,727.0078 Q853.1094,727.2578 853.1094,727.8672 L853.1094,729.3203 Q853.1094,729.9297 852.875,730.1953 Q852.6406,730.4609 852.2656,730.4609 Q851.9219,730.4609 851.7188,730.2578 Q851.5156,730.0703 851.4063,729.5547 Q851.3594,729.1953 851.1719,729.0078 Q850.8438,728.6328 850.2344,728.4141 Q849.625,728.1953 849,728.1953 Q848.2344,728.1953 847.5938,728.5234 Q846.9688,728.8516 846.4688,729.6016 Q845.9844,730.3516 845.9844,731.3828 L845.9844,732.4766 Q845.9844,733.7109 846.875,734.5391 Q847.7656,735.3516 849.3594,735.3516 Q850.2969,735.3516 850.9531,735.1016 Q851.3438,734.9453 851.7656,734.5078 Q852.0313,734.2422 852.1719,734.1641 Q852.3281,734.0859 852.5313,734.0859 Q852.8594,734.0859 853.1094,734.3516 Q853.375,734.6016 853.375,734.9453 Q853.375,735.2891 853.0313,735.6953 Q852.5313,736.2734 851.7344,736.6016 Q850.6563,737.0547 849.3594,737.0547 Q847.8438,737.0547 846.6406,736.4297 Q845.6563,735.9297 844.9688,734.8672 Q844.2813,733.7891 844.2813,732.5078 L844.2813,731.3516 Q844.2813,730.0234 844.8906,728.8828 Q845.5156,727.7266 846.6094,727.1172 Q847.7031,726.4922 848.9375,726.4922 Q849.6719,726.4922 850.3125,726.6641 Q850.9688,726.8203 851.5156,727.1797 Z " fill="#000000"/><text fill="#000000" font-family="sans-serif" font-size="12" font-style="italic" lengthAdjust="spacing" textLength="81" x="902.75" y="726.9629">&#171;value object&#187;</text><text fill="#000000" font-family="sans-serif" font-size="14" lengthAdjust="spacing" textLength="148" x="869.25" y="745.082">RescheduledClassDate</text><line style="stroke:#181818;stroke-width:0.5;" x1="715.5" x2="1138.5" y1="753.5957" y2="753.5957"/><rect fill="none" height="6" style="stroke:#C82930;stroke-width:1.0;" width="6" x="722.5" y="765.4063"/><text fill="#000000" font-family="sans-serif" font-size="14" lengthAdjust="spacing" textLength="128" x="734.5" y="772.7031">Calendar : newdDay</text><rect fill="none" height="6" style="stroke:#C82930;stroke-width:1.0;" width="6" x="722.5" y="784.0273"/><text fill="#000000" font-family="sans-serif" font-size="14" lengthAdjust="spacing" textLength="163" x="734.5" y="791.3242">LocalTime : newTimeStart</text><rect fill="none" height="6" style="stroke:#C82930;stroke-width:1.0;" width="6" x="722.5" y="802.6484"/><text fill="#000000" font-family="sans-serif" font-size="14" lengthAdjust="spacing" textLength="158" x="734.5" y="809.9453">LocalTime : newTimeEnd</text><line style="stroke:#181818;stroke-width:0.5;" x1="715.5" x2="1138.5" y1="817.459" y2="817.459"/><ellipse cx="725.5" cy="832.2695" fill="#84BE84" rx="3" ry="3" style="stroke:#038048;stroke-width:1.0;"/><text fill="#000000" font-family="sans-serif" font-size="14" lengthAdjust="spacing" textLength="399" x="734.5" y="836.5664">RescheduledClassDate(newdDay, newTimeStart, newTimeEnd)</text></g><!--class ClassTitle--><g id="elem_ClassTitle"><rect codeLine="37" fill="#F1F1F1" height="116.4453" id="ClassTitle" rx="2.5" ry="2.5" style="stroke:#181818;stroke-width:0.5;" width="172" x="22" y="532.0137"/><ellipse cx="65.35" cy="554.3047" fill="#ADD1B2" rx="11" ry="11" style="stroke:#181818;stroke-width:1.0;"/><path d="M68.1156,550.1797 Q68.2719,549.9609 68.4594,549.8516 Q68.6469,549.7422 68.8656,549.7422 Q69.2406,549.7422 69.475,550.0078 Q69.7094,550.2578 69.7094,550.8672 L69.7094,552.3203 Q69.7094,552.9297 69.475,553.1953 Q69.2406,553.4609 68.8656,553.4609 Q68.5219,553.4609 68.3188,553.2578 Q68.1156,553.0703 68.0063,552.5547 Q67.9594,552.1953 67.7719,552.0078 Q67.4438,551.6328 66.8344,551.4141 Q66.225,551.1953 65.6,551.1953 Q64.8344,551.1953 64.1938,551.5234 Q63.5687,551.8516 63.0687,552.6016 Q62.5844,553.3516 62.5844,554.3828 L62.5844,555.4766 Q62.5844,556.7109 63.475,557.5391 Q64.3656,558.3516 65.9594,558.3516 Q66.8969,558.3516 67.5531,558.1016 Q67.9438,557.9453 68.3656,557.5078 Q68.6313,557.2422 68.7719,557.1641 Q68.9281,557.0859 69.1313,557.0859 Q69.4594,557.0859 69.7094,557.3516 Q69.975,557.6016 69.975,557.9453 Q69.975,558.2891 69.6313,558.6953 Q69.1313,559.2734 68.3344,559.6016 Q67.2563,560.0547 65.9594,560.0547 Q64.4438,560.0547 63.2406,559.4297 Q62.2562,558.9297 61.5687,557.8672 Q60.8812,556.7891 60.8812,555.5078 L60.8812,554.3516 Q60.8812,553.0234 61.4906,551.8828 Q62.1156,550.7266 63.2094,550.1172 Q64.3031,549.4922 65.5375,549.4922 Q66.2719,549.4922 66.9125,549.6641 Q67.5688,549.8203 68.1156,550.1797 Z " fill="#000000"/><text fill="#000000" font-family="sans-serif" font-size="12" font-style="italic" lengthAdjust="spacing" textLength="81" x="83.65" y="549.9629">&#171;value object&#187;</text><text fill="#000000" font-family="sans-serif" font-size="14" lengthAdjust="spacing" textLength="62" x="93.15" y="568.082">ClassTitle</text><line style="stroke:#181818;stroke-width:0.5;" x1="23" x2="193" y1="576.5957" y2="576.5957"/><rect fill="none" height="6" style="stroke:#C82930;stroke-width:1.0;" width="6" x="30" y="588.4063"/><text fill="#000000" font-family="sans-serif" font-size="14" lengthAdjust="spacing" textLength="108" x="42" y="595.7031">classTitle : String</text><line style="stroke:#181818;stroke-width:0.5;" x1="23" x2="193" y1="603.2168" y2="603.2168"/><ellipse cx="33" cy="618.0273" fill="#84BE84" rx="3" ry="3" style="stroke:#038048;stroke-width:1.0;"/><text fill="#000000" font-family="sans-serif" font-size="14" lengthAdjust="spacing" textLength="118" x="42" y="622.3242">valueOf(classTitle)</text><ellipse cx="33" cy="636.6484" fill="#84BE84" rx="3" ry="3" style="stroke:#038048;stroke-width:1.0;"/><text fill="#000000" font-family="sans-serif" font-size="14" lengthAdjust="spacing" textLength="146" x="42" y="640.9453">CourseTitle (classTitle)</text></g><!--class ClassDuration--><g id="elem_ClassDuration"><rect codeLine="43" fill="#F1F1F1" height="116.4453" id="ClassDuration" rx="2.5" ry="2.5" style="stroke:#181818;stroke-width:0.5;" width="218" x="229" y="532.0137"/><ellipse cx="289.25" cy="554.3047" fill="#ADD1B2" rx="11" ry="11" style="stroke:#181818;stroke-width:1.0;"/><path d="M292.0156,550.1797 Q292.1719,549.9609 292.3594,549.8516 Q292.5469,549.7422 292.7656,549.7422 Q293.1406,549.7422 293.375,550.0078 Q293.6094,550.2578 293.6094,550.8672 L293.6094,552.3203 Q293.6094,552.9297 293.375,553.1953 Q293.1406,553.4609 292.7656,553.4609 Q292.4219,553.4609 292.2188,553.2578 Q292.0156,553.0703 291.9063,552.5547 Q291.8594,552.1953 291.6719,552.0078 Q291.3438,551.6328 290.7344,551.4141 Q290.125,551.1953 289.5,551.1953 Q288.7344,551.1953 288.0938,551.5234 Q287.4688,551.8516 286.9688,552.6016 Q286.4844,553.3516 286.4844,554.3828 L286.4844,555.4766 Q286.4844,556.7109 287.375,557.5391 Q288.2656,558.3516 289.8594,558.3516 Q290.7969,558.3516 291.4531,558.1016 Q291.8438,557.9453 292.2656,557.5078 Q292.5313,557.2422 292.6719,557.1641 Q292.8281,557.0859 293.0313,557.0859 Q293.3594,557.0859 293.6094,557.3516 Q293.875,557.6016 293.875,557.9453 Q293.875,558.2891 293.5313,558.6953 Q293.0313,559.2734 292.2344,559.6016 Q291.1563,560.0547 289.8594,560.0547 Q288.3438,560.0547 287.1406,559.4297 Q286.1563,558.9297 285.4688,557.8672 Q284.7813,556.7891 284.7813,555.5078 L284.7813,554.3516 Q284.7813,553.0234 285.3906,551.8828 Q286.0156,550.7266 287.1094,550.1172 Q288.2031,549.4922 289.4375,549.4922 Q290.1719,549.4922 290.8125,549.6641 Q291.4688,549.8203 292.0156,550.1797 Z " fill="#000000"/><text fill="#000000" font-family="sans-serif" font-size="12" font-style="italic" lengthAdjust="spacing" textLength="81" x="313.75" y="549.9629">&#171;value object&#187;</text><text fill="#000000" font-family="sans-serif" font-size="14" lengthAdjust="spacing" textLength="89" x="309.75" y="568.082">ClassDuration</text><line style="stroke:#181818;stroke-width:0.5;" x1="230" x2="446" y1="576.5957" y2="576.5957"/><rect fill="none" height="6" style="stroke:#C82930;stroke-width:1.0;" width="6" x="237" y="588.4063"/><text fill="#000000" font-family="sans-serif" font-size="14" lengthAdjust="spacing" textLength="156" x="249" y="595.7031">classDuration : Calendar</text><line style="stroke:#181818;stroke-width:0.5;" x1="230" x2="446" y1="603.2168" y2="603.2168"/><ellipse cx="240" cy="618.0273" fill="#84BE84" rx="3" ry="3" style="stroke:#038048;stroke-width:1.0;"/><text fill="#000000" font-family="sans-serif" font-size="14" lengthAdjust="spacing" textLength="145" x="249" y="622.3242">valueOf(classDuration)</text><ellipse cx="240" cy="636.6484" fill="#84BE84" rx="3" ry="3" style="stroke:#038048;stroke-width:1.0;"/><text fill="#000000" font-family="sans-serif" font-size="14" lengthAdjust="spacing" textLength="192" x="249" y="640.9453">ClassDuration (ClassDuration)</text></g><!--class Teacher--><g id="elem_Teacher"><rect codeLine="50" fill="#F1F1F1" height="60.582" id="Teacher" rx="2.5" ry="2.5" style="stroke:#181818;stroke-width:0.5;" width="85" x="482.5" y="559.5137"/><ellipse cx="497.5" cy="581.8047" fill="#ADD1B2" rx="11" ry="11" style="stroke:#181818;stroke-width:1.0;"/><path d="M500.2656,577.6797 Q500.4219,577.4609 500.6094,577.3516 Q500.7969,577.2422 501.0156,577.2422 Q501.3906,577.2422 501.625,577.5078 Q501.8594,577.7578 501.8594,578.3672 L501.8594,579.8203 Q501.8594,580.4297 501.625,580.6953 Q501.3906,580.9609 501.0156,580.9609 Q500.6719,580.9609 500.4688,580.7578 Q500.2656,580.5703 500.1563,580.0547 Q500.1094,579.6953 499.9219,579.5078 Q499.5938,579.1328 498.9844,578.9141 Q498.375,578.6953 497.75,578.6953 Q496.9844,578.6953 496.3438,579.0234 Q495.7188,579.3516 495.2188,580.1016 Q494.7344,580.8516 494.7344,581.8828 L494.7344,582.9766 Q494.7344,584.2109 495.625,585.0391 Q496.5156,585.8516 498.1094,585.8516 Q499.0469,585.8516 499.7031,585.6016 Q500.0938,585.4453 500.5156,585.0078 Q500.7813,584.7422 500.9219,584.6641 Q501.0781,584.5859 501.2813,584.5859 Q501.6094,584.5859 501.8594,584.8516 Q502.125,585.1016 502.125,585.4453 Q502.125,585.7891 501.7813,586.1953 Q501.2813,586.7734 500.4844,587.1016 Q499.4063,587.5547 498.1094,587.5547 Q496.5938,587.5547 495.3906,586.9297 Q494.4063,586.4297 493.7188,585.3672 Q493.0313,584.2891 493.0313,583.0078 L493.0313,581.8516 Q493.0313,580.5234 493.6406,579.3828 Q494.2656,578.2266 495.3594,577.6172 Q496.4531,576.9922 497.6875,576.9922 Q498.4219,576.9922 499.0625,577.1641 Q499.7188,577.3203 500.2656,577.6797 Z " fill="#000000"/><text fill="#000000" font-family="sans-serif" font-size="12" font-style="italic" lengthAdjust="spacing" textLength="43" x="516.5" y="577.4629">&#171;entity&#187;</text><text fill="#000000" font-family="sans-serif" font-size="14" lengthAdjust="spacing" textLength="53" x="511.5" y="595.582">Teacher</text><line style="stroke:#181818;stroke-width:0.5;" x1="483.5" x2="566.5" y1="604.0957" y2="604.0957"/><line style="stroke:#181818;stroke-width:0.5;" x1="483.5" x2="566.5" y1="612.0957" y2="612.0957"/></g><!--class Course--><g id="elem_Course"><rect codeLine="54" fill="#F1F1F1" height="60.582" id="Course" rx="2.5" ry="2.5" style="stroke:#181818;stroke-width:0.5;" width="78" x="603" y="559.5137"/><ellipse cx="618" cy="581.8047" fill="#ADD1B2" rx="11" ry="11" style="stroke:#181818;stroke-width:1.0;"/><path d="M620.7656,577.6797 Q620.9219,577.4609 621.1094,577.3516 Q621.2969,577.2422 621.5156,577.2422 Q621.8906,577.2422 622.125,577.5078 Q622.3594,577.7578 622.3594,578.3672 L622.3594,579.8203 Q622.3594,580.4297 622.125,580.6953 Q621.8906,580.9609 621.5156,580.9609 Q621.1719,580.9609 620.9688,580.7578 Q620.7656,580.5703 620.6563,580.0547 Q620.6094,579.6953 620.4219,579.5078 Q620.0938,579.1328 619.4844,578.9141 Q618.875,578.6953 618.25,578.6953 Q617.4844,578.6953 616.8438,579.0234 Q616.2188,579.3516 615.7188,580.1016 Q615.2344,580.8516 615.2344,581.8828 L615.2344,582.9766 Q615.2344,584.2109 616.125,585.0391 Q617.0156,585.8516 618.6094,585.8516 Q619.5469,585.8516 620.2031,585.6016 Q620.5938,585.4453 621.0156,585.0078 Q621.2813,584.7422 621.4219,584.6641 Q621.5781,584.5859 621.7813,584.5859 Q622.1094,584.5859 622.3594,584.8516 Q622.625,585.1016 622.625,585.4453 Q622.625,585.7891 622.2813,586.1953 Q621.7813,586.7734 620.9844,587.1016 Q619.9063,587.5547 618.6094,587.5547 Q617.0938,587.5547 615.8906,586.9297 Q614.9063,586.4297 614.2188,585.3672 Q613.5313,584.2891 613.5313,583.0078 L613.5313,581.8516 Q613.5313,580.5234 614.1406,579.3828 Q614.7656,578.2266 615.8594,577.6172 Q616.9531,576.9922 618.1875,576.9922 Q618.9219,576.9922 619.5625,577.1641 Q620.2188,577.3203 620.7656,577.6797 Z " fill="#000000"/><text fill="#000000" font-family="sans-serif" font-size="12" font-style="italic" lengthAdjust="spacing" textLength="43" x="633.5" y="577.4629">&#171;entity&#187;</text><text fill="#000000" font-family="sans-serif" font-size="14" lengthAdjust="spacing" textLength="46" x="632" y="595.582">Course</text><line style="stroke:#181818;stroke-width:0.5;" x1="604" x2="680" y1="604.0957" y2="604.0957"/><line style="stroke:#181818;stroke-width:0.5;" x1="604" x2="680" y1="612.0957" y2="612.0957"/></g><!--class RecurringClassBuilder--><g id="elem_RecurringClassBuilder"><rect codeLine="58" fill="#F1F1F1" height="172.3086" id="RecurringClassBuilder" rx="2.5" ry="2.5" style="stroke:#181818;stroke-width:0.5;" width="173" x="934.5" y="263.0137"/><ellipse cx="949.5" cy="285.3047" fill="#ADD1B2" rx="11" ry="11" style="stroke:#181818;stroke-width:1.0;"/><path d="M952.2656,281.1797 Q952.4219,280.9609 952.6094,280.8516 Q952.7969,280.7422 953.0156,280.7422 Q953.3906,280.7422 953.625,281.0078 Q953.8594,281.2578 953.8594,281.8672 L953.8594,283.3203 Q953.8594,283.9297 953.625,284.1953 Q953.3906,284.4609 953.0156,284.4609 Q952.6719,284.4609 952.4688,284.2578 Q952.2656,284.0703 952.1563,283.5547 Q952.1094,283.1953 951.9219,283.0078 Q951.5938,282.6328 950.9844,282.4141 Q950.375,282.1953 949.75,282.1953 Q948.9844,282.1953 948.3438,282.5234 Q947.7188,282.8516 947.2188,283.6016 Q946.7344,284.3516 946.7344,285.3828 L946.7344,286.4766 Q946.7344,287.7109 947.625,288.5391 Q948.5156,289.3516 950.1094,289.3516 Q951.0469,289.3516 951.7031,289.1016 Q952.0938,288.9453 952.5156,288.5078 Q952.7813,288.2422 952.9219,288.1641 Q953.0781,288.0859 953.2813,288.0859 Q953.6094,288.0859 953.8594,288.3516 Q954.125,288.6016 954.125,288.9453 Q954.125,289.2891 953.7813,289.6953 Q953.2813,290.2734 952.4844,290.6016 Q951.4063,291.0547 950.1094,291.0547 Q948.5938,291.0547 947.3906,290.4297 Q946.4063,289.9297 945.7188,288.8672 Q945.0313,287.7891 945.0313,286.5078 L945.0313,285.3516 Q945.0313,284.0234 945.6406,282.8828 Q946.2656,281.7266 947.3594,281.1172 Q948.4531,280.4922 949.6875,280.4922 Q950.4219,280.4922 951.0625,280.6641 Q951.7188,280.8203 952.2656,281.1797 Z " fill="#000000"/><text fill="#000000" font-family="sans-serif" font-size="12" font-style="italic" lengthAdjust="spacing" textLength="53" x="1007.5" y="280.9629">&#171;Builder&#187;</text><text fill="#000000" font-family="sans-serif" font-size="14" lengthAdjust="spacing" textLength="141" x="963.5" y="299.082">RecurringClassBuilder</text><line style="stroke:#181818;stroke-width:0.5;" x1="935.5" x2="1106.5" y1="307.5957" y2="307.5957"/><line style="stroke:#181818;stroke-width:0.5;" x1="935.5" x2="1106.5" y1="315.5957" y2="315.5957"/><ellipse cx="945.5" cy="330.4063" fill="#84BE84" rx="3" ry="3" style="stroke:#038048;stroke-width:1.0;"/><text fill="#000000" font-family="sans-serif" font-size="14" lengthAdjust="spacing" textLength="87" x="954.5" y="334.7031">withTeacher()</text><ellipse cx="945.5" cy="349.0273" fill="#84BE84" rx="3" ry="3" style="stroke:#038048;stroke-width:1.0;"/><text fill="#000000" font-family="sans-serif" font-size="14" lengthAdjust="spacing" textLength="59" x="954.5" y="353.3242">withDay()</text><ellipse cx="945.5" cy="367.6484" fill="#84BE84" rx="3" ry="3" style="stroke:#038048;stroke-width:1.0;"/><text fill="#000000" font-family="sans-serif" font-size="14" lengthAdjust="spacing" textLength="65" x="954.5" y="371.9453">withTime()</text><ellipse cx="945.5" cy="386.2695" fill="#84BE84" rx="3" ry="3" style="stroke:#038048;stroke-width:1.0;"/><text fill="#000000" font-family="sans-serif" font-size="14" lengthAdjust="spacing" textLength="61" x="954.5" y="390.5664">withTitle()</text><ellipse cx="945.5" cy="404.8906" fill="#84BE84" rx="3" ry="3" style="stroke:#038048;stroke-width:1.0;"/><text fill="#000000" font-family="sans-serif" font-size="14" lengthAdjust="spacing" textLength="80" x="954.5" y="409.1875">withCourse()</text><ellipse cx="945.5" cy="423.5117" fill="#84BE84" rx="3" ry="3" style="stroke:#038048;stroke-width:1.0;"/><text fill="#000000" font-family="sans-serif" font-size="14" lengthAdjust="spacing" textLength="40" x="954.5" y="427.8086">build()</text></g><!--class ScheduleRecurringClassController--><g id="elem_ScheduleRecurringClassController"><rect codeLine="73" fill="#F1F1F1" height="172.3086" id="ScheduleRecurringClassController" rx="2.5" ry="2.5" style="stroke:#181818;stroke-width:0.5;" width="279" x="1196.5" y="263.0137"/><ellipse cx="1224.55" cy="285.3047" fill="#ADD1B2" rx="11" ry="11" style="stroke:#181818;stroke-width:1.0;"/><path d="M1227.3156,281.1797 Q1227.4719,280.9609 1227.6594,280.8516 Q1227.8469,280.7422 1228.0656,280.7422 Q1228.4406,280.7422 1228.675,281.0078 Q1228.9094,281.2578 1228.9094,281.8672 L1228.9094,283.3203 Q1228.9094,283.9297 1228.675,284.1953 Q1228.4406,284.4609 1228.0656,284.4609 Q1227.7219,284.4609 1227.5188,284.2578 Q1227.3156,284.0703 1227.2063,283.5547 Q1227.1594,283.1953 1226.9719,283.0078 Q1226.6438,282.6328 1226.0344,282.4141 Q1225.425,282.1953 1224.8,282.1953 Q1224.0344,282.1953 1223.3938,282.5234 Q1222.7688,282.8516 1222.2688,283.6016 Q1221.7844,284.3516 1221.7844,285.3828 L1221.7844,286.4766 Q1221.7844,287.7109 1222.675,288.5391 Q1223.5656,289.3516 1225.1594,289.3516 Q1226.0969,289.3516 1226.7531,289.1016 Q1227.1438,288.9453 1227.5656,288.5078 Q1227.8313,288.2422 1227.9719,288.1641 Q1228.1281,288.0859 1228.3313,288.0859 Q1228.6594,288.0859 1228.9094,288.3516 Q1229.175,288.6016 1229.175,288.9453 Q1229.175,289.2891 1228.8313,289.6953 Q1228.3313,290.2734 1227.5344,290.6016 Q1226.4563,291.0547 1225.1594,291.0547 Q1223.6438,291.0547 1222.4406,290.4297 Q1221.4563,289.9297 1220.7688,288.8672 Q1220.0813,287.7891 1220.0813,286.5078 L1220.0813,285.3516 Q1220.0813,284.0234 1220.6906,282.8828 Q1221.3156,281.7266 1222.4094,281.1172 Q1223.5031,280.4922 1224.7375,280.4922 Q1225.4719,280.4922 1226.1125,280.6641 Q1226.7688,280.8203 1227.3156,281.1797 Z " fill="#000000"/><text fill="#000000" font-family="sans-serif" font-size="12" font-style="italic" lengthAdjust="spacing" textLength="65" x="1317.95" y="280.9629">&#171;controller&#187;</text><text fill="#000000" font-family="sans-serif" font-size="14" lengthAdjust="spacing" textLength="218" x="1241.45" y="299.082">ScheduleRecurringClassController</text><line style="stroke:#181818;stroke-width:0.5;" x1="1197.5" x2="1474.5" y1="307.5957" y2="307.5957"/><rect fill="none" height="6" style="stroke:#C82930;stroke-width:1.0;" width="6" x="1204.5" y="319.4063"/><text fill="#000000" font-family="sans-serif" font-size="14" lengthAdjust="spacing" textLength="253" x="1216.5" y="326.7031">courseSvc : CourseManagementService</text><rect fill="none" height="6" style="stroke:#C82930;stroke-width:1.0;" width="6" x="1204.5" y="338.0273"/><text fill="#000000" font-family="sans-serif" font-size="14" lengthAdjust="spacing" textLength="253" x="1216.5" y="345.3242">courseSvc : CourseManagementService</text><rect fill="none" height="6" style="stroke:#C82930;stroke-width:1.0;" width="6" x="1204.5" y="356.6484"/><text fill="#000000" font-family="sans-serif" font-size="14" lengthAdjust="spacing" textLength="196" x="1216.5" y="363.9453">builder : RecurringClassBuilder</text><line style="stroke:#181818;stroke-width:0.5;" x1="1197.5" x2="1474.5" y1="371.459" y2="371.459"/><ellipse cx="1207.5" cy="386.2695" fill="#84BE84" rx="3" ry="3" style="stroke:#038048;stroke-width:1.0;"/><text fill="#000000" font-family="sans-serif" font-size="14" lengthAdjust="spacing" textLength="168" x="1216.5" y="390.5664">allCoursesBySystemUser()</text><ellipse cx="1207.5" cy="404.8906" fill="#84BE84" rx="3" ry="3" style="stroke:#038048;stroke-width:1.0;"/><text fill="#000000" font-family="sans-serif" font-size="14" lengthAdjust="spacing" textLength="172" x="1216.5" y="409.1875">checkScheduleAvailability()</text><ellipse cx="1207.5" cy="423.5117" fill="#84BE84" rx="3" ry="3" style="stroke:#038048;stroke-width:1.0;"/><text fill="#000000" font-family="sans-serif" font-size="14" lengthAdjust="spacing" textLength="164" x="1216.5" y="427.8086">scheduleRecurringClass()</text></g><!--class CourseManagementService--><g id="elem_CourseManagementService"><rect codeLine="82" fill="#F1F1F1" height="97.8242" id="CourseManagementService" rx="2.5" ry="2.5" style="stroke:#181818;stroke-width:0.5;" width="263" x="1196.5" y="541.0137"/><ellipse cx="1236.7" cy="563.3047" fill="#ADD1B2" rx="11" ry="11" style="stroke:#181818;stroke-width:1.0;"/><path d="M1239.4656,559.1797 Q1239.6219,558.9609 1239.8094,558.8516 Q1239.9969,558.7422 1240.2156,558.7422 Q1240.5906,558.7422 1240.825,559.0078 Q1241.0594,559.2578 1241.0594,559.8672 L1241.0594,561.3203 Q1241.0594,561.9297 1240.825,562.1953 Q1240.5906,562.4609 1240.2156,562.4609 Q1239.8719,562.4609 1239.6688,562.2578 Q1239.4656,562.0703 1239.3563,561.5547 Q1239.3094,561.1953 1239.1219,561.0078 Q1238.7938,560.6328 1238.1844,560.4141 Q1237.575,560.1953 1236.95,560.1953 Q1236.1844,560.1953 1235.5438,560.5234 Q1234.9188,560.8516 1234.4188,561.6016 Q1233.9344,562.3516 1233.9344,563.3828 L1233.9344,564.4766 Q1233.9344,565.7109 1234.825,566.5391 Q1235.7156,567.3516 1237.3094,567.3516 Q1238.2469,567.3516 1238.9031,567.1016 Q1239.2938,566.9453 1239.7156,566.5078 Q1239.9813,566.2422 1240.1219,566.1641 Q1240.2781,566.0859 1240.4813,566.0859 Q1240.8094,566.0859 1241.0594,566.3516 Q1241.325,566.6016 1241.325,566.9453 Q1241.325,567.2891 1240.9813,567.6953 Q1240.4813,568.2734 1239.6844,568.6016 Q1238.6063,569.0547 1237.3094,569.0547 Q1235.7938,569.0547 1234.5906,568.4297 Q1233.6063,567.9297 1232.9188,566.8672 Q1232.2313,565.7891 1232.2313,564.5078 L1232.2313,563.3516 Q1232.2313,562.0234 1232.8406,560.8828 Q1233.4656,559.7266 1234.5594,559.1172 Q1235.6531,558.4922 1236.8875,558.4922 Q1237.6219,558.4922 1238.2625,558.6641 Q1238.9188,558.8203 1239.4656,559.1797 Z " fill="#000000"/><text fill="#000000" font-family="sans-serif" font-size="12" font-style="italic" lengthAdjust="spacing" textLength="53" x="1317.3" y="558.9629">&#171;service&#187;</text><text fill="#000000" font-family="sans-serif" font-size="14" lengthAdjust="spacing" textLength="175" x="1256.3" y="577.082">CourseManagementService</text><line style="stroke:#181818;stroke-width:0.5;" x1="1197.5" x2="1458.5" y1="585.5957" y2="585.5957"/><rect fill="none" height="6" style="stroke:#C82930;stroke-width:1.0;" width="6" x="1204.5" y="597.4063"/><text fill="#000000" font-family="sans-serif" font-size="14" lengthAdjust="spacing" textLength="237" x="1216.5" y="604.7031">courseRepository : CourseRepository</text><line style="stroke:#181818;stroke-width:0.5;" x1="1197.5" x2="1458.5" y1="612.2168" y2="612.2168"/><ellipse cx="1207.5" cy="627.0273" fill="#84BE84" rx="3" ry="3" style="stroke:#038048;stroke-width:1.0;"/><text fill="#000000" font-family="sans-serif" font-size="14" lengthAdjust="spacing" textLength="168" x="1216.5" y="631.3242">allCoursesBySystemUser()</text></g><!--class ClassRepository--><g id="elem_ClassRepository"><rect codeLine="91" fill="#F1F1F1" height="79.2031" id="ClassRepository" rx="2.5" ry="2.5" style="stroke:#181818;stroke-width:0.5;" width="144" x="1438" y="737.0137"/><ellipse cx="1457.05" cy="759.3047" fill="#B4A7E5" rx="11" ry="11" style="stroke:#181818;stroke-width:1.0;"/><path d="M1458.0031,755.9453 L1458.0031,762.6016 L1459.7219,762.6016 Q1460.3313,762.6016 1460.5969,762.8359 Q1460.8625,763.0703 1460.8625,763.4609 Q1460.8625,763.8359 1460.5969,764.0703 Q1460.3313,764.3047 1459.7219,764.3047 L1454.5813,764.3047 Q1453.9719,764.3047 1453.7063,764.0703 Q1453.4406,763.8359 1453.4406,763.4453 Q1453.4406,763.0703 1453.7063,762.8359 Q1453.9719,762.6016 1454.5813,762.6016 L1456.3,762.6016 L1456.3,755.9453 L1454.5813,755.9453 Q1453.9719,755.9453 1453.7063,755.7109 Q1453.4406,755.4766 1453.4406,755.0859 Q1453.4406,754.7109 1453.7063,754.4766 Q1453.9719,754.2422 1454.5813,754.2422 L1459.7219,754.2422 Q1460.3313,754.2422 1460.5969,754.4766 Q1460.8625,754.7109 1460.8625,755.0859 Q1460.8625,755.4766 1460.5969,755.7109 Q1460.3313,755.9453 1459.7219,755.9453 L1458.0031,755.9453 Z " fill="#000000"/><text fill="#000000" font-family="sans-serif" font-size="12" font-style="italic" lengthAdjust="spacing" textLength="68" x="1489.45" y="754.9629">&#171;repository&#187;</text><text fill="#000000" font-family="sans-serif" font-size="14" font-style="italic" lengthAdjust="spacing" textLength="103" x="1471.95" y="773.082">ClassRepository</text><line style="stroke:#181818;stroke-width:0.5;" x1="1439" x2="1581" y1="781.5957" y2="781.5957"/><line style="stroke:#181818;stroke-width:0.5;" x1="1439" x2="1581" y1="789.5957" y2="789.5957"/><text fill="#000000" font-family="sans-serif" font-size="14" lengthAdjust="spacing" textLength="132" x="1444" y="808.7031">save(recurringClass)</text></g><!--class CourseRepository--><g id="elem_CourseRepository"><rect codeLine="95" fill="#F1F1F1" height="79.2031" id="CourseRepository" rx="2.5" ry="2.5" style="stroke:#181818;stroke-width:0.5;" width="150" x="1253" y="737.0137"/><ellipse cx="1269.8" cy="759.3047" fill="#B4A7E5" rx="11" ry="11" style="stroke:#181818;stroke-width:1.0;"/><path d="M1270.7531,755.9453 L1270.7531,762.6016 L1272.4719,762.6016 Q1273.0813,762.6016 1273.3469,762.8359 Q1273.6125,763.0703 1273.6125,763.4609 Q1273.6125,763.8359 1273.3469,764.0703 Q1273.0813,764.3047 1272.4719,764.3047 L1267.3313,764.3047 Q1266.7219,764.3047 1266.4563,764.0703 Q1266.1906,763.8359 1266.1906,763.4453 Q1266.1906,763.0703 1266.4563,762.8359 Q1266.7219,762.6016 1267.3313,762.6016 L1269.05,762.6016 L1269.05,755.9453 L1267.3313,755.9453 Q1266.7219,755.9453 1266.4563,755.7109 Q1266.1906,755.4766 1266.1906,755.0859 Q1266.1906,754.7109 1266.4563,754.4766 Q1266.7219,754.2422 1267.3313,754.2422 L1272.4719,754.2422 Q1273.0813,754.2422 1273.3469,754.4766 Q1273.6125,754.7109 1273.6125,755.0859 Q1273.6125,755.4766 1273.3469,755.7109 Q1273.0813,755.9453 1272.4719,755.9453 L1270.7531,755.9453 Z " fill="#000000"/><text fill="#000000" font-family="sans-serif" font-size="12" font-style="italic" lengthAdjust="spacing" textLength="68" x="1307.2" y="754.9629">&#171;repository&#187;</text><text fill="#000000" font-family="sans-serif" font-size="14" font-style="italic" lengthAdjust="spacing" textLength="114" x="1284.2" y="773.082">CourseRepository</text><line style="stroke:#181818;stroke-width:0.5;" x1="1254" x2="1402" y1="781.5957" y2="781.5957"/><line style="stroke:#181818;stroke-width:0.5;" x1="1254" x2="1402" y1="789.5957" y2="789.5957"/><ellipse cx="1264" cy="804.4063" fill="#84BE84" rx="3" ry="3" style="stroke:#038048;stroke-width:1.0;"/><text fill="#000000" font-family="sans-serif" font-size="14" lengthAdjust="spacing" textLength="124" x="1273" y="808.7031">findBySystemUser()</text></g><!--class JpaClassRepository--><g id="elem_JpaClassRepository"><rect codeLine="102" fill="#F1F1F1" height="48" id="JpaClassRepository" rx="2.5" ry="2.5" style="stroke:#181818;stroke-width:0.5;" width="157" x="1312.5" y="948.0137"/><ellipse cx="1327.5" cy="964.0137" fill="#ADD1B2" rx="11" ry="11" style="stroke:#181818;stroke-width:1.0;"/><path d="M1330.2656,959.8887 Q1330.4219,959.6699 1330.6094,959.5605 Q1330.7969,959.4512 1331.0156,959.4512 Q1331.3906,959.4512 1331.625,959.7168 Q1331.8594,959.9668 1331.8594,960.5762 L1331.8594,962.0293 Q1331.8594,962.6387 1331.625,962.9043 Q1331.3906,963.1699 1331.0156,963.1699 Q1330.6719,963.1699 1330.4688,962.9668 Q1330.2656,962.7793 1330.1563,962.2637 Q1330.1094,961.9043 1329.9219,961.7168 Q1329.5938,961.3418 1328.9844,961.123 Q1328.375,960.9043 1327.75,960.9043 Q1326.9844,960.9043 1326.3438,961.2324 Q1325.7188,961.5605 1325.2188,962.3105 Q1324.7344,963.0605 1324.7344,964.0918 L1324.7344,965.1855 Q1324.7344,966.4199 1325.625,967.248 Q1326.5156,968.0605 1328.1094,968.0605 Q1329.0469,968.0605 1329.7031,967.8105 Q1330.0938,967.6543 1330.5156,967.2168 Q1330.7813,966.9512 1330.9219,966.873 Q1331.0781,966.7949 1331.2813,966.7949 Q1331.6094,966.7949 1331.8594,967.0605 Q1332.125,967.3105 1332.125,967.6543 Q1332.125,967.998 1331.7813,968.4043 Q1331.2813,968.9824 1330.4844,969.3105 Q1329.4063,969.7637 1328.1094,969.7637 Q1326.5938,969.7637 1325.3906,969.1387 Q1324.4063,968.6387 1323.7188,967.5762 Q1323.0313,966.498 1323.0313,965.2168 L1323.0313,964.0605 Q1323.0313,962.7324 1323.6406,961.5918 Q1324.2656,960.4355 1325.3594,959.8262 Q1326.4531,959.2012 1327.6875,959.2012 Q1328.4219,959.2012 1329.0625,959.373 Q1329.7188,959.5293 1330.2656,959.8887 Z " fill="#000000"/><text fill="#000000" font-family="sans-serif" font-size="14" lengthAdjust="spacing" textLength="125" x="1341.5" y="969.8105">JpaClassRepository</text><line style="stroke:#181818;stroke-width:0.5;" x1="1313.5" x2="1468.5" y1="980.0137" y2="980.0137"/><line style="stroke:#181818;stroke-width:0.5;" x1="1313.5" x2="1468.5" y1="988.0137" y2="988.0137"/></g><!--class InMemoryClassRepository--><g id="elem_InMemoryClassRepository"><rect codeLine="105" fill="#F1F1F1" height="48" id="InMemoryClassRepository" rx="2.5" ry="2.5" style="stroke:#181818;stroke-width:0.5;" width="196" x="1505" y="948.0137"/><ellipse cx="1520" cy="964.0137" fill="#ADD1B2" rx="11" ry="11" style="stroke:#181818;stroke-width:1.0;"/><path d="M1522.7656,959.8887 Q1522.9219,959.6699 1523.1094,959.5605 Q1523.2969,959.4512 1523.5156,959.4512 Q1523.8906,959.4512 1524.125,959.7168 Q1524.3594,959.9668 1524.3594,960.5762 L1524.3594,962.0293 Q1524.3594,962.6387 1524.125,962.9043 Q1523.8906,963.1699 1523.5156,963.1699 Q1523.1719,963.1699 1522.9688,962.9668 Q1522.7656,962.7793 1522.6563,962.2637 Q1522.6094,961.9043 1522.4219,961.7168 Q1522.0938,961.3418 1521.4844,961.123 Q1520.875,960.9043 1520.25,960.9043 Q1519.4844,960.9043 1518.8438,961.2324 Q1518.2188,961.5605 1517.7188,962.3105 Q1517.2344,963.0605 1517.2344,964.0918 L1517.2344,965.1855 Q1517.2344,966.4199 1518.125,967.248 Q1519.0156,968.0605 1520.6094,968.0605 Q1521.5469,968.0605 1522.2031,967.8105 Q1522.5938,967.6543 1523.0156,967.2168 Q1523.2813,966.9512 1523.4219,966.873 Q1523.5781,966.7949 1523.7813,966.7949 Q1524.1094,966.7949 1524.3594,967.0605 Q1524.625,967.3105 1524.625,967.6543 Q1524.625,967.998 1524.2813,968.4043 Q1523.7813,968.9824 1522.9844,969.3105 Q1521.9063,969.7637 1520.6094,969.7637 Q1519.0938,969.7637 1517.8906,969.1387 Q1516.9063,968.6387 1516.2188,967.5762 Q1515.5313,966.498 1515.5313,965.2168 L1515.5313,964.0605 Q1515.5313,962.7324 1516.1406,961.5918 Q1516.7656,960.4355 1517.8594,959.8262 Q1518.9531,959.2012 1520.1875,959.2012 Q1520.9219,959.2012 1521.5625,959.373 Q1522.2188,959.5293 1522.7656,959.8887 Z " fill="#000000"/><text fill="#000000" font-family="sans-serif" font-size="14" lengthAdjust="spacing" textLength="164" x="1534" y="969.8105">InMemoryClassRepository</text><line style="stroke:#181818;stroke-width:0.5;" x1="1506" x2="1700" y1="980.0137" y2="980.0137"/><line style="stroke:#181818;stroke-width:0.5;" x1="1506" x2="1700" y1="988.0137" y2="988.0137"/></g><!--reverse link Class to RecurringClass--><g id="link_Class_RecurringClass"><path d="M705.03,456.7837 C748.64,482.6437 793.6,509.3137 831.63,531.8637 " fill="none" id="Class-backto-RecurringClass" style="stroke:#181818;stroke-width:1.0;"/><polygon fill="none" points="701.39,462.7537,687.75,446.5337,708.53,450.7137,701.39,462.7537" style="stroke:#181818;stroke-width:1.0;"/></g><!--link ScheduleRecurringClassUI to ScheduleRecurringClassController--><g id="link_ScheduleRecurringClassUI_ScheduleRecurringClassController"><path codeLine="111" d="M1336,141.2737 C1336,174.0237 1336,218.3337 1336,257.5237 " fill="none" id="ScheduleRecurringClassUI-to-ScheduleRecurringClassController" style="stroke:#181818;stroke-width:1.0;stroke-dasharray:7.0,7.0;"/><polygon fill="#181818" points="1336,262.7737,1340,253.7737,1336,257.7737,1332,253.7737,1336,262.7737" style="stroke:#181818;stroke-width:1.0;"/></g><!--link ScheduleRecurringClassController to CourseManagementService--><g id="link_ScheduleRecurringClassController_CourseManagementService"><path codeLine="112" d="M1333.15,435.2837 C1332.02,468.8637 1330.77,506.3937 1329.78,535.9537 " fill="none" id="ScheduleRecurringClassController-to-CourseManagementService" style="stroke:#181818;stroke-width:1.0;stroke-dasharray:7.0,7.0;"/><polygon fill="#181818" points="1329.61,541.0037,1333.8915,532.1342,1329.7675,536.0062,1325.8955,531.8821,1329.61,541.0037" style="stroke:#181818;stroke-width:1.0;"/></g><!--link CourseManagementService to CourseRepository--><g id="link_CourseManagementService_CourseRepository"><path codeLine="116" d="M1328,639.4937 C1328,668.1337 1328,704.1137 1328,731.8637 " fill="none" id="CourseManagementService-to-CourseRepository" style="stroke:#181818;stroke-width:1.0;stroke-dasharray:7.0,7.0;"/><polygon fill="#181818" points="1328,736.9537,1332,727.9537,1328,731.9537,1324,727.9537,1328,736.9537" style="stroke:#181818;stroke-width:1.0;"/></g><!--reverse link ClassRepository to JpaClassRepository--><g id="link_ClassRepository_JpaClassRepository"><path codeLine="120" d="M1483.31,820.9137 C1459.15,860.2037 1424.48,916.5837 1405.24,947.8637 " fill="none" id="ClassRepository-backto-JpaClassRepository" style="stroke:#181818;stroke-width:1.0;stroke-dasharray:7.0,7.0;"/><polygon fill="#181818" points="1486.2,816.2037,1478.0765,821.7722,1483.5795,820.462,1484.8898,825.965,1486.2,816.2037" style="stroke:#181818;stroke-width:1.0;"/><text fill="#000000" font-family="sans-serif" font-size="13" lengthAdjust="spacing" textLength="67" x="1447" y="891.042">implements</text></g><!--reverse link ClassRepository to InMemoryClassRepository--><g id="link_ClassRepository_InMemoryClassRepository"><path codeLine="121" d="M1530.86,820.9137 C1549.74,860.2037 1576.84,916.5837 1591.87,947.8637 " fill="none" id="ClassRepository-backto-InMemoryClassRepository" style="stroke:#181818;stroke-width:1.0;stroke-dasharray:7.0,7.0;"/><polygon fill="#181818" points="1528.6,816.2037,1528.9088,826.0477,1530.7729,820.7068,1536.1138,822.571,1528.6,816.2037" style="stroke:#181818;stroke-width:1.0;"/><text fill="#000000" font-family="sans-serif" font-size="13" lengthAdjust="spacing" textLength="67" x="1565" y="891.042">implements</text></g><!--link ScheduleRecurringClassController to RecurringClass--><g id="link_ScheduleRecurringClassController_RecurringClass"><path codeLine="123" d="M1213.25,435.2237 C1194.31,447.5837 1174.79,459.8837 1156,471.0137 C1121.96,491.1737 1084.11,511.5437 1049.19,529.5437 " fill="none" id="ScheduleRecurringClassController-to-RecurringClass" style="stroke:#181818;stroke-width:1.0;stroke-dasharray:7.0,7.0;"/><polygon fill="#181818" points="1044.51,531.9537,1054.3414,531.3683,1048.9503,529.655,1050.6636,524.2638,1044.51,531.9537" style="stroke:#181818;stroke-width:1.0;"/></g><!--link ScheduleRecurringClassController to ClassRepository--><g id="link_ScheduleRecurringClassController_ClassRepository"><path codeLine="124" d="M1416.85,435.2537 C1439.85,463.9837 1462.55,497.5437 1477,532.0137 C1504.58,597.8237 1510.21,681.5737 1510.8,731.7437 " fill="none" id="ScheduleRecurringClassController-to-ClassRepository" style="stroke:#181818;stroke-width:1.0;stroke-dasharray:7.0,7.0;"/><polygon fill="#181818" points="1510.84,736.7837,1514.7627,727.7497,1510.7971,731.7839,1506.763,727.8183,1510.84,736.7837" style="stroke:#181818;stroke-width:1.0;"/></g><!--link Class to Teacher--><g id="link_Class_Teacher"><path codeLine="126" d="M525,471.2637 C525,501.6437 525,531.8737 525,554.0937 " fill="none" id="Class-to-Teacher" style="stroke:#181818;stroke-width:1.0;"/><polygon fill="#181818" points="525,559.2837,529,550.2837,525,554.2837,521,550.2837,525,559.2837" style="stroke:#181818;stroke-width:1.0;"/></g><!--link Class to Course--><g id="link_Class_Course"><path codeLine="127" d="M584.36,471.2637 C599.35,501.9037 614.28,532.3837 625.18,554.6537 " fill="none" id="Class-to-Course" style="stroke:#181818;stroke-width:1.0;"/><polygon fill="#181818" points="627.45,559.2837,627.0906,549.4414,625.2539,554.7918,619.9036,552.9551,627.45,559.2837" style="stroke:#181818;stroke-width:1.0;"/></g><!--link Class to ClassDuration--><g id="link_Class_ClassDuration"><path codeLine="128" d="M430.13,471.2637 C414.88,490.7537 399.67,510.1937 386.14,527.4837 " fill="none" id="Class-to-ClassDuration" style="stroke:#181818;stroke-width:1.0;"/><polygon fill="#181818" points="382.74,531.8337,391.4368,527.2114,385.8215,527.8961,385.1368,522.2809,382.74,531.8337" style="stroke:#181818;stroke-width:1.0;"/></g><!--link Class to ClassTitle--><g id="link_Class_ClassTitle"><path codeLine="129" d="M362.28,443.2737 C306.71,475.1237 246.57,509.5937 198.73,537.0137 " fill="none" id="Class-to-ClassTitle" style="stroke:#181818;stroke-width:1.0;"/><polygon fill="#181818" points="194.14,539.6437,203.938,538.6445,198.4795,537.1599,199.964,531.7013,194.14,539.6437" style="stroke:#181818;stroke-width:1.0;"/></g><!--link ScheduleRecurringClassController to RecurringClassBuilder--><g id="link_ScheduleRecurringClassController_RecurringClassBuilder"><path codeLine="131" d="M1196.46,349.0137 C1168.62,349.0137 1140.79,349.0137 1112.95,349.0137 " fill="none" id="ScheduleRecurringClassController-to-RecurringClassBuilder" style="stroke:#181818;stroke-width:1.0;stroke-dasharray:7.0,7.0;"/><polygon fill="#181818" points="1107.75,349.0137,1116.75,353.0137,1112.75,349.0137,1116.75,345.0137,1107.75,349.0137" style="stroke:#181818;stroke-width:1.0;"/></g><!--link RecurringClassBuilder to RecurringClass--><g id="link_RecurringClassBuilder_RecurringClass"><path codeLine="132" d="M987.82,435.2837 C976.03,465.5737 963,499.0637 952.12,527.0337 " fill="none" id="RecurringClassBuilder-to-RecurringClass" style="stroke:#181818;stroke-width:1.0;stroke-dasharray:7.0,7.0;"/><polygon fill="#181818" points="950.25,531.8337,957.2441,524.8996,952.065,527.1747,949.7898,521.9956,950.25,531.8337" style="stroke:#181818;stroke-width:1.0;"/></g><!--reverse link RecurringClass to ClassRepository--><g id="link_RecurringClass_ClassRepository"><path codeLine="134" d="M1120.46,649.3737 C1140.46,654.4237 1160.57,659.0937 1180,663.0137 C1285.75,684.3437 1323.24,646.3937 1421,692.0137 C1443.08,702.3137 1463.28,720.2137 1478.84,736.8037 " fill="none" id="RecurringClass-backto-ClassRepository" style="stroke:#181818;stroke-width:1.0;stroke-dasharray:7.0,7.0;"/><polygon fill="#181818" points="1115.38,648.0837,1123.1243,654.1685,1120.2273,649.3098,1125.0861,646.4128,1115.38,648.0837" style="stroke:#181818;stroke-width:1.0;"/></g><!--link RecurringClass to RescheduledClassDate--><g id="link_RecurringClass_RescheduledClassDate"><path codeLine="135" d="M927.69,648.1237 C927.6,665.7337 927.49,685.3437 927.39,703.8037 " fill="none" id="RecurringClass-to-RescheduledClassDate" style="stroke:#181818;stroke-width:1.0;"/><polygon fill="#181818" points="927.36,708.9737,931.4114,699.9967,927.3886,703.9738,923.4115,699.951,927.36,708.9737" style="stroke:#181818;stroke-width:1.0;"/></g><!--SRC=[dLPDRzim3BtxLnZROIwQk8VjC0I1WRNTeKEB0NNx0nIBIRJA7v3aP47H_pvAbcpvQocQIsIIejvxf6X_sIjLoTNLLSL9eUgSnrcPNsMSIBcaZEm4oOEW8jaBsK7ugH8WeL14iRBu57w-DR_N8CIVsHAcsHvepU4Hibe8LknkjFdvBbold- -If0bTXfaIF5pDHD-KXH8bvo1Cz6L8otHV7gCBy_WMl0KU8bhcX6aiT4E_4_2nc6HuCDdj1Eo8Wb2KfKeID247fauT7XFwn1G7HANql- -uhOLXl0gfNJaluL1G8j11JYRKEbYXLk4HuEMMdApflim8Vs8vh1fuUfag8jH__3yBQhrFG50hF4Wr2mUWh8NKEyo_bSi0YGoBHOjueI4ka5kEHfjaOVSvOJtj-XNn50lXhqBEJbqdu0EfmhMJO_48qbQMDWAY-0agAmPsa1Po_xX8rXK8oo2EBovi5A6qonnDeXwVYzWFXDSGbfi_aEdoDvYzyY6o0exKrSelHkFgrshQxsfbs8nXHFQ4HI_VmjlTyEaJylfoIAEzIdxhfagBQEKoyR-tKHVXXBHzq-mQ-SS8t0MO0U41QIDNhRfjo02H2xtm0WR7HJVZG7txEtZsNlWD-XfCi31ypqNrk_2wPfoQr7Rbw5uUcThRWsqN6XDMrt_KPUq_AzupDA2SPQCFwPfQq_J67AagpZ8tTu5ilz6lv-TkDqcHHTO-3EfcOAI7JDVCh1z8WOVcg5KAui0o-73qncgucjRMgppXl4adhq_fIIh8dsKhRnE25BCNH_J7WJ1EDenZENjHSbA9gMan0n-baitArwcb_WXLAPagnQbLe3DruMSODHLkoojS1WOIwtlFTdkLAW1-hM-RxLLygO3O4aHeA7b0rkisGVjIa-G0aUY9qDF0opRaDPNkCjooWfvdWeDRCWmfCfWYqgd_go936g_Z6jqL3v2ZRpPKtvFPZuvucPp_nZXxTNIMkLR7trmRnN4oxWyTFopUCfuI0xkBvHKtAUNafZbjUXlVGIyPNCvtAj8_rV8Ab-Yoiz6pD3hu1d-m3-rcKdu4kHihquDSenum3ORVEV5oH6mGiZHPnY_uu1y0]--></g></svg>