<?xml version="1.0" encoding="us-ascii" standalone="no"?><svg xmlns="http://www.w3.org/2000/svg" xmlns:xlink="http://www.w3.org/1999/xlink" contentStyleType="text/css" height="508px" preserveAspectRatio="none" style="width:955px;height:508px;background:#FFFFFF;" version="1.1" viewBox="0 0 955 508" width="955px" zoomAndPan="magnify"><defs/><g><rect fill="#FFFFFF" height="293.1875" style="stroke:#181818;stroke-width:1.0;" width="10" x="300.5" y="112.8047"/><rect fill="#FFFFFF" height="57.0469" style="stroke:#181818;stroke-width:1.0;" width="10" x="473" y="169.8516"/><rect fill="#FFFFFF" height="56.5234" style="stroke:#181818;stroke-width:1.0;" width="10" x="634" y="226.8984"/><rect fill="#FFFFFF" height="14" style="stroke:#181818;stroke-width:1.0;" width="10" x="754" y="255.4219"/><rect fill="#FFFFFF" height="94.0469" style="stroke:#181818;stroke-width:1.0;" width="10" x="754" y="311.9453"/><rect fill="#FFFFFF" height="14" style="stroke:#181818;stroke-width:1.0;" width="10" x="889" y="368.9922"/><line style="stroke:#181818;stroke-width:0.5;stroke-dasharray:5.0,5.0;" x1="103" x2="103" y1="82.2813" y2="414.9922"/><line style="stroke:#181818;stroke-width:0.5;stroke-dasharray:5.0,5.0;" x1="305" x2="305" y1="82.2813" y2="414.9922"/><line style="stroke:#181818;stroke-width:0.5;stroke-dasharray:5.0,5.0;" x1="478" x2="478" y1="82.2813" y2="414.9922"/><line style="stroke:#181818;stroke-width:0.5;stroke-dasharray:5.0,5.0;" x1="639" x2="639" y1="82.2813" y2="414.9922"/><line style="stroke:#181818;stroke-width:0.5;stroke-dasharray:5.0,5.0;" x1="759" x2="759" y1="82.2813" y2="414.9922"/><line style="stroke:#181818;stroke-width:0.5;stroke-dasharray:5.0,5.0;" x1="894" x2="894" y1="82.2813" y2="414.9922"/><rect fill="#E2E2F0" height="45.2813" rx="2.5" ry="2.5" style="stroke:#181818;stroke-width:0.5;" width="196" x="5" y="36"/><text fill="#000000" font-family="FG Virgil" font-size="14" font-style="italic" lengthAdjust="spacing" textLength="84" x="61" y="55.6738">&#171;application&#187;</text><text fill="#000000" font-family="FG Virgil" font-size="14" lengthAdjust="spacing" textLength="182" x="12" y="71.3145">RequestEnrollmentController</text><rect fill="#E2E2F0" height="45.2813" rx="2.5" ry="2.5" style="stroke:#181818;stroke-width:0.5;" width="196" x="5" y="413.9922"/><text fill="#000000" font-family="FG Virgil" font-size="14" font-style="italic" lengthAdjust="spacing" textLength="84" x="61" y="433.666">&#171;application&#187;</text><text fill="#000000" font-family="FG Virgil" font-size="14" lengthAdjust="spacing" textLength="182" x="12" y="449.3066">RequestEnrollmentController</text><rect fill="#E2E2F0" height="45.2813" rx="2.5" ry="2.5" style="stroke:#181818;stroke-width:0.5;" width="189" x="211" y="36"/><text fill="#000000" font-family="FG Virgil" font-size="14" font-style="italic" lengthAdjust="spacing" textLength="84" x="263.5" y="55.6738">&#171;application&#187;</text><text fill="#000000" font-family="FG Virgil" font-size="14" lengthAdjust="spacing" textLength="175" x="218" y="71.3145">CourseManagementService</text><rect fill="#E2E2F0" height="45.2813" rx="2.5" ry="2.5" style="stroke:#181818;stroke-width:0.5;" width="189" x="211" y="413.9922"/><text fill="#000000" font-family="FG Virgil" font-size="14" font-style="italic" lengthAdjust="spacing" textLength="84" x="263.5" y="433.666">&#171;application&#187;</text><text fill="#000000" font-family="FG Virgil" font-size="14" lengthAdjust="spacing" textLength="175" x="218" y="449.3066">CourseManagementService</text><rect fill="#E2E2F0" height="45.2813" rx="2.5" ry="2.5" style="stroke:#181818;stroke-width:0.5;" width="136" x="410" y="36"/><text fill="#000000" font-family="FG Virgil" font-size="14" font-style="italic" lengthAdjust="spacing" textLength="89" x="433.5" y="55.6738">&#171;persistence&#187;</text><text fill="#000000" font-family="FG Virgil" font-size="14" lengthAdjust="spacing" textLength="122" x="417" y="71.3145">PersistenceContext</text><rect fill="#E2E2F0" height="45.2813" rx="2.5" ry="2.5" style="stroke:#181818;stroke-width:0.5;" width="136" x="410" y="413.9922"/><text fill="#000000" font-family="FG Virgil" font-size="14" font-style="italic" lengthAdjust="spacing" textLength="89" x="433.5" y="433.666">&#171;persistence&#187;</text><text fill="#000000" font-family="FG Virgil" font-size="14" lengthAdjust="spacing" textLength="122" x="417" y="449.3066">PersistenceContext</text><rect fill="#E2E2F0" height="29.6406" rx="2.5" ry="2.5" style="stroke:#181818;stroke-width:0.5;" width="90" x="594" y="51.6406"/><text fill="#000000" font-family="FG Virgil" font-size="14" lengthAdjust="spacing" textLength="76" x="601" y="71.3145">AppSettings</text><rect fill="#E2E2F0" height="29.6406" rx="2.5" ry="2.5" style="stroke:#181818;stroke-width:0.5;" width="90" x="594" y="413.9922"/><text fill="#000000" font-family="FG Virgil" font-size="14" lengthAdjust="spacing" textLength="76" x="601" y="433.666">AppSettings</text><rect fill="#E2E2F0" height="45.2813" rx="2.5" ry="2.5" style="stroke:#181818;stroke-width:0.5;" width="130" x="694" y="36"/><text fill="#000000" font-family="FG Virgil" font-size="14" font-style="italic" lengthAdjust="spacing" textLength="59" x="729.5" y="55.6738">&#171;factory&#187;</text><text fill="#000000" font-family="FG Virgil" font-size="14" lengthAdjust="spacing" textLength="116" x="701" y="71.3145">RepositoryFactory</text><rect fill="#E2E2F0" height="45.2813" rx="2.5" ry="2.5" style="stroke:#181818;stroke-width:0.5;" width="130" x="694" y="413.9922"/><text fill="#000000" font-family="FG Virgil" font-size="14" font-style="italic" lengthAdjust="spacing" textLength="59" x="729.5" y="433.666">&#171;factory&#187;</text><text fill="#000000" font-family="FG Virgil" font-size="14" lengthAdjust="spacing" textLength="116" x="701" y="449.3066">RepositoryFactory</text><text fill="#000000" font-family="FG Virgil" font-size="14" font-style="italic" lengthAdjust="spacing" textLength="79" x="851.5" y="63.6738">&#171;repository&#187;</text><text fill="#000000" font-family="FG Virgil" font-size="14" lengthAdjust="spacing" textLength="114" x="834" y="79.3145">CourseRepository</text><path d="M876,15 C876,5 894,5 894,5 C894,5 912,5 912,15 L912,41 C912,51 894,51 894,51 C894,51 876,51 876,41 L876,15 " fill="#E2E2F0" style="stroke:#181818;stroke-width:1.5;"/><path d="M876,15 C876,25 894,25 894,25 C894,25 912,25 912,15 " fill="none" style="stroke:#181818;stroke-width:1.5;"/><text fill="#000000" font-family="FG Virgil" font-size="14" font-style="italic" lengthAdjust="spacing" textLength="79" x="851.5" y="426.666">&#171;repository&#187;</text><text fill="#000000" font-family="FG Virgil" font-size="14" lengthAdjust="spacing" textLength="114" x="834" y="442.3066">CourseRepository</text><path d="M876,455.2734 C876,445.2734 894,445.2734 894,445.2734 C894,445.2734 912,445.2734 912,455.2734 L912,481.2734 C912,491.2734 894,491.2734 894,491.2734 C894,491.2734 876,491.2734 876,481.2734 L876,455.2734 " fill="#E2E2F0" style="stroke:#181818;stroke-width:1.5;"/><path d="M876,455.2734 C876,465.2734 894,465.2734 894,465.2734 C894,465.2734 912,465.2734 912,455.2734 " fill="none" style="stroke:#181818;stroke-width:1.5;"/><rect fill="#FFFFFF" height="293.1875" style="stroke:#181818;stroke-width:1.0;" width="10" x="300.5" y="112.8047"/><rect fill="#FFFFFF" height="57.0469" style="stroke:#181818;stroke-width:1.0;" width="10" x="473" y="169.8516"/><rect fill="#FFFFFF" height="56.5234" style="stroke:#181818;stroke-width:1.0;" width="10" x="634" y="226.8984"/><rect fill="#FFFFFF" height="14" style="stroke:#181818;stroke-width:1.0;" width="10" x="754" y="255.4219"/><rect fill="#FFFFFF" height="94.0469" style="stroke:#181818;stroke-width:1.0;" width="10" x="754" y="311.9453"/><rect fill="#FFFFFF" height="14" style="stroke:#181818;stroke-width:1.0;" width="10" x="889" y="368.9922"/><polygon fill="#181818" points="288.5,108.8047,298.5,112.8047,288.5,116.8047,292.5,112.8047" style="stroke:#181818;stroke-width:1.0;"/><line style="stroke:#181818;stroke-width:1.0;" x1="103" x2="294.5" y1="112.8047" y2="112.8047"/><text fill="#000000" font-family="FG Virgil" font-size="13" lengthAdjust="spacing" textLength="44" x="110" y="108.0498">create()</text><polygon fill="#181818" points="288.5,137.3281,298.5,141.3281,288.5,145.3281,292.5,141.3281" style="stroke:#181818;stroke-width:1.0;"/><line style="stroke:#181818;stroke-width:1.0;" x1="103" x2="294.5" y1="141.3281" y2="141.3281"/><text fill="#000000" font-family="FG Virgil" font-size="13" lengthAdjust="spacing" textLength="87" x="110" y="136.5732">enrollCourses()</text><polygon fill="#181818" points="461,165.8516,471,169.8516,461,173.8516,465,169.8516" style="stroke:#181818;stroke-width:1.0;"/><line style="stroke:#181818;stroke-width:1.0;" x1="310.5" x2="467" y1="169.8516" y2="169.8516"/><text fill="#000000" font-family="FG Virgil" font-size="13" lengthAdjust="spacing" textLength="75" x="317.5" y="165.0967">repositories()</text><polygon fill="#181818" points="627,194.375,637,198.375,627,202.375,631,198.375" style="stroke:#181818;stroke-width:1.0;"/><line style="stroke:#181818;stroke-width:1.0;" x1="483" x2="633" y1="198.375" y2="198.375"/><text fill="#000000" font-family="FG Virgil" font-size="13" lengthAdjust="spacing" textLength="57" x="490" y="193.6201">instance()</text><polygon fill="#181818" points="622,222.8984,632,226.8984,622,230.8984,626,226.8984" style="stroke:#181818;stroke-width:1.0;"/><line style="stroke:#181818;stroke-width:1.0;" x1="478" x2="628" y1="226.8984" y2="226.8984"/><text fill="#000000" font-family="FG Virgil" font-size="13" lengthAdjust="spacing" textLength="132" x="485" y="222.1436">getRepositoryFactory()</text><polygon fill="#181818" points="742,251.4219,752,255.4219,742,259.4219,746,255.4219" style="stroke:#181818;stroke-width:1.0;"/><line style="stroke:#181818;stroke-width:1.0;stroke-dasharray:2.0,2.0;" x1="644" x2="748" y1="255.4219" y2="255.4219"/><text fill="#000000" font-family="FG Virgil" font-size="13" lengthAdjust="spacing" textLength="36" x="651" y="250.667">create</text><polygon fill="#181818" points="655,265.4219,645,269.4219,655,273.4219,651,269.4219" style="stroke:#181818;stroke-width:1.0;"/><line style="stroke:#181818;stroke-width:1.0;stroke-dasharray:2.0,2.0;" x1="649" x2="758" y1="269.4219" y2="269.4219"/><polygon fill="#181818" points="321.5,279.4219,311.5,283.4219,321.5,287.4219,317.5,283.4219" style="stroke:#181818;stroke-width:1.0;"/><line style="stroke:#181818;stroke-width:1.0;stroke-dasharray:2.0,2.0;" x1="315.5" x2="638" y1="283.4219" y2="283.4219"/><polygon fill="#181818" points="742,307.9453,752,311.9453,742,315.9453,746,311.9453" style="stroke:#181818;stroke-width:1.0;"/><line style="stroke:#181818;stroke-width:1.0;" x1="310.5" x2="748" y1="311.9453" y2="311.9453"/><text fill="#000000" font-family="FG Virgil" font-size="13" lengthAdjust="spacing" textLength="104" x="317.5" y="307.1904">enrollingCourses()</text><polygon fill="#181818" points="882,336.4688,892,340.4688,882,344.4688,886,340.4688" style="stroke:#181818;stroke-width:1.0;"/><line style="stroke:#181818;stroke-width:1.0;stroke-dasharray:2.0,2.0;" x1="764" x2="888" y1="340.4688" y2="340.4688"/><text fill="#000000" font-family="FG Virgil" font-size="13" lengthAdjust="spacing" textLength="104" x="771" y="335.7139">enrollingCourses()</text><polygon fill="#181818" points="877,364.9922,887,368.9922,877,372.9922,881,368.9922" style="stroke:#181818;stroke-width:1.0;"/><line style="stroke:#181818;stroke-width:1.0;" x1="310.5" x2="883" y1="368.9922" y2="368.9922"/><text fill="#000000" font-family="FG Virgil" font-size="13" lengthAdjust="spacing" textLength="217" x="317.5" y="364.2373">coursesByState = findByEnrollState()</text><polygon fill="#181818" points="321.5,378.9922,311.5,382.9922,321.5,386.9922,317.5,382.9922" style="stroke:#181818;stroke-width:1.0;"/><line style="stroke:#181818;stroke-width:1.0;stroke-dasharray:2.0,2.0;" x1="315.5" x2="893" y1="382.9922" y2="382.9922"/><polygon fill="#181818" points="114,392.9922,104,396.9922,114,400.9922,110,396.9922" style="stroke:#181818;stroke-width:1.0;"/><line style="stroke:#181818;stroke-width:1.0;stroke-dasharray:2.0,2.0;" x1="108" x2="299.5" y1="396.9922" y2="396.9922"/><!--SRC=[VLF1Ri8m3BttAtBRTW3kg4FQqDXfqxHAktkfWOWqpH83u-_dKDgOZN6e6jllFTklwSsQo4yd4s_1qRQnOzqsaxWnpaE0PhocnXP3gDRWwdqmHEZK4cn4KVEWDx32YWuMLK1DebRZ4hQM5gsZLsXGBPxLXmah8xNZ6kfsRzpgf5mKd2UZZUV9r3j-RJ7IamkjjGqwchDMEcDG49M8oXAyjqO3cTRDPcSgytOR8hw0uq6JI8LXPpGc1NqiLJjzLU0DGpIHrzUOMk8t9Qx8Cjldw1VxmViAYNZ7c6WHwTUEles6sd1OW4wl1EgFPRdiJgnP0y4dH3pjatc98AAo34F0j4AuD9g9ZQTA1mJ2sxk2UvWT7tFr2WkFNwCR8Z8vrrI2IbkcQXZ57B538u4g98C5sA2fCYuIS88vbyehf3- -CRJ6Yms6PFAU7pLYdHEhTo63JeMY_mQZhgaKxo6zLhPDW18dUoCxTWxoXSWcNksULxt8FMiYiLqXFXugIjBtQcbS_NZeVgTZJdREp4BSfd_N4t0n0AFppP5maVq1]--></g></svg>