<?xml version="1.0" encoding="us-ascii" standalone="no"?><svg xmlns="http://www.w3.org/2000/svg" xmlns:xlink="http://www.w3.org/1999/xlink" contentStyleType="text/css" height="880px" preserveAspectRatio="none" style="width:1654px;height:880px;background:#FFFFFF;" version="1.1" viewBox="0 0 1654 880" width="1654px" zoomAndPan="magnify"><defs/><g><rect fill="#FFFFFF" height="664.9219" style="stroke:#181818;stroke-width:1.0;" width="10" x="262.5" y="112.8047"/><rect fill="#FFFFFF" height="598.875" style="stroke:#181818;stroke-width:1.0;" width="10" x="443.5" y="141.3281"/><rect fill="#FFFFFF" height="99.9766" style="stroke:#181818;stroke-width:1.0;" width="10" x="646" y="169.8516"/><rect fill="#FFFFFF" height="299.2344" style="stroke:#181818;stroke-width:1.0;" width="10" x="855.5" y="412.4453"/><rect fill="#FFFFFF" height="28.5234" style="stroke:#181818;stroke-width:1.0;" width="10" x="1135.5" y="440.9688"/><rect fill="#FFFFFF" height="57.0469" style="stroke:#181818;stroke-width:1.0;" width="10" x="1289" y="498.0156"/><rect fill="#FFFFFF" height="57.0469" style="stroke:#181818;stroke-width:1.0;" width="10" x="1432" y="583.5859"/><rect fill="#FFFFFF" height="14" style="stroke:#181818;stroke-width:1.0;" width="10" x="1577.5" y="669.1563"/><line style="stroke:#181818;stroke-width:0.5;stroke-dasharray:5.0,5.0;" x1="32" x2="32" y1="82.2813" y2="786.7266"/><line style="stroke:#181818;stroke-width:0.5;stroke-dasharray:5.0,5.0;" x1="267.5" x2="267.5" y1="82.2813" y2="786.7266"/><line style="stroke:#181818;stroke-width:0.5;stroke-dasharray:5.0,5.0;" x1="448.5" x2="448.5" y1="82.2813" y2="786.7266"/><line style="stroke:#181818;stroke-width:0.5;stroke-dasharray:5.0,5.0;" x1="650.5" x2="650.5" y1="82.2813" y2="786.7266"/><line style="stroke:#181818;stroke-width:0.5;stroke-dasharray:5.0,5.0;" x1="860.5" x2="860.5" y1="82.2813" y2="786.7266"/><line style="stroke:#181818;stroke-width:0.5;stroke-dasharray:5.0,5.0;" x1="1140" x2="1140" y1="82.2813" y2="786.7266"/><line style="stroke:#181818;stroke-width:0.5;stroke-dasharray:5.0,5.0;" x1="1294" x2="1294" y1="82.2813" y2="786.7266"/><line style="stroke:#181818;stroke-width:0.5;stroke-dasharray:5.0,5.0;" x1="1437" x2="1437" y1="82.2813" y2="786.7266"/><line style="stroke:#181818;stroke-width:0.5;stroke-dasharray:5.0,5.0;" x1="1582" x2="1582" y1="82.2813" y2="786.7266"/><text fill="#000000" font-family="FG Virgil" font-size="14" lengthAdjust="spacing" textLength="49" x="5" y="79.3145">Student</text><ellipse cx="32.5" cy="15.1406" fill="#E3E3E3" rx="8" ry="8" style="stroke:#181818;stroke-width:0.5;"/><path d="M32.5,23.1406 L32.5,50.1406 M19.5,31.1406 L45.5,31.1406 M32.5,50.1406 L19.5,65.1406 M32.5,50.1406 L45.5,65.1406 " fill="none" style="stroke:#181818;stroke-width:0.5;"/><text fill="#000000" font-family="FG Virgil" font-size="14" lengthAdjust="spacing" textLength="49" x="5" y="798.4004">Student</text><ellipse cx="32.5" cy="809.8672" fill="#E3E3E3" rx="8" ry="8" style="stroke:#181818;stroke-width:0.5;"/><path d="M32.5,817.8672 L32.5,844.8672 M19.5,825.8672 L45.5,825.8672 M32.5,844.8672 L19.5,859.8672 M32.5,844.8672 L45.5,859.8672 " fill="none" style="stroke:#181818;stroke-width:0.5;"/><rect fill="#E3E3E3" height="45.2813" rx="2.5" ry="2.5" style="stroke:#181818;stroke-width:0.5;" width="146" x="194.5" y="36"/><text fill="#000000" font-family="FG Virgil" font-size="14" font-style="italic" lengthAdjust="spacing" textLength="95" x="220" y="55.6738">&#171;presentation&#187;</text><text fill="#000000" font-family="FG Virgil" font-size="14" lengthAdjust="spacing" textLength="132" x="201.5" y="71.3145">RequestEnrollmentUI</text><rect fill="#E3E3E3" height="45.2813" rx="2.5" ry="2.5" style="stroke:#181818;stroke-width:0.5;" width="146" x="194.5" y="785.7266"/><text fill="#000000" font-family="FG Virgil" font-size="14" font-style="italic" lengthAdjust="spacing" textLength="95" x="220" y="805.4004">&#171;presentation&#187;</text><text fill="#000000" font-family="FG Virgil" font-size="14" lengthAdjust="spacing" textLength="132" x="201.5" y="821.041">RequestEnrollmentUI</text><rect fill="#E3E3E3" height="45.2813" rx="2.5" ry="2.5" style="stroke:#181818;stroke-width:0.5;" width="196" x="350.5" y="36"/><text fill="#000000" font-family="FG Virgil" font-size="14" font-style="italic" lengthAdjust="spacing" textLength="84" x="406.5" y="55.6738">&#171;application&#187;</text><text fill="#000000" font-family="FG Virgil" font-size="14" lengthAdjust="spacing" textLength="182" x="357.5" y="71.3145">RequestEnrollmentController</text><rect fill="#E3E3E3" height="45.2813" rx="2.5" ry="2.5" style="stroke:#181818;stroke-width:0.5;" width="196" x="350.5" y="785.7266"/><text fill="#000000" font-family="FG Virgil" font-size="14" font-style="italic" lengthAdjust="spacing" textLength="84" x="406.5" y="805.4004">&#171;application&#187;</text><text fill="#000000" font-family="FG Virgil" font-size="14" lengthAdjust="spacing" textLength="182" x="357.5" y="821.041">RequestEnrollmentController</text><rect fill="#E3E3E3" height="45.2813" rx="2.5" ry="2.5" style="stroke:#181818;stroke-width:0.5;" width="189" x="556.5" y="36"/><text fill="#000000" font-family="FG Virgil" font-size="14" font-style="italic" lengthAdjust="spacing" textLength="84" x="609" y="55.6738">&#171;application&#187;</text><text fill="#000000" font-family="FG Virgil" font-size="14" lengthAdjust="spacing" textLength="175" x="563.5" y="71.3145">CourseManagementService</text><rect fill="#E3E3E3" height="45.2813" rx="2.5" ry="2.5" style="stroke:#181818;stroke-width:0.5;" width="189" x="556.5" y="785.7266"/><text fill="#000000" font-family="FG Virgil" font-size="14" font-style="italic" lengthAdjust="spacing" textLength="84" x="609" y="805.4004">&#171;application&#187;</text><text fill="#000000" font-family="FG Virgil" font-size="14" lengthAdjust="spacing" textLength="175" x="563.5" y="821.041">CourseManagementService</text><rect fill="#E3E3E3" height="45.2813" rx="2.5" ry="2.5" style="stroke:#181818;stroke-width:0.5;" width="210" x="755.5" y="36"/><text fill="#000000" font-family="FG Virgil" font-size="14" font-style="italic" lengthAdjust="spacing" textLength="84" x="818.5" y="55.6738">&#171;application&#187;</text><text fill="#000000" font-family="FG Virgil" font-size="14" lengthAdjust="spacing" textLength="196" x="762.5" y="71.3145">EnrollmentManagementService</text><rect fill="#E3E3E3" height="45.2813" rx="2.5" ry="2.5" style="stroke:#181818;stroke-width:0.5;" width="210" x="755.5" y="785.7266"/><text fill="#000000" font-family="FG Virgil" font-size="14" font-style="italic" lengthAdjust="spacing" textLength="84" x="818.5" y="805.4004">&#171;application&#187;</text><text fill="#000000" font-family="FG Virgil" font-size="14" lengthAdjust="spacing" textLength="196" x="762.5" y="821.041">EnrollmentManagementService</text><rect fill="#E3E3E3" height="45.2813" rx="2.5" ry="2.5" style="stroke:#181818;stroke-width:0.5;" width="151" x="1065" y="36"/><text fill="#000000" font-family="FG Virgil" font-size="14" font-style="italic" lengthAdjust="spacing" textLength="62" x="1109.5" y="55.6738">&#171;domain&#187;</text><text fill="#000000" font-family="FG Virgil" font-size="14" lengthAdjust="spacing" textLength="137" x="1072" y="71.3145">enrollment:Enrollment</text><rect fill="#E3E3E3" height="45.2813" rx="2.5" ry="2.5" style="stroke:#181818;stroke-width:0.5;" width="151" x="1065" y="785.7266"/><text fill="#000000" font-family="FG Virgil" font-size="14" font-style="italic" lengthAdjust="spacing" textLength="62" x="1109.5" y="805.4004">&#171;domain&#187;</text><text fill="#000000" font-family="FG Virgil" font-size="14" lengthAdjust="spacing" textLength="137" x="1072" y="821.041">enrollment:Enrollment</text><rect fill="#E3E3E3" height="45.2813" rx="2.5" ry="2.5" style="stroke:#181818;stroke-width:0.5;" width="136" x="1226" y="36"/><text fill="#000000" font-family="FG Virgil" font-size="14" font-style="italic" lengthAdjust="spacing" textLength="89" x="1249.5" y="55.6738">&#171;persistence&#187;</text><text fill="#000000" font-family="FG Virgil" font-size="14" lengthAdjust="spacing" textLength="122" x="1233" y="71.3145">PersistenceContext</text><rect fill="#E3E3E3" height="45.2813" rx="2.5" ry="2.5" style="stroke:#181818;stroke-width:0.5;" width="136" x="1226" y="785.7266"/><text fill="#000000" font-family="FG Virgil" font-size="14" font-style="italic" lengthAdjust="spacing" textLength="89" x="1249.5" y="805.4004">&#171;persistence&#187;</text><text fill="#000000" font-family="FG Virgil" font-size="14" lengthAdjust="spacing" textLength="122" x="1233" y="821.041">PersistenceContext</text><rect fill="#E3E3E3" height="45.2813" rx="2.5" ry="2.5" style="stroke:#181818;stroke-width:0.5;" width="130" x="1372" y="36"/><text fill="#000000" font-family="FG Virgil" font-size="14" font-style="italic" lengthAdjust="spacing" textLength="59" x="1407.5" y="55.6738">&#171;factory&#187;</text><text fill="#000000" font-family="FG Virgil" font-size="14" lengthAdjust="spacing" textLength="116" x="1379" y="71.3145">RepositoryFactory</text><rect fill="#E3E3E3" height="45.2813" rx="2.5" ry="2.5" style="stroke:#181818;stroke-width:0.5;" width="130" x="1372" y="785.7266"/><text fill="#000000" font-family="FG Virgil" font-size="14" font-style="italic" lengthAdjust="spacing" textLength="59" x="1407.5" y="805.4004">&#171;factory&#187;</text><text fill="#000000" font-family="FG Virgil" font-size="14" lengthAdjust="spacing" textLength="116" x="1379" y="821.041">RepositoryFactory</text><text fill="#000000" font-family="FG Virgil" font-size="14" font-style="italic" lengthAdjust="spacing" textLength="79" x="1540" y="63.6738">&#171;repository&#187;</text><text fill="#000000" font-family="FG Virgil" font-size="14" lengthAdjust="spacing" textLength="135" x="1512" y="79.3145">EnrollmentRepository</text><path d="M1564.5,15 C1564.5,5 1582.5,5 1582.5,5 C1582.5,5 1600.5,5 1600.5,15 L1600.5,41 C1600.5,51 1582.5,51 1582.5,51 C1582.5,51 1564.5,51 1564.5,41 L1564.5,15 " fill="#E3E3E3" style="stroke:#181818;stroke-width:1.5;"/><path d="M1564.5,15 C1564.5,25 1582.5,25 1582.5,25 C1582.5,25 1600.5,25 1600.5,15 " fill="none" style="stroke:#181818;stroke-width:1.5;"/><text fill="#000000" font-family="FG Virgil" font-size="14" font-style="italic" lengthAdjust="spacing" textLength="79" x="1540" y="798.4004">&#171;repository&#187;</text><text fill="#000000" font-family="FG Virgil" font-size="14" lengthAdjust="spacing" textLength="135" x="1512" y="814.041">EnrollmentRepository</text><path d="M1564.5,827.0078 C1564.5,817.0078 1582.5,817.0078 1582.5,817.0078 C1582.5,817.0078 1600.5,817.0078 1600.5,827.0078 L1600.5,853.0078 C1600.5,863.0078 1582.5,863.0078 1582.5,863.0078 C1582.5,863.0078 1564.5,863.0078 1564.5,853.0078 L1564.5,827.0078 " fill="#E3E3E3" style="stroke:#181818;stroke-width:1.5;"/><path d="M1564.5,827.0078 C1564.5,837.0078 1582.5,837.0078 1582.5,837.0078 C1582.5,837.0078 1600.5,837.0078 1600.5,827.0078 " fill="none" style="stroke:#181818;stroke-width:1.5;"/><rect fill="#FFFFFF" height="664.9219" style="stroke:#181818;stroke-width:1.0;" width="10" x="262.5" y="112.8047"/><rect fill="#FFFFFF" height="598.875" style="stroke:#181818;stroke-width:1.0;" width="10" x="443.5" y="141.3281"/><rect fill="#FFFFFF" height="99.9766" style="stroke:#181818;stroke-width:1.0;" width="10" x="646" y="169.8516"/><rect fill="#FFFFFF" height="299.2344" style="stroke:#181818;stroke-width:1.0;" width="10" x="855.5" y="412.4453"/><rect fill="#FFFFFF" height="28.5234" style="stroke:#181818;stroke-width:1.0;" width="10" x="1135.5" y="440.9688"/><rect fill="#FFFFFF" height="57.0469" style="stroke:#181818;stroke-width:1.0;" width="10" x="1289" y="498.0156"/><rect fill="#FFFFFF" height="57.0469" style="stroke:#181818;stroke-width:1.0;" width="10" x="1432" y="583.5859"/><rect fill="#FFFFFF" height="14" style="stroke:#181818;stroke-width:1.0;" width="10" x="1577.5" y="669.1563"/><polygon fill="#181818" points="250.5,108.8047,260.5,112.8047,250.5,116.8047,254.5,112.8047" style="stroke:#181818;stroke-width:1.0;"/><line style="stroke:#181818;stroke-width:1.0;" x1="32.5" x2="256.5" y1="112.8047" y2="112.8047"/><text fill="#000000" font-family="FG Virgil" font-size="13" lengthAdjust="spacing" textLength="184" x="39.5" y="108.0498">Request Enrollment in a Course</text><polygon fill="#181818" points="431.5,137.3281,441.5,141.3281,431.5,145.3281,435.5,141.3281" style="stroke:#181818;stroke-width:1.0;"/><line style="stroke:#181818;stroke-width:1.0;" x1="272.5" x2="437.5" y1="141.3281" y2="141.3281"/><text fill="#000000" font-family="FG Virgil" font-size="13" lengthAdjust="spacing" textLength="44" x="279.5" y="136.5732">create()</text><polygon fill="#181818" points="634,165.8516,644,169.8516,634,173.8516,638,169.8516" style="stroke:#181818;stroke-width:1.0;"/><line style="stroke:#181818;stroke-width:1.0;" x1="453.5" x2="640" y1="169.8516" y2="169.8516"/><text fill="#000000" font-family="FG Virgil" font-size="13" lengthAdjust="spacing" textLength="87" x="460.5" y="165.0967">enrollCourses()</text><rect fill="none" height="37.9297" style="stroke:#000000;stroke-width:1.5;" width="195" x="553.5" y="177.8516"/><path d="M553.5,177.8516 L615.5,177.8516 L615.5,183.8516 L605.5,193.8516 L553.5,193.8516 L553.5,177.8516 " fill="#EEEEEE" style="stroke:#000000;stroke-width:2.0;"/><text fill="#000000" font-family="FG Virgil" font-size="13" font-weight="bold" lengthAdjust="spacing" textLength="17" x="566.5" y="191.6201">ref</text><text fill="#000000" font-family="FG Virgil" font-size="12" lengthAdjust="spacing" textLength="162" x="570" y="208.7148">SD_ListCoursesInEnrollState</text><polygon fill="#181818" points="464.5,237.3047,454.5,241.3047,464.5,245.3047,460.5,241.3047" style="stroke:#181818;stroke-width:1.0;"/><line style="stroke:#181818;stroke-width:1.0;stroke-dasharray:2.0,2.0;" x1="458.5" x2="645" y1="241.3047" y2="241.3047"/><text fill="#000000" font-family="FG Virgil" font-size="13" lengthAdjust="spacing" textLength="46" x="470.5" y="236.5498">courses</text><polygon fill="#181818" points="283.5,265.8281,273.5,269.8281,283.5,273.8281,279.5,269.8281" style="stroke:#181818;stroke-width:1.0;"/><line style="stroke:#181818;stroke-width:1.0;stroke-dasharray:2.0,2.0;" x1="277.5" x2="442.5" y1="269.8281" y2="269.8281"/><text fill="#000000" font-family="FG Virgil" font-size="13" lengthAdjust="spacing" textLength="46" x="289.5" y="265.0732">courses</text><polygon fill="#181818" points="43.5,294.3516,33.5,298.3516,43.5,302.3516,39.5,298.3516" style="stroke:#181818;stroke-width:1.0;"/><line style="stroke:#181818;stroke-width:1.0;stroke-dasharray:2.0,2.0;" x1="37.5" x2="261.5" y1="298.3516" y2="298.3516"/><text fill="#000000" font-family="FG Virgil" font-size="13" lengthAdjust="spacing" textLength="206" x="49.5" y="293.5967">Shows list of courses in state enroll</text><polygon fill="#181818" points="43.5,322.875,33.5,326.875,43.5,330.875,39.5,326.875" style="stroke:#181818;stroke-width:1.0;"/><line style="stroke:#181818;stroke-width:1.0;stroke-dasharray:2.0,2.0;" x1="37.5" x2="261.5" y1="326.875" y2="326.875"/><text fill="#000000" font-family="FG Virgil" font-size="13" lengthAdjust="spacing" textLength="159" x="49.5" y="322.1201">Asks to choose one course</text><polygon fill="#181818" points="250.5,351.3984,260.5,355.3984,250.5,359.3984,254.5,355.3984" style="stroke:#181818;stroke-width:1.0;"/><line style="stroke:#181818;stroke-width:1.0;" x1="32.5" x2="256.5" y1="355.3984" y2="355.3984"/><text fill="#000000" font-family="FG Virgil" font-size="13" lengthAdjust="spacing" textLength="98" x="39.5" y="350.6436">Selects a course</text><polygon fill="#181818" points="431.5,379.9219,441.5,383.9219,431.5,387.9219,435.5,383.9219" style="stroke:#181818;stroke-width:1.0;"/><line style="stroke:#181818;stroke-width:1.0;" x1="272.5" x2="437.5" y1="383.9219" y2="383.9219"/><text fill="#000000" font-family="FG Virgil" font-size="13" lengthAdjust="spacing" textLength="116" x="279.5" y="379.167">addNewEnrollment()</text><polygon fill="#181818" points="843.5,408.4453,853.5,412.4453,843.5,416.4453,847.5,412.4453" style="stroke:#181818;stroke-width:1.0;"/><line style="stroke:#181818;stroke-width:1.0;" x1="453.5" x2="849.5" y1="412.4453" y2="412.4453"/><text fill="#000000" font-family="FG Virgil" font-size="13" lengthAdjust="spacing" textLength="345" x="460.5" y="407.6904">registerNewEnrollment(student, course, status, modifiedOn)</text><polygon fill="#181818" points="1123.5,436.9688,1133.5,440.9688,1123.5,444.9688,1127.5,440.9688" style="stroke:#181818;stroke-width:1.0;"/><line style="stroke:#181818;stroke-width:1.0;" x1="865.5" x2="1129.5" y1="440.9688" y2="440.9688"/><text fill="#000000" font-family="FG Virgil" font-size="13" lengthAdjust="spacing" textLength="251" x="872.5" y="436.2139">create(student, course, status, modifiedOn)</text><polygon fill="#181818" points="876.5,465.4922,866.5,469.4922,876.5,473.4922,872.5,469.4922" style="stroke:#181818;stroke-width:1.0;"/><line style="stroke:#181818;stroke-width:1.0;stroke-dasharray:2.0,2.0;" x1="870.5" x2="1139.5" y1="469.4922" y2="469.4922"/><text fill="#000000" font-family="FG Virgil" font-size="13" lengthAdjust="spacing" textLength="60" x="882.5" y="464.7373">enrollment</text><polygon fill="#181818" points="1277,494.0156,1287,498.0156,1277,502.0156,1281,498.0156" style="stroke:#181818;stroke-width:1.0;"/><line style="stroke:#181818;stroke-width:1.0;" x1="865.5" x2="1283" y1="498.0156" y2="498.0156"/><text fill="#000000" font-family="FG Virgil" font-size="13" lengthAdjust="spacing" textLength="75" x="872.5" y="493.2607">repositories()</text><polygon fill="#181818" points="1425,522.5391,1435,526.5391,1425,530.5391,1429,526.5391" style="stroke:#181818;stroke-width:1.0;"/><line style="stroke:#181818;stroke-width:1.0;" x1="1299" x2="1431" y1="526.5391" y2="526.5391"/><text fill="#000000" font-family="FG Virgil" font-size="13" lengthAdjust="spacing" textLength="44" x="1306" y="521.7842">create()</text><polygon fill="#181818" points="876.5,551.0625,866.5,555.0625,876.5,559.0625,872.5,555.0625" style="stroke:#181818;stroke-width:1.0;"/><line style="stroke:#181818;stroke-width:1.0;" x1="870.5" x2="1293" y1="555.0625" y2="555.0625"/><text fill="#000000" font-family="FG Virgil" font-size="13" lengthAdjust="spacing" textLength="39" x="882.5" y="550.3076">factory</text><polygon fill="#181818" points="1420,579.5859,1430,583.5859,1420,587.5859,1424,583.5859" style="stroke:#181818;stroke-width:1.0;"/><line style="stroke:#181818;stroke-width:1.0;" x1="865.5" x2="1426" y1="583.5859" y2="583.5859"/><text fill="#000000" font-family="FG Virgil" font-size="13" lengthAdjust="spacing" textLength="75" x="872.5" y="578.8311">enrollments()</text><polygon fill="#181818" points="1570.5,608.1094,1580.5,612.1094,1570.5,616.1094,1574.5,612.1094" style="stroke:#181818;stroke-width:1.0;"/><line style="stroke:#181818;stroke-width:1.0;" x1="1442" x2="1576.5" y1="612.1094" y2="612.1094"/><text fill="#000000" font-family="FG Virgil" font-size="13" lengthAdjust="spacing" textLength="44" x="1449" y="607.3545">create()</text><polygon fill="#181818" points="876.5,636.6328,866.5,640.6328,876.5,644.6328,872.5,640.6328" style="stroke:#181818;stroke-width:1.0;"/><line style="stroke:#181818;stroke-width:1.0;stroke-dasharray:2.0,2.0;" x1="870.5" x2="1436" y1="640.6328" y2="640.6328"/><text fill="#000000" font-family="FG Virgil" font-size="13" lengthAdjust="spacing" textLength="124" x="882.5" y="635.8779">EnrollmentRepository</text><polygon fill="#181818" points="1565.5,665.1563,1575.5,669.1563,1565.5,673.1563,1569.5,669.1563" style="stroke:#181818;stroke-width:1.0;"/><line style="stroke:#181818;stroke-width:1.0;" x1="865.5" x2="1571.5" y1="669.1563" y2="669.1563"/><text fill="#000000" font-family="FG Virgil" font-size="13" lengthAdjust="spacing" textLength="94" x="872.5" y="664.4014">save(enrollment)</text><polygon fill="#181818" points="876.5,679.1563,866.5,683.1563,876.5,687.1563,872.5,683.1563" style="stroke:#181818;stroke-width:1.0;"/><line style="stroke:#181818;stroke-width:1.0;stroke-dasharray:2.0,2.0;" x1="870.5" x2="1581.5" y1="683.1563" y2="683.1563"/><polygon fill="#181818" points="464.5,707.6797,454.5,711.6797,464.5,715.6797,460.5,711.6797" style="stroke:#181818;stroke-width:1.0;"/><line style="stroke:#181818;stroke-width:1.0;stroke-dasharray:2.0,2.0;" x1="458.5" x2="859.5" y1="711.6797" y2="711.6797"/><text fill="#000000" font-family="FG Virgil" font-size="13" lengthAdjust="spacing" textLength="60" x="470.5" y="706.9248">enrollment</text><polygon fill="#181818" points="283.5,736.2031,273.5,740.2031,283.5,744.2031,279.5,740.2031" style="stroke:#181818;stroke-width:1.0;"/><line style="stroke:#181818;stroke-width:1.0;stroke-dasharray:2.0,2.0;" x1="277.5" x2="447.5" y1="740.2031" y2="740.2031"/><text fill="#000000" font-family="FG Virgil" font-size="13" lengthAdjust="spacing" textLength="60" x="289.5" y="735.4482">enrollment</text><polygon fill="#181818" points="43.5,764.7266,33.5,768.7266,43.5,772.7266,39.5,768.7266" style="stroke:#181818;stroke-width:1.0;"/><line style="stroke:#181818;stroke-width:1.0;stroke-dasharray:2.0,2.0;" x1="37.5" x2="261.5" y1="768.7266" y2="768.7266"/><text fill="#000000" font-family="FG Virgil" font-size="13" lengthAdjust="spacing" textLength="120" x="49.5" y="763.9717">Confirms the request</text><!--SRC=[dLR1Rjim3BthAuHUrW5jSpUC04Mt30MsRfYnNGVLecCXjkH9ShBy_IZRYQHOTOPT0bia7_d89phlQckxRBNg6YPjtpOFfMfNPYTanpHh7shRDkJyIcic-K4BQq7IYZK60bkhf2fhhLgWLlUXfMFbZcsXiCS6g8RI1ZOE5UiRkr7IlZ0CtNoYFuNUYZ2hgHbN1o6tKqx2IgiqBMpFGLhA37rq1mIzhIX5XqpeT_ZTWx4VfLPDqwBRZsVdYBzvtcamUCAiK7AzNWvxmiBSCsWN7hpbEUkwHfGfb2VLQmDVc4JM3gG0lHSbZ0XfqnAShoO9kMHUWhs1Ss3cCMvYI4JWgcNYClWRQ2CCwg04rnJuCymXSOhjzeUpRdVA21pTSJECzEWmniFWBC-hyGcZERFibHa8AlGWSUN1UPxhymk2a44kz7wDSiXE8myv2qdPD2cdDR5d5j2Ne7emo8iWewK6jDs-zsxUIWAr3679oMTq7CDeDZ5KCe9egAZQ8-fR3fGM7tvznfvFeCzo95UWve60v7WBAqB8MsAylsGvmaI4fkwTJ1okbkswXr53ypDQrEfWQ8D5KbMTO5pdZIjoQaeKGpFwQ7Q6MaNBMYaKWP8mHSOZBQ31BMDmY9CrCJd6-GiS_D2nyV6y5gvLXltREadh6CAC6-bkIditSEdD7Uv6BYe1_AiCnhkGW2pTwQYsimJ_DtUGQcZr8cs_CSA19y6ITS_tWslbT3L5hFwvBqci5mIzN1Z1hKm7B5ASTat8Br795Pxpadpd8fANZcIs_Q9w_KuBICv3hd5C0OQ4PrNzknx32WtRmwqddfHVK41oTL_XafPX4lJwchkcxddsn49CWmHVXNWDeg4IkiMjLhl_HiEdw2y0]--></g></svg>