<?xml version="1.0" encoding="us-ascii" standalone="no"?><svg xmlns="http://www.w3.org/2000/svg" xmlns:xlink="http://www.w3.org/1999/xlink" contentStyleType="text/css" height="738px" preserveAspectRatio="none" style="width:1088px;height:738px;background:#FFFFFF;" version="1.1" viewBox="0 0 1088 738" width="1088px" zoomAndPan="magnify"><defs/><g><!--cluster presentation--><g id="cluster_presentation"><path d="M356.5,6 L447.5,6 A3.75,3.75 0 0 1 450,8.5 L457,27.6406 L685.5,27.6406 A2.5,2.5 0 0 1 688,30.1406 L688,139.5 A2.5,2.5 0 0 1 685.5,142 L356.5,142 A2.5,2.5 0 0 1 354,139.5 L354,8.5 A2.5,2.5 0 0 1 356.5,6 " fill="#DDDDDD" style="stroke:#000000;stroke-width:1.5;"/><line style="stroke:#000000;stroke-width:1.5;" x1="354" x2="457" y1="27.6406" y2="27.6406"/><text fill="#000000" font-family="sans-serif" font-size="14" font-weight="bold" lengthAdjust="spacing" textLength="90" x="358" y="20.6738">presentation</text></g><!--cluster domain--><g id="cluster_domain"><path d="M549.5,519 L601.5,519 A3.75,3.75 0 0 1 604,521.5 L611,540.6406 L1078.5,540.6406 A2.5,2.5 0 0 1 1081,543.1406 L1081,728.5 A2.5,2.5 0 0 1 1078.5,731 L549.5,731 A2.5,2.5 0 0 1 547,728.5 L547,521.5 A2.5,2.5 0 0 1 549.5,519 " fill="#DBD8AE" style="stroke:#000000;stroke-width:1.5;"/><line style="stroke:#000000;stroke-width:1.5;" x1="547" x2="611" y1="540.6406" y2="540.6406"/><text fill="#000000" font-family="sans-serif" font-size="14" font-weight="bold" lengthAdjust="spacing" textLength="51" x="551" y="533.6738">domain</text></g><!--cluster persistence--><g id="cluster_persistence"><path d="M114.5,557 L199.5,557 A3.75,3.75 0 0 1 202,559.5 L209,578.6406 L520.5,578.6406 A2.5,2.5 0 0 1 523,581.1406 L523,690.5 A2.5,2.5 0 0 1 520.5,693 L114.5,693 A2.5,2.5 0 0 1 112,690.5 L112,559.5 A2.5,2.5 0 0 1 114.5,557 " fill="#DBD8AE" style="stroke:#000000;stroke-width:1.5;"/><line style="stroke:#000000;stroke-width:1.5;" x1="112" x2="209" y1="578.6406" y2="578.6406"/><text fill="#000000" font-family="sans-serif" font-size="14" font-weight="bold" lengthAdjust="spacing" textLength="84" x="116" y="571.6738">persistence</text></g><!--cluster application--><g id="cluster_application"><path d="M8.5,166 L86.5,166 A3.75,3.75 0 0 1 89,168.5 L96,187.6406 L735.5,187.6406 A2.5,2.5 0 0 1 738,190.1406 L738,492.5 A2.5,2.5 0 0 1 735.5,495 L8.5,495 A2.5,2.5 0 0 1 6,492.5 L6,168.5 A2.5,2.5 0 0 1 8.5,166 " fill="#EAF4D3" style="stroke:#000000;stroke-width:1.5;"/><line style="stroke:#000000;stroke-width:1.5;" x1="6" x2="96" y1="187.6406" y2="187.6406"/><text fill="#000000" font-family="sans-serif" font-size="14" font-weight="bold" lengthAdjust="spacing" textLength="77" x="10" y="180.6738">application</text></g><!--class RequestEnrollmentUI--><g id="elem_RequestEnrollmentUI"><rect codeLine="4" fill="#F1F1F1" height="86.3281" id="RequestEnrollmentUI" rx="2.5" ry="2.5" style="stroke:#181818;stroke-width:0.5;" width="302" x="370" y="40"/><ellipse cx="450.75" cy="59.5234" fill="#ADD1B2" rx="11" ry="11" style="stroke:#181818;stroke-width:1.0;"/><path d="M453.5156,55.3984 Q453.6719,55.1797 453.8594,55.0703 Q454.0469,54.9609 454.2656,54.9609 Q454.6406,54.9609 454.875,55.2266 Q455.1094,55.4766 455.1094,56.0859 L455.1094,57.5391 Q455.1094,58.1484 454.875,58.4141 Q454.6406,58.6797 454.2656,58.6797 Q453.9219,58.6797 453.7188,58.4766 Q453.5156,58.2891 453.4063,57.7734 Q453.3594,57.4141 453.1719,57.2266 Q452.8438,56.8516 452.2344,56.6328 Q451.625,56.4141 451,56.4141 Q450.2344,56.4141 449.5938,56.7422 Q448.9688,57.0703 448.4688,57.8203 Q447.9844,58.5703 447.9844,59.6016 L447.9844,60.6953 Q447.9844,61.9297 448.875,62.7578 Q449.7656,63.5703 451.3594,63.5703 Q452.2969,63.5703 452.9531,63.3203 Q453.3438,63.1641 453.7656,62.7266 Q454.0313,62.4609 454.1719,62.3828 Q454.3281,62.3047 454.5313,62.3047 Q454.8594,62.3047 455.1094,62.5703 Q455.375,62.8203 455.375,63.1641 Q455.375,63.5078 455.0313,63.9141 Q454.5313,64.4922 453.7344,64.8203 Q452.6563,65.2734 451.3594,65.2734 Q449.8438,65.2734 448.6406,64.6484 Q447.6563,64.1484 446.9688,63.0859 Q446.2813,62.0078 446.2813,60.7266 L446.2813,59.5703 Q446.2813,58.2422 446.8906,57.1016 Q447.5156,55.9453 448.6094,55.3359 Q449.7031,54.7109 450.9375,54.7109 Q451.6719,54.7109 452.3125,54.8828 Q452.9688,55.0391 453.5156,55.3984 Z " fill="#000000"/><text fill="#000000" font-family="sans-serif" font-size="12" font-style="italic" lengthAdjust="spacing" textLength="24" x="525.25" y="55.8633">&#171;ui&#187;</text><text fill="#000000" font-family="sans-serif" font-size="14" lengthAdjust="spacing" textLength="132" x="471.25" y="71.0801">RequestEnrollmentUI</text><line style="stroke:#181818;stroke-width:0.5;" x1="371" x2="671" y1="79.0469" y2="79.0469"/><rect fill="none" height="6" style="stroke:#C82930;stroke-width:1.0;" width="6" x="378" y="89.3672"/><text fill="#000000" font-family="sans-serif" font-size="14" lengthAdjust="spacing" textLength="276" x="390" y="95.7207">theController : RequestEnrollmentController</text><line style="stroke:#181818;stroke-width:0.5;" x1="371" x2="671" y1="102.6875" y2="102.6875"/><ellipse cx="381" cy="116.0078" fill="#84BE84" rx="3" ry="3" style="stroke:#038048;stroke-width:1.0;"/><text fill="#000000" font-family="sans-serif" font-size="14" lengthAdjust="spacing" textLength="60" x="390" y="119.3613">doShow()</text></g><!--class Enrollment--><g id="elem_Enrollment"><rect codeLine="11" fill="#F1F1F1" height="162.2969" id="Enrollment" rx="2.5" ry="2.5" style="stroke:#181818;stroke-width:0.5;" width="327" x="563.5" y="553"/><ellipse cx="677.75" cy="579.2266" fill="#ADD1B2" rx="11" ry="11" style="stroke:#181818;stroke-width:1.0;"/><path d="M680.5156,575.1016 Q680.6719,574.8828 680.8594,574.7734 Q681.0469,574.6641 681.2656,574.6641 Q681.6406,574.6641 681.875,574.9297 Q682.1094,575.1797 682.1094,575.7891 L682.1094,577.2422 Q682.1094,577.8516 681.875,578.1172 Q681.6406,578.3828 681.2656,578.3828 Q680.9219,578.3828 680.7188,578.1797 Q680.5156,577.9922 680.4063,577.4766 Q680.3594,577.1172 680.1719,576.9297 Q679.8438,576.5547 679.2344,576.3359 Q678.625,576.1172 678,576.1172 Q677.2344,576.1172 676.5938,576.4453 Q675.9688,576.7734 675.4688,577.5234 Q674.9844,578.2734 674.9844,579.3047 L674.9844,580.3984 Q674.9844,581.6328 675.875,582.4609 Q676.7656,583.2734 678.3594,583.2734 Q679.2969,583.2734 679.9531,583.0234 Q680.3438,582.8672 680.7656,582.4297 Q681.0313,582.1641 681.1719,582.0859 Q681.3281,582.0078 681.5313,582.0078 Q681.8594,582.0078 682.1094,582.2734 Q682.375,582.5234 682.375,582.8672 Q682.375,583.2109 682.0313,583.6172 Q681.5313,584.1953 680.7344,584.5234 Q679.6563,584.9766 678.3594,584.9766 Q676.8438,584.9766 675.6406,584.3516 Q674.6563,583.8516 673.9688,582.7891 Q673.2813,581.7109 673.2813,580.4297 L673.2813,579.2734 Q673.2813,577.9453 673.8906,576.8047 Q674.5156,575.6484 675.6094,575.0391 Q676.7031,574.4141 677.9375,574.4141 Q678.6719,574.4141 679.3125,574.5859 Q679.9688,574.7422 680.5156,575.1016 Z " fill="#000000"/><text fill="#000000" font-family="sans-serif" font-size="12" font-style="italic" lengthAdjust="spacing" textLength="94" x="696.25" y="568.8633">&#171;aggregate root&#187;</text><text fill="#000000" font-family="sans-serif" font-size="12" font-style="italic" lengthAdjust="spacing" textLength="43" x="721.75" y="582.2695">&#171;entity&#187;</text><text fill="#000000" font-family="sans-serif" font-size="14" lengthAdjust="spacing" textLength="67" x="709.75" y="597.4863">Enrollment</text><line style="stroke:#181818;stroke-width:0.5;" x1="564.5" x2="889.5" y1="605.4531" y2="605.4531"/><rect fill="none" height="6" style="stroke:#C82930;stroke-width:1.0;" width="6" x="571.5" y="615.7734"/><text fill="#000000" font-family="sans-serif" font-size="14" lengthAdjust="spacing" textLength="108" x="583.5" y="622.127">student : Student</text><rect fill="none" height="6" style="stroke:#C82930;stroke-width:1.0;" width="6" x="571.5" y="631.4141"/><text fill="#000000" font-family="sans-serif" font-size="14" lengthAdjust="spacing" textLength="101" x="583.5" y="637.7676">course : Course</text><rect fill="none" height="6" style="stroke:#C82930;stroke-width:1.0;" width="6" x="571.5" y="647.0547"/><text fill="#000000" font-family="sans-serif" font-size="14" lengthAdjust="spacing" textLength="225" x="583.5" y="653.4082">enrollmentStatus : EnrollmentStatus</text><rect fill="none" height="6" style="stroke:#C82930;stroke-width:1.0;" width="6" x="571.5" y="662.6953"/><text fill="#000000" font-family="sans-serif" font-size="14" lengthAdjust="spacing" textLength="142" x="583.5" y="669.0488">modifiedOn : Calendar</text><rect fill="none" height="6" style="stroke:#C82930;stroke-width:1.0;" width="6" x="571.5" y="678.3359"/><text fill="#000000" font-family="sans-serif" font-size="14" lengthAdjust="spacing" textLength="225" x="583.5" y="684.6895">enrollmentToken : EnrollmentToken</text><line style="stroke:#181818;stroke-width:0.5;" x1="564.5" x2="889.5" y1="691.6563" y2="691.6563"/><ellipse cx="574.5" cy="704.9766" fill="#84BE84" rx="3" ry="3" style="stroke:#038048;stroke-width:1.0;"/><text fill="#000000" font-family="sans-serif" font-size="14" lengthAdjust="spacing" textLength="301" x="583.5" y="708.3301">Enrollment(student, course, status, modifiedOn)</text></g><!--class EnrollmentStatus--><g id="elem_EnrollmentStatus"><rect codeLine="20" fill="#F1F1F1" height="94.9219" id="EnrollmentStatus" rx="2.5" ry="2.5" style="stroke:#181818;stroke-width:0.5;" width="139" x="925.5" y="586.5"/><ellipse cx="940.5" cy="602.5" fill="#EB937F" rx="11" ry="11" style="stroke:#181818;stroke-width:1.0;"/><path d="M939.3594,603.2969 L939.3594,605.7969 L943.6875,605.7969 L943.6875,604.875 Q943.6875,604.2656 943.9219,604 Q944.1719,603.7344 944.5469,603.7344 Q944.9219,603.7344 945.1563,604 Q945.3906,604.2656 945.3906,604.875 L945.3906,607.5 L937.3906,607.5 Q936.7656,607.5 936.5,607.2656 Q936.25,607.0313 936.25,606.6406 Q936.25,606.2656 936.5156,606.0313 Q936.7813,605.7969 937.3906,605.7969 L937.6563,605.7969 L937.6563,599.1406 L937.3906,599.1406 Q936.7656,599.1406 936.5,598.9063 Q936.25,598.6719 936.25,598.2813 Q936.25,597.9063 936.5,597.6719 Q936.7656,597.4375 937.3906,597.4375 L945.0156,597.4375 L945.0156,600.0313 Q945.0156,600.6406 944.7813,600.9063 Q944.5625,601.1563 944.1719,601.1563 Q943.7969,601.1563 943.5625,600.9063 Q943.3281,600.6406 943.3281,600.0313 L943.3281,599.1406 L939.3594,599.1406 L939.3594,601.5938 L940.8438,601.5938 Q940.8438,600.9375 940.9688,600.75 Q941.2344,600.3438 941.7031,600.3438 Q942.0781,600.3438 942.3125,600.6094 Q942.5469,600.8594 942.5469,601.4688 L942.5469,603.4375 Q942.5469,603.9844 942.4219,604.1719 Q942.1563,604.5625 941.7031,604.5625 Q941.2344,604.5625 940.9688,604.1563 Q940.8438,603.9688 940.8438,603.2969 L939.3594,603.2969 Z " fill="#000000"/><text fill="#000000" font-family="sans-serif" font-size="14" lengthAdjust="spacing" textLength="107" x="954.5" y="607.3535">EnrollmentStatus</text><line style="stroke:#181818;stroke-width:0.5;" x1="926.5" x2="1063.5" y1="618.5" y2="618.5"/><text fill="#000000" font-family="sans-serif" font-size="14" lengthAdjust="spacing" textLength="85" x="931.5" y="635.1738">REQUESTED</text><text fill="#000000" font-family="sans-serif" font-size="14" lengthAdjust="spacing" textLength="75" x="931.5" y="650.8145">ACCEPTED</text><text fill="#000000" font-family="sans-serif" font-size="14" lengthAdjust="spacing" textLength="72" x="931.5" y="666.4551">REJECTED</text><line style="stroke:#181818;stroke-width:0.5;" x1="926.5" x2="1063.5" y1="673.4219" y2="673.4219"/></g><!--class CourseRepository--><g id="elem_CourseRepository"><rect codeLine="30" fill="#F1F1F1" height="70.6875" id="CourseRepository" rx="2.5" ry="2.5" style="stroke:#181818;stroke-width:0.5;" width="146" x="128" y="598.5"/><ellipse cx="143" cy="618.0234" fill="#B4A7E5" rx="11" ry="11" style="stroke:#181818;stroke-width:1.0;"/><path d="M143.9531,614.6641 L143.9531,621.3203 L145.6719,621.3203 Q146.2813,621.3203 146.5469,621.5547 Q146.8125,621.7891 146.8125,622.1797 Q146.8125,622.5547 146.5469,622.7891 Q146.2813,623.0234 145.6719,623.0234 L140.5313,623.0234 Q139.9219,623.0234 139.6563,622.7891 Q139.3906,622.5547 139.3906,622.1641 Q139.3906,621.7891 139.6563,621.5547 Q139.9219,621.3203 140.5313,621.3203 L142.25,621.3203 L142.25,614.6641 L140.5313,614.6641 Q139.9219,614.6641 139.6563,614.4297 Q139.3906,614.1953 139.3906,613.8047 Q139.3906,613.4297 139.6563,613.1953 Q139.9219,612.9609 140.5313,612.9609 L145.6719,612.9609 Q146.2813,612.9609 146.5469,613.1953 Q146.8125,613.4297 146.8125,613.8047 Q146.8125,614.1953 146.5469,614.4297 Q146.2813,614.6641 145.6719,614.6641 L143.9531,614.6641 Z " fill="#000000"/><text fill="#000000" font-family="sans-serif" font-size="12" font-style="italic" lengthAdjust="spacing" textLength="68" x="180" y="614.3633">&#171;repository&#187;</text><text fill="#000000" font-family="sans-serif" font-size="14" font-style="italic" lengthAdjust="spacing" textLength="114" x="157" y="629.5801">CourseRepository</text><line style="stroke:#181818;stroke-width:0.5;" x1="129" x2="273" y1="637.5469" y2="637.5469"/><line style="stroke:#181818;stroke-width:0.5;" x1="129" x2="273" y1="645.5469" y2="645.5469"/><text fill="#000000" font-family="sans-serif" font-size="14" lengthAdjust="spacing" textLength="118" x="134" y="662.2207">findByEnrollState()</text></g><!--class EnrollmentRepository--><g id="elem_EnrollmentRepository"><rect codeLine="34" fill="#F1F1F1" height="86.3281" id="EnrollmentRepository" rx="2.5" ry="2.5" style="stroke:#181818;stroke-width:0.5;" width="197" x="309.5" y="591"/><ellipse cx="338" cy="610.5234" fill="#B4A7E5" rx="11" ry="11" style="stroke:#181818;stroke-width:1.0;"/><path d="M338.9531,607.1641 L338.9531,613.8203 L340.6719,613.8203 Q341.2813,613.8203 341.5469,614.0547 Q341.8125,614.2891 341.8125,614.6797 Q341.8125,615.0547 341.5469,615.2891 Q341.2813,615.5234 340.6719,615.5234 L335.5313,615.5234 Q334.9219,615.5234 334.6563,615.2891 Q334.3906,615.0547 334.3906,614.6641 Q334.3906,614.2891 334.6563,614.0547 Q334.9219,613.8203 335.5313,613.8203 L337.25,613.8203 L337.25,607.1641 L335.5313,607.1641 Q334.9219,607.1641 334.6563,606.9297 Q334.3906,606.6953 334.3906,606.3047 Q334.3906,605.9297 334.6563,605.6953 Q334.9219,605.4609 335.5313,605.4609 L340.6719,605.4609 Q341.2813,605.4609 341.5469,605.6953 Q341.8125,605.9297 341.8125,606.3047 Q341.8125,606.6953 341.5469,606.9297 Q341.2813,607.1641 340.6719,607.1641 L338.9531,607.1641 Z " fill="#000000"/><text fill="#000000" font-family="sans-serif" font-size="12" font-style="italic" lengthAdjust="spacing" textLength="68" x="388.5" y="606.8633">&#171;repository&#187;</text><text fill="#000000" font-family="sans-serif" font-size="14" font-style="italic" lengthAdjust="spacing" textLength="135" x="355" y="622.0801">EnrollmentRepository</text><line style="stroke:#181818;stroke-width:0.5;" x1="310.5" x2="505.5" y1="630.0469" y2="630.0469"/><line style="stroke:#181818;stroke-width:0.5;" x1="310.5" x2="505.5" y1="638.0469" y2="638.0469"/><text fill="#000000" font-family="sans-serif" font-size="14" lengthAdjust="spacing" textLength="48" x="315.5" y="654.7207">findAll()</text><text fill="#000000" font-family="sans-serif" font-size="14" lengthAdjust="spacing" textLength="185" x="315.5" y="670.3613">save(enrollment : Enrollment)</text></g><!--class RequestEnrollmentController--><g id="elem_RequestEnrollmentController"><rect codeLine="42" fill="#F1F1F1" height="133.25" id="RequestEnrollmentController" rx="2.5" ry="2.5" style="stroke:#181818;stroke-width:0.5;" width="323" x="359.5" y="200"/><ellipse cx="425.75" cy="219.5234" fill="#ADD1B2" rx="11" ry="11" style="stroke:#181818;stroke-width:1.0;"/><path d="M428.5156,215.3984 Q428.6719,215.1797 428.8594,215.0703 Q429.0469,214.9609 429.2656,214.9609 Q429.6406,214.9609 429.875,215.2266 Q430.1094,215.4766 430.1094,216.0859 L430.1094,217.5391 Q430.1094,218.1484 429.875,218.4141 Q429.6406,218.6797 429.2656,218.6797 Q428.9219,218.6797 428.7188,218.4766 Q428.5156,218.2891 428.4063,217.7734 Q428.3594,217.4141 428.1719,217.2266 Q427.8438,216.8516 427.2344,216.6328 Q426.625,216.4141 426,216.4141 Q425.2344,216.4141 424.5938,216.7422 Q423.9688,217.0703 423.4688,217.8203 Q422.9844,218.5703 422.9844,219.6016 L422.9844,220.6953 Q422.9844,221.9297 423.875,222.7578 Q424.7656,223.5703 426.3594,223.5703 Q427.2969,223.5703 427.9531,223.3203 Q428.3438,223.1641 428.7656,222.7266 Q429.0313,222.4609 429.1719,222.3828 Q429.3281,222.3047 429.5313,222.3047 Q429.8594,222.3047 430.1094,222.5703 Q430.375,222.8203 430.375,223.1641 Q430.375,223.5078 430.0313,223.9141 Q429.5313,224.4922 428.7344,224.8203 Q427.6563,225.2734 426.3594,225.2734 Q424.8438,225.2734 423.6406,224.6484 Q422.6563,224.1484 421.9688,223.0859 Q421.2813,222.0078 421.2813,220.7266 L421.2813,219.5703 Q421.2813,218.2422 421.8906,217.1016 Q422.5156,215.9453 423.6094,215.3359 Q424.7031,214.7109 425.9375,214.7109 Q426.6719,214.7109 427.3125,214.8828 Q427.9688,215.0391 428.5156,215.3984 Z " fill="#000000"/><text fill="#000000" font-family="sans-serif" font-size="12" font-style="italic" lengthAdjust="spacing" textLength="65" x="504.75" y="215.8633">&#171;controller&#187;</text><text fill="#000000" font-family="sans-serif" font-size="14" lengthAdjust="spacing" textLength="182" x="446.25" y="231.0801">RequestEnrollmentController</text><line style="stroke:#181818;stroke-width:0.5;" x1="360.5" x2="681.5" y1="239.0469" y2="239.0469"/><rect fill="none" height="6" style="stroke:#C82930;stroke-width:1.0;" width="6" x="367.5" y="249.3672"/><text fill="#000000" font-family="sans-serif" font-size="14" lengthAdjust="spacing" textLength="175" x="379.5" y="255.7207">authz : AuthorizationService</text><rect fill="none" height="6" style="stroke:#C82930;stroke-width:1.0;" width="6" x="367.5" y="265.0078"/><text fill="#000000" font-family="sans-serif" font-size="14" lengthAdjust="spacing" textLength="253" x="379.5" y="271.3613">courseSvc : CourseManagementService</text><rect fill="none" height="6" style="stroke:#C82930;stroke-width:1.0;" width="6" x="367.5" y="280.6484"/><text fill="#000000" font-family="sans-serif" font-size="14" lengthAdjust="spacing" textLength="297" x="379.5" y="287.002">enrollmentSvc : EnrollmentManagementService</text><line style="stroke:#181818;stroke-width:0.5;" x1="360.5" x2="681.5" y1="293.9688" y2="293.9688"/><ellipse cx="370.5" cy="307.2891" fill="#84BE84" rx="3" ry="3" style="stroke:#038048;stroke-width:1.0;"/><text fill="#000000" font-family="sans-serif" font-size="14" lengthAdjust="spacing" textLength="98" x="379.5" y="310.6426">enrollCourses()</text><ellipse cx="370.5" cy="322.9297" fill="#84BE84" rx="3" ry="3" style="stroke:#038048;stroke-width:1.0;"/><text fill="#000000" font-family="sans-serif" font-size="14" lengthAdjust="spacing" textLength="170" x="379.5" y="326.2832">addNewEnrollment(course)</text></g><!--class CourseManagementService--><g id="elem_CourseManagementService"><rect codeLine="50" fill="#F1F1F1" height="86.3281" id="CourseManagementService" rx="2.5" ry="2.5" style="stroke:#181818;stroke-width:0.5;" width="263" x="22.5" y="393"/><ellipse cx="62.7" cy="412.5234" fill="#ADD1B2" rx="11" ry="11" style="stroke:#181818;stroke-width:1.0;"/><path d="M65.4656,408.3984 Q65.6219,408.1797 65.8094,408.0703 Q65.9969,407.9609 66.2156,407.9609 Q66.5906,407.9609 66.825,408.2266 Q67.0594,408.4766 67.0594,409.0859 L67.0594,410.5391 Q67.0594,411.1484 66.825,411.4141 Q66.5906,411.6797 66.2156,411.6797 Q65.8719,411.6797 65.6688,411.4766 Q65.4656,411.2891 65.3563,410.7734 Q65.3094,410.4141 65.1219,410.2266 Q64.7938,409.8516 64.1844,409.6328 Q63.575,409.4141 62.95,409.4141 Q62.1844,409.4141 61.5438,409.7422 Q60.9188,410.0703 60.4188,410.8203 Q59.9344,411.5703 59.9344,412.6016 L59.9344,413.6953 Q59.9344,414.9297 60.825,415.7578 Q61.7156,416.5703 63.3094,416.5703 Q64.2469,416.5703 64.9031,416.3203 Q65.2938,416.1641 65.7156,415.7266 Q65.9813,415.4609 66.1219,415.3828 Q66.2781,415.3047 66.4813,415.3047 Q66.8094,415.3047 67.0594,415.5703 Q67.325,415.8203 67.325,416.1641 Q67.325,416.5078 66.9813,416.9141 Q66.4813,417.4922 65.6844,417.8203 Q64.6063,418.2734 63.3094,418.2734 Q61.7938,418.2734 60.5906,417.6484 Q59.6063,417.1484 58.9188,416.0859 Q58.2313,415.0078 58.2313,413.7266 L58.2313,412.5703 Q58.2313,411.2422 58.8406,410.1016 Q59.4656,408.9453 60.5594,408.3359 Q61.6531,407.7109 62.8875,407.7109 Q63.6219,407.7109 64.2625,407.8828 Q64.9188,408.0391 65.4656,408.3984 Z " fill="#000000"/><text fill="#000000" font-family="sans-serif" font-size="12" font-style="italic" lengthAdjust="spacing" textLength="53" x="143.3" y="408.8633">&#171;service&#187;</text><text fill="#000000" font-family="sans-serif" font-size="14" lengthAdjust="spacing" textLength="175" x="82.3" y="424.0801">CourseManagementService</text><line style="stroke:#181818;stroke-width:0.5;" x1="23.5" x2="284.5" y1="432.0469" y2="432.0469"/><rect fill="none" height="6" style="stroke:#C82930;stroke-width:1.0;" width="6" x="30.5" y="442.3672"/><text fill="#000000" font-family="sans-serif" font-size="14" lengthAdjust="spacing" textLength="237" x="42.5" y="448.7207">courseRepository : CourseRepository</text><line style="stroke:#181818;stroke-width:0.5;" x1="23.5" x2="284.5" y1="455.6875" y2="455.6875"/><ellipse cx="33.5" cy="469.0078" fill="#84BE84" rx="3" ry="3" style="stroke:#038048;stroke-width:1.0;"/><text fill="#000000" font-family="sans-serif" font-size="14" lengthAdjust="spacing" textLength="117" x="42.5" y="472.3613">enrollingCourses()</text></g><!--class EnrollmentManagementService--><g id="elem_EnrollmentManagementService"><rect codeLine="55" fill="#F1F1F1" height="86.3281" id="EnrollmentManagementService" rx="2.5" ry="2.5" style="stroke:#181818;stroke-width:0.5;" width="401" x="320.5" y="393"/><ellipse cx="418.75" cy="412.5234" fill="#ADD1B2" rx="11" ry="11" style="stroke:#181818;stroke-width:1.0;"/><path d="M421.5156,408.3984 Q421.6719,408.1797 421.8594,408.0703 Q422.0469,407.9609 422.2656,407.9609 Q422.6406,407.9609 422.875,408.2266 Q423.1094,408.4766 423.1094,409.0859 L423.1094,410.5391 Q423.1094,411.1484 422.875,411.4141 Q422.6406,411.6797 422.2656,411.6797 Q421.9219,411.6797 421.7188,411.4766 Q421.5156,411.2891 421.4063,410.7734 Q421.3594,410.4141 421.1719,410.2266 Q420.8438,409.8516 420.2344,409.6328 Q419.625,409.4141 419,409.4141 Q418.2344,409.4141 417.5938,409.7422 Q416.9688,410.0703 416.4688,410.8203 Q415.9844,411.5703 415.9844,412.6016 L415.9844,413.6953 Q415.9844,414.9297 416.875,415.7578 Q417.7656,416.5703 419.3594,416.5703 Q420.2969,416.5703 420.9531,416.3203 Q421.3438,416.1641 421.7656,415.7266 Q422.0313,415.4609 422.1719,415.3828 Q422.3281,415.3047 422.5313,415.3047 Q422.8594,415.3047 423.1094,415.5703 Q423.375,415.8203 423.375,416.1641 Q423.375,416.5078 423.0313,416.9141 Q422.5313,417.4922 421.7344,417.8203 Q420.6563,418.2734 419.3594,418.2734 Q417.8438,418.2734 416.6406,417.6484 Q415.6563,417.1484 414.9688,416.0859 Q414.2813,415.0078 414.2813,413.7266 L414.2813,412.5703 Q414.2813,411.2422 414.8906,410.1016 Q415.5156,408.9453 416.6094,408.3359 Q417.7031,407.7109 418.9375,407.7109 Q419.6719,407.7109 420.3125,407.8828 Q420.9688,408.0391 421.5156,408.3984 Z " fill="#000000"/><text fill="#000000" font-family="sans-serif" font-size="12" font-style="italic" lengthAdjust="spacing" textLength="53" x="510.75" y="408.8633">&#171;service&#187;</text><text fill="#000000" font-family="sans-serif" font-size="14" lengthAdjust="spacing" textLength="196" x="439.25" y="424.0801">EnrollmentManagementService</text><line style="stroke:#181818;stroke-width:0.5;" x1="321.5" x2="720.5" y1="432.0469" y2="432.0469"/><rect fill="none" height="6" style="stroke:#C82930;stroke-width:1.0;" width="6" x="328.5" y="442.3672"/><text fill="#000000" font-family="sans-serif" font-size="14" lengthAdjust="spacing" textLength="281" x="340.5" y="448.7207">enrollmentRepository : EnrollmentRepository</text><line style="stroke:#181818;stroke-width:0.5;" x1="321.5" x2="720.5" y1="455.6875" y2="455.6875"/><ellipse cx="331.5" cy="469.0078" fill="#84BE84" rx="3" ry="3" style="stroke:#038048;stroke-width:1.0;"/><text fill="#000000" font-family="sans-serif" font-size="14" lengthAdjust="spacing" textLength="375" x="340.5" y="472.3613">registerNewEnrollment(student, course, status, modifiedOn)</text></g><!--link RequestEnrollmentUI to RequestEnrollmentController--><g id="link_RequestEnrollmentUI_RequestEnrollmentController"><path codeLine="61" d="M521,126.1 C521,146.44 521,171.42 521,194.59 " fill="none" id="RequestEnrollmentUI-to-RequestEnrollmentController" style="stroke:#181818;stroke-width:1.0;stroke-dasharray:7.0,7.0;"/><polygon fill="#181818" points="521,199.81,525,190.81,521,194.81,517,190.81,521,199.81" style="stroke:#181818;stroke-width:1.0;"/></g><!--link RequestEnrollmentController to CourseManagementService--><g id="link_RequestEnrollmentController_CourseManagementService"><path codeLine="62" d="M377.27,333.1 C334.89,352.44 289.53,373.14 250.85,390.8 " fill="none" id="RequestEnrollmentController-to-CourseManagementService" style="stroke:#181818;stroke-width:1.0;stroke-dasharray:7.0,7.0;"/><polygon fill="#181818" points="246.16,392.94,256.0084,392.8456,250.7094,390.8656,252.6894,385.5666,246.16,392.94" style="stroke:#181818;stroke-width:1.0;"/></g><!--link RequestEnrollmentController to EnrollmentManagementService--><g id="link_RequestEnrollmentController_EnrollmentManagementService"><path codeLine="63" d="M521,333.22 C521,351.33 521,370.61 521,387.48 " fill="none" id="RequestEnrollmentController-to-EnrollmentManagementService" style="stroke:#181818;stroke-width:1.0;stroke-dasharray:7.0,7.0;"/><polygon fill="#181818" points="521,392.63,525,383.63,521,387.63,517,383.63,521,392.63" style="stroke:#181818;stroke-width:1.0;"/></g><!--link CourseManagementService to CourseRepository--><g id="link_CourseManagementService_CourseRepository"><path codeLine="64" d="M164.08,479.05 C172.17,512.79 183.45,559.83 191.41,593.01 " fill="none" id="CourseManagementService-to-CourseRepository" style="stroke:#181818;stroke-width:1.0;stroke-dasharray:7.0,7.0;"/><polygon fill="#181818" points="192.66,598.22,194.4654,588.538,191.5013,593.3561,186.6832,590.392,192.66,598.22" style="stroke:#181818;stroke-width:1.0;"/></g><!--link Enrollment to EnrollmentStatus--><g id="link_Enrollment_EnrollmentStatus"><path codeLine="65" d="M890.57,634 C900.42,634 910.26,634 920.1,634 " fill="none" id="Enrollment-to-EnrollmentStatus" style="stroke:#181818;stroke-width:1.0;"/><polygon fill="#181818" points="925.25,634,916.25,630,920.25,634,916.25,638,925.25,634" style="stroke:#181818;stroke-width:1.0;"/></g><!--link EnrollmentManagementService to Enrollment--><g id="link_EnrollmentManagementService_Enrollment"><path codeLine="66" d="M565.19,479.05 C586.71,499.52 613.39,524.9 638.83,549.11 " fill="none" id="EnrollmentManagementService-to-Enrollment" style="stroke:#181818;stroke-width:1.0;stroke-dasharray:7.0,7.0;"/><polygon fill="#181818" points="642.57,552.67,638.8311,543.5584,638.9568,549.2139,633.3013,549.3396,642.57,552.67" style="stroke:#181818;stroke-width:1.0;"/></g><!--link EnrollmentManagementService to EnrollmentRepository--><g id="link_EnrollmentManagementService_EnrollmentRepository"><path codeLine="67" d="M496.76,479.05 C478.65,510.46 453.89,553.41 435.12,585.96 " fill="none" id="EnrollmentManagementService-to-EnrollmentRepository" style="stroke:#181818;stroke-width:1.0;stroke-dasharray:7.0,7.0;"/><polygon fill="#181818" points="432.4,590.68,440.365,584.887,434.9007,586.3503,433.4374,580.8859,432.4,590.68" style="stroke:#181818;stroke-width:1.0;"/></g><!--link EnrollmentRepository to Enrollment--><g id="link_EnrollmentRepository_Enrollment"><path codeLine="68" d="M506.75,634 C523.78,634 540.8,634 557.82,634 " fill="none" id="EnrollmentRepository-to-Enrollment" style="stroke:#181818;stroke-width:1.0;"/><polygon fill="#181818" points="563.11,634,554.11,630,558.11,634,554.11,638,563.11,634" style="stroke:#181818;stroke-width:1.0;"/></g><!--link RequestEnrollmentController to Enrollment--><g id="link_RequestEnrollmentController_Enrollment"><path codeLine="69" d="M682.14,333.13 C704.87,349.33 725.17,369.09 739,393 C765.75,439.27 762.72,499.32 753.02,547.79 " fill="none" id="RequestEnrollmentController-to-Enrollment" style="stroke:#181818;stroke-width:1.0;stroke-dasharray:7.0,7.0;"/><polygon fill="#181818" points="752,552.74,757.7189,544.7216,752.9998,547.841,749.8804,543.1219,752,552.74" style="stroke:#181818;stroke-width:1.0;"/></g><!--SRC=[bLHDRzim3BtdLmZTOIdoTTWEGn04o58VDc1VSVi3D8bnXDgI9yafqg7_VRAaH5BYUAqlDYdoyV6HrlkTrhMQpsPrYRbkgd9AH3KZ9LPgGXak9Au6WngJHrm0kgabAE0QQoRu3NftPv-_0sGUcu8syAS1fJCkHLbM9lJX2rei6hPSkgW9qZjO2wxRSv1eVfaHJct6256HxyJJyDQQBuENY0yL5MOj4_gRVi8GCmc0XW0k2Wa5re2a47gvD2vpmFJXn4lfXhQnSvIxB-Scef4AZ7TjFvmJJj2vaQ9HvZWxS_bcAq7PbW7zmLi8N0AdM9w3t8j7u0c6zVZkWtVeEOwHOpL6ojOQHsME8jaNyAQwOERwtMI_7hByFhkprcgzpduUZKtsDLiV3OCKwrs3L4nfu0GYqMqaunha5XFmKcsW5eff8Gz6R7aoZe9l6QUV3uvSImo62VM05lY_0d5LbXv7uJqCWyQ9lBTThU6wBXavRZRWxKVwmG1VMUjeXHSBSZB2ckD6xvvDrPLv2ycUBN0ESi-8to8_nNnFJklr3NF3nSugYOmMpaO77jqP8v_XK9MNP8GmfT_XATeeHo4exxgzGiPqgjnNQ9ESptf-CVw44UD5IYfKxMcggp9qxSMySrqy0tC3jBihKmdUy5CPhbttstIoxBt5-fQdpRqs-__bzMt1jH66Uf4yqLMPmFghh6ymqscSq1-QO7UMZoQP1FTBaL3u1m00]--></g></svg>