<?xml version="1.0" encoding="us-ascii" standalone="no"?><svg xmlns="http://www.w3.org/2000/svg" xmlns:xlink="http://www.w3.org/1999/xlink" contentStyleType="text/css" height="811px" preserveAspectRatio="none" style="width:1644px;height:811px;background:#FFFFFF;" version="1.1" viewBox="0 0 1644 811" width="1644px" zoomAndPan="magnify"><defs/><g><rect fill="#FFFFFF" height="581.4688" style="stroke:#181818;stroke-width:1.0;" width="10" x="235" y="127.3281"/><rect fill="#FFFFFF" height="552.9453" style="stroke:#181818;stroke-width:1.0;" width="10" x="492" y="155.8516"/><rect fill="#FFFFFF" height="228.1875" style="stroke:#181818;stroke-width:1.0;" width="10" x="852.5" y="407.5625"/><rect fill="#FFFFFF" height="28.5234" style="stroke:#181818;stroke-width:1.0;" width="10" x="1062" y="493.1328"/><rect fill="#FFFFFF" height="28.5234" style="stroke:#181818;stroke-width:1.0;" width="10" x="1262.5" y="436.0859"/><rect fill="#FFFFFF" height="28.5234" style="stroke:#181818;stroke-width:1.0;" width="10" x="1552.5" y="578.7031"/><rect fill="none" height="330.2813" style="stroke:#000000;stroke-width:1.5;" width="1628" x="10" y="370.5156"/><line style="stroke:#181818;stroke-width:0.5;stroke-dasharray:5.0,5.0;" x1="51" x2="51" y1="82.2813" y2="717.7969"/><line style="stroke:#181818;stroke-width:0.5;stroke-dasharray:5.0,5.0;" x1="240" x2="240" y1="82.2813" y2="717.7969"/><line style="stroke:#181818;stroke-width:0.5;stroke-dasharray:5.0,5.0;" x1="497" x2="497" y1="82.2813" y2="717.7969"/><line style="stroke:#181818;stroke-width:0.5;stroke-dasharray:5.0,5.0;" x1="697.5" x2="697.5" y1="82.2813" y2="717.7969"/><line style="stroke:#181818;stroke-width:0.5;stroke-dasharray:5.0,5.0;" x1="857.5" x2="857.5" y1="82.2813" y2="717.7969"/><line style="stroke:#181818;stroke-width:0.5;stroke-dasharray:5.0,5.0;" x1="1066.5" x2="1066.5" y1="82.2813" y2="717.7969"/><line style="stroke:#181818;stroke-width:0.5;stroke-dasharray:5.0,5.0;" x1="1267.5" x2="1267.5" y1="82.2813" y2="717.7969"/><line style="stroke:#181818;stroke-width:0.5;stroke-dasharray:5.0,5.0;" x1="1436" x2="1436" y1="82.2813" y2="717.7969"/><line style="stroke:#181818;stroke-width:0.5;stroke-dasharray:5.0,5.0;" x1="1557" x2="1557" y1="82.2813" y2="717.7969"/><text fill="#000000" font-family="FG Virgil" font-size="14" lengthAdjust="spacing" textLength="56" x="20" y="79.3145">Manager</text><ellipse cx="51" cy="15.1406" fill="#E3E3E3" rx="8" ry="8" style="stroke:#181818;stroke-width:0.5;"/><path d="M51,23.1406 L51,50.1406 M38,31.1406 L64,31.1406 M51,50.1406 L38,65.1406 M51,50.1406 L64,65.1406 " fill="none" style="stroke:#181818;stroke-width:0.5;"/><text fill="#000000" font-family="FG Virgil" font-size="14" lengthAdjust="spacing" textLength="56" x="20" y="729.4707">Manager</text><ellipse cx="51" cy="740.9375" fill="#E3E3E3" rx="8" ry="8" style="stroke:#181818;stroke-width:0.5;"/><path d="M51,748.9375 L51,775.9375 M38,756.9375 L64,756.9375 M51,775.9375 L38,790.9375 M51,775.9375 L64,790.9375 " fill="none" style="stroke:#181818;stroke-width:0.5;"/><rect fill="#E3E3E3" height="45.2813" rx="2.5" ry="2.5" style="stroke:#181818;stroke-width:0.5;" width="222" x="129" y="36"/><text fill="#000000" font-family="FG Virgil" font-size="14" font-style="italic" lengthAdjust="spacing" textLength="95" x="192.5" y="55.6738">&#171;presentation&#187;</text><text fill="#000000" font-family="FG Virgil" font-size="14" lengthAdjust="spacing" textLength="208" x="136" y="71.3145">EnrollStudentsInBulkbyCSVFileUI</text><rect fill="#E3E3E3" height="45.2813" rx="2.5" ry="2.5" style="stroke:#181818;stroke-width:0.5;" width="222" x="129" y="716.7969"/><text fill="#000000" font-family="FG Virgil" font-size="14" font-style="italic" lengthAdjust="spacing" textLength="95" x="192.5" y="736.4707">&#171;presentation&#187;</text><text fill="#000000" font-family="FG Virgil" font-size="14" lengthAdjust="spacing" textLength="208" x="136" y="752.1113">EnrollStudentsInBulkbyCSVFileUI</text><rect fill="#E3E3E3" height="45.2813" rx="2.5" ry="2.5" style="stroke:#181818;stroke-width:0.5;" width="272" x="361" y="36"/><text fill="#000000" font-family="FG Virgil" font-size="14" font-style="italic" lengthAdjust="spacing" textLength="84" x="455" y="55.6738">&#171;application&#187;</text><text fill="#000000" font-family="FG Virgil" font-size="14" lengthAdjust="spacing" textLength="258" x="368" y="71.3145">EnrollStudentsInBulkbyCSVFileController</text><rect fill="#E3E3E3" height="45.2813" rx="2.5" ry="2.5" style="stroke:#181818;stroke-width:0.5;" width="272" x="361" y="716.7969"/><text fill="#000000" font-family="FG Virgil" font-size="14" font-style="italic" lengthAdjust="spacing" textLength="84" x="455" y="736.4707">&#171;application&#187;</text><text fill="#000000" font-family="FG Virgil" font-size="14" lengthAdjust="spacing" textLength="258" x="368" y="752.1113">EnrollStudentsInBulkbyCSVFileController</text><rect fill="#E3E3E3" height="45.2813" rx="2.5" ry="2.5" style="stroke:#181818;stroke-width:0.5;" width="89" x="653.5" y="36"/><text fill="#000000" font-family="FG Virgil" font-size="14" font-style="italic" lengthAdjust="spacing" textLength="41" x="677.5" y="55.6738">&#171;utils&#187;</text><text fill="#000000" font-family="FG Virgil" font-size="14" lengthAdjust="spacing" textLength="75" x="660.5" y="71.3145">CSVReader</text><rect fill="#E3E3E3" height="45.2813" rx="2.5" ry="2.5" style="stroke:#181818;stroke-width:0.5;" width="89" x="653.5" y="716.7969"/><text fill="#000000" font-family="FG Virgil" font-size="14" font-style="italic" lengthAdjust="spacing" textLength="41" x="677.5" y="736.4707">&#171;utils&#187;</text><text fill="#000000" font-family="FG Virgil" font-size="14" lengthAdjust="spacing" textLength="75" x="660.5" y="752.1113">CSVReader</text><rect fill="#E3E3E3" height="45.2813" rx="2.5" ry="2.5" style="stroke:#181818;stroke-width:0.5;" width="210" x="752.5" y="36"/><text fill="#000000" font-family="FG Virgil" font-size="14" font-style="italic" lengthAdjust="spacing" textLength="84" x="815.5" y="55.6738">&#171;application&#187;</text><text fill="#000000" font-family="FG Virgil" font-size="14" lengthAdjust="spacing" textLength="196" x="759.5" y="71.3145">EnrollmentManagementService</text><rect fill="#E3E3E3" height="45.2813" rx="2.5" ry="2.5" style="stroke:#181818;stroke-width:0.5;" width="210" x="752.5" y="716.7969"/><text fill="#000000" font-family="FG Virgil" font-size="14" font-style="italic" lengthAdjust="spacing" textLength="84" x="815.5" y="736.4707">&#171;application&#187;</text><text fill="#000000" font-family="FG Virgil" font-size="14" lengthAdjust="spacing" textLength="196" x="759.5" y="752.1113">EnrollmentManagementService</text><rect fill="#E3E3E3" height="45.2813" rx="2.5" ry="2.5" style="stroke:#181818;stroke-width:0.5;" width="189" x="972.5" y="36"/><text fill="#000000" font-family="FG Virgil" font-size="14" font-style="italic" lengthAdjust="spacing" textLength="84" x="1025" y="55.6738">&#171;application&#187;</text><text fill="#000000" font-family="FG Virgil" font-size="14" lengthAdjust="spacing" textLength="175" x="979.5" y="71.3145">CourseManagementService</text><rect fill="#E3E3E3" height="45.2813" rx="2.5" ry="2.5" style="stroke:#181818;stroke-width:0.5;" width="189" x="972.5" y="716.7969"/><text fill="#000000" font-family="FG Virgil" font-size="14" font-style="italic" lengthAdjust="spacing" textLength="84" x="1025" y="736.4707">&#171;application&#187;</text><text fill="#000000" font-family="FG Virgil" font-size="14" lengthAdjust="spacing" textLength="175" x="979.5" y="752.1113">CourseManagementService</text><rect fill="#E3E3E3" height="45.2813" rx="2.5" ry="2.5" style="stroke:#181818;stroke-width:0.5;" width="192" x="1171.5" y="36"/><text fill="#000000" font-family="FG Virgil" font-size="14" font-style="italic" lengthAdjust="spacing" textLength="84" x="1225.5" y="55.6738">&#171;application&#187;</text><text fill="#000000" font-family="FG Virgil" font-size="14" lengthAdjust="spacing" textLength="178" x="1178.5" y="71.3145">StudentManagementService</text><rect fill="#E3E3E3" height="45.2813" rx="2.5" ry="2.5" style="stroke:#181818;stroke-width:0.5;" width="192" x="1171.5" y="716.7969"/><text fill="#000000" font-family="FG Virgil" font-size="14" font-style="italic" lengthAdjust="spacing" textLength="84" x="1225.5" y="736.4707">&#171;application&#187;</text><text fill="#000000" font-family="FG Virgil" font-size="14" lengthAdjust="spacing" textLength="178" x="1178.5" y="752.1113">StudentManagementService</text><rect fill="#E3E3E3" height="45.2813" rx="2.5" ry="2.5" style="stroke:#181818;stroke-width:0.5;" width="81" x="1396" y="36"/><text fill="#000000" font-family="FG Virgil" font-size="14" font-style="italic" lengthAdjust="spacing" textLength="62" x="1405.5" y="55.6738">&#171;domain&#187;</text><text fill="#000000" font-family="FG Virgil" font-size="14" lengthAdjust="spacing" textLength="67" x="1403" y="71.3145">Enrollment</text><rect fill="#E3E3E3" height="45.2813" rx="2.5" ry="2.5" style="stroke:#181818;stroke-width:0.5;" width="81" x="1396" y="716.7969"/><text fill="#000000" font-family="FG Virgil" font-size="14" font-style="italic" lengthAdjust="spacing" textLength="62" x="1405.5" y="736.4707">&#171;domain&#187;</text><text fill="#000000" font-family="FG Virgil" font-size="14" lengthAdjust="spacing" textLength="67" x="1403" y="752.1113">Enrollment</text><text fill="#000000" font-family="FG Virgil" font-size="14" font-style="italic" lengthAdjust="spacing" textLength="79" x="1515" y="63.6738">&#171;repository&#187;</text><text fill="#000000" font-family="FG Virgil" font-size="14" lengthAdjust="spacing" textLength="135" x="1487" y="79.3145">EnrollmentRepository</text><path d="M1539.5,15 C1539.5,5 1557.5,5 1557.5,5 C1557.5,5 1575.5,5 1575.5,15 L1575.5,41 C1575.5,51 1557.5,51 1557.5,51 C1557.5,51 1539.5,51 1539.5,41 L1539.5,15 " fill="#E3E3E3" style="stroke:#181818;stroke-width:1.5;"/><path d="M1539.5,15 C1539.5,25 1557.5,25 1557.5,25 C1557.5,25 1575.5,25 1575.5,15 " fill="none" style="stroke:#181818;stroke-width:1.5;"/><text fill="#000000" font-family="FG Virgil" font-size="14" font-style="italic" lengthAdjust="spacing" textLength="79" x="1515" y="729.4707">&#171;repository&#187;</text><text fill="#000000" font-family="FG Virgil" font-size="14" lengthAdjust="spacing" textLength="135" x="1487" y="745.1113">EnrollmentRepository</text><path d="M1539.5,758.0781 C1539.5,748.0781 1557.5,748.0781 1557.5,748.0781 C1557.5,748.0781 1575.5,748.0781 1575.5,758.0781 L1575.5,784.0781 C1575.5,794.0781 1557.5,794.0781 1557.5,794.0781 C1557.5,794.0781 1539.5,794.0781 1539.5,784.0781 L1539.5,758.0781 " fill="#E3E3E3" style="stroke:#181818;stroke-width:1.5;"/><path d="M1539.5,758.0781 C1539.5,768.0781 1557.5,768.0781 1557.5,768.0781 C1557.5,768.0781 1575.5,768.0781 1575.5,758.0781 " fill="none" style="stroke:#181818;stroke-width:1.5;"/><rect fill="#FFFFFF" height="581.4688" style="stroke:#181818;stroke-width:1.0;" width="10" x="235" y="127.3281"/><rect fill="#FFFFFF" height="552.9453" style="stroke:#181818;stroke-width:1.0;" width="10" x="492" y="155.8516"/><rect fill="#FFFFFF" height="228.1875" style="stroke:#181818;stroke-width:1.0;" width="10" x="852.5" y="407.5625"/><rect fill="#FFFFFF" height="28.5234" style="stroke:#181818;stroke-width:1.0;" width="10" x="1062" y="493.1328"/><rect fill="#FFFFFF" height="28.5234" style="stroke:#181818;stroke-width:1.0;" width="10" x="1262.5" y="436.0859"/><rect fill="#FFFFFF" height="28.5234" style="stroke:#181818;stroke-width:1.0;" width="10" x="1552.5" y="578.7031"/><polygon fill="#181818" points="223,123.3281,233,127.3281,223,131.3281,227,127.3281" style="stroke:#181818;stroke-width:1.0;"/><line style="stroke:#181818;stroke-width:1.0;" x1="51" x2="229" y1="127.3281" y2="127.3281"/><text fill="#000000" font-family="FG Virgil" font-size="13" lengthAdjust="spacing" textLength="103" x="58" y="108.0498">Request to Import</text><text fill="#000000" font-family="FG Virgil" font-size="13" lengthAdjust="spacing" textLength="111" x="58" y="122.5732">Enrollments in bulk</text><polygon fill="#181818" points="480,151.8516,490,155.8516,480,159.8516,484,155.8516" style="stroke:#181818;stroke-width:1.0;"/><line style="stroke:#181818;stroke-width:1.0;" x1="245" x2="486" y1="155.8516" y2="155.8516"/><text fill="#000000" font-family="FG Virgil" font-size="13" lengthAdjust="spacing" textLength="44" x="252" y="151.0967">create()</text><polygon fill="#181818" points="62,180.375,52,184.375,62,188.375,58,184.375" style="stroke:#181818;stroke-width:1.0;"/><line style="stroke:#181818;stroke-width:1.0;stroke-dasharray:2.0,2.0;" x1="56" x2="234" y1="184.375" y2="184.375"/><text fill="#000000" font-family="FG Virgil" font-size="13" lengthAdjust="spacing" textLength="86" x="68" y="179.6201">Asks file name</text><polygon fill="#181818" points="223,208.8984,233,212.8984,223,216.8984,227,212.8984" style="stroke:#181818;stroke-width:1.0;"/><line style="stroke:#181818;stroke-width:1.0;stroke-dasharray:2.0,2.0;" x1="51" x2="229" y1="212.8984" y2="212.8984"/><text fill="#000000" font-family="FG Virgil" font-size="13" lengthAdjust="spacing" textLength="113" x="58" y="208.1436">Inputs the file name</text><polygon fill="#181818" points="480,237.4219,490,241.4219,480,245.4219,484,241.4219" style="stroke:#181818;stroke-width:1.0;"/><line style="stroke:#181818;stroke-width:1.0;" x1="245" x2="486" y1="241.4219" y2="241.4219"/><text fill="#000000" font-family="FG Virgil" font-size="13" lengthAdjust="spacing" textLength="123" x="252" y="236.667">readCsvFile(filename)</text><polygon fill="#181818" points="686,265.9453,696,269.9453,686,273.9453,690,269.9453" style="stroke:#181818;stroke-width:1.0;"/><line style="stroke:#181818;stroke-width:1.0;" x1="502" x2="692" y1="269.9453" y2="269.9453"/><text fill="#000000" font-family="FG Virgil" font-size="13" lengthAdjust="spacing" textLength="172" x="509" y="265.1904">readCsvStudentFile (filename)</text><polygon fill="#181818" points="513,294.4688,503,298.4688,513,302.4688,509,298.4688" style="stroke:#181818;stroke-width:1.0;"/><line style="stroke:#181818;stroke-width:1.0;" x1="507" x2="697" y1="298.4688" y2="298.4688"/><text fill="#000000" font-family="FG Virgil" font-size="13" lengthAdjust="spacing" textLength="17" x="519" y="293.7139">list</text><polygon fill="#181818" points="256,322.9922,246,326.9922,256,330.9922,252,326.9922" style="stroke:#181818;stroke-width:1.0;"/><line style="stroke:#181818;stroke-width:1.0;" x1="250" x2="491" y1="326.9922" y2="326.9922"/><text fill="#000000" font-family="FG Virgil" font-size="13" lengthAdjust="spacing" textLength="17" x="262" y="322.2373">list</text><polygon fill="#181818" points="480,351.5156,490,355.5156,480,359.5156,484,355.5156" style="stroke:#181818;stroke-width:1.0;"/><line style="stroke:#181818;stroke-width:1.0;" x1="245" x2="486" y1="355.5156" y2="355.5156"/><text fill="#000000" font-family="FG Virgil" font-size="13" lengthAdjust="spacing" textLength="178" x="252" y="350.7607">createEnrollmentFromList (list)</text><path d="M10,370.5156 L83,370.5156 L83,377.0391 L73,387.0391 L10,387.0391 L10,370.5156 " fill="#EEEEEE" style="stroke:#000000;stroke-width:1.5;"/><rect fill="none" height="330.2813" style="stroke:#000000;stroke-width:1.5;" width="1628" x="10" y="370.5156"/><text fill="#000000" font-family="FG Virgil" font-size="13" font-weight="bold" lengthAdjust="spacing" textLength="28" x="25" y="383.2842">loop</text><text fill="#000000" font-family="FG Virgil" font-size="11" font-weight="bold" lengthAdjust="spacing" textLength="142" x="98" y="382.4736">[number of CVS file lines]</text><polygon fill="#181818" points="840.5,403.5625,850.5,407.5625,840.5,411.5625,844.5,407.5625" style="stroke:#181818;stroke-width:1.0;"/><line style="stroke:#181818;stroke-width:1.0;" x1="502" x2="846.5" y1="407.5625" y2="407.5625"/><text fill="#000000" font-family="FG Virgil" font-size="13" lengthAdjust="spacing" textLength="271" x="509" y="402.8076">createEnrollmentfromParameters(userinfo, line)</text><polygon fill="#181818" points="1250.5,432.0859,1260.5,436.0859,1250.5,440.0859,1254.5,436.0859" style="stroke:#181818;stroke-width:1.0;"/><line style="stroke:#181818;stroke-width:1.0;" x1="862.5" x2="1256.5" y1="436.0859" y2="436.0859"/><text fill="#000000" font-family="FG Virgil" font-size="13" lengthAdjust="spacing" textLength="273" x="869.5" y="431.3311">userStudentOfIdentity(mechanographicNumber)</text><polygon fill="#181818" points="873.5,460.6094,863.5,464.6094,873.5,468.6094,869.5,464.6094" style="stroke:#181818;stroke-width:1.0;"/><line style="stroke:#181818;stroke-width:1.0;" x1="867.5" x2="1266.5" y1="464.6094" y2="464.6094"/><text fill="#000000" font-family="FG Virgil" font-size="13" lengthAdjust="spacing" textLength="90" x="879.5" y="459.8545">studentToEnroll</text><polygon fill="#181818" points="1050,489.1328,1060,493.1328,1050,497.1328,1054,493.1328" style="stroke:#181818;stroke-width:1.0;"/><line style="stroke:#181818;stroke-width:1.0;" x1="862.5" x2="1056" y1="493.1328" y2="493.1328"/><text fill="#000000" font-family="FG Virgil" font-size="13" lengthAdjust="spacing" textLength="171" x="869.5" y="488.3779">courseOfIdentity(courseCode)</text><polygon fill="#181818" points="873.5,517.6563,863.5,521.6563,873.5,525.6563,869.5,521.6563" style="stroke:#181818;stroke-width:1.0;"/><line style="stroke:#181818;stroke-width:1.0;" x1="867.5" x2="1066" y1="521.6563" y2="521.6563"/><text fill="#000000" font-family="FG Virgil" font-size="13" lengthAdjust="spacing" textLength="86" x="879.5" y="516.9014">courseToEnroll</text><polygon fill="#181818" points="1424.5,546.1797,1434.5,550.1797,1424.5,554.1797,1428.5,550.1797" style="stroke:#181818;stroke-width:1.0;"/><line style="stroke:#181818;stroke-width:1.0;stroke-dasharray:2.0,2.0;" x1="862.5" x2="1430.5" y1="550.1797" y2="550.1797"/><text fill="#000000" font-family="FG Virgil" font-size="13" lengthAdjust="spacing" textLength="550" x="869.5" y="545.4248">enrollment = create(studentToEnroll, courseToEnroll, EnrollmentSatus.ACCEPTED, createdOn)</text><polygon fill="#181818" points="1540.5,574.7031,1550.5,578.7031,1540.5,582.7031,1544.5,578.7031" style="stroke:#181818;stroke-width:1.0;"/><line style="stroke:#181818;stroke-width:1.0;" x1="862.5" x2="1546.5" y1="578.7031" y2="578.7031"/><text fill="#000000" font-family="FG Virgil" font-size="13" lengthAdjust="spacing" textLength="94" x="869.5" y="573.9482">save(enrollment)</text><polygon fill="#181818" points="873.5,603.2266,863.5,607.2266,873.5,611.2266,869.5,607.2266" style="stroke:#181818;stroke-width:1.0;"/><line style="stroke:#181818;stroke-width:1.0;stroke-dasharray:2.0,2.0;" x1="867.5" x2="1556.5" y1="607.2266" y2="607.2266"/><text fill="#000000" font-family="FG Virgil" font-size="13" lengthAdjust="spacing" textLength="60" x="879.5" y="602.4717">enrollment</text><polygon fill="#181818" points="513,631.75,503,635.75,513,639.75,509,635.75" style="stroke:#181818;stroke-width:1.0;"/><line style="stroke:#181818;stroke-width:1.0;stroke-dasharray:2.0,2.0;" x1="507" x2="856.5" y1="635.75" y2="635.75"/><text fill="#000000" font-family="FG Virgil" font-size="13" lengthAdjust="spacing" textLength="60" x="519" y="630.9951">enrollment</text><polygon fill="#181818" points="256,660.2734,246,664.2734,256,668.2734,252,664.2734" style="stroke:#181818;stroke-width:1.0;"/><line style="stroke:#181818;stroke-width:1.0;stroke-dasharray:2.0,2.0;" x1="250" x2="491" y1="664.2734" y2="664.2734"/><text fill="#000000" font-family="FG Virgil" font-size="13" lengthAdjust="spacing" textLength="60" x="262" y="659.5186">enrollment</text><polygon fill="#181818" points="62,688.7969,52,692.7969,62,696.7969,58,692.7969" style="stroke:#181818;stroke-width:1.0;"/><line style="stroke:#181818;stroke-width:1.0;stroke-dasharray:2.0,2.0;" x1="56" x2="234" y1="692.7969" y2="692.7969"/><text fill="#000000" font-family="FG Virgil" font-size="13" lengthAdjust="spacing" textLength="160" x="68" y="688.042">Displays operation success</text><!--SRC=[ZLPDSzem4BthL-ojC4EIE-Dc9dL2XvasoOGqfrw4lSOQP4cLP3By-wvi4WlgZrx0qkvxRx-yyANqtYnlRepaojULlCvqTUFsGXbkUNLT-agopoEKNENlLdYF2Wek7KQsIYkTbLPN2DxMiSNmRCztkF57YM0nyv4jnuBNqg-qye-SeAlly2RiJiIghkIvVXTgTz9aFFFQma-kYDK2Tt0NBXXvUv49Gvd0Wx9QoeslSrJUhTMtMkwtntJpjX8IVwq3Y3wJn5XqvC6zqEhszlyfKWeuc5lzw9Gat1WfiZv6mhuWprjC-vGajHVIzKfNfDic6PusQ0yYmm0TCu_gwzewxAKSCetHdKhJopTe6oFiyZhFaa2vhhW8_ZdtVCiTHkONDDe9ce3ZEIowJnBxUI0IrWmCNDtI42of4tzgT1wyXdLbjFNmMtKi3eI2BVK-Z9quS8y4OZGyXExwleJC8jbcyywjixB6dm2DxXBktDv1GMC4YeR-8vec75Z2MfcQP7s9aG_haIJ5F7M7C8-pu1aSvomQHl9ln-pJzzIN0848SnhB2tufdB-W2_LgheSAq1LkHRlW1xd2B03cJ6fj05HTRObA5v2-RThyf53eBdH6HlnVfOAKdiEgG8_MpMg7LgX2Bnhcg24Zf6pidQ9u1kTv2K7kP7ugrk5B-EEimeosfTvPRagHFJPPHw4CyR51eV6YK1okHRxgretbEAqsbVRGMg0UD9OeuVOYrJcUlGAzU3R4EvbagzANuv3KQ8PdUaIFtU7hnnjzKTV5HGoBY673VUskxzBquVdruNvnOiYVr7ogq7rRYrhA3pZhOfgplbdk0AntzrrD5hLJY0iweT1VpNWXJD7sZEFP5ZYjcuZcOetU2qV_MuuEj47R_A20gxCCdMEeyhy0]--></g></svg>