<?xml version="1.0" encoding="us-ascii" standalone="no"?><svg xmlns="http://www.w3.org/2000/svg" xmlns:xlink="http://www.w3.org/1999/xlink" contentStyleType="text/css" height="950px" preserveAspectRatio="none" style="width:1304px;height:950px;background:#FFFFFF;" version="1.1" viewBox="0 0 1304 950" width="1304px" zoomAndPan="magnify"><defs/><g><!--cluster presentation--><g id="cluster_presentation"><path d="M644.5,6 L735.5,6 A3.75,3.75 0 0 1 738,8.5 L745,27.6406 L1049.5,27.6406 A2.5,2.5 0 0 1 1052,30.1406 L1052,139.5 A2.5,2.5 0 0 1 1049.5,142 L644.5,142 A2.5,2.5 0 0 1 642,139.5 L642,8.5 A2.5,2.5 0 0 1 644.5,6 " fill="#DDDDDD" style="stroke:#000000;stroke-width:1.5;"/><line style="stroke:#000000;stroke-width:1.5;" x1="642" x2="745" y1="27.6406" y2="27.6406"/><text fill="#000000" font-family="sans-serif" font-size="14" font-weight="bold" lengthAdjust="spacing" textLength="90" x="646" y="20.6738">presentation</text></g><!--cluster utils--><g id="cluster_utils"><path d="M1051.5,331.5 L1082.5,331.5 A3.75,3.75 0 0 1 1085,334 L1092,353.1406 L1294.5,353.1406 A2.5,2.5 0 0 1 1297,355.6406 L1297,458 A2.5,2.5 0 0 1 1294.5,460.5 L1051.5,460.5 A2.5,2.5 0 0 1 1049,458 L1049,334 A2.5,2.5 0 0 1 1051.5,331.5 " fill="#DDDDDD" style="stroke:#000000;stroke-width:1.5;"/><line style="stroke:#000000;stroke-width:1.5;" x1="1049" x2="1092" y1="353.1406" y2="353.1406"/><text fill="#000000" font-family="sans-serif" font-size="14" font-weight="bold" lengthAdjust="spacing" textLength="30" x="1053" y="346.1738">utils</text></g><!--cluster domain--><g id="cluster_domain"><path d="M8.5,484.5 L60.5,484.5 A3.75,3.75 0 0 1 63,487 L70,506.1406 L397.5,506.1406 A2.5,2.5 0 0 1 400,508.6406 L400,941 A2.5,2.5 0 0 1 397.5,943.5 L8.5,943.5 A2.5,2.5 0 0 1 6,941 L6,487 A2.5,2.5 0 0 1 8.5,484.5 " fill="#DBD8AE" style="stroke:#000000;stroke-width:1.5;"/><line style="stroke:#000000;stroke-width:1.5;" x1="6" x2="70" y1="506.1406" y2="506.1406"/><text fill="#000000" font-family="sans-serif" font-size="14" font-weight="bold" lengthAdjust="spacing" textLength="51" x="10" y="499.1738">domain</text></g><!--cluster persistence--><g id="cluster_persistence"><path d="M598.5,645 L683.5,645 A3.75,3.75 0 0 1 686,647.5 L693,666.6406 L1159.5,666.6406 A2.5,2.5 0 0 1 1162,669.1406 L1162,763.5 A2.5,2.5 0 0 1 1159.5,766 L598.5,766 A2.5,2.5 0 0 1 596,763.5 L596,647.5 A2.5,2.5 0 0 1 598.5,645 " fill="#DBD8AE" style="stroke:#000000;stroke-width:1.5;"/><line style="stroke:#000000;stroke-width:1.5;" x1="596" x2="693" y1="666.6406" y2="666.6406"/><text fill="#000000" font-family="sans-serif" font-size="14" font-weight="bold" lengthAdjust="spacing" textLength="84" x="600" y="659.6738">persistence</text></g><!--cluster application--><g id="cluster_application"><path d="M426.5,166 L504.5,166 A3.75,3.75 0 0 1 507,168.5 L514,187.6406 L1022.5,187.6406 A2.5,2.5 0 0 1 1025,190.1406 L1025,617 A2.5,2.5 0 0 1 1022.5,619.5 L426.5,619.5 A2.5,2.5 0 0 1 424,617 L424,168.5 A2.5,2.5 0 0 1 426.5,166 " fill="#EAF4D3" style="stroke:#000000;stroke-width:1.5;"/><line style="stroke:#000000;stroke-width:1.5;" x1="424" x2="514" y1="187.6406" y2="187.6406"/><text fill="#000000" font-family="sans-serif" font-size="14" font-weight="bold" lengthAdjust="spacing" textLength="77" x="428" y="180.6738">application</text></g><!--class EnrollStudentsInBulkbyCSVFileUI--><g id="elem_EnrollStudentsInBulkbyCSVFileUI"><rect codeLine="4" fill="#F1F1F1" height="86.3281" id="EnrollStudentsInBulkbyCSVFileUI" rx="2.5" ry="2.5" style="stroke:#181818;stroke-width:0.5;" width="378" x="658" y="40"/><ellipse cx="738.75" cy="59.5234" fill="#ADD1B2" rx="11" ry="11" style="stroke:#181818;stroke-width:1.0;"/><path d="M740.75,56.0234 Q740.9531,55.5234 741.1875,55.2734 Q741.4219,55.0234 741.6875,55.0234 Q742.1563,55.0234 742.4531,55.3047 Q742.75,55.5859 742.75,56.2422 L742.75,57.8047 Q742.75,58.4609 742.4688,58.7422 Q742.1875,59.0234 741.75,59.0234 Q741.3594,59.0234 741.1094,58.8516 Q740.8594,58.6797 740.75,58.2266 Q740.7031,57.9141 740.5313,57.7422 Q740.2188,57.4141 739.6563,57.2266 Q739.0938,57.0234 738.5313,57.0234 Q737.8281,57.0234 737.2344,57.3047 Q736.6563,57.5859 736.2031,58.2109 Q735.75,58.8359 735.75,59.6953 L735.75,60.6172 Q735.75,61.6484 736.5938,62.3359 Q737.4375,63.0234 738.9375,63.0234 Q739.8281,63.0234 740.4531,62.8203 Q740.8125,62.7109 741.2188,62.3516 Q741.4844,62.1484 741.625,62.0859 Q741.7656,62.0234 741.9375,62.0234 Q742.2656,62.0234 742.5,62.2891 Q742.75,62.5391 742.75,62.8984 Q742.75,63.2422 742.4063,63.6484 Q741.9063,64.2422 741.1094,64.5703 Q740.0625,65.0234 738.7813,65.0234 Q737.2813,65.0234 736.0781,64.4297 Q735.1094,63.9609 734.4219,62.9453 Q733.75,61.9297 733.75,60.7266 L733.75,59.6328 Q733.75,58.3828 734.3438,57.2891 Q734.9531,56.1953 736,55.6172 Q737.0625,55.0234 738.25,55.0234 Q738.9688,55.0234 739.5938,55.2734 Q740.2188,55.5234 740.75,56.0234 Z " fill="#000000"/><text fill="#000000" font-family="sans-serif" font-size="12" font-style="italic" lengthAdjust="spacing" textLength="24" x="851.25" y="55.8633">&#171;ui&#187;</text><text fill="#000000" font-family="sans-serif" font-size="14" lengthAdjust="spacing" textLength="208" x="759.25" y="71.0801">EnrollStudentsInBulkbyCSVFileUI</text><line style="stroke:#181818;stroke-width:0.5;" x1="659" x2="1035" y1="79.0469" y2="79.0469"/><rect fill="none" height="6" style="stroke:#C82930;stroke-width:1.0;" width="6" x="666" y="89.3672"/><text fill="#000000" font-family="sans-serif" font-size="14" lengthAdjust="spacing" textLength="352" x="678" y="95.7207">theController : EnrollStudentsInBulkbyCSVFileController</text><line style="stroke:#181818;stroke-width:0.5;" x1="659" x2="1035" y1="102.6875" y2="102.6875"/><ellipse cx="669" cy="116.0078" fill="#84BE84" rx="3" ry="3" style="stroke:#038048;stroke-width:1.0;"/><text fill="#000000" font-family="sans-serif" font-size="14" lengthAdjust="spacing" textLength="60" x="678" y="119.3613">doShow()</text></g><!--class CSVReader--><g id="elem_CSVReader"><rect codeLine="11" fill="#F1F1F1" height="79.2813" id="CSVReader" rx="2.5" ry="2.5" style="stroke:#181818;stroke-width:0.5;" width="215" x="1065.5" y="365.5"/><ellipse cx="1131.25" cy="381.5" fill="#ADD1B2" rx="11" ry="11" style="stroke:#181818;stroke-width:1.0;"/><path d="M1133.25,378 Q1133.4531,377.5 1133.6875,377.25 Q1133.9219,377 1134.1875,377 Q1134.6563,377 1134.9531,377.2813 Q1135.25,377.5625 1135.25,378.2188 L1135.25,379.7813 Q1135.25,380.4375 1134.9688,380.7188 Q1134.6875,381 1134.25,381 Q1133.8594,381 1133.6094,380.8281 Q1133.3594,380.6563 1133.25,380.2031 Q1133.2031,379.8906 1133.0313,379.7188 Q1132.7188,379.3906 1132.1563,379.2031 Q1131.5938,379 1131.0313,379 Q1130.3281,379 1129.7344,379.2813 Q1129.1563,379.5625 1128.7031,380.1875 Q1128.25,380.8125 1128.25,381.6719 L1128.25,382.5938 Q1128.25,383.625 1129.0938,384.3125 Q1129.9375,385 1131.4375,385 Q1132.3281,385 1132.9531,384.7969 Q1133.3125,384.6875 1133.7188,384.3281 Q1133.9844,384.125 1134.125,384.0625 Q1134.2656,384 1134.4375,384 Q1134.7656,384 1135,384.2656 Q1135.25,384.5156 1135.25,384.875 Q1135.25,385.2188 1134.9063,385.625 Q1134.4063,386.2188 1133.6094,386.5469 Q1132.5625,387 1131.2813,387 Q1129.7813,387 1128.5781,386.4063 Q1127.6094,385.9375 1126.9219,384.9219 Q1126.25,383.9063 1126.25,382.7031 L1126.25,381.6094 Q1126.25,380.3594 1126.8438,379.2656 Q1127.4531,378.1719 1128.5,377.5938 Q1129.5625,377 1130.75,377 Q1131.4688,377 1132.0938,377.25 Q1132.7188,377.5 1133.25,378 Z " fill="#000000"/><text fill="#000000" font-family="sans-serif" font-size="14" lengthAdjust="spacing" textLength="75" x="1151.75" y="386.3535">CSVReader</text><line style="stroke:#181818;stroke-width:0.5;" x1="1066.5" x2="1279.5" y1="397.5" y2="397.5"/><line style="stroke:#181818;stroke-width:0.5;" x1="1066.5" x2="1279.5" y1="405.5" y2="405.5"/><ellipse cx="1076.5" cy="418.8203" fill="#84BE84" rx="3" ry="3" style="stroke:#038048;stroke-width:1.0;"/><text fill="#000000" font-family="sans-serif" font-size="14" lengthAdjust="spacing" textLength="137" x="1085.5" y="422.1738">tryReadFile(fileName)</text><ellipse cx="1076.5" cy="434.4609" fill="#84BE84" rx="3" ry="3" style="stroke:#038048;stroke-width:1.0;"/><text fill="#000000" font-family="sans-serif" font-size="14" lengthAdjust="spacing" textLength="189" x="1085.5" y="437.8145">readCsvStudentFile(fileName)</text></g><!--class Enrollment--><g id="elem_Enrollment"><rect codeLine="18" fill="#F1F1F1" height="84.0938" id="Enrollment" rx="2.5" ry="2.5" style="stroke:#181818;stroke-width:0.5;" width="362" x="22" y="518.5"/><ellipse cx="153.75" cy="544.7266" fill="#ADD1B2" rx="11" ry="11" style="stroke:#181818;stroke-width:1.0;"/><path d="M155.75,541.2266 Q155.9531,540.7266 156.1875,540.4766 Q156.4219,540.2266 156.6875,540.2266 Q157.1563,540.2266 157.4531,540.5078 Q157.75,540.7891 157.75,541.4453 L157.75,543.0078 Q157.75,543.6641 157.4688,543.9453 Q157.1875,544.2266 156.75,544.2266 Q156.3594,544.2266 156.1094,544.0547 Q155.8594,543.8828 155.75,543.4297 Q155.7031,543.1172 155.5313,542.9453 Q155.2188,542.6172 154.6563,542.4297 Q154.0938,542.2266 153.5313,542.2266 Q152.8281,542.2266 152.2344,542.5078 Q151.6563,542.7891 151.2031,543.4141 Q150.75,544.0391 150.75,544.8984 L150.75,545.8203 Q150.75,546.8516 151.5938,547.5391 Q152.4375,548.2266 153.9375,548.2266 Q154.8281,548.2266 155.4531,548.0234 Q155.8125,547.9141 156.2188,547.5547 Q156.4844,547.3516 156.625,547.2891 Q156.7656,547.2266 156.9375,547.2266 Q157.2656,547.2266 157.5,547.4922 Q157.75,547.7422 157.75,548.1016 Q157.75,548.4453 157.4063,548.8516 Q156.9063,549.4453 156.1094,549.7734 Q155.0625,550.2266 153.7813,550.2266 Q152.2813,550.2266 151.0781,549.6328 Q150.1094,549.1641 149.4219,548.1484 Q148.75,547.1328 148.75,545.9297 L148.75,544.8359 Q148.75,543.5859 149.3438,542.4922 Q149.9531,541.3984 151,540.8203 Q152.0625,540.2266 153.25,540.2266 Q153.9688,540.2266 154.5938,540.4766 Q155.2188,540.7266 155.75,541.2266 Z " fill="#000000"/><text fill="#000000" font-family="sans-serif" font-size="12" font-style="italic" lengthAdjust="spacing" textLength="94" x="172.25" y="534.3633">&#171;aggregate root&#187;</text><text fill="#000000" font-family="sans-serif" font-size="12" font-style="italic" lengthAdjust="spacing" textLength="43" x="197.75" y="547.7695">&#171;entity&#187;</text><text fill="#000000" font-family="sans-serif" font-size="14" lengthAdjust="spacing" textLength="67" x="185.75" y="562.9863">Enrollment</text><line style="stroke:#181818;stroke-width:0.5;" x1="23" x2="383" y1="570.9531" y2="570.9531"/><line style="stroke:#181818;stroke-width:0.5;" x1="23" x2="383" y1="578.9531" y2="578.9531"/><ellipse cx="33" cy="592.2734" fill="#84BE84" rx="3" ry="3" style="stroke:#038048;stroke-width:1.0;"/><text fill="#000000" font-family="sans-serif" font-size="14" lengthAdjust="spacing" textLength="336" x="42" y="595.627">Enrollment(mechanographicNumber, courseIdentifier)</text></g><!--class EnrollmentStatus--><g id="elem_EnrollmentStatus"><rect codeLine="22" fill="#F1F1F1" height="101.9688" id="EnrollmentStatus" rx="2.5" ry="2.5" style="stroke:#181818;stroke-width:0.5;" width="249" x="78.5" y="663.5"/><ellipse cx="145.25" cy="683.0234" fill="#ADD1B2" rx="11" ry="11" style="stroke:#181818;stroke-width:1.0;"/><path d="M147.25,679.5234 Q147.4531,679.0234 147.6875,678.7734 Q147.9219,678.5234 148.1875,678.5234 Q148.6563,678.5234 148.9531,678.8047 Q149.25,679.0859 149.25,679.7422 L149.25,681.3047 Q149.25,681.9609 148.9688,682.2422 Q148.6875,682.5234 148.25,682.5234 Q147.8594,682.5234 147.6094,682.3516 Q147.3594,682.1797 147.25,681.7266 Q147.2031,681.4141 147.0313,681.2422 Q146.7188,680.9141 146.1563,680.7266 Q145.5938,680.5234 145.0313,680.5234 Q144.3281,680.5234 143.7344,680.8047 Q143.1563,681.0859 142.7031,681.7109 Q142.25,682.3359 142.25,683.1953 L142.25,684.1172 Q142.25,685.1484 143.0938,685.8359 Q143.9375,686.5234 145.4375,686.5234 Q146.3281,686.5234 146.9531,686.3203 Q147.3125,686.2109 147.7188,685.8516 Q147.9844,685.6484 148.125,685.5859 Q148.2656,685.5234 148.4375,685.5234 Q148.7656,685.5234 149,685.7891 Q149.25,686.0391 149.25,686.3984 Q149.25,686.7422 148.9063,687.1484 Q148.4063,687.7422 147.6094,688.0703 Q146.5625,688.5234 145.2813,688.5234 Q143.7813,688.5234 142.5781,687.9297 Q141.6094,687.4609 140.9219,686.4453 Q140.25,685.4297 140.25,684.2266 L140.25,683.1328 Q140.25,681.8828 140.8438,680.7891 Q141.4531,679.6953 142.5,679.1172 Q143.5625,678.5234 144.75,678.5234 Q145.4688,678.5234 146.0938,678.7734 Q146.7188,679.0234 147.25,679.5234 Z " fill="#000000"/><text fill="#000000" font-family="sans-serif" font-size="12" font-style="italic" lengthAdjust="spacing" textLength="81" x="178.75" y="679.3633">&#171;value object&#187;</text><text fill="#000000" font-family="sans-serif" font-size="14" lengthAdjust="spacing" textLength="107" x="165.75" y="694.5801">EnrollmentStatus</text><line style="stroke:#181818;stroke-width:0.5;" x1="79.5" x2="326.5" y1="702.5469" y2="702.5469"/><rect fill="none" height="6" style="stroke:#C82930;stroke-width:1.0;" width="6" x="86.5" y="712.8672"/><text fill="#000000" font-family="sans-serif" font-size="14" lengthAdjust="spacing" textLength="155" x="98.5" y="719.2207">enrollmentStatus : String</text><line style="stroke:#181818;stroke-width:0.5;" x1="79.5" x2="326.5" y1="726.1875" y2="726.1875"/><ellipse cx="89.5" cy="739.5078" fill="#84BE84" rx="3" ry="3" style="stroke:#038048;stroke-width:1.0;"/><text fill="#000000" font-family="sans-serif" font-size="14" lengthAdjust="spacing" textLength="165" x="98.5" y="742.8613">valueOf(enrollmentStatus)</text><ellipse cx="89.5" cy="755.1484" fill="#84BE84" rx="3" ry="3" style="stroke:#038048;stroke-width:1.0;"/><text fill="#000000" font-family="sans-serif" font-size="14" lengthAdjust="spacing" textLength="223" x="98.5" y="758.502">EnrollmentStatus(enrollmentStatus)</text></g><!--class EnrollmentStatusDate--><g id="elem_EnrollmentStatusDate"><rect codeLine="28" fill="#F1F1F1" height="101.9688" id="EnrollmentStatusDate" rx="2.5" ry="2.5" style="stroke:#181818;stroke-width:0.5;" width="309" x="48.5" y="825.5"/><ellipse cx="130.25" cy="845.0234" fill="#ADD1B2" rx="11" ry="11" style="stroke:#181818;stroke-width:1.0;"/><path d="M132.25,841.5234 Q132.4531,841.0234 132.6875,840.7734 Q132.9219,840.5234 133.1875,840.5234 Q133.6563,840.5234 133.9531,840.8047 Q134.25,841.0859 134.25,841.7422 L134.25,843.3047 Q134.25,843.9609 133.9688,844.2422 Q133.6875,844.5234 133.25,844.5234 Q132.8594,844.5234 132.6094,844.3516 Q132.3594,844.1797 132.25,843.7266 Q132.2031,843.4141 132.0313,843.2422 Q131.7188,842.9141 131.1563,842.7266 Q130.5938,842.5234 130.0313,842.5234 Q129.3281,842.5234 128.7344,842.8047 Q128.1563,843.0859 127.7031,843.7109 Q127.25,844.3359 127.25,845.1953 L127.25,846.1172 Q127.25,847.1484 128.0938,847.8359 Q128.9375,848.5234 130.4375,848.5234 Q131.3281,848.5234 131.9531,848.3203 Q132.3125,848.2109 132.7188,847.8516 Q132.9844,847.6484 133.125,847.5859 Q133.2656,847.5234 133.4375,847.5234 Q133.7656,847.5234 134,847.7891 Q134.25,848.0391 134.25,848.3984 Q134.25,848.7422 133.9063,849.1484 Q133.4063,849.7422 132.6094,850.0703 Q131.5625,850.5234 130.2813,850.5234 Q128.7813,850.5234 127.5781,849.9297 Q126.6094,849.4609 125.9219,848.4453 Q125.25,847.4297 125.25,846.2266 L125.25,845.1328 Q125.25,843.8828 125.8438,842.7891 Q126.4531,841.6953 127.5,841.1172 Q128.5625,840.5234 129.75,840.5234 Q130.4688,840.5234 131.0938,840.7734 Q131.7188,841.0234 132.25,841.5234 Z " fill="#000000"/><text fill="#000000" font-family="sans-serif" font-size="12" font-style="italic" lengthAdjust="spacing" textLength="81" x="178.75" y="841.3633">&#171;value object&#187;</text><text fill="#000000" font-family="sans-serif" font-size="14" lengthAdjust="spacing" textLength="137" x="150.75" y="856.5801">EnrollmentStatusDate</text><line style="stroke:#181818;stroke-width:0.5;" x1="49.5" x2="356.5" y1="864.5469" y2="864.5469"/><rect fill="none" height="6" style="stroke:#C82930;stroke-width:1.0;" width="6" x="56.5" y="874.8672"/><text fill="#000000" font-family="sans-serif" font-size="14" lengthAdjust="spacing" textLength="178" x="68.5" y="881.2207">enrollmentStatusDate : Date</text><line style="stroke:#181818;stroke-width:0.5;" x1="49.5" x2="356.5" y1="888.1875" y2="888.1875"/><ellipse cx="59.5" cy="901.5078" fill="#84BE84" rx="3" ry="3" style="stroke:#038048;stroke-width:1.0;"/><text fill="#000000" font-family="sans-serif" font-size="14" lengthAdjust="spacing" textLength="195" x="68.5" y="904.8613">valueOf(enrollmentStatusDate)</text><ellipse cx="59.5" cy="917.1484" fill="#84BE84" rx="3" ry="3" style="stroke:#038048;stroke-width:1.0;"/><text fill="#000000" font-family="sans-serif" font-size="14" lengthAdjust="spacing" textLength="283" x="68.5" y="920.502">EnrollmentStatusDate(enrollmentStatusDate)</text></g><!--class CourseRepository--><g id="elem_CourseRepository"><rect codeLine="37" fill="#F1F1F1" height="70.6875" id="CourseRepository" rx="2.5" ry="2.5" style="stroke:#181818;stroke-width:0.5;" width="146" x="797" y="679"/><ellipse cx="812" cy="698.5234" fill="#B4A7E5" rx="11" ry="11" style="stroke:#181818;stroke-width:1.0;"/><path d="M813,695.5234 L813,701.5234 L815,701.5234 L815.4844,701.5234 L816,702.1484 L816,702.5234 L816,702.8984 L815.4844,703.5234 L815,703.5234 L809,703.5234 L808.5156,703.5234 L808,702.8984 L808,702.5234 L808,702.1484 L808.5156,701.5234 L809,701.5234 L811,701.5234 L811,695.5234 L809,695.5234 L808.5156,695.5234 L808,694.8984 L808,694.5234 L808,694.1484 L808.5156,693.5234 L809,693.5234 L815,693.5234 L815.4844,693.5234 L816,694.1484 L816,694.5234 L816,694.8984 L815.4844,695.5234 L815,695.5234 L813,695.5234 Z " fill="#000000"/><text fill="#000000" font-family="sans-serif" font-size="12" font-style="italic" lengthAdjust="spacing" textLength="68" x="849" y="694.8633">&#171;repository&#187;</text><text fill="#000000" font-family="sans-serif" font-size="14" font-style="italic" lengthAdjust="spacing" textLength="114" x="826" y="710.0801">CourseRepository</text><line style="stroke:#181818;stroke-width:0.5;" x1="798" x2="942" y1="718.0469" y2="718.0469"/><line style="stroke:#181818;stroke-width:0.5;" x1="798" x2="942" y1="726.0469" y2="726.0469"/><text fill="#000000" font-family="sans-serif" font-size="14" lengthAdjust="spacing" textLength="133" x="803" y="742.7207">ofIdentity(enrollment)</text></g><!--class StudentRepository--><g id="elem_StudentRepository"><rect codeLine="43" fill="#F1F1F1" height="70.6875" id="StudentRepository" rx="2.5" ry="2.5" style="stroke:#181818;stroke-width:0.5;" width="149" x="612.5" y="679"/><ellipse cx="627.5" cy="698.5234" fill="#B4A7E5" rx="11" ry="11" style="stroke:#181818;stroke-width:1.0;"/><path d="M628.5,695.5234 L628.5,701.5234 L630.5,701.5234 L630.9844,701.5234 L631.5,702.1484 L631.5,702.5234 L631.5,702.8984 L630.9844,703.5234 L630.5,703.5234 L624.5,703.5234 L624.0156,703.5234 L623.5,702.8984 L623.5,702.5234 L623.5,702.1484 L624.0156,701.5234 L624.5,701.5234 L626.5,701.5234 L626.5,695.5234 L624.5,695.5234 L624.0156,695.5234 L623.5,694.8984 L623.5,694.5234 L623.5,694.1484 L624.0156,693.5234 L624.5,693.5234 L630.5,693.5234 L630.9844,693.5234 L631.5,694.1484 L631.5,694.5234 L631.5,694.8984 L630.9844,695.5234 L630.5,695.5234 L628.5,695.5234 Z " fill="#000000"/><text fill="#000000" font-family="sans-serif" font-size="12" font-style="italic" lengthAdjust="spacing" textLength="68" x="666" y="694.8633">&#171;repository&#187;</text><text fill="#000000" font-family="sans-serif" font-size="14" font-style="italic" lengthAdjust="spacing" textLength="117" x="641.5" y="710.0801">StudentRepository</text><line style="stroke:#181818;stroke-width:0.5;" x1="613.5" x2="760.5" y1="718.0469" y2="718.0469"/><line style="stroke:#181818;stroke-width:0.5;" x1="613.5" x2="760.5" y1="726.0469" y2="726.0469"/><text fill="#000000" font-family="sans-serif" font-size="14" lengthAdjust="spacing" textLength="133" x="618.5" y="742.7207">ofIdentity(enrollment)</text></g><!--class EnrollmentRepository--><g id="elem_EnrollmentRepository"><rect codeLine="47" fill="#F1F1F1" height="70.6875" id="EnrollmentRepository" rx="2.5" ry="2.5" style="stroke:#181818;stroke-width:0.5;" width="167" x="978.5" y="679"/><ellipse cx="993.5" cy="698.5234" fill="#B4A7E5" rx="11" ry="11" style="stroke:#181818;stroke-width:1.0;"/><path d="M994.5,695.5234 L994.5,701.5234 L996.5,701.5234 L996.9844,701.5234 L997.5,702.1484 L997.5,702.5234 L997.5,702.8984 L996.9844,703.5234 L996.5,703.5234 L990.5,703.5234 L990.0156,703.5234 L989.5,702.8984 L989.5,702.5234 L989.5,702.1484 L990.0156,701.5234 L990.5,701.5234 L992.5,701.5234 L992.5,695.5234 L990.5,695.5234 L990.0156,695.5234 L989.5,694.8984 L989.5,694.5234 L989.5,694.1484 L990.0156,693.5234 L990.5,693.5234 L996.5,693.5234 L996.9844,693.5234 L997.5,694.1484 L997.5,694.5234 L997.5,694.8984 L996.9844,695.5234 L996.5,695.5234 L994.5,695.5234 Z " fill="#000000"/><text fill="#000000" font-family="sans-serif" font-size="12" font-style="italic" lengthAdjust="spacing" textLength="68" x="1041" y="694.8633">&#171;repository&#187;</text><text fill="#000000" font-family="sans-serif" font-size="14" font-style="italic" lengthAdjust="spacing" textLength="135" x="1007.5" y="710.0801">EnrollmentRepository</text><line style="stroke:#181818;stroke-width:0.5;" x1="979.5" x2="1144.5" y1="718.0469" y2="718.0469"/><line style="stroke:#181818;stroke-width:0.5;" x1="979.5" x2="1144.5" y1="726.0469" y2="726.0469"/><text fill="#000000" font-family="sans-serif" font-size="14" lengthAdjust="spacing" textLength="106" x="984.5" y="742.7207">save(enrollment)</text></g><!--class EnrollStudentsInBulkbyCSVFileController--><g id="elem_EnrollStudentsInBulkbyCSVFileController"><rect codeLine="54" fill="#F1F1F1" height="101.9688" id="EnrollStudentsInBulkbyCSVFileController" rx="2.5" ry="2.5" style="stroke:#181818;stroke-width:0.5;" width="323" x="685.5" y="200"/><ellipse cx="715.35" cy="219.5234" fill="#ADD1B2" rx="11" ry="11" style="stroke:#181818;stroke-width:1.0;"/><path d="M717.35,216.0234 Q717.5531,215.5234 717.7875,215.2734 Q718.0219,215.0234 718.2875,215.0234 Q718.7563,215.0234 719.0531,215.3047 Q719.35,215.5859 719.35,216.2422 L719.35,217.8047 Q719.35,218.4609 719.0688,218.7422 Q718.7875,219.0234 718.35,219.0234 Q717.9594,219.0234 717.7094,218.8516 Q717.4594,218.6797 717.35,218.2266 Q717.3031,217.9141 717.1313,217.7422 Q716.8188,217.4141 716.2563,217.2266 Q715.6938,217.0234 715.1313,217.0234 Q714.4281,217.0234 713.8344,217.3047 Q713.2563,217.5859 712.8031,218.2109 Q712.35,218.8359 712.35,219.6953 L712.35,220.6172 Q712.35,221.6484 713.1938,222.3359 Q714.0375,223.0234 715.5375,223.0234 Q716.4281,223.0234 717.0531,222.8203 Q717.4125,222.7109 717.8188,222.3516 Q718.0844,222.1484 718.225,222.0859 Q718.3656,222.0234 718.5375,222.0234 Q718.8656,222.0234 719.1,222.2891 Q719.35,222.5391 719.35,222.8984 Q719.35,223.2422 719.0063,223.6484 Q718.5063,224.2422 717.7094,224.5703 Q716.6625,225.0234 715.3813,225.0234 Q713.8813,225.0234 712.6781,224.4297 Q711.7094,223.9609 711.0219,222.9453 Q710.35,221.9297 710.35,220.7266 L710.35,219.6328 Q710.35,218.3828 710.9438,217.2891 Q711.5531,216.1953 712.6,215.6172 Q713.6625,215.0234 714.85,215.0234 Q715.5688,215.0234 716.1938,215.2734 Q716.8188,215.5234 717.35,216.0234 Z " fill="#000000"/><text fill="#000000" font-family="sans-serif" font-size="12" font-style="italic" lengthAdjust="spacing" textLength="65" x="829.15" y="215.8633">&#171;controller&#187;</text><text fill="#000000" font-family="sans-serif" font-size="14" lengthAdjust="spacing" textLength="258" x="732.65" y="231.0801">EnrollStudentsInBulkbyCSVFileController</text><line style="stroke:#181818;stroke-width:0.5;" x1="686.5" x2="1007.5" y1="239.0469" y2="239.0469"/><rect fill="none" height="6" style="stroke:#C82930;stroke-width:1.0;" width="6" x="693.5" y="249.3672"/><text fill="#000000" font-family="sans-serif" font-size="14" lengthAdjust="spacing" textLength="297" x="705.5" y="255.7207">enrollmentSvc : EnrollmentManagementService</text><line style="stroke:#181818;stroke-width:0.5;" x1="686.5" x2="1007.5" y1="262.6875" y2="262.6875"/><ellipse cx="696.5" cy="276.0078" fill="#84BE84" rx="3" ry="3" style="stroke:#038048;stroke-width:1.0;"/><text fill="#000000" font-family="sans-serif" font-size="14" lengthAdjust="spacing" textLength="186" x="705.5" y="279.3613">enrollmentList : readCsvFile()</text><ellipse cx="696.5" cy="291.6484" fill="#84BE84" rx="3" ry="3" style="stroke:#038048;stroke-width:1.0;"/><text fill="#000000" font-family="sans-serif" font-size="14" lengthAdjust="spacing" textLength="218" x="705.5" y="295.002">createEnrollmentfromParameters()</text></g><!--class CourseManagementService--><g id="elem_CourseManagementService"><rect codeLine="60" fill="#F1F1F1" height="86.3281" id="CourseManagementService" rx="2.5" ry="2.5" style="stroke:#181818;stroke-width:0.5;" width="263" x="745.5" y="517.5"/><ellipse cx="785.7" cy="537.0234" fill="#ADD1B2" rx="11" ry="11" style="stroke:#181818;stroke-width:1.0;"/><path d="M787.7,533.5234 Q787.9031,533.0234 788.1375,532.7734 Q788.3719,532.5234 788.6375,532.5234 Q789.1063,532.5234 789.4031,532.8047 Q789.7,533.0859 789.7,533.7422 L789.7,535.3047 Q789.7,535.9609 789.4188,536.2422 Q789.1375,536.5234 788.7,536.5234 Q788.3094,536.5234 788.0594,536.3516 Q787.8094,536.1797 787.7,535.7266 Q787.6531,535.4141 787.4813,535.2422 Q787.1688,534.9141 786.6063,534.7266 Q786.0438,534.5234 785.4813,534.5234 Q784.7781,534.5234 784.1844,534.8047 Q783.6063,535.0859 783.1531,535.7109 Q782.7,536.3359 782.7,537.1953 L782.7,538.1172 Q782.7,539.1484 783.5438,539.8359 Q784.3875,540.5234 785.8875,540.5234 Q786.7781,540.5234 787.4031,540.3203 Q787.7625,540.2109 788.1688,539.8516 Q788.4344,539.6484 788.575,539.5859 Q788.7156,539.5234 788.8875,539.5234 Q789.2156,539.5234 789.45,539.7891 Q789.7,540.0391 789.7,540.3984 Q789.7,540.7422 789.3563,541.1484 Q788.8563,541.7422 788.0594,542.0703 Q787.0125,542.5234 785.7313,542.5234 Q784.2313,542.5234 783.0281,541.9297 Q782.0594,541.4609 781.3719,540.4453 Q780.7,539.4297 780.7,538.2266 L780.7,537.1328 Q780.7,535.8828 781.2938,534.7891 Q781.9031,533.6953 782.95,533.1172 Q784.0125,532.5234 785.2,532.5234 Q785.9188,532.5234 786.5438,532.7734 Q787.1688,533.0234 787.7,533.5234 Z " fill="#000000"/><text fill="#000000" font-family="sans-serif" font-size="12" font-style="italic" lengthAdjust="spacing" textLength="53" x="866.3" y="533.3633">&#171;service&#187;</text><text fill="#000000" font-family="sans-serif" font-size="14" lengthAdjust="spacing" textLength="175" x="805.3" y="548.5801">CourseManagementService</text><line style="stroke:#181818;stroke-width:0.5;" x1="746.5" x2="1007.5" y1="556.5469" y2="556.5469"/><rect fill="none" height="6" style="stroke:#C82930;stroke-width:1.0;" width="6" x="753.5" y="566.8672"/><text fill="#000000" font-family="sans-serif" font-size="14" lengthAdjust="spacing" textLength="237" x="765.5" y="573.2207">courseRepository : CourseRepository</text><line style="stroke:#181818;stroke-width:0.5;" x1="746.5" x2="1007.5" y1="580.1875" y2="580.1875"/><ellipse cx="756.5" cy="593.5078" fill="#84BE84" rx="3" ry="3" style="stroke:#038048;stroke-width:1.0;"/><text fill="#000000" font-family="sans-serif" font-size="14" lengthAdjust="spacing" textLength="113" x="765.5" y="596.8613">courseOfIdentity()</text></g><!--class EnrollmentManagementService--><g id="elem_EnrollmentManagementService"><rect codeLine="65" fill="#F1F1F1" height="86.3281" id="EnrollmentManagementService" rx="2.5" ry="2.5" style="stroke:#181818;stroke-width:0.5;" width="307" x="693.5" y="362"/><ellipse cx="744.75" cy="381.5234" fill="#ADD1B2" rx="11" ry="11" style="stroke:#181818;stroke-width:1.0;"/><path d="M746.75,378.0234 Q746.9531,377.5234 747.1875,377.2734 Q747.4219,377.0234 747.6875,377.0234 Q748.1563,377.0234 748.4531,377.3047 Q748.75,377.5859 748.75,378.2422 L748.75,379.8047 Q748.75,380.4609 748.4688,380.7422 Q748.1875,381.0234 747.75,381.0234 Q747.3594,381.0234 747.1094,380.8516 Q746.8594,380.6797 746.75,380.2266 Q746.7031,379.9141 746.5313,379.7422 Q746.2188,379.4141 745.6563,379.2266 Q745.0938,379.0234 744.5313,379.0234 Q743.8281,379.0234 743.2344,379.3047 Q742.6563,379.5859 742.2031,380.2109 Q741.75,380.8359 741.75,381.6953 L741.75,382.6172 Q741.75,383.6484 742.5938,384.3359 Q743.4375,385.0234 744.9375,385.0234 Q745.8281,385.0234 746.4531,384.8203 Q746.8125,384.7109 747.2188,384.3516 Q747.4844,384.1484 747.625,384.0859 Q747.7656,384.0234 747.9375,384.0234 Q748.2656,384.0234 748.5,384.2891 Q748.75,384.5391 748.75,384.8984 Q748.75,385.2422 748.4063,385.6484 Q747.9063,386.2422 747.1094,386.5703 Q746.0625,387.0234 744.7813,387.0234 Q743.2813,387.0234 742.0781,386.4297 Q741.1094,385.9609 740.4219,384.9453 Q739.75,383.9297 739.75,382.7266 L739.75,381.6328 Q739.75,380.3828 740.3438,379.2891 Q740.9531,378.1953 742,377.6172 Q743.0625,377.0234 744.25,377.0234 Q744.9688,377.0234 745.5938,377.2734 Q746.2188,377.5234 746.75,378.0234 Z " fill="#000000"/><text fill="#000000" font-family="sans-serif" font-size="12" font-style="italic" lengthAdjust="spacing" textLength="53" x="836.75" y="377.8633">&#171;service&#187;</text><text fill="#000000" font-family="sans-serif" font-size="14" lengthAdjust="spacing" textLength="196" x="765.25" y="393.0801">EnrollmentManagementService</text><line style="stroke:#181818;stroke-width:0.5;" x1="694.5" x2="999.5" y1="401.0469" y2="401.0469"/><rect fill="none" height="6" style="stroke:#C82930;stroke-width:1.0;" width="6" x="701.5" y="411.3672"/><text fill="#000000" font-family="sans-serif" font-size="14" lengthAdjust="spacing" textLength="281" x="713.5" y="417.7207">enrollmentRepository : EnrollmentRepository</text><line style="stroke:#181818;stroke-width:0.5;" x1="694.5" x2="999.5" y1="424.6875" y2="424.6875"/><ellipse cx="704.5" cy="438.0078" fill="#84BE84" rx="3" ry="3" style="stroke:#038048;stroke-width:1.0;"/><text fill="#000000" font-family="sans-serif" font-size="14" lengthAdjust="spacing" textLength="125" x="713.5" y="441.3613">registerEnrollment()</text></g><!--class StudentManagementService--><g id="elem_StudentManagementService"><rect codeLine="70" fill="#F1F1F1" height="86.3281" id="StudentManagementService" rx="2.5" ry="2.5" style="stroke:#181818;stroke-width:0.5;" width="270" x="440" y="517.5"/><ellipse cx="482" cy="537.0234" fill="#ADD1B2" rx="11" ry="11" style="stroke:#181818;stroke-width:1.0;"/><path d="M484,533.5234 Q484.2031,533.0234 484.4375,532.7734 Q484.6719,532.5234 484.9375,532.5234 Q485.4063,532.5234 485.7031,532.8047 Q486,533.0859 486,533.7422 L486,535.3047 Q486,535.9609 485.7188,536.2422 Q485.4375,536.5234 485,536.5234 Q484.6094,536.5234 484.3594,536.3516 Q484.1094,536.1797 484,535.7266 Q483.9531,535.4141 483.7813,535.2422 Q483.4688,534.9141 482.9063,534.7266 Q482.3438,534.5234 481.7813,534.5234 Q481.0781,534.5234 480.4844,534.8047 Q479.9063,535.0859 479.4531,535.7109 Q479,536.3359 479,537.1953 L479,538.1172 Q479,539.1484 479.8438,539.8359 Q480.6875,540.5234 482.1875,540.5234 Q483.0781,540.5234 483.7031,540.3203 Q484.0625,540.2109 484.4688,539.8516 Q484.7344,539.6484 484.875,539.5859 Q485.0156,539.5234 485.1875,539.5234 Q485.5156,539.5234 485.75,539.7891 Q486,540.0391 486,540.3984 Q486,540.7422 485.6563,541.1484 Q485.1563,541.7422 484.3594,542.0703 Q483.3125,542.5234 482.0313,542.5234 Q480.5313,542.5234 479.3281,541.9297 Q478.3594,541.4609 477.6719,540.4453 Q477,539.4297 477,538.2266 L477,537.1328 Q477,535.8828 477.5938,534.7891 Q478.2031,533.6953 479.25,533.1172 Q480.3125,532.5234 481.5,532.5234 Q482.2188,532.5234 482.8438,532.7734 Q483.4688,533.0234 484,533.5234 Z " fill="#000000"/><text fill="#000000" font-family="sans-serif" font-size="12" font-style="italic" lengthAdjust="spacing" textLength="53" x="564.5" y="533.3633">&#171;service&#187;</text><text fill="#000000" font-family="sans-serif" font-size="14" lengthAdjust="spacing" textLength="178" x="502" y="548.5801">StudentManagementService</text><line style="stroke:#181818;stroke-width:0.5;" x1="441" x2="709" y1="556.5469" y2="556.5469"/><rect fill="none" height="6" style="stroke:#C82930;stroke-width:1.0;" width="6" x="448" y="566.8672"/><text fill="#000000" font-family="sans-serif" font-size="14" lengthAdjust="spacing" textLength="244" x="460" y="573.2207">studentRepository : StudentRepository</text><line style="stroke:#181818;stroke-width:0.5;" x1="441" x2="709" y1="580.1875" y2="580.1875"/><ellipse cx="451" cy="593.5078" fill="#84BE84" rx="3" ry="3" style="stroke:#038048;stroke-width:1.0;"/><text fill="#000000" font-family="sans-serif" font-size="14" lengthAdjust="spacing" textLength="147" x="460" y="596.8613">userStudentOfIdentity()</text></g><!--link EnrollStudentsInBulkbyCSVFileController to CSVReader--><g id="link_EnrollStudentsInBulkbyCSVFileController_CSVReader"><path codeLine="76" d="M977.06,302.2 C993.33,309.07 1009.63,316.26 1025,323.5 C1050.41,335.46 1077.58,349.78 1101.62,363 " fill="none" id="EnrollStudentsInBulkbyCSVFileController-to-CSVReader" style="stroke:#181818;stroke-width:1.0;stroke-dasharray:7.0,7.0;"/><polygon fill="#181818" points="1106.07,365.45,1100.1255,357.5974,1101.6932,363.0327,1096.2579,364.6004,1106.07,365.45" style="stroke:#181818;stroke-width:1.0;"/></g><!--link EnrollStudentsInBulkbyCSVFileUI to EnrollStudentsInBulkbyCSVFileController--><g id="link_EnrollStudentsInBulkbyCSVFileUI_EnrollStudentsInBulkbyCSVFileController"><path codeLine="78" d="M847,126.32 C847,147.13 847,172.47 847,194.78 " fill="none" id="EnrollStudentsInBulkbyCSVFileUI-to-EnrollStudentsInBulkbyCSVFileController" style="stroke:#181818;stroke-width:1.0;stroke-dasharray:7.0,7.0;"/><polygon fill="#181818" points="847,199.79,851,190.79,847,194.79,843,190.79,847,199.79" style="stroke:#181818;stroke-width:1.0;"/></g><!--link EnrollStudentsInBulkbyCSVFileController to EnrollmentManagementService--><g id="link_EnrollStudentsInBulkbyCSVFileController_EnrollmentManagementService"><path codeLine="79" d="M847,302.19 C847,319.75 847,339.38 847,356.69 " fill="none" id="EnrollStudentsInBulkbyCSVFileController-to-EnrollmentManagementService" style="stroke:#181818;stroke-width:1.0;stroke-dasharray:7.0,7.0;"/><polygon fill="#181818" points="847,361.99,851,352.99,847,356.99,843,352.99,847,361.99" style="stroke:#181818;stroke-width:1.0;"/></g><!--link EnrollmentManagementService to CourseManagementService--><g id="link_EnrollmentManagementService_CourseManagementService"><path codeLine="80" d="M855.28,448.35 C859.15,468.15 863.77,491.8 867.75,512.18 " fill="none" id="EnrollmentManagementService-to-CourseManagementService" style="stroke:#181818;stroke-width:1.0;stroke-dasharray:7.0,7.0;"/><polygon fill="#181818" points="868.75,517.29,870.9288,507.6852,867.7804,512.3849,863.0806,509.2365,868.75,517.29" style="stroke:#181818;stroke-width:1.0;"/></g><!--link EnrollmentManagementService to StudentManagementService--><g id="link_EnrollmentManagementService_StudentManagementService"><path codeLine="81" d="M772.32,448.15 C735.59,468.87 691.32,493.85 654.03,514.9 " fill="none" id="EnrollmentManagementService-to-StudentManagementService" style="stroke:#181818;stroke-width:1.0;stroke-dasharray:7.0,7.0;"/><polygon fill="#181818" points="649.52,517.45,659.3242,516.5133,653.8752,514.9939,655.3945,509.5449,649.52,517.45" style="stroke:#181818;stroke-width:1.0;"/></g><!--link CourseManagementService to CourseRepository--><g id="link_CourseManagementService_CourseRepository"><path codeLine="84" d="M875.05,603.84 C874.05,625.64 872.83,652.06 871.84,673.51 " fill="none" id="CourseManagementService-to-CourseRepository" style="stroke:#181818;stroke-width:1.0;stroke-dasharray:7.0,7.0;"/><polygon fill="#181818" points="871.61,678.56,876.0168,669.7521,871.8383,673.5652,868.0252,669.3867,871.61,678.56" style="stroke:#181818;stroke-width:1.0;"/></g><!--link EnrollmentManagementService to EnrollmentRepository--><g id="link_EnrollmentManagementService_EnrollmentRepository"><path codeLine="85" d="M994.37,448.16 C1006.3,456.05 1017.15,465.4 1026,476.5 C1071.15,533.13 1071.55,622.28 1067.18,673.58 " fill="none" id="EnrollmentManagementService-to-EnrollmentRepository" style="stroke:#181818;stroke-width:1.0;stroke-dasharray:7.0,7.0;"/><polygon fill="#181818" points="1066.71,678.72,1071.4906,670.1092,1067.1524,673.7396,1063.522,669.4014,1066.71,678.72" style="stroke:#181818;stroke-width:1.0;"/></g><!--link StudentManagementService to StudentRepository--><g id="link_StudentManagementService_StudentRepository"><path codeLine="86" d="M606.2,603.84 C622.46,625.91 642.22,652.73 658.13,674.32 " fill="none" id="StudentManagementService-to-StudentRepository" style="stroke:#181818;stroke-width:1.0;stroke-dasharray:7.0,7.0;"/><polygon fill="#181818" points="661.26,678.56,659.1368,668.9427,658.2921,674.5362,652.6986,673.6914,661.26,678.56" style="stroke:#181818;stroke-width:1.0;"/></g><!--link Enrollment to EnrollmentStatus--><g id="link_Enrollment_EnrollmentStatus"><path codeLine="88" d="M203,602.63 C203,619.75 203,639.88 203,658.26 " fill="none" id="Enrollment-to-EnrollmentStatus" style="stroke:#181818;stroke-width:1.0;"/><polygon fill="#181818" points="203,663.39,207,654.39,203,658.39,199,654.39,203,663.39" style="stroke:#181818;stroke-width:1.0;"/></g><!--link EnrollmentStatus to EnrollmentStatusDate--><g id="link_EnrollmentStatus_EnrollmentStatusDate"><path codeLine="89" d="M203,765.69 C203,782.96 203,802.4 203,820.07 " fill="none" id="EnrollmentStatus-to-EnrollmentStatusDate" style="stroke:#181818;stroke-width:1.0;"/><polygon fill="#181818" points="203,825.49,207,816.49,203,820.49,199,816.49,203,825.49" style="stroke:#181818;stroke-width:1.0;"/></g><!--link EnrollmentManagementService to Enrollment--><g id="link_EnrollmentManagementService_Enrollment"><path codeLine="90" d="M693.24,424.3 C612.32,435.77 511.9,452.91 424,476.5 C384.32,487.15 341.82,502.19 304.81,516.54 " fill="none" id="EnrollmentManagementService-to-Enrollment" style="stroke:#181818;stroke-width:1.0;stroke-dasharray:7.0,7.0;"/><polygon fill="#181818" points="299.85,518.47,309.6881,518.9302,304.5089,516.655,306.7841,511.4759,299.85,518.47" style="stroke:#181818;stroke-width:1.0;"/></g><!--SRC=[bLN1Zfim4BtdAwpjeOcsIGxjeK9H3issKgHsjzgelJjc8Eu2HhP95Qtstpis9dQ04CeXmVRClCUyn_3-e7MfekMop6YXgpnRC94lMKQLciUSffBcaqb9sGjDWToL4XGKccekYZloxi5UhnE2bqqXNmificodgnZ3rBRuKcKl-zDcz_iRp-3NbgnM5L-lwumvqGVOY4AR590a6ixsaJRxdiHYTn1_fpExV9ky1JmhpJFLIn2BFGED4UxLbT7oP7OCn3J1dqUQmyoTIJpOgADZr1Do2HkBd7BJc7WVVwRGRKoELR07D4qbf5G3aKBezHgty83hKzEQ-o1-cWCxq4AW5EM1iySgtuFyG9Yef8AjuSKJ3hBXqukvGyagXJ17cbL0nFuFCErrW7PWH7PQyY9rP6pMKp9jnyqwPElzAu63v1vCEyOIjC4HCNytA9gGQpJDsK32fRObICMLXe918B0Dv8K6cL06P6D5UOPIAAw5FE43oVEYUHnpYQHMJfy20kSkjSiw_zseEropGVPLVJj645Rq29sohdJO9bgM6MVDW02QV8e_OfKHqo6O1AiLEozwJN1avsbXrZzeWU3s1EIHiyOKFkCxIeSfxdssBtBZ2eQR6donH8hy9yMv1zWeDVKDT0F4Ijn1HCwgllE4MTiDKSSW3GUx_UG5RACEF6iVClH96_KgVfvqgN6t3EPEO9sQX1Dk50FLiMpKjR73hZ3RdVMq00cCzSrYllO3_aOQVenC-DXFplzG63Bca92MVh-zRkPTqmPdoJN7UhX0aLiulHQwQeo0MH0UW93vHSrw14yw7ww-A3ly1-akmYHin3y0]--></g></svg>